<?xml version="1.0" encoding="utf-8"?>
<!-- Generator: Adobe Illustrator 16.0.0, SVG Export Plug-In . SVG Version: 6.00 Build 0)  -->
<!DOCTYPE svg PUBLIC "-//W3C//DTD SVG 1.1//EN" "http://www.w3.org/Graphics/SVG/1.1/DTD/svg11.dtd">
<svg version="1.1" id="Capa_1" xmlns="http://www.w3.org/2000/svg" xmlns:xlink="http://www.w3.org/1999/xlink" x="0px" y="0px"
	 width="120px" height="120px" viewBox="0 0 120 120" enable-background="new 0 0 120 120" xml:space="preserve">
<rect y="0" fill="#010101" width="119.999" height="120"/>
<g>
	<path fill="#ED2224" d="M103.898,96.054h-9.285V82.444v-5.457c-1.631,2.623-5.528,6.662-13.396,6.662
		c-11.411,0-19.208-9.072-19.208-20.059c0-12.759,8.576-21.265,19.775-21.265c7.725,0,11.625,4.182,13.183,6.804v-5.6h8.932V96.054z
		 M71.294,63.236c0,5.67,4.395,11.696,11.907,11.696c3.262,0,6.237-1.348,8.365-3.475c2.126-2.125,3.4-5.103,3.4-8.363
		c0.144-3.332-1.134-6.379-3.259-8.577c-2.199-2.197-5.316-3.544-8.578-3.544c-7.726,0-11.836,6.166-11.836,12.191V63.236z"/>
</g>
<g>
	<path fill="#F6EB16" d="M82.353,66.431h-9.285v-5.6c-2.481,4.538-7.656,6.805-13.113,6.805c-12.475,0-19.776-9.71-19.776-20.697
		c0-12.263,8.86-20.627,19.776-20.627c7.088,0,11.412,3.757,13.113,6.875v-5.67h9.285V66.431z M49.464,47.15
		c0,4.82,3.474,11.837,11.836,11.837c5.175,0,8.577-2.693,10.35-6.237c0.922-1.701,1.347-3.544,1.488-5.458
		c0.07-1.843-0.283-3.757-1.062-5.458c-1.631-3.686-5.246-6.875-10.846-6.875c-7.513,0-11.766,6.095-11.766,12.121V47.15z"/>
</g>
<g>
	<path fill="#1072BA" d="M11.383,34.169h8.718v5.67c2.765-3.898,7.301-6.875,13.752-6.875c13.609,0,19.35,11.553,19.35,20.981
		c0,11.058-7.868,20.343-19.279,20.343c-7.584,0-11.695-3.898-13.254-6.379v5.174v13.609h-9.286V34.169z M43.918,53.59
		c0-5.6-4.041-11.979-11.908-11.979c-3.403,0-6.309,1.347-8.436,3.544c-2.056,2.126-3.331,5.174-3.331,8.577
		c0,3.332,1.275,6.309,3.402,8.435c2.126,2.127,5.103,3.474,8.435,3.474c7.087,0,11.837-5.6,11.837-11.979V53.59z"/>
</g>
</svg>
