<?xml version="1.0" encoding="utf-8"?>
<!-- Generator: Adobe Illustrator 16.0.0, SVG Export Plug-In . SVG Version: 6.00 Build 0)  -->
<!DOCTYPE svg PUBLIC "-//W3C//DTD SVG 1.1//EN" "http://www.w3.org/Graphics/SVG/1.1/DTD/svg11.dtd">
<svg version="1.1" id="Capa_1" xmlns="http://www.w3.org/2000/svg" xmlns:xlink="http://www.w3.org/1999/xlink" x="0px" y="0px"
	 width="120px" height="120px" viewBox="0 0 120 120" enable-background="new 0 0 120 120" xml:space="preserve">
<polygon fill="#D8D6EC" points="20.986,72.5 14.986,78.5 39.486,78.5 36.486,73 "/>
<g>
	<rect x="19.479" y="24.904" fill="#86328C" width="50.235" height="49.542"/>
</g>
<ellipse fill="#D8D6EC" cx="45.736" cy="83.997" rx="19.385" ry="7.354"/>
<ellipse fill="#D8D6EC" cx="75.734" cy="91.499" rx="18.892" ry="5.998"/>
<g>
	<rect x="54.375" y="31.524" fill="#E9187E" width="43.053" height="42.458"/>
</g>
<g>
	<path fill="#0083CA" d="M102.029,54.947c0,13.345-10.816,24.161-24.16,24.161c-13.342,0-24.155-10.815-24.155-24.161
		c0-13.342,10.813-24.158,24.155-24.158C91.213,30.789,102.029,41.605,102.029,54.947z"/>
</g>
<g>
	<circle fill="#39B54A" cx="47.611" cy="63.154" r="24.158"/>
</g>
<g>
	<circle fill="#F15A22" cx="75.82" cy="71.873" r="22.619"/>
</g>
</svg>
