<?xml version="1.0" encoding="utf-8"?>
<!-- Generator: Adobe Illustrator 16.0.0, SVG Export Plug-In . SVG Version: 6.00 Build 0)  -->
<!DOCTYPE svg PUBLIC "-//W3C//DTD SVG 1.1//EN" "http://www.w3.org/Graphics/SVG/1.1/DTD/svg11.dtd">
<svg version="1.1" id="Capa_1" xmlns="http://www.w3.org/2000/svg" xmlns:xlink="http://www.w3.org/1999/xlink" x="0px" y="0px"
	 width="120px" height="120px" viewBox="0 0 120 120" enable-background="new 0 0 120 120" xml:space="preserve">
<rect x="0.006" y="0.001" fill="#FFF200" width="119.994" height="119.999"/>
<g>
	<rect x="36.746" y="22.52" fill="#00A651" width="60.109" height="59.298"/>
	<path fill="#91BE4A" d="M96.355,23.02v58.298H37.246V23.02H96.355 M97.355,22.02h-1H37.246h-1v1v58.298v1h1h59.109h1v-1V23.02
		V22.02L97.355,22.02z"/>
</g>
<g>
	<rect x="56.557" y="37.761" fill="#2E3192" width="49.259" height="48.594"/>
	<path fill="#0083CA" d="M105.316,38.261v47.594h-48.26V38.261H105.316 M106.316,37.261h-1h-48.26h-1v1v47.594v1h1h48.26h1v-1
		V38.261V37.261L106.316,37.261z"/>
</g>
<g>
	
		<rect x="8.492" y="44.543" transform="matrix(0.2898 -0.9571 0.9571 0.2898 -35.2206 74.798)" fill="#E9187E" width="48.595" height="33.175"/>
	<path fill="#A967AA" d="M24.289,33.692l30.794,9.325L41.292,88.566l-30.797-9.324L24.289,33.692 M23.622,32.445l-0.29,0.957
		L9.539,78.952l-0.29,0.957l0.957,0.29l30.797,9.324l0.957,0.291l0.29-0.957l13.79-45.55l0.29-0.958l-0.957-0.29l-30.794-9.325
		L23.622,32.445L23.622,32.445z"/>
</g>
<g>
	<rect x="27.773" y="61.161" fill="#9C298C" width="48.586" height="33.179"/>
	<path fill="#A967AA" d="M75.859,61.661V93.84H28.273V61.661H75.859 M76.859,60.661h-1H28.273h-1v1V93.84v1h1h47.586h1v-1V61.661
		V60.661L76.859,60.661z"/>
</g>
</svg>
