<svg version="1.1" id="svg_0_1" valid="0" xmlns="http://www.w3.org/2000/svg" xmlns:xlink="http://www.w3.org/1999/xlink" x="0px" y="0px"
	 width="85.04px" height="85.04px" viewBox="0 0 85.04 85.04" enable-background="new 0 0 85.04 85.04" xml:space="preserve">
	
	 <path fill="#FFFFFF" stroke="#7B5B3F" stroke-linecap="round" stroke-linejoin="round" d="M54.688,14.461
		c2.564-0.497,5.208-0.765,7.917-0.765c3.654,0,7.194,0.479,10.569,1.37C65.631,6.702,54.695,1.438,42.521,1.438
		c-9.063,0-17.435,2.921-24.235,7.863c4.089-1.358,8.462-2.103,13.012-2.103C39.986,7.198,48.043,9.886,54.688,14.461"/>
	
		<path fill="#FFFFFF" stroke="#7B5B3F" stroke-linecap="round" stroke-linejoin="round" d="M54.688,14.461
		C65.445,21.868,72.5,34.238,72.5,48.252c0,13.646-6.688,25.729-16.965,33.193c16.376-5.429,28.187-20.812,28.187-38.953
		c0-10.544-3.99-20.156-10.548-27.426c-3.375-0.89-6.915-1.37-10.569-1.37C59.896,13.696,57.252,13.964,54.688,14.461"/>
	
		<path fill="#FFFFFF" stroke="#7B5B3F" stroke-linecap="round" stroke-linejoin="round" d="M1.318,42.492
		c0,19.034,13.001,35.036,30.634,39.687c-6.558-7.271-10.551-16.883-10.551-27.427c0-19.976,14.323-36.611,33.286-40.291
		c-6.645-4.575-14.701-7.263-23.39-7.263c-4.55,0-8.921,0.745-13.012,2.103C8.004,16.766,1.318,28.848,1.318,42.492"/>
	
		<path fill="#FFFFFF" stroke="#7B5B3F" stroke-linecap="round" stroke-linejoin="round" d="M72.5,48.252
		c0-14.014-7.054-26.384-17.813-33.791c-18.964,3.68-33.285,20.315-33.285,40.29c0,10.545,3.992,20.157,10.549,27.428
		c3.374,0.89,6.916,1.369,10.57,1.369c4.549,0,8.92-0.746,13.014-2.103C65.813,73.98,72.5,61.898,72.5,48.252"/>
	
		<path fill="#FFFFFF" stroke="#7B5B3F" stroke-linecap="round" stroke-linejoin="round" d="M62.594,17.995
		c-0.639,3.282-4.923,5.207-9.566,4.302c-4.641-0.906-7.887-4.302-7.246-7.584c0.641-3.282,4.924-5.208,9.565-4.301
		C59.99,11.318,63.233,14.713,62.594,17.995"/>
	
		<path fill="#FFFFFF" stroke="#7B5B3F" stroke-linecap="round" stroke-linejoin="round" d="M54.325,22.461
	c0,0,0.285,25.935-11.667,61.14"/>
	
	<g id="clickMark_0_1" class="none">
		<path fill="#FFFFFF" d="M83.975,42.521c0,22.892-18.561,41.454-41.458,41.454c-22.893,0-41.453-18.562-41.453-41.454 C1.065,19.623,19.625,1.064,42.519,1.064C65.415,1.064,83.975,19.623,83.975,42.521z" />
		<path fill="none" stroke="#000000" stroke-width="0.9447" d="M42.519,73.262c16.977,0,30.746-13.76,30.746-30.741 c0-16.98-13.769-30.74-30.746-30.74c-16.979,0-30.743,13.76-30.743,30.74C11.774,59.502,25.54,73.262,42.519,73.262z" />
		<path fill="#D7DF23" d="M42.519,73.262c16.977,0,30.746-13.76,30.746-30.741c0-16.98-13.769-30.74-30.746-30.74 c-16.979,0-30.743,13.76-30.743,30.74C11.774,59.502,25.54,73.262,42.519,73.262" />
		<path fill="none" stroke="#000000" stroke-width="0.8879" d="M42.519,73.262c16.977,0,30.746-13.76,30.746-30.741 c0-16.98-13.769-30.74-30.746-30.74c-16.979,0-30.743,13.76-30.743,30.74C11.774,59.502,25.54,73.262,42.519,73.262" />
		<path fill="#ED1C24" d="M58.706,24.476c0.098,0.837-0.395,1.623-1.477,2.36c-1.377,0.983-2.213,1.721-2.508,2.211l-8.408,14.606 l7.08,13.721c0.1,0.148,0.615,0.91,1.549,2.287c0.591,0.838,0.886,1.6,0.886,2.287c0,0.395-0.071,0.789-0.222,1.182 c-0.836,2.113-2.387,3.172-4.646,3.172c-0.937,0-1.846-0.197-2.731-0.592c-1.229-0.541-1.904-1.242-2.027-2.102 c-0.122-0.861-0.232-1.707-0.332-2.545l-3.982-9.888l-4.424,8.854c-0.295,0.982-0.64,1.953-1.033,2.914 c-0.395,0.959-1.157,1.437-2.287,1.437c-1.428,0-2.804-0.491-4.131-1.476c-1.426-1.131-2.041-2.383-1.844-3.762 c0.097-0.541,0.429-1.115,0.995-1.733c0.565-0.615,0.922-1.068,1.071-1.363l6.492-11.806l-4.577-14.306 c-0.147-0.493-0.626-1.096-1.438-1.808s-1.268-1.387-1.364-2.028c-0.148-1.13,0.539-2.139,2.065-3.024 c1.376-0.737,2.851-1.107,4.427-1.107c0.886,0,1.573,0.148,2.066,0.441c1.081,0.692,1.743,1.563,1.989,2.62 c0.245,1.059,0.468,2.104,0.664,3.135l2.212,6.934l4.869-8.706c0.442-0.934,0.924-1.891,1.438-2.876 c0.519-0.985,1.216-1.646,2.103-1.991c0.539-0.247,1.154-0.37,1.844-0.37c1.279,0,2.521,0.356,3.726,1.071 C57.954,22.938,58.606,23.689,58.706,24.476z" />
	</g>
</svg>
