<svg version="1.1" id="svg_0_2" valid="0" xmlns="http://www.w3.org/2000/svg" xmlns:xlink="http://www.w3.org/1999/xlink" x="0px" y="0px"
	 width="85.04px" height="85.04px" viewBox="0 0 85.04 85.04" enable-background="new 0 0 85.04 85.04" xml:space="preserve">
	
	 <path fill="#FFFFFF" stroke="#7B5B3F" stroke-linecap="round" stroke-linejoin="round" d="M54.688,14.461
		c2.564-0.497,5.208-0.765,7.917-0.765c3.654,0,7.194,0.479,10.569,1.37C65.631,6.702,54.695,1.438,42.521,1.438
		c-9.063,0-17.435,2.921-24.235,7.863c4.089-1.358,8.462-2.103,13.012-2.103C39.986,7.198,48.043,9.886,54.688,14.461"/>
	
		<path fill="#FFFFFF" stroke="#7B5B3F" stroke-linecap="round" stroke-linejoin="round" d="M54.688,14.461
		C65.445,21.868,72.5,34.238,72.5,48.252c0,13.646-6.688,25.729-16.965,33.193c16.376-5.429,28.187-20.812,28.187-38.953
		c0-10.544-3.99-20.156-10.548-27.426c-3.375-0.89-6.915-1.37-10.569-1.37C59.896,13.696,57.252,13.964,54.688,14.461"/>
	
		<path fill="#FFFFFF" stroke="#7B5B3F" stroke-linecap="round" stroke-linejoin="round" d="M1.318,42.492
		c0,19.034,13.001,35.036,30.634,39.687c-6.558-7.271-10.551-16.883-10.551-27.427c0-19.976,14.323-36.611,33.286-40.291
		c-6.645-4.575-14.701-7.263-23.39-7.263c-4.55,0-8.921,0.745-13.012,2.103C8.004,16.766,1.318,28.848,1.318,42.492"/>
	
		<path fill="#FFFFFF" stroke="#7B5B3F" stroke-linecap="round" stroke-linejoin="round" d="M72.5,48.252
		c0-14.014-7.054-26.384-17.813-33.791c-18.964,3.68-33.285,20.315-33.285,40.29c0,10.545,3.992,20.157,10.549,27.428
		c3.374,0.89,6.916,1.369,10.57,1.369c4.549,0,8.92-0.746,13.014-2.103C65.813,73.98,72.5,61.898,72.5,48.252"/>
	
		<path fill="#FFFFFF" stroke="#7B5B3F" stroke-linecap="round" stroke-linejoin="round" d="M62.594,17.995
		c-0.639,3.282-4.923,5.207-9.566,4.302c-4.641-0.906-7.887-4.302-7.246-7.584c0.641-3.282,4.924-5.208,9.565-4.301
		C59.99,11.318,63.233,14.713,62.594,17.995"/>
	
		<path fill="#FFFFFF" stroke="#7B5B3F" stroke-linecap="round" stroke-linejoin="round" d="M54.325,22.461
	c0,0,0.285,25.935-11.667,61.14"/>
</svg>
