<svg version="1.1" id="svg_0_v" valid="1" xmlns="http://www.w3.org/2000/svg" xmlns:xlink="http://www.w3.org/1999/xlink" x="0px" y="0px" width="85.04px" height="85.04px" viewBox="0 0 85.04 85.04" enable-background="new 0 0 85.04 85.04" xml:space="preserve">
	<path fill="#FFFFFF" toFill="#FFE749" stroke="#7F5A51" stroke-linecap="round" stroke-linejoin="round" d="M54.632,14.615
	c2.552-0.494,5.184-0.761,7.88-0.761c3.638,0,7.16,0.477,10.521,1.363C65.524,6.892,54.638,1.652,42.521,1.652
	c-9.021,0-17.355,2.908-24.126,7.827c4.071-1.352,8.425-2.094,12.953-2.094C39.997,7.386,48.015,10.061,54.632,14.615" class="colorModel" fixedColor="" />
	
	<path fill="#FFFFFF" toFill="#EF443B" stroke="#7F5A51" stroke-linecap="round" stroke-linejoin="round" d="M54.632,14.615
	c10.707,7.374,17.729,19.688,17.729,33.637c0,13.584-6.657,25.611-16.888,33.042c16.301-5.403,28.061-20.717,28.061-38.774
	c0-10.496-3.974-20.064-10.501-27.302c-3.361-0.887-6.884-1.363-10.521-1.363C59.815,13.854,57.184,14.121,54.632,14.615" class="colorModel" fixedColor="" />
	
	<path fill="#FFFFFF" toFill="#EF443B" stroke="#7F5A51" stroke-linecap="round" stroke-linejoin="round" d="M1.506,42.52
	c0,18.948,12.941,34.876,30.493,39.504c-6.528-7.237-10.502-16.804-10.502-27.3c0-19.886,14.258-36.445,33.135-40.108
	c-6.617-4.555-14.635-7.229-23.284-7.229c-4.528,0-8.88,0.742-12.953,2.094C8.161,16.91,1.506,28.936,1.506,42.52" class="colorModel" fixedColor="" />
	
	<path fill="#FFFFFF" toFill="#FFE749" stroke="#7F5A51" stroke-linecap="round" stroke-linejoin="round" d="M72.361,48.252
	c0-13.949-7.021-26.263-17.729-33.637c-18.878,3.663-33.135,20.223-33.135,40.107c0,10.497,3.974,20.063,10.501,27.301
	c3.359,0.887,6.884,1.364,10.522,1.364c4.528,0,8.878-0.742,12.953-2.094C65.706,73.863,72.361,61.836,72.361,48.252" class="colorModel" fixedColor="" />
	
	<path fill="#FFFFFF" toFill="#BCE5EE" stroke="#7F5A51" stroke-linecap="round" stroke-linejoin="round" d="M62.502,18.133
	c-0.636,3.268-4.902,5.185-9.523,4.282c-4.621-0.9-7.852-4.282-7.214-7.549c0.637-3.267,4.9-5.184,9.522-4.281
	C59.91,11.487,63.139,14.866,62.502,18.133" class="colorModel" fixedColor="" />
	
	<g id="clickMark_0_v" class="none">
		<path fill="#FFFFFF" d="M83.978,42.521c0,22.892-18.561,41.454-41.459,41.454c-22.895,0-41.457-18.562-41.457-41.454 c0-22.899,18.562-41.457,41.457-41.457C65.417,1.064,83.978,19.623,83.978,42.521z" />
		<path fill="none" stroke="#000000" stroke-width="0.9447" d="M42.519,73.262c16.982,0,30.749-13.76,30.749-30.741 c0-16.98-13.767-30.74-30.749-30.74c-16.981,0-30.745,13.76-30.745,30.74C11.772,59.502,25.537,73.262,42.519,73.262z" />
		<path fill="#D7DF23" stroke="#000000" stroke-width="0.8879" d="M42.519,73.262c16.982,0,30.749-13.76,30.749-30.741 c0-16.98-13.767-30.74-30.749-30.74c-16.981,0-30.745,13.76-30.745,30.74C11.772,59.502,25.537,73.262,42.519,73.262" />
		<path fill="#009444" d="M61.976,26.239c0,0.923-0.524,1.787-1.572,2.587c-1.356,1.11-2.188,1.91-2.495,2.403L43.209,54.614 c-1.108,1.972-2.188,3.943-3.236,5.912c-1.724,2.527-3.481,3.789-5.268,3.789c-0.8,0-1.617-0.229-2.447-0.692 c-0.833-0.459-1.312-1.338-1.435-2.634c-0.246-1.786-0.493-2.926-0.739-3.418l-4.621-9.43c-0.185-0.369-1.017-1.416-2.496-3.143 c-0.864-1.109-1.202-2.277-1.015-3.511c0.185-1.54,0.891-2.895,2.126-4.066c1.229-1.17,2.555-1.755,3.972-1.755 c0.616,0,1.234,0.122,1.849,0.368c0.309,0.125,0.741,0.958,1.294,2.496c0.74,2.095,1.265,3.482,1.572,4.159l3.326,6.192 l13.405-21.719c0.678-1.293,1.354-2.618,2.035-3.975c0.983-1.355,2.187-2.033,3.604-2.033c1.537,0,3.064,0.555,4.574,1.666 C61.218,23.93,61.976,25.067,61.976,26.239z" />
	</g>
</svg>
