<svg version="1.1" id="svg_1" valid="0" xmlns="http://www.w3.org/2000/svg" xmlns:xlink="http://www.w3.org/1999/xlink" x="0px" y="0px" width="85.04px" height="85.04px" viewBox="0 0 85.04 85.04" enable-background="new 0 0 85.04 85.04" xml:space="preserve">
	<path fill="#EE3E56" stroke="#982136" stroke-linecap="round" stroke-linejoin="round" d="M58.585,15.04
	c0,0,7.387-22.154,18.304-8.99c0,0,2.996,5.78-1.82,10.917C75.068,16.966,68.86,10.759,58.585,15.04"/>
	
	<path fill="#982136" d="M76.679,14.908c-5.023-3.708-12.061-4.521-17.199-0.677c-0.077,0.059,0.168,0.095,0.223,0.054
	c5.022-3.757,11.858-2.941,16.753,0.674C76.51,14.999,76.755,14.965,76.679,14.908"/>
	
	<path name="model_hair" fill="#EE3E56" stroke="#982136" stroke-linecap="round" stroke-linejoin="round" d="M24.017,15.147
	c0,0-2.248-14.77-11.771-13.807c0,0-5.352,1.285-4.068,11.237c0,0-0.279,7.186,7.706,2.248
	C17.615,13.755,23.054,12.685,24.017,15.147" class="colorModel" fixedColor="" />
	
	<path fill="#982136" d="M9.126,15.018c3.809-2.34,10.716-5.325,14.264-1.219c0.05,0.057,0.29-0.009,0.243-0.063
	c-3.648-4.224-10.828-1.143-14.697,1.235C8.821,15.042,9.07,15.052,9.126,15.018"/>
	
	<path name="model_skin" fill="#F9D2C3" stroke="#CB7A94" stroke-linecap="round" stroke-linejoin="round" d="M26.227,65.758
	c0,0-5.245,0.858-9.635,1.37c0.442,1.895,0.661,4.228-0.353,5.716c-1.722,2.529,2.036,3.114,2.389,6.314
	c3.298-1.639,12.155-5.071,15.381-5.071C37.642,74.087,26.227,65.758,26.227,65.758" class="colorModel" fixedColor="" />
	
	<path name="model_sock" fill="#FAC27B" stroke="#92643C" stroke-linecap="round" stroke-linejoin="round" d="M16.239,72.844
	c1.014-1.489,0.795-3.822,0.353-5.716c-2.084,0.245-3.978,0.412-5.021,0.372c-3.243-0.125-4.929,3.106-4.151,7.954
	s2.983,5.471,4.928,5.471c0,0,3.373-0.001,5.319-1.244c0.216-0.139,0.548-0.316,0.962-0.521
	C18.275,75.958,14.519,75.374,16.239,72.844" class="colorModel" fixedColor="" />
	
	<path name="model_foot" fill="#E79E47" stroke="#92643C" stroke-linecap="round" stroke-linejoin="round" d="M14.703,73.986
	c0.272,3.708-1.138,6.827-3.15,6.963c-2.013,0.135-3.866-2.762-4.138-6.474c-0.273-3.708,1.137-6.823,3.15-6.962
	C12.578,67.38,14.431,70.275,14.703,73.986" class="colorModel" fixedColor="" />
	
	<path name="model_skin" fill="#F9D2C3" stroke="#CB7A94" stroke-linecap="round" stroke-linejoin="round" d="M71.371,50.582
	c-0.368-0.23-2.938-0.926-3.19-0.982c-2.014-0.451-6.587-2.979-8.676-3.281c-0.179-0.024-0.313-0.038-0.4-0.038l-2.281,7.387
	c2.149,1.074,6.666,5.329,9.137,6.583c0.575,0.294,1.118,0.549,1.626,0.749C65.178,54.721,67.927,52.765,71.371,50.582" class="colorModel" fixedColor="" />
	
	<path name="model_skin" fill="#F9D2C3" stroke="#CB7A94" stroke-linecap="round" stroke-linejoin="round" d="M23.426,46.397
	c0,0-7.649,0.749-9.277,3.382c-1.002,1.621-2.291,6.878,3.929,8.841c0,0,7.53-0.436,8.295-3.274
	C27.137,52.508,23.426,46.397,23.426,46.397" class="colorModel" fixedColor="" />
	
	<path name="model_dress" fill="#B191BF" stroke="#8958A1" stroke-linecap="round" stroke-linejoin="round" d="M19.934,46.723
	l4.802,10.371c0,0,5.893-1.421,6.875-3.058c0.982-1.637,2.4-11.677,2.4-11.677S21.789,45.961,19.934,46.723" class="colorModel" fixedColor="" />
	
	<path fill="#8958A1" d="M21.015,49.073c1.849-0.788,3.678-1.628,5.486-2.508c1.143-0.555,2.274-1.139,3.37-1.78
	c0.605-0.356,1.572-0.822,1.863-1.515c0.027-0.063-0.215-0.147-0.246-0.076c-0.287,0.677-1.258,1.134-1.847,1.489
	c-1.268,0.766-2.608,1.419-3.942,2.06c-1.609,0.776-3.239,1.515-4.882,2.213C20.728,48.995,20.952,49.099,21.015,49.073"/>
	
	<path fill="#8958A1" d="M22.217,51.69c2.026-0.898,4.027-1.858,5.999-2.869c1.293-0.662,2.574-1.357,3.798-2.14
	c0.582-0.374,1.617-0.928,1.795-1.671c0.018-0.072-0.231-0.137-0.249-0.066c-0.191,0.794-1.385,1.394-2.006,1.792
	c-1.324,0.847-2.731,1.569-4.131,2.279c-1.778,0.902-3.584,1.756-5.407,2.564C21.926,51.621,22.154,51.715,22.217,51.69"/>
	
	<path fill="#8958A1" d="M23.731,55.173c1.397-0.538,2.786-1.099,4.167-1.678c1.05-0.438,2.092-0.891,3.117-1.387
	c0.481-0.232,1.29-0.509,1.591-0.993c0.042-0.064-0.204-0.115-0.244-0.054c-0.292,0.467-1.096,0.742-1.564,0.973
	c-0.92,0.455-1.868,0.857-2.813,1.26c-1.465,0.622-2.941,1.216-4.428,1.788C23.43,55.13,23.668,55.197,23.731,55.173"/>
	
	<path name="model_dress" fill="#B191BF" stroke="#8958A1" stroke-linecap="round" stroke-linejoin="round" d="M35.104,39.085
	c0,0-6.767,12.986-6.439,17.244c0,0,0.435,4.8-3.057,6.548c0,0-13.443,3.298-14.862,4.496c0,0,13.225,0.304,16.5,4.669
	c0,0,4.693,6.985,8.185,5.785c0,0,3.82,0.328,8.731-5.021c0,0,15.389-3.383,16.153-0.219c0,0-0.982-12.004-2.947-15.932
	c0,0,5.238-8.403,5.457-11.46c0,0-11.461-1.747-13.424-4.039l-3.057-1.526L35.104,39.085z" class="colorModel" fixedColor="" />
	
	<path fill="#8958A1" d="M36.615,39.057c-0.487,6.147-1.321,12.354-3.346,18.204c-1.11,3.207-2.679,6.426-5.167,8.795
	c-2.057,1.957-4.541,2.8-7.317,2.438c-0.175-0.022-0.063,0.098,0.045,0.113c2.664,0.345,5.026-0.352,7.117-2.12
	c2.506-2.122,4.068-5.225,5.23-8.232c2.345-6.065,3.179-12.703,3.69-19.142C36.873,39.033,36.621,38.991,36.615,39.057"/>
	
	<path fill="#8958A1" d="M39.122,43.676c0.542,9.813-1.909,24.029-12.488,27.672c-0.158,0.056,0.06,0.107,0.134,0.082
	c10.655-3.67,13.155-17.876,12.611-27.769C39.375,43.587,39.119,43.602,39.122,43.676"/>
	
	<path fill="#8958A1" d="M41.632,44.32c0.192,4.959-0.039,9.975-0.581,14.905c-0.425,3.868-1.095,7.767-2.431,11.432
	c-1.034,2.838-2.726,6.026-5.79,7.021c-0.126,0.043,0.119,0.097,0.18,0.078c2.747-0.892,4.347-3.49,5.436-6.006
	c1.53-3.53,2.212-7.432,2.708-11.227c0.697-5.342,0.944-10.813,0.734-16.197C41.887,44.248,41.63,44.25,41.632,44.32"/>
	
	<path fill="#8958A1" d="M44.438,42.652c0.395,4.29,0.797,8.579,1.203,12.867c0.438,4.617,0.541,9.459,1.448,14.015
	c0.017,0.079,0.271,0.06,0.259-0.003c-0.907-4.555-1.009-9.397-1.449-14.015c-0.408-4.288-0.811-8.578-1.203-12.866
	C44.689,42.572,44.433,42.583,44.438,42.652"/>
	
	<path fill="#8958A1" d="M46.217,39.604c0.222,3.993,0.813,7.995,1.613,11.909c1.159,5.663,2.895,12.762,7.695,16.507
	c0.054,0.042,0.3,0.051,0.192-0.032c-4.776-3.73-6.459-10.822-7.638-16.451c-0.817-3.897-1.391-7.899-1.609-11.88
	C46.466,39.574,46.216,39.546,46.217,39.604"/>
	
	<path fill="#8958A1" d="M57.482,56.652c-3.396-4.606-6.521-9.915-7.957-15.482c-0.02-0.072-0.267-0.099-0.25-0.023
	c1.44,5.58,4.575,10.894,7.979,15.511C57.295,56.714,57.542,56.733,57.482,56.652"/>
	
	<path fill="#8958A1" d="M49.605,41.81c1.252,2.01,2.735,3.905,4.372,5.614c1.634,1.708,4.17,3.986,6.749,3.168
	c0.131-0.04-0.106-0.116-0.168-0.097c-2.915,0.923-5.805-2.397-7.494-4.346c-1.175-1.353-2.261-2.813-3.211-4.332
	C49.813,41.751,49.569,41.757,49.605,41.81"/>
	
	<path name="model_collar" fill="#F8BFAD" stroke="#CB7A94" stroke-linecap="round" stroke-linejoin="round" d="M35.977,37.884
	c0,0,0.874,7.313,5.784,7.641c0,0,5.349,0.98,5.24-6.985C46.893,30.573,35.977,37.884,35.977,37.884" class="colorModel" fixedColor="" />
	
	<path name="model_foot" fill="#E79E47" stroke="#92643C" stroke-linecap="round" stroke-linejoin="round" d="M61.365,74.86
	c-0.443,4.745-3.918,9.849-8.511,8.728c-5.436-1.328-11.278-10.371-5.607-14.614c3.196-2.394,9.745-2.981,12.633,0.22
	C61.133,70.586,61.567,72.687,61.365,74.86" class="colorModel" fixedColor="" />
	
	<path name="model_skin" fill="#F9D2C3" stroke="#CB7A94" stroke-linecap="round" stroke-linejoin="round" d="M26.372,20.07
	c0,0-6.101,8.348-3.104,13.913c0,0,4.174,7.384,18.195,7.598c0.441,0.007,17.22,1.913,17.979-13.057
	c0.322-6.314-4.067-8.775-4.067-8.775l-13.056-7.064L25.943,20.07" class="colorModel" fixedColor="" />
	
	<path name="model_hairBands" fill="#D189B7" stroke="#8958A1" stroke-linecap="round" stroke-linejoin="round" d="M26.8,16.324
	c0,1.478-1.079,2.676-2.408,2.676s-2.408-1.198-2.408-2.676c0-1.477,1.079-2.677,2.408-2.677S26.8,14.847,26.8,16.324" class="colorModel" fixedColor="" />
	
	<path name="model_hairBands" fill="#D189B7" stroke="#8958A1" stroke-linecap="round" stroke-linejoin="round" d="M60.085,16.859
	c0,1.596-1.054,2.89-2.355,2.89c-1.299,0-2.354-1.294-2.354-2.89c0-1.595,1.056-2.889,2.354-2.889
	C59.031,13.97,60.085,15.264,60.085,16.859" class="colorModel" fixedColor="" />
	
	<path name="model_noose" fill="#F69892" stroke="#B36F85" stroke-linecap="round" stroke-linejoin="round" d="M42.425,29.97
	c0,0.68-1.126,1.23-2.515,1.23s-2.515-0.55-2.515-1.23c0-0.681,1.125-1.232,2.515-1.232S42.425,29.289,42.425,29.97" class="colorModel" fixedColor="" />
	
	<path fill="#131312" d="M30.974,28.792c0,0.857-0.695,1.553-1.552,1.553s-1.552-0.695-1.552-1.553s0.695-1.551,1.552-1.551
	S30.974,27.934,30.974,28.792"/>
	
	<path fill="#131312" d="M51.31,27.775c0,0.768-0.67,1.392-1.499,1.392c-0.826,0-1.499-0.624-1.499-1.392s0.673-1.392,1.499-1.392
	C50.64,26.383,51.31,27.007,51.31,27.775"/>
	
	<path fill="#CB7A94" d="M37.262,34.399c0.897,3.96,6.157,3.911,6.585-0.271c0.015-0.146-0.476-0.214-0.49-0.079
	c-0.153,1.501-0.965,2.962-2.602,3.142c-1.579,0.174-2.706-1.409-3.013-2.767C37.712,34.29,37.227,34.246,37.262,34.399"/>
	
	<path name="model_hair" fill="#EE3E56" stroke="#982136" stroke-linecap="round" stroke-linejoin="round" d="M39.001,14.611
	c0,0-11.987,7.599-16.589,16.588c0,0-7.813-15.196,16.054-21.083c0,0,25.579-2.568,21.084,17.766c0,0-3.819-2.161-5.565-2.676
	C43.789,22.195,39.001,15.467,39.001,14.611" class="colorModel" fixedColor="" />
	
	<path fill="#982136" d="M38.733,10.462c0-0.017,0-0.036,0.002-0.053c-0.137,0.042-0.274,0.081-0.411,0.122
	c-0.137-0.051-0.02,0.455-0.004,0.609c0.053,0.528,0.109,1.055,0.171,1.582c0.075,0.624,0.045,1.925,0.525,2.409
	c0.105,0.106,0.558-0.02,0.468-0.11c-0.515-0.518-0.463-2.033-0.541-2.706c-0.032-0.275,0.002-1.857-0.289-1.966
	c-0.094-0.035-0.397-0.017-0.412,0.121c-0.003,0.017-0.003,0.034-0.003,0.052C38.238,10.649,38.73,10.615,38.733,10.462"/>
	
	<path fill="#FFFFFF" d="M30.267,28.139c0,0.206-0.167,0.372-0.372,0.372c-0.206,0-0.372-0.166-0.372-0.372
	c0-0.205,0.166-0.372,0.372-0.372C30.1,27.768,30.267,27.934,30.267,28.139"/>
	
	<path fill="#FFFFFF" d="M50.506,27.024c0,0.206-0.168,0.372-0.373,0.372c-0.204,0-0.371-0.166-0.371-0.372
	c0-0.205,0.167-0.372,0.371-0.372C50.338,26.653,50.506,26.82,50.506,27.024"/>
	
	<path name="model_skin" fill="#F9D2C3" stroke="#CB7A94" stroke-linecap="round" stroke-linejoin="round" d="M73.418,58.68
	c-1.729,2.595-5.259,3.279-7.884,1.527c-2.627-1.75-3.356-5.27-1.628-7.862c1.728-2.594,5.258-3.278,7.884-1.526
	C74.416,52.567,75.146,56.088,73.418,58.68" class="colorModel" fixedColor="" />
	
	<path name="model_sleeve" fill="#D4B2CE" stroke="#8958A1" stroke-linecap="round" stroke-linejoin="round" d="M61.633,43.656
	l2.739,1.14c0,0-0.227,1.144-0.684,2.284c-0.457,1.139-5.25,10.954-5.25,10.954l-2.511-3.422L61.633,43.656z" class="colorModel" fixedColor="#D4B2CE" />
	
	<path name="model_sleeve" fill="#D4B2CE" stroke="#8958A1" stroke-linecap="round" stroke-linejoin="round" d="M21.92,45.253
	c0,0,6.391,11.867,5.478,12.096c-0.914,0.228-2.739,0.914-2.739,0.914l-5.934-11.411L21.92,45.253z" class="colorModel" fixedColor="#D4B2CE" />
	
	<ellipse id="model_cheek" fill="#F7BCB7" transform="matrix(0.9977 -0.0684 0.0684 0.9977 -2.1414 3.5996)" cx="51.494" cy="33.07" rx="3.084" ry="1.787" class="colorModel" fixedColor="#F7BCB7" />
	<ellipse id="model_cheek" fill="#F7BCB7" transform="matrix(0.9802 0.1978 -0.1978 0.9802 7.1174 -5.0519)" cx="28.85" cy="33.106" rx="3.084" ry="1.787" class="colorModel" fixedColor="#F7BCB7" />
</svg>
