<svg version="1.1" id="svg_1_2" valid="0" xmlns="http://www.w3.org/2000/svg" xmlns:xlink="http://www.w3.org/1999/xlink" x="0px" y="0px"
	 width="85.04px" height="85.04px" viewBox="0 0 85.04 85.04" enable-background="new 0 0 85.04 85.04" xml:space="preserve">

	 <path fill="#FFFFFF" stroke="#7B5B3F" stroke-linecap="round" stroke-linejoin="round" d="M58.587,15.041
	c0,0,7.383-22.153,18.3-8.99c0,0,2.996,5.78-1.818,10.917C75.068,16.967,68.859,10.76,58.587,15.041"/>

	<path fill="#7B5B3F" d="M76.676,14.908c-5.022-3.708-12.06-4.521-17.197-0.675c-0.077,0.058,0.168,0.094,0.224,0.053
	c5.021-3.757,11.856-2.94,16.751,0.673C76.509,15,76.754,14.966,76.676,14.908"/>

	<path fill="#FFFFFF" stroke="#7B5B3F" stroke-linecap="round" stroke-linejoin="round" d="M24.018,15.148
	c0,0-2.247-14.769-11.771-13.806c0,0-5.351,1.284-4.067,11.237c0,0-0.279,7.185,7.705,2.247
	C17.616,13.757,23.056,12.686,24.018,15.148"/>

	<path fill="#7B5B3F" d="M9.128,15.019c3.808-2.34,10.716-5.326,14.263-1.219c0.05,0.057,0.29-0.009,0.242-0.063
	c-3.647-4.223-10.827-1.143-14.696,1.236C8.822,15.043,9.072,15.054,9.128,15.019"/>

	<path fill="#FFFFFF" stroke="#7B5B3F" stroke-linecap="round" stroke-linejoin="round" d="M26.228,65.76
	c0,0-5.245,0.856-9.634,1.368c0.442,1.894,0.661,4.228-0.353,5.716c-1.722,2.528,2.037,3.114,2.388,6.313
	c3.299-1.636,12.154-5.07,15.381-5.07C37.643,74.086,26.228,65.76,26.228,65.76"/>

	<path fill="#FFFFFF" stroke="#7B5B3F" stroke-linecap="round" stroke-linejoin="round" d="M16.24,72.844
	c1.015-1.49,0.795-3.822,0.353-5.716c-2.085,0.245-3.978,0.412-5.022,0.371c-3.243-0.125-4.929,3.108-4.151,7.955
	c0.779,4.848,2.983,5.47,4.929,5.47c0,0,3.372-0.002,5.318-1.243c0.217-0.139,0.548-0.318,0.962-0.522
	C18.277,75.958,14.52,75.373,16.24,72.844"/>

	<path fill="#FFFFFF" stroke="#7B5B3F" stroke-linecap="round" stroke-linejoin="round" d="M14.704,73.985
	c0.272,3.709-1.138,6.826-3.15,6.965c-2.013,0.134-3.865-2.763-4.137-6.474c-0.273-3.709,1.137-6.825,3.15-6.962
	C12.579,67.378,14.431,70.276,14.704,73.985"/>

	<path fill="#FFFFFF" stroke="#7B5B3F" stroke-linecap="round" stroke-linejoin="round" d="M71.371,50.583
	c-0.368-0.231-2.939-0.926-3.192-0.981c-2.014-0.453-6.585-2.979-8.675-3.282c-0.179-0.025-0.313-0.038-0.398-0.038l-2.283,7.388
	c2.149,1.075,6.664,5.326,9.136,6.581c0.575,0.294,1.116,0.549,1.626,0.749C65.176,54.721,67.926,52.765,71.371,50.583"/>

	<path fill="#FFFFFF" stroke="#7B5B3F" stroke-linecap="round" stroke-linejoin="round" d="M23.427,46.396
	c0,0-7.649,0.75-9.276,3.385c-1.003,1.622-2.292,6.876,3.928,8.84c0,0,7.53-0.438,8.295-3.274
	C27.138,52.508,23.427,46.396,23.427,46.396"/>

	<path fill="#FFFFFF" stroke="#7B5B3F" stroke-linecap="round" stroke-linejoin="round" d="M19.935,46.726l4.802,10.366
	c0,0,5.893-1.419,6.875-3.055c0.982-1.639,2.401-11.678,2.401-11.678S21.791,45.962,19.935,46.726"/>

	<path fill="#FFFFFF" stroke="#7B5B3F" stroke-linecap="round" stroke-linejoin="round" d="M35.104,39.085
	c0,0-6.767,12.987-6.438,17.243c0,0,0.436,4.802-3.057,6.549c0,0-13.442,3.295-14.862,4.496c0,0,13.225,0.304,16.499,4.67
	c0,0,4.693,6.983,8.185,5.784c0,0,3.82,0.326,8.732-5.02c0,0,15.387-3.385,16.151-0.22c0,0-0.982-12.003-2.947-15.932
	c0,0,5.238-8.402,5.456-11.46c0,0-11.458-1.747-13.422-4.039l-3.056-1.527L35.104,39.085z"/>

	<path fill="#7B5B3F" d="M57.48,56.651c-3.396-4.604-6.52-9.913-7.956-15.482c-0.019-0.072-0.269-0.1-0.25-0.023
	c1.442,5.583,4.575,10.896,7.979,15.512C57.293,56.712,57.54,56.732,57.48,56.651"/>

	<path fill="#FFFFFF" stroke="#7B5B3F" stroke-linecap="round" stroke-linejoin="round" d="M35.977,37.885
	c0,0,0.874,7.312,5.784,7.64c0,0,5.348,0.982,5.238-6.984C46.892,30.574,35.977,37.885,35.977,37.885"/>

	<path fill="#FFFFFF" stroke="#7B5B3F" stroke-linecap="round" stroke-linejoin="round" d="M61.363,74.86
	c-0.443,4.745-3.918,9.847-8.511,8.727c-5.435-1.327-11.275-10.37-5.606-14.614c3.196-2.394,9.745-2.981,12.633,0.221
	C61.132,70.585,61.564,72.685,61.363,74.86"/>

	<path fill="#FFFFFF" stroke="#7B5B3F" stroke-linecap="round" stroke-linejoin="round" d="M26.373,20.071
	c0,0-6.1,8.348-3.104,13.914c0,0,4.174,7.383,18.194,7.597c0.441,0.005,17.219,1.91,17.979-13.058
	c0.321-6.313-4.066-8.774-4.066-8.774l-13.056-7.064l-16.375,7.385"/>

	<path fill="#FFFFFF" stroke="#7B5B3F" stroke-linecap="round" stroke-linejoin="round" d="M26.801,16.325
	c0,1.478-1.079,2.676-2.408,2.676c-1.33,0-2.408-1.198-2.408-2.676c0-1.477,1.079-2.676,2.408-2.676
	C25.722,13.649,26.801,14.848,26.801,16.325"/>

	<path fill="#FFFFFF" stroke="#7B5B3F" stroke-linecap="round" stroke-linejoin="round" d="M60.083,16.859
	c0,1.597-1.054,2.891-2.354,2.891c-1.299,0-2.354-1.294-2.354-2.891c0-1.594,1.056-2.889,2.354-2.889
	C59.029,13.971,60.083,15.265,60.083,16.859"/>

	<path fill="#FFFFFF" stroke="#7B5B3F" stroke-linecap="round" stroke-linejoin="round" d="M42.426,29.971
	c0,0.679-1.126,1.231-2.516,1.231s-2.515-0.552-2.515-1.231c0-0.68,1.125-1.231,2.515-1.231S42.426,29.291,42.426,29.971"/>

	<path fill="#7B5B3F" d="M30.975,28.792c0,0.858-0.695,1.552-1.552,1.552c-0.857,0-1.552-0.694-1.552-1.552
	c0-0.857,0.695-1.552,1.552-1.552C30.28,27.24,30.975,27.935,30.975,28.792"/>

	<path fill="#7B5B3F" d="M51.31,27.776c0,0.769-0.671,1.391-1.5,1.391c-0.826,0-1.498-0.623-1.498-1.391s0.672-1.392,1.498-1.392
	C50.639,26.385,51.31,27.008,51.31,27.776"/>

	<path fill="#7B5B3F" d="M37.263,34.4c0.897,3.961,6.156,3.91,6.585-0.27c0.015-0.146-0.476-0.214-0.49-0.08
	c-0.154,1.5-0.965,2.962-2.602,3.143c-1.579,0.172-2.705-1.408-3.013-2.769C37.713,34.291,37.228,34.246,37.263,34.4"/>

	<path fill="#FFFFFF" stroke="#7B5B3F" stroke-linecap="round" stroke-linejoin="round" d="M39.001,14.613
	c0,0-11.986,7.598-16.588,16.587c0,0-7.813-15.196,16.053-21.082c0,0,25.578-2.569,21.084,17.765c0,0-3.82-2.159-5.566-2.675
	C43.789,22.196,39.001,15.469,39.001,14.613"/>

	<path fill="#7B5B3F" d="M38.734,10.463c-0.002-0.018,0-0.036,0.001-0.053c-0.137,0.041-0.274,0.081-0.411,0.121
	c-0.137-0.051-0.019,0.456-0.004,0.609c0.054,0.528,0.109,1.056,0.172,1.582c0.075,0.624,0.044,1.925,0.525,2.409
	c0.105,0.107,0.558-0.019,0.469-0.109c-0.515-0.518-0.465-2.032-0.542-2.706c-0.033-0.275,0.001-1.857-0.289-1.966
	c-0.095-0.035-0.398-0.017-0.412,0.121c-0.003,0.017-0.003,0.034-0.003,0.052C38.239,10.65,38.731,10.616,38.734,10.463"/>

	<path fill="#FFFFFF" d="M30.267,28.141c0,0.205-0.167,0.372-0.372,0.372s-0.372-0.167-0.372-0.372c0-0.206,0.167-0.372,0.372-0.372
	S30.267,27.935,30.267,28.141"/>

	<path fill="#FFFFFF" d="M50.505,27.024c0,0.206-0.167,0.374-0.373,0.374s-0.371-0.168-0.371-0.374c0-0.203,0.165-0.371,0.371-0.371
	S50.505,26.821,50.505,27.024"/>

	<path fill="#FFFFFF" stroke="#7B5B3F" stroke-linecap="round" stroke-linejoin="round" d="M73.416,58.682
	c-1.728,2.592-5.258,3.276-7.884,1.526c-2.627-1.751-3.354-5.271-1.627-7.863c1.729-2.593,5.258-3.277,7.885-1.525
	C74.416,52.567,75.144,56.087,73.416,58.682"/>

	<path fill="#FFFFFF" stroke="#7B5B3F" stroke-linecap="round" stroke-linejoin="round" d="M61.632,43.656l2.74,1.142
	c0,0-0.23,1.141-0.686,2.282c-0.456,1.14-5.25,10.954-5.25,10.954l-2.512-3.422L61.632,43.656z"/>

	<path fill="#FFFFFF" stroke="#7B5B3F" stroke-linecap="round" stroke-linejoin="round" d="M21.921,45.254
	c0,0,6.391,11.868,5.478,12.095c-0.914,0.229-2.739,0.914-2.739,0.914l-5.934-11.411L21.921,45.254z"/>
<ellipse transform="matrix(0.9977 -0.0682 0.0682 0.9977 -2.1369 3.5911)" fill="#FFFFFF" stroke="#7B5B3F" stroke-width="0.25" stroke-linecap="round" stroke-linejoin="round" cx="51.493" cy="33.072" rx="3.084" ry="1.786"/>
<ellipse transform="matrix(0.9802 0.1979 -0.1979 0.9802 7.1212 -5.054)" fill="#FFFFFF" stroke="#7B5B3F" stroke-width="0.25" stroke-linecap="round" stroke-linejoin="round" cx="28.851" cy="33.107" rx="3.083" ry="1.786"/>
<g>
	
<path fill="none" stroke="#7B5B3F" stroke-width="0.5" d="M58.635,44.474c0,0-4.241,2.875-4.382,7.548"/>
	
<path fill="none" stroke="#7B5B3F" stroke-width="0.5" d="M53.414,43.457c0,0-1.699,1.7-1.699,3.825"/>
	
<path fill="none" stroke="#7B5B3F" stroke-width="0.5" stroke-linecap="round" stroke-linejoin="round" d="M53.414,43.457
		c0,0-1.699,1.7-1.699,3.825"/>
	
		<path fill="none" stroke="#7B5B3F" stroke-width="0.5" d="M23.818,45.863c0,0,4.391,6.799,4.248,10.195"/>
	
		<path fill="none" stroke="#7B5B3F" stroke-width="0.5" stroke-linecap="round" stroke-linejoin="round" d="M23.818,45.863
		c0,0,4.391,6.799,4.248,10.195"/>
	
		<path fill="none" stroke="#7B5B3F" stroke-width="0.5" d="M27.217,44.59c0,0,3.397,2.833,3.114,4.672"/>
	
		<path fill="none" stroke="#7B5B3F" stroke-width="0.5" stroke-linecap="round" stroke-linejoin="round" d="M27.217,44.59
		c0,0,3.397,2.833,3.114,4.672"/>
	<line fill="none" stroke="#7B5B3F" stroke-width="0.5" x1="30.757" y1="43.598" x2="32.031" y2="45.438"/>
	
		<line fill="none" stroke="#7B5B3F" stroke-width="0.5" stroke-linecap="round" stroke-linejoin="round" x1="30.757" y1="43.598" x2="32.031" y2="45.438"/>
	
		<path fill="none" stroke="#7B5B3F" stroke-width="0.5" d="M31.323,47.563c0,0,10.196,2.409,20.816,0.567"/>
	
		<path fill="none" stroke="#7B5B3F" stroke-width="0.5" d="M29.482,52.519c0,0,16.639,4.097,25.136,0.273"/>
	
		<path fill="none" stroke="#7B5B3F" stroke-width="0.5" d="M28.633,59.032c0,0,20.107,4.956,29.452-0.567"/>
	
		<path fill="none" stroke="#7B5B3F" stroke-width="0.5" stroke-linecap="round" stroke-linejoin="round" d="M28.633,59.032
		c0,0,20.107,4.956,29.452-0.567"/>
	
		<path fill="none" stroke="#7B5B3F" stroke-width="0.5" d="M25.597,62.946c0,0,26.401,6.564,33.48,1.468"/>
	
		<path fill="none" stroke="#7B5B3F" stroke-width="0.5" stroke-linecap="round" stroke-linejoin="round" d="M25.597,62.946
		c0,0,26.401,6.564,33.48,1.468"/>
	
		<path fill="none" stroke="#7B5B3F" stroke-width="0.5" d="M17.446,65.405c0,0,11.186,0.989,15.293,3.964
		c4.107,2.975,8.096,5.029,11.412,3.506"/>
	
		<path fill="none" stroke="#7B5B3F" stroke-width="0.5" stroke-linecap="round" stroke-linejoin="round" d="M17.446,65.405
		c0,0,11.186,0.989,15.293,3.964c4.107,2.975,8.096,5.029,11.412,3.506"/>
</g>

	<g id="clickMark_1_2" class="none">
		<path fill="#FFFFFF" d="M83.975,42.521c0,22.892-18.561,41.454-41.458,41.454c-22.893,0-41.453-18.562-41.453-41.454 C1.065,19.623,19.625,1.064,42.519,1.064C65.415,1.064,83.975,19.623,83.975,42.521z" />
		<path fill="none" stroke="#000000" stroke-width="0.9447" d="M42.519,73.262c16.977,0,30.746-13.76,30.746-30.741 c0-16.98-13.769-30.74-30.746-30.74c-16.979,0-30.743,13.76-30.743,30.74C11.774,59.502,25.54,73.262,42.519,73.262z" />
		<path fill="#D7DF23" d="M42.519,73.262c16.977,0,30.746-13.76,30.746-30.741c0-16.98-13.769-30.74-30.746-30.74 c-16.979,0-30.743,13.76-30.743,30.74C11.774,59.502,25.54,73.262,42.519,73.262" />
		<path fill="none" stroke="#000000" stroke-width="0.8879" d="M42.519,73.262c16.977,0,30.746-13.76,30.746-30.741 c0-16.98-13.769-30.74-30.746-30.74c-16.979,0-30.743,13.76-30.743,30.74C11.774,59.502,25.54,73.262,42.519,73.262" />
		<path fill="#ED1C24" d="M58.706,24.476c0.098,0.837-0.395,1.623-1.477,2.36c-1.377,0.983-2.213,1.721-2.508,2.211l-8.408,14.606 l7.08,13.721c0.1,0.148,0.615,0.91,1.549,2.287c0.591,0.838,0.886,1.6,0.886,2.287c0,0.395-0.071,0.789-0.222,1.182 c-0.836,2.113-2.387,3.172-4.646,3.172c-0.937,0-1.846-0.197-2.731-0.592c-1.229-0.541-1.904-1.242-2.027-2.102 c-0.122-0.861-0.232-1.707-0.332-2.545l-3.982-9.888l-4.424,8.854c-0.295,0.982-0.64,1.953-1.033,2.914 c-0.395,0.959-1.157,1.437-2.287,1.437c-1.428,0-2.804-0.491-4.131-1.476c-1.426-1.131-2.041-2.383-1.844-3.762 c0.097-0.541,0.429-1.115,0.995-1.733c0.565-0.615,0.922-1.068,1.071-1.363l6.492-11.806l-4.577-14.306 c-0.147-0.493-0.626-1.096-1.438-1.808s-1.268-1.387-1.364-2.028c-0.148-1.13,0.539-2.139,2.065-3.024 c1.376-0.737,2.851-1.107,4.427-1.107c0.886,0,1.573,0.148,2.066,0.441c1.081,0.692,1.743,1.563,1.989,2.62 c0.245,1.059,0.468,2.104,0.664,3.135l2.212,6.934l4.869-8.706c0.442-0.934,0.924-1.891,1.438-2.876 c0.519-0.985,1.216-1.646,2.103-1.991c0.539-0.247,1.154-0.37,1.844-0.37c1.279,0,2.521,0.356,3.726,1.071 C57.954,22.938,58.606,23.689,58.706,24.476z" />
	</g>
</svg>
