<svg version="1.1" id="svg_2" xmlns="http://www.w3.org/2000/svg" xmlns:xlink="http://www.w3.org/1999/xlink" x="0px" y="0px"
	 width="85.04px" height="85.04px" viewBox="0 0 85.04 85.04" enable-background="new 0 0 85.04 85.04" xml:space="preserve">
<path fill="#0000FE" d="M74.306,63.993c-3.375-10.129-9.848-30.666-9.848-30.666s-0.279-7.596-9.002-5.063
	c0,0-0.596,0.057-1.527,0.134v-3.229H51.82v3.196c-4.369,0.07-14.629,0.01-17.031-0.005v-3.191h-2.109v3.266
	c-1.184-0.096-1.97-0.171-1.97-0.171c-8.721-2.532-9.002,5.063-9.002,5.063s-6.471,20.537-9.848,30.666
	c-3.375,10.127,4.221,10.689,4.221,10.689h26.438h1.134h26.436C70.085,74.684,77.683,74.12,74.306,63.993z"/>
<circle fill="#FC8241" cx="43.085" cy="50.772" r="17.713"/>
<circle fill="#FB0080" cx="43.085" cy="50.771" r="7.056"/>
<circle fill="#FFEC9B" cx="44.775" cy="40.632" r="1.4"/>
<circle fill="#FFEC9B" cx="49.841" cy="42.884" r="1.4"/>
<circle fill="#FFEC9B" cx="53.22" cy="47.388" r="1.399"/>
<circle fill="#FFEC9B" cx="53.22" cy="53.022" r="1.4"/>
<circle fill="#FFEC9B" cx="50.406" cy="58.649" r="1.4"/>
<circle fill="#FFEC9B" cx="45.337" cy="60.903" r="1.4"/>
<circle fill="#FFEC9B" cx="39.125" cy="40.632" r="1.4"/>
<circle fill="#FFEC9B" cx="34.059" cy="42.884" r="1.4"/>
<circle fill="#FFEC9B" cx="30.682" cy="47.388" r="1.399"/>
<circle fill="#FFEC9B" cx="30.682" cy="53.022" r="1.4"/>
<circle fill="#FFEC9B" cx="34.059" cy="58.086" r="1.4"/>
<circle fill="#FFEC9B" cx="39.69" cy="60.903" r="1.4"/>
<path fill="#0000FE" d="M67.271,16.448c0,0-6.979-3.125-14.246-4.815c-10.85-2.692-20.19-0.509-24.626,0.956
	c-5.805,1.699-10.631,3.859-10.631,3.859c-12.659,0-9.002,10.69-6.752,14.349c2.252,3.656,14.066-4.501,14.63-5.347
	c0.563-0.845,0-2.25,0-2.25c0.71-1.182,12.554-0.973,16.308-0.876v0.033c0,0,0.209-0.007,0.566-0.017
	c0.356,0.01,0.567,0.017,0.567,0.017l-0.002-0.033c3.756-0.097,15.6-0.306,16.309,0.876c0,0-0.563,1.406,0,2.25
	s12.379,9.003,14.629,5.347C76.273,27.14,79.931,16.448,67.271,16.448z"/>
</svg>
