<svg version="1.1" id="svg_2_1" xmlns="http://www.w3.org/2000/svg" xmlns:xlink="http://www.w3.org/1999/xlink" x="0px" y="0px"
	 width="85.04px" height="85.04px" viewBox="0 0 85.04 85.04" enable-background="new 0 0 85.04 85.04" xml:space="preserve">
<path fill="#FFFFFF" stroke="#815C2D" stroke-width="0.3397" stroke-linecap="round" stroke-linejoin="round" d="M74.307,63.993
	c-3.377-10.129-9.848-30.666-9.848-30.666s-0.281-7.596-9.002-5.063c0,0-0.596,0.057-1.527,0.134v-3.229h-2.109v3.196
	c-4.369,0.07-14.631,0.01-17.031-0.005v-3.191H32.68v3.266c-1.184-0.096-1.971-0.171-1.971-0.171
	c-8.721-2.532-9.002,5.063-9.002,5.063s-6.471,20.537-9.848,30.666c-3.375,10.127,4.221,10.689,4.221,10.689h26.438h1.133h26.438
	C70.088,74.684,77.682,74.12,74.307,63.993z"/>
<circle fill="#FFFFFF" stroke="#815C2D" stroke-width="0.3397" stroke-linecap="round" stroke-linejoin="round" cx="43.088" cy="50.772" r="17.713"/>
<circle fill="#FFFFFF" stroke="#815C2D" stroke-width="0.3397" stroke-linecap="round" stroke-linejoin="round" cx="43.088" cy="50.771" r="7.056"/>
<circle fill="#FFFFFF" stroke="#815C2D" stroke-width="0.3397" stroke-linecap="round" stroke-linejoin="round" cx="44.776" cy="40.632" r="1.4"/>
<circle fill="#FFFFFF" stroke="#815C2D" stroke-width="0.3397" stroke-linecap="round" stroke-linejoin="round" cx="53.219" cy="47.388" r="1.399"/>
<circle fill="#FFFFFF" stroke="#815C2D" stroke-width="0.3397" stroke-linecap="round" stroke-linejoin="round" cx="53.219" cy="53.022" r="1.4"/>
<circle fill="#FFFFFF" stroke="#815C2D" stroke-width="0.3397" stroke-linecap="round" stroke-linejoin="round" cx="50.407" cy="58.649" r="1.4"/>
<circle fill="#FFFFFF" stroke="#815C2D" stroke-width="0.3397" stroke-linecap="round" stroke-linejoin="round" cx="45.34" cy="60.903" r="1.4"/>
<circle fill="#FFFFFF" stroke="#815C2D" stroke-width="0.3397" stroke-linecap="round" stroke-linejoin="round" cx="39.127" cy="40.632" r="1.4"/>
<circle fill="#FFFFFF" stroke="#815C2D" stroke-width="0.3397" stroke-linecap="round" stroke-linejoin="round" cx="34.059" cy="42.884" r="1.4"/>
<circle fill="#FFFFFF" stroke="#815C2D" stroke-width="0.3397" stroke-linecap="round" stroke-linejoin="round" cx="30.682" cy="47.388" r="1.399"/>
<circle fill="#FFFFFF" stroke="#815C2D" stroke-width="0.3397" stroke-linecap="round" stroke-linejoin="round" cx="30.682" cy="53.022" r="1.4"/>
<circle fill="#FFFFFF" stroke="#815C2D" stroke-width="0.3397" stroke-linecap="round" stroke-linejoin="round" cx="34.059" cy="58.086" r="1.4"/>
<circle fill="#FFFFFF" stroke="#815C2D" stroke-width="0.3397" stroke-linecap="round" stroke-linejoin="round" cx="39.69" cy="60.903" r="1.4"/>
<path fill="#FFFFFF" stroke="#815C2D" stroke-width="0.3397" stroke-linecap="round" stroke-linejoin="round" d="M67.272,16.448
	c0,0-6.979-3.125-14.248-4.815c-10.848-2.692-20.189-0.509-24.625,0.956c-5.805,1.699-10.631,3.859-10.631,3.859
	c-12.66,0-9.002,10.69-6.752,14.349c2.252,3.656,14.066-4.501,14.629-5.347c0.564-0.845,0-2.25,0-2.25
	c0.711-1.182,12.555-0.973,16.309-0.876v0.033c0,0,0.211-0.007,0.566-0.017c0.357,0.01,0.568,0.017,0.568,0.017l-0.002-0.033
	c3.754-0.097,15.6-0.306,16.309,0.876c0,0-0.563,1.406,0,2.25s12.379,9.003,14.629,5.347C76.274,27.14,79.932,16.448,67.272,16.448z
	"/>
</svg>
