<svg version="1.1" id="svg_2_1" xmlns="http://www.w3.org/2000/svg" xmlns:xlink="http://www.w3.org/1999/xlink" x="0px" y="0px"
	 width="85.04px" height="85.04px" viewBox="0 0 85.04 85.04" enable-background="new 0 0 85.04 85.04" xml:space="preserve">
<path fill="#FFFFFF" stroke="#815C2D" stroke-width="0.3397" stroke-linecap="round" stroke-linejoin="round" d="M74.307,63.993
	c-3.377-10.129-9.848-30.666-9.848-30.666s-0.281-7.596-9.002-5.063c0,0-0.596,0.057-1.527,0.134v-3.229h-2.109v3.196
	c-4.369,0.07-14.631,0.01-17.031-0.005v-3.191H32.68v3.266c-1.184-0.096-1.971-0.171-1.971-0.171
	c-8.721-2.532-9.002,5.063-9.002,5.063s-6.471,20.537-9.848,30.666c-3.375,10.127,4.221,10.689,4.221,10.689h26.438h1.133h26.438
	C70.088,74.684,77.682,74.12,74.307,63.993z"/>
<circle fill="#FFFFFF" stroke="#815C2D" stroke-width="0.3397" stroke-linecap="round" stroke-linejoin="round" cx="43.088" cy="50.772" r="17.713"/>
<circle fill="#FFFFFF" stroke="#815C2D" stroke-width="0.3397" stroke-linecap="round" stroke-linejoin="round" cx="43.088" cy="50.771" r="7.056"/>
<circle fill="#FFFFFF" stroke="#815C2D" stroke-width="0.3397" stroke-linecap="round" stroke-linejoin="round" cx="44.776" cy="40.632" r="1.4"/>
<circle fill="#FFFFFF" stroke="#815C2D" stroke-width="0.3397" stroke-linecap="round" stroke-linejoin="round" cx="53.219" cy="47.388" r="1.399"/>
<circle fill="#FFFFFF" stroke="#815C2D" stroke-width="0.3397" stroke-linecap="round" stroke-linejoin="round" cx="53.219" cy="53.022" r="1.4"/>
<circle fill="#FFFFFF" stroke="#815C2D" stroke-width="0.3397" stroke-linecap="round" stroke-linejoin="round" cx="50.407" cy="58.649" r="1.4"/>
<circle fill="#FFFFFF" stroke="#815C2D" stroke-width="0.3397" stroke-linecap="round" stroke-linejoin="round" cx="45.34" cy="60.903" r="1.4"/>
<circle fill="#FFFFFF" stroke="#815C2D" stroke-width="0.3397" stroke-linecap="round" stroke-linejoin="round" cx="39.127" cy="40.632" r="1.4"/>
<circle fill="#FFFFFF" stroke="#815C2D" stroke-width="0.3397" stroke-linecap="round" stroke-linejoin="round" cx="34.059" cy="42.884" r="1.4"/>
<circle fill="#FFFFFF" stroke="#815C2D" stroke-width="0.3397" stroke-linecap="round" stroke-linejoin="round" cx="30.682" cy="47.388" r="1.399"/>
<circle fill="#FFFFFF" stroke="#815C2D" stroke-width="0.3397" stroke-linecap="round" stroke-linejoin="round" cx="30.682" cy="53.022" r="1.4"/>
<circle fill="#FFFFFF" stroke="#815C2D" stroke-width="0.3397" stroke-linecap="round" stroke-linejoin="round" cx="34.059" cy="58.086" r="1.4"/>
<circle fill="#FFFFFF" stroke="#815C2D" stroke-width="0.3397" stroke-linecap="round" stroke-linejoin="round" cx="39.69" cy="60.903" r="1.4"/>
<path fill="#FFFFFF" stroke="#815C2D" stroke-width="0.3397" stroke-linecap="round" stroke-linejoin="round" d="M67.272,16.448
	c0,0-6.979-3.125-14.248-4.815c-10.848-2.692-20.189-0.509-24.625,0.956c-5.805,1.699-10.631,3.859-10.631,3.859
	c-12.66,0-9.002,10.69-6.752,14.349c2.252,3.656,14.066-4.501,14.629-5.347c0.564-0.845,0-2.25,0-2.25
	c0.711-1.182,12.555-0.973,16.309-0.876v0.033c0,0,0.211-0.007,0.566-0.017c0.357,0.01,0.568,0.017,0.568,0.017l-0.002-0.033
	c3.754-0.097,15.6-0.306,16.309,0.876c0,0-0.563,1.406,0,2.25s12.379,9.003,14.629,5.347C76.274,27.14,79.932,16.448,67.272,16.448z
	"/>
	
	<g id="clickMark_2_1" class="none">
		<path fill="#FFFFFF" d="M83.975,42.521c0,22.892-18.561,41.454-41.458,41.454c-22.893,0-41.453-18.562-41.453-41.454 C1.065,19.623,19.625,1.064,42.519,1.064C65.415,1.064,83.975,19.623,83.975,42.521z" />
		<path fill="none" stroke="#000000" stroke-width="0.9447" d="M42.519,73.262c16.977,0,30.746-13.76,30.746-30.741 c0-16.98-13.769-30.74-30.746-30.74c-16.979,0-30.743,13.76-30.743,30.74C11.774,59.502,25.54,73.262,42.519,73.262z" />
		<path fill="#D7DF23" d="M42.519,73.262c16.977,0,30.746-13.76,30.746-30.741c0-16.98-13.769-30.74-30.746-30.74 c-16.979,0-30.743,13.76-30.743,30.74C11.774,59.502,25.54,73.262,42.519,73.262" />
		<path fill="none" stroke="#000000" stroke-width="0.8879" d="M42.519,73.262c16.977,0,30.746-13.76,30.746-30.741 c0-16.98-13.769-30.74-30.746-30.74c-16.979,0-30.743,13.76-30.743,30.74C11.774,59.502,25.54,73.262,42.519,73.262" />
		<path fill="#ED1C24" d="M58.706,24.476c0.098,0.837-0.395,1.623-1.477,2.36c-1.377,0.983-2.213,1.721-2.508,2.211l-8.408,14.606 l7.08,13.721c0.1,0.148,0.615,0.91,1.549,2.287c0.591,0.838,0.886,1.6,0.886,2.287c0,0.395-0.071,0.789-0.222,1.182 c-0.836,2.113-2.387,3.172-4.646,3.172c-0.937,0-1.846-0.197-2.731-0.592c-1.229-0.541-1.904-1.242-2.027-2.102 c-0.122-0.861-0.232-1.707-0.332-2.545l-3.982-9.888l-4.424,8.854c-0.295,0.982-0.64,1.953-1.033,2.914 c-0.395,0.959-1.157,1.437-2.287,1.437c-1.428,0-2.804-0.491-4.131-1.476c-1.426-1.131-2.041-2.383-1.844-3.762 c0.097-0.541,0.429-1.115,0.995-1.733c0.565-0.615,0.922-1.068,1.071-1.363l6.492-11.806l-4.577-14.306 c-0.147-0.493-0.626-1.096-1.438-1.808s-1.268-1.387-1.364-2.028c-0.148-1.13,0.539-2.139,2.065-3.024 c1.376-0.737,2.851-1.107,4.427-1.107c0.886,0,1.573,0.148,2.066,0.441c1.081,0.692,1.743,1.563,1.989,2.62 c0.245,1.059,0.468,2.104,0.664,3.135l2.212,6.934l4.869-8.706c0.442-0.934,0.924-1.891,1.438-2.876 c0.519-0.985,1.216-1.646,2.103-1.991c0.539-0.247,1.154-0.37,1.844-0.37c1.279,0,2.521,0.356,3.726,1.071 C57.954,22.938,58.606,23.689,58.706,24.476z" />
	</g>
</svg>
