<svg version="1.1" id="svg_2_v" valid="1" xmlns="http://www.w3.org/2000/svg" xmlns:xlink="http://www.w3.org/1999/xlink" x="0px" y="0px"
	 width="85.04px" height="85.04px" viewBox="0 0 85.04 85.04" enable-background="new 0 0 85.04 85.04" xml:space="preserve">
<path fill="#FFFFFF" toFill="#0000FE" stroke="#815C2D" stroke-width="0.25" stroke-miterlimit="10" d="M74.307,63.993
	c-3.377-10.129-9.848-30.666-9.848-30.666s-0.281-7.596-9.002-5.064c0,0-0.596,0.057-1.527,0.134v-3.229h-2.109v3.197
	c-4.369,0.07-14.631,0.01-17.031-0.005v-3.191H32.68v3.265c-1.186-0.096-1.971-0.171-1.971-0.171
	c-8.721-2.532-9.002,5.064-9.002,5.064s-6.471,20.537-9.848,30.666c-3.375,10.127,4.221,10.689,4.221,10.689h26.438h1.133h26.438
	C70.088,74.684,77.682,74.12,74.307,63.993z"/>
<circle fill="#FFFFFF" toFill="#FC8241" stroke="#815C2D" stroke-width="0.25" stroke-miterlimit="10" cx="43.088" cy="50.771" r="17.714"/>
<circle fill="#FFFFFF" toFill="#FB0080" stroke="#815C2D" stroke-width="0.25" stroke-miterlimit="10" cx="43.088" cy="50.771" r="7.055"/>
<circle fill="#FFFFFF" toFill="#FFEC9B" stroke="#815C2D" stroke-width="0.25" stroke-miterlimit="10" cx="44.776" cy="40.632" r="1.4"/>
<circle fill="#FFFFFF" toFill="#FFEC9B" stroke="#815C2D" stroke-width="0.25" stroke-miterlimit="10" cx="49.844" cy="42.884" r="1.401"/>
<circle fill="#FFFFFF" toFill="#FFEC9B" stroke="#815C2D" stroke-width="0.25" stroke-miterlimit="10" cx="53.221" cy="47.388" r="1.4"/>
<circle fill="#FFFFFF" toFill="#FFEC9B" stroke="#815C2D" stroke-width="0.25" stroke-miterlimit="10" cx="53.221" cy="53.022" r="1.4"/>
<circle fill="#FFFFFF" toFill="#FFEC9B" stroke="#815C2D" stroke-width="0.25" stroke-miterlimit="10" cx="50.405" cy="58.649" r="1.4"/>
<circle fill="#FFFFFF" toFill="#FFEC9B" stroke="#815C2D" stroke-width="0.25" stroke-miterlimit="10" cx="45.34" cy="60.903" r="1.4"/>
<circle fill="#FFFFFF" toFill="#FFEC9B" stroke="#815C2D" stroke-width="0.25" stroke-miterlimit="10" cx="39.127" cy="40.632" r="1.4"/>
<circle fill="#FFFFFF" toFill="#FFEC9B" stroke="#815C2D" stroke-width="0.25" stroke-miterlimit="10" cx="34.059" cy="42.884" r="1.401"/>
<circle fill="#FFFFFF" toFill="#FFEC9B" stroke="#815C2D" stroke-width="0.25" stroke-miterlimit="10" cx="30.682" cy="47.388" r="1.4"/>
<circle fill="#FFFFFF" toFill="#FFEC9B" stroke="#815C2D" stroke-width="0.25" stroke-miterlimit="10" cx="30.682" cy="53.022" r="1.4"/>
<circle fill="#FFFFFF" toFill="#FFEC9B" stroke="#815C2D" stroke-width="0.25" stroke-miterlimit="10" cx="34.059" cy="58.086" r="1.4"/>
<circle fill="#FFFFFF" toFill="#FFEC9B" stroke="#815C2D" stroke-width="0.25" stroke-miterlimit="10" cx="39.69" cy="60.903" r="1.4"/>
<path fill="#FFFFFF" toFill="#0000FE" stroke="#815C2D" stroke-width="0.25" stroke-miterlimit="10" d="M67.272,16.448c0,0-6.979-3.125-14.248-4.816
	c-10.848-2.692-20.189-0.508-24.625,0.956c-5.805,1.7-10.631,3.86-10.631,3.86c-12.66,0-9.002,10.69-6.752,14.348
	c2.252,3.656,14.066-4.501,14.629-5.346c0.564-0.845,0-2.25,0-2.25c0.711-1.182,12.555-0.973,16.309-0.876v0.033
	c0,0,0.211-0.007,0.566-0.017c0.357,0.01,0.568,0.017,0.568,0.017l-0.002-0.033c3.754-0.097,15.6-0.306,16.309,0.876
	c0,0-0.563,1.406,0,2.25c0.563,0.844,12.379,9.002,14.629,5.346C76.274,27.139,79.932,16.448,67.272,16.448z"/>
	
	<g id="clickMark_2_v" class="none">
		<path fill="#FFFFFF" d="M83.978,42.521c0,22.892-18.561,41.454-41.459,41.454c-22.895,0-41.457-18.562-41.457-41.454 c0-22.899,18.562-41.457,41.457-41.457C65.417,1.064,83.978,19.623,83.978,42.521z" />
		<path fill="none" stroke="#000000" stroke-width="0.9447" d="M42.519,73.262c16.982,0,30.749-13.76,30.749-30.741 c0-16.98-13.767-30.74-30.749-30.74c-16.981,0-30.745,13.76-30.745,30.74C11.772,59.502,25.537,73.262,42.519,73.262z" />
		<path fill="#D7DF23" stroke="#000000" stroke-width="0.8879" d="M42.519,73.262c16.982,0,30.749-13.76,30.749-30.741 c0-16.98-13.767-30.74-30.749-30.74c-16.981,0-30.745,13.76-30.745,30.74C11.772,59.502,25.537,73.262,42.519,73.262" />
		<path fill="#009444" d="M61.976,26.239c0,0.923-0.524,1.787-1.572,2.587c-1.356,1.11-2.188,1.91-2.495,2.403L43.209,54.614 c-1.108,1.972-2.188,3.943-3.236,5.912c-1.724,2.527-3.481,3.789-5.268,3.789c-0.8,0-1.617-0.229-2.447-0.692 c-0.833-0.459-1.312-1.338-1.435-2.634c-0.246-1.786-0.493-2.926-0.739-3.418l-4.621-9.43c-0.185-0.369-1.017-1.416-2.496-3.143 c-0.864-1.109-1.202-2.277-1.015-3.511c0.185-1.54,0.891-2.895,2.126-4.066c1.229-1.17,2.555-1.755,3.972-1.755 c0.616,0,1.234,0.122,1.849,0.368c0.309,0.125,0.741,0.958,1.294,2.496c0.74,2.095,1.265,3.482,1.572,4.159l3.326,6.192 l13.405-21.719c0.678-1.293,1.354-2.618,2.035-3.975c0.983-1.355,2.187-2.033,3.604-2.033c1.537,0,3.064,0.555,4.574,1.666 C61.218,23.93,61.976,25.067,61.976,26.239z" />
	</g>
</svg>
