<svg version="1.1" id="svg_8_14" repeat="2" xmlns="http://www.w3.org/2000/svg" xmlns:xlink="http://www.w3.org/1999/xlink" x="0px" y="0px" width="85.04px" height="85.04px" viewBox="0 0 85.04 85.04" enable-background="new 0 0 85.04 85.04" xml:space="preserve">

<path class="colorable" fill="#FFFFFF" stroke="#70090A" stroke-width="1.1051" stroke-linecap="round" stroke-linejoin="round" d="
	M69.909,26.064c0,0-11.279-3.277-32.088,1.573C17.016,32.486,9.997,41.805,9.997,41.805v-0.384c0,0,11.949-21.269,44.867-33.493
	c0,0,8.938-3.167,16.391-0.806C79.312,9.675,79.715,20.153,69.909,26.064z" class="none"/>

<path fill="#EDC3B2" d="M69.35,35.136c0,0,1.915-2.297,4.212,0c2.298,2.298,1.661,7.53-0.767,9.317
	C70.374,46.241,69.35,35.136,69.35,35.136"/>
<path fill="#EDC3B2" stroke="#96655C" stroke-miterlimit="10" d="M69.35,35.136c0,0,1.915-2.297,4.212,0
	c2.298,2.298,1.661,7.53-0.767,9.317C70.374,46.241,69.35,35.136,69.35,35.136z"/>
<path fill="#EDC3B2" stroke="#96655C" stroke-miterlimit="10" d="M9.997,41.805c0.76,2.475,0.765,3.703,0.765,3.703
	c-2.042,0.894-4.254,3.994-2.168,8.679c2.309,5.188,7.019,5.358,7.019,5.358C22.03,77.525,37.822,80.862,49.568,79.97
	c11.742-0.896,21.231-10.53,23.998-19.985c2.524-8.621,0.636-15.756-1.278-19.839c-1.914-4.085-3.063-7.787-3.063-7.787
	c2.553-2.554,3.063-6.126,3.063-6.126c-2.916,0.368-3.316-0.707-3.316-0.707s-11.555-3.358-29.289-0.134
	C21.946,28.616,11.749,38.604,9.997,41.805"/>
<path fill="none" stroke="#96655B" stroke-width="0.6631" stroke-linecap="round" stroke-linejoin="round" d="M14.591,54.058
	c0,0-1.659-1.787,0.638-3.063c0,0-0.254-2.424-2.041-2.17c-2.027,0.289-1.8,1.994-1.8,1.994"/>
<path fill="#815326" d="M10.761,45.504c0,0-0.392-0.471,2.521-0.354c2.913,0.114,3.496,2.213,3.496,2.213s0.465,0.469,3.145-1.629
	c2.68-2.1,6.41-7.81,6.759-12.586c0,0,0.933-2.214-0.815-1.515c-1.747,0.699-10.885,4.145-15.87,10.169l0.724,2.764L10.761,45.504z"
	/>
<path fill="#815326" d="M31.576,29.304c0,0,3.028,4.66,9.904,7.107c6.879,2.446,19.692,3.612,26.917-3.262l3.03-4.195
	c0,0,1.397-2.329,0.116-2.329s-1.98-0.7-3.263-0.7S59.194,22.313,31.576,29.304"/>
<path fill="none" stroke="#583012" stroke-width="1.1051" stroke-linecap="round" stroke-linejoin="round" d="M17.271,47.676
	c0,0,8.807-3.956,9.701-16.466"/>
<path fill="none" stroke="#583012" stroke-width="0.8841" stroke-linecap="round" stroke-linejoin="round" d="M15.996,45.889
	c0,0,2.424-2.426,2.552-7.021"/>
<path fill="none" stroke="#583012" stroke-width="0.8841" stroke-linecap="round" stroke-linejoin="round" d="M51.099,27.381
	c0,0,2.769,3.574,9.317,3.829c8.459,0.33,11.739-4.595,11.739-4.595"/>
<path fill="#333391" stroke="#003469" stroke-width="1.1051" stroke-linecap="round" stroke-linejoin="round" d="M54.927,7.8
	C45.672,3.505,34.59,4.411,26.08,8.108c-8.016,3.48-13.26,9.625-15.573,15.061c-3.937,9.25-0.51,18.636-0.51,18.636
	s2.277-4.994,12.219-11.979L54.927,7.8z"/>
<path fill="none" stroke="#583012" stroke-width="1.1051" stroke-linecap="round" stroke-linejoin="round" d="M31.439,29.678
	c0,0,3.828,6.382,15.83,8.169c11.999,1.787,19.911-3.191,21.953-5.488c0,0,2.565-2.13,3.373-6.295c0,0-1.209,0.672-2.688,0"/>
	
<!-- ** -->

<path class="colorable" fill="#FFFFFF" stroke="#70090A" stroke-width="1.1051" stroke-linecap="round" stroke-linejoin="round" d="
	M69.909,26.064c0,0-11.279-3.277-32.088,1.573C17.016,32.486,9.997,41.805,9.997,41.805v-0.384c0,0,11.949-21.269,44.867-33.493
	c0,0,8.938-3.167,16.391-0.806C79.312,9.675,79.715,20.153,69.909,26.064z"/>

<!-- ** -->

<path fill="none" stroke="#96655B" stroke-width="1.1051" stroke-linecap="round" stroke-linejoin="round" d="M51.642,40.408
	c0,0-2.058,4.042,1.659,8.553c1.631,1.979,2.715,3.779,2.938,5.869c0.264,2.49-0.703,4.563-2.854,5.396
	c-3.956,1.531-7.357-1.438-6.977-3.992"/>
<path fill="none" stroke="#96655B" stroke-width="1.1051" stroke-linecap="round" stroke-linejoin="round" d="M46.061,69.685
	c0,0,1.553-2.924,5.127-3.028c3.573-0.104,4.449,2.838,4.449,2.838"/>
<path fill="none" stroke="#744323" stroke-width="0.8841" stroke-linecap="round" stroke-linejoin="round" d="M29.746,41.316
	c0,0,2.977-3.781,8.158-3.129"/>
<path fill="none" stroke="#744323" stroke-width="0.8841" stroke-linecap="round" stroke-linejoin="round" d="M67.163,36.312
	c0,0-0.44-0.333-1.211-0.689"/>
<path fill="#583012" d="M39.044,44.948c0-1.773-1.439-3.215-3.214-3.215c-1.776,0-3.215,1.439-3.215,3.215
	c0,1.776,1.438,3.215,3.215,3.215C37.605,48.163,39.044,46.723,39.044,44.948"/>
<path fill="#FFFFFF" d="M38.482,43.875c0,0.776-0.628,1.403-1.405,1.403c-0.777,0-1.407-0.627-1.407-1.403
	c0-0.777,0.63-1.409,1.407-1.409C37.854,42.467,38.482,43.098,38.482,43.875"/>
<path fill="#FFFFFF" d="M34.698,46.659c0,0.299-0.242,0.541-0.541,0.541c-0.299,0-0.541-0.242-0.541-0.541s0.242-0.541,0.541-0.541
	C34.456,46.118,34.698,46.36,34.698,46.659"/>
<path fill="#583012" d="M66.108,41.615c0-1.738-1.41-3.151-3.15-3.151s-3.148,1.413-3.148,3.151c0,1.741,1.408,3.151,3.148,3.151
	S66.108,43.356,66.108,41.615"/>
<path fill="#FFFFFF" d="M65.557,40.563c0,0.762-0.617,1.379-1.378,1.379c-0.763,0-1.378-0.618-1.378-1.379
	c0-0.761,0.615-1.378,1.378-1.378C64.94,39.185,65.557,39.802,65.557,40.563"/>
<path fill="#FFFFFF" d="M61.848,43.292c0,0.295-0.237,0.529-0.53,0.529s-0.53-0.234-0.53-0.529c0-0.292,0.237-0.529,0.53-0.529
	S61.848,42.998,61.848,43.292"/>

	</svg>
