<svg version="1.1" id="svg_8_2" repeat="0" xmlns="http://www.w3.org/2000/svg" xmlns:xlink="http://www.w3.org/1999/xlink" x="0px" y="0px" width="85.04px" height="85.04px" viewBox="0 0 85.04 85.04" enable-background="new 0 0 85.04 85.04" xml:space="preserve">

<path class="colorable" fill="#FFFFFF" stroke="#70090A" stroke-width="1.1051" stroke-linecap="round" stroke-linejoin="round" d="
	M69.909,26.064c0,0-11.279-3.277-32.088,1.573C17.016,32.486,9.997,41.805,9.997,41.805v-0.384c0,0,11.949-21.269,44.867-33.493
	c0,0,8.937-3.167,16.391-0.806C79.312,9.675,79.715,20.153,69.909,26.064z" class="none"/>

	<path fill="#EDC3B2" d="M69.35,35.136c0,0,1.915-2.297,4.212,0c2.298,2.298,1.661,7.53-0.767,9.318
	C70.374,46.241,69.35,35.136,69.35,35.136"/>
<path fill="#EDC3B2" stroke="#96655C" stroke-miterlimit="10" d="M69.35,35.136c0,0,1.915-2.297,4.212,0
	c2.298,2.298,1.661,7.53-0.767,9.318C70.374,46.241,69.35,35.136,69.35,35.136z"/>
<path fill="#EDC3B2" stroke="#96655C" stroke-miterlimit="10" d="M9.997,41.805c0.76,2.475,0.765,3.703,0.765,3.703
	c-2.042,0.894-4.254,3.995-2.168,8.679c2.309,5.188,7.019,5.359,7.019,5.359c6.417,17.979,22.209,21.316,33.955,20.424
	C61.31,79.075,70.8,69.44,73.566,59.985c2.524-8.621,0.636-15.756-1.278-19.839c-1.914-4.085-3.063-7.787-3.063-7.787
	c2.553-2.554,3.063-6.126,3.063-6.126c-2.916,0.368-3.317-0.707-3.317-0.707s-11.554-3.358-29.289-0.134
	C21.946,28.616,11.749,38.604,9.997,41.805"/>
<path fill="none" stroke="#96655B" stroke-width="0.6631" stroke-linecap="round" stroke-linejoin="round" d="M14.591,54.058
	c0,0-1.659-1.787,0.638-3.063c0,0-0.254-2.424-2.041-2.17c-2.027,0.289-1.8,1.994-1.8,1.994"/>
<path fill="none" stroke="#96655B" stroke-width="1.1051" stroke-linecap="round" stroke-linejoin="round" d="M50.415,40.408
	c0,0-2.058,4.042,1.658,8.553c1.633,1.979,2.715,3.78,2.938,5.87c0.264,2.49-0.703,4.563-2.854,5.396
	c-3.955,1.532-7.359-1.438-6.976-3.992"/>
<path fill="#815326" d="M10.761,45.505c0,0-0.392-0.472,2.521-0.354c2.913,0.114,3.496,2.213,3.496,2.213s0.465,0.469,3.145-1.629
	c2.68-2.1,6.41-7.81,6.759-12.586c0,0,0.933-2.214-0.815-1.515c-1.747,0.699-10.885,4.145-15.87,10.169l0.724,2.764L10.761,45.505z"
	/>
<path fill="#815326" d="M31.576,29.304c0,0,3.028,4.66,9.904,7.107c6.879,2.446,19.692,3.612,26.917-3.262l3.03-4.195
	c0,0,1.397-2.329,0.116-2.329s-1.98-0.7-3.262-0.7C66.999,25.925,59.194,22.313,31.576,29.304"/>
<path fill="none" stroke="#583012" stroke-width="1.1051" stroke-linecap="round" stroke-linejoin="round" d="M17.271,47.676
	c0,0,8.807-3.956,9.701-16.466"/>
<path fill="none" stroke="#583012" stroke-width="0.8841" stroke-linecap="round" stroke-linejoin="round" d="M15.996,45.889
	c0,0,2.424-2.425,2.552-7.021"/>
<path fill="none" stroke="#583012" stroke-width="0.8841" stroke-linecap="round" stroke-linejoin="round" d="M51.099,27.381
	c0,0,2.769,3.574,9.317,3.829c8.459,0.33,11.74-4.595,11.74-4.595"/>
<path fill="#333391" stroke="#003469" stroke-width="1.1051" stroke-linecap="round" stroke-linejoin="round" d="M54.927,7.8
	C45.672,3.505,34.59,4.411,26.08,8.108c-8.016,3.48-13.26,9.625-15.573,15.061c-3.937,9.25-0.51,18.636-0.51,18.636
	s2.277-4.994,12.219-11.979L54.927,7.8z"/>
<path fill="#583012" d="M37.679,44.948c0-1.774-1.438-3.215-3.213-3.215c-1.777,0-3.214,1.44-3.214,3.215
	c0,1.776,1.437,3.215,3.214,3.215C36.241,48.163,37.679,46.723,37.679,44.948"/>
<path fill="#FFFFFF" d="M37.119,43.875c0,0.777-0.631,1.404-1.406,1.404c-0.776,0-1.407-0.627-1.407-1.404s0.631-1.408,1.407-1.408
	C36.488,42.468,37.119,43.098,37.119,43.875"/>
<path fill="#FFFFFF" d="M33.333,46.659c0,0.299-0.242,0.541-0.541,0.541s-0.54-0.242-0.54-0.541s0.241-0.541,0.54-0.541
	S33.333,46.36,33.333,46.659"/>
<path fill="#583012" d="M64.747,41.615c0-1.738-1.41-3.151-3.15-3.151c-1.738,0-3.148,1.413-3.148,3.151
	c0,1.741,1.41,3.151,3.148,3.151C63.336,44.766,64.747,43.356,64.747,41.615"/>
<path fill="#FFFFFF" d="M64.196,40.563c0,0.762-0.615,1.379-1.378,1.379c-0.761,0-1.378-0.618-1.378-1.379
	c0-0.761,0.617-1.378,1.378-1.378C63.581,39.185,64.196,39.802,64.196,40.563"/>
<path fill="#FFFFFF" d="M60.487,43.292c0,0.294-0.236,0.529-0.529,0.529c-0.291,0-0.529-0.235-0.529-0.529
	c0-0.293,0.238-0.53,0.529-0.53C60.25,42.762,60.487,42.998,60.487,43.292"/>
<path fill="none" stroke="#96655B" stroke-width="1.1051" stroke-linecap="round" stroke-linejoin="round" d="M41.008,67.116
	c0,0,2.126-3.695,4.864-0.981c1.002,0.997,1.707,3.086,2.89,3.715c1.378,0.733,3.058,0.435,4.672-1.741"/>
<path fill="none" stroke="#744323" stroke-width="0.8841" stroke-linecap="round" stroke-linejoin="round" d="M29.366,37.535
	c0,0,2.122,2.529,5.56,2.934c3.438,0.404,3.034-2.124,3.034-2.124"/>
<path fill="none" stroke="#744323" stroke-width="0.8841" stroke-linecap="round" stroke-linejoin="round" d="M60.217,37.224
	c-0.434,0.458-0.953,0.898-1.572,1.274c-1.941,1.176-2.818,0.361-3.162-0.204"/>
<path fill="none" stroke="#583012" stroke-width="1.1051" stroke-linecap="round" stroke-linejoin="round" d="M31.439,29.678
	c0,0,3.828,6.382,15.83,8.169c11.999,1.787,19.911-3.191,21.953-5.488c0,0,2.565-2.13,3.373-6.295c0,0-1.209,0.672-2.688,0"/>
	
<!-- ** -->

<path class="colorable" fill="#FFFFFF" stroke="#70090A" stroke-width="1.1051" stroke-linecap="round" stroke-linejoin="round" d="
	M69.909,26.064c0,0-11.279-3.277-32.088,1.573C17.016,32.486,9.997,41.805,9.997,41.805v-0.384c0,0,11.949-21.269,44.867-33.493
	c0,0,8.937-3.167,16.391-0.806C79.312,9.675,79.715,20.153,69.909,26.064z"/>

<!-- ** -->
	
</svg>