<svg version="1.1" id="svg_8_5" repeat="3" xmlns="http://www.w3.org/2000/svg" xmlns:xlink="http://www.w3.org/1999/xlink" x="0px" y="0px" width="85.04px" height="85.04px" viewBox="0 0 85.04 85.04" enable-background="new 0 0 85.04 85.04" xml:space="preserve">

<path class="colorable" fill="#FFFFFF" d="M26.822,10.792c-6.81,3.325-9.502,10.926-11.562,15.363l0,0
	c-2.057,4.433-4.328,9.138-5.859,10.452l0,0c-2.217,1.897-9.184,7.756-7.759,17.417l0,0C3.066,63.683,8.563,70.4,19.22,75.877l0,0
	c13.419,6.897,36.263,9.661,47.666,3.324l0,0c11.401-6.334,13.849-16.436,11.878-28.503l0,0c-1.428-8.737,1.267-14.887-1.743-24.229
	l0,0c-3.01-9.342-9.026-12.827-20.111-16.787l0,0c-4.513-1.611-9.208-2.279-13.65-2.279l0,0C36.79,7.406,30.859,8.821,26.822,10.792
	" class="none"/>

	<path fill="none" d="M74.033,12.038c1.27-2.057,5.371-0.321,3.802,3.165l0,0c-1.455,3.23-6.017,2.376-6.017,2.376l0,0
	c0,0-0.319,1.108-0.319,1.583l0,0c0,0.474,2.534,3.167,2.534,3.167l0,0l2.783,1.378c0,0,4.199-1.729,5.383-6.201l0,0
	c0.976-3.679-0.089-7.688-3.73-8.321l0,0c-0.303-0.053-0.586-0.077-0.852-0.077l0,0C74.699,9.109,74.033,12.038,74.033,12.038"/>
<path fill="#F7EDF2" stroke="#B68C58" stroke-width="1.25" stroke-linecap="round" stroke-linejoin="round" d="M71.816,17.58
	c0,0,4.563,0.854,6.019-2.376c1.569-3.486-2.534-5.224-3.802-3.165c0,0,0.793-3.485,4.436-2.852c3.642,0.633,4.704,4.643,3.73,8.321
	c-1.184,4.472-5.383,6.201-5.383,6.201l-2.783-1.378c0,0-2.534-2.692-2.534-3.167C71.499,18.688,71.816,17.58,71.816,17.58z"/>
<path fill="none" d="M22.712,2.358c-3.691,0.633-5.063,4.643-4.372,8.322l0,0c0.839,4.472,4.905,6.2,4.905,6.2l0,0l2.887-1.378
	c0,0,2.742-2.692,2.778-3.167l0,0c0.038-0.475-0.195-1.585-0.195-1.585l0,0c0,0-4.628,0.855-5.834-2.375l0,0
	c-1.299-3.485,2.938-5.225,4.045-3.166l0,0c0,0-0.44-2.929-3.357-2.929l0,0C23.305,2.281,23.019,2.307,22.712,2.358"/>
<path fill="#F7EDF2" stroke="#B68C58" stroke-width="1.25" stroke-linecap="round" stroke-linejoin="round" d="M28.716,10.75
	c0,0-4.63,0.855-5.834-2.375c-1.301-3.485,2.937-5.225,4.045-3.166c0,0-0.524-3.485-4.216-2.852
	c-3.689,0.633-5.062,4.643-4.371,8.322c0.839,4.472,4.904,6.2,4.904,6.2l2.887-1.378c0,0,2.742-2.692,2.778-3.166
	C28.948,11.86,28.716,10.75,28.716,10.75z"/>
<path fill="none" d="M12.969,15.912c-3.637,3.048-1.385,9.338,7.772,3.582l0,0c9.158-5.758,1.402-5.421,1.402-5.421l0,0
	c0,0-1.083-0.236-2.606-0.236l0,0C17.616,13.836,14.998,14.212,12.969,15.912"/>
<path fill="#F7EDF2" stroke="#9E793D" stroke-width="1.25" stroke-linecap="round" stroke-linejoin="round" d="M22.143,14.073
	c0,0-5.537-1.209-9.174,1.839c-3.637,3.048-1.385,9.336,7.772,3.582C29.899,13.737,22.143,14.073,22.143,14.073z"/>
	
<!-- ** -->

<path class="colorable" fill="#FFFFFF" d="M26.822,10.792c-6.81,3.325-9.502,10.926-11.562,15.363l0,0
	c-2.057,4.433-4.328,9.138-5.859,10.452l0,0c-2.217,1.897-9.184,7.756-7.759,17.417l0,0C3.066,63.683,8.563,70.4,19.22,75.877l0,0
	c13.419,6.897,36.263,9.661,47.666,3.324l0,0c11.401-6.334,13.849-16.436,11.878-28.503l0,0c-1.428-8.737,1.267-14.887-1.743-24.229
	l0,0c-3.01-9.342-9.026-12.827-20.111-16.787l0,0c-4.513-1.611-9.208-2.279-13.65-2.279l0,0C36.79,7.406,30.859,8.821,26.822,10.792
	"/>

<!-- ** -->

<path fill="none" stroke="#9E793D" stroke-width="1.25" stroke-linecap="round" stroke-linejoin="round" d="M9.401,36.605
	c1.531-1.312,3.801-6.017,5.858-10.452c2.06-4.434,4.753-12.036,11.562-15.361s19.002-5.068,30.087-1.108S74.01,17.128,77.02,26.47
	c3.008,9.344,0.315,15.491,1.743,24.229c1.971,12.067-0.477,22.169-11.878,28.503c-11.402,6.335-34.247,3.573-47.666-3.324
	C8.563,70.4,3.066,63.683,1.642,54.024C0.217,44.363,7.185,38.504,9.401,36.605z"/>
<path fill="none" stroke="#9E793D" stroke-width="0.8" stroke-linecap="round" stroke-linejoin="round" d="M23.652,29.002
	c0,0,1.858,1.007,3.678,0.361"/>
<path fill="none" stroke="#9E793D" stroke-width="0.8" stroke-linecap="round" stroke-linejoin="round" d="M23.791,27.351
	c0,0,1.754,1.178,3.629,0.708"/>
<path fill="none" stroke="#9E793D" stroke-width="0.8" stroke-linecap="round" stroke-linejoin="round" d="M24.213,25.844
	c0,0,1.656,1.314,3.562,0.991"/>
<path fill="#EDD3AC" d="M53.21,9.197c-7.802-1.932-15.859-1.305-21.832,0.476c0.965,0.143,1.993,0.736,2.251,2.545
	c0.476,3.325,1.426,5.859,5.385,6.017c4.161,0.167,5.067-4.434,5.067-4.434S51.928,16.411,53.21,9.197"/>
<path fill="none" d="M71.952,23.461c0,0-0.156,6.336,4.118,9.661l0,0c4.275,3.325,7.877,0.068,7.49-3.485l0,0
	c-0.409-3.747-3.371-7.125-8.757-8.078l0,0L71.952,23.461z"/>
<path fill="#F7EDF2" stroke="#9E793D" stroke-width="1.25" stroke-linecap="round" stroke-linejoin="round" d="M71.952,23.461
	c0,0-0.156,6.336,4.118,9.659c4.275,3.327,7.877,0.072,7.49-3.483c-0.409-3.747-3.373-7.125-8.757-8.078"/>
<path fill="#9E793D" d="M33.685,40.919c0.612,0.852,0.16,2.226-1.012,3.068c-1.172,0.844-2.618,0.837-3.233-0.017
	c-0.611-0.854-0.159-2.226,1.014-3.068C31.626,40.058,33.073,40.065,33.685,40.919"/>
<path fill="#9E793D" d="M26.775,28.922c-0.03-1.887,1.474-3.442,3.361-3.472c1.886-0.031,3.441,1.476,3.471,3.362
	c0.031,1.885-1.474,3.441-3.361,3.47C28.36,32.313,26.806,30.806,26.775,28.922"/>
<path fill="#FFFFFF" d="M31.423,30.663c0.005,0.319,0.267,0.573,0.584,0.567c0.318-0.005,0.57-0.266,0.567-0.585
	c-0.005-0.318-0.268-0.569-0.584-0.565C31.672,30.085,31.418,30.346,31.423,30.663"/>
<path fill="#FFFFFF" d="M27.354,27.771c0.013,0.826,0.692,1.483,1.518,1.47c0.826-0.013,1.484-0.692,1.471-1.518
	c-0.014-0.826-0.694-1.485-1.52-1.472C27.999,26.267,27.34,26.945,27.354,27.771"/>
<path fill="none" stroke="#9E793D" stroke-width="0.8" stroke-linecap="round" stroke-linejoin="round" d="M64.023,36.697
	c0,0-2.094,0.293-3.573-0.949"/>
<path fill="none" stroke="#9E793D" stroke-width="0.8" stroke-linecap="round" stroke-linejoin="round" d="M64.47,35.102
	c0,0-2.055,0.488-3.646-0.609"/>
<path fill="none" stroke="#9E793D" stroke-width="0.8" stroke-linecap="round" stroke-linejoin="round" d="M64.604,33.544
	c0,0-2.011,0.65-3.685-0.321"/>
<path fill="#9E793D" d="M61.125,35.526c0.689-1.754-0.175-3.738-1.931-4.428c-1.758-0.69-3.739,0.176-4.43,1.932
	c-0.689,1.756,0.176,3.74,1.933,4.43C58.454,38.148,60.437,37.284,61.125,35.526"/>
<path fill="#FFFFFF" d="M59.272,36.056c0.006,0.317,0.268,0.571,0.585,0.565c0.317-0.006,0.569-0.266,0.565-0.585
	c-0.006-0.317-0.266-0.569-0.583-0.565C59.522,35.477,59.268,35.739,59.272,36.056"/>
<path fill="#FFFFFF" d="M55.204,33.163c0.013,0.826,0.693,1.484,1.52,1.47c0.824-0.013,1.482-0.692,1.47-1.518
	s-0.693-1.484-1.52-1.47C55.85,31.656,55.191,32.336,55.204,33.163"/>
<path fill="#9E793D" d="M45.154,43.534c-0.899,0.541-1.026,1.981-0.283,3.218c0.745,1.237,2.077,1.803,2.977,1.261
	c0.899-0.541,1.025-1.981,0.281-3.218C47.385,43.557,46.052,42.993,45.154,43.534"/>
<path fill="#9E793D" d="M25.923,54.925c0,0-0.662,11.258,8.923,13.529c9.583,2.275,13.573-5.951,14.239-9.234
	C49.085,59.22,38.083,60.537,25.923,54.925"/>
<path fill="#EB7C96" d="M28.85,64.727c1.321,1.667,3.23,3.072,5.997,3.728c3.626,0.86,6.449,0.217,8.596-1.092
	C37.959,63.871,31.782,64.261,28.85,64.727"/>
	
</svg>