<svg version="1.1" id="svg_8_6" repeat="1" xmlns="http://www.w3.org/2000/svg" xmlns:xlink="http://www.w3.org/1999/xlink" x="0px" y="0px" width="85.04px" height="85.04px" viewBox="0 0 85.04 85.04" enable-background="new 0 0 85.04 85.04" xml:space="preserve">

<path class="colorable" fill="#FFFFFF" stroke="#70090A" stroke-width="1.1051" stroke-linecap="round" stroke-linejoin="round" d="
	M69.909,26.064c0,0-11.279-3.277-32.088,1.573C17.016,32.486,9.997,41.805,9.997,41.805v-0.384c0,0,11.949-21.269,44.867-33.493
	c0,0,8.937-3.167,16.391-0.806C79.312,9.675,79.715,20.153,69.909,26.064z" class="none"/>

	<path fill="#EDC3B2" d="M69.35,35.136c0,0,1.915-2.297,4.212,0c2.298,2.298,1.661,7.53-0.767,9.318
	C70.374,46.241,69.35,35.136,69.35,35.136"/>
<path fill="#EDC3B2" stroke="#96655C" stroke-miterlimit="10" d="M69.35,35.136c0,0,1.915-2.297,4.212,0
	c2.298,2.298,1.661,7.53-0.767,9.318C70.374,46.241,69.35,35.136,69.35,35.136z"/>
<path fill="#EDC3B2" stroke="#96655C" stroke-miterlimit="10" d="M9.997,41.805c0.76,2.475,0.765,3.703,0.765,3.703
	c-2.042,0.894-4.254,3.995-2.168,8.679c2.309,5.188,7.019,5.359,7.019,5.359c6.417,17.979,22.209,21.316,33.955,20.424
	C61.31,79.075,70.8,69.44,73.566,59.985c2.524-8.621,0.636-15.756-1.278-19.839c-1.914-4.085-3.063-7.787-3.063-7.787
	c2.553-2.554,3.063-6.126,3.063-6.126c-2.916,0.368-3.317-0.707-3.317-0.707s-11.554-3.358-29.289-0.134
	C21.946,28.616,11.749,38.604,9.997,41.805"/>
<path fill="none" stroke="#96655B" stroke-width="0.6631" stroke-linecap="round" stroke-linejoin="round" d="M14.591,54.058
	c0,0-1.659-1.787,0.638-3.063c0,0-0.254-2.424-2.041-2.17c-2.027,0.289-1.8,1.994-1.8,1.994"/>
<path fill="#815326" d="M10.761,45.505c0,0-0.392-0.472,2.521-0.354c2.913,0.114,3.496,2.213,3.496,2.213s0.465,0.469,3.145-1.629
	c2.68-2.1,6.41-7.81,6.759-12.586c0,0,0.933-2.214-0.815-1.515c-1.747,0.699-10.885,4.145-15.87,10.169l0.724,2.764L10.761,45.505z"
	/>
<path fill="#815326" d="M31.576,29.304c0,0,3.028,4.66,9.904,7.107c6.879,2.446,19.692,3.612,26.917-3.262l3.03-4.195
	c0,0,1.397-2.329,0.116-2.329s-1.98-0.7-3.262-0.7C66.999,25.925,59.194,22.313,31.576,29.304"/>
<path fill="none" stroke="#583012" stroke-width="1.1051" stroke-linecap="round" stroke-linejoin="round" d="M17.271,47.676
	c0,0,8.807-3.956,9.701-16.466"/>
<path fill="none" stroke="#583012" stroke-width="0.8841" stroke-linecap="round" stroke-linejoin="round" d="M15.996,45.889
	c0,0,2.424-2.425,2.552-7.021"/>
<path fill="none" stroke="#583012" stroke-width="0.8841" stroke-linecap="round" stroke-linejoin="round" d="M51.099,27.381
	c0,0,2.769,3.574,9.317,3.829c8.459,0.33,11.74-4.595,11.74-4.595"/>
<path fill="#333391" stroke="#003469" stroke-width="1.1051" stroke-linecap="round" stroke-linejoin="round" d="M54.927,7.8
	C45.672,3.505,34.59,4.411,26.08,8.108c-8.016,3.48-13.26,9.625-15.573,15.061c-3.937,9.25-0.51,18.636-0.51,18.636
	s2.277-4.994,12.219-11.979L54.927,7.8z"/>
<path fill="none" stroke="#583012" stroke-width="1.1051" stroke-linecap="round" stroke-linejoin="round" d="M31.439,29.678
	c0,0,3.828,6.382,15.83,8.169c11.999,1.787,19.911-3.191,21.953-5.488c0,0,2.565-2.13,3.373-6.295c0,0-1.209,0.672-2.688,0"/>
	
<!-- ** -->

<path class="colorable" fill="#FFFFFF" stroke="#70090A" stroke-width="1.1051" stroke-linecap="round" stroke-linejoin="round" d="
	M69.909,26.064c0,0-11.279-3.277-32.088,1.573C17.016,32.486,9.997,41.805,9.997,41.805v-0.384c0,0,11.949-21.269,44.867-33.493
	c0,0,8.937-3.167,16.391-0.806C79.312,9.675,79.715,20.153,69.909,26.064z"/>

<!-- ** -->

<path fill="none" stroke="#96655B" stroke-width="1.1051" stroke-linecap="round" stroke-linejoin="round" d="M52.86,40.408
	c0,0-2.057,4.042,1.659,8.553c1.632,1.979,2.715,3.78,2.938,5.87c0.264,2.49-0.703,4.563-2.854,5.396
	c-3.956,1.532-7.358-1.438-6.976-3.992"/>
<path fill="none" stroke="#744323" stroke-width="0.8841" stroke-linecap="round" stroke-linejoin="round" d="M30.959,41.016
	c0,0,2.976-3.78,8.158-3.127"/>
<path fill="none" stroke="#744323" stroke-width="0.8841" stroke-linecap="round" stroke-linejoin="round" d="M68.381,36.312
	c0,0-0.442-0.333-1.213-0.689"/>
<path fill="#583012" d="M40.205,44.948c0-1.774-1.438-3.215-3.214-3.215c-1.776,0-3.214,1.44-3.214,3.215
	c0,1.776,1.438,3.215,3.214,3.215C38.767,48.163,40.205,46.723,40.205,44.948"/>
<path fill="#FFFFFF" d="M39.644,43.875c0,0.777-0.63,1.404-1.406,1.404c-0.776,0-1.407-0.627-1.407-1.404s0.63-1.408,1.407-1.408
	C39.014,42.468,39.644,43.098,39.644,43.875"/>
<path fill="#FFFFFF" d="M35.859,46.659c0,0.299-0.242,0.541-0.541,0.541c-0.299,0-0.541-0.242-0.541-0.541s0.242-0.541,0.541-0.541
	C35.617,46.118,35.859,46.36,35.859,46.659"/>
<path fill="#583012" d="M67.273,41.615c0-1.738-1.411-3.151-3.151-3.151s-3.148,1.413-3.148,3.151c0,1.741,1.408,3.151,3.148,3.151
	S67.273,43.356,67.273,41.615"/>
<path fill="#FFFFFF" d="M66.722,40.563c0,0.762-0.618,1.379-1.378,1.379c-0.762,0-1.381-0.618-1.381-1.379
	c0-0.761,0.619-1.378,1.381-1.378C66.104,39.185,66.722,39.802,66.722,40.563"/>
<path fill="#FFFFFF" d="M63.013,43.292c0,0.294-0.237,0.529-0.53,0.529c-0.294,0-0.529-0.235-0.529-0.529
	c0-0.293,0.235-0.53,0.529-0.53C62.776,42.762,63.013,42.998,63.013,43.292"/>
<path fill="none" stroke="#96655B" stroke-width="1.1051" stroke-linecap="round" stroke-linejoin="round" d="M44.404,66.345
	c0,0,1.798,4.745,6.769,4.604c4.966-0.143,6.556-5.107,6.556-5.107"/>
	
</svg>