<svg version="1.1" id="toplvl_0" xmlns="http://www.w3.org/2000/svg" xmlns:xlink="http://www.w3.org/1999/xlink" x="0px" y="0px" width="100%" height="100%" viewBox="0 0 80 135" xml:space="preserve">

<circle fill="#FFF200" stroke="#000000" stroke-width="4" stroke-miterlimit="10" cx="40.334" cy="38.987" r="32.999" />
<path class="number" fill="#000000" d="M28.359,119.081l7.021-0.158l0.675-16.498c0,0-5.13,1.853-5.67,1.957c-0.54,0.104-5.13-5.657-5.198-5.922 s14.648-9.624,14.648-9.571l9.183,2.485c0,0-0.541,27.074-0.406,27.392c0.137,0.315,5.268-0.104,5.939,0.422 c0.676,0.529,0.067,7.985-0.066,8.146c-0.133,0.16-25.518,0.104-25.854,0.104C28.292,127.438,28.359,119.081,28.359,119.081z" />
<path id="topok_0" class="none" fill="#3E55A5" stroke="#00AEEF" stroke-miterlimit="10" d="M51.36,20.219c-6.543,9.373-12.78,18.937-18.283,28.943 c-1.663-2.584-3.477-5.069-5.468-7.457c-3.477-4.17-9.392,1.811-5.946,5.945c3.152,3.78,5.695,7.945,7.934,12.32 c1.398,2.731,5.869,2.752,7.261,0c6.276-12.428,13.801-24.104,21.763-35.509C61.733,20.005,54.439,15.807,51.36,20.219z" />

</svg>
