<svg version="1.1" id="toplvl_1" xmlns="http://www.w3.org/2000/svg" xmlns:xlink="http://www.w3.org/1999/xlink" x="0px" y="0px" width="100%" height="100%" viewBox="0 0 80 135" xml:space="preserve">

<circle fill="#FFF200" stroke="#000000" stroke-width="4" stroke-miterlimit="10" cx="40.334" cy="38.987" r="32.999" />
<path class="number" fill="#000000" d="M22.984,119.896c15.054-14.594,16.674-15.388,16.674-18.189c0-0.848-1.352-1.852-2.565-1.852 c-4.253,0-6.346,2.537-6.346,2.537c-1.08,0.635-7.088-6.451-7.088-7.297c0-0.793,4.726-5.341,14.311-5.341 c9.045,0,16.471,2.961,16.471,10.206c0,4.178-1.688,6.716-13.096,18.243l13.096-0.159c0.742,0.688,0.539,9.307-0.066,9.254 c-1.08-0.212-29.567,0.37-30.04,0.105C23.929,127.193,22.714,121.325,22.984,119.896z" />
<path id="topok_1" class="none" fill="#3E55A5" stroke="#00AEEF" stroke-miterlimit="10" d="M51.36,20.219c-6.543,9.373-12.78,18.937-18.283,28.943 c-1.663-2.584-3.477-5.069-5.468-7.457c-3.477-4.17-9.392,1.811-5.946,5.945c3.152,3.78,5.695,7.945,7.934,12.32 c1.398,2.731,5.869,2.752,7.261,0c6.276-12.428,13.801-24.104,21.763-35.509C61.733,20.005,54.439,15.807,51.36,20.219z" />

</svg>