<svg version="1.1" id="toplvl_8" xmlns="http://www.w3.org/2000/svg" xmlns:xlink="http://www.w3.org/1999/xlink" x="0px" y="0px" width="100%" height="100%" viewBox="0 0 80 135" xml:space="preserve">

<circle fill="#ED1C24" stroke="#000000" stroke-width="4" stroke-miterlimit="10" cx="40.334" cy="38.987" r="32.999" />
<path class="number" fill="#000000" d="M37.884,113.876c-6.818-1.163-15.121-4.917-15.121-12.955c0-8.037,7.224-12.058,15.256-12.058 c8.033,0,17.551,3.121,17.551,14.226c0,13.062-15.524,24.959-15.524,24.959c0.135,0.104-8.573-2.485-11.139-5.183 C28.904,122.707,35.994,117.842,37.884,113.876z M37.411,98.33c-1.282,0-2.971,0.846-2.971,2.591c0,3.384,4.591,4.547,7.156,4.547 C43.217,103.3,42.677,98.33,37.411,98.33z" />
<path id="topok_4" class="none" fill="#3E55A5" stroke="#00AEEF" stroke-miterlimit="10" d="M51.36,20.219c-6.543,9.373-12.78,18.937-18.283,28.943 c-1.663-2.584-3.477-5.069-5.468-7.457c-3.477-4.17-9.392,1.811-5.946,5.945c3.152,3.78,5.695,7.945,7.934,12.32 c1.398,2.731,5.869,2.752,7.261,0c6.276-12.428,13.801-24.104,21.763-35.509C61.733,20.005,54.439,15.807,51.36,20.219z" />

</svg>