<?xml version="1.0" encoding="utf-8"?>
<!-- Generator: Adobe Illustrator 15.1.0, SVG Export Plug-In . SVG Version: 6.00 Build 0)  -->
<!DOCTYPE svg PUBLIC "-//W3C//DTD SVG 1.1//EN" "http://www.w3.org/Graphics/SVG/1.1/DTD/svg11.dtd">
<svg version="1.1" id="svg_0_0" xmlns="http://www.w3.org/2000/svg" xmlns:xlink="http://www.w3.org/1999/xlink" x="0px" y="0px"
	 width="85.04px" height="85.04px" viewBox="0 0 85.04 85.04" enable-background="new 0 0 85.04 85.04" xml:space="preserve">
<path fill="#FFFFFF" stroke="#7B5B3F" stroke-width="0.5" stroke-linecap="round" stroke-linejoin="round" d="M8.349,19.73
	c0.715,11.938,4.354,36.157,4.354,43.464c0,4.166,14.633,7.999,29.693,7.922c11.347-0.059,22.935-3.134,28.705-5.486
	c1.753-17.049,3.14-30.339,6.06-47.389c-9.286,3.972-19.569,7.162-21.903,18.122c-2.146-9.681-9.927-15.742-13.975-20.955
	c-5.238,5.71-13.396,13.691-13.979,22.823C23.349,28.169,10.968,22.708,8.349,19.73z"/>
<ellipse fill="none" stroke="#7B5B3F" stroke-width="0.5" stroke-linecap="round" stroke-linejoin="round" cx="41.402" cy="14.516" rx="4.05" ry="4.221"/>
<ellipse fill="none" stroke="#7B5B3F" stroke-width="0.5" stroke-linecap="round" stroke-linejoin="round" cx="76.208" cy="17.248" rx="4.047" ry="4.219"/>
<path fill="none" stroke="#7B5B3F" stroke-width="0.5" stroke-linecap="round" stroke-linejoin="round" d="M71.813,62.706
	c-3.712,3.939-15.617,6.826-29.743,6.826c-14.123,0-26.027-2.887-29.74-6.826c-0.777,0.826-1.203,1.701-1.203,2.605
	c0,5.21,13.854,9.434,30.943,9.434c17.095,0,30.947-4.224,30.947-9.434C73.017,64.407,72.591,63.532,71.813,62.706z"/>
<path fill="none" stroke="#7B5B3F" stroke-width="0.5" stroke-linecap="round" stroke-linejoin="round" d="M12.696,60.605
	c8.707,2.368,25.367-26.251,28.586-32.765c3.636,6.913,22.313,36.271,29.91,34.146"/>
<path fill="#FFFFFF" d="M8.349,14.05"/>
<path fill="#FFFFFF" d="M13.161,61.279v2.185c0,0,5.092,7.021,27.441,6.711c0,0,16.938,0.929,29.983-5.055v-2.414l-25.049-2.733
	l-6.745,2.125c0,0-4.373-3.271-4.598-3.271C33.976,58.827,13.161,61.279,13.161,61.279z"/>
<ellipse fill="#FFFFFF" stroke="#7B5B3F" stroke-width="0.5" cx="8.349" cy="17.247" rx="3.564" ry="3.737"/>
<ellipse fill="#FFFFFF" cx="41.402" cy="14.516" rx="3.566" ry="3.737"/>
<ellipse fill="#FFFFFF" cx="76.208" cy="17.247" rx="3.565" ry="3.737"/>
<polygon fill="none" stroke="#7B5B3F" stroke-width="0.5" stroke-linecap="round" stroke-linejoin="round" points="47.208,58.311 
	42.513,55.559 37.687,58.051 38.734,52.522 34.98,48.483 40.323,47.817 42.827,42.826 45.083,47.945 50.386,48.901 46.435,52.73 "/>
</svg>
