<svg version="1.1" id="svg_0_1" xmlns="http://www.w3.org/2000/svg" xmlns:xlink="http://www.w3.org/1999/xlink" x="0px" y="0px" width="85.04px" height="85.04px" viewBox="0 0 85.04 85.04" enable-background="new 0 0 85.04 85.04" xml:space="preserve">
<path fill="#FFFFFF" stroke="#7B5B3F" stroke-width="0.5" stroke-linecap="round" stroke-linejoin="round" d="M8.349,19.73
	c0.715,11.938,4.354,36.157,4.354,43.464c0,4.166,14.633,7.999,29.693,7.922c11.347-0.059,22.935-3.134,28.705-5.486
	c1.753-17.049,3.14-30.339,6.06-47.389c-9.286,3.972-19.569,7.162-21.903,18.122c-2.146-9.681-9.927-15.742-13.975-20.955
	c-5.238,5.71-13.396,13.691-13.979,22.823C23.349,28.169,10.968,22.708,8.349,19.73z"/>
<ellipse fill="none" stroke="#7B5B3F" stroke-width="0.5" stroke-linecap="round" stroke-linejoin="round" cx="41.402" cy="14.516" rx="4.05" ry="4.221"/>
<ellipse fill="none" stroke="#7B5B3F" stroke-width="0.5" stroke-linecap="round" stroke-linejoin="round" cx="76.208" cy="17.248" rx="4.047" ry="4.219"/>
<path fill="none" stroke="#7B5B3F" stroke-width="0.5" stroke-linecap="round" stroke-linejoin="round" d="M71.813,62.706
	c-3.712,3.939-15.617,6.826-29.743,6.826c-14.123,0-26.027-2.887-29.74-6.826c-0.777,0.826-1.203,1.701-1.203,2.605
	c0,5.21,13.854,9.434,30.943,9.434c17.095,0,30.947-4.224,30.947-9.434C73.017,64.407,72.591,63.532,71.813,62.706z"/>
<path fill="none" stroke="#7B5B3F" stroke-width="0.5" stroke-linecap="round" stroke-linejoin="round" d="M12.696,60.605
	c8.707,2.368,25.367-26.251,28.586-32.765c3.636,6.913,22.313,36.271,29.91,34.146"/>
<path fill="#FFFFFF" d="M8.349,14.05"/>
<path fill="#FFFFFF" d="M13.161,61.279v2.185c0,0,5.092,7.021,27.441,6.711c0,0,16.938,0.929,29.983-5.055v-2.414l-25.049-2.733
	l-6.745,2.125c0,0-4.373-3.271-4.598-3.271C33.976,58.827,13.161,61.279,13.161,61.279z"/>
<ellipse fill="#FFFFFF" stroke="#7B5B3F" stroke-width="0.5" cx="8.349" cy="17.247" rx="3.564" ry="3.737"/>
<ellipse fill="#FFFFFF" cx="41.402" cy="14.516" rx="3.566" ry="3.737"/>
<ellipse fill="#FFFFFF" cx="76.208" cy="17.247" rx="3.565" ry="3.737"/>
<polygon fill="none" stroke="#7B5B3F" stroke-width="0.5" stroke-linecap="round" stroke-linejoin="round" points="47.208,58.311 
	42.513,55.559 37.687,58.051 38.734,52.522 34.98,48.483 40.323,47.817 42.827,42.826 45.083,47.945 50.386,48.901 46.435,52.73 "/>
	
	<g id="clickMark_0_1" class="none">
		<path fill="#FFFFFF" d="M83.975,42.521c0,22.892-18.561,41.454-41.458,41.454c-22.893,0-41.453-18.562-41.453-41.454 C1.065,19.623,19.625,1.064,42.519,1.064C65.415,1.064,83.975,19.623,83.975,42.521z" />
		<path fill="none" stroke="#000000" stroke-width="0.9447" d="M42.519,73.262c16.977,0,30.746-13.76,30.746-30.741 c0-16.98-13.769-30.74-30.746-30.74c-16.979,0-30.743,13.76-30.743,30.74C11.774,59.502,25.54,73.262,42.519,73.262z" />
		<path fill="#D7DF23" d="M42.519,73.262c16.977,0,30.746-13.76,30.746-30.741c0-16.98-13.769-30.74-30.746-30.74 c-16.979,0-30.743,13.76-30.743,30.74C11.774,59.502,25.54,73.262,42.519,73.262" />
		<path fill="none" stroke="#000000" stroke-width="0.8879" d="M42.519,73.262c16.977,0,30.746-13.76,30.746-30.741 c0-16.98-13.769-30.74-30.746-30.74c-16.979,0-30.743,13.76-30.743,30.74C11.774,59.502,25.54,73.262,42.519,73.262" />
		<path fill="#ED1C24" d="M58.706,24.476c0.098,0.837-0.395,1.623-1.477,2.36c-1.377,0.983-2.213,1.721-2.508,2.211l-8.408,14.606 l7.08,13.721c0.1,0.148,0.615,0.91,1.549,2.287c0.591,0.838,0.886,1.6,0.886,2.287c0,0.395-0.071,0.789-0.222,1.182 c-0.836,2.113-2.387,3.172-4.646,3.172c-0.937,0-1.846-0.197-2.731-0.592c-1.229-0.541-1.904-1.242-2.027-2.102 c-0.122-0.861-0.232-1.707-0.332-2.545l-3.982-9.888l-4.424,8.854c-0.295,0.982-0.64,1.953-1.033,2.914 c-0.395,0.959-1.157,1.437-2.287,1.437c-1.428,0-2.804-0.491-4.131-1.476c-1.426-1.131-2.041-2.383-1.844-3.762 c0.097-0.541,0.429-1.115,0.995-1.733c0.565-0.615,0.922-1.068,1.071-1.363l6.492-11.806l-4.577-14.306 c-0.147-0.493-0.626-1.096-1.438-1.808s-1.268-1.387-1.364-2.028c-0.148-1.13,0.539-2.139,2.065-3.024 c1.376-0.737,2.851-1.107,4.427-1.107c0.886,0,1.573,0.148,2.066,0.441c1.081,0.692,1.743,1.563,1.989,2.62 c0.245,1.059,0.468,2.104,0.664,3.135l2.212,6.934l4.869-8.706c0.442-0.934,0.924-1.891,1.438-2.876 c0.519-0.985,1.216-1.646,2.103-1.991c0.539-0.247,1.154-0.37,1.844-0.37c1.279,0,2.521,0.356,3.726,1.071 C57.954,22.938,58.606,23.689,58.706,24.476z" />
	</g>
</svg>
