<svg version="1.1" id="svg_0_v" valid="1" xmlns="http://www.w3.org/2000/svg" xmlns:xlink="http://www.w3.org/1999/xlink" x="0px" y="0px"
	 width="85.04px" height="85.04px" viewBox="0 0 85.04 85.04" enable-background="new 0 0 85.04 85.04" xml:space="preserve">
	 
<path fill="#FFFFFF" toFill="#F9D560" stroke="#7B5B3F" stroke-width="0.5" stroke-miterlimit="10" d="M8.145,19.728
	c0.715,11.938,4.353,36.157,4.353,43.465c0,4.166,14.631,8,29.688,7.923c11.348-0.06,22.938-3.135,28.708-5.486
	c1.752-17.049,3.141-30.34,6.059-47.389c-9.283,3.971-19.568,7.16-21.902,18.121c-2.145-9.681-9.928-15.742-13.975-20.955
	c-5.236,5.709-13.395,13.69-13.979,22.823C23.145,28.168,10.762,22.708,8.145,19.728z" class="colorable" />
	
<ellipse fill="#FFFFFF" toFill="#F9D560" stroke="#7B5B3F" stroke-width="0.5" stroke-linecap="round" stroke-linejoin="round" cx="8.144" cy="17.247" rx="4.048" ry="4.219" class="colorable" />
<ellipse fill="#FFFFFF" toFill="#F9D560" stroke="#7B5B3F" stroke-width="0.5" stroke-linecap="round" stroke-linejoin="round" cx="41.193" cy="14.515" rx="4.047" ry="4.221" class="colorable" />
<ellipse fill="#FFFFFF" toFill="#F9D560" stroke="#7B5B3F" stroke-width="0.5" stroke-linecap="round" stroke-linejoin="round" cx="76" cy="17.247" rx="4.047" ry="4.219" class="colorable" />
<path fill="#FFFFFF" toFill="#F9D560" stroke="#7B5B3F" stroke-width="0.5" stroke-linecap="round" stroke-linejoin="round" d="M71.604,62.708
	c-3.711,3.938-15.615,6.824-29.741,6.824c-14.121,0-26.025-2.888-29.736-6.824c-0.78,0.826-1.207,1.699-1.207,2.604
	c0,5.211,13.855,9.436,30.943,9.436c17.092,0,30.948-4.225,30.948-9.436C72.811,64.407,72.383,63.534,71.604,62.708z" class="colorable" />
<path fill="#FFFFFF" toFill="#F9D560" stroke="#7B5B3F" stroke-width="0.5" stroke-linecap="round" stroke-linejoin="round" d="M12.493,60.603
	c8.707,2.369,25.363-26.25,28.582-32.765c3.217,6.119,22.149,36.318,29.911,34.146" class="colorable" />
<polygon fill="#FFFFFF" toFill="#C1172C" stroke="#7B5B3F" stroke-width="0.5" stroke-linecap="round" stroke-linejoin="round" points="36.52,45.827 
	41.641,41.11 46.764,45.827 46.764,55.252 41.641,59.97 36.52,55.252 " class="colorable" />
<path fill="#FFFFFF" toFill="#FFFFFF" d="M41.996,43.17l-0.318,0.357l1.958,1.889c0.111-0.115,0.223-0.229,0.334-0.346L41.996,43.17z" class="colorable" />
<path fill="#FFFFFF" toFill="#FFFFFF" d="M45.042,46.106l-0.486-0.473c-0.139,0.078-0.264,0.189-0.357,0.324l0.525,0.506L45.042,46.106z" class="colorable" />

	<g id="clickMark_0_v" class="none">
		<path fill="#FFFFFF" d="M83.978,42.521c0,22.892-18.561,41.454-41.459,41.454c-22.895,0-41.457-18.562-41.457-41.454 c0-22.899,18.562-41.457,41.457-41.457C65.417,1.064,83.978,19.623,83.978,42.521z" />
		<path fill="none" stroke="#000000" stroke-width="0.9447" d="M42.519,73.262c16.982,0,30.749-13.76,30.749-30.741 c0-16.98-13.767-30.74-30.749-30.74c-16.981,0-30.745,13.76-30.745,30.74C11.772,59.502,25.537,73.262,42.519,73.262z" />
		<path fill="#D7DF23" stroke="#000000" stroke-width="0.8879" d="M42.519,73.262c16.982,0,30.749-13.76,30.749-30.741 c0-16.98-13.767-30.74-30.749-30.74c-16.981,0-30.745,13.76-30.745,30.74C11.772,59.502,25.537,73.262,42.519,73.262" />
		<path fill="#009444" d="M61.976,26.239c0,0.923-0.524,1.787-1.572,2.587c-1.356,1.11-2.188,1.91-2.495,2.403L43.209,54.614 c-1.108,1.972-2.188,3.943-3.236,5.912c-1.724,2.527-3.481,3.789-5.268,3.789c-0.8,0-1.617-0.229-2.447-0.692 c-0.833-0.459-1.312-1.338-1.435-2.634c-0.246-1.786-0.493-2.926-0.739-3.418l-4.621-9.43c-0.185-0.369-1.017-1.416-2.496-3.143 c-0.864-1.109-1.202-2.277-1.015-3.511c0.185-1.54,0.891-2.895,2.126-4.066c1.229-1.17,2.555-1.755,3.972-1.755 c0.616,0,1.234,0.122,1.849,0.368c0.309,0.125,0.741,0.958,1.294,2.496c0.74,2.095,1.265,3.482,1.572,4.159l3.326,6.192 l13.405-21.719c0.678-1.293,1.354-2.618,2.035-3.975c0.983-1.355,2.187-2.033,3.604-2.033c1.537,0,3.064,0.555,4.574,1.666 C61.218,23.93,61.976,25.067,61.976,26.239z" />
	</g>
</svg>
