<svg version="1.1" id="svg_1" xmlns="http://www.w3.org/2000/svg" xmlns:xlink="http://www.w3.org/1999/xlink" x="0px" y="0px"
	 width="85.04px" height="85.04px" viewBox="0 0 85.04 85.04" enable-background="new 0 0 85.04 85.04" xml:space="preserve">
<path fill="#DEB990" stroke="#000000" stroke-width="0.4139" stroke-linecap="round" stroke-linejoin="round" d="M41.193,58.245
	c0,0.316-0.322,0.574-0.72,0.574H40.28c-0.397,0-0.719-0.258-0.719-0.574V8.509c0-0.317,0.321-0.575,0.719-0.575h0.193
	c0.397,0,0.72,0.257,0.72,0.575V58.245z"/>
<path fill="#E5C879" stroke="#000000" stroke-width="0.4139" stroke-linecap="round" stroke-linejoin="round" d="M6.228,58.22
	c-0.441-0.06-0.881-0.122-1.318-0.196c1.357,6.784,7.803,14.268,14.654,18.504c0.514,1.301,40.121,0,47.322,0
	c5.605-4.725,9.904-13.123,12.457-18.291c-1.068,0.178-2.117,0.321-3.121,0.393C47.083,59.403,25.59,59.458,6.228,58.22z"/>
<path fill="#805C2D" stroke="#000000" stroke-width="0.4139" d="M4.01,56.87c0,0.734,1.053,2.137,1.214,2.896
	c0.413,0.066,45.399,2.122,68.536-0.109c0.949-0.063,3.881-0.384,4.889-0.543c0.797-1.521,1.414-2.729,1.836-3.398
	C68.346,57.064,41.639,58.995,4.01,56.87z"/>
<path fill="#D3B253" stroke="#000000" stroke-width="0.4139" stroke-linecap="round" stroke-linejoin="round" d="M2.405,56.011
	c0,0.668,1.104,1.944,1.273,2.64c0.434,0.061,47.629,1.936,71.898-0.101c0.996-0.058,4.07-0.353,5.131-0.496
	c0.836-1.386,1.482-2.485,1.928-3.099C69.901,56.186,41.882,57.946,2.405,56.011z"/>
<path fill="#07A8D2" stroke="#000000" stroke-width="0.4139" stroke-linecap="round" stroke-linejoin="round" d="M47.555,12.446
	c0,1.78,0,3.499,0,5.257c1.893-0.072,3.932-0.11,6.051-1.584C52.827,15.339,49.334,14.601,47.555,12.446z"/>
<path fill="#0080A2" stroke="#000000" stroke-width="0.4139" d="M47.461,17.081c0.861-0.086,0.875-0.009,0.746,0.163
	c-0.217,0.287-0.605,0.525-0.727,0.525S47.461,17.081,47.461,17.081z"/>
<path fill="#64BCE0" stroke="#000000" stroke-width="0.4139" stroke-linecap="round" stroke-linejoin="round" d="M41.549,10.043
	c0.986,0.822,1.347,4.488,0,7.181c0.425-0.849,3.523-1.405,6.596-0.111c0-1.758,0-3.477,0-5.257
	C46.127,10.972,44.665,9.27,41.549,10.043z"/>
<path fill="#0394B4" stroke="#000000" stroke-width="0.4139" stroke-linecap="round" stroke-linejoin="round" d="M41.886,10.211
	c0.678,0.351,1.14,0.684,1.628,1.29"/>
<path fill="#0394B4" stroke="#000000" stroke-width="0.4139" stroke-linecap="round" stroke-linejoin="round" d="M43.569,15.541
	c-0.233,0.288-0.654,0.37-0.955,0.607c-0.213,0.168-0.424,0.5-0.672,0.626"/>
<path fill="#DEB990" stroke="#000000" stroke-width="0.4139" stroke-linecap="round" stroke-linejoin="round" d="M40.144,55.856
	c0,0-33.302-1.761-33.302-3.08c2.935-0.441,28.02,1.467,33.154,1.467"/>
<path fill="#DEB990" stroke="#000000" stroke-width="0.4139" stroke-linecap="round" stroke-linejoin="round" d="M40.677,54.397
	c0,0,27.616-1.434,27.616-2.509c-2.434-0.358-23.236,1.194-27.495,1.194"/>
<path fill="#C9E1E2" stroke="#000000" stroke-width="0.4139" stroke-linecap="round" stroke-linejoin="round" d="M39.702,54.096
	c-3.385-4.443-1.724-33.683-0.243-42.807C24.566,14.726,9.867,44.829,9.867,52.39C20.338,49.843,33.606,54.959,39.702,54.096z"/>
<path fill="#C9E1E2" stroke="#000000" stroke-width="0.4139" stroke-linecap="round" stroke-linejoin="round" d="M41.317,52.782
	c2.958-10.101,1.633-25.626,0.153-34.75c14.188,1.878,27.606,29.783,25.964,33.399C66.702,53.043,47.889,50.411,41.317,52.782z"/>
</svg>
