<?xml version="1.0" encoding="utf-8"?>
<!-- Generator: Adobe Illustrator 15.1.0, SVG Export Plug-In . SVG Version: 6.00 Build 0)  -->
<!DOCTYPE svg PUBLIC "-//W3C//DTD SVG 1.1//EN" "http://www.w3.org/Graphics/SVG/1.1/DTD/svg11.dtd">
<svg version="1.1" id="svg_1_1" xmlns="http://www.w3.org/2000/svg" xmlns:xlink="http://www.w3.org/1999/xlink" x="0px" y="0px"
	 width="85.04px" height="85.04px" viewBox="0 0 85.04 85.04" enable-background="new 0 0 85.04 85.04" xml:space="preserve">
<path fill="#FFFFFF" stroke="#7B5B3F" stroke-width="0.4139" stroke-linecap="round" stroke-linejoin="round" d="M41.196,58.208
	c0,0.318-0.321,0.574-0.721,0.574h-0.193c-0.396,0-0.719-0.256-0.719-0.574V8.472c0-0.317,0.322-0.574,0.719-0.574h0.193
	c0.398,0,0.721,0.257,0.721,0.574V58.208z"/>
<path fill="#FFFFFF" stroke="#7B5B3F" stroke-width="0.4139" stroke-linecap="round" stroke-linejoin="round" d="M6.227,58.182
	c-0.439-0.059-0.879-0.121-1.316-0.197c1.357,6.785,7.802,14.27,14.654,18.506c0.514,1.299,40.118,0,47.318,0
	c5.604-4.726,9.902-13.123,12.457-18.293c-1.066,0.18-2.118,0.322-3.123,0.395C47.083,59.364,25.591,59.42,6.227,58.182z"/>
<path fill="#FFFFFF" stroke="#7B5B3F" stroke-width="0.4139" d="M4.012,56.834c0,0.731,1.051,2.133,1.213,2.895
	c0.414,0.066,45.396,2.122,68.533-0.109c0.947-0.063,3.88-0.383,4.891-0.543c0.797-1.521,1.414-2.729,1.836-3.398
	C68.345,57.028,41.641,58.958,4.012,56.834z"/>
<path fill="#FFFFFF" stroke="#7B5B3F" stroke-width="0.4139" stroke-linecap="round" stroke-linejoin="round" d="M2.407,55.973
	c0,0.668,1.104,1.945,1.273,2.639c0.434,0.063,47.626,1.938,71.896-0.1c0.995-0.059,4.071-0.352,5.131-0.495
	c0.836-1.388,1.481-2.487,1.926-3.101C69.899,56.149,41.884,57.909,2.407,55.973z"/>
<path fill="#FFFFFF" stroke="#7B5B3F" stroke-width="0.4139" stroke-linecap="round" stroke-linejoin="round" d="M47.554,12.409
	c0,1.78,0,3.499,0,5.257c1.894-0.073,3.931-0.111,6.052-1.583C52.827,15.302,49.334,14.564,47.554,12.409z"/>
<path fill="#0080A2" stroke="#7B5B3F" stroke-width="0.4139" d="M47.461,17.044c0.86-0.086,0.875-0.009,0.744,0.162
	c-0.213,0.287-0.603,0.525-0.724,0.525S47.461,17.044,47.461,17.044z"/>
<path fill="#FFFFFF" stroke="#7B5B3F" stroke-width="0.4139" stroke-linecap="round" stroke-linejoin="round" d="M41.551,10.007
	c0.985,0.821,1.346,4.487,0,7.179c0.424-0.848,3.522-1.405,6.594-0.111c0-1.758,0-3.477,0-5.258
	C46.129,10.937,44.667,9.233,41.551,10.007z"/>
<path fill="#0394B4" stroke="#7B5B3F" stroke-width="0.4139" stroke-linecap="round" stroke-linejoin="round" d="M43.571,15.504
	c-0.232,0.288-0.653,0.369-0.955,0.607c-0.211,0.168-0.424,0.5-0.672,0.626"/>
<path fill="#FFFFFF" stroke="#7B5B3F" stroke-width="0.4139" stroke-linecap="round" stroke-linejoin="round" d="M40.145,55.821
	c0,0-33.303-1.763-33.303-3.082c2.934-0.439,28.02,1.467,33.156,1.467"/>
<path fill="#FFFFFF" stroke="#7B5B3F" stroke-width="0.4139" stroke-linecap="round" stroke-linejoin="round" d="M40.678,54.36
	c0,0,27.611-1.434,27.611-2.509c-2.432-0.358-23.231,1.194-27.489,1.194"/>
<path fill="#FFFFFF" stroke="#7B5B3F" stroke-width="0.4139" stroke-linecap="round" stroke-linejoin="round" d="M39.704,54.059
	c-3.385-4.443-1.723-33.683-0.243-42.807C24.567,14.688,9.868,44.79,9.868,52.352C20.339,49.804,33.608,54.922,39.704,54.059z"/>
<path fill="#FFFFFF" stroke="#7B5B3F" stroke-width="0.4139" stroke-linecap="round" stroke-linejoin="round" d="M41.319,52.745
	c2.959-10.102,1.633-25.625,0.154-34.75c14.186,1.878,27.604,29.783,25.958,33.4C66.7,53.006,47.888,50.374,41.319,52.745z"/>
<path fill="#FFFFFF" stroke="#7B5B3F" stroke-width="0.4139" d="M46.435,60.679c0,0-0.127,14.003-6.872,16.462"/>

	<g id="clickMark_1_1" class="none">
		<path fill="#FFFFFF" d="M83.975,42.521c0,22.892-18.561,41.454-41.458,41.454c-22.893,0-41.453-18.562-41.453-41.454 C1.065,19.623,19.625,1.064,42.519,1.064C65.415,1.064,83.975,19.623,83.975,42.521z" />
		<path fill="none" stroke="#000000" stroke-width="0.9447" d="M42.519,73.262c16.977,0,30.746-13.76,30.746-30.741 c0-16.98-13.769-30.74-30.746-30.74c-16.979,0-30.743,13.76-30.743,30.74C11.774,59.502,25.54,73.262,42.519,73.262z" />
		<path fill="#D7DF23" d="M42.519,73.262c16.977,0,30.746-13.76,30.746-30.741c0-16.98-13.769-30.74-30.746-30.74 c-16.979,0-30.743,13.76-30.743,30.74C11.774,59.502,25.54,73.262,42.519,73.262" />
		<path fill="none" stroke="#000000" stroke-width="0.8879" d="M42.519,73.262c16.977,0,30.746-13.76,30.746-30.741 c0-16.98-13.769-30.74-30.746-30.74c-16.979,0-30.743,13.76-30.743,30.74C11.774,59.502,25.54,73.262,42.519,73.262" />
		<path fill="#ED1C24" d="M58.706,24.476c0.098,0.837-0.395,1.623-1.477,2.36c-1.377,0.983-2.213,1.721-2.508,2.211l-8.408,14.606 l7.08,13.721c0.1,0.148,0.615,0.91,1.549,2.287c0.591,0.838,0.886,1.6,0.886,2.287c0,0.395-0.071,0.789-0.222,1.182 c-0.836,2.113-2.387,3.172-4.646,3.172c-0.937,0-1.846-0.197-2.731-0.592c-1.229-0.541-1.904-1.242-2.027-2.102 c-0.122-0.861-0.232-1.707-0.332-2.545l-3.982-9.888l-4.424,8.854c-0.295,0.982-0.64,1.953-1.033,2.914 c-0.395,0.959-1.157,1.437-2.287,1.437c-1.428,0-2.804-0.491-4.131-1.476c-1.426-1.131-2.041-2.383-1.844-3.762 c0.097-0.541,0.429-1.115,0.995-1.733c0.565-0.615,0.922-1.068,1.071-1.363l6.492-11.806l-4.577-14.306 c-0.147-0.493-0.626-1.096-1.438-1.808s-1.268-1.387-1.364-2.028c-0.148-1.13,0.539-2.139,2.065-3.024 c1.376-0.737,2.851-1.107,4.427-1.107c0.886,0,1.573,0.148,2.066,0.441c1.081,0.692,1.743,1.563,1.989,2.62 c0.245,1.059,0.468,2.104,0.664,3.135l2.212,6.934l4.869-8.706c0.442-0.934,0.924-1.891,1.438-2.876 c0.519-0.985,1.216-1.646,2.103-1.991c0.539-0.247,1.154-0.37,1.844-0.37c1.279,0,2.521,0.356,3.726,1.071 C57.954,22.938,58.606,23.689,58.706,24.476z" />
	</g>
</svg>
