<?xml version="1.0" encoding="utf-8"?>
<!-- Generator: Adobe Illustrator 15.1.0, SVG Export Plug-In . SVG Version: 6.00 Build 0)  -->
<!DOCTYPE svg PUBLIC "-//W3C//DTD SVG 1.1//EN" "http://www.w3.org/Graphics/SVG/1.1/DTD/svg11.dtd">
<svg version="1.1" id="svg_1_2" xmlns="http://www.w3.org/2000/svg" xmlns:xlink="http://www.w3.org/1999/xlink" x="0px" y="0px"
	 width="85.04px" height="85.04px" viewBox="0 0 85.04 85.04" enable-background="new 0 0 85.04 85.04" xml:space="preserve">
<path fill="#FFFFFF" stroke="#7B5B3F" stroke-width="0.4139" stroke-linecap="round" stroke-linejoin="round" d="M41.196,58.208
	c0,0.318-0.321,0.574-0.721,0.574h-0.193c-0.396,0-0.719-0.256-0.719-0.574V8.472c0-0.317,0.322-0.574,0.719-0.574h0.193
	c0.398,0,0.721,0.257,0.721,0.574V58.208z"/>
<path fill="#FFFFFF" stroke="#7B5B3F" stroke-width="0.4139" stroke-linecap="round" stroke-linejoin="round" d="M6.227,58.182
	c-0.439-0.059-0.879-0.121-1.316-0.197c1.357,6.785,7.802,14.27,14.654,18.506c0.514,1.299,40.118,0,47.318,0
	c5.604-4.726,9.902-13.123,12.457-18.293c-1.066,0.18-2.118,0.322-3.123,0.395C47.083,59.364,25.591,59.42,6.227,58.182z"/>
<path fill="#FFFFFF" stroke="#7B5B3F" stroke-width="0.4139" d="M4.012,56.834c0,0.731,1.051,2.133,1.213,2.895
	c0.414,0.066,45.396,2.122,68.533-0.109c0.947-0.063,3.88-0.383,4.891-0.543c0.797-1.521,1.414-2.729,1.836-3.398
	C68.345,57.028,41.641,58.958,4.012,56.834z"/>
<path fill="#FFFFFF" stroke="#7B5B3F" stroke-width="0.4139" stroke-linecap="round" stroke-linejoin="round" d="M2.407,55.973
	c0,0.668,1.104,1.945,1.273,2.639c0.434,0.063,47.626,1.938,71.896-0.1c0.995-0.059,4.071-0.352,5.131-0.495
	c0.836-1.388,1.481-2.487,1.926-3.101C69.899,56.149,41.884,57.909,2.407,55.973z"/>
<path fill="#FFFFFF" stroke="#7B5B3F" stroke-width="0.4139" stroke-linecap="round" stroke-linejoin="round" d="M47.554,12.409
	c0,1.78,0,3.499,0,5.257c1.894-0.073,3.931-0.111,6.052-1.583C52.827,15.302,49.334,14.564,47.554,12.409z"/>
<path fill="#0080A2" stroke="#7B5B3F" stroke-width="0.4139" d="M47.461,17.044c0.86-0.086,0.875-0.009,0.744,0.162
	c-0.213,0.287-0.603,0.525-0.724,0.525S47.461,17.044,47.461,17.044z"/>
<path fill="#FFFFFF" stroke="#7B5B3F" stroke-width="0.4139" stroke-linecap="round" stroke-linejoin="round" d="M41.551,10.007
	c0.985,0.821,1.346,4.487,0,7.179c0.424-0.848,3.522-1.405,6.594-0.111c0-1.758,0-3.477,0-5.258
	C46.129,10.937,44.667,9.233,41.551,10.007z"/>
<path fill="#0394B4" stroke="#7B5B3F" stroke-width="0.4139" stroke-linecap="round" stroke-linejoin="round" d="M43.571,15.504
	c-0.232,0.288-0.653,0.369-0.955,0.607c-0.211,0.168-0.424,0.5-0.672,0.626"/>
<path fill="#FFFFFF" stroke="#7B5B3F" stroke-width="0.4139" stroke-linecap="round" stroke-linejoin="round" d="M40.145,55.821
	c0,0-33.303-1.763-33.303-3.082c2.934-0.439,28.02,1.467,33.156,1.467"/>
<path fill="#FFFFFF" stroke="#7B5B3F" stroke-width="0.4139" stroke-linecap="round" stroke-linejoin="round" d="M40.678,54.36
	c0,0,27.611-1.434,27.611-2.509c-2.432-0.358-23.231,1.194-27.489,1.194"/>
<path fill="#FFFFFF" stroke="#7B5B3F" stroke-width="0.4139" stroke-linecap="round" stroke-linejoin="round" d="M39.704,54.059
	c-3.385-4.443-1.723-33.683-0.243-42.807C24.567,14.688,9.868,44.79,9.868,52.352C20.339,49.804,33.608,54.922,39.704,54.059z"/>
<path fill="#FFFFFF" stroke="#7B5B3F" stroke-width="0.4139" stroke-linecap="round" stroke-linejoin="round" d="M41.319,52.745
	c2.959-10.102,1.633-25.625,0.154-34.75c14.186,1.878,27.604,29.783,25.958,33.4C66.7,53.006,47.888,50.374,41.319,52.745z"/>
<path fill="#FFFFFF" stroke="#7B5B3F" stroke-width="0.4139" d="M46.435,60.679c0,0-0.127,14.003-6.872,16.462"/>
</svg>
