<svg version="1.1" id="svg_2" xmlns="http://www.w3.org/2000/svg" xmlns:xlink="http://www.w3.org/1999/xlink" x="0px" y="0px"
	 width="85.04px" height="85.04px" viewBox="0 0 85.04 85.04" enable-background="new 0 0 85.04 85.04" xml:space="preserve">
<path fill="#E97777" d="M64.244,64.445c1.4,7.385,2.348,13.104,2.255,14.6c-0.269,4.371-11.515,8.357-12.93-1.785
	c-0.108-0.777-0.248-1.697-0.419-2.744l0.084-0.016C57.669,71.857,61.603,68.482,64.244,64.445z"/>
<path fill="#FFFFFF" d="M64.083,63.603c0.057,0.283,0.109,0.563,0.161,0.841c-2.642,4.038-6.573,7.413-11.01,10.056
	c-0.373-2.324-0.886-5.287-1.492-8.625c4.31-2.812,7.839-6.686,10.592-11.16c0.089,0.426,0.171,0.852,0.255,1.272
	c0.145,0.735,0.291,1.461,0.436,2.181c0.182,0.941,0.363,1.861,0.545,2.771c0.035,0.184,0.072,0.362,0.104,0.54
	c0.067,0.357,0.141,0.716,0.209,1.072C63.949,62.905,64.015,63.257,64.083,63.603z"/>
<path fill="#FFFFFF" d="M59.925,43.046c0.025,0.121,0.047,0.236,0.072,0.357c-2.343,4.418-6.061,8.128-10.454,10.703
	c-0.497-2.633-1.017-5.299-1.53-7.916c-0.067-0.374-0.141-0.736-0.213-1.104c4.42-2.879,8.092-7.104,10-11.98
	c0.072,0.336,0.146,0.678,0.224,1.02c0.042,0.179,0.077,0.352,0.114,0.531c0.265,1.241,0.539,2.518,0.82,3.821
	c0.083,0.374,0.161,0.752,0.239,1.13c0.12,0.562,0.239,1.135,0.364,1.708c0.052,0.242,0.104,0.489,0.156,0.736
	C59.785,42.384,59.851,42.716,59.925,43.046z"/>
<path fill="#FFFFFF" d="M54.989,20.518c0.03,0.137,0.067,0.279,0.099,0.426c-2.328,4.355-5.898,8.239-9.824,11.287
	c-0.51-2.528-0.955-4.73-1.304-6.455c-0.114-0.552-0.233-1.093-0.368-1.624c3.779-3.253,6.979-7.443,8.276-12.042
	c1.245,2.335,2.205,4.901,2.903,7.53c0.072,0.284,0.146,0.568,0.213,0.857C54.989,20.502,54.989,20.512,54.989,20.518z"/>
<path fill="#FFFFFF" d="M54.984,20.497c-0.068-0.289-0.141-0.573-0.213-0.857C54.847,19.924,54.916,20.208,54.984,20.497z"/>
<path fill="#E97777" d="M53.151,74.515c-1.052-6.533-3.188-17.823-5.228-28.31l0.09-0.015c0.514,2.617,1.033,5.281,1.53,7.916
	c4.394-2.574,8.111-6.285,10.454-10.703c0.79,3.743,1.584,7.59,2.337,11.313c-2.753,4.475-6.282,8.348-10.592,11.158
	c0.606,3.338,1.12,6.303,1.492,8.625L53.151,74.515z"/>
<path fill="#E97777" d="M47.923,46.206c-1.619-8.315-3.181-16.131-4.104-20.662c-0.095-0.468-0.197-0.925-0.302-1.377l0.074-0.016
	c0.135,0.531,0.254,1.072,0.368,1.624c0.349,1.724,0.794,3.927,1.304,6.455c3.926-3.048,7.498-6.932,9.824-11.287
	c0.65,2.771,1.617,7.091,2.713,12.164c-1.908,4.876-5.58,9.101-10,11.98c0.073,0.367,0.146,0.729,0.213,1.104L47.923,46.206z"/>
<path fill="#E97777" d="M43.589,24.152l-0.072,0.016c-0.749-3.123-1.783-5.857-3.049-7.914c1.592-4.53,1.667-9.526,0.292-14.247
	c-0.599-0.175-1.223-0.308-1.864-0.409c8.654,1.266,13.652,9.385,15.875,18.042c-0.698-2.628-1.658-5.194-2.903-7.53
	C50.569,16.709,47.37,20.899,43.589,24.152z"/>
<path fill="#FFFFFF" d="M40.76,2.007c1.375,4.721,1.3,9.717-0.292,14.247c-1.821-2.978-4.124-4.533-6.689-3.746
	c-1.032-3.533-2.763-6.742-5.315-9.364c0.526-0.246,1.067-0.465,1.646-0.663c0.163-0.052,0.326-0.11,0.494-0.157
	c2.697-0.781,5.146-1.028,7.368-0.838c0.189,0.016,0.373,0.038,0.557,0.059c0.105,0.016,0.215,0.027,0.32,0.048
	c0.016,0,0.031,0.005,0.047,0.005C39.536,1.699,40.161,1.832,40.76,2.007z"/>
<path fill="#E97777" d="M29.323,25.962c0.295,1.624,0.56,3.033,0.479,3.957c-0.67,7.695-7.627,8.245-9.859,1.516
	c-0.329-0.999-0.646-2.25-0.89-3.664l0.273-0.062c2.604-1.386,6.476-1.555,9.392-1.653C28.912,26.008,29.112,25.977,29.323,25.962z"
	/>
<path fill="#FFFFFF" d="M29.323,25.962c-0.21,0.015-0.41,0.046-0.604,0.093c-2.916,0.098-6.788,0.268-9.392,1.653
	c-0.492-3.006-0.677-6.731-0.111-10.402c3.007-0.723,6.667-0.231,9.675,0.596C28.338,20.448,28.866,23.46,29.323,25.962z"/>
<path fill="#E97777" d="M19.053,27.77C17.654,19.718,18.396,6.224,30.11,2.48c-0.579,0.198-1.12,0.417-1.646,0.663
	c2.552,2.623,4.283,5.831,5.315,9.364c-1.046,0.323-2.141,1.03-3.263,2.193c-0.864,0.896-1.365,1.998-1.626,3.201
	c-3.008-0.827-6.668-1.319-9.675-0.596c-0.566,3.671-0.38,7.396,0.111,10.402L19.053,27.77z"/>
<path fill="none" stroke="#070505" stroke-width="0.7966" stroke-linecap="round" stroke-linejoin="bevel" d="M64.244,64.445
	c1.4,7.385,2.348,13.104,2.255,14.6c-0.269,4.371-11.515,8.357-12.93-1.785c-0.108-0.777-0.248-1.697-0.419-2.744
	c-1.051-6.533-3.188-17.822-5.227-28.309c-1.619-8.315-3.182-16.131-4.105-20.662c-0.094-0.468-0.197-0.925-0.301-1.377
	c-0.749-3.123-1.783-5.857-3.049-7.914c-1.821-2.978-4.124-4.533-6.689-3.746c-1.046,0.323-2.141,1.03-3.263,2.193
	c-0.864,0.896-1.365,1.998-1.626,3.201c-0.552,2.546-0.024,5.558,0.433,8.06c0.295,1.624,0.56,3.033,0.479,3.957
	c-0.67,7.695-7.627,8.245-9.859,1.516c-0.329-0.999-0.646-2.25-0.89-3.664c-1.399-8.052-0.657-21.546,11.057-25.29"/>
<path fill="none" stroke="#070505" stroke-width="0.7966" stroke-linecap="round" stroke-linejoin="bevel" d="M63.673,61.48
	c0.067,0.357,0.141,0.715,0.209,1.072c0.066,0.353,0.135,0.705,0.202,1.051"/>
<path fill="none" stroke="#070505" stroke-width="0.7966" stroke-linecap="round" stroke-linejoin="bevel" d="M62.589,55.988
	c0.145,0.736,0.291,1.461,0.436,2.182c0.182,0.94,0.363,1.86,0.545,2.77"/>
<path fill="none" stroke="#070505" stroke-width="0.7966" stroke-linecap="round" stroke-linejoin="bevel" d="M59.718,42.053
	c0.066,0.332,0.135,0.663,0.207,0.994c0.026,0.121,0.047,0.236,0.073,0.357c0.79,3.743,1.584,7.59,2.337,11.313"/>
<path fill="none" stroke="#070505" stroke-width="0.7966" stroke-linecap="round" stroke-linejoin="bevel" d="M59.198,39.609
	c0.12,0.562,0.239,1.135,0.364,1.708"/>
<path fill="none" stroke="#070505" stroke-width="0.7966" stroke-linecap="round" stroke-linejoin="bevel" d="M58.138,34.657
	c0.265,1.241,0.539,2.518,0.82,3.821"/>
<path fill="none" stroke="#070505" stroke-width="0.7966" stroke-linecap="round" stroke-linejoin="bevel" d="M54.989,20.518
	c0.03,0.137,0.067,0.279,0.099,0.426c0.65,2.771,1.617,7.091,2.713,12.164c0.073,0.336,0.146,0.678,0.225,1.02"/>
<path fill="none" stroke="#070505" stroke-width="0.7966" stroke-linecap="round" stroke-linejoin="bevel" d="M38.896,1.597
	c8.654,1.266,13.652,9.385,15.875,18.042c0.078,0.284,0.146,0.568,0.213,0.857"/>
<path fill="none" stroke="#070505" stroke-width="0.7966" stroke-linecap="round" stroke-linejoin="bevel" d="M38.528,1.544
	c0.105,0.016,0.215,0.027,0.32,0.048"/>
<path fill="none" stroke="#070505" stroke-width="0.7966" stroke-linecap="round" stroke-linejoin="bevel" d="M30.604,2.323
	c2.697-0.781,5.146-1.028,7.368-0.838"/>
<path fill="none" stroke="#070505" stroke-width="0.3983" stroke-linecap="round" stroke-linejoin="bevel" d="M19.326,27.708
	c2.604-1.386,6.476-1.555,9.392-1.653c0.194-0.046,0.394-0.078,0.604-0.093c0.063-0.01,0.131-0.016,0.2-0.021
	c-0.451-2.502-0.933-5.471-0.317-7.955c-0.105-0.032-0.21-0.059-0.315-0.085c-3.008-0.827-6.668-1.319-9.675-0.596
	C18.649,20.976,18.834,24.701,19.326,27.708z"/>
<path fill="none" stroke="#070505" stroke-width="0.3983" stroke-linecap="round" stroke-linejoin="bevel" d="M37.972,1.485
	c-2.201-0.205-4.618,0.031-7.273,0.807c-0.032,0.01-0.063,0.021-0.095,0.031C30.436,2.37,30.273,2.427,30.11,2.48
	c-0.579,0.198-1.12,0.417-1.646,0.663c2.552,2.623,4.283,5.831,5.315,9.364c0.031,0.084,0.052,0.168,0.078,0.252
	c2.503-0.835,4.769,0.637,6.601,3.53c0.005-0.01,0.01-0.026,0.01-0.037c1.592-4.53,1.667-9.526,0.292-14.247
	c-0.599-0.175-1.223-0.308-1.864-0.409c-0.016,0-0.032-0.005-0.047-0.005c-0.105-0.016-0.21-0.032-0.32-0.048"/>
<path fill="none" stroke="#070505" stroke-width="0.7966" stroke-linecap="round" stroke-linejoin="bevel" d="M38.528,1.544
	c-0.184-0.021-0.368-0.043-0.557-0.059"/>
<path fill="none" stroke="#070505" stroke-width="0.3983" stroke-linecap="round" stroke-linejoin="bevel" d="M55.087,20.944
	c0.006,0,0.006-0.005,0.006-0.005c-0.017-0.058-0.031-0.115-0.043-0.168c-0.021-0.084-0.041-0.168-0.062-0.252
	c0-0.005,0-0.016-0.005-0.021c-0.068-0.289-0.141-0.573-0.213-0.857c-0.698-2.628-1.658-5.194-2.903-7.53
	c-1.298,4.599-4.497,8.789-8.276,12.042c0.135,0.531,0.254,1.072,0.368,1.624c0.349,1.724,0.794,3.927,1.304,6.455
	C49.189,29.183,52.759,25.299,55.087,20.944z"/>
<path fill="none" stroke="#070505" stroke-width="0.3983" stroke-linecap="round" stroke-linejoin="bevel" d="M59.998,43.404
	c0.006,0,0.006-0.005,0.006-0.005c-0.027-0.116-0.053-0.236-0.078-0.353c-0.067-0.331-0.136-0.662-0.209-0.994
	c-0.052-0.247-0.104-0.494-0.156-0.736c-0.119-0.573-0.238-1.146-0.363-1.708c-0.078-0.378-0.156-0.757-0.239-1.13
	c-0.274-1.303-0.551-2.581-0.821-3.821c-0.037-0.179-0.072-0.352-0.113-0.531c-0.073-0.347-0.146-0.688-0.219-1.03
	c0,0.005-0.004,0.005-0.004,0.011c-1.908,4.876-5.582,9.101-10,11.979c0.072,0.368,0.146,0.73,0.213,1.104
	c0.514,2.616,1.033,5.282,1.53,7.916C53.937,51.532,57.655,47.822,59.998,43.404z"/>
<path fill="none" stroke="#070505" stroke-width="0.3983" stroke-linecap="round" stroke-linejoin="bevel" d="M62.334,54.716
	c-2.753,4.475-6.282,8.348-10.592,11.158c0.606,3.338,1.12,6.303,1.492,8.625c4.437-2.643,8.368-6.016,11.01-10.055
	c-0.052-0.279-0.104-0.557-0.161-0.841c-0.068-0.347-0.13-0.699-0.203-1.052c-0.066-0.352-0.135-0.709-0.207-1.071
	c-0.031-0.179-0.068-0.356-0.104-0.541c-0.177-0.904-0.358-1.829-0.546-2.771c-0.139-0.72-0.285-1.445-0.436-2.181
	C62.505,55.567,62.423,55.14,62.334,54.716z"/>
</svg>
