<?xml version="1.0" encoding="utf-8"?>
<!-- Generator: Adobe Illustrator 15.1.0, SVG Export Plug-In . SVG Version: 6.00 Build 0)  -->
<!DOCTYPE svg PUBLIC "-//W3C//DTD SVG 1.1//EN" "http://www.w3.org/Graphics/SVG/1.1/DTD/svg11.dtd">
<svg version="1.1" id="svg_2_0" xmlns="http://www.w3.org/2000/svg" xmlns:xlink="http://www.w3.org/1999/xlink" x="0px" y="0px"
	 width="85.04px" height="85.04px" viewBox="0 0 85.04 85.04" enable-background="new 0 0 85.04 85.04" xml:space="preserve">
<path fill="#FFFFFF" stroke="#7B5B3F" stroke-width="0.7966" stroke-linecap="round" stroke-linejoin="bevel" d="M29.799,29.918
	c-0.67,7.693-7.625,8.244-9.857,1.513c-2.232-6.729-3.645-24.937,10.617-29.1c14.264-4.163,21.73,6.708,24.426,18.165
	C57.682,31.952,66.778,74.551,66.5,79.047c-0.271,4.363-11.515,8.355-12.931-1.793c-1.325-9.514-7.481-40.559-9.756-51.71
	c-2.09-10.256-7.249-17.103-13.299-10.842C26.641,18.712,30.06,26.9,29.799,29.918z"/>
<path fill="none" stroke="#7B5B3F" stroke-width="0.3983" stroke-linecap="round" stroke-linejoin="bevel" d="M40.457,16.291
	c1.601-4.54,1.683-9.552,0.301-14.287c-2.895-0.827-6.232-0.831-10.062,0.295c-0.795,0.233-1.531,0.522-2.23,0.842
	c2.615,2.687,4.365,5.985,5.391,9.62C36.358,11.923,38.626,13.395,40.457,16.291z"/>
<path fill="none" stroke="#7B5B3F" stroke-width="0.3983" stroke-linecap="round" stroke-linejoin="bevel" d="M55.09,20.937
	c-0.016-0.056-0.027-0.114-0.041-0.168c-0.709-3.02-1.764-5.994-3.186-8.659c-1.295,4.598-4.494,8.791-8.273,12.044
	c0.133,0.53,0.256,1.068,0.367,1.619c0.352,1.725,0.795,3.928,1.303,6.457C49.188,29.181,52.766,25.299,55.09,20.937z"/>
<path fill="none" stroke="#7B5B3F" stroke-width="0.3983" stroke-linecap="round" stroke-linejoin="bevel" d="M60,43.401
	c-0.756-3.605-1.506-7.108-2.197-10.307c-1.908,4.881-5.578,9.113-10.002,11.995c0.58,2.968,1.17,6.018,1.738,9.018
	C53.932,51.529,57.661,47.818,60,43.401z"/>
<path fill="none" stroke="#7B5B3F" stroke-width="0.3983" stroke-linecap="round" stroke-linejoin="bevel" d="M51.741,65.875
	c0.605,3.338,1.122,6.303,1.492,8.625c4.439-2.644,8.367-6.017,11.012-10.056c-0.572-3.017-1.223-6.315-1.908-9.729
	C59.583,59.189,56.053,63.064,51.741,65.875z"/>
	
	<g id="clickMark_2_0" class="none">
		<path fill="#FFFFFF" d="M83.975,42.521c0,22.892-18.561,41.454-41.458,41.454c-22.893,0-41.453-18.562-41.453-41.454 C1.065,19.623,19.625,1.064,42.519,1.064C65.415,1.064,83.975,19.623,83.975,42.521z" />
		<path fill="none" stroke="#000000" stroke-width="0.9447" d="M42.519,73.262c16.977,0,30.746-13.76,30.746-30.741 c0-16.98-13.769-30.74-30.746-30.74c-16.979,0-30.743,13.76-30.743,30.74C11.774,59.502,25.54,73.262,42.519,73.262z" />
		<path fill="#D7DF23" d="M42.519,73.262c16.977,0,30.746-13.76,30.746-30.741c0-16.98-13.769-30.74-30.746-30.74 c-16.979,0-30.743,13.76-30.743,30.74C11.774,59.502,25.54,73.262,42.519,73.262" />
		<path fill="none" stroke="#000000" stroke-width="0.8879" d="M42.519,73.262c16.977,0,30.746-13.76,30.746-30.741 c0-16.98-13.769-30.74-30.746-30.74c-16.979,0-30.743,13.76-30.743,30.74C11.774,59.502,25.54,73.262,42.519,73.262" />
		<path fill="#ED1C24" d="M58.706,24.476c0.098,0.837-0.395,1.623-1.477,2.36c-1.377,0.983-2.213,1.721-2.508,2.211l-8.408,14.606 l7.08,13.721c0.1,0.148,0.615,0.91,1.549,2.287c0.591,0.838,0.886,1.6,0.886,2.287c0,0.395-0.071,0.789-0.222,1.182 c-0.836,2.113-2.387,3.172-4.646,3.172c-0.937,0-1.846-0.197-2.731-0.592c-1.229-0.541-1.904-1.242-2.027-2.102 c-0.122-0.861-0.232-1.707-0.332-2.545l-3.982-9.888l-4.424,8.854c-0.295,0.982-0.64,1.953-1.033,2.914 c-0.395,0.959-1.157,1.437-2.287,1.437c-1.428,0-2.804-0.491-4.131-1.476c-1.426-1.131-2.041-2.383-1.844-3.762 c0.097-0.541,0.429-1.115,0.995-1.733c0.565-0.615,0.922-1.068,1.071-1.363l6.492-11.806l-4.577-14.306 c-0.147-0.493-0.626-1.096-1.438-1.808s-1.268-1.387-1.364-2.028c-0.148-1.13,0.539-2.139,2.065-3.024 c1.376-0.737,2.851-1.107,4.427-1.107c0.886,0,1.573,0.148,2.066,0.441c1.081,0.692,1.743,1.563,1.989,2.62 c0.245,1.059,0.468,2.104,0.664,3.135l2.212,6.934l4.869-8.706c0.442-0.934,0.924-1.891,1.438-2.876 c0.519-0.985,1.216-1.646,2.103-1.991c0.539-0.247,1.154-0.37,1.844-0.37c1.279,0,2.521,0.356,3.726,1.071 C57.954,22.938,58.606,23.689,58.706,24.476z" />
	</g>
</svg>
