<?xml version="1.0" encoding="utf-8"?>
<!-- Generator: Adobe Illustrator 15.1.0, SVG Export Plug-In . SVG Version: 6.00 Build 0)  -->
<!DOCTYPE svg PUBLIC "-//W3C//DTD SVG 1.1//EN" "http://www.w3.org/Graphics/SVG/1.1/DTD/svg11.dtd">
<svg version="1.1" id="svg_2_1" xmlns="http://www.w3.org/2000/svg" xmlns:xlink="http://www.w3.org/1999/xlink" x="0px" y="0px"
	 width="85.04px" height="85.04px" viewBox="0 0 85.04 85.04" enable-background="new 0 0 85.04 85.04" xml:space="preserve">
<path fill="#FFFFFF" stroke="#7B5B3F" stroke-width="0.7966" stroke-linecap="round" stroke-linejoin="bevel" d="M30.799,29.918
	c-0.67,7.693-7.625,8.244-9.857,1.513c-2.232-6.729-3.645-24.937,10.617-29.1c14.264-4.163,21.73,6.708,24.426,18.165
	C58.682,31.952,67.778,74.551,67.5,79.047c-0.271,4.363-11.515,8.355-12.931-1.793c-1.325-9.514-7.481-40.559-9.756-51.71
	c-2.09-10.256-7.249-17.103-13.299-10.842C27.641,18.712,31.06,26.9,30.799,29.918z"/>
<path fill="none" stroke="#7B5B3F" stroke-width="0.3983" stroke-linecap="round" stroke-linejoin="bevel" d="M41.457,16.291
	c1.601-4.54,1.683-9.552,0.301-14.287c-2.895-0.827-6.232-0.831-10.062,0.295c-0.795,0.233-1.531,0.522-2.23,0.842
	c2.615,2.687,4.365,5.985,5.391,9.62C37.358,11.923,39.626,13.395,41.457,16.291z"/>
<path fill="none" stroke="#7B5B3F" stroke-width="0.3983" stroke-linecap="round" stroke-linejoin="bevel" d="M56.09,20.937
	c-0.016-0.056-0.027-0.114-0.041-0.168c-0.709-3.02-1.764-5.994-3.186-8.659c-1.295,4.598-4.494,8.791-8.273,12.044
	c0.133,0.53,0.256,1.068,0.367,1.619c0.352,1.725,0.795,3.928,1.303,6.457C50.188,29.181,53.766,25.299,56.09,20.937z"/>
<path fill="none" stroke="#7B5B3F" stroke-width="0.3983" stroke-linecap="round" stroke-linejoin="bevel" d="M61,43.401
	c-0.756-3.605-1.506-7.108-2.197-10.307c-1.908,4.881-5.578,9.113-10.002,11.995c0.58,2.968,1.17,6.018,1.738,9.018
	C54.932,51.529,58.661,47.818,61,43.401z"/>
<path fill="none" stroke="#7B5B3F" stroke-width="0.3983" stroke-linecap="round" stroke-linejoin="bevel" d="M52.741,65.875
	c0.605,3.338,1.122,6.303,1.492,8.625c4.439-2.644,8.367-6.017,11.012-10.056c-0.572-3.017-1.223-6.315-1.908-9.729
	C60.583,59.189,57.053,63.064,52.741,65.875z"/>
</svg>
