<svg version="1.1" id="svg_2_v" valid="1" xmlns="http://www.w3.org/2000/svg" xmlns:xlink="http://www.w3.org/1999/xlink" x="0px" y="0px" width="85.04px" height="85.04px" viewBox="0 0 85.04 85.04" enable-background="new 0 0 85.04 85.04" xml:space="preserve">
	<path fill="#FFFFFF" stroke="#7B5B3F" stroke-width="0.7966" stroke-linecap="round" stroke-linejoin="bevel" d="M29.799,29.918
		c-0.67,7.693-7.625,8.244-9.857,1.513c-2.232-6.729-3.645-24.937,10.617-29.1C44.823-1.832,52.29,9.04,54.985,20.497
		C57.682,31.953,66.778,74.552,66.5,79.048c-0.271,4.363-11.515,8.355-12.931-1.793c-1.325-9.514-7.481-40.559-9.756-51.711
		c-2.09-10.256-7.249-17.103-13.299-10.842C26.641,18.712,30.06,26.9,29.799,29.918z"/>

	<path fill="#FFFFFF" toFill="#E97777" stroke="#7B5B3F" stroke-width="0.3983" stroke-linecap="round" stroke-linejoin="bevel" d="M19.327,27.705c2.604-1.384,6.475-1.552,9.393-1.651c0.256-0.06,0.525-0.099,0.803-0.113c-0.451-2.501-0.932-5.471-0.316-7.957 c-3.065-0.871-6.877-1.429-9.99-0.677C18.646,20.979,18.831,24.701,19.327,27.705z" />
	<path fill="#FFFFFF" toFill="#E97777" stroke="#7B5B3F" stroke-width="0.3983" stroke-linecap="round" stroke-linejoin="bevel" d="M40.458,16.292c1.601-4.54,1.683-9.552,0.301-14.287c-2.896-0.827-6.232-0.831-10.063,0.295c-0.795,0.233-1.531,0.522-2.23,0.842 c2.615,2.687,4.365,5.985,5.392,9.62C36.358,11.923,38.625,13.396,40.458,16.292z" />
	<path fill="#FFFFFF" toFill="#E97777" stroke="#7B5B3F" stroke-width="0.3983" stroke-linecap="round" stroke-linejoin="bevel" d="M55.09,20.938c-0.016-0.056-0.027-0.114-0.041-0.168c-0.709-3.02-1.764-5.994-3.186-8.659c-1.295,4.598-4.494,8.791-8.273,12.044 c0.133,0.53,0.256,1.068,0.367,1.619c0.352,1.725,0.795,3.928,1.303,6.457C49.188,29.182,52.766,25.299,55.09,20.938z" />
	<path fill="#FFFFFF" toFill="#E97777" stroke="#7B5B3F" stroke-width="0.3983" stroke-linecap="round" stroke-linejoin="bevel" d="M60,43.402c-0.756-3.605-1.506-7.108-2.197-10.308c-1.908,4.881-5.578,9.113-10.002,11.995c0.58,2.968,1.17,6.018,1.738,9.018 C53.932,51.53,57.661,47.819,60,43.402z" />
	<path fill="#FFFFFF" toFill="#E97777" stroke="#7B5B3F" stroke-width="0.3983" stroke-linecap="round" stroke-linejoin="bevel" d="M51.741,65.876c0.605,3.338,1.122,6.303,1.492,8.625c4.439-2.644,8.367-6.017,11.012-10.056c-0.572-3.017-1.223-6.315-1.908-9.729 C59.583,59.19,56.053,63.065,51.741,65.876z" />
</svg>
