<svg version="1.1" id="svg_6_1" repeat="2" xmlns="http://www.w3.org/2000/svg" xmlns:xlink="http://www.w3.org/1999/xlink" x="0px" y="0px" width="85.04px" height="85.04px" viewBox="0 0 85.04 85.04" enable-background="new 0 0 85.04 85.04" xml:space="preserve">
	<path fill="#FFFFFF" stroke="#000000" d="M72.515,29.381c-0.26-0.454-0.936-0.493-1.023-1.117c-1.207-0.593-2.623-0.974-4.186-1.21
	c-0.057-0.394,0.064-0.615,0.096-0.93c0.156-0.102,0.156-0.83,0-0.931c-0.049-0.137-0.139-0.231-0.189-0.373
	c-2.01,0.164-1.895,2.536-3.344,3.35c-1.059,0.59-2.361,0.496-3.818,0.931c-0.311,0.027-0.633,0.048-0.838,0.188
	c-0.707,0.28-1.486,0.392-2.51,0.357c-0.344,0.062-0.928-0.008-1.117-0.008c-0.063,0-0.125,0-0.186,0
	c-0.291,0-0.684,0.166-0.838,0.008c0.021-0.479-0.246-0.628-0.277-1.062c-1.469,0.019-2.648,0.354-4,0.492
	c-0.418,0.011-0.869,0.011-1.023,0.29c-0.107,0.017-0.264-0.011-0.275,0.101c-0.51-0.013-0.914,0.084-1.213,0.284
	c-0.109-0.017-0.264,0.015-0.279-0.093c2.406-1.563,4.254-3.683,4.652-7.256c0.154-0.189,0.096-1.02-0.061-1.21
	c-0.227-3.859-2.592-6.424-3.592-8.742c0-0.153,0-0.31,0-0.464c0-0.017,0.158-0.147,0.152-0.279
	c0.152-0.132,0.184-0.891,0.027-1.021c-0.02-0.075,0.01-0.009-0.08-0.013c0.014-0.422-0.309-1.035-0.076-1.035
	c0.031,0,0.063,0,0.094,0c0.119,0,0.178-1.043,0-1.197c-0.299-1.221-0.559-2.568-1.768-2.879c-0.221-0.211-0.834-0.077-1.211-0.135
	c-0.572-1.556-2.887-3.475-4.278-1.509c-0.598-0.552-1.174-1.132-2.417-1.034c-0.222-0.155-1.083-0.162-1.303-0.007
	c-0.859-0.106-1.329,1.093-2.139,1.3c-1.368,0.344-2.66-0.556-4-0.096c-1.36,0.471-1.792,1.771-2.418,3.254
	c-0.217,0.249-1-0.068-1.206,0.187c-0.576,0.14-0.469,0.962-0.561,1.581c-0.86,0.752-2.171,1.055-2.512,2.326
	c-0.154,0.189-0.154,1.02,0,1.21c0.076,0.542,0.321,0.917,0.466,1.396c-0.559,0.526-1.133,1.037-1.303,1.952
	c-0.154,0.132-0.154,0.893,0,1.023c0.144,0.786,0.632,1.227,0.931,1.861c-0.299,0.381-0.791,0.572-0.745,1.301
	c-0.151,0.132-0.151,0.892,0,1.022c0.141,1.016,1.236,1.063,1.859,1.58c-0.124,0.652-0.387,1.16-0.464,1.861
	c-0.154,0.159-0.154,0.957,0,1.115c0.127,0.957,0.896,1.274,1.859,1.396c0.48,1.622,3.938,4.764,5.768,2.696
	c1.119,0.838,2.662,1.244,4.187,1.675c-0.152,0.22-0.548,0.198-0.745,0.371c-0.205-0.136-0.449-0.23-0.837-0.186
	c-0.155-0.279-0.601-0.268-1.022-0.279c-1.353-0.135-2.53-0.445-4-0.465c-0.03,0.435-0.294,1.37-0.278,1.851
	c-0.154,0.154-0.545,0.826-0.836,0.826c-0.063,0-0.125,0-0.187,0c-0.19,0-0.771-0.768-1.117-0.826
	c-1.021,0.031-1.802-0.549-2.511-0.832c-0.201-0.142-0.523-0.342-0.837-0.368c-1.464-0.485-2.824-0.386-3.906-1.021
	c-1.379-0.81-1.245-3.304-3.255-3.397c-0.046,0.141-0.136,0.217-0.186,0.352c-0.155,0.101-0.155,0.818,0,0.918
	c0.046,0.326,0.14,0.602,0.093,1.02c-1.771,0.028-2.949,0.645-4.279,1.112c0.043,0.726-0.725,0.638-0.93,1.113
	c-0.098,1.12,0.45,1.597,0.745,2.326c0.174-0.021,0.205,0.36,0.372,0.352c0.221,0.153,1.081,0.255,1.301,0.255
	c0.65,0,1.303,0,1.954,0c0.125,0,0.248,0,0.373,0c0.372,0,1.543-0.014,1.767-0.35c0.633,0.014,0.846-0.525,1.396-0.597
	c1.372,0.956,2.765,1.83,4.558,2.356c0.191,0.213,0.559,0.216,0.931,0.246c0.02,0.074,0.078,0.092,0.187,0.076
	c0.454,0.32,1.278,0.269,1.958,0.364c0.096,0.154,0.826,0.151,0.926-0.003c0.108-0.017,0.264,0.014,0.279-0.096
	c0.337,0.035,0.341,0.401,0.558,0.556c0.117,0.36,0.917,0.369,1.442,0.467c1.434,0.261,3.229,0.812,4.229,1.022
	c0,0.124,0,0.246,0,0.372c-1,0.22,0,0.832,0,1.207c0,0.62,0,1.241,0,1.86c0,1.179,0,2.357,0,3.533c0,0.9,0,1.801,0,2.697
	c0,0.744-0.125,1.738,0.094,2.328c0.161,2.441,0.063,5.146,0.465,7.348c0.372,0.217,1.274,0.029,1.802,0.094
	c0.143,5.623,2.639,8.949,2.639,14.789c0,0.402,0,0.807,0,1.209c0,0.137-0.205,0.48-0.407,0.465
	c-0.072,0.271-0.593,0.688-0.593,0.93c0,0.031,0,0.063,0,0.094s0,0.063,0,0.094c-2,0.869-2.375,1.721-2.975,3.256
	c0.007,0.162,0.071,0.291-0.001,0.373c-0.155,0.1-0.108,0.828,0.048,0.93c0.111,0.291,0.208,0.619,0.301,0.93
	c0.159,0.461,0.546,0.707,1.033,0.838c2.428,0.729,4.861-0.313,6.798-0.932c0.295-0.109,0.637-0.172,0.838-0.371
	c0.025-0.074,0.08-0.111,0.189-0.094c1.039-0.328,2.09-1.139,1.582-2.695c-0.113-0.324-0.168-0.701-0.188-1.117
	c-0.238-0.242,0.08-0.396,0.279-0.465c-0.418-2.715-0.572-5.68-0.824-8.557c-0.059-0.285-0.082-0.805-0.082-0.934
	c0-0.836,0-1.674,0-2.51c0-0.436,0-0.869,0-1.305c0-0.805,0-1.609,0-2.416c0-0.07-0.096-0.768,0.174-0.838
	c1,3.178,1.311,6.465,2.229,9.674c0.568,1.988,1.311,4.123,1.299,6.602c0.313,0.592,0.061,1.738,0.279,2.422
	c0.059,0.225,0.135,0.426,0.094,0.742c0.119,0.439,0.492,0.621,0.928,0.746c2.314,0.602,4.318,1.512,6.883,1.859
	c0.102,0.154,0.828,0.154,0.932,0c0.627-0.086,1.242-0.184,1.768-0.371c0.451-0.199,0.789-0.514,0.836-1.117
	c0.076-0.633-0.188-0.926-0.279-1.395c-0.67-1.377-1.871-2.223-2.883-3.256c-0.357-1.258-1.064-2.158-1.486-3.35
	c-1.986-5.055-2.305-11.773-3.535-17.58c0.4-0.371,1.1-0.449,1.303-1.023c-1.52-6.076-3.148-11.904-5.164-17.484
	c1.967-0.271,4.629-1.009,5.629-1.21c0-0.062,0-0.123,0-0.185c1-0.16,0.188-0.724,0.51-0.468c0.162,0.155,0.891,0.155,1.049,0
	c0.678-0.097,1.465-0.05,1.92-0.371c0.068-0.02,0.162-0.004,0.166-0.093c0.373-0.032,0.73-0.065,0.924-0.28
	c1.844-0.511,3.16-1.54,4.643-2.418c0.461,0.134,0.711,1.387,1.303,1.387c0.229,0.334,1.395,1.012,1.768,1.012
	c0.188,0,0.373,0,0.559,0c0.586,0,1.176,0,1.764,0c0.221,0,1.084-0.764,1.305-0.92c0.172,0.02,0.203-0.563,0.371-0.554
	C72.066,31.437,72.613,30.5,72.515,29.381z" class="colorable" />
</svg>