<svg version="1.1" id="svg_6_5" repeat="3" xmlns="http://www.w3.org/2000/svg" xmlns:xlink="http://www.w3.org/1999/xlink" x="0px" y="0px" width="85.04px" height="85.04px" viewBox="0 0 85.04 85.04" enable-background="new 0 0 85.04 85.04" xml:space="preserve">
	<path fill="#FFFFFF" stroke="#000000" d="M65.75,57.055c-0.459-0.813-1.316-1.545-1.582-2.232c-0.416-1.104-0.367-2.701-0.557-4.094
	c-0.188-1.359-0.33-2.789-0.559-4.094c-0.309-1.768-0.869-3.297-1.111-4.93c0.426-0.096,0.645-0.406,1.02-0.557
	c-1.16-2.779-1.178-6.256-2.791-8.584c-0.076-0.252-0.568-0.121-0.186-0.121c-0.186,0-0.373,0-0.559,0
	c-0.125,0-0.18-0.568-0.371-0.531c-0.254-0.057-0.736-0.102-0.838-0.313c4.311-1.176,7.15-3.934,7.533-9.038
	c0.154-0.56,0.154-1.822,0-2.381c0-1.953-0.598-3.336-0.93-4.957c0.281-0.398,0.486-0.894,0.559-1.5
	c0.211-0.128,0.033-0.656,0.092-0.938c0.145-0.383,0.506-0.554,0.559-1.024c0.219-0.505,0.287-1.634,0.094-2.234
	c-0.082-1.221-1.199-1.404-2.045-1.862c-0.031-2.062-1.469-3.791-3.535-2.698c-0.342-1.115-1.314-1.601-2.42-1.953
	c-0.287-0.15-1.047-0.313-1.395-0.094c-0.744,0-1.146,0.342-1.676,0.559c-1.16-0.353-1.93-1.104-3.254-1.302
	c-0.102-0.155-0.83-0.155-0.93,0c-1.549,0.282-2.229,1.431-3.254,2.231c-0.398-0.068-0.592-0.341-1.121-0.278
	c-0.48,0.29-0.631,0.914-0.926,1.395C43.967,5.94,42.112,6.1,42.125,8.131c-0.154,0.1-0.154,0.827,0,0.93
	c0.014,0.229,0.018,0.449-0.092,0.559c-1.055,0.247-1.672,0.935-2.047,1.86c-0.154,0.132-0.154,0.891,0,1.021
	c-0.047,0.575,0.262,0.799,0.188,1.396c-0.838,0.476-1.684,1.395-1.396,2.604c0.168,0.702,1.078,0.86,1.303,1.489
	c-0.521,0.747-1.066,1.487-1.408,2.418c-0.152,0.102-0.01,0.828-0.01,0.929c0,0.063,0,0.125,0,0.188
	c1,0.473,0.818,0.868,1.408,1.117c0.057,0.313-0.115,0.864,0.098,1.021c0.48,1.68,2.492,4.645,4.375,3.35
	c0.83,1.031,1.92,1.802,2.979,2.605c0.064,0.25-0.438-0.066-0.371,0.186c-2.857-0.227-4.154,1.354-5.768,2.791
	c-1.236,1.104-2.469,2.094-3.628,3.068c0.155,0.342,0.279,0.713,0.466,1.023c-2.63,2.205-4.891,4.48-7.256,6.975
	c-0.787,0.83-1.538,2.016-2.418,2.418c-0.872,0.4-1.844,0.535-2.79,1.023c-1.092,0.566-2.568,1.189-2.604,2.697
	c0.011,0.27,0.64-0.08,0.65,0.188c-0.205,0.344-0.687,0.832-0.371,1.396c0.619,0.406,1.177-0.475,1.487-0.373
	c-0.244,0.455-0.692,1.047-0.465,1.674c1.125,0.193,1.412-0.945,1.954-1.021c-0.248,0.254-0.248,0.953,0,1.207
	c1.391-0.25,1.744-1.541,2.604-2.324c-0.248,1.096,0.542,2.449,1.021,1.117c0.213-0.129-0.373-0.646-0.373-0.932
	c0-0.309,0-0.619,0-0.93c0-1.654,1.702-2.447,2.884-3.441c0.865-0.729,2.04-1.352,2.744-1.859c2.27-1.637,3.98-3.203,5.605-4.65
	c0.654,0.627,1.201,0.498,1.732-0.094c0.092,0,0.143-0.074,0.217-0.092c-0.191,0.49-0.367,0.984-0.547,1.486
	c-0.156,0.461-0.289,0.943-0.455,1.396c-1.303,3.902-2.578,7.836-3.531,12.092c0.168,0.049,0.393-0.002,0.465,0.137
	c-4.5,2.996-8.783,6.672-14.694,7.672c-0.186,0-0.372,0-0.558,0c-0.253,0-0.896,0.018-1.298-0.045
	c-0.318,0.057-0.865-0.189-1.027,0.023c-0.139,0.018-0.346,0.02-0.372,0.02c-0.154,0-1.165,0-1.165,0s0,0.254,0,0.283
	c0-0.014-0.037,0.047-0.116,0.188c-0.422,0.137-0.423,0.516-0.659,0.836c-0.233,0.084-0.841,0.834-0.658,1.023
	c1.477,3.205,5.435,4.326,7.435,6.047c0,0.031,0,0.063,0,0.092c0,0.039,1.342,0.23,1.494,0c0.251-0.301,1.038-0.398,1.252-0.742
	c0.537-0.113,0.752-0.715,1.187-0.932c0.175-0.299,0.43-0.014,0.638-0.277c0.469-0.059,0.643-0.453,0.974-0.652
	c1.235-0.965,2.771-1.926,4.11-2.605c1.449-0.736,2.568-1.387,3.732-2.139c0.98-0.635,1.984-1.129,2.889-1.674
	c1.205-0.729,2.352-1.393,3.539-2.047c0.313,0.273,2.021-0.09,2.336,0.186c0.063,0.408,0.852,1.049,0.852,1.303
	c0,0.807,0,1.611,0,2.418c0,0.436,0,0.869,0,1.305c0,0.836,0,1.674,0,2.51c0,0.127-0.791,0.648-0.85,0.932
	c-0.256,2.842-0.777,5.803-1.215,8.465c0.061,0.227,0.389,0.246,0.09,0.559c-0.018,0.418-0.168,0.793-0.279,1.115
	c-0.504,1.559,0.5,2.369,1.533,2.695c0.072,0.021,0.156,0.008,0.16,0.096c0.201,0.201,0.531,0.264,0.826,0.373
	c1.938,0.617,4.359,1.656,6.787,0.93c0.486-0.133,0.857-0.377,1.018-0.84c0.094-0.311,0.162-0.641,0.275-0.93
	c0.154-0.1,0.156-0.828,0.002-0.932c-0.031-0.123,0.322-0.176,0.365-0.371c-0.604-1.537-1.715-2.383-2.715-3.256
	c0-0.029,0-0.061,0-0.092s0-0.063,0-0.094c0-0.24-0.02-0.658-0.094-0.93c-0.199,0.016,0.094-0.33,0.094-0.465
	c0-0.404,0-0.807,0-1.209c-1-5.236,1.332-8.631,1.779-13.395c0.119-1.262-0.26-2.268,0.145-3.162
	c0.615,0.025,1.076-0.361,1.076-0.373c0-0.154,0-0.311,0-0.465c1-0.367,0-1.145,0-1.768c0-0.371,0-0.744,0-1.115
	c1-1.66,1-3.713,1-5.676c0-0.094,0-0.184,0-0.279c0-0.434,0-1.271,0-1.859c0-0.031,0-0.076,0-0.076s-0.289,0-0.258,0
	c0.514,3,1.846,5.34,2.328,8.457c0.055,0.654,0.252,1.168,0.184,1.949c-0.211,1.369-1.402,1.756-1.58,3.16
	c0.598,0.682,1.533-0.025,1.859-0.469c0.441-0.246-0.023,1.115,0.279,1.307c0.064,0.805-0.016,1.75,0.742,1.855
	c0.451-0.105,0.453-0.662,0.652-1.021c0.283,0.711,0.059,1.932,0.93,2.047c0.398-0.16,0.521-0.598,0.559-1.117
	c0.252,0.064-0.066-0.438,0.186-0.373c-0.063,0.779,1.135,1.539,1.305,0.465c0.271-0.041-0.082-0.699,0.186-0.742
	c0.012,0.236,0.311,0.188,0.559,0.188C67.278,59.516,66.422,58.233,65.75,57.055z" class="colorable" />
</svg>