<svg version="1.1" id="svg_6_8" repeat="1" xmlns="http://www.w3.org/2000/svg" xmlns:xlink="http://www.w3.org/1999/xlink" x="0px" y="0px" width="85.04px" height="85.04px" viewBox="0 0 85.04 85.04" enable-background="new 0 0 85.04 85.04" xml:space="preserve">
	<path fill="#FFFFFF" stroke="#000000" d="M78.402,32.54c-0.219-0.399-0.957-0.277-1.387-0.463c0.305-0.183,0.656-0.321,0.65-0.829
	c-0.66-0.949-3.104-0.227-3.875-0.186c0.473-0.483,0.904-1.863,0-2.027c-1.107-0.202-1.619,2.197-3.139,2.766
	c-1.078,0.4-1.725,0.552-2.949,0.8c-0.285,0.061-0.797,0.522-0.924,0.522c-0.219,0-0.434,0-0.646,0c-0.313,0-0.859,0-1.016,0
	c-0.217,0-0.434,0-0.646,0c-0.307,0-0.613,0-0.922,0c-0.594,0-0.807-0.512-1.109-0.385c-0.553-0.213-1.506-0.225-2.213-0.284
	c-0.287,0.204-0.992-0.104-1.293,0.087c-0.051-0.291,0.174-0.329,0-0.506c-0.898-0.268-1.955-0.408-2.76-0.766
	c0.123-0.572-0.32-1.298-0.625-2.133c-0.15-0.411-0.074-0.88-0.074-1.303c0-0.553,0-1.106,0-1.661c0-3.607,1.256-6.348,1.551-9.961
	c0.148-0.645,0.045-1.938-0.105-2.582C56.187,6.334,52.525,1.918,45.06,1.361c-0.551-0.154-1.779-0.154-2.329,0
	C34.526,1.918,30.622,6.792,29.99,14.919c-0.151,0.313-0.649,1.257-0.496,1.569c0.205,3.452,0.98,6.099,0.98,9.5
	c0,0.708,0,1.416,0,2.12c0,1.077-0.111,1.805-0.434,2.678c-0.677,0.183-1.305,0.172-1.969,0.367
	c-0.751,0.146-1.418,0.251-2.092,0.461c-0.178,0.177,0.11,0.169,0.063,0.461c-0.306-0.192-0.978,0.02-1.268-0.183
	c-0.706,0.061-1.645,0.446-2.196,0.661c-0.17-0.104-0.667,0.566-1.089,0.566c-0.311,0-0.617,0-0.923,0c-0.219,0-0.434,0-0.645,0
	c-0.158,0-0.704,0-1.021,0c-0.215,0-0.43,0-0.646,0c-0.126,0-0.637-0.648-0.922-0.707c-1.035-0.1-2.1-0.479-3.045-0.675
	c-0.829-0.107-1.497-1.954-2.209-2.552c-1.396-1.165-1.702,0.803-0.833,1.674c-0.936-0.292-3.199-0.81-3.871,0.054
	c-0.063,0.58,0.466,0.556,0.643,0.902c-0.611,0-1.228-0.004-1.381,0.453c0.093,0.458,0.53,0.567,0.924,0.731
	c0,0.092,0.068,0.109,0.087,0.184c-0.106,0.016-0.262-0.019-0.271,0.089c-0.237,0.013-0.361,0.137-0.369,0.37
	c0.092,0.532,0.88,0.823,0.555,1.562c1.123,1.193,4.415,0.915,5.898,0.915c0.368,0,0.737,0,1.109,0c2.472,0,4.31,1.426,7.103,1.646
	c0.123,0.213,0.638,0.354,0.92,0.354c0.153,0,0.308,0,0.461,0c0.127,0,0.646,0,0.926,0c0.309,0,0.611,0,0.92,0
	c0.219,0,0.828-0.727,1.202-0.67c0.335,0.032,0.815-0.461,1.011-0.289c0.31,0.645,0.411,1.304,0.739,1.931
	c2.043-0.194,3.83-0.42,5.811-0.741c0.207,0.101,0.033,0.532,0.097,0.781c0.024,0.521-0.165,0.796-0.097,1.362
	c-0.211,0.126-0.031,0.628-0.094,0.908c-0.209,1.452-0.42,2.891-0.456,4.514c-0.217,0.158-0.04,0.701-0.094,1.012
	c-0.107,2.264-0.693,4.047-1.202,5.9c0.22,0.307,0.861,0.189,0.83,0.738c-0.009,0.791-0.135,1.465-0.184,2.215
	c-0.151,0.49-0.151,1.627,0,2.119c0.303,3.387,0.285,6.545,0.466,10.055c0.057,0.342-0.456,0.92-0.456,1.107
	c0,0.184,0,0.369,0,0.553c0,1.168,0,2.338,0,3.506c0,1.338,0.095,2.428,0.364,3.689c-0.559,1.408,0.058,3.111,0.456,4.52
	c0.434,1.137,1.357,1.922,2.634,2.213c0.917,0.17,2.001,0.416,2.924,0.094c0.753-0.23,0.291-0.75,0.455-1.568
	c0.162-0.693-0.833-1.063-0.833-1.846c0-0.707,0-1.412,0-2.121c0-0.174,3-0.143,3-0.369c0-0.215,0-0.432,0-0.646
	c0-0.77,0-1.781,0-2.398c0-0.273,0-0.553,0-0.828c0-0.738,0-1.477,0-2.215c0-0.123,0-0.244,0-0.369c0-0.953,0-1.906,0-2.857
	c0-3.568,1.057-6.154,1.952-8.947c0.342,2.18,0.785,4.178,1.029,6.457c0.064,0.432-0.98,1.102,0.02,1.383c0,0.244,0,0.492,0,0.736
	c0,1.141-1,2.523,0,3.506c0,0.031,0,0.063,0,0.094c0,0.982,0,1.967,0,2.951c0,0.215,0,0.43,0,0.646c-1,0.125,0.002,0.641-0.053,0.92
	c0.064,0.564-0.107,0.865-0.078,1.385c0.121,0.131,0.467,0.037,0.469,0.277c-0.164,0.42-0.121,1.041-0.268,1.475
	c0.148,1.189,1.648,1.607,2.584,2.121c1.051,0.58,1.936,1.318,2.951,1.387c0.4,0.027,0.752,0.104,1.111,0.182
	c0.213,0.154,1.066,0.154,1.285,0c0.512-0.104,1.082-0.148,1.57-0.275c0.594-0.111,0.979-0.438,1.014-1.107
	c0.064-0.34-0.156-0.396-0.092-0.736c-0.365-1.254-1.285-1.973-2.025-2.859c-0.016-0.016-0.082,0.014-0.094,0
	c-0.293,0.08-0.289-0.145-0.463-0.184c-0.146-1.203-0.359-2.352-0.371-3.689c-0.057-0.311-0.102-0.857-0.313-1.016
	c-0.102-0.26-0.23-0.861-0.23-1.105c0-1.139,0-2.275,0-3.412c0-0.186,0-0.371,0-0.557c0-0.188,0-0.762,0-1.104
	c0-0.125,0-0.246,0-0.371c0-0.156,0-0.701,0-1.012c0-0.125,0-0.248,0-0.371c0-0.158,0-0.703,0-1.016c0-0.152,0-0.307,0-0.461
	c0-0.221,0-0.828,0-1.199c0-0.152,0-0.309,0-0.461c0-0.461,0-1.322,0-1.938c0-1.045,0-2.09,0-3.135c0-0.4,0.574-1.041,0.367-1.293
	c-0.064-0.611,0.076-1.203,0.043-1.844c0.217,0.029,0.158-0.018,0.262-0.094c-0.67-3.568-0.672-7.291-1.672-11.251
	c0-0.031,0-0.061,0-0.093c0-0.342,0.236-0.908,0.219-1.384c0.057-0.906-0.076-1.491-0.027-2.397c2.441,0.207,4.16,0.483,6.439,0.646
	c0.326-0.626,0.475-1.476,0.777-2.12c0.201-0.17,0.695,0.517,1.033,0.484c0.377-0.058,1.004,0.486,1.219,0.486
	c0.309,0,0.619,0,0.924,0c0.281,0,0.795,0,0.922,0c0.063,0,0.125,0,0.188,0c0.309,0,0.854-0.143,1.012-0.354
	c2.9-0.173,4.762-1.646,7.287-1.646c0.367,0,0.738,0,1.105,0c1.449,2,4.627,0.461,5.813-0.639c-0.305-0.707,1.281-1.166,0.279-1.657
	c-0.055-0.188-0.441-0.114-0.186-0.366C77.871,33.271,78.376,33.098,78.402,32.54z" class="colorable" />
</svg>