<svg version="1.1" id="svg_6_9" repeat="0" xmlns="http://www.w3.org/2000/svg" xmlns:xlink="http://www.w3.org/1999/xlink" x="0px" y="0px" width="85.04px" height="85.04px" viewBox="0 0 85.04 85.04" enable-background="new 0 0 85.04 85.04" xml:space="preserve">
	<path fill="#FFFFFF" stroke="#000000" d="M66.284,13.118c-0.406-0.389-0.865,0.341-1.027,0.188c0.203-0.309,0.471-1.077,0.092-1.404
	c-0.773-0.181-0.943,0.735-1.309,0.656c0.254-0.568-0.018-0.954-0.373-1.029c-1-0.213-1.932,2.42-2.527,2.899
	c0.033-0.826-1.078-2.038-1.686-1.029c-0.154,0.131-0.061,0.899,0.096,1.029c0.08,0.421,0.379,0.839,0.379,1.216
	c0,0.405,0,0.811,0,1.217c0,2.229-2.537,4.045-3.744,5.518c0.377-2.206,1.041-4.085,1.164-6.547c0.156-0.656,0.135-1.963-0.02-2.62
	c-0.787-7.57-4.545-12.184-12.641-12.442c-0.348-0.155-1.344-0.155-1.692,0C34.667,1.323,30.727,6.278,30.081,14.52
	c-0.152,0.312,0.068,1.274,0.225,1.591c0.181,3.22,1.624,5.723,1.624,8.794c0,0.03,0,0.063,0,0.095c0,0.092,0,0.187,0,0.281
	c-4-2.543-5-5.002-7-8.421c0-0.406,0-0.812,0-1.217c0-0.377,0.395-0.795,0.471-1.216c0.155-0.13,0.249-0.898,0.097-1.029
	c0.002-0.129,0.002-0.206-0.048-0.28c-1.104-0.469-1.336,0.688-1.659,1.311c-0.72-1.091-1.109-2.495-2.518-2.899
	C20.9,11.642,20.815,12.252,21,12.651c-0.451-0.233-0.527-0.844-1.309-0.749c-0.417,0.383-0.04,1.098,0.096,1.497
	c-0.261-0.151-0.621-0.571-1.028-0.28c-0.215,0.242,0.005,0.618,0.095,0.841c-0.303-0.021-0.448,0.111-0.466,0.376
	c0.25,1.542,1.021,3.133,2.149,3.929c0.891,0.627,1.584,0.673,2.152,1.591c1.102,1.776,1.903,3.847,3.086,5.707
	c1.193,1.87,1.924,3.409,3.01,5.145c-0.3,0.729-0.855,1.205-1.855,1.966c0,0.03,0,0.062,0,0.092c1,0.694,2.006,1.352,2.701,1.966
	c0.588,0.532,1.563,0.993,2.235,1.591c0.422,0.374,1.823,1.255,1.959,1.778c0.12,0.467-0.021,1.346-0.096,1.965
	c-0.229,1.934-0.459,3.827-0.514,5.894c-0.212,0.131-0.012,0.65-0.07,0.938c-0.089,2.34-0.691,4.162-1.205,6.08
	c0.236,0.326,0.939,0.184,0.846,0.842c-0.044,0.77-0.199,1.416-0.186,2.246c-0.155,0.469-0.053,1.588,0.104,2.057
	c0.311,4.025,0.224,7.664,1.224,11.883c0,1.186,0,2.369,0,3.555c0,1.354-0.563,2.465-0.287,3.742
	c-0.455,1.201-0.34,2.359-0.146,3.742c0.406,1.871,1.521,3.01,3.53,3.273c0.704,0.039,1.193,0.141,1.858,0
	c1.036-0.213,1.717-0.912,1.912-1.965c0.04-0.68,0.131-0.861,0.131-1.59c0-0.719,0-1.436,0-2.152c0-0.174,0-0.146,0-0.373
	c0-0.219,0-0.438,0-0.656c0-0.5,0-0.996,0-1.496c0-0.283,0-0.805,0-0.934c0-0.281,0-0.563,0-0.844c0-0.748,0-1.498,0-2.246
	c0-0.125,0-0.25,0-0.375c0-0.965,0-1.932,0-2.896c0-3.598,1.478-6.244,2.387-9.076c0.303,2.318,1.088,4.35,1.322,6.736
	c0.061,0.375,0.291,0.994,0.291,1.217c0,0.467,0,0.936,0,1.402c0,0.936,0,2.119,0,2.898c0,0.029,0,0.063,0,0.094
	c0,0.998,0,1.996,0,2.994c0,0.219,0,0.438,0,0.654c0,0.131-0.072,0.652-0.127,0.936c0.074,0.57-0.141,0.877-0.111,1.402
	c0.121,0.131,0.453,0.043,0.461,0.281c-0.168,0.424-0.133,1.059-0.285,1.498c0.156,1.205,1.666,1.627,2.617,2.15
	c1.066,0.588,1.967,1.336,2.992,1.402c0.408,0.029,0.766,0.109,1.125,0.188c0.219,0.156,1.086,0.156,1.309,0
	c0.389-0.111,0.578-0.115,1.008-0.188c0.729-0.115,1.014-0.426,1.014-1.215c0-0.125,0-0.252,0-0.373
	c0-1.523-1.031-2.291-1.852-3.277c-0.018-0.014,0.068,0.016,0.053,0c-0.297,0.082-0.215-0.146-0.395-0.188
	c-0.146-1.223-0.529-2.381-0.543-3.74c-0.061-0.314-0.266-0.869-0.266-1.029c0-0.063,0-0.125,0-0.188c0-1.311,0-2.621,0-3.93
	c0-2.523,0.514-4.746,0.582-7.203c0.215-0.189,0.139-0.777,0.199-1.123c0.006-2.473,0.1-4.975-0.229-7.109
	c0.217,0.029-0.543-0.016-0.436-0.094c-0.463-2.971-2.117-5.734-2.117-9.074c0-0.779,0-1.561,0-2.34c0-0.592,0-1.185,0-1.776
	c0-0.221,0-0.437,0-0.654c2-0.103,0.959-0.588,1.023-0.844c0.211-0.189,0.494-0.777,0.555-1.121
	c0.004-0.351,0.139-0.592,0.047-0.842c1.053-0.755,1.633-1.736,2.654-2.527c0.693-0.614,0.721-1.271,1.721-1.966
	c0-0.029,0-0.062,0-0.092c0-0.595-0.246-0.955-0.48-1.496c0.4-0.006,0.863-0.126,1.211-0.189c-0.174-0.418-0.342-0.755-0.566-1.12
	c1.018-1.622,2.363-3.045,3.414-4.772c1.061-1.744,1.775-3.706,2.826-5.33c0.563-0.874,1.406-0.967,2.164-1.498
	c1.145-0.806,1.943-2.416,2.154-4.023C66.083,13.958,66.424,13.697,66.284,13.118z" class="colorable" />
</svg>