<svg version="1.1" id="svg_7_0" repeat="0" xmlns="http://www.w3.org/2000/svg" xmlns:xlink="http://www.w3.org/1999/xlink" x="0px" y="0px" width="85.04px" height="85.04px" viewBox="0 0 85.04 85.04" enable-background="new 0 0 85.04 85.04" xml:space="preserve">

<path class="colorable" fill="#BF7C73" stroke="#573216" stroke-width="0.6546" stroke-linecap="round" stroke-linejoin="round" d="
	M24.646,39.87c0.182-0.223,16.558-3.065,19.274-10.944c0,0,1.66,5.567,17.697,7.775c0,0,3.17,5.186,3.266,9.602
	c0.096,4.418,0.191,11.14-3.168,14.406c0,0,7.779,1.632,14.596-5.668c6.817-7.297,6.53-10.082,4.418-12.674
	c-2.111-2.594-8.441-5.738-9.019-7.753c-0.576-2.018-6.472-14.998-9.804-17.695c-2.627-2.125-13.254-8.163-34.667-2.305
	c0,0-11.101,4.796-14.598,16.614c-4.122,13.927-3.9,12.835-3.9,12.835c-1.825,1.535-8.874,7.232-4.168,11.555
	c4.706,4.321,7.778,8.451,19.495,5.666C24.07,61.284,19.076,46.686,24.646,39.87z" class="none"/>

<path fill="#ECC3B2" d="M16.877,41.852c0.562,1.833,0.566,2.74,0.566,2.74c-1.513,0.662-3.151,2.958-1.605,6.426
	c1.709,3.84,5.197,3.968,5.197,3.968c4.75,13.313,16.444,15.785,25.14,15.123c8.694-0.661,15.721-7.796,17.771-14.797
	c1.868-6.385,0.471-11.665-0.947-14.689c-0.773-1.654-1.381-3.223-1.771-4.306c-0.321-0.897-0.497-1.459-0.497-1.459l0.205,1.653
	c0,0-7.302-1.135-9.429-2.339c-2.126-1.206-6.593-0.922-7.585-5.247c-0.992-4.324,0.639,0.922-2.127,2.978
	c-2.765,2.056-3.119,5.033-18.289,8.223s0,0,0,0s-1.488,4.251-1.913,4.606c-0.426,0.354-2.839-0.849-4.148-0.142
	c0,0,3.27-1.68,5.009,2.363"/>
<path fill="none" stroke="#97665C" stroke-width="0.8183" stroke-linecap="round" stroke-linejoin="round" d="M50.206,51.497
	c0.195,1.844-0.521,3.377-2.113,3.994c-2.93,1.135-5.448-1.064-5.165-2.955"/>
<path fill="#573216" d="M37.473,44.179c0-1.313-1.066-2.38-2.38-2.38c-1.315,0-2.381,1.066-2.381,2.38s1.065,2.38,2.381,2.38
	C36.407,46.558,37.473,45.493,37.473,44.179"/>
<path fill="#FFFFFF" d="M37.058,43.384c0,0.575-0.467,1.042-1.042,1.042c-0.575,0-1.042-0.467-1.042-1.042s0.467-1.041,1.042-1.041
	C36.591,42.343,37.058,42.809,37.058,43.384"/>
<path fill="#FFFFFF" d="M34.256,45.446c0,0.221-0.18,0.4-0.401,0.4c-0.221,0-0.4-0.18-0.4-0.4c0-0.222,0.18-0.4,0.4-0.4
	C34.076,45.043,34.256,45.224,34.256,45.446"/>
<path fill="#573216" d="M57.513,41.711c0-1.288-1.044-2.333-2.332-2.333c-1.29,0-2.334,1.045-2.334,2.333
	c0,1.287,1.044,2.334,2.334,2.334C56.47,44.045,57.513,42.999,57.513,41.711"/>
<path fill="#FFFFFF" d="M57.105,40.933c0,0.564-0.456,1.021-1.021,1.021c-0.565,0-1.021-0.457-1.021-1.021
	c0-0.563,0.457-1.021,1.021-1.021S57.105,40.37,57.105,40.933"/>
<path fill="none" stroke="#573216" stroke-width="0.6546" stroke-linecap="round" stroke-linejoin="round" d="M24.6,61.262
	c-5.662,1.547-11.567,1.467-16.558-2.063c-2.571-1.816-4.946-4.146-4.79-7.565"/>
<path fill="none" stroke="#573216" stroke-width="0.6546" stroke-linecap="round" stroke-linejoin="round" d="M67.183,37.426
	c-2.423,0.028-4.911-0.579-7.28-1.008c-2.882-0.522-5.85-1.199-8.621-2.135c-2.006-0.676-7.181-2.418-7.006-5.395"/>


<path class="colorable" fill="#BF7C73" stroke="#573216" stroke-width="0.6546" stroke-linecap="round" stroke-linejoin="round" d="
	M24.646,39.87c0.182-0.223,16.558-3.065,19.274-10.944c0,0,1.66,5.567,17.697,7.775c0,0,3.17,5.186,3.266,9.602
	c0.096,4.418,0.191,11.14-3.168,14.406c0,0,7.779,1.632,14.596-5.668c6.817-7.297,6.53-10.082,4.418-12.674
	c-2.111-2.594-8.441-5.738-9.019-7.753c-0.576-2.018-6.472-14.998-9.804-17.695c-2.627-2.125-13.254-8.163-34.667-2.305
	c0,0-11.101,4.796-14.598,16.614c-4.122,13.927-3.9,12.835-3.9,12.835c-1.825,1.535-8.874,7.232-4.168,11.555
	c4.706,4.321,7.778,8.451,19.495,5.666C24.07,61.284,19.076,46.686,24.646,39.87z"/>
	
<path fill="none" stroke="#754423" stroke-width="0.6546" stroke-linecap="round" stroke-linejoin="round" d="M29.254,41.956
	c0,0,1.119-3.382,4.891-4.233"/>
<path fill="none" stroke="#754423" stroke-width="0.6546" stroke-linecap="round" stroke-linejoin="round" d="M53.567,35.299
	c0,0,3.53-0.489,5.959,2.521"/>
<path fill="#FFFFFF" stroke="#97665C" stroke-width="0.8183" stroke-linecap="round" stroke-linejoin="round" d="M48.225,59.431
	c-0.163,0.054-13.739,5.864-5.593,6.408c8.146,0.542,4.562-4.183,4.562-4.183L48.225,59.431z"/>
	
	
</svg>