<svg version="1.1" id="svg_7_11" repeat="3" xmlns="http://www.w3.org/2000/svg" xmlns:xlink="http://www.w3.org/1999/xlink" x="0px" y="0px" width="85.04px" height="85.04px" viewBox="0 0 85.04 85.04" enable-background="new 0 0 85.04 85.04" xml:space="preserve">

	<path class="colorable" fill="#94441C" stroke="#7A4A39" stroke-width="0.5" stroke-linecap="round" stroke-linejoin="round" d="
	M20.715,80.084c0,0,1.521-7.171-1.193-11.48c-2.715-4.312-7.398-5.696-10.406-16.287S8.08,36.45,8.08,36.45l-0.911,3.268
	c0,0,0.787-22.405,16.52-31.847c15.733-9.442,29.933-2.931,33.104-0.804c3.171,2.127,4.072,6.386,4.072,6.386
	s7.86-0.722,10.566,9.704s2.847,17.487,2.84,22.662c-0.008,5.176-0.016,10.508,1.795,13.381c1.81,2.873,1.807,5.068,1.807,5.068
	s-13.312,7.157-13.311,6.687c0-0.471-24.95,7.305-26.008,7.118C37.496,77.885,20.715,80.084,20.715,80.084z"/>

	<path fill="#FAD7E6" stroke="#D93172" stroke-width="0.5" stroke-linecap="round" stroke-linejoin="round" d="M38.604,66.062
	c0,0-4.642,1.478-6.751,5.275c-2.11,3.798-2.321,10.021,5.063,10.76c7.385,0.738,13.926-7.49,13.926-7.49s9.389,4.114,13.819,1.794
	c4.432-2.32,0.423-8.545-1.898-9.706c-2.321-1.159-5.907-2.216-5.907-2.216L38.604,66.062z"/>
<path fill="#F9B28A" stroke="#C47046" stroke-width="0.5" stroke-linecap="round" stroke-linejoin="round" d="M41.769,67.118
	c0,0,7.279,7.911,9.073,7.489c1.793-0.422,4.747-10.444,4.747-10.444L41.769,67.118z"/>
<path fill="#F9B28A" stroke="#C47046" stroke-width="0.5" stroke-linecap="round" stroke-linejoin="round" d="M65.401,27.557
	c-2.667-5.714-4.589-9.812-4.589-9.812s-4.906,5.38-15.034,9.812c-10.127,4.431-17.09,4.747-17.09,4.747s-5.064,10.128-1.583,21.521
	s9.284,13.081,9.284,13.081s9.23,3.534,18.093,0.053c8.861-3.481,14.242-6.488,16.299-16.299
	C72.838,40.849,68.724,34.678,65.401,27.557z"/>
<path fill="none" stroke="#7A4A39" stroke-width="0.5" stroke-linecap="round" stroke-linejoin="round" d="M72.522,53.192
	c0,0-0.634-0.735-0.634-6.329c0-6.33-3.164-12.343-3.164-12.343c-1.024-2.329-2.218-4.593-3.323-6.962
	c-2.667-5.714-4.589-9.812-4.589-9.812s-4.906,5.38-15.034,9.812c-10.127,4.431-17.09,4.747-17.09,4.747s-5.064,10.128-1.583,21.521
	c1.007,3.293,2.207,5.775,3.405,7.64c0,0,1.639,2.458,2.982,4.453"/>
<path fill="#C47046" d="M54.746,43.458c0,0,4.32-3.088,5.982-1.103c1.661,1.985-0.333,4.191-0.333,4.191s0.664-2.317-0.665-3.42
	C58.401,42.025,54.746,43.458,54.746,43.458z"/>
<ellipse transform="matrix(0.9675 -0.2527 0.2527 0.9675 -9.2445 12.4579)" fill="#38322F" cx="43.879" cy="42.22" rx="1.198" ry="2.357"/>
<ellipse transform="matrix(0.9676 -0.2524 0.2524 0.9676 -7.2199 16.7554)" fill="#38322F" cx="61.708" cy="36.523" rx="1.097" ry="2.329"/>
<path fill="#94441C" d="M38.183,38.422c0,0,0.961-2.842,2.953-4.958c1.993-2.115,3.798-2.004,3.798-2.004v-1.265
	c0,0-2.324-0.235-4.428,2.35C38.404,35.131,38.183,38.422,38.183,38.422z"/>
<path fill="#94441C" d="M63.934,28.405c0,0-2.341-1.388-4.896-1.539c-2.554-0.151-3.635,1.178-3.635,1.178l-0.77-0.915
	c0,0,1.335-1.777,4.246-1.363C61.791,26.18,63.934,28.405,63.934,28.405z"/>
<g>
	<path fill="#4CC3F0" stroke="#0080BA" stroke-width="0.5" stroke-linecap="round" stroke-linejoin="round" d="M16.186,30.563
		c-0.633,1.741,5.697,7.438,7.279,3.798C24.568,31.827,16.82,28.823,16.186,30.563z M22.025,33.738
		c-0.95,2.186-4.753-1.236-4.373-2.282C18.033,30.41,22.687,32.215,22.025,33.738z"/>
</g>
<circle fill="#FFFFFF" cx="43.83" cy="41.579" r="0.671"/>
<circle fill="#FFFFFF" cx="61.857" cy="35.716" r="0.671"/>
<path fill="#EF504B" d="M56.644,54.17c-3.379,1.178-6.231,1.438-7.587,1.488c0.45,1.106,1.465,3.206,3.051,4.338
	c2.143,1.53,6.993,1.469,9.457-2.688C60.209,55.839,58.464,54.897,56.644,54.17z"/>
<path fill="#A24238" d="M64.032,49.634c-1.192,1.202-3.322,2.972-6.463,4.196c-0.313,0.122-0.619,0.233-0.925,0.34
	c1.82,0.727,3.565,1.669,4.921,3.138c0.082-0.142,0.171-0.273,0.249-0.424C63.315,53.981,63.844,51.251,64.032,49.634z"/>
<path fill="#FFFFFF" d="M57.805,51.61c-5.381,2.058-9.021,3.323-9.021,3.323s0.093,0.287,0.272,0.726
	c1.478-0.056,4.733-0.354,8.512-1.828c3.141-1.225,5.271-2.994,6.463-4.196c0.109-0.939,0.103-1.506,0.103-1.506
	S63.185,49.552,57.805,51.61z"/>
	
	
</svg>