<svg version="1.1" id="svg_7_14" repeat="2" xmlns="http://www.w3.org/2000/svg" xmlns:xlink="http://www.w3.org/1999/xlink" x="0px" y="0px" width="85.04px" height="85.04px" viewBox="0 0 85.04 85.04" enable-background="new 0 0 85.04 85.04" xml:space="preserve">

<path class="colorable" fill="#BF7C73" stroke="#583012" stroke-width="0.5" stroke-linecap="round" stroke-linejoin="round" d="
	M24.202,41.191c0.186-0.229,16.968-3.142,19.753-11.215c0,0,1.701,5.704,18.136,7.968c0,0,3.247,5.315,3.345,9.842
	c0.1,4.526,0.199,11.416-3.246,14.763c0,0,7.972,1.673,14.959-5.808c6.987-7.479,6.691-10.332,4.527-12.989
	c-2.166-2.659-8.651-5.88-9.242-7.948c-0.592-2.066-6.633-15.369-10.048-18.133c-2.689-2.178-13.581-8.366-35.527-2.362
	c0,0-11.376,4.916-14.959,17.025C7.676,46.608,7.904,45.489,7.904,45.489c-1.87,1.575-9.093,7.415-4.271,11.843
	c4.822,4.429,7.971,8.66,19.978,5.807C23.611,63.138,18.494,48.178,24.202,41.191z" class="none"/>

	<path fill="#EDC3B2" d="M61.277,38.163c0,0,1.453-1.743,3.196,0s1.26,5.715-0.582,7.07C62.052,46.589,61.277,38.163,61.277,38.163"
	/>
<path fill="none" stroke="#96655B" stroke-width="0.5" stroke-linecap="round" stroke-linejoin="round" d="M61.277,38.163
	c0,0,1.453-1.743,3.196,0s1.26,5.715-0.582,7.07C62.052,46.589,61.277,38.163,61.277,38.163z"/>
<path fill="#EDC3B2" d="M16.239,43.223c0.577,1.877,0.581,2.809,0.581,2.809c-1.55,0.678-3.229,3.032-1.646,6.586
	c1.752,3.937,5.327,4.067,5.327,4.067c4.869,13.643,16.853,16.176,25.765,15.498c8.911-0.68,16.11-7.99,18.21-15.166
	c1.915-6.541,0.482-11.954-0.97-15.054c-1.453-3.099-2.326-5.908-2.326-5.908"/>
<path fill="none" stroke="#96655B" stroke-width="0.5" stroke-linecap="round" stroke-linejoin="round" d="M16.239,43.223
	c0.577,1.877,0.581,2.809,0.581,2.809c-1.55,0.678-3.229,3.032-1.646,6.586c1.752,3.937,5.327,4.067,5.327,4.067
	c4.869,13.643,16.853,16.176,25.765,15.498c8.911-0.68,16.11-7.99,18.21-15.166c1.915-6.541,0.482-11.954-0.97-15.054
	c-0.796-1.695-1.416-3.303-1.816-4.413c-0.329-0.919-0.51-1.495-0.51-1.495l0.21,1.694c0,0-7.481-1.162-9.662-2.397
	c-2.179-1.234-6.755-0.944-7.771-5.375c-1.018-4.431,0.653,0.944-2.18,3.051c-2.834,2.107-3.197,5.158-18.743,8.427
	c-15.546,3.269,0,0,0,0s-1.526,4.359-1.962,4.722s-2.909-0.871-4.251-0.146c0,0,3.352-1.722,5.134,2.422"/>
<path fill="none" stroke="#96655B" stroke-width="0.5" stroke-linecap="round" stroke-linejoin="round" d="M19.726,52.521
	c0,0-1.259-1.356,0.484-2.325c0,0-0.193-1.839-1.549-1.646c-1.537,0.219-1.365,1.514-1.365,1.514"/>
<path fill="none" stroke="#96655B" stroke-width="0.5" stroke-linecap="round" stroke-linejoin="round" d="M50.395,53.108
	c0.2,1.889-0.533,3.461-2.166,4.095c-3.002,1.162-5.583-1.091-5.293-3.029"/>
<path fill="none" stroke="#744323" stroke-width="0.5" stroke-linecap="round" stroke-linejoin="round" d="M57.765,38.532"/>
<path fill="none" stroke="#744323" stroke-width="0.5" stroke-linecap="round" stroke-linejoin="round" d="M58.685,39.054"/>
<g>
	<g>
		<defs>
			<polyline id="SVGID_1_" points="31.831,32.259 31.831,42.081 61.921,42.081 			"/>
		</defs>
		<clipPath id="SVGID_2_">
			<use xlink:href="#SVGID_1_"  overflow="visible"/>
		</clipPath>
		<path clip-path="url(#SVGID_2_)" fill="#D6DDE1" d="M31.831,33.858"/>
	</g>
</g>
<path fill="#815326" d="M32.614,33.737"/>
<path fill="none" stroke="#583012" stroke-width="0.5" stroke-linecap="round" stroke-linejoin="round" d="M29.121,35.183"/>
<path fill="none" stroke="#583012" stroke-width="0.5" stroke-linecap="round" stroke-linejoin="round" d="M21.759,47.678"/>
<path fill="none" stroke="#583012" stroke-width="0.5" stroke-linecap="round" stroke-linejoin="round" d="M32.511,34.021"/>
<path fill="none" stroke="#583012" stroke-width="0.5" stroke-linecap="round" stroke-linejoin="round" d="M24.005,62.548
	c0,0-3.269-3.655-3.504-5.863c-0.236-2.207-0.266-9.17,0.291-10.363c0,0,1.84-1.84,1.938-5.327"/>
<path fill="none" stroke="#583012" stroke-width="0.5" stroke-linecap="round" stroke-linejoin="round" d="M16.955,45.883
	c0,0-0.553-1.104-0.715-2.952"/>
<path fill="#583012" d="M36.876,46.514c0-1.588-1.287-2.876-2.875-2.876c-1.589,0-2.875,1.288-2.875,2.876
	c0,1.587,1.286,2.875,2.875,2.875C35.59,49.389,36.876,48.101,36.876,46.514"/>
<path fill="#FFFFFF" d="M36.375,45.554c0,0.695-0.562,1.258-1.258,1.258c-0.695,0-1.258-0.563-1.258-1.258
	c0-0.694,0.563-1.258,1.258-1.258C35.813,44.296,36.375,44.86,36.375,45.554"/>
<path fill="#FFFFFF" d="M32.99,48.043c0,0.269-0.217,0.484-0.484,0.484s-0.483-0.216-0.483-0.484c0-0.267,0.216-0.483,0.483-0.483
	S32.99,47.777,32.99,48.043"/>
<path fill="#583012" d="M57.727,43.533c0-1.555-1.261-2.818-2.816-2.818c-1.558,0-2.819,1.263-2.819,2.818
	c0,1.558,1.262,2.819,2.819,2.819C56.466,46.352,57.727,45.09,57.727,43.533"/>
<path fill="#FFFFFF" d="M57.235,42.593c0,0.681-0.552,1.233-1.232,1.233c-0.682,0-1.232-0.552-1.232-1.233
	c0-0.681,0.551-1.234,1.232-1.234C56.683,41.359,57.235,41.912,57.235,42.593"/>
<path fill="#FFFFFF" d="M53.918,45.033c0,0.262-0.213,0.475-0.475,0.475c-0.263,0-0.475-0.213-0.475-0.475s0.212-0.474,0.475-0.474
	C53.706,44.559,53.918,44.771,53.918,45.033"/>
<path fill="#EDC3B2" d="M61.179,36.055l-5.892-1.43L49.403,33.1l-5.447-3.124l-2.253,2.688c0,0-2.397,3.632-5.74,4.867
	c-3.341,1.235-12.566,3.778-12.566,3.778s-0.509,0.29-0.509,0.727c0,0.436-1.162,3.922-1.526,4.212
	c-0.363,0.291,3.197-2.47,3.197-2.47s11.045-3.874,13.806-0.46c2.76,3.414,6.97-1.865,6.97-1.865l6.03-2.034l4.141-1.017
	c0,0,1.671-1.09,3.196-0.363c1.525,0.726,3.415,1.743,3.415,1.743L61.179,36.055z"/>
<path fill="none" stroke="#583012" stroke-width="0.5" stroke-linecap="round" stroke-linejoin="round" d="M12.223,30.639"/>
<path fill="none" stroke="#583012" stroke-width="0.5" stroke-linecap="round" stroke-linejoin="round" d="M24.155,63.116
	C18.353,64.7,12.3,64.619,7.186,61.002c-2.634-1.864-5.068-4.249-4.908-7.755"/>
<path fill="none" stroke="#583012" stroke-width="0.5" stroke-linecap="round" stroke-linejoin="round" d="M67.795,38.686
	c-2.484,0.03-5.034-0.594-7.464-1.033c-2.951-0.534-5.992-1.228-8.835-2.188c-2.053-0.694-7.357-2.479-7.178-5.528"/>
<path fill="none" stroke="#583012" stroke-width="0.5" stroke-linecap="round" stroke-linejoin="round" d="M44.1,30.34
	c-2.761,4.721-9.067,7.859-12.377,8.921c-2.86,0.918-5.804,1.38-8.69,2.193"/>


<path class="colorable" fill="#BF7C73" stroke="#583012" stroke-width="0.5" stroke-linecap="round" stroke-linejoin="round" d="
	M24.202,41.191c0.186-0.229,16.968-3.142,19.753-11.215c0,0,1.701,5.704,18.136,7.968c0,0,3.247,5.315,3.345,9.842
	c0.1,4.526,0.199,11.416-3.246,14.763c0,0,7.972,1.673,14.959-5.808c6.987-7.479,6.691-10.332,4.527-12.989
	c-2.166-2.659-8.651-5.88-9.242-7.948c-0.592-2.066-6.633-15.369-10.048-18.133c-2.689-2.178-13.581-8.366-35.527-2.362
	c0,0-11.376,4.916-14.959,17.025C7.676,46.608,7.904,45.489,7.904,45.489c-1.87,1.575-9.093,7.415-4.271,11.843
	c4.822,4.429,7.971,8.66,19.978,5.807C23.611,63.138,18.494,48.178,24.202,41.191z"/>
	
	<path fill="none" stroke="#744323" stroke-width="0.5" stroke-linecap="round" stroke-linejoin="round" d="M33.38,35.763
	c0,0-0.368,3.633-3.952,5.323"/>
<path fill="none" stroke="#744323" stroke-width="0.5" stroke-linecap="round" stroke-linejoin="round" d="M59.682,39.621
	c0,0-3.646-0.209-5.492-3.715"/>
<path fill="#FFFFFF" stroke="#96655B" stroke-width="0.5" stroke-linecap="round" stroke-linejoin="round" d="M48.451,63.112
	c0,0-3.501-5.666-8.501-0.499c-5,5.166,1.083,8.417,6.917,5.833l0.5-4.917L48.451,63.112z"/>
	
	
</svg>