<svg version="1.1" id="svg_7_8" repeat="1" xmlns="http://www.w3.org/2000/svg" xmlns:xlink="http://www.w3.org/1999/xlink" x="0px" y="0px" width="85.04px" height="85.04px" viewBox="0 0 85.04 85.04" enable-background="new 0 0 85.04 85.04" xml:space="preserve">

<path class="colorable" fill="#BF7C73" stroke="#573216" stroke-width="0.6546" stroke-linecap="round" stroke-linejoin="round" d="
	M24.646,39.871c0.182-0.223,16.558-3.065,19.274-10.944c0,0,1.659,5.566,17.696,7.775c0,0,3.17,5.186,3.266,9.602
	c0.096,4.418,0.191,11.14-3.168,14.406c0,0,7.779,1.632,14.596-5.668c6.817-7.297,6.53-10.082,4.418-12.674
	c-2.111-2.594-8.441-5.738-9.02-7.754c-0.575-2.018-6.471-14.998-9.803-17.695c-2.627-2.125-13.254-8.163-34.667-2.305
	c0,0-11.101,4.796-14.598,16.615c-4.122,13.927-3.9,12.835-3.9,12.835C6.918,45.6-0.131,51.298,4.575,55.619
	c4.706,4.321,7.778,8.451,19.495,5.666C24.07,61.285,19.076,46.687,24.646,39.871z" class="none"/>

<path fill="#ECC3B2" d="M16.877,41.852c0.562,1.833,0.566,2.74,0.566,2.74c-1.513,0.661-3.151,2.958-1.605,6.427
	c1.709,3.84,5.197,3.968,5.197,3.968c4.75,13.313,16.444,15.785,25.139,15.123c8.694-0.661,15.721-7.796,17.771-14.797
	c1.868-6.385,0.471-11.665-0.947-14.689c-0.774-1.654-1.381-3.223-1.771-4.305c-0.321-0.897-0.497-1.46-0.497-1.46l0.205,1.653
	c0,0-7.302-1.135-9.429-2.34c-2.126-1.205-6.591-0.922-7.584-5.246c-0.992-4.324,0.638,0.922-2.127,2.978
	c-2.765,2.056-3.119,5.032-18.289,8.224c-15.17,3.189,0,0,0,0s-1.488,4.252-1.913,4.605c-0.426,0.354-2.839-0.849-4.148-0.141
	c0,0,3.27-1.681,5.009,2.362"/>
<path fill="none" stroke="#573216" stroke-width="0.6546" stroke-linecap="round" stroke-linejoin="round" d="M24.6,61.263
	c-5.662,1.547-11.567,1.467-16.558-2.063c-2.571-1.817-4.946-4.146-4.79-7.566"/>


<path class="colorable" fill="#BF7C73" stroke="#573216" stroke-width="0.6546" stroke-linecap="round" stroke-linejoin="round" d="
	M24.646,39.871c0.182-0.223,16.558-3.065,19.274-10.944c0,0,1.659,5.566,17.696,7.775c0,0,3.17,5.186,3.266,9.602
	c0.096,4.418,0.191,11.14-3.168,14.406c0,0,7.779,1.632,14.596-5.668c6.817-7.297,6.53-10.082,4.418-12.674
	c-2.111-2.594-8.441-5.738-9.02-7.754c-0.575-2.018-6.471-14.998-9.803-17.695c-2.627-2.125-13.254-8.163-34.667-2.305
	c0,0-11.101,4.796-14.598,16.615c-4.122,13.927-3.9,12.835-3.9,12.835C6.918,45.6-0.131,51.298,4.575,55.619
	c4.706,4.321,7.778,8.451,19.495,5.666C24.07,61.285,19.076,46.687,24.646,39.871z"/>
	
	

	<path fill="none" stroke="#97665C" stroke-width="0.8183" stroke-linecap="round" stroke-linejoin="round" d="M50.541,51.072
	c0.195,1.842-0.521,3.377-2.114,3.993c-2.931,1.136-5.449-1.063-5.166-2.955"/>
<path fill="#573216" d="M37.806,43.753c0-1.313-1.065-2.381-2.38-2.381c-1.316,0-2.381,1.067-2.381,2.381
	c0,1.313,1.064,2.381,2.381,2.381C36.741,46.134,37.806,45.067,37.806,43.753"/>
<path fill="#FFFFFF" d="M37.389,42.958c0,0.574-0.465,1.041-1.04,1.041c-0.575,0-1.042-0.467-1.042-1.041
	c0-0.575,0.467-1.041,1.042-1.041C36.924,41.917,37.389,42.383,37.389,42.958"/>
<path fill="#FFFFFF" d="M34.589,45.018c0,0.224-0.18,0.401-0.4,0.401c-0.223,0-0.4-0.18-0.4-0.401s0.178-0.397,0.4-0.397
	C34.409,44.621,34.589,44.798,34.589,45.018"/>
<path fill="#573216" d="M57.849,41.286c0-1.288-1.044-2.333-2.332-2.333c-1.29,0-2.334,1.045-2.334,2.333
	c0,1.288,1.044,2.333,2.334,2.333C56.805,43.619,57.849,42.574,57.849,41.286"/>
<path fill="#FFFFFF" d="M57.443,40.509c0,0.562-0.457,1.019-1.021,1.019c-0.563,0-1.021-0.456-1.021-1.019
	c0-0.564,0.457-1.022,1.021-1.022C56.986,39.486,57.443,39.944,57.443,40.509"/>
<path fill="#FFFFFF" d="M54.695,42.526c0,0.218-0.176,0.396-0.394,0.396s-0.392-0.178-0.392-0.396c0-0.217,0.174-0.391,0.392-0.391
	C54.519,42.136,54.695,42.309,54.695,42.526"/>
<path fill="none" stroke="#754423" stroke-width="0.6546" stroke-linecap="round" stroke-linejoin="round" d="M40.958,40.515
	c0,0-3.508,0.619-6.049-2.297"/>
<path fill="none" stroke="#754423" stroke-width="0.6546" stroke-linecap="round" stroke-linejoin="round" d="M55.908,34.456
	c0,0-0.879,3.454-4.58,4.574"/>
<path fill="none" stroke="#97665C" stroke-width="0.8183" stroke-linecap="round" stroke-linejoin="round" d="M48.859,62.61
	c0,0-5.916-1.458-9.483,1.378"/>
	
	
</svg>