<svg version="1.1" id="toplvl_2" xmlns="http://www.w3.org/2000/svg" xmlns:xlink="http://www.w3.org/1999/xlink" x="0px" y="0px" width="100%" height="100%" viewBox="0 0 80 135" xml:space="preserve">

<circle fill="#FFF200" stroke="#000000" stroke-width="4" stroke-miterlimit="10" cx="40.334" cy="38.987" r="32.999" />
<path class="number" fill="#000000" d="M31.298,113.27c0.54,0,3.309,4.549,8.303,4.549c2.025,0,2.7-1.428,2.7-2.114c0-2.435-2.97-3.438-6.615-3.438 c-0.675-0.529,0-7.35,0-7.35c3.105,0,6.75,0.053,6.75-3.174c0-1.639-1.483-2.59-3.308-2.59c-3.646,0-6.616,3.33-6.616,3.33 s-6.817-4.601-6.548-5.869c0.271-1.217,5.063-7.141,14.041-7.141c9.045,0,15.864,3.913,15.864,11.422 c0,4.602-4.996,6.875-4.996,6.875s5.67,2.537,5.67,7.932c0,7.615-7.831,12.057-16.066,12.057c-12.622,0-16.809-8.145-16.809-8.145 S30.758,113.27,31.298,113.27z" />
<path id="topok_2" class="none" fill="#3E55A5" stroke="#00AEEF" stroke-miterlimit="10" d="M51.36,20.219c-6.543,9.373-12.78,18.937-18.283,28.943 c-1.663-2.584-3.477-5.069-5.468-7.457c-3.477-4.17-9.392,1.811-5.946,5.945c3.152,3.78,5.695,7.945,7.934,12.32 c1.398,2.731,5.869,2.752,7.261,0c6.276-12.428,13.801-24.104,21.763-35.509C61.733,20.005,54.439,15.807,51.36,20.219z" />

</svg>