<svg version="1.1" id="toplvl_3" xmlns="http://www.w3.org/2000/svg" xmlns:xlink="http://www.w3.org/1999/xlink" x="0px" y="0px" width="100%" height="100%" viewBox="0 0 80 135" xml:space="preserve">

<circle fill="#F7941E" stroke="#000000" stroke-width="4" stroke-miterlimit="10" cx="40.334" cy="38.987" r="32.999" />
<path class="number" fill="#000000" d="M32.739,119.822l6.008-0.158l0.337-8.303c0,0-15.054-0.688-15.121-0.688c-0.066,0,0.337-20.887,0.405-20.992l10.396-0.266 l-0.067,12.957h4.521l0.54-8.619c0,0,10.938,0.211,11.071,0.264s0.202,8.832,0.202,8.832s5.266-0.055,5.266,0.104v8.145 c0,0.105-5.736,0.158-5.806,0.158s-0.136,8.566-0.136,8.674c0,0.104,4.186,0.053,4.859,0.422c0.676,0.371,0.271,6.875,0.271,7.033 s-22.614,0.104-22.884,0.104C32.333,127.489,32.739,119.822,32.739,119.822z" />
<path id="topok_3" class="none" fill="#3E55A5" stroke="#00AEEF" stroke-miterlimit="10" d="M51.36,20.219c-6.543,9.373-12.78,18.937-18.283,28.943 c-1.663-2.584-3.477-5.069-5.468-7.457c-3.477-4.17-9.392,1.811-5.946,5.945c3.152,3.78,5.695,7.945,7.934,12.32 c1.398,2.731,5.869,2.752,7.261,0c6.276-12.428,13.801-24.104,21.763-35.509C61.733,20.005,54.439,15.807,51.36,20.219z" />

</svg>