<svg version="1.1" id="toplvl_4" xmlns="http://www.w3.org/2000/svg" xmlns:xlink="http://www.w3.org/1999/xlink" x="0px" y="0px" width="100%" height="100%" viewBox="0 0 80 135" xml:space="preserve">

<circle fill="#F7941E" stroke="#000000" stroke-width="4" stroke-miterlimit="10" cx="40.334" cy="38.987" r="32.999" />
<path class="number" fill="#000000" d="M32.346,113.27c0.54,0,3.308,4.549,8.302,4.549c2.024,0,2.701-1.321,2.701-2.01c0-5.5-10.463-5.5-13.771-5.5l-1.755-1.586 l1.755-18.613c0,0,22.277-0.793,24.639-0.264c0,0-1.146,8.144-1.484,8.248c-0.336,0.105-11.678,0.424-11.678,0.424l-0.474,4.071 c0,0,17.011,1.321,17.011,13.114c0,7.613-7.83,12.056-16.064,12.056c-12.625,0-16.811-8.144-16.811-8.144 S31.806,113.27,32.346,113.27z" />
<path id="topok_4" class="none" fill="#3E55A5" stroke="#00AEEF" stroke-miterlimit="10" d="M51.36,20.219c-6.543,9.373-12.78,18.937-18.283,28.943 c-1.663-2.584-3.477-5.069-5.468-7.457c-3.477-4.17-9.392,1.811-5.946,5.945c3.152,3.78,5.695,7.945,7.934,12.32 c1.398,2.731,5.869,2.752,7.261,0c6.276-12.428,13.801-24.104,21.763-35.509C61.733,20.005,54.439,15.807,51.36,20.219z" />

</svg>