<svg version="1.1" id="toplvl_5" xmlns="http://www.w3.org/2000/svg" xmlns:xlink="http://www.w3.org/1999/xlink" x="0px" y="0px" width="100%" height="100%" viewBox="0 0 80 135" xml:space="preserve">

<circle fill="#F7941E" stroke="#000000" stroke-width="4" stroke-miterlimit="10" cx="40.334" cy="38.987" r="32.999" />
<path class="number" fill="#000000" d="M23.796,112.079c0-13.062,16.471-23.002,16.471-23.002c-0.135-0.104,9.991,3.597,10.87,5.446 c0,0.158-8.371,4.229-10.263,8.197c6.817,1.163,15.188,5.021,15.188,13.061s-7.021,11.951-15.055,11.951 C32.975,127.732,23.796,123.184,23.796,112.079z M44.587,115.676c0-3.385-4.726-4.813-7.291-4.813 c-1.62,2.168-0.945,7.402,4.319,7.402C42.898,118.266,44.587,117.42,44.587,115.676z" />
<path id="topok_5" class="none" fill="#3E55A5" stroke="#00AEEF" stroke-miterlimit="10" d="M51.36,20.219c-6.543,9.373-12.78,18.937-18.283,28.943 c-1.663-2.584-3.477-5.069-5.468-7.457c-3.477-4.17-9.392,1.811-5.946,5.945c3.152,3.78,5.695,7.945,7.934,12.32 c1.398,2.731,5.869,2.752,7.261,0c6.276-12.428,13.801-24.104,21.763-35.509C61.733,20.005,54.439,15.807,51.36,20.219z" />

</svg>