<svg version="1.1" id="toplvl_6" xmlns="http://www.w3.org/2000/svg" xmlns:xlink="http://www.w3.org/1999/xlink" x="0px" y="0px" width="100%" height="100%" viewBox="0 0 80 135" xml:space="preserve">

<circle fill="#ED1C24" stroke="#000000" stroke-width="4" stroke-miterlimit="10" cx="40.334" cy="38.987" r="32.999" />
<path class="number" fill="#000000" d="M41.463,99.572l-7.696-0.053l0.337,4.707c0,0-10.058,0.371-10.192,0.264c-0.136-0.105-3.309-12.795-1.756-13.959 c1.554-1.164,30.918-0.371,31.119-0.371c0.203,0,4.861,5.129,4.861,5.129s-18.092,32.625-18.228,32.625 c-0.135,0-11.138-2.906-13.771-4.6L41.463,99.572z" />
<path id="topok_6" class="none" fill="#3E55A5" stroke="#00AEEF" stroke-miterlimit="10" d="M51.36,20.219c-6.543,9.373-12.78,18.937-18.283,28.943 c-1.663-2.584-3.477-5.069-5.468-7.457c-3.477-4.17-9.392,1.811-5.946,5.945c3.152,3.78,5.695,7.945,7.934,12.32 c1.398,2.731,5.869,2.752,7.261,0c6.276-12.428,13.801-24.104,21.763-35.509C61.733,20.005,54.439,15.807,51.36,20.219z" />

</svg>