<svg version="1.1" id="toplvl_7" xmlns="http://www.w3.org/2000/svg" xmlns:xlink="http://www.w3.org/1999/xlink" x="0px" y="0px" width="100%" height="100%" viewBox="0 0 80 135" xml:space="preserve">

<circle fill="#ED1C24" stroke="#000000" stroke-width="4" stroke-miterlimit="10" cx="40.334" cy="38.987" r="32.999" />
<path class="number" fill="#000000" d="M26.158,107.609c-2.431-1.531-3.915-3.965-3.915-7.719c0-7.033,8.844-10.312,15.525-10.312 c6.615,0,15.863,3.384,15.863,10.417c0,3.543-1.553,6.027-3.982,7.563c3.375,1.744,5.67,4.602,5.67,9.201 c0,7.244-8.369,11.051-16.739,11.051c-8.235,0-17.618-3.332-17.618-11.209C20.96,112.159,22.985,109.355,26.158,107.609z M38.174,118.979c2.971,0,4.455-1.109,4.455-3.119c0-2.063-1.281-3.647-4.253-3.647c-3.105,0-4.389,1.586-4.389,3.386 C33.988,117.711,35.271,118.979,38.174,118.979z M41.549,99.943c0-1.586-1.08-2.75-3.578-2.75c-2.633,0-3.78,1.162-3.78,2.592 c0,1.586,1.147,2.538,3.646,2.538S41.549,101.479,41.549,99.943z" />
<path id="topok_7" class="none" fill="#3E55A5" stroke="#00AEEF" stroke-miterlimit="10" d="M51.36,20.219c-6.543,9.373-12.78,18.937-18.283,28.943 c-1.663-2.584-3.477-5.069-5.468-7.457c-3.477-4.17-9.392,1.811-5.946,5.945c3.152,3.78,5.695,7.945,7.934,12.32 c1.398,2.731,5.869,2.752,7.261,0c6.276-12.428,13.801-24.104,21.763-35.509C61.733,20.005,54.439,15.807,51.36,20.219z" />

</svg>