<svg version="1.1" id="svg_5_14" repeat="1" xmlns="http://www.w3.org/2000/svg" xmlns:xlink="http://www.w3.org/1999/xlink" x="0px" y="0px" width="85.04px" height="85.04px" viewBox="0 0 85.04 85.04" enable-background="new 0 0 85.04 85.04" xml:space="preserve">
	<path fill="#B29AC9" d="M68.137,28.707c0,0,0-9.441,6.021-14.162" class="colorable" />
<path fill="#B29AC9" d="M70.417,29.521c0,0,4.883-11.559,10.092-13.837" class="colorable" />
<path fill="#B29AC9" d="M48.835,56.919c1.201,0.942,2.41,2.662,2.916,2.662c0.508,0,6.849,0,7.48,0.506
	c0.635,0.509,2.918,1.776,2.791,1.271s-0.763-0.889-0.763-0.889s1.269,1.27,1.396,0.889c0.125-0.381-1.016-1.395-1.016-1.395
	s1.901,1.142,1.647,0.633s-1.647-1.396-2.029-1.521c-0.381-0.127-1.395-0.635-1.774-0.762c-0.379-0.126-3.043-0.507-4.438-0.889
	c-1.395-0.38-4.184-2.027-4.942-3.043c-0.763-1.014-1.902-2.28-1.902-2.28S47.059,55.525,48.835,56.919z" class="colorable" />
<path fill="#B29AC9" d="M30.829,69.724c-0.633,0-9.51-2.79-10.905-10.904c-1.395-8.115,4.313-19.147-1.901-23.711
	C11.81,30.545,5.596,29.91,3.441,34.602c-2.155,4.691,1.395,7.228,3.17,6.593c1.774-0.634,2.916-2.536,2.916-2.536
	s-0.127,3.17-2.662,3.17c-2.536,0-8.496-5.199-1.775-9.89c6.722-4.691,16.229,3.171,16.229,8.75c0,5.578-4.564,25.104,8.37,26.754
	C32.858,66.807,30.829,69.724,30.829,69.724z" class="colorable" />
<path fill="#B29AC9" d="M42.114,25.852c0,0-2.535-12.807-1.14-12.298c1.394,0.506,7.733,8.493,7.733,8.493
	S45.792,30.038,42.114,25.852z" class="colorable" />
<path fill="#B29AC9" d="M44.524,26.359c0,0-13.314-11.792-14.963-11.157s-6.848,7.989-4.312,12.934
	c2.536,4.943,6.721,7.354,13.821,4.943c0,0-1.776,1.649-0.635,4.945s4.184,6.212,4.184,6.212S25.63,58.311,30.828,69.723
	C35.647,76.57,43,73.654,43,73.654s0.38,1.268,0.888,1.268c0.509,0,18.769-1.141,18.769-1.141s0.201-0.362,0.193-0.748
	c-0.004-0.298-0.134-0.607-0.574-0.773c-1.017-0.38-9.258-0.38-9.258-0.38s5.325-3.426,3.805-6.848
	c-1.523-3.424-3.891-3.854-5.199-3.93c-0.397-0.024-1.395,0.253-1.395,0.253l-0.506-5.199c0,0,1.774,2.917,3.676,2.537
	c1.899-0.382,4.944-2.791,6.215-2.537c1.266,0.254,4.562,1.268,4.816,0.508c0.256-0.763-0.509-1.269-0.509-1.269
	s1.523,1.647,1.396,0.635c-0.129-1.015-0.889-1.649-0.889-1.649s2.028,2.156,1.647,1.016c-0.381-1.142-1.393-2.409-3.043-2.535
	c-1.646-0.126-5.326,1.014-6.086,1.141c-0.762,0.126-2.154-0.634-2.154-0.634l-3.932-6.594c0,0,4.945,1.521,7.988,0.76
	c3.043-0.76,3.551-6.465,3.551-7.1c0-0.636,0-0.635,0-0.635s1.772-0.38,4.184-2.154c2.408-1.775,5.326-8.495,5.326-8.495
	l-1.775-1.269c0,0-3.297,0.635-4.312,0.888c-1.014,0.253-1.773,0.761-2.789,0.126c-1.014-0.632-10.143-7.987-14.328-6.848
	c-4.184,1.141-5.199,2.917-5.199,2.917L44.524,26.359z" class="colorable" />
<path fill="#B29AC9" d="M47.616,73.527c0.51-0.378,5.074-1.395,5.707-1.901" class="colorable" />
<path fill="#B29AC9" d="M40.341,30.98c0,0-3.338-0.239-4.888-4.53c-1.55-4.292-4.647-9.893-5.84-9.773
	c-1.191,0.118-4.052,3.813-3.695,7.389c0.358,3.576,1.907,8.582,7.748,8.82C39.507,33.123,40.341,30.98,40.341,30.98z" class="colorable" />
<path fill="#B29AC9" d="M46.897,29.191c0,0-0.718-2.383,0.354-2.383s1.908-0.358,1.908-0.358S45.585,24.901,46.897,29.191z" class="colorable" />
<path fill="#B29AC9" d="M69.659,28.355c0,0-0.236,2.146,1.789,1.908c2.025-0.239,3.1-2.623,1.906-3.456
	C72.163,25.972,69.423,27.045,69.659,28.355z" class="colorable" />
<path fill="#B29AC9" d="M60.569,40.209c0,0,0.83,5.819-0.838,5.938c-1.138,0.081-2.605-1.496-3.353-3.528
	c-0.35-0.951-0.539-2.001-0.463-3.027C56.512,39.83,58.784,39.97,60.569,40.209z" class="colorable" />
<path fill="#B29AC9" d="M61.657,40.23c0,0,0.238,2.146,2.266,1.788c2.025-0.357,1.191-3.456,1.191-3.456L61.657,40.23z" class="colorable" />
<line fill="none" x1="63.802" y1="40.588" x2="63.565" y2="39.516" class="colorable" />
<path fill="#B29AC9" d="M66.997,34.405c0,0,2.443,8.626,9.605,11.394" class="colorable" />
<path fill="#B29AC9" d="M65.206,36.032c0,0,5.047,15.138,6.512,16.115" class="colorable" />
<path fill="#B29AC9" d="M50.71,22.158c0,0,4.529-1.787,7.865-0.357" class="colorable" />
<path fill="#B29AC9" d="M47.016,22.635c0,0,1.309-2.503,10.965-3.813" class="colorable" />
<path fill="#B29AC9" d="M60.303,72.59c0,0,1.899-0.321,2.344,0.122" class="colorable" />
<line fill="none" x1="59.413" y1="72.307" x2="61.03" y2="72.104" class="colorable" />
<path fill="#B29AC9" d="M55.653,39.322c0,0,3.412,3.003,9.842-0.904" class="colorable" />
<path fill="#B29AC9" d="M53.928,40.275c0.594,0,2.502-1.55,2.502-1.55" class="colorable" />
<path fill="#B29AC9" d="M60.159,45.758c0,0-0.596-1.192-1.311-1.906c-0.716-0.718-2.308-0.956-2.308-0.956s0.998,2.031,1.832,2.747
	C59.208,46.355,60.397,46.232,60.159,45.758z" class="colorable" />
<ellipse transform="matrix(-0.5557 -0.8314 0.8314 -0.5557 87.7122 102.2501)" fill="#B29AC9" cx="71.177" cy="27.688" rx="0.446" ry="0.799" class="colorable" />
<path fill="#B29AC9" d="M65.858,53.287c0,0-3.582-13.022-2.443-16.604" class="colorable" />
<ellipse transform="matrix(-0.0872 -0.9962 0.9962 -0.0872 15.3538 91.7406)" fill="#B29AC9" cx="49.709" cy="38.836" rx="2.437" ry="3.008" class="colorable" />
<ellipse transform="matrix(0.4413 0.8974 -0.8974 0.4413 60.64 -38.5671)" fill="#B29AC9" cx="61.292" cy="29.415" rx="1.322" ry="0.591" class="colorable" />
<ellipse transform="matrix(0.4009 0.9161 -0.9161 0.4009 64.2948 -28.1635)" fill="#B29AC9" cx="53.681" cy="35.078" rx="1.671" ry="1.009" class="colorable" />
<ellipse transform="matrix(0.3226 0.9465 -0.9465 0.3226 68.6696 -38.2646)" fill="#B29AC9" cx="61.07" cy="28.846" rx="0.274" ry="0.158" class="colorable" />
<ellipse transform="matrix(0.2538 0.9672 -0.9672 0.2538 72.9879 -25.8374)" fill="#B29AC9" cx="53.24" cy="34.388" rx="0.406" ry="0.235" class="colorable" />
<path fill="#B29AC9" d="M49.723,56.157c0,0-1.925-3.561-2.455-5.064" class="colorable" />
<path fill="#B29AC9" d="M50.229,61.356c-1.017,0.354-4.731,0.354-5.881,3.717" class="colorable" />
<path fill="#B29AC9" d="M43.001,73.655c0,0,0.285-2.035-0.688-1.856" class="colorable" />
<path fill="#B29AC9" d="M46.915,44.72c0,0,2.033-0.178,3.949,2.054" class="colorable" />
<path fill="#B29AC9" d="M58.387,40.416c0.719,0.075,1.483-0.301,2.182-0.208c0,0,0.83,5.819-0.838,5.938 c-1.138,0.081-2.605-1.496-3.353-3.528c-0.35-0.951-0.539-2.001-0.463-3.027C56.28,39.738,57.27,40.3,58.387,40.416z" class="colorable" />
</svg>
