<svg version="1.1" id="svg_5_7" repeat="2" xmlns="http://www.w3.org/2000/svg" xmlns:xlink="http://www.w3.org/1999/xlink" x="0px" y="0px" width="85.04px" height="85.04px" viewBox="0 0 85.04 85.04" enable-background="new 0 0 85.04 85.04" xml:space="preserve">
	<path fill="#B29AC9" d="M81.074,27.317c-0.079-0.666-0.019-1.885-0.914-2.171c-1.75-0.577-4.515,3.347-4.683-0.544
	c-0.54-1.438-1.523-2.602-1.816-4.137c2.2,0.386,4.826-1.435,6.496-2.361c-1.083-1.409-2.002-2.911-3.792-3.442
	c-2.014-0.017-3.589,1.075-4.688,2.476c-1.005-0.741,0.673-1.546,0.666-2.425c0.474-2.877-1.062-5.687-3.4-7.067
	c-0.771-0.298-1.826-0.816-2.574-0.273c-0.083,0.061-0.162,0.129-0.236,0.214c-0.025,1.848,1.937,4.005,0.492,6.011
	c-1.512-0.045-3.425,0.227-4.521,1.671c-3.563,0.777-7.354,1.234-9.825,4.345c-2.224-0.048-3.235-2.466-4.24-4.003
	c-0.072-0.006-0.14-0.005-0.206-0.003c-1.354,0.046-1.414,1.721-2.089,2.557c-0.556,2.083,0.504,3.871,1.715,5.314
	c1.365,1.227,3.059,1.512,4.706,1.757c0.011,1.007-1.436,0.581-1.939,1.319c-0.659,1.065-1.84,1.862-2.464,2.755
	c-1.823,0.285-2.601-1.507-4.494-0.471c-4.223,0.977-9.202,0.851-14.082,0.85c0.038,0.174,0.056,0.35,0.089,0.525c0,0,0,0-0.001,0
	c-0.033-0.175-0.051-0.352-0.089-0.526c-3.485-0.002-6.923,0.062-9.992,0.639c-0.563,0.167-1.131,0.357-1.705,0.568v0
	c-1.82,0.671-3.673,1.565-5.431,2.654c-4.279,2.653-7.974,6.494-9.113,11.313c-0.669,2.908,1.047,5.791,3.801,6.927l0.418-0.013
	c1,7.091,2.014,14.682,3.02,22.021c-0.734,0.649-1.501,1.635-1.3,2.844c3.052,1.253,5.8,0.713,9.05,0.158
	c0.029-3.309-5.491-1.686-3.595-5.551c0.563-0.853,0.234-2.101,1.133-2.836c0.354-0.057,0.62-0.037,0.835,0.022
	c0.09,0.056,0.196,0.105,0.317,0.149c1.132,0.849-0.573,4.002,2.158,2.746l0.969-1.241c0.979,0.559,1.961,1.2,3.06,1.545
	c-0.098,1.008,0.18,1.837,0.66,2.577l-1.155,2.043c3.055,1.379,8.039,1.444,10.83-0.521c-1.595-1.586-3.774-1.648-5.879-2.049
	c-0.143-0.583-0.574-1.03-0.43-1.789c1.631-0.089,3.63-1.946,4.621,0.496c0.493-0.393,0.797,0.06,1.196-0.663
	c0.022-0.588-0.076-1.17-0.464-1.577c2.18-1.361,4.969-3.367,5.646-5.983c2.755-0.289,5.735,0.003,8.077,1.359
	c1.749,2.547,2.063,6.222,1.688,9.206c-0.483,0.683-1.518,1.132-1.365,2.049c3.39,1.367,6.859,1.184,10.257-0.086
	c-0.048-0.208,0.075-0.295,0.197-0.425c-0.997-1.186-1.907-2.247-3.31-2.92c0.43-1.848,0.66-3.824,1.184-5.664v-0.001
	c0.479-1.684,1.199-3.249,2.546-4.489c0.916-0.153,1.187,0.552,1.665,1.165c0.392,3.423-0.147,6.495-1.365,9.294l-0.215-0.203
	c-0.444,0.598,0.12,1.295,0.47,1.786c2.757,1.221,6.871,0.14,9.595-1.28c-0.679-1.739-2.61-1.976-4.255-2.306L62.8,71.867
	c0.431-2.525,1.776-5.242,2.577-7.904c1.908-6.146,3.454-12.413,3.768-19.144c0.34-0.066,0.675-0.14,1.001-0.228
	c0.673,0.047,1.58-1.009,2.35-0.716c0.259-0.642,1.692-0.51,2.369-1.134c3.384-1.817,7.258-5.339,7.923-9.315
	C82.844,31.372,82.667,28.865,81.074,27.317z M29.571,32.653c0,0.008,0.001,0.017,0.002,0.025c0.001,0.013,0.001,0.025,0.002,0.038
	c0-0.008-0.001-0.017-0.002-0.024C29.573,32.678,29.572,32.666,29.571,32.653z M29.487,31.568c0-0.003,0-0.007-0.001-0.011
	c0,0.005,0.001,0.009,0.002,0.014c0,0.003,0,0.007,0.001,0.01C29.489,31.577,29.488,31.573,29.487,31.568z M68.659,28.798
	C68.659,28.798,68.659,28.798,68.659,28.798c0.497-0.331,0.963-0.706,1.386-1.106l0.001,0
	C69.623,28.092,69.157,28.467,68.659,28.798z M65.993,27.285c-0.003-0.001-0.005-0.003-0.007-0.005
	c0.007,0.005,0.014,0.01,0.021,0.015c0,0-0.001,0-0.002-0.001C66.001,27.292,65.997,27.289,65.993,27.285z M65.428,26.859
	c-0.002-0.001-0.003-0.003-0.005-0.005c0,0,0,0,0.001,0C65.427,26.857,65.427,26.858,65.428,26.859
	C65.429,26.86,65.429,26.86,65.428,26.859z M64.324,25.249c0-0.002-0.001-0.003-0.001-0.005l0,0
	C64.323,25.245,64.324,25.247,64.324,25.249L64.324,25.249z M64.257,24.671L64.257,24.671c0,0.003,0,0.005,0,0.008l0,0
	C64.257,24.677,64.257,24.674,64.257,24.671z M64.299,25.095c0,0.003,0.001,0.006,0.001,0.009l0,0
	C64.3,25.101,64.299,25.098,64.299,25.095L64.299,25.095z M64.253,24.527c0,0.002,0,0.004,0,0.006c0,0,0,0,0,0
	C64.253,24.531,64.253,24.53,64.253,24.527L64.253,24.527z M64.813,26.266c0,0.001,0.002,0.002,0.002,0.003c0.001,0,0,0,0,0
	C64.815,26.268,64.813,26.267,64.813,26.266L64.813,26.266z M64.923,26.385C64.924,26.385,64.924,26.385,64.923,26.385
	c0.002,0.002,0.004,0.003,0.005,0.005c0,0,0,0,0,0C64.927,26.389,64.925,26.387,64.923,26.385z M65.295,26.743
	c0.003,0.002,0.006,0.005,0.008,0.007c0.001,0,0.001,0,0.001,0.001C65.302,26.749,65.299,26.746,65.295,26.743
	C65.296,26.744,65.296,26.744,65.295,26.743z M66.636,27.701c-0.002-0.001-0.003-0.002-0.005-0.003
	c0.013,0.007,0.024,0.014,0.036,0.021c0.002,0.001,0.003,0.002,0.005,0.003C66.66,27.716,66.648,27.709,66.636,27.701z
	 M62.961,23.196c-0.075,0.001-0.151-0.012-0.227-0.007C62.809,23.184,62.885,23.197,62.961,23.196L62.961,23.196z M67.827,20.458
	c0.11-0.014,0.223-0.018,0.334-0.021C68.05,20.44,67.937,20.445,67.827,20.458z M68.339,20.438c-0.029-0.001-0.06-0.006-0.089-0.006
	C68.28,20.432,68.309,20.437,68.339,20.438L68.339,20.438z M29.604,33.272c0,0.005,0.001,0.009,0.001,0.014c0,0.002,0,0.005,0,0.007
	c0-0.004-0.001-0.009-0.001-0.014C29.604,33.278,29.604,33.275,29.604,33.272z M29.586,34.333c0,0.009,0,0.018,0,0.026
	c0,0.016-0.001,0.031-0.002,0.047c0-0.009,0-0.018,0-0.026C29.584,34.364,29.585,34.348,29.586,34.333z M29.56,34.979
	c0,0.005,0,0.009,0,0.014c0,0.002,0,0.004-0.001,0.007c0-0.004,0-0.009,0-0.014C29.56,34.984,29.56,34.981,29.56,34.979z
	 M29.44,35.996c-0.002,0.011-0.003,0.022-0.004,0.034c-0.002,0.02-0.005,0.039-0.008,0.059c0.001-0.011,0.002-0.022,0.004-0.034
	C29.435,36.035,29.437,36.015,29.44,35.996z M29.348,36.662c0,0.004-0.001,0.009-0.001,0.013c0,0.002-0.001,0.005-0.002,0.007
	c0.001-0.004,0.001-0.009,0.002-0.013C29.347,36.667,29.348,36.665,29.348,36.662z M29.128,37.63
	c-0.004,0.015-0.007,0.031-0.011,0.046c-0.006,0.025-0.012,0.05-0.018,0.075c0.004-0.016,0.007-0.031,0.011-0.047
	C29.116,37.68,29.122,37.655,29.128,37.63z M28.963,38.307c-0.001,0.004-0.002,0.008-0.003,0.013
	c-0.001,0.002-0.002,0.005-0.002,0.007c0.001-0.004,0.001-0.008,0.003-0.013C28.961,38.312,28.963,38.309,28.963,38.307z
	 M28.642,39.225c-0.008,0.022-0.015,0.045-0.023,0.067c-0.013,0.034-0.024,0.068-0.037,0.103c0.008-0.022,0.015-0.045,0.023-0.067
	C28.618,39.293,28.63,39.259,28.642,39.225z M28.398,39.898c-0.001,0.004-0.002,0.008-0.004,0.012
	c-0.001,0.002-0.003,0.004-0.004,0.007c0.002-0.003,0.003-0.007,0.004-0.011C28.396,39.903,28.397,39.9,28.398,39.898z
	 M27.968,40.779c-0.018,0.036-0.035,0.072-0.053,0.108c-0.028,0.054-0.053,0.109-0.082,0.163c0.02-0.036,0.035-0.073,0.054-0.109
	C27.914,40.887,27.94,40.832,27.968,40.779z M27.648,41.419c-0.002,0.003-0.003,0.007-0.005,0.01
	c-0.001,0.002-0.003,0.004-0.004,0.006c0.002-0.003,0.003-0.007,0.005-0.01C27.645,41.424,27.647,41.422,27.648,41.419z
	 M27.006,42.401c-0.063,0.092-0.117,0.188-0.183,0.279c-0.043,0.059-0.075,0.122-0.119,0.181c-0.021,0.025-0.043,0.043-0.063,0.067
	c0.021-0.024,0.042-0.042,0.063-0.067C26.814,42.713,26.902,42.552,27.006,42.401z M26.155,43.44
	c-0.003,0.002-0.005,0.006-0.008,0.009c-0.001,0.001-0.003,0.002-0.005,0.004c0.003-0.003,0.006-0.007,0.008-0.009
	C26.151,43.442,26.153,43.441,26.155,43.44z M26,43.57c-0.006,0.006-0.012,0.011-0.018,0.016c-0.014,0.012-0.028,0.021-0.042,0.033
	c0.006-0.006,0.012-0.011,0.018-0.016C25.972,43.592,25.987,43.582,26,43.57z M25.578,43.905c-0.003,0.003-0.006,0.006-0.01,0.008
	c-0.001,0.001-0.003,0.002-0.005,0.004c0.003-0.003,0.007-0.006,0.01-0.008C25.575,43.907,25.577,43.906,25.578,43.905z
	 M25.37,44.038c-0.003,0.002-0.006,0.005-0.01,0.007c-0.008,0.005-0.017,0.009-0.025,0.015c0.003-0.002,0.006-0.005,0.01-0.007
	C25.353,44.048,25.362,44.044,25.37,44.038z M24.983,44.259c-0.004,0.002-0.008,0.005-0.012,0.007
	c-0.001,0.001-0.003,0.002-0.005,0.003c0.004-0.002,0.008-0.005,0.012-0.007C24.979,44.26,24.981,44.26,24.983,44.259z
	 M24.752,44.364c-0.001,0.001-0.003,0.002-0.005,0.003c-0.006,0.003-0.012,0.004-0.019,0.007c0.002-0.001,0.004-0.002,0.006-0.003
	C24.74,44.369,24.746,44.367,24.752,44.364z M24.371,44.508c-0.005,0.001-0.01,0.004-0.016,0.006c-0.002,0-0.003,0.001-0.005,0.001
	c0.005-0.001,0.01-0.004,0.015-0.006C24.367,44.509,24.369,44.508,24.371,44.508z M24.131,44.579c-0.001,0-0.002,0-0.004,0.001
	c-0.005,0.001-0.01,0.001-0.015,0.003c0.001-0.001,0.002-0.001,0.004-0.001C24.121,44.58,24.126,44.58,24.131,44.579z
	 M23.744,44.658c-0.007,0.001-0.013,0.003-0.02,0.004c-0.002,0.001-0.004,0.001-0.007,0.001c0.007-0.001,0.014-0.003,0.021-0.004
	C23.74,44.659,23.742,44.658,23.744,44.658z M23.506,44.694c-0.001,0-0.001,0.001-0.002,0.001c-0.004,0-0.008,0-0.012,0
	c0,0,0.001,0,0.002,0C23.498,44.695,23.502,44.695,23.506,44.694z M23.097,44.717c-0.01,0-0.021,0.002-0.03,0.002
	c-0.003,0-0.006,0-0.009,0c0.01,0,0.021-0.002,0.03-0.002C23.092,44.717,23.094,44.717,23.097,44.717z M22.878,44.722
	c0,0-0.001,0-0.001,0c-0.003,0-0.007-0.001-0.01-0.001c0,0,0.001,0,0.001,0C22.872,44.721,22.875,44.722,22.878,44.722z
	 M22.402,44.683c-0.02-0.002-0.039-0.002-0.058-0.005c-0.005,0-0.01,0-0.015-0.001c0.02,0.003,0.039,0.003,0.058,0.005
	C22.392,44.682,22.397,44.683,22.402,44.683z M22.25,44.67C22.25,44.67,22.249,44.67,22.25,44.67c-0.003,0-0.006-0.001-0.009-0.002
	c0,0,0,0,0.001,0C22.244,44.669,22.247,44.67,22.25,44.67z M21.621,44.542c-0.002,0-0.004-0.001-0.006-0.001
	c0,0-0.001-0.001-0.002-0.001c0.002,0.001,0.004,0.001,0.006,0.002C21.62,44.542,21.621,44.542,21.621,44.542z M21.497,44.505
	c-0.002,0-0.003-0.001-0.005-0.001c-0.017-0.005-0.033-0.011-0.05-0.016c0.002,0,0.004,0.001,0.006,0.002
	C21.465,44.494,21.481,44.501,21.497,44.505z M21.004,44.349c-0.002,0-0.004-0.001-0.006-0.002c0,0-0.001,0-0.001,0
	c0.002,0.001,0.004,0.001,0.006,0.002C21.003,44.349,21.004,44.349,21.004,44.349z M20.78,44.261L20.78,44.261
	c-0.007-0.003-0.014-0.006-0.021-0.009h0C20.766,44.256,20.773,44.259,20.78,44.261z M20.398,44.102
	c-0.002-0.001-0.004-0.002-0.006-0.003l0,0C20.394,44.1,20.396,44.101,20.398,44.102C20.398,44.101,20.398,44.102,20.398,44.102z
	 M29.402,30.97c0.001,0.01,0.004,0.02,0.005,0.03c0.001,0.01,0.003,0.02,0.004,0.03c-0.001-0.01-0.003-0.02-0.005-0.03
	C29.405,30.99,29.403,30.98,29.402,30.97z" class="colorable" />
</svg>
