<svg version="1.1" id="svg_5_8" repeat="0" xmlns="http://www.w3.org/2000/svg" xmlns:xlink="http://www.w3.org/1999/xlink" x="0px" y="0px" width="85.04px" height="85.04px" viewBox="0 0 85.04 85.04" enable-background="new 0 0 85.04 85.04" xml:space="preserve">
	<path fill="#B29AC9" d="M30.793,67.369c-1.548-0.261-3.908-5.11-3.591-8.88c0.34-4.048,4.834-5.891,4.834-5.891l-6.575-1.195
	l-2.131,1.623c0,0-3.287,4.952-2.666,6.488c0.623,1.536,1.776,1.878,3.644,5.292c1.865,3.416,1.064,6.232,2.485,6.745
	c1.422,0.514,4.176,1.025,4.975,0.939c0.8-0.086,0.889-0.512,0.889-0.512s0.799,0.256,1.243-0.342
	C34.347,71.039,34.347,67.967,30.793,67.369z" class="colorable" />
<path fill="#B29AC9" d="M63.345,54.896c0,0,0.171,6.561,1.961,10.99c1.789,4.43,2.811,5.708,3.066,5.708
	c0.254,0,2.556,0.256,3.579,1.703c1.021,1.448,0.51,2.216,0.34,2.643c-0.171,0.425-0.767,0.425-0.767,0.425
	s-0.511,0.853-2.045,0.768c-1.534-0.086-4.43-0.938-4.771-1.705c-0.34-0.767-0.938-2.896-3.066-6.132
	c-2.13-3.238-4.09-6.05-5.283-8.181" class="colorable" />
<path fill="#B29AC9" d="M12.143,36.406c0,0-3.719-1.535-3.237-5.708c0.523-4.524,5.994-5.768,8.717-12.978
	c2.897-7.667-2.044-12.097-3.975-13.347C11.249,2.82,9.445,2.498,8.424,3.861c-0.761,1.013-0.228,2.783,1.988,4.203
	c2.24,1.438,5.338,3.863,3.009,8.747c-2.441,5.123-8.917,7.498-8.917,14.823c0,7.328,6.362,10.99,6.362,10.99L12.143,36.406z" class="colorable" />

	<path fill="#B29AC9" d="M39.776,38.108c-2.191,4.215-2.191,7.42-2.191,7.42s2.191-4.385,5.227-7.589
		c1.218-1.285,2.352-2.24,3.275-2.928c-0.703-0.483-1.508-1.004-2.398-1.54C42.463,34.414,40.916,35.917,39.776,38.108z" class="colorable" />
	<path fill="#B29AC9" d="M35.224,33.05c-1.518,2.866-1.18,5.226-1.18,5.226s1.517-2.529,3.709-4.89
		c0.768-0.827,1.555-1.444,2.255-1.9c-0.836-0.401-1.715-0.788-2.629-1.148C36.693,30.915,35.893,31.785,35.224,33.05z" class="colorable" />
	<path fill="#B29AC9" d="M45.174,41.648c-2.531,4.892-2.362,6.578-2.362,6.578s4.049-6.409,7.083-8.77
		c0.249-0.192,0.486-0.369,0.721-0.538l-1.24-1.406c0,0-0.149-0.132-0.424-0.359C47.76,38.001,46.343,39.389,45.174,41.648z" class="colorable" />
	<path fill="#B29AC9" d="M26.625,41.648c0,0,2.361-5.058,4.89-8.43c1.19-1.587,2.602-2.796,3.765-3.636
		c-0.765-0.25-1.548-0.477-2.35-0.674c-0.26-0.064-0.507-0.11-0.762-0.167c-1.217,1.317-2.624,3.114-3.52,5.151
		C26.793,38.108,26.625,41.648,26.625,41.648z" class="colorable" />
	<path fill="#B29AC9" d="M17.183,36.759c0,0,1.557-5.445,4.52-8.415c-1.127,0.203-2.142,0.482-3.043,0.812
		c-0.521,0.893-1.037,1.999-1.308,3.219C16.677,35.41,17.183,36.759,17.183,36.759z" class="colorable" />
	<path fill="#B29AC9" d="M22.41,34.904c0,0,3.538-4.954,5.558-6.82c-0.934-0.077-1.82-0.1-2.668-0.084
		c-0.578,0.752-1.145,1.616-1.542,2.521C22.578,33.218,22.41,34.904,22.41,34.904z" class="colorable" />
	<path fill="#B29AC9" d="M50.615,38.919c-0.234,0.169-0.472,0.346-0.721,0.538c-3.034,2.361-7.083,8.77-7.083,8.77
		s-0.168-1.687,2.362-6.578c1.169-2.259,2.586-3.647,3.777-4.495c-0.52-0.431-1.504-1.21-2.864-2.143
		c-0.924,0.688-2.058,1.643-3.275,2.928c-3.035,3.204-5.227,7.589-5.227,7.589s0-3.205,2.191-7.42
		c1.14-2.191,2.687-3.693,3.912-4.636c-1.102-0.662-2.336-1.341-3.68-1.985c-0.701,0.456-1.487,1.073-2.255,1.9
		c-2.192,2.36-3.709,4.89-3.709,4.89s-0.338-2.36,1.18-5.226c0.669-1.265,1.469-2.135,2.155-2.712
		c-0.681-0.269-1.38-0.523-2.099-0.756c-1.163,0.84-2.575,2.049-3.765,3.636c-2.529,3.372-4.89,8.43-4.89,8.43
		s0.168-3.541,2.023-7.756c0.896-2.037,2.303-3.834,3.52-5.151c-1.479-0.328-2.885-0.549-4.2-0.658
		c-2.02,1.867-5.558,6.82-5.558,6.82s0.167-1.686,1.348-4.383c0.396-0.905,0.963-1.77,1.542-2.521
		c-1.302,0.022-2.5,0.147-3.597,0.345c-2.963,2.97-4.52,8.415-4.52,8.415s-0.506-1.349,0.168-4.384
		c0.271-1.22,0.788-2.326,1.308-3.219c-1.719,0.629-3.027,1.434-3.875,2.223c-2.471,2.299-6.134,7.583-5.283,14.143
		c0.852,6.562,5.197,9.374,5.027,12.271c-0.17,2.896-2.386,2.728-1.363,4.856c1.022,2.13,2.812,2.748,4.516,6.475
		c1.362,2.981,1.722,4.845,2.044,5.367c0.341,0.555,1.321,0.384,3.706,0.81s3.025,0.341,3.494,0.17
		c0.468-0.17,0.682-0.425,0.682-0.425s0.553-0.043,0.808-0.426c0.256-0.385,0.256-1.874-0.894-3.025
		c-1.151-1.149-2.642-1.149-3.195-1.149s-1.022,0.084-1.405-0.342s-2.598-4.728-2.471-7.029c0.213-3.833,2.428-9.029,6.603-9.711
		c4.979-0.813,8.178,2.13,12.183,4.941c4.003,2.811,10.65,5.537,16.272,5.026c5.623-0.511,9.117-8.52,9.117-8.52L50.615,38.919z" class="colorable" />

<path fill="#B29AC9" d="M50.615,38.919l-1.24-1.406c0,0-0.149-0.132-0.424-0.359c-0.52-0.431-1.504-1.21-2.864-2.143
	c-0.703-0.483-1.508-1.004-2.398-1.54c-1.102-0.662-2.336-1.341-3.68-1.985c-0.836-0.401-1.715-0.788-2.629-1.148
	c-0.681-0.269-1.38-0.523-2.099-0.756c-0.765-0.25-1.548-0.477-2.35-0.674c-0.26-0.064-0.507-0.11-0.762-0.167
	c-1.479-0.328-2.885-0.549-4.2-0.658c-0.934-0.077-1.82-0.1-2.668-0.084c-1.302,0.022-2.5,0.147-3.597,0.345
	c-1.127,0.203-2.142,0.482-3.043,0.812c-1.719,0.629-3.027,1.434-3.875,2.223c-2.471,2.299-6.134,7.583-5.283,14.143
	c0.852,6.562,5.197,9.374,5.027,12.271c-0.17,2.896-2.386,2.728-1.363,4.856c1.022,2.13,2.812,2.748,4.516,6.475
	c1.362,2.981,1.722,4.845,2.044,5.367c0.341,0.555,1.321,0.384,3.706,0.81s3.025,0.341,3.494,0.17
	c0.468-0.17,0.682-0.425,0.682-0.425s0.553-0.043,0.808-0.426c0.256-0.385,0.256-1.874-0.894-3.025
	c-1.151-1.149-2.642-1.149-3.195-1.149s-1.022,0.084-1.405-0.342s-2.598-4.728-2.471-7.029c0.213-3.833,2.428-9.029,6.603-9.711
	c4.979-0.813,8.178,2.13,12.183,4.941c4.003,2.811,10.65,5.537,16.272,5.026c5.623-0.511,9.117-8.52,9.117-8.52L50.615,38.919z" class="colorable" />

	<path fill="#B29AC9" d="M67.599,30.942c0,0,1.096-1.939,1.518-3.625c0.053-0.214,0.105-0.418,0.155-0.612
		c-0.826-0.285-1.809-0.549-2.951-0.726c0.238,0.571,0.503,1.266,0.688,1.929C67.43,29.424,67.599,30.942,67.599,30.942z" class="colorable" />
	<path fill="#B29AC9" d="M59.924,31.292c0,0,0.473-2.435,0.317-4.452c-0.025-0.305-0.046-0.577-0.067-0.827
		c-1.271,0.212-2.341,0.527-3.204,0.855c0.41,0.425,0.914,1.027,1.367,1.812C59.301,30.347,59.924,31.292,59.924,31.292z" class="colorable" />
	<path fill="#B29AC9" d="M76.451,40.552c0,0,2.051,0.75,4.06,0.838c-0.244-0.875-0.541-1.709-0.838-2.449
		c-0.6,0.448-1.246,0.894-1.704,1.105C76.872,40.552,76.451,40.552,76.451,40.552z" class="colorable" />
	<path fill="#B29AC9" d="M76.535,46.203c0,0,1.264,0.084,2.528,0.168c0.536,0.036,1.253-0.02,1.902-0.095
		c0.005-0.034,0.015-0.069,0.02-0.104c0.234-1.495-0.033-3.203-0.475-4.782c-2.009-0.089-4.06-0.838-4.06-0.838s0.421,0,1.518-0.505
		c0.458-0.211,1.104-0.657,1.704-1.105c-0.671-1.676-1.333-2.854-1.333-2.854s0.497-1.175,0.993-3.865
		c0.494-2.689,0.66-5.629-0.579-6.554c-1.238-0.924-6.444,2.521-6.444,2.521s-1.052-0.801-3.037-1.485
		c-0.05,0.194-0.103,0.398-0.155,0.612c-0.422,1.686-1.518,3.625-1.518,3.625s-0.169-1.518-0.591-3.035
		c-0.185-0.663-0.449-1.357-0.688-1.929c-0.897-0.14-1.891-0.225-2.976-0.225c-1.167,0-2.222,0.102-3.172,0.26
		c0.021,0.25,0.042,0.521,0.067,0.827c0.155,2.018-0.317,4.452-0.317,4.452s-0.623-0.944-1.587-2.612
		c-0.453-0.785-0.957-1.387-1.367-1.812c-1.69,0.643-2.586,1.322-2.586,1.322s-5.205-3.445-6.444-2.521
		c-1.239,0.925-1.075,3.865-0.578,6.554c0.495,2.689,0.991,3.865,0.991,3.865s-0.645,1.148-1.308,2.791
		c0.538,0.267,1.416,0.682,2.259,1c1.351,0.506,2.277,0.674,2.277,0.674s-2.812,0.827-5.494,1.188
		c-0.383,1.481-0.598,3.048-0.38,4.433c0.001,0.004,0.003,0.009,0.003,0.013c0.446,0.102,1.006,0.205,1.656,0.271
		c1.686,0.168,3.119-0.169,3.119-0.169s-1.62,1.857-3.825,2.489c2.074,3.653,7.391,7.398,16.686,7.398
		c9.303,0,14.619-3.749,16.69-7.405C77.272,47.334,76.535,46.203,76.535,46.203z" class="colorable" />
	<path fill="#B29AC9" d="M79.063,46.371c-1.265-0.084-2.528-0.168-2.528-0.168s0.737,1.131,3.501,2.566
		c0.482-0.854,0.79-1.7,0.93-2.493C80.316,46.351,79.599,46.407,79.063,46.371z" class="colorable" />
	<path fill="#B29AC9" d="M50.485,46.287c0,0-1.434,0.337-3.119,0.169c-0.65-0.065-1.21-0.169-1.656-0.271
		c0.131,0.822,0.446,1.703,0.95,2.591C48.865,48.144,50.485,46.287,50.485,46.287z" class="colorable" />
	<path fill="#B29AC9" d="M49.303,39.878c-0.843-0.317-1.721-0.733-2.259-1c-0.344,0.851-0.69,1.835-0.958,2.861
		c2.683-0.36,5.494-1.188,5.494-1.188S50.654,40.384,49.303,39.878z" class="colorable" />

<path fill="#B29AC9" d="M80.51,41.39c-0.244-0.875-0.541-1.709-0.838-2.449c-0.671-1.676-1.333-2.854-1.333-2.854
	s0.497-1.175,0.993-3.865c0.494-2.689,0.66-5.629-0.579-6.554c-1.238-0.924-6.444,2.521-6.444,2.521s-1.052-0.801-3.037-1.485
	c-0.826-0.285-1.809-0.549-2.951-0.726c-0.897-0.14-1.891-0.225-2.976-0.225c-1.167,0-2.222,0.102-3.172,0.26
	c-1.271,0.212-2.341,0.527-3.204,0.855c-1.69,0.643-2.586,1.322-2.586,1.322s-5.205-3.445-6.444-2.521
	c-1.239,0.925-1.075,3.865-0.578,6.554c0.495,2.689,0.991,3.865,0.991,3.865s-0.645,1.148-1.308,2.791
	c-0.344,0.851-0.69,1.835-0.958,2.861c-0.383,1.481-0.598,3.048-0.38,4.433c0.001,0.004,0.003,0.009,0.003,0.013
	c0.131,0.822,0.446,1.703,0.95,2.591c2.074,3.653,7.391,7.398,16.686,7.398c9.303,0,14.619-3.749,16.69-7.405
	c0.482-0.854,0.79-1.7,0.93-2.493c0.005-0.034,0.015-0.069,0.02-0.104C81.219,44.677,80.952,42.969,80.51,41.39z" class="colorable" />
<circle fill="#B29AC9" cx="57.638" cy="42.199" r="2.045" class="colorable" />
<ellipse fill="#B29AC9" cx="56.732" cy="42.216" rx="0.65" ry="0.834" class="colorable" />
<path fill="#B29AC9" d="M64.301,47.129c0.36,0,2.119-2.616,1.984-3.113c-0.136-0.496-1.082-0.496-1.984-0.496s-1.851,0-1.985,0.496
	C62.18,44.512,63.939,47.129,64.301,47.129z" class="colorable" />
<path fill="#B29AC9" d="M59.769,53.064c0,0-1.535-0.042-2.131-1.448c-0.514-1.212-0.085-1.96-0.085-1.96" class="colorable" />
<path fill="#B29AC9" d="M57.042,49.656c0,0,0.427-0.385,1.022,0.042" class="colorable" />
<path fill="#B29AC9" d="M46.903,57.964c0,0,0.086,4.004,2.897,8.69c2.812,4.685,5.453,8.519,6.644,10.563
	c1.194,2.045,1.62,2.045,3.409,2.727c1.79,0.682,4.43,0.597,4.856,0.34c0.426-0.256,0.341-0.512,0.341-0.512
	s0.426,0.256,1.106-0.255c0.682-0.511,1.108-2.812-0.938-4.09c-2.043-1.276-3.237-0.767-4.855-1.703
	c-1.619-0.938-3.577-5.964-4.515-9.286c-0.937-3.323,0.171-4.855,0.171-4.855" class="colorable" />
<path fill="#B29AC9" d="M46.903,57.964c0,0,0.086,4.004,2.897,8.69c2.812,4.685,5.453,8.519,6.644,10.563
	c1.194,2.045,1.62,2.045,3.409,2.727c1.79,0.682,4.43,0.597,4.856,0.34c0.426-0.256,0.341-0.512,0.341-0.512
	s0.426,0.256,1.106-0.255c0.682-0.511,1.108-2.812-0.938-4.09c-2.043-1.276-3.237-0.767-4.855-1.703
	c-1.619-0.938-3.577-5.964-4.515-9.286c-0.937-3.323,0.171-4.855,0.171-4.855" class="colorable" />
<ellipse fill="#B29AC9" cx="56.513" cy="42.229" rx="0.264" ry="0.278" class="colorable" />
<circle fill="#B29AC9" cx="56.861" cy="41.616" r="0.139" class="colorable" />
<circle fill="#B29AC9" cx="57.306" cy="42.48" r="0.278" class="colorable" />
<path fill="#B29AC9" d="M63.363,45.359c0,0-0.664-1.044-0.506-1.297c0.157-0.253,1.043-0.159,1.043-0.159s-0.602,0.064-0.727,0.412
	C63.047,44.663,63.363,45.359,63.363,45.359z" class="colorable" />
</svg>
