<svg version="1.1" id="svg_0" xmlns="http://www.w3.org/2000/svg" xmlns:xlink="http://www.w3.org/1999/xlink" x="0px" y="0px"
	 width="85.04px" height="85.04px" viewBox="0 0 85.04 85.04" enable-background="new 0 0 85.04 85.04" xml:space="preserve">
<path fill="#C3DCED" stroke="#5E808A" stroke-width="0.4613" stroke-linecap="round" stroke-linejoin="round" d="M40.82,27.266
	c0-0.669-0.544-1.208-1.207-1.208c-0.668,0-1.209,0.539-1.209,1.208c0,0.667,0.541,1.209,1.209,1.209
	C40.277,28.475,40.82,27.933,40.82,27.266z"/>
<circle fill="#C3DCED" stroke="#5E808A" stroke-width="0.4613" stroke-linecap="round" stroke-linejoin="round" cx="45.493" cy="27.266" r="1.207"/>
<path fill="#C3DCED" stroke="#5E808A" stroke-width="0.4613" stroke-linecap="round" stroke-linejoin="round" d="M46.805,29.928
	c0-0.842-0.682-1.522-1.523-1.522h-5.669c-0.843,0-1.523,0.681-1.523,1.522l0,0c0,0.841,0.682,1.522,1.523,1.522h5.669
	C46.125,31.451,46.805,30.769,46.805,29.928L46.805,29.928z"/>
<circle fill="#DFEAF6" stroke="#5E808A" stroke-width="0.4613" stroke-linecap="round" stroke-linejoin="round" cx="40.528" cy="25.345" r="1.88"/>
<circle fill="#DFEAF6" stroke="#5E808A" stroke-width="0.4613" stroke-linecap="round" stroke-linejoin="round" cx="44.403" cy="25.345" r="1.88"/>
<path fill="#FCED00" d="M62.661,31.176c-0.547-0.07-0.938-0.571-0.865-1.117l0,0c0.104-0.823,0.158-1.659,0.158-2.509l0,0
	C61.932,16.73,53.18,7.979,42.361,7.958l0,0C31.54,7.979,22.788,16.729,22.766,27.55l0,0c0,0.79,0.047,1.567,0.141,2.334l0,0
	c0.065,0.547-0.326,1.047-0.876,1.112l0,0c-0.55,0.064-1.044-0.329-1.11-0.877l0,0c-0.1-0.842-0.153-1.702-0.153-2.569l0,0
	c0-11.926,9.67-21.592,21.595-21.593l0,0c11.924,0.001,21.59,9.667,21.594,21.593l0,0c0,0.938-0.063,1.855-0.176,2.76l0,0
	c-0.066,0.506-0.494,0.874-0.992,0.874l0,0C62.745,31.184,62.704,31.181,62.661,31.176L62.661,31.176z"/>
<path fill="#FCED00" stroke="#BB9B11" stroke-width="0.4613" stroke-linecap="round" stroke-linejoin="round" d="M62.661,31.176
	c-0.547-0.07-0.938-0.571-0.865-1.117l0,0c0.104-0.823,0.158-1.659,0.158-2.509l0,0C61.932,16.73,53.18,7.979,42.361,7.958l0,0
	C31.54,7.979,22.788,16.729,22.766,27.55l0,0c0,0.79,0.047,1.567,0.141,2.334l0,0c0.065,0.547-0.326,1.047-0.876,1.112l0,0
	c-0.55,0.064-1.044-0.329-1.11-0.877l0,0c-0.1-0.842-0.153-1.702-0.153-2.569l0,0c0-11.926,9.67-21.592,21.595-21.593l0,0
	c11.924,0.001,21.59,9.667,21.594,21.593l0,0c0,0.938-0.063,1.855-0.176,2.76l0,0c-0.066,0.506-0.494,0.874-0.992,0.874l0,0
	C62.745,31.184,62.704,31.181,62.661,31.176L62.661,31.176z"/>
<path fill="#F7DA00" d="M42.361,7.042C31.038,7.043,21.86,16.795,21.86,28.826c0,0.622,0.036,1.234,0.086,1.842
	c0.015-0.002,0.028-0.002,0.047-0.004c0.336-0.041,0.586-0.33,0.586-0.664c0-0.029,0-0.053-0.004-0.074
	c-0.092-0.779-0.143-1.572-0.143-2.375c0.019-11.006,8.921-19.905,19.929-19.924c11.005,0.019,19.903,8.918,19.927,19.924
	c0,0.863-0.059,1.714-0.166,2.564c-0.002,0.014-0.006,0.039-0.006,0.07c0,0.33,0.244,0.616,0.586,0.659l-0.043,0.331l0.043-0.331
	c0.021,0.004,0.041,0.004,0.059,0.004c0.063-0.666,0.102-1.337,0.102-2.022C62.86,16.795,53.682,7.043,42.361,7.042z"/>
<circle fill="#C3DCED" stroke="#5E808A" stroke-width="0.4613" stroke-linecap="round" stroke-linejoin="round" cx="21.718" cy="27.795" r="1.597"/>
<path fill="#B2CAD9" d="M20.461,27.759c0,0.013-0.006,0.023-0.006,0.035c0.003,0.695,0.564,1.261,1.262,1.262
	c0.697-0.001,1.263-0.566,1.266-1.262c0-0.062-0.01-0.123-0.021-0.186c-0.465-0.023-0.885-0.037-1.24-0.037
	C21.216,27.572,20.804,27.644,20.461,27.759z"/>
<circle fill="#C3DCED" stroke="#5E808A" stroke-width="0.4613" stroke-linecap="round" stroke-linejoin="round" cx="63.057" cy="27.795" r="1.594"/>
<path fill="#B2CAD9" d="M61.797,27.759c0,0.013,0,0.023,0,0.035c0,0.695,0.563,1.261,1.262,1.262c0.697-0.001,1.26-0.566,1.26-1.262
	c0-0.062-0.01-0.123-0.018-0.186c-0.465-0.023-0.889-0.037-1.242-0.037C62.557,27.572,62.147,27.644,61.797,27.759z"/>
<path fill="#EBB2D1" d="M42.521,62.949c13.167,0,23.86-10.566,24.081-23.685c-0.25-2.255-0.414-4.552-0.459-6.833
	c0,0,0.824-3.527-2.82-3.527c-3.1,0-10.547,1.02-20.802,1.252c-10.254-0.232-17.704-1.252-20.802-1.252
	c-3.646,0-2.823,3.527-2.823,3.527c-0.045,2.285-0.21,4.582-0.462,6.844C18.662,52.388,29.358,62.949,42.521,62.949z"/>
<path fill="none" stroke="#8C4276" stroke-width="0.1845" stroke-linecap="round" stroke-linejoin="round" stroke-dasharray="0.2306,0.5996" d="
	M66.192,32.488c-0.125-1.008-0.721-2.233-2.869-2.233c-3.1,0-10.547,1.015-20.802,1.249c-10.254-0.234-17.704-1.249-20.802-1.249
	c-1.822,0-2.527,0.88-2.777,1.761"/>
<path fill="none" stroke="#8C4276" stroke-width="0.1845" stroke-linecap="round" stroke-linejoin="round" stroke-dasharray="0.2306,0.5996" d="
	M41.177,55.906c-0.295-0.305-0.504-0.662-0.679-1.057l0,0c-0.104-0.238-0.192-0.489-0.273-0.758l0,0
	c-0.104,0.098-0.21,0.19-0.313,0.278l0,0c-0.602,0.486-1.174,0.871-1.973,0.896l0,0c-0.266,0-0.567-0.061-0.831-0.217l0,0
	c-0.768-0.476-0.896-1.256-0.902-1.891l0,0c0.006-0.406,0.063-0.836,0.169-1.289l0,0c-0.451,0.109-0.882,0.165-1.287,0.168l0,0
	c-0.638-0.001-1.414-0.133-1.881-0.886l0,0c-0.163-0.272-0.226-0.583-0.225-0.845l0,0c0.026-0.803,0.408-1.373,0.893-1.973l0,0
	c0.088-0.104,0.18-0.207,0.278-0.31l0,0c-0.72-0.211-1.327-0.515-1.812-0.955l0,0c-0.296-0.287-0.572-0.729-0.572-1.271l0,0
	c0-0.539,0.276-0.981,0.572-1.269l0,0c0.308-0.299,0.659-0.502,1.058-0.679l0,0c0.235-0.104,0.487-0.194,0.755-0.273l0,0
	c-0.101-0.105-0.191-0.21-0.279-0.314l0,0c-0.484-0.598-0.865-1.172-0.893-1.969l0,0c-0.003-0.275,0.065-0.577,0.213-0.826l0,0
	c0.474-0.775,1.255-0.904,1.892-0.906l0,0c0.405,0,0.835,0.059,1.287,0.166l0,0c-0.104-0.45-0.162-0.883-0.168-1.289l0,0
	c0.006-0.637,0.14-1.414,0.894-1.881l0,0c0.271-0.161,0.575-0.225,0.841-0.223l0,0c0.799,0.025,1.372,0.41,1.973,0.893l0,0
	c0.104,0.088,0.208,0.18,0.312,0.275l0,0c0.211-0.716,0.512-1.325,0.954-1.809l0,0c0.286-0.297,0.728-0.572,1.271-0.572l0,0
	c0.54,0,0.983,0.275,1.267,0.572l0,0c0.297,0.309,0.506,0.66,0.68,1.059l0,0c0.102,0.234,0.193,0.486,0.273,0.754l0,0
	c0.105-0.1,0.207-0.191,0.313-0.279l0,0c0.6-0.482,1.172-0.867,1.973-0.893l0,0c0.271-0.002,0.57,0.064,0.834,0.219l0,0
	c0.762,0.475,0.895,1.248,0.896,1.885l0,0c-0.002,0.406-0.061,0.839-0.164,1.289l0,0c0.449-0.107,0.881-0.166,1.287-0.166l0,0
	c0.637,0,1.408,0.136,1.887,0.901l0,0c0.152,0.263,0.217,0.56,0.217,0.829l0,0c-0.023,0.799-0.41,1.373-0.893,1.971l0,0
	c-0.086,0.104-0.182,0.209-0.275,0.312l0,0c0.717,0.212,1.326,0.513,1.809,0.955l0,0c0.297,0.286,0.576,0.729,0.576,1.269l0,0
	c0,0.543-0.279,0.983-0.576,1.271l0,0c-0.305,0.296-0.66,0.503-1.059,0.679l0,0c-0.234,0.104-0.486,0.192-0.756,0.272l0,0
	c0.1,0.104,0.193,0.204,0.281,0.312l0,0c0.48,0.6,0.867,1.174,0.893,1.975l0,0c0,0.265-0.063,0.562-0.219,0.832l0,0
	c-0.477,0.763-1.248,0.896-1.885,0.896l0,0c-0.406-0.003-0.84-0.059-1.287-0.168l0,0c0.104,0.453,0.162,0.883,0.164,1.289l0,0
	c-0.002,0.635-0.133,1.41-0.91,1.895l0,0c-0.254,0.145-0.549,0.213-0.82,0.213l0,0c-0.801-0.024-1.373-0.409-1.973-0.896l0,0
	c-0.105-0.088-0.207-0.177-0.311-0.274l0,0c-0.211,0.718-0.512,1.324-0.955,1.811l0,0c-0.283,0.299-0.727,0.57-1.267,0.57l0,0
	C41.905,56.477,41.463,56.205,41.177,55.906L41.177,55.906z"/>
<path fill="#FCED00" d="M52.125,45.8c0-0.778-1.547-1.435-3.633-1.619c1.713-1.205,2.723-2.543,2.334-3.217
	c-0.389-0.676-2.053-0.471-3.953,0.411c0.881-1.898,1.086-3.564,0.412-3.955c-0.676-0.39-2.01,0.621-3.219,2.337
	c-0.186-2.09-0.842-3.631-1.617-3.631c-0.781,0-1.437,1.541-1.622,3.631c-1.206-1.716-2.544-2.727-3.22-2.337
	c-0.674,0.391-0.468,2.057,0.415,3.955c-1.902-0.882-3.567-1.087-3.956-0.411c-0.391,0.674,0.621,2.012,2.337,3.217
	c-2.091,0.186-3.634,0.841-3.634,1.619c0,0.783,1.543,1.435,3.634,1.621c-1.715,1.207-2.727,2.543-2.337,3.221
	c0.392,0.674,2.054,0.467,3.954-0.414c-0.883,1.898-1.087,3.566-0.413,3.955c0.676,0.389,2.014-0.621,3.22-2.336
	c0.187,2.086,0.841,3.631,1.622,3.631c0.775,0,1.432-1.545,1.617-3.631c1.205,1.717,2.543,2.725,3.219,2.336
	c0.674-0.389,0.469-2.057-0.412-3.955c1.898,0.881,3.564,1.088,3.953,0.414c0.389-0.678-0.621-2.014-2.334-3.221
	C50.579,47.235,52.125,46.583,52.125,45.8z"/>
<path fill="#FFFFFF" d="M45.032,45.823c0-1.427-1.156-2.583-2.582-2.583c-1.433,0-2.585,1.156-2.585,2.583
	c0,1.429,1.152,2.585,2.585,2.585C43.875,48.408,45.032,47.251,45.032,45.823z"/>
<path fill="none" stroke="#8C4276" stroke-width="0.6919" stroke-linecap="round" stroke-linejoin="round" d="M71.901,62.634
	c-1.996-5.875-5.523-18.217-5.758-30.203c0,0,0.824-3.527-2.82-3.527c-3.1,0-10.547,1.02-20.802,1.252
	c-10.254-0.232-17.704-1.252-20.802-1.252c-3.646,0-2.823,3.527-2.823,3.527c-0.234,11.986-3.76,24.328-5.759,30.203
	c-1.999,5.877-2.469,9.559-0.705,12.024c1.763,2.472,5.766,3.959,15.282,4.312c5.099,0.188,10.701,0.105,14.807-0.01
	c4.106,0.115,9.708,0.197,14.808,0.01c9.514-0.354,13.518-1.842,15.277-4.312C74.372,72.193,73.901,68.511,71.901,62.634z"/>
<path fill="none" stroke="#8C4276" stroke-width="0.1845" stroke-linecap="round" stroke-linejoin="round" stroke-dasharray="0.2306,0.5996" d="
	M11.388,70.199c0.117,1.129,0.458,2.084,1.044,2.906c1.763,2.469,5.766,3.957,15.282,4.311c5.099,0.189,10.701,0.107,14.807-0.008
	c4.106,0.115,9.708,0.197,14.808,0.008c9.514-0.354,13.518-1.842,15.277-4.311c0.527-0.738,0.857-1.584,1.002-2.566"/>
<path fill="none" stroke="#8C4276" stroke-width="0.6919" stroke-linecap="round" stroke-linejoin="round" d="M18.434,39.275
	c0.228,13.113,10.924,23.673,24.087,23.673c13.077,0,23.712-10.422,24.077-23.407"/>
<path fill="none" stroke="#8C4276" stroke-width="0.1845" stroke-linecap="round" stroke-linejoin="round" stroke-dasharray="0.2306,0.5996" d="
	M21.112,29.118c-1.261,0.958-0.817,2.908-0.817,2.908c-0.042,2.216-0.196,4.447-0.435,6.642
	c0.214,12.724,10.274,22.979,22.661,22.979c12.39,0,22.448-10.259,22.657-22.987c-0.234-2.194-0.389-4.419-0.432-6.633
	c0,0,0.479-2.115-0.982-3.019"/>
<path fill="none" stroke="#F0C8DF" stroke-width="1.1531" stroke-linecap="round" stroke-linejoin="round" d="M14.733,65.183"/>
<path fill="none" stroke="#F0C8DF" stroke-width="1.1531" stroke-linecap="round" stroke-linejoin="round" d="M13.418,71.048"/>
<ellipse fill="#FFFFFF" cx="39.88" cy="25.333" rx="0.568" ry="0.72"/>
<path fill="#FFFFFF" d="M44.469,25.333c0,0.399-0.254,0.72-0.564,0.72c-0.316,0-0.57-0.32-0.57-0.72c0-0.4,0.254-0.723,0.57-0.723
	C44.215,24.61,44.469,24.933,44.469,25.333z"/>
</svg>
