<svg version="1.1" id="svg_0_2" xmlns="http://www.w3.org/2000/svg" xmlns:xlink="http://www.w3.org/1999/xlink" x="0px" y="0px" width="85.04px" height="85.04px" viewBox="0 0 85.04 85.04" enable-background="new 0 0 85.04 85.04" xml:space="preserve">
<circle fill="#FFFFFF" stroke="#815C2D" stroke-width="0.4613" cx="39.61" cy="26.266" r="1.208"/>
<circle fill="#FFFFFF" stroke="#815C2D" stroke-width="0.4613" cx="45.491" cy="26.266" r="1.208"/>
<path fill="#FFFFFF" stroke="#815C2D" stroke-width="0.4613" d="M46.803,28.929c0-0.842-0.682-1.525-1.523-1.525h-5.672
	c-0.84,0-1.52,0.684-1.52,1.525l0,0c0,0.841,0.682,1.522,1.52,1.522h5.672C46.124,30.452,46.803,29.77,46.803,28.929L46.803,28.929z
	"/>
<circle fill="#FFFFFF" stroke="#815C2D" stroke-width="0.4613" cx="40.524" cy="24.344" r="1.883"/>
<path fill="#FFFFFF" stroke="#815C2D" stroke-width="0.4613" d="M46.284,24.345c0-1.038-0.838-1.88-1.879-1.88
	s-1.883,0.842-1.883,1.88c0,1.036,0.842,1.88,1.883,1.88C45.444,26.225,46.284,25.38,46.284,24.345z"/>
<path fill="#FCED00" stroke="#815C2D" stroke-width="0.4613" d="M62.661,30.175c-0.551-0.071-0.938-0.568-0.867-1.117l0,0
	c0.104-0.822,0.158-1.66,0.158-2.51l0,0C61.93,15.73,53.18,6.979,42.36,6.958l0,0c-10.822,0.02-19.57,8.771-19.594,19.59l0,0
	c0,0.791,0.047,1.569,0.143,2.336l0,0c0.063,0.546-0.328,1.047-0.877,1.109l0,0c-0.551,0.068-1.049-0.324-1.113-0.876l0,0
	c-0.102-0.843-0.15-1.698-0.15-2.569l0,0C20.77,14.622,30.432,4.957,42.362,4.957l0,0c11.922,0,21.59,9.665,21.592,21.592l0,0
	c0,0.938-0.063,1.859-0.178,2.761l0,0c-0.063,0.507-0.494,0.874-0.988,0.874l0,0C62.745,30.184,62.704,30.182,62.661,30.175
	L62.661,30.175z"/>
<path fill="#FFFFFF" stroke="#815C2D" stroke-width="0.4613" stroke-linecap="round" stroke-linejoin="round" d="M62.661,30.175
	c-0.551-0.071-0.938-0.568-0.867-1.117l0,0c0.104-0.822,0.158-1.66,0.158-2.51l0,0C61.93,15.73,53.18,6.979,42.36,6.958l0,0
	c-10.822,0.02-19.57,8.771-19.594,19.59l0,0c0,0.791,0.047,1.569,0.143,2.336l0,0c0.063,0.546-0.328,1.047-0.877,1.109l0,0
	c-0.551,0.068-1.049-0.324-1.113-0.876l0,0c-0.102-0.843-0.15-1.698-0.15-2.569l0,0C20.77,14.622,30.432,4.957,42.362,4.957l0,0
	c11.922,0,21.59,9.665,21.592,21.592l0,0c0,0.938-0.063,1.859-0.178,2.761l0,0c-0.063,0.507-0.494,0.874-0.988,0.874l0,0
	C62.745,30.184,62.704,30.182,62.661,30.175L62.661,30.175z"/>
<circle fill="#FFFFFF" stroke="#815C2D" stroke-width="0.4613" cx="21.717" cy="26.794" r="1.596"/>
<path fill="#FFFFFF" stroke="#815C2D" stroke-width="0.4613" d="M20.459,26.76c0,0.01-0.002,0.021-0.002,0.034
	c0,0.696,0.563,1.261,1.262,1.263c0.697-0.002,1.262-0.566,1.264-1.263c0-0.063-0.01-0.123-0.02-0.186
	c-0.469-0.022-0.889-0.038-1.244-0.038C21.215,26.571,20.805,26.645,20.459,26.76z"/>
<circle fill="#FFFFFF" stroke="#815C2D" stroke-width="0.4613" cx="63.059" cy="26.794" r="1.595"/>
<path fill="#FFFFFF" stroke="#815C2D" stroke-width="0.4613" d="M61.799,26.76c0,0.01-0.006,0.021-0.006,0.034
	c0,0.696,0.565,1.261,1.262,1.263c0.701-0.002,1.266-0.566,1.268-1.263c0-0.063-0.014-0.123-0.021-0.186
	c-0.467-0.022-0.887-0.038-1.241-0.038C62.553,26.571,62.143,26.645,61.799,26.76z"/>
<path fill="#FFFFFF" stroke="#815C2D" stroke-width="0.4613" d="M42.518,61.948c13.168,0,23.861-10.564,24.084-23.682
	c-0.252-2.26-0.416-4.553-0.459-6.834c0,0,0.82-3.527-2.82-3.527c-3.1,0-10.549,1.02-20.805,1.251
	c-10.252-0.231-17.703-1.251-20.801-1.251c-3.645,0-2.818,3.527-2.818,3.527c-0.047,2.284-0.211,4.58-0.461,6.843
	C18.665,51.385,29.354,61.948,42.518,61.948z"/>
<path fill="none" stroke="#815C2D" stroke-width="0.1845" stroke-linecap="round" stroke-linejoin="round" stroke-dasharray="0.2306,0.5996" d="
	M66.192,31.489c-0.127-1.008-0.723-2.236-2.869-2.236c-3.1,0-10.549,1.018-20.805,1.252c-10.252-0.234-17.703-1.252-20.801-1.252
	c-1.822,0-2.527,0.882-2.775,1.762"/>
<path fill="#FFFFFF" stroke="#815C2D" stroke-width="0.6919" stroke-linecap="round" stroke-linejoin="round" d="M71.901,61.635
	c-2-5.877-5.521-18.219-5.758-30.204c0,0,0.82-3.527-2.82-3.527c-3.1,0-10.549,1.02-20.805,1.251
	c-10.252-0.231-17.703-1.251-20.801-1.251c-3.645,0-2.818,3.527-2.818,3.527c-0.234,11.985-3.762,24.327-5.762,30.204
	c-1.996,5.875-2.467,9.556-0.705,12.025c1.762,2.465,5.768,3.957,15.279,4.309c5.1,0.189,10.703,0.109,14.807-0.008
	c4.105,0.117,9.707,0.195,14.811,0.008c9.514-0.352,13.519-1.844,15.277-4.309C74.37,71.191,73.899,67.51,71.901,61.635z"/>
<path fill="none" stroke="#815C2D" stroke-width="0.1845" stroke-linecap="round" stroke-linejoin="round" stroke-dasharray="0.2306,0.5996" d="
	M11.389,69.2c0.115,1.127,0.459,2.082,1.043,2.905c1.764,2.468,5.768,3.955,15.279,4.31c5.1,0.188,10.703,0.108,14.807-0.008
	c4.105,0.116,9.707,0.196,14.811,0.008c9.514-0.354,13.519-1.842,15.277-4.31c0.525-0.737,0.855-1.588,1-2.563"/>
<path fill="none" stroke="#815C2D" stroke-width="0.6919" stroke-linecap="round" stroke-linejoin="round" d="M18.438,38.274
	c0.227,13.111,10.916,23.672,24.08,23.672c13.078,0,23.713-10.42,24.076-23.408"/>
<path fill="none" stroke="#815C2D" stroke-width="0.1845" stroke-linecap="round" stroke-linejoin="round" stroke-dasharray="0.2306,0.5996" d="
	M21.112,28.119c-1.258,0.958-0.816,2.909-0.816,2.909c-0.043,2.214-0.197,4.446-0.434,6.641
	c0.211,12.725,10.27,22.977,22.656,22.977c12.393,0,22.451-10.256,22.66-22.984c-0.236-2.192-0.391-4.421-0.434-6.632
	c0,0,0.479-2.116-0.979-3.021"/>
<path fill="none" stroke="#815C2D" stroke-width="1.1531" stroke-linecap="round" stroke-linejoin="round" d="M14.737,64.181"/>
<path fill="none" stroke="#815C2D" stroke-width="1.1531" stroke-linecap="round" stroke-linejoin="round" d="M13.422,70.047"/>
<ellipse fill="#FFFFFF" stroke="#815C2D" stroke-width="0.4613" cx="39.881" cy="24.331" rx="0.568" ry="0.72"/>
<ellipse fill="#FFFFFF" stroke="#815C2D" stroke-width="0.4613" cx="43.901" cy="24.331" rx="0.566" ry="0.72"/>
<path fill="none" stroke="#815C2D" stroke-width="0.1845" stroke-linecap="round" stroke-linejoin="round" stroke-dasharray="0.2306,0.5996" d="
	M27.809,47.849c-0.221-0.228-0.375-0.491-0.506-0.788l0,0c-0.078-0.176-0.145-0.363-0.207-0.563l0,0
	c-0.078,0.071-0.15,0.144-0.23,0.207l0,0c-0.449,0.36-0.877,0.646-1.477,0.668l0,0c-0.197,0.002-0.424-0.047-0.621-0.164l0,0
	c-0.572-0.354-0.672-0.936-0.674-1.41l0,0c0.002-0.303,0.047-0.625,0.127-0.961l0,0c-0.338,0.08-0.66,0.121-0.963,0.125l0,0
	c-0.477-0.004-1.057-0.103-1.406-0.664l0,0c-0.123-0.205-0.168-0.438-0.168-0.631l0,0c0.02-0.602,0.309-1.026,0.668-1.479l0,0
	c0.064-0.074,0.135-0.15,0.207-0.229l0,0c-0.539-0.159-0.99-0.382-1.354-0.714l0,0c-0.223-0.215-0.43-0.544-0.43-0.95l0,0
	c0-0.403,0.207-0.735,0.43-0.95l0,0c0.229-0.221,0.494-0.373,0.791-0.506l0,0c0.178-0.075,0.363-0.145,0.564-0.204l0,0
	c-0.076-0.079-0.145-0.155-0.211-0.233l0,0c-0.359-0.449-0.648-0.879-0.666-1.475l0,0c0-0.206,0.049-0.432,0.158-0.615l0,0
	c0.355-0.58,0.939-0.678,1.414-0.68l0,0c0.303,0.002,0.627,0.045,0.961,0.125l0,0c-0.076-0.338-0.121-0.66-0.123-0.965l0,0
	c0.002-0.475,0.102-1.055,0.668-1.404l0,0c0.203-0.12,0.428-0.168,0.627-0.166l0,0c0.598,0.017,1.023,0.305,1.475,0.668l0,0
	c0.078,0.064,0.154,0.135,0.232,0.205l0,0c0.158-0.537,0.383-0.99,0.713-1.354l0,0c0.215-0.221,0.545-0.428,0.949-0.428l0,0
	c0.406,0,0.734,0.207,0.949,0.428l0,0c0.221,0.23,0.373,0.494,0.506,0.793l0,0c0.078,0.175,0.146,0.363,0.207,0.562l0,0
	c0.076-0.072,0.152-0.143,0.232-0.207l0,0c0.445-0.363,0.875-0.651,1.475-0.668l0,0c0.201-0.002,0.426,0.047,0.623,0.158l0,0
	c0.566,0.36,0.668,0.938,0.67,1.412l0,0c-0.002,0.305-0.047,0.627-0.125,0.965l0,0c0.34-0.08,0.66-0.123,0.965-0.125l0,0
	c0.473,0.002,1.055,0.103,1.41,0.676l0,0c0.115,0.196,0.162,0.418,0.16,0.616l0,0c-0.018,0.599-0.305,1.028-0.664,1.479l0,0
	c-0.066,0.076-0.135,0.154-0.207,0.232l0,0c0.535,0.156,0.99,0.385,1.354,0.711l0,0c0.221,0.215,0.428,0.547,0.428,0.95l0,0
	c0,0.406-0.207,0.735-0.428,0.95l0,0c-0.229,0.223-0.496,0.375-0.793,0.507l0,0c-0.174,0.077-0.363,0.144-0.564,0.203l0,0
	c0.076,0.079,0.145,0.157,0.211,0.231l0,0c0.361,0.45,0.646,0.879,0.664,1.479l0,0c0.002,0.196-0.045,0.418-0.162,0.623l0,0
	c-0.355,0.567-0.936,0.668-1.408,0.672l0,0c-0.305-0.004-0.625-0.045-0.965-0.125l0,0c0.078,0.336,0.123,0.658,0.125,0.961l0,0
	c-0.002,0.477-0.1,1.054-0.682,1.416l0,0c-0.189,0.106-0.41,0.162-0.611,0.158l0,0c-0.6-0.019-1.027-0.308-1.475-0.668l0,0
	c-0.078-0.063-0.154-0.136-0.23-0.205l0,0c-0.16,0.533-0.385,0.987-0.715,1.351l0,0c-0.215,0.224-0.543,0.431-0.949,0.431l0,0
	C28.354,48.279,28.024,48.073,27.809,47.849L27.809,47.849z"/>
<path fill="#FFFFFF" stroke="#815C2D" stroke-width="0.4613" d="M35.997,40.297c0-0.581-1.156-1.069-2.717-1.212
	c1.281-0.9,2.035-1.896,1.748-2.404c-0.295-0.504-1.537-0.352-2.957,0.309c0.656-1.42,0.811-2.664,0.307-2.956
	c-0.504-0.291-1.504,0.464-2.404,1.747c-0.143-1.563-0.631-2.717-1.213-2.717c-0.582,0-1.07,1.154-1.211,2.717
	c-0.902-1.283-1.902-2.038-2.406-1.747c-0.506,0.292-0.352,1.536,0.309,2.956c-1.42-0.658-2.662-0.813-2.957-0.309
	c-0.289,0.508,0.465,1.504,1.748,2.404c-1.561,0.143-2.717,0.631-2.717,1.212c0,0.583,1.156,1.072,2.717,1.212
	c-1.283,0.902-2.037,1.9-1.748,2.406c0.295,0.506,1.537,0.349,2.957-0.312c-0.66,1.422-0.814,2.667-0.309,2.958
	c0.504,0.292,1.504-0.464,2.406-1.746c0.141,1.563,0.629,2.715,1.211,2.715c0.582,0,1.07-1.152,1.213-2.715
	c0.9,1.282,1.9,2.038,2.404,1.746c0.506-0.291,0.352-1.533-0.307-2.958c1.42,0.66,2.664,0.815,2.955,0.312
	c0.287-0.506-0.465-1.504-1.748-2.406C34.84,41.371,35.997,40.88,35.997,40.297z"/>
<circle fill="#FFFFFF" stroke="#815C2D" stroke-width="0.4613" cx="28.76" cy="40.315" r="1.932"/>
<path fill="none" stroke="#815C2D" stroke-width="0.1845" stroke-linecap="round" stroke-linejoin="round" stroke-dasharray="0.2306,0.5996" d="
	M55.219,47.779c-0.219-0.228-0.377-0.491-0.506-0.786l0,0c-0.078-0.179-0.146-0.365-0.207-0.566l0,0
	c-0.08,0.074-0.154,0.146-0.23,0.209l0,0c-0.449,0.361-0.879,0.648-1.477,0.666l0,0c-0.199,0.005-0.424-0.047-0.623-0.159l0,0
	c-0.572-0.354-0.672-0.938-0.672-1.411l0,0c0-0.305,0.045-0.626,0.125-0.964l0,0c-0.34,0.082-0.66,0.123-0.963,0.125l0,0
	c-0.478-0.002-1.056-0.103-1.404-0.662l0,0c-0.123-0.205-0.17-0.438-0.17-0.632l0,0c0.021-0.6,0.307-1.023,0.668-1.477l0,0
	c0.064-0.076,0.137-0.152,0.205-0.229l0,0c-0.535-0.156-0.986-0.383-1.35-0.711l0,0c-0.224-0.215-0.431-0.547-0.431-0.953l0,0
	c0-0.403,0.207-0.733,0.431-0.948l0,0c0.227-0.222,0.491-0.376,0.788-0.507l0,0c0.177-0.076,0.363-0.145,0.563-0.204l0,0
	c-0.072-0.076-0.143-0.155-0.207-0.233l0,0c-0.363-0.449-0.648-0.88-0.668-1.475l0,0c-0.002-0.205,0.051-0.43,0.162-0.615l0,0
	c0.354-0.582,0.936-0.679,1.412-0.682l0,0c0.303,0.003,0.621,0.046,0.963,0.127l0,0c-0.08-0.338-0.125-0.658-0.125-0.965l0,0
	c0-0.474,0.102-1.055,0.664-1.402l0,0c0.205-0.123,0.432-0.17,0.631-0.168l0,0c0.598,0.018,1.025,0.305,1.475,0.667l0,0
	c0.078,0.065,0.152,0.134,0.232,0.206l0,0c0.158-0.537,0.381-0.99,0.713-1.354l0,0c0.215-0.221,0.545-0.428,0.949-0.428l0,0
	c0.403,0,0.733,0.207,0.951,0.428l0,0c0.219,0.23,0.371,0.494,0.504,0.793l0,0c0.076,0.175,0.145,0.362,0.205,0.563l0,0
	c0.078-0.074,0.155-0.143,0.233-0.208l0,0c0.444-0.362,0.875-0.649,1.476-0.667l0,0c0.2-0.002,0.428,0.045,0.621,0.16l0,0
	c0.565,0.357,0.668,0.937,0.67,1.41l0,0c0,0.307-0.043,0.627-0.125,0.965l0,0c0.34-0.081,0.662-0.124,0.965-0.127l0,0
	c0.475,0.003,1.057,0.105,1.412,0.678l0,0c0.114,0.197,0.16,0.418,0.16,0.617l0,0c-0.021,0.597-0.308,1.027-0.669,1.477l0,0
	c-0.063,0.076-0.135,0.155-0.204,0.231l0,0c0.536,0.157,0.991,0.383,1.354,0.713l0,0c0.223,0.215,0.43,0.545,0.43,0.948l0,0
	c0,0.406-0.207,0.738-0.43,0.953l0,0c-0.23,0.221-0.494,0.372-0.793,0.506l0,0c-0.176,0.075-0.359,0.144-0.563,0.203l0,0
	c0.073,0.078,0.143,0.155,0.206,0.231l0,0c0.363,0.451,0.648,0.877,0.669,1.477l0,0c0,0.197-0.046,0.42-0.162,0.624l0,0
	c-0.357,0.567-0.937,0.668-1.41,0.67l0,0c-0.303-0.002-0.625-0.043-0.965-0.125l0,0c0.082,0.338,0.125,0.657,0.125,0.964l0,0
	c-0.002,0.475-0.101,1.055-0.681,1.415l0,0c-0.188,0.104-0.41,0.16-0.61,0.155l0,0c-0.601-0.018-1.027-0.305-1.476-0.666l0,0
	c-0.078-0.063-0.153-0.135-0.231-0.204l0,0c-0.158,0.534-0.386,0.989-0.711,1.351l0,0c-0.218,0.225-0.548,0.43-0.951,0.43l0,0
	C55.764,48.208,55.434,48,55.219,47.779L55.219,47.779z"/>
<path fill="#FFFFFF" stroke="#815C2D" stroke-width="0.4613" d="M63.407,40.227c0-0.58-1.156-1.069-2.719-1.209
	c1.281-0.902,2.037-1.901,1.746-2.405c-0.291-0.506-1.537-0.351-2.955,0.31c0.656-1.422,0.813-2.668,0.309-2.959
	c-0.506-0.291-1.504,0.462-2.406,1.747c-0.139-1.562-0.629-2.716-1.211-2.716s-1.069,1.153-1.211,2.716
	c-0.901-1.282-1.901-2.038-2.403-1.747c-0.507,0.291-0.354,1.537,0.307,2.959c-1.422-0.66-2.666-0.815-2.957-0.31
	c-0.288,0.504,0.466,1.503,1.746,2.405c-1.56,0.14-2.713,0.629-2.713,1.209c0,0.586,1.153,1.074,2.713,1.215
	c-1.28,0.9-2.034,1.9-1.746,2.404c0.294,0.504,1.535,0.35,2.957-0.309c-0.659,1.42-0.813,2.664-0.307,2.955
	c0.504,0.291,1.502-0.466,2.403-1.744c0.142,1.561,0.629,2.713,1.211,2.713s1.07-1.152,1.211-2.713
	c0.902,1.278,1.9,2.035,2.406,1.744c0.504-0.291,0.351-1.533-0.309-2.955c1.418,0.657,2.664,0.812,2.953,0.309
	c0.291-0.504-0.463-1.504-1.746-2.404C62.25,41.3,63.407,40.813,63.407,40.227z"/>
<path fill="#FFFFFF" stroke="#815C2D" stroke-width="0.4613" d="M58.1,40.247c0-1.07-0.861-1.934-1.932-1.934
	c-1.068,0-1.935,0.863-1.935,1.934c0,1.064,0.865,1.932,1.935,1.932C57.239,42.178,58.1,41.311,58.1,40.247z"/>
	
	<g id="clickMark_0_2" class="none">
		<path fill="#FFFFFF" d="M83.975,42.521c0,22.892-18.561,41.454-41.458,41.454c-22.893,0-41.453-18.562-41.453-41.454 C1.065,19.623,19.625,1.064,42.519,1.064C65.415,1.064,83.975,19.623,83.975,42.521z" />
		<path fill="none" stroke="#000000" stroke-width="0.9447" d="M42.519,73.262c16.977,0,30.746-13.76,30.746-30.741 c0-16.98-13.769-30.74-30.746-30.74c-16.979,0-30.743,13.76-30.743,30.74C11.774,59.502,25.54,73.262,42.519,73.262z" />
		<path fill="#D7DF23" d="M42.519,73.262c16.977,0,30.746-13.76,30.746-30.741c0-16.98-13.769-30.74-30.746-30.74 c-16.979,0-30.743,13.76-30.743,30.74C11.774,59.502,25.54,73.262,42.519,73.262" />
		<path fill="none" stroke="#000000" stroke-width="0.8879" d="M42.519,73.262c16.977,0,30.746-13.76,30.746-30.741 c0-16.98-13.769-30.74-30.746-30.74c-16.979,0-30.743,13.76-30.743,30.74C11.774,59.502,25.54,73.262,42.519,73.262" />
		<path fill="#ED1C24" d="M58.706,24.476c0.098,0.837-0.395,1.623-1.477,2.36c-1.377,0.983-2.213,1.721-2.508,2.211l-8.408,14.606 l7.08,13.721c0.1,0.148,0.615,0.91,1.549,2.287c0.591,0.838,0.886,1.6,0.886,2.287c0,0.395-0.071,0.789-0.222,1.182 c-0.836,2.113-2.387,3.172-4.646,3.172c-0.937,0-1.846-0.197-2.731-0.592c-1.229-0.541-1.904-1.242-2.027-2.102 c-0.122-0.861-0.232-1.707-0.332-2.545l-3.982-9.888l-4.424,8.854c-0.295,0.982-0.64,1.953-1.033,2.914 c-0.395,0.959-1.157,1.437-2.287,1.437c-1.428,0-2.804-0.491-4.131-1.476c-1.426-1.131-2.041-2.383-1.844-3.762 c0.097-0.541,0.429-1.115,0.995-1.733c0.565-0.615,0.922-1.068,1.071-1.363l6.492-11.806l-4.577-14.306 c-0.147-0.493-0.626-1.096-1.438-1.808s-1.268-1.387-1.364-2.028c-0.148-1.13,0.539-2.139,2.065-3.024 c1.376-0.737,2.851-1.107,4.427-1.107c0.886,0,1.573,0.148,2.066,0.441c1.081,0.692,1.743,1.563,1.989,2.62 c0.245,1.059,0.468,2.104,0.664,3.135l2.212,6.934l4.869-8.706c0.442-0.934,0.924-1.891,1.438-2.876 c0.519-0.985,1.216-1.646,2.103-1.991c0.539-0.247,1.154-0.37,1.844-0.37c1.279,0,2.521,0.356,3.726,1.071 C57.954,22.938,58.606,23.689,58.706,24.476z" />
	</g>
</svg>
