<svg version="1.1" id="svg_0_v" valid="1" xmlns="http://www.w3.org/2000/svg" xmlns:xlink="http://www.w3.org/1999/xlink" x="0px" y="0px"
	 width="85.04px" height="85.04px" viewBox="0 0 85.04 85.04" enable-background="new 0 0 85.04 85.04" xml:space="preserve">
<path fill="#FFFFFF" stroke="#815C2D" stroke-width="0.5" stroke-linecap="round" stroke-linejoin="round" d="M71.901,62.633
	c-1.996-5.875-5.523-18.217-5.758-30.202c0,0,0.824-3.527-2.82-3.527c-3.1,0-10.547,1.02-20.802,1.252
	c-10.254-0.232-17.704-1.252-20.802-1.252c-3.646,0-2.823,3.527-2.823,3.527c-0.234,11.985-3.76,24.327-5.759,30.202
	c-1.999,5.877-2.469,9.56-0.705,12.025c1.763,2.471,5.766,3.959,15.282,4.312c5.099,0.188,10.701,0.104,14.807-0.011
	c4.106,0.115,9.708,0.197,14.808,0.011c9.514-0.354,13.52-1.843,15.277-4.312C74.372,72.193,73.901,68.51,71.901,62.633z"/>
	 	 
<path fill="#FFFFFF" toFill="#C3DCED" stroke="#815C2D" stroke-width="0.5" stroke-linecap="round" stroke-linejoin="round" d="M40.82,27.266
	c0-0.669-0.544-1.208-1.207-1.208c-0.668,0-1.209,0.539-1.209,1.208c0,0.667,0.541,1.209,1.209,1.209
	C40.277,28.475,40.82,27.933,40.82,27.266z"/>
<circle fill="#FFFFFF" toFill="#C3DCED" stroke="#815C2D" stroke-width="0.5" stroke-linecap="round" stroke-linejoin="round" cx="45.493" cy="27.266" r="1.207"/>
<path fill="#FFFFFF" toFill="#C3DCED" stroke="#815C2D" stroke-width="0.5" stroke-linecap="round" stroke-linejoin="round" d="M46.805,29.928
	c0-0.842-0.682-1.522-1.523-1.522h-5.669c-0.843,0-1.523,0.681-1.523,1.522l0,0c0,0.841,0.682,1.522,1.523,1.522h5.669
	C46.125,31.451,46.805,30.769,46.805,29.928L46.805,29.928z"/>
<circle fill="#FFFFFF" toFill="#DFEAF6" stroke="#815C2D" stroke-width="0.5" stroke-linecap="round" stroke-linejoin="round" cx="40.528" cy="25.345" r="1.88"/>
<circle fill="#FFFFFF" toFill="#DFEAF6" stroke="#815C2D" stroke-width="0.5" stroke-linecap="round" stroke-linejoin="round" cx="44.403" cy="25.345" r="1.88"/>
<path fill="#FFFFFF" toFill="#FCED00" d="M62.661,31.176c-0.547-0.07-0.938-0.571-0.865-1.117l0,0c0.104-0.823,0.158-1.659,0.158-2.509l0,0
	C61.932,16.73,53.18,7.979,42.361,7.958l0,0C31.54,7.979,22.788,16.729,22.766,27.55l0,0c0,0.79,0.047,1.567,0.141,2.334l0,0
	c0.065,0.547-0.326,1.047-0.876,1.112l0,0c-0.55,0.064-1.044-0.329-1.11-0.877l0,0c-0.1-0.842-0.153-1.702-0.153-2.569l0,0
	c0-11.926,9.67-21.592,21.595-21.593l0,0c11.925,0.001,21.591,9.667,21.595,21.593l0,0c0,0.938-0.062,1.855-0.176,2.76l0,0
	c-0.066,0.506-0.494,0.874-0.992,0.874l0,0C62.745,31.184,62.704,31.181,62.661,31.176L62.661,31.176z"/>
<path fill="#FFFFFF" toFill="#FCED00" stroke="#815C2D" stroke-width="0.5" stroke-linecap="round" stroke-linejoin="round" d="M62.661,31.176
	c-0.547-0.07-0.938-0.571-0.865-1.117l0,0c0.104-0.823,0.158-1.659,0.158-2.509l0,0C61.932,16.73,53.18,7.979,42.361,7.958l0,0
	C31.54,7.979,22.788,16.729,22.766,27.55l0,0c0,0.79,0.047,1.567,0.141,2.334l0,0c0.065,0.547-0.326,1.047-0.876,1.112l0,0
	c-0.55,0.064-1.044-0.329-1.11-0.877l0,0c-0.1-0.842-0.153-1.702-0.153-2.569l0,0c0-11.926,9.67-21.592,21.595-21.593l0,0
	c11.925,0.001,21.591,9.667,21.595,21.593l0,0c0,0.938-0.062,1.855-0.176,2.76l0,0c-0.066,0.506-0.494,0.874-0.992,0.874l0,0
	C62.745,31.184,62.704,31.181,62.661,31.176L62.661,31.176z"/>
<circle fill="#FFFFFF" toFill="#C3DCED" stroke="#815C2D" stroke-width="0.5" stroke-linecap="round" stroke-linejoin="round" cx="21.718" cy="27.795" r="1.597"/>
<circle fill="#FFFFFF" toFill="#C3DCED" stroke="#815C2D" stroke-width="0.5" stroke-linecap="round" stroke-linejoin="round" cx="63.057" cy="27.795" r="1.594"/>
<path fill="#FFFFFF" toFill="#EBB2D1" stroke="#815C2D" stroke-width="0.5" stroke-miterlimit="10" d="M42.521,62.95
	c13.167,0,23.86-10.566,24.081-23.686c-0.25-2.255-0.414-4.552-0.459-6.833c0,0,0.824-3.527-2.82-3.527
	c-3.1,0-10.547,1.02-20.802,1.252c-10.254-0.232-17.704-1.252-20.802-1.252c-3.646,0-2.823,3.527-2.823,3.527
	c-0.045,2.285-0.21,4.582-0.462,6.844C18.662,52.388,29.358,62.95,42.521,62.95z"/>
<path fill="#FFFFFF" toFill="#FCED00" stroke="#815C2D" stroke-width="0.5" stroke-linecap="round" stroke-linejoin="round" d="M52.125,45.799
	c0-0.777-1.547-1.434-3.633-1.618c1.713-1.205,2.723-2.543,2.334-3.217c-0.391-0.676-2.055-0.471-3.953,0.411
	c0.881-1.898,1.086-3.564,0.412-3.955c-0.678-0.39-2.012,0.621-3.221,2.337c-0.188-2.09-0.842-3.631-1.617-3.631
	c-0.781,0-1.438,1.541-1.622,3.631c-1.206-1.716-2.544-2.727-3.22-2.337c-0.674,0.391-0.468,2.057,0.415,3.955
	c-1.902-0.882-3.567-1.087-3.956-0.411c-0.391,0.674,0.621,2.012,2.337,3.217c-2.091,0.187-3.634,0.841-3.634,1.618
	c0,0.783,1.543,1.436,3.634,1.621c-1.715,1.207-2.727,2.543-2.337,3.222c0.392,0.674,2.054,0.467,3.954-0.414
	c-0.883,1.897-1.087,3.565-0.413,3.955c0.676,0.389,2.014-0.621,3.22-2.336c0.187,2.086,0.841,3.631,1.622,3.631
	c0.775,0,1.431-1.545,1.617-3.631c1.205,1.717,2.543,2.725,3.221,2.336c0.674-0.39,0.469-2.058-0.412-3.955
	c1.896,0.881,3.562,1.088,3.953,0.414c0.389-0.679-0.621-2.015-2.334-3.222C50.579,47.235,52.125,46.583,52.125,45.799z"/>
<path fill="#FFFFFF" toFill="#FFFFFF" stroke="#815C2D" stroke-width="0.5" stroke-miterlimit="10" d="M45.032,45.823
	c0-1.427-1.156-2.582-2.582-2.582c-1.433,0-2.585,1.155-2.585,2.582c0,1.43,1.152,2.586,2.585,2.586
	C43.875,48.409,45.032,47.25,45.032,45.823z"/>

<path fill="none" stroke="#815C2D" stroke-width="0.5" stroke-linecap="round" stroke-linejoin="round" stroke-dasharray="0.2306,0.5996" d="
	M11.388,70.2c0.117,1.129,0.458,2.084,1.044,2.905c1.763,2.47,5.766,3.957,15.282,4.312c5.099,0.188,10.701,0.106,14.807-0.008
	c4.106,0.114,9.708,0.196,14.808,0.008c9.514-0.354,13.52-1.842,15.277-4.312c0.527-0.737,0.857-1.584,1.002-2.565"/>
<path fill="none" stroke="#F0C8DF" stroke-width="0.5" stroke-linecap="round" stroke-linejoin="round" d="M14.733,65.183"/>
<path fill="none" stroke="#F0C8DF" stroke-width="0.5" stroke-linecap="round" stroke-linejoin="round" d="M13.418,71.047"/>

	<g id="clickMark_0_v" class="none">
		<path fill="#FFFFFF" d="M83.978,42.521c0,22.892-18.561,41.454-41.459,41.454c-22.895,0-41.457-18.562-41.457-41.454 c0-22.899,18.562-41.457,41.457-41.457C65.417,1.064,83.978,19.623,83.978,42.521z" />
		<path fill="none" stroke="#000000" stroke-width="0.9447" d="M42.519,73.262c16.982,0,30.749-13.76,30.749-30.741 c0-16.98-13.767-30.74-30.749-30.74c-16.981,0-30.745,13.76-30.745,30.74C11.772,59.502,25.537,73.262,42.519,73.262z" />
		<path fill="#D7DF23" stroke="#000000" stroke-width="0.8879" d="M42.519,73.262c16.982,0,30.749-13.76,30.749-30.741 c0-16.98-13.767-30.74-30.749-30.74c-16.981,0-30.745,13.76-30.745,30.74C11.772,59.502,25.537,73.262,42.519,73.262" />
		<path fill="#009444" d="M61.976,26.239c0,0.923-0.524,1.787-1.572,2.587c-1.356,1.11-2.188,1.91-2.495,2.403L43.209,54.614 c-1.108,1.972-2.188,3.943-3.236,5.912c-1.724,2.527-3.481,3.789-5.268,3.789c-0.8,0-1.617-0.229-2.447-0.692 c-0.833-0.459-1.312-1.338-1.435-2.634c-0.246-1.786-0.493-2.926-0.739-3.418l-4.621-9.43c-0.185-0.369-1.017-1.416-2.496-3.143 c-0.864-1.109-1.202-2.277-1.015-3.511c0.185-1.54,0.891-2.895,2.126-4.066c1.229-1.17,2.555-1.755,3.972-1.755 c0.616,0,1.234,0.122,1.849,0.368c0.309,0.125,0.741,0.958,1.294,2.496c0.74,2.095,1.265,3.482,1.572,4.159l3.326,6.192 l13.405-21.719c0.678-1.293,1.354-2.618,2.035-3.975c0.983-1.355,2.187-2.033,3.604-2.033c1.537,0,3.064,0.555,4.574,1.666 C61.218,23.93,61.976,25.067,61.976,26.239z" />
	</g>
</svg>
