<svg version="1.1" id="svg_1_0" xmlns="http://www.w3.org/2000/svg" xmlns:xlink="http://www.w3.org/1999/xlink" x="0px" y="0px" width="85.04px" height="85.04px" viewBox="0 0 85.04 85.04" enable-background="new 0 0 85.04 85.04" xml:space="preserve">
<path fill="#FFFFFF" stroke="#815C2D" stroke-width="0.1698" stroke-linecap="round" stroke-linejoin="round" d="M24.783,49.165
	c0,0-14.285,9.852-14.531,14.531c0,0,5.546-3.963,4.927-0.246c-0.246,1.478-6.403,9.11-5.911,11.573c0,0,9.605-7.771,9.605-3.938
	c0,1.476-0.738,3.693-1.971,4.187c-1.231,0.491,8.62-1.973,9.851-8.867c0,0-0.492,4.187-0.738,5.172
	c-0.247,0.984,9.358-7.144,10.343-11.329C37.341,56.062,28.723,44.978,24.783,49.165z"/>
<path fill="#FFFFFF" stroke="#815C2D" stroke-width="0.3397" stroke-linecap="round" stroke-linejoin="round" d="M40.545,42.761
	c0,0,20.028,15.437,15.433,25.287c-4.596,9.848-21.673,16.087-21.673,16.087s-5.255-0.656,0-4.595
	c5.254-3.94,15.106-10.835,6.568-16.418C32.335,57.538,40.545,42.761,40.545,42.761z"/>
<path fill="#FFFFFF" stroke="#815C2D" stroke-width="0.3397" stroke-linecap="round" stroke-linejoin="round" d="M44.239,46.947
	c0,0-15.433-20.027-25.284-15.43C9.104,36.112,2.864,53.186,2.864,53.186s0.657,5.254,4.598,0s10.835-15.105,16.419-6.567
	C29.461,55.156,44.239,46.947,44.239,46.947z"/>
<path fill="#FFFFFF" stroke="#815C2D" stroke-width="0.3397" stroke-linecap="round" stroke-linejoin="round" d="M24.126,39.477
	c0,0,3.94,12.478,21.673,20.358c0,0,47.777-42.52,33.822-56.476C65.664-10.596,24.126,39.477,24.126,39.477z"/>
<path fill="#FFFFFF" stroke="#815C2D" stroke-width="0.3397" stroke-linecap="round" stroke-linejoin="round" d="M45.799,59.835
	c0,0-15.188-7.634-21.673-20.358l-3.284,6.485c0,0,7.143,11.822,18.717,17.485L45.799,59.835z"/>
<path fill="#FFFFFF" stroke="#815C2D" stroke-width="0.3397" stroke-linecap="round" stroke-linejoin="round" d="M29.461,51.136
	l6.403-5.174c0,0,2.217-0.738,2.217,0.247s-19.21,23.396-20.44,22.903C16.409,68.622,28.723,50.643,29.461,51.136z"/>
<path fill="#FFFFFF" stroke="#815C2D" stroke-width="0.1698" stroke-linecap="round" stroke-linejoin="round" d="M50.48,12.968
	c0,0,1.951,11.136,21.021,19.551l-4.254,4.947c0,0-15.766-7.669-21.271-20.292L50.48,12.968z"/>
<path fill="#FFFFFF" stroke="#815C2D" stroke-width="0.1698" stroke-linecap="round" stroke-linejoin="round" d="M48.566,14.607
	c0,0,1.978,11.363,21.296,19.949l-4.309,5.048c0,0-15.973-7.826-21.552-20.705L48.566,14.607z"/>
<circle fill="#FFFFFF" stroke="#815C2D" stroke-width="0.1698" stroke-linecap="round" stroke-linejoin="round" cx="47.305" cy="19.576" r="1.108"/>
<circle fill="#FFFFFF" stroke="#815C2D" stroke-width="0.1698" stroke-linecap="round" stroke-linejoin="round" cx="51.018" cy="24.841" r="1.108"/>
<circle fill="#FFFFFF" stroke="#815C2D" stroke-width="0.1698" stroke-linecap="round" stroke-linejoin="round" cx="55.174" cy="28.997" r="1.108"/>
<circle fill="#FFFFFF" stroke="#815C2D" stroke-width="0.1698" stroke-linecap="round" stroke-linejoin="round" cx="63.322" cy="35.148" r="1.108"/>
<path fill="#FFFFFF" stroke="#815C2D" stroke-width="0.1698" stroke-linecap="round" stroke-linejoin="round" d="M64.652,39.8
	c0,0-17.791,17.791-18.456,18.29l-1.497-0.499l18.789-18.29L64.652,39.8z"/>
<path fill="#FFFFFF" stroke="#815C2D" stroke-width="0.3397" stroke-linecap="round" stroke-linejoin="round" d="M81.612,9.877
	c0,0-1.165,10.641-10.31,21.282l-0.997-0.498c0,0,9.976-12.303,10.309-20.783C80.614,9.877,80.946,9.71,81.612,9.877z"/>
<path fill="#FFFFFF" stroke="#815C2D" stroke-width="0.1698" stroke-linecap="round" stroke-linejoin="round" d="M64.652,39.8
	c0,0-17.791,17.791-18.456,18.29l-1.497-0.499l18.789-18.29L64.652,39.8z"/>
<path fill="#FFFFFF" stroke="#815C2D" stroke-width="0.1698" stroke-linecap="round" stroke-linejoin="round" d="M81.612,9.877
	c0,0-1.165,10.641-10.31,21.282l-0.997-0.498c0,0,9.976-12.303,10.309-20.783C80.614,9.877,80.946,9.71,81.612,9.877z"/>
	
	<g id="clickMark_1_0" class="none">
		<path fill="#FFFFFF" d="M83.975,42.521c0,22.892-18.561,41.454-41.458,41.454c-22.893,0-41.453-18.562-41.453-41.454 C1.065,19.623,19.625,1.064,42.519,1.064C65.415,1.064,83.975,19.623,83.975,42.521z" />
		<path fill="none" stroke="#000000" stroke-width="0.9447" d="M42.519,73.262c16.977,0,30.746-13.76,30.746-30.741 c0-16.98-13.769-30.74-30.746-30.74c-16.979,0-30.743,13.76-30.743,30.74C11.774,59.502,25.54,73.262,42.519,73.262z" />
		<path fill="#D7DF23" d="M42.519,73.262c16.977,0,30.746-13.76,30.746-30.741c0-16.98-13.769-30.74-30.746-30.74 c-16.979,0-30.743,13.76-30.743,30.74C11.774,59.502,25.54,73.262,42.519,73.262" />
		<path fill="none" stroke="#000000" stroke-width="0.8879" d="M42.519,73.262c16.977,0,30.746-13.76,30.746-30.741 c0-16.98-13.769-30.74-30.746-30.74c-16.979,0-30.743,13.76-30.743,30.74C11.774,59.502,25.54,73.262,42.519,73.262" />
		<path fill="#ED1C24" d="M58.706,24.476c0.098,0.837-0.395,1.623-1.477,2.36c-1.377,0.983-2.213,1.721-2.508,2.211l-8.408,14.606 l7.08,13.721c0.1,0.148,0.615,0.91,1.549,2.287c0.591,0.838,0.886,1.6,0.886,2.287c0,0.395-0.071,0.789-0.222,1.182 c-0.836,2.113-2.387,3.172-4.646,3.172c-0.937,0-1.846-0.197-2.731-0.592c-1.229-0.541-1.904-1.242-2.027-2.102 c-0.122-0.861-0.232-1.707-0.332-2.545l-3.982-9.888l-4.424,8.854c-0.295,0.982-0.64,1.953-1.033,2.914 c-0.395,0.959-1.157,1.437-2.287,1.437c-1.428,0-2.804-0.491-4.131-1.476c-1.426-1.131-2.041-2.383-1.844-3.762 c0.097-0.541,0.429-1.115,0.995-1.733c0.565-0.615,0.922-1.068,1.071-1.363l6.492-11.806l-4.577-14.306 c-0.147-0.493-0.626-1.096-1.438-1.808s-1.268-1.387-1.364-2.028c-0.148-1.13,0.539-2.139,2.065-3.024 c1.376-0.737,2.851-1.107,4.427-1.107c0.886,0,1.573,0.148,2.066,0.441c1.081,0.692,1.743,1.563,1.989,2.62 c0.245,1.059,0.468,2.104,0.664,3.135l2.212,6.934l4.869-8.706c0.442-0.934,0.924-1.891,1.438-2.876 c0.519-0.985,1.216-1.646,2.103-1.991c0.539-0.247,1.154-0.37,1.844-0.37c1.279,0,2.521,0.356,3.726,1.071 C57.954,22.938,58.606,23.689,58.706,24.476z" />
	</g>
</svg>
