<svg version="1.1" id="svg_1_2" xmlns="http://www.w3.org/2000/svg" xmlns:xlink="http://www.w3.org/1999/xlink" x="0px" y="0px"
	 width="85.04px" height="85.04px" viewBox="0 0 85.04 85.04" enable-background="new 0 0 85.04 85.04" xml:space="preserve">
<path fill="#FFFFFF" stroke="#815C2D" stroke-width="0.1698" stroke-linecap="round" stroke-linejoin="round" d="M24.783,49.165
	c0,0-14.285,9.852-14.531,14.531c0,0,5.546-3.963,4.927-0.246c-0.246,1.478-6.403,9.11-5.911,11.573c0,0,9.605-7.771,9.605-3.938
	c0,1.476-0.738,3.693-1.971,4.187c-1.231,0.491,8.62-1.973,9.851-8.867c0,0-0.492,4.187-0.738,5.172
	c-0.247,0.984,9.358-7.144,10.343-11.329C37.341,56.062,28.723,44.978,24.783,49.165z"/>
<path fill="#FFFFFF" stroke="#815C2D" stroke-width="0.3397" stroke-linecap="round" stroke-linejoin="round" d="M40.545,42.761
	c0,0,20.028,15.437,15.433,25.287c-4.596,9.848-21.673,16.087-21.673,16.087s-5.255-0.656,0-4.595
	c5.254-3.94,15.106-10.835,6.568-16.418C32.335,57.538,40.545,42.761,40.545,42.761z"/>
<path fill="#FFFFFF" stroke="#815C2D" stroke-width="0.3397" stroke-linecap="round" stroke-linejoin="round" d="M44.239,46.947
	c0,0-15.433-20.027-25.284-15.43C9.104,36.112,2.864,53.186,2.864,53.186s0.657,5.254,4.598,0s10.835-15.105,16.419-6.567
	C29.461,55.156,44.239,46.947,44.239,46.947z"/>
<path fill="#FFFFFF" stroke="#815C2D" stroke-width="0.3397" stroke-linecap="round" stroke-linejoin="round" d="M24.126,39.477
	c0,0,3.94,12.478,21.673,20.358c0,0,47.777-42.52,33.822-56.476C65.664-10.596,24.126,39.477,24.126,39.477z"/>
<path fill="#FFFFFF" stroke="#815C2D" stroke-width="0.3397" stroke-linecap="round" stroke-linejoin="round" d="M45.799,59.835
	c0,0-15.188-7.634-21.673-20.358l-3.284,6.485c0,0,7.143,11.822,18.717,17.485L45.799,59.835z"/>
<path fill="#FFFFFF" stroke="#815C2D" stroke-width="0.3397" stroke-linecap="round" stroke-linejoin="round" d="M29.461,51.136
	l6.403-5.174c0,0,2.217-0.738,2.217,0.247s-19.21,23.396-20.44,22.903C16.409,68.622,28.723,50.643,29.461,51.136z"/>
<path fill="#FFFFFF" stroke="#815C2D" stroke-width="0.1698" stroke-linecap="round" stroke-linejoin="round" d="M50.48,12.968
	c0,0,1.951,11.136,21.021,19.551l-4.254,4.947c0,0-15.766-7.669-21.271-20.292L50.48,12.968z"/>
<path fill="#FFFFFF" stroke="#815C2D" stroke-width="0.1698" stroke-linecap="round" stroke-linejoin="round" d="M48.566,14.607
	c0,0,1.978,11.363,21.296,19.949l-4.309,5.048c0,0-15.973-7.826-21.552-20.705L48.566,14.607z"/>
<circle fill="#FFFFFF" stroke="#815C2D" stroke-width="0.1698" stroke-linecap="round" stroke-linejoin="round" cx="47.305" cy="19.576" r="1.108"/>
<circle fill="#FFFFFF" stroke="#815C2D" stroke-width="0.1698" stroke-linecap="round" stroke-linejoin="round" cx="51.018" cy="24.841" r="1.108"/>
<circle fill="#FFFFFF" stroke="#815C2D" stroke-width="0.1698" stroke-linecap="round" stroke-linejoin="round" cx="55.174" cy="28.997" r="1.108"/>
<circle fill="#FFFFFF" stroke="#815C2D" stroke-width="0.1698" stroke-linecap="round" stroke-linejoin="round" cx="63.322" cy="35.148" r="1.108"/>
<path fill="#FFFFFF" stroke="#815C2D" stroke-width="0.1698" stroke-linecap="round" stroke-linejoin="round" d="M64.652,39.8
	c0,0-17.791,17.791-18.456,18.29l-1.497-0.499l18.789-18.29L64.652,39.8z"/>
<path fill="#FFFFFF" stroke="#815C2D" stroke-width="0.3397" stroke-linecap="round" stroke-linejoin="round" d="M81.612,9.877
	c0,0-1.165,10.641-10.31,21.282l-0.997-0.498c0,0,9.976-12.303,10.309-20.783C80.614,9.877,80.946,9.71,81.612,9.877z"/>
<path fill="#FFFFFF" stroke="#815C2D" stroke-width="0.1698" stroke-linecap="round" stroke-linejoin="round" d="M64.652,39.8
	c0,0-17.791,17.791-18.456,18.29l-1.497-0.499l18.789-18.29L64.652,39.8z"/>
<path fill="#FFFFFF" stroke="#815C2D" stroke-width="0.1698" stroke-linecap="round" stroke-linejoin="round" d="M81.612,9.877
	c0,0-1.165,10.641-10.31,21.282l-0.997-0.498c0,0,9.976-12.303,10.309-20.783C80.614,9.877,80.946,9.71,81.612,9.877z"/>
</svg>
