<svg version="1.1" id="svg_1_v" valid="1" xmlns="http://www.w3.org/2000/svg" xmlns:xlink="http://www.w3.org/1999/xlink" x="0px" y="0px"
	 width="85.04px" height="85.04px" viewBox="0 0 85.04 85.04" enable-background="new 0 0 85.04 85.04" xml:space="preserve">
	 
<path fill="#FFFFFF" toFill="#4E85BC" stroke="#815C2D" stroke-width="0.5" stroke-miterlimit="10" d="M24.695,49.198c0,0-14.356,9.9-14.603,14.604
	c0,0,5.573-3.982,4.951-0.247c-0.248,1.485-6.436,9.155-5.94,11.631c0,0,9.653-7.81,9.653-3.958c0,1.482-0.743,3.712-1.98,4.208
	c-1.238,0.494,8.664-1.983,9.9-8.912c0,0-0.495,4.208-0.743,5.198c-0.247,0.988,9.405-7.18,10.396-11.387
	C37.318,56.129,28.654,44.991,24.695,49.198z"/>
<path fill="#FFFFFF" toFill="#DE4F26" stroke="#815C2D" stroke-width="0.5" stroke-miterlimit="10" d="M40.536,42.762c0,0,20.13,15.514,15.509,25.412
	c-4.619,9.898-21.779,16.168-21.779,16.168s-5.281-0.658,0-4.616c5.28-3.961,15.181-10.89,6.6-16.5
	C32.285,57.613,40.536,42.762,40.536,42.762z"/>
<path fill="#FFFFFF" toFill="#DE4F26" stroke="#815C2D" stroke-width="0.5" stroke-miterlimit="10" d="M44.249,46.969
	c0,0-15.511-20.126-25.411-15.506C8.937,36.081,2.667,53.241,2.667,53.241s0.66,5.279,4.621,0c3.96-5.281,10.889-15.182,16.5-6.602
	C29.396,55.217,44.249,46.969,44.249,46.969z"/>
<path fill="#FFFFFF" toFill="#F7981D" stroke="#815C2D" stroke-width="0.5" stroke-miterlimit="10" d="M24.035,39.462c0,0,3.959,12.541,21.782,20.46
	c0,0,48.016-42.731,33.988-56.758C65.78-10.861,24.035,39.462,24.035,39.462z"/>
<path fill="#FFFFFF" toFill="#B23825" stroke="#815C2D" stroke-width="0.5" stroke-miterlimit="10" d="M45.817,59.922c0,0-15.263-7.674-21.782-20.46
	l-3.301,6.518c0,0,7.178,11.881,18.811,17.571L45.817,59.922z"/>
<path fill="#FFFFFF" toFill="#DE4F26" stroke="#815C2D" stroke-width="0.5" stroke-miterlimit="10" d="M29.396,51.179l6.436-5.199
	c0,0,2.228-0.741,2.228,0.248S18.754,69.743,17.517,69.247C16.278,68.752,28.654,50.684,29.396,51.179z"/>
<path fill="#FFFFFF" toFill="#B23825" stroke="#815C2D" stroke-width="0.25" stroke-miterlimit="10" d="M50.519,12.821
	c0,0,1.962,11.192,21.128,19.648l-4.275,4.972c0,0-15.846-7.708-21.379-20.394L50.519,12.821z"/>
<path fill="#FFFFFF" toFill="#E05F25" stroke="#815C2D" stroke-width="0.25" stroke-miterlimit="10" d="M48.596,14.468c0,0,1.986,11.421,21.4,20.048
	l-4.33,5.072c0,0-16.051-7.863-21.658-20.807L48.596,14.468z"/>
<circle fill="#FFFFFF" toFill="#B23825" stroke="#815C2D" stroke-width="0.25" stroke-miterlimit="10" cx="47.329" cy="19.462" r="1.114"/>
<circle fill="#FFFFFF" toFill="#B23825" stroke="#815C2D" stroke-width="0.25" stroke-miterlimit="10" cx="51.06" cy="24.753" r="1.114"/>
<circle fill="#FFFFFF" toFill="#B23825" stroke="#815C2D" stroke-width="0.25" stroke-miterlimit="10" cx="55.238" cy="28.93" r="1.114"/>
<circle fill="#FFFFFF" toFill="#B23825" stroke="#815C2D" stroke-width="0.25" stroke-miterlimit="10" cx="59.249" cy="32.105" r="1.114"/>
<circle fill="#FFFFFF" toFill="#B23825" stroke="#815C2D" stroke-width="0.25" stroke-miterlimit="10" cx="63.426" cy="35.112" r="1.114"/>
<path fill="#FFFFFF" toFill="#FCB31A" d="M64.764,39.788c0,0-17.879,17.878-18.549,18.38l-1.504-0.502l18.881-18.38L64.764,39.788z"/>
<path fill="#FFFFFF" toFill="#FCB31A" d="M81.807,9.714c0,0-1.17,10.694-10.36,21.388l-1.002-0.5c0,0,10.025-12.365,10.359-20.887
	C80.804,9.714,81.139,9.547,81.807,9.714z"/>
<path fill="#FFFFFF" toFill="#FCB31A" stroke="#815C2D" stroke-width="0.25" stroke-miterlimit="10" d="M64.764,39.788
	c0,0-17.879,17.878-18.549,18.38l-1.504-0.502l18.881-18.38L64.764,39.788z"/>
<path fill="#FFFFFF" toFill="#FCB31A" stroke="#815C2D" stroke-width="0.25" stroke-miterlimit="10" d="M81.807,9.714c0,0-1.17,10.694-10.36,21.388
	l-1.002-0.5c0,0,10.025-12.365,10.359-20.887C80.804,9.714,81.139,9.547,81.807,9.714z"/>
</svg>
