<svg version="1.1" id="svg_2_0" xmlns="http://www.w3.org/2000/svg" xmlns:xlink="http://www.w3.org/1999/xlink" x="0px" y="0px" width="85.04px" height="85.04px" viewBox="0 0 85.04 85.04" enable-background="new 0 0 85.04 85.04" xml:space="preserve">
<path fill="#FFFFFF" stroke="#815C2D" stroke-width="0.5" stroke-miterlimit="10" d="M69.821,35.829
	c-7.154-9.721-19.629-11.283-28.16-7.982c-8.528,3.305-10.27,11.17-11.008,14.035c-0.824,3.212-1.854,5.128-3.668,5.781
	c-3.578,1.285-4.865,0.273-9.819,2.201c-5.486,2.135-8.896,8.807-6.327,16.51c2.56,7.684,11.559,14.313,26.327,15.137
	c14.769,0.824,25.647-4.652,31.647-13.301C75.049,59.219,76.977,45.551,69.821,35.829z M25.793,58.624
	c-2.586,0-4.682-1.705-4.682-3.809c0-2.102,2.096-3.805,4.682-3.805c2.581,0,4.676,1.703,4.676,3.805
	C30.469,56.918,28.375,58.624,25.793,58.624z"/>
<path fill="#FFFFFF" stroke="#815C2D" stroke-width="0.5" stroke-miterlimit="10" d="M69.821,33.509
	c-7.154-9.725-19.629-11.283-28.16-7.98c-8.528,3.301-10.27,11.166-11.008,14.033c-0.824,3.209-1.854,5.126-3.668,5.778
	c-3.578,1.285-4.865,0.275-9.819,2.203c-5.486,2.133-8.896,8.805-6.327,16.51c2.56,7.682,11.559,14.309,26.327,15.135
	s25.647-4.652,31.647-13.301C75.049,56.897,76.977,43.23,69.821,33.509z M25.793,56.301c-2.586,0-4.682-1.705-4.682-3.807
	c0-2.104,2.096-3.809,4.682-3.809c2.581,0,4.676,1.705,4.676,3.809C30.469,54.596,28.375,56.301,25.793,56.301z"/>
<path fill="#FFFFFF" d="M48.924,34.894c0,0-0.604,1.152,0.68,1.307c1.283,0.156,2.096,0.736,2.006,1.549
	c-0.09,0.811-1.088,0.879-0.709,1.756c0.381,0.877,1.445,0.828,1.934-0.152c0.486-0.98-0.752-1.539,0.143-2.475
	c0.896-0.934,1.697-0.078,2.521-0.754c0.82-0.676,1.156-1.629,0.316-2.846c-0.844-1.219-0.104-1.357,0.791-1.314
	c0.896,0.045,1.182-1.201,0.496-1.746c-0.688-0.541-1.166-0.33-1.541,0.264c-0.381,0.592-1.023,0.898-1.459,0.215
	c-0.438-0.682,0.697-0.992,0.266-1.67c-0.438-0.686-1.545-0.23-1.545-0.23s-0.836-1.492-2.348-1.084
	c-1.52,0.41-2.014,1.666-1.354,2.553c0.655,0.883-0.615,1.92-1.277,1.801c-0.666-0.113-1.354,0.596-1.288,1.594
	C46.618,34.655,47.645,35.716,48.924,34.894z"/>
<path fill="#FFFFFF" d="M61.168,41.983c0,0-1.27,0.316-0.525,1.375c0.738,1.061,0.844,2.055,0.178,2.529
	c-0.668,0.473-1.379-0.23-1.781,0.639c-0.403,0.865,0.34,1.631,1.396,1.34c1.055-0.285,0.65-1.584,1.939-1.539
	c1.295,0.047,1.189,1.219,2.24,1.383c1.051,0.162,1.986-0.219,2.336-1.658c0.35-1.438,0.941-0.979,1.506-0.279
	c0.562,0.701,1.686,0.08,1.637-0.789c-0.051-0.872-0.529-1.091-1.223-0.979c-0.691,0.115-1.354-0.168-1.131-0.946
	c0.221-0.779,1.201-0.134,1.426-0.916c0.221-0.775-0.855-1.301-0.855-1.301s0.561-1.617-0.75-2.475
	c-1.313-0.859-2.586-0.395-2.807,0.684c-0.227,1.082-1.846,0.822-2.197,0.244c-0.355-0.572-1.348-0.617-2.049,0.096
	C59.809,40.099,59.702,41.573,61.168,41.983z"/>
<path fill="#FFFFFF" d="M63.387,62.469c0,0,0.928,0.916,1.447-0.268c0.521-1.188,1.312-1.793,2.063-1.475
	c0.752,0.32,0.525,1.297,1.477,1.188s1.213-1.145,0.416-1.891c-0.795-0.754-1.691,0.271-2.328-0.854
	c-0.637-1.127,0.416-1.648,0.01-2.633c-0.408-0.979-1.223-1.58-2.629-1.127c-1.412,0.455-1.33-0.291-1.029-1.139
	s-0.811-1.479-1.527-0.979c-0.721,0.496-0.656,1.019-0.199,1.551c0.459,0.533,0.564,1.238-0.217,1.457
	c-0.773,0.222-0.742-0.954-1.521-0.735c-0.777,0.22-0.664,1.408-0.664,1.408s-1.67,0.366-1.722,1.937
	c-0.045,1.565,1.017,2.405,2.054,2.028c1.037-0.369,1.659,1.147,1.354,1.75c-0.309,0.604,0.178,1.472,1.148,1.696
	C62.491,64.612,63.805,63.934,63.387,62.469z"/>
<path fill="#FFFFFF" stroke="#815C2D" stroke-width="0.5" stroke-miterlimit="10" d="M48.924,34.007c0,0-0.604,1.154,0.68,1.311
	c1.283,0.152,2.096,0.732,2.006,1.547c-0.09,0.814-1.088,0.879-0.709,1.756c0.381,0.877,1.445,0.826,1.934-0.152
	c0.486-0.979-0.752-1.541,0.143-2.477c0.896-0.936,1.697-0.076,2.521-0.752c0.82-0.676,1.156-1.629,0.316-2.844
	c-0.844-1.219-0.104-1.359,0.791-1.314c0.896,0.043,1.182-1.203,0.496-1.748c-0.688-0.541-1.166-0.33-1.541,0.262
	c-0.381,0.594-1.023,0.9-1.459,0.213c-0.438-0.68,0.697-0.984,0.266-1.668c-0.438-0.684-1.545-0.229-1.545-0.229
	s-0.836-1.492-2.348-1.086c-1.52,0.41-2.014,1.668-1.354,2.555c0.655,0.885-0.615,1.922-1.277,1.801
	c-0.666-0.119-1.354,0.598-1.288,1.594C46.618,33.772,47.645,34.829,48.924,34.007z"/>
<path fill="#FFFFFF" stroke="#815C2D" stroke-width="0.5" stroke-miterlimit="10" d="M61.168,41.099c0,0-1.27,0.312-0.525,1.375
	c0.738,1.062,0.844,2.054,0.178,2.526c-0.668,0.473-1.379-0.229-1.781,0.641c-0.403,0.865,0.34,1.627,1.396,1.34
	c1.055-0.287,0.65-1.586,1.939-1.541c1.295,0.047,1.189,1.223,2.24,1.383c1.051,0.164,1.986-0.217,2.336-1.652
	c0.35-1.438,0.941-0.98,1.506-0.279c0.562,0.697,1.686,0.08,1.637-0.791c-0.051-0.873-0.529-1.09-1.223-0.982
	c-0.691,0.115-1.354-0.164-1.131-0.941c0.221-0.78,1.201-0.137,1.426-0.916c0.221-0.777-0.855-1.307-0.855-1.307
	s0.561-1.615-0.75-2.471c-1.313-0.857-2.586-0.395-2.807,0.686c-0.227,1.08-1.846,0.82-2.197,0.244
	c-0.355-0.578-1.348-0.619-2.049,0.094C59.809,39.214,59.702,40.69,61.168,41.099z"/>
<path fill="#FFFFFF" stroke="#815C2D" stroke-width="0.5" stroke-miterlimit="10" d="M63.387,61.584c0,0,0.928,0.916,1.447-0.27
	c0.521-1.186,1.312-1.793,2.063-1.477c0.752,0.322,0.525,1.299,1.477,1.188s1.213-1.144,0.416-1.892
	c-0.795-0.75-1.691,0.271-2.328-0.854c-0.637-1.13,0.416-1.648,0.01-2.632c-0.408-0.979-1.223-1.582-2.629-1.129
	c-1.412,0.455-1.33-0.291-1.029-1.138c0.301-0.844-0.811-1.479-1.527-0.979c-0.721,0.496-0.656,1.019-0.199,1.548
	c0.459,0.534,0.564,1.241-0.217,1.459c-0.773,0.223-0.742-0.953-1.521-0.736c-0.777,0.224-0.664,1.412-0.664,1.412
	s-1.67,0.367-1.722,1.933c-0.045,1.567,1.017,2.41,2.054,2.035c1.037-0.373,1.659,1.146,1.354,1.745
	c-0.309,0.604,0.178,1.472,1.148,1.695C62.491,63.727,63.805,63.049,63.387,61.584z"/>
<path fill="#FFFFFF" stroke="#815C2D" stroke-width="0.5" stroke-miterlimit="10" d="M20.454,17.694c0,0-3.194-1.699-5.136-5.275
	s-1.833-8.016-3.405-9.639c0,0,1.513,1.006,2.185,1.893c0,0,0.268-0.609,0.078-1.252c0,0,7.625,3.842,8.901,12.781l-0.409,0.617
	L20.454,17.694z"/>
<path fill="#FFFFFF" stroke="#815C2D" stroke-width="0.25" stroke-miterlimit="10" d="M23.053,16.06l-0.783,0.447
	c0,0-3.407-1.229-5.835-4.494c-1.827-2.455-2.575-5.564-3.594-7.539c0.722,2.102,1.025,5.268,2.478,7.945
	c1.94,3.576,5.136,5.275,5.136,5.275l2.214-0.875l0.409-0.617C23.068,16.153,23.06,16.107,23.053,16.06z"/>
<path fill="#FFFFFF" stroke="#815C2D" stroke-width="0.5" stroke-miterlimit="10" d="M30.442,30.179l-0.108-0.172l-0.157,0.223
	l-0.265,0.049l0.107,0.168l-1.615,2.236c0,0,5.262,8.303,10.33,15.8c4.978,7.352,14.534,21.209,16.155,20.844l0.018,0.021
	c0.016-0.01,0.02-0.025,0.027-0.037c0.016-0.004,0.033-0.004,0.047-0.016l-0.014-0.021c1.027-1.311-7.42-15.873-11.944-23.508
	c-4.609-7.786-9.873-16.093-9.873-16.093L30.442,30.179z"/>
<path fill="#FFFFFF" stroke="#815C2D" stroke-width="0.25" stroke-miterlimit="10" d="M55.028,68.657
	c-2.387-1.34-10.748-14.131-15.231-21.121c-4.886-7.619-9.941-16.051-9.941-16.051l1.063-1.398l-0.477,0.092l-0.108-0.172
	l-0.157,0.223l-0.265,0.049l0.107,0.168l-1.615,2.236c0,0,5.262,8.303,10.33,15.8c4.978,7.352,14.533,21.209,16.154,20.842
	l0.019,0.023c0.016-0.01,0.02-0.025,0.026-0.037c0.019-0.004,0.032-0.004,0.047-0.016l-0.015-0.021
	C55.059,69.163,55.067,68.95,55.028,68.657z"/>
<path fill="#FFFFFF" stroke="#815C2D" stroke-width="0.5" stroke-miterlimit="10" d="M32.097,28.007
	c0.106-1.357-1.058-1.668-1.058-1.668c-4.021-7.111-7.141-10.002-7.141-10.002c-0.58-0.475-1.902,0.191-2.234,0.373l-0.005-0.004
	c0,0-0.014,0.012-0.034,0.023c-0.024,0.014-0.038,0.025-0.038,0.025l0.003,0.002c-0.311,0.227-1.475,1.137-1.294,1.861
	c0,0,1.282,4.057,5.995,10.732c0,0-0.216,1.184,1.058,1.666c0,0-0.219,1.182,1.055,1.666c0,0,0.775-0.752,2.051-1.549l0.005,0.006
	c0.07-0.049,0.139-0.094,0.208-0.137c0.069-0.045,0.139-0.086,0.211-0.129l-0.006-0.01c1.271-0.811,2.277-1.191,2.277-1.191
	C33.261,28.315,32.097,28.007,32.097,28.007z"/>
<path fill="#FFFFFF" stroke="#815C2D" stroke-width="0.25" stroke-miterlimit="10" d="M28.433,30.173
	c-1.271-0.484-1.055-1.666-1.055-1.666c-4.713-6.676-5.998-10.73-5.998-10.73c-0.095-0.393,0.198-0.832,0.536-1.193
	c-0.104,0.051-0.194,0.094-0.252,0.127l-0.005-0.004c0,0-0.014,0.012-0.034,0.023c-0.024,0.014-0.038,0.025-0.038,0.025l0.002,0.002
	c-0.31,0.227-1.474,1.137-1.293,1.861c0,0,1.282,4.057,5.995,10.732c0,0-0.216,1.184,1.058,1.666c0,0-0.219,1.182,1.055,1.666
	c0,0,0.386-0.369,1.047-0.863C28.226,31.327,28.433,30.173,28.433,30.173z"/>
<path fill="none" stroke="#815C2D" stroke-width="0.25" stroke-linecap="round" stroke-linejoin="round" d="M26.292,29.351
	c0,0,1.632-2.002,4.748-3.012"/>
<path fill="none" stroke="#815C2D" stroke-width="0.25" stroke-linecap="round" stroke-linejoin="round" d="M20.874,19.696
	c0,0,0.738-2.447,3.757-2.377"/>
<path fill="none" stroke="#815C2D" stroke-width="0.25" stroke-linecap="round" stroke-linejoin="round" d="M27.349,31.017
	c0,0,1.632-2,4.748-3.01"/>
<path fill="#FFFFFF" stroke="#815C2D" stroke-width="0.25" stroke-miterlimit="10" d="M51.395,27.63
	c0.113,0.311-0.217,0.713-0.734,0.902c-0.518,0.186-1.021,0.084-1.141-0.225c-0.109-0.311,0.219-0.713,0.736-0.902
	C50.776,27.22,51.282,27.321,51.395,27.63z"/>
<circle fill="#FFFFFF" stroke="#815C2D" stroke-width="0.25" stroke-miterlimit="10" cx="61.108" cy="39.778" r="0.563"/>
<ellipse fill="#FFFFFF" stroke="#815C2D" stroke-width="0.25" stroke-miterlimit="10" cx="58.336" cy="58.219" rx="0.848" ry="0.994"/>
<circle fill="#FFFFFF" cx="61.952" cy="38.7" r="0.182"/>
<ellipse transform="matrix(0.4781 0.8783 -0.8783 0.4781 19.9224 -11.0998)" fill="#FFFFFF" stroke="#815C2D" stroke-width="0.25" stroke-miterlimit="10" cx="19.301" cy="11.214" rx="2.591" ry="0.937"/>
<path fill="none" stroke="#815C2D" stroke-width="0.5" stroke-linecap="round" stroke-linejoin="round" d="M24.964,19.937
	c0,0,2.172,2.953,3.256,4.881"/>
<path fill="none" stroke="#815C2D" stroke-width="0.75" stroke-linecap="round" stroke-linejoin="round" d="M16.521,65.243
	c1.498,2.459,4.279,5.469,9.348,7.082"/>
<path fill="none" stroke="#815C2D" stroke-width="0.75" stroke-linecap="round" stroke-linejoin="round" d="M14.89,61.348
	c0,0,0.047,0.248,0.172,0.67"/>
<path fill="#FFFFFF" stroke="#815C2D" stroke-width="0.4613" d="M27.027,62.481c0,0-0.65-1.133-1.469-0.131
	c-0.818,1-1.742,1.381-2.385,0.867c-0.639-0.508-0.158-1.389-1.104-1.537c-0.943-0.148-1.473,0.779-0.904,1.713
	c0.568,0.938,1.707,0.191,2.018,1.447c0.307,1.254-0.846,1.475-0.711,2.529c0.131,1.055,0.756,1.854,2.232,1.791
	c1.479-0.061,1.203,0.639,0.686,1.371c-0.516,0.73,0.387,1.641,1.211,1.354c0.824-0.289,0.904-0.811,0.604-1.443
	c-0.299-0.637-0.213-1.346,0.6-1.348c0.809-0.004,0.465,1.121,1.271,1.117c0.809-0.004,1.018-1.18,1.018-1.18
	s1.711,0.094,2.172-1.406c0.465-1.496-0.33-2.59-1.434-2.506c-1.1,0.082-1.293-1.551-0.84-2.045
	c0.457-0.504,0.229-1.467-0.654-1.943C28.458,60.653,27.015,60.956,27.027,62.481z"/>
<path fill="#FFFFFF" stroke="#815C2D" stroke-width="0.4613" d="M41.708,72.893c0,0,0.906,0.939,1.453-0.23
	c0.549-1.17,1.355-1.766,2.103-1.422c0.741,0.34,0.489,1.309,1.444,1.219c0.949-0.086,1.238-1.107,0.459-1.877
	c-0.774-0.771-1.699,0.229-2.305-0.914c-0.609-1.139,0.453-1.637,0.07-2.625c-0.385-0.994-1.186-1.611-2.604-1.191
	c-1.418,0.42-1.322-0.324-1-1.162c0.324-0.836-0.773-1.496-1.504-1.02c-0.729,0.48-0.678,1.004-0.232,1.551
	c0.443,0.543,0.533,1.25-0.254,1.449c-0.783,0.199-0.721-0.977-1.506-0.773c-0.779,0.203-0.695,1.396-0.695,1.396
	s-1.682,0.324-1.766,1.89c-0.086,1.565,0.951,2.433,2,2.082c1.047-0.347,1.633,1.187,1.311,1.778
	c-0.318,0.597,0.141,1.478,1.109,1.726C40.763,75.016,42.089,74.37,41.708,72.893z"/>
	
	<g id="clickMark_2_0" class="none">
		<path fill="#FFFFFF" d="M83.975,42.521c0,22.892-18.561,41.454-41.458,41.454c-22.893,0-41.453-18.562-41.453-41.454 C1.065,19.623,19.625,1.064,42.519,1.064C65.415,1.064,83.975,19.623,83.975,42.521z" />
		<path fill="none" stroke="#000000" stroke-width="0.9447" d="M42.519,73.262c16.977,0,30.746-13.76,30.746-30.741 c0-16.98-13.769-30.74-30.746-30.74c-16.979,0-30.743,13.76-30.743,30.74C11.774,59.502,25.54,73.262,42.519,73.262z" />
		<path fill="#D7DF23" d="M42.519,73.262c16.977,0,30.746-13.76,30.746-30.741c0-16.98-13.769-30.74-30.746-30.74 c-16.979,0-30.743,13.76-30.743,30.74C11.774,59.502,25.54,73.262,42.519,73.262" />
		<path fill="none" stroke="#000000" stroke-width="0.8879" d="M42.519,73.262c16.977,0,30.746-13.76,30.746-30.741 c0-16.98-13.769-30.74-30.746-30.74c-16.979,0-30.743,13.76-30.743,30.74C11.774,59.502,25.54,73.262,42.519,73.262" />
		<path fill="#ED1C24" d="M58.706,24.476c0.098,0.837-0.395,1.623-1.477,2.36c-1.377,0.983-2.213,1.721-2.508,2.211l-8.408,14.606 l7.08,13.721c0.1,0.148,0.615,0.91,1.549,2.287c0.591,0.838,0.886,1.6,0.886,2.287c0,0.395-0.071,0.789-0.222,1.182 c-0.836,2.113-2.387,3.172-4.646,3.172c-0.937,0-1.846-0.197-2.731-0.592c-1.229-0.541-1.904-1.242-2.027-2.102 c-0.122-0.861-0.232-1.707-0.332-2.545l-3.982-9.888l-4.424,8.854c-0.295,0.982-0.64,1.953-1.033,2.914 c-0.395,0.959-1.157,1.437-2.287,1.437c-1.428,0-2.804-0.491-4.131-1.476c-1.426-1.131-2.041-2.383-1.844-3.762 c0.097-0.541,0.429-1.115,0.995-1.733c0.565-0.615,0.922-1.068,1.071-1.363l6.492-11.806l-4.577-14.306 c-0.147-0.493-0.626-1.096-1.438-1.808s-1.268-1.387-1.364-2.028c-0.148-1.13,0.539-2.139,2.065-3.024 c1.376-0.737,2.851-1.107,4.427-1.107c0.886,0,1.573,0.148,2.066,0.441c1.081,0.692,1.743,1.563,1.989,2.62 c0.245,1.059,0.468,2.104,0.664,3.135l2.212,6.934l4.869-8.706c0.442-0.934,0.924-1.891,1.438-2.876 c0.519-0.985,1.216-1.646,2.103-1.991c0.539-0.247,1.154-0.37,1.844-0.37c1.279,0,2.521,0.356,3.726,1.071 C57.954,22.938,58.606,23.689,58.706,24.476z" />
	</g>
</svg>
