<svg version="1.1" id="svg_2_v" valid="1" xmlns="http://www.w3.org/2000/svg" xmlns:xlink="http://www.w3.org/1999/xlink" x="0px" y="0px"
	 width="85.04px" height="85.04px" viewBox="0 0 85.04 85.04" enable-background="new 0 0 85.04 85.04" xml:space="preserve">
	 
<path fill="#FFFFFF" toFill="#D4AF7A" stroke="#815C2D" stroke-width="0.5" stroke-miterlimit="10" d="M70.821,34.829
	c-7.154-9.721-19.629-11.283-28.16-7.982c-8.528,3.305-10.27,11.17-11.008,14.035c-0.824,3.212-1.854,5.128-3.668,5.781
	c-3.578,1.285-4.865,0.273-9.819,2.201c-5.486,2.135-8.896,8.807-6.327,16.51c2.56,7.683,11.559,14.312,26.327,15.137
	c14.769,0.824,25.647-4.653,31.647-13.301C76.049,58.219,77.977,44.551,70.821,34.829z M26.793,57.624
	c-2.586,0-4.682-1.705-4.682-3.809c0-2.102,2.096-3.805,4.682-3.805c2.581,0,4.676,1.703,4.676,3.805
	C31.469,55.918,29.375,57.624,26.793,57.624z"/>
<path fill="#FFFFFF" toFill="#E5CCA3" stroke="#815C2D" stroke-width="0.5" stroke-miterlimit="10" d="M70.821,32.509
	c-7.154-9.725-19.629-11.283-28.16-7.98c-8.528,3.301-10.27,11.166-11.008,14.033c-0.824,3.209-1.854,5.126-3.668,5.778
	c-3.578,1.285-4.865,0.275-9.819,2.203c-5.486,2.133-8.896,8.805-6.327,16.51c2.56,7.682,11.559,14.309,26.327,15.135
	s25.647-4.652,31.647-13.301C76.049,55.897,77.977,42.23,70.821,32.509z M26.793,55.301c-2.586,0-4.682-1.705-4.682-3.807
	c0-2.103,2.096-3.808,4.682-3.808c2.581,0,4.676,1.705,4.676,3.808C31.469,53.596,29.375,55.301,26.793,55.301z"/>
<path fill="#FFFFFF" toFill="#D7C097" d="M49.924,33.894c0,0-0.604,1.152,0.68,1.307c1.283,0.156,2.096,0.736,2.006,1.549
	c-0.09,0.811-1.088,0.879-0.709,1.756c0.381,0.877,1.445,0.828,1.934-0.152c0.486-0.98-0.752-1.539,0.142-2.475
	c0.896-0.934,1.698-0.078,2.521-0.754c0.821-0.676,1.157-1.629,0.317-2.846c-0.844-1.219-0.104-1.357,0.791-1.314
	c0.896,0.045,1.181-1.201,0.496-1.746c-0.687-0.541-1.166-0.33-1.541,0.264c-0.381,0.592-1.024,0.898-1.459,0.215
	c-0.437-0.682,0.698-0.992,0.265-1.67c-0.437-0.686-1.544-0.23-1.544-0.23s-0.836-1.492-2.348-1.084
	c-1.519,0.41-2.013,1.666-1.354,2.553c0.656,0.883-0.615,1.92-1.277,1.801c-0.666-0.113-1.354,0.596-1.288,1.594
	C47.618,33.655,48.645,34.716,49.924,33.894z"/>
<path fill="#FFFFFF" toFill="#D7C097" d="M62.168,40.983c0,0-1.269,0.316-0.525,1.375c0.738,1.061,0.844,2.055,0.178,2.529
	c-0.668,0.473-1.379-0.23-1.781,0.639c-0.404,0.865,0.34,1.631,1.396,1.34c1.055-0.285,0.65-1.584,1.939-1.539
	c1.295,0.047,1.19,1.219,2.24,1.383c1.051,0.162,1.987-0.219,2.336-1.658c0.35-1.438,0.942-0.979,1.506-0.28
	c0.562,0.701,1.686,0.08,1.637-0.789c-0.051-0.872-0.529-1.091-1.223-0.978c-0.691,0.114-1.353-0.168-1.131-0.947
	c0.221-0.779,1.202-0.133,1.426-0.916c0.221-0.775-0.855-1.301-0.855-1.301s0.561-1.617-0.75-2.475
	c-1.312-0.859-2.586-0.395-2.807,0.684c-0.226,1.082-1.846,0.822-2.197,0.244c-0.355-0.572-1.348-0.617-2.049,0.096
	C60.809,39.099,60.702,40.573,62.168,40.983z"/>
<path fill="#FFFFFF" toFill="#D7C097" d="M64.387,61.469c0,0,0.928,0.916,1.447-0.268c0.522-1.187,1.312-1.793,2.063-1.474
	c0.752,0.321,0.526,1.297,1.476,1.187c0.951-0.109,1.213-1.144,0.416-1.89c-0.795-0.754-1.691,0.271-2.328-0.854
	c-0.637-1.127,0.416-1.648,0.01-2.633c-0.408-0.979-1.223-1.58-2.629-1.127c-1.412,0.455-1.33-0.291-1.029-1.138
	s-0.811-1.479-1.527-0.979c-0.721,0.496-0.656,1.019-0.199,1.552c0.459,0.532,0.564,1.237-0.217,1.456
	c-0.774,0.222-0.742-0.954-1.521-0.735c-0.777,0.22-0.664,1.408-0.664,1.408s-1.67,0.366-1.722,1.937
	c-0.045,1.565,1.017,2.405,2.054,2.028c1.037-0.369,1.659,1.147,1.354,1.75c-0.308,0.604,0.178,1.472,1.149,1.696
	C63.491,63.612,64.805,62.934,64.387,61.469z"/>
<path fill="#FFFFFF" toFill="#14ABE7" stroke="#815C2D" stroke-width="0.5" stroke-miterlimit="10" d="M49.924,33.007c0,0-0.604,1.154,0.68,1.311
	c1.283,0.152,2.096,0.732,2.006,1.547c-0.09,0.814-1.088,0.879-0.709,1.756c0.381,0.877,1.445,0.826,1.934-0.152
	c0.486-0.979-0.752-1.541,0.142-2.477c0.896-0.936,1.698-0.076,2.521-0.752c0.821-0.676,1.157-1.629,0.317-2.844
	c-0.844-1.219-0.104-1.359,0.791-1.314c0.896,0.043,1.181-1.203,0.496-1.748c-0.687-0.541-1.166-0.33-1.541,0.262
	c-0.381,0.594-1.024,0.9-1.459,0.213c-0.437-0.68,0.698-0.984,0.265-1.668c-0.437-0.684-1.544-0.229-1.544-0.229
	s-0.836-1.492-2.348-1.086c-1.519,0.41-2.013,1.668-1.354,2.555c0.656,0.885-0.615,1.922-1.277,1.801
	c-0.666-0.119-1.354,0.598-1.288,1.594C47.618,32.772,48.645,33.829,49.924,33.007z"/>
<path fill="#FFFFFF" toFill="#9BC120" stroke="#815C2D" stroke-width="0.5" stroke-miterlimit="10" d="M62.168,40.099c0,0-1.269,0.312-0.525,1.375
	c0.738,1.061,0.844,2.054,0.178,2.526c-0.668,0.473-1.379-0.228-1.781,0.641c-0.404,0.865,0.34,1.627,1.396,1.34
	c1.055-0.287,0.65-1.586,1.939-1.541c1.295,0.047,1.19,1.223,2.24,1.383c1.051,0.164,1.987-0.217,2.336-1.652
	c0.35-1.438,0.942-0.981,1.506-0.28c0.562,0.698,1.686,0.08,1.637-0.791c-0.051-0.873-0.529-1.09-1.223-0.982
	c-0.691,0.115-1.353-0.164-1.131-0.941c0.221-0.781,1.202-0.137,1.426-0.916c0.221-0.777-0.855-1.307-0.855-1.307
	s0.561-1.615-0.75-2.471c-1.312-0.857-2.586-0.395-2.807,0.686c-0.226,1.08-1.846,0.82-2.197,0.244
	c-0.355-0.578-1.348-0.619-2.049,0.094C60.809,38.214,60.702,39.69,62.168,40.099z"/>
<path fill="#FFFFFF" toFill="#F6B000" stroke="#815C2D" stroke-width="0.5" stroke-miterlimit="10" d="M64.387,60.584c0,0,0.928,0.916,1.447-0.269
	c0.522-1.185,1.312-1.793,2.063-1.476c0.752,0.322,0.526,1.298,1.476,1.188c0.951-0.11,1.213-1.144,0.416-1.891
	c-0.795-0.75-1.691,0.271-2.328-0.854c-0.637-1.13,0.416-1.648,0.01-2.632c-0.408-0.979-1.223-1.582-2.629-1.129
	c-1.412,0.455-1.33-0.291-1.029-1.138c0.301-0.844-0.811-1.479-1.527-0.979c-0.721,0.496-0.656,1.018-0.199,1.547
	c0.459,0.535,0.564,1.242-0.217,1.459c-0.774,0.223-0.742-0.953-1.521-0.736c-0.777,0.224-0.664,1.412-0.664,1.412
	s-1.67,0.367-1.722,1.933c-0.045,1.567,1.017,2.41,2.054,2.035c1.037-0.373,1.659,1.146,1.354,1.745
	c-0.308,0.605,0.178,1.472,1.149,1.695C63.491,62.727,64.805,62.049,64.387,60.584z"/>
<path fill="#FFFFFF" toFill="#EBE2BB" stroke="#815C2D" stroke-width="0.5" stroke-miterlimit="10" d="M21.454,16.694c0,0-3.194-1.699-5.136-5.275
	s-1.833-8.016-3.405-9.639c0,0,1.513,1.006,2.185,1.893c0,0,0.268-0.609,0.078-1.252c0,0,7.625,3.842,8.901,12.781l-0.409,0.617
	L21.454,16.694z"/>
<path fill="#FFFFFF" toFill="#E6D5AF" stroke="#815C2D" stroke-width="0.25" stroke-miterlimit="10" d="M24.053,15.06l-0.783,0.447
	c0,0-3.407-1.229-5.835-4.494c-1.827-2.455-2.575-5.564-3.594-7.539c0.722,2.102,1.025,5.268,2.478,7.945
	c1.94,3.576,5.136,5.275,5.136,5.275l2.214-0.875l0.409-0.617C24.068,15.153,24.06,15.107,24.053,15.06z"/>
<path fill="#FFFFFF" toFill="#E45437" stroke="#815C2D" stroke-width="0.5" stroke-miterlimit="10" d="M31.442,29.179l-0.108-0.172l-0.157,0.223
	l-0.265,0.049l0.107,0.168l-1.615,2.236c0,0,5.262,8.303,10.33,15.8c4.978,7.352,14.534,21.209,16.155,20.844l0.018,0.021
	c0.016-0.01,0.02-0.025,0.027-0.037c0.016-0.004,0.033-0.004,0.047-0.016l-0.014-0.021c1.027-1.311-7.42-15.873-11.944-23.508
	c-4.609-7.786-9.873-16.093-9.873-16.093L31.442,29.179z"/>
<path fill="#FFFFFF" toFill="#CE5034" stroke="#815C2D" stroke-width="0.25" stroke-miterlimit="10" d="M56.028,67.657
	c-2.387-1.34-10.748-14.131-15.231-21.121c-4.886-7.619-9.941-16.051-9.941-16.051l1.063-1.398l-0.477,0.092l-0.108-0.172
	l-0.157,0.223l-0.265,0.049l0.107,0.168l-1.615,2.236c0,0,5.262,8.303,10.33,15.8c4.978,7.352,14.533,21.209,16.154,20.842
	l0.019,0.023c0.016-0.01,0.02-0.025,0.026-0.037c0.019-0.004,0.032-0.004,0.047-0.016l-0.015-0.021
	C56.059,68.163,56.067,67.95,56.028,67.657z"/>
<path fill="#FFFFFF" toFill="#C3DCED" stroke="#815C2D" stroke-width="0.5" stroke-miterlimit="10" d="M33.097,27.007
	c0.106-1.357-1.058-1.668-1.058-1.668c-4.021-7.111-7.141-10.002-7.141-10.002c-0.58-0.475-1.902,0.191-2.234,0.373l-0.005-0.004
	c0,0-0.014,0.012-0.034,0.023c-0.024,0.014-0.038,0.025-0.038,0.025l0.003,0.002c-0.311,0.227-1.475,1.137-1.294,1.861
	c0,0,1.282,4.057,5.995,10.732c0,0-0.216,1.184,1.058,1.666c0,0-0.219,1.182,1.055,1.666c0,0,0.775-0.752,2.051-1.549l0.005,0.006
	c0.07-0.049,0.139-0.094,0.208-0.137c0.069-0.045,0.139-0.086,0.211-0.129l-0.006-0.01c1.271-0.811,2.277-1.191,2.277-1.191
	C34.261,27.315,33.097,27.007,33.097,27.007z"/>
<path fill="#FFFFFF" toFill="#ACCADB" stroke="#815C2D" stroke-width="0.25" stroke-miterlimit="10" d="M29.433,29.173
	c-1.271-0.484-1.055-1.666-1.055-1.666c-4.713-6.676-5.998-10.73-5.998-10.73c-0.095-0.393,0.198-0.832,0.536-1.193
	c-0.104,0.051-0.194,0.094-0.252,0.127l-0.005-0.004c0,0-0.014,0.012-0.034,0.023c-0.024,0.014-0.038,0.025-0.038,0.025l0.002,0.002
	c-0.31,0.227-1.474,1.137-1.293,1.861c0,0,1.282,4.057,5.995,10.732c0,0-0.216,1.184,1.058,1.666c0,0-0.219,1.182,1.055,1.666
	c0,0,0.386-0.369,1.047-0.863C29.226,30.327,29.433,29.173,29.433,29.173z"/>
<path fill="none" stroke="#815C2D" stroke-width="0.25" stroke-linecap="round" stroke-linejoin="round" d="M27.292,28.351
	c0,0,1.632-2.002,4.748-3.012"/>
<path fill="none" stroke="#815C2D" stroke-width="0.25" stroke-linecap="round" stroke-linejoin="round" d="M21.874,18.696
	c0,0,0.738-2.447,3.757-2.377"/>
<path fill="none" stroke="#815C2D" stroke-width="0.25" stroke-linecap="round" stroke-linejoin="round" d="M28.349,30.017
	c0,0,1.632-2,4.748-3.01"/>
<path fill="#FFFFFF" toFill="#6ABEEE" stroke="#815C2D" stroke-width="0.25" stroke-miterlimit="10" d="M52.395,26.63
	c0.113,0.311-0.217,0.713-0.734,0.902c-0.518,0.186-1.022,0.084-1.141-0.225c-0.109-0.311,0.219-0.713,0.736-0.902
	C51.776,26.22,52.282,26.321,52.395,26.63z"/>
<circle fill="#FFFFFF" toFill="#CEDA6E" stroke="#815C2D" stroke-width="0.25" stroke-miterlimit="10" cx="62.108" cy="38.778" r="0.563"/>
<ellipse fill="#FFFFFF" toFill="#FAD144" stroke="#815C2D" stroke-width="0.25" stroke-miterlimit="10" cx="59.336" cy="57.219" rx="0.848" ry="0.994"/>
<circle fill="#FFFFFF" toFill="#CEDA6E" cx="62.952" cy="37.7" r="0.182"/>
<ellipse transform="matrix(-0.8783 0.4781 -0.4781 -0.8783 43.0149 9.4792)" fill="#FFFFFF" toFill="#F4F0DA" stroke="#815C2D" stroke-width="0.25" stroke-miterlimit="10" cx="20.301" cy="10.214" rx="0.937" ry="2.591"/>
<path fill="none" stroke="#815C2D" stroke-width="0.5" stroke-linecap="round" stroke-linejoin="round" d="M25.964,18.937
	c0,0,2.172,2.953,3.256,4.881"/>
<path fill="none" stroke="#815C2D" stroke-width="0.75" stroke-linecap="round" stroke-linejoin="round" d="M17.521,64.243
	c1.498,2.459,4.279,5.469,9.348,7.082"/>
<path fill="none" stroke="#815C2D" stroke-width="0.75" stroke-linecap="round" stroke-linejoin="round" d="M15.89,60.348
	c0,0,0.047,0.248,0.172,0.67"/>
</svg>
