<svg version="1.1" id="Capa_1" xmlns="http://www.w3.org/2000/svg" xmlns:xlink="http://www.w3.org/1999/xlink" x="0px" y="0px" width="120px" height="120px" viewBox="0 0 120 120" enable-background="new 0 0 120 120" xml:space="preserve">
<rect x="1.071" y="0.802" fill="#9FE2F7" stroke="#FFCD00" stroke-width="2.9553" stroke-miterlimit="10" width="117.144" height="118.195"/>
<path fill="#9FE2F7" d="M21.06,60.234c0,1.698,37.847-21.592,76.178-0.971c0,0,3.396-38.813-37.602-38.813
	C18.635,20.449,21.06,56.596,21.06,60.234z"/>
<path fill="#A1EEE9" stroke="#9BCBCB" stroke-width="0.2506" stroke-miterlimit="10" d="M48.752,41.414
	c-1.09,0.109-2.72,3.016-4.285,3.915c-1.803-0.017-4.65-1.745-5.653-1.306c-1.112,0.488-0.825,3.448-0.127,2.253
	c0.698-1.195,3.035,2.861,3.805,5.79c0.771,2.933,3.586,2.715,3.586,2.715s0.333,1.023,0.654,2.244
	c0.321,1.222-3.553,2.63-3.412,2.919c0.141,0.29,0.845,0.235,0.845,0.235l3.402-0.893l1.056-0.277l3.402-0.894
	c0,0,0.64-0.299,0.621-0.62c-0.019-0.32-4.085,0.355-4.405-0.866c-0.321-1.221-0.532-2.276-0.532-2.276s2.559-1.193,1.789-4.125
	c-0.771-2.932-0.725-7.612,0.469-6.914C51.165,44.012,49.961,41.292,48.752,41.414z"/>
<path fill="#FF6D77" d="M42.146,47.001c0,0,4.859-0.058,5.829-1.835c0,0,0.015,3.042,0.311,3.835s0.856,4.258-1.22,4.803
	c-2.077,0.546-4.112-0.573-3.874-3.814C43.192,49.99,43.103,47.664,42.146,47.001z"/>
<path fill="#FFA47C" stroke="#E4906D" stroke-width="0.1671" stroke-miterlimit="10" d="M39.524,36.852l-2.954-2.794
	c0,0-0.682-0.605-0.14-1.53c0.541-0.925,1.561-0.018,1.561-0.018l3.316,3.177l-1.28,1.423L39.524,36.852z"/>
<ellipse transform="matrix(-0.8801 -0.4748 0.4748 -0.8801 53.6703 79.4131)" fill="#C85D0D" cx="36.862" cy="32.93" rx="0.394" ry="0.837"/>
<circle fill="#FFE551" stroke="#FFD350" stroke-width="0.1671" stroke-miterlimit="10" cx="39.752" cy="40.466" r="3.662"/>
<path fill="#ED7FB5" stroke="#B6608C" stroke-width="0.1671" stroke-miterlimit="10" d="M45.788,36.579
	c1.957-0.514,3.958,0.654,4.472,2.61c0.513,1.957-0.656,3.958-2.612,4.472c-1.955,0.514-3.958-0.656-4.471-2.611
	C42.663,39.094,43.832,37.092,45.788,36.579z"/>
<line fill="none" stroke="#C85D0D" stroke-width="0.2526" stroke-miterlimit="10" x1="46.621" y1="30.98" x2="43.955" y2="38.466"/>
<path fill="#FFD8E3" stroke="#EBC3CD" stroke-width="0.0835" stroke-miterlimit="10" d="M41.876,33.623c0,0,0.869-2.905,4.72-2.414
	c0,0,3.023,0.577,2.913,4.131c0,0-1.524-0.58-1.759,0.266c0,0-1.253-1.043-2.288-0.51c0,0-1.715-1.312-2.214-0.723
	C43.247,34.373,43.036,33.318,41.876,33.623z"/>
<path fill="#529C6C" stroke="#408258" stroke-width="0.1671" stroke-miterlimit="10" d="M42.259,35.002c0,0-0.648-1.309-0.375-1.598
	c0.272-0.291-1.086,0.502-0.625,1.599c0.462,1.097-1.19-0.558-1.673-0.736c-0.482-0.179,0.407,1.547,0.737,1.808
	c0.33,0.263-1.232,0.282-1.351,0.659c-0.117,0.379,0.939,0.756,1.94,0.754L42.259,35.002z"/>
<path fill="#D8406D" d="M42.906,50.065c0,0,3.901-2.548,5.085-5.166c0,0-0.739,3.981-4.742,5.814
	C43.251,50.714,42.647,50.568,42.906,50.065z"/>
<path fill="#D8406D" d="M48.524,50.245c0,0-1.501,3.397-3.625,3.432C42.776,53.711,47.476,52.217,48.524,50.245z"/>
<path fill="#FF5F7D" stroke="#DB4A64" stroke-width="0.085" stroke-miterlimit="10" d="M46.708,31.312c0,0,1.284,3.149,1.131,4.305
	c0,0,0.189-0.897,1.69-0.274C49.529,35.342,49.464,32.111,46.708,31.312z"/>
<path fill="#FF5F7D" stroke="#DB4A64" stroke-width="0.0832" stroke-miterlimit="10" d="M43.283,34.134c0,0,1.508-0.268,2.178,0.907
	c0,0,1.137-2.934,0.893-3.737C46.354,31.305,44.084,31.803,43.283,34.134z"/>
<path fill="#FFE551" d="M39.968,44.042c0,0,0.252,0.629,0.739,1.155c0.486,0.525,0.685,0.95,0.638,1.268
	c-0.047,0.317-0.367,0.924,0.215,0.987c0.583,0.065,0.201-0.4,0.267-0.81c0.066-0.41-0.404-1.375-0.089-1.499
	c0.315-0.127,0.529,0.687,0.617,1.187c0.087,0.499-0.091,1.808,0.652,1.656c0.743-0.152,0.081-1.021-0.036-1.296
	c-0.116-0.273-0.353-1.344-0.313-1.527c0.039-0.185-0.101-0.713-0.101-0.713s-2.378-1.597-2.514-0.951
	C39.908,44.145,39.968,44.042,39.968,44.042z"/>
<circle fill="#70C72C" stroke="#5FAF25" stroke-width="0.1671" stroke-miterlimit="10" cx="43.616" cy="42.24" r="3.662"/>
<path fill="#FF6B7F" stroke="#EA5B6C" stroke-width="0.1671" stroke-miterlimit="10" d="M41.283,35.346c0,0,2.746-2.223,3.789,1.747
	c1.042,3.969-4.49,1.961-4.563,0.023C40.508,37.116,40.351,35.853,41.283,35.346z"/>
<g>
	<g>
		<path fill="#A84E11" d="M40.911,36.871c0.09-0.024,0.089-0.148-0.017-0.12C40.804,36.773,40.806,36.898,40.911,36.871
			L40.911,36.871z"/>
	</g>
</g>
<g>
	<g>
		<path fill="#A84E11" d="M41.645,36.142c0.054-0.013,0.145-0.127,0.04-0.101C41.63,36.056,41.54,36.17,41.645,36.142L41.645,36.142
			z"/>
	</g>
</g>
<g>
	<g>
		<path fill="#A84E11" d="M41.231,35.637c0.034-0.01,0.162-0.113,0.083-0.093C41.281,35.553,41.154,35.657,41.231,35.637
			L41.231,35.637z"/>
	</g>
</g>
<g>
	<g>
		<path fill="#A84E11" d="M41.158,36.33c0.09-0.025,0.09-0.147-0.016-0.119C41.053,36.235,41.053,36.356,41.158,36.33L41.158,36.33z
			"/>
	</g>
</g>
<g>
	<g>
		<path fill="#A84E11" d="M41.91,37.384C42,37.36,42,37.239,41.895,37.268C41.805,37.291,41.804,37.411,41.91,37.384L41.91,37.384z"
			/>
	</g>
</g>
<g>
	<g>
		<path fill="#A84E11" d="M42.554,38.115c0.066-0.017,0.136-0.145,0.03-0.116C42.518,38.016,42.448,38.144,42.554,38.115
			L42.554,38.115z"/>
	</g>
</g>
<g>
	<g>
		<path fill="#A84E11" d="M43.18,37.89c0.046-0.012,0.152-0.113,0.048-0.085C43.184,37.816,43.077,37.917,43.18,37.89L43.18,37.89z"
			/>
	</g>
</g>
<g>
	<g>
		<path fill="#A84E11" d="M43.383,38.552c0.089-0.024,0.089-0.147-0.016-0.118C43.277,38.457,43.277,38.58,43.383,38.552
			L43.383,38.552z"/>
	</g>
</g>
<g>
	<g>
		<path fill="#A84E11" d="M42.323,37.084c0.05-0.013,0.148-0.122,0.043-0.094C42.315,37.003,42.217,37.11,42.323,37.084
			L42.323,37.084z"/>
	</g>
</g>
<g>
	<g>
		<path fill="#A84E11" d="M41.631,38.055c0.065-0.017,0.138-0.142,0.032-0.114C41.598,37.957,41.525,38.081,41.631,38.055
			L41.631,38.055z"/>
	</g>
</g>
<g>
	<g>
		<path fill="#A84E11" d="M41.241,36.65c0.087-0.023,0.093-0.141-0.013-0.114C41.142,36.56,41.135,36.678,41.241,36.65L41.241,36.65
			z"/>
	</g>
</g>
<g>
	<g>
		<path fill="#A84E11" d="M41.068,37.41c0.048-0.012,0.15-0.118,0.046-0.091C41.067,37.333,40.965,37.436,41.068,37.41L41.068,37.41
			z"/>
	</g>
</g>
<g>
	<g>
		<path fill="#A84E11" d="M43.709,37.42c0.062-0.016,0.139-0.138,0.034-0.112C43.679,37.326,43.604,37.448,43.709,37.42
			L43.709,37.42z"/>
	</g>
</g>
<g>
	<g>
		<path fill="#A84E11" d="M44.076,38.069c0.09-0.025,0.09-0.147-0.016-0.119C43.97,37.974,43.97,38.096,44.076,38.069L44.076,38.069
			z"/>
	</g>
</g>
<g>
	<g>
		<path fill="#A84E11" d="M43.67,38.839c0.033-0.01,0.161-0.11,0.084-0.09C43.723,38.758,43.594,38.858,43.67,38.839L43.67,38.839z"
			/>
	</g>
</g>
<g>
	<g>
		<path fill="#A84E11" d="M44.412,38.449c0.067-0.019,0.136-0.145,0.03-0.117C44.374,38.348,44.306,38.476,44.412,38.449
			L44.412,38.449z"/>
	</g>
</g>
<g>
	<g>
		<path fill="#A84E11" d="M44.422,38.993c0.047-0.014,0.149-0.119,0.044-0.091C44.418,38.914,44.317,39.02,44.422,38.993
			L44.422,38.993z"/>
	</g>
</g>
<g>
	<g>
		<path fill="#A84E11" d="M44.182,36.674c0.034-0.008,0.162-0.111,0.083-0.092C44.232,36.593,44.104,36.695,44.182,36.674
			L44.182,36.674z"/>
	</g>
</g>
<g>
	<g>
		<path fill="#A84E11" d="M43.583,36.282c0.057-0.015,0.144-0.13,0.038-0.102C43.564,36.195,43.477,36.31,43.583,36.282
			L43.583,36.282z"/>
	</g>
</g>
<g>
	<g>
		<path fill="#A84E11" d="M43.163,36.824c0.055-0.015,0.145-0.13,0.039-0.102C43.146,36.737,43.057,36.852,43.163,36.824
			L43.163,36.824z"/>
	</g>
</g>
<g>
	<g>
		<path fill="#A84E11" d="M42.422,36.318c0.046-0.013,0.152-0.113,0.048-0.085C42.424,36.245,42.319,36.345,42.422,36.318
			L42.422,36.318z"/>
	</g>
</g>
<g>
	<g>
		<path fill="#A84E11" d="M42.277,35.836c0.034-0.01,0.161-0.111,0.084-0.091C42.328,35.753,42.201,35.856,42.277,35.836
			L42.277,35.836z"/>
	</g>
</g>
<g>
	<g>
		<path fill="#A84E11" d="M42.576,35.416c0.048-0.012,0.15-0.117,0.044-0.089C42.573,35.34,42.47,35.444,42.576,35.416
			L42.576,35.416z"/>
	</g>
</g>
<g>
	<g>
		<path fill="#A84E11" d="M43.376,35.569c0.086-0.022,0.093-0.137-0.012-0.109C43.276,35.482,43.27,35.598,43.376,35.569
			L43.376,35.569z"/>
	</g>
</g>
<g>
	<g>
		<path fill="#A84E11" d="M42.927,35.189c0.031-0.009,0.162-0.108,0.085-0.089C42.981,35.109,42.851,35.209,42.927,35.189
			L42.927,35.189z"/>
	</g>
</g>
<g>
	<g>
		<path fill="#A84E11" d="M42.903,36.16c0.06-0.015,0.142-0.133,0.037-0.104C42.879,36.07,42.798,36.188,42.903,36.16L42.903,36.16z
			"/>
	</g>
</g>
<g>
	<g>
		<path fill="#A84E11" d="M43.908,35.885c0.046-0.012,0.151-0.114,0.047-0.086C43.908,35.811,43.804,35.912,43.908,35.885
			L43.908,35.885z"/>
	</g>
</g>
<g>
	<g>
		<path fill="#A84E11" d="M43.582,35.292c0.06-0.015,0.142-0.134,0.037-0.107C43.558,35.2,43.475,35.319,43.582,35.292
			L43.582,35.292z"/>
	</g>
</g>
<g>
	<g>
		<path fill="#A84E11" d="M44.283,37.54c0.089-0.024,0.088-0.148-0.017-0.12C44.176,37.442,44.178,37.568,44.283,37.54L44.283,37.54
			z"/>
	</g>
</g>
<g>
	<g>
		<path fill="#A84E11" d="M43.153,37.186c0.089-0.022,0.091-0.144-0.015-0.115C43.049,37.093,43.048,37.213,43.153,37.186
			L43.153,37.186z"/>
	</g>
</g>
<g>
	<g>
		<path fill="#A84E11" d="M42.722,37.621c0.046-0.012,0.151-0.114,0.047-0.085C42.724,37.548,42.619,37.649,42.722,37.621
			L42.722,37.621z"/>
	</g>
</g>
<g>
	<g>
		<path fill="#A84E11" d="M42.874,38.845c0.061-0.016,0.143-0.134,0.037-0.106C42.85,38.754,42.768,38.874,42.874,38.845
			L42.874,38.845z"/>
	</g>
</g>
<g>
	<g>
		<path fill="#A84E11" d="M44.704,37.927c0.053-0.013,0.148-0.122,0.042-0.094C44.694,37.847,44.6,37.955,44.704,37.927
			L44.704,37.927z"/>
	</g>
</g>
<g>
	<g>
		<path fill="#A84E11" d="M44.833,38.417c0.058-0.016,0.144-0.132,0.038-0.105C44.814,38.328,44.728,38.444,44.833,38.417
			L44.833,38.417z"/>
	</g>
</g>
<g>
	<g>
		<path fill="#A84E11" d="M44.439,36.996c0.035-0.009,0.162-0.113,0.083-0.093C44.487,36.913,44.36,37.018,44.439,36.996
			L44.439,36.996z"/>
	</g>
</g>
<g>
	<g>
		<path fill="#A84E11" d="M44.327,36.076c0.034-0.009,0.162-0.113,0.083-0.092C44.377,35.993,44.25,36.096,44.327,36.076
			L44.327,36.076z"/>
	</g>
</g>
<g>
	<g>
		<path fill="#A84E11" d="M43.635,36.968c0.068-0.019,0.136-0.144,0.03-0.117C43.598,36.868,43.529,36.994,43.635,36.968
			L43.635,36.968z"/>
	</g>
</g>
<g>
	<g>
		<path fill="#A84E11" d="M44.772,37.355c0.06-0.015,0.14-0.135,0.034-0.107C44.746,37.264,44.666,37.383,44.772,37.355
			L44.772,37.355z"/>
	</g>
</g>
<g>
	<g>
		<path fill="#A84E11" d="M43.595,38.137c0.058-0.014,0.142-0.133,0.037-0.105C43.574,38.048,43.489,38.166,43.595,38.137
			L43.595,38.137z"/>
	</g>
</g>
<g>
	<g>
		<path fill="#A84E11" d="M42.118,38.497c0.09-0.023,0.086-0.149-0.02-0.121C42.007,38.399,42.011,38.525,42.118,38.497
			L42.118,38.497z"/>
	</g>
</g>
<g>
	<g>
		<path fill="#A84E11" d="M41.733,36.809c0.054-0.016,0.146-0.125,0.042-0.099C41.721,36.724,41.627,36.836,41.733,36.809
			L41.733,36.809z"/>
	</g>
</g>
<g>
	<g>
		<path fill="#A84E11" d="M41.855,35.449c0.069-0.017,0.134-0.147,0.028-0.119C41.813,35.349,41.75,35.478,41.855,35.449
			L41.855,35.449z"/>
	</g>
</g>
<path fill="#FFFFFF" d="M37.565,38.076c0,0-2.074,1.97-0.59,4.171C36.975,42.247,36.262,40.187,37.565,38.076z"/>
<path fill="#FFFFFF" d="M40.214,41.539c0,0-0.555,2.806,1.928,3.747C42.142,45.285,40.371,44.016,40.214,41.539z"/>
<path fill="#FFFFFF" d="M41.39,46.723c0,0-0.216,0.574,0.089,0.668C41.479,47.391,41.292,47.007,41.39,46.723z"/>
<path fill="#FFFFFF" d="M42.516,47.228c0,0,0.026,0.596,0.341,0.644C42.857,47.871,42.673,47.747,42.516,47.228z"/>
<path fill="#FFFFFF" d="M40.634,37.269c0,0,0.453,1.176,2.223,1.777C42.858,39.046,41.418,38.386,40.634,37.269z"/>
<path fill="#C85D0D" d="M46.673,31.331c-0.042,0.081-0.156,0.106-0.255,0.057l0,0c-0.1-0.052-0.145-0.159-0.103-0.241L46.392,31
	c0.042-0.083,0.156-0.108,0.255-0.059l0,0c0.098,0.051,0.144,0.158,0.103,0.24L46.673,31.331z"/>
<path fill="#FFFFFF" d="M44.174,59.632c0,0,2.069-1.004,2.406-1.583C46.58,58.048,46.058,59.021,44.174,59.632z"/>
<path fill="#FFFFFF" d="M46.329,55.005l0.562,1.811C46.891,56.816,46.649,55.352,46.329,55.005z"/>
<path fill="#FFFFFF" d="M40.069,46.515c0,0,1.555,1.867,2.504,5.043C42.573,51.558,41.734,48.037,40.069,46.515z"/>
<path fill="#FFFFFF" d="M38.706,44.397c0,0-0.479,0.587-0.385,1.712C38.321,46.109,38.461,44.895,38.706,44.397z"/>
<path fill="#9AB3B0" d="M70.396,66.762c6.104-0.572,11.151,0.012,11.273,1.305c0.121,1.3-4.729,2.813-10.837,3.386
	c-6.104,0.573-11.152-0.013-11.274-1.308S64.289,67.335,70.396,66.762z"/>
<g>
	<circle opacity="0.8" fill="#004A3F" enable-background="new    " cx="86.859" cy="47.209" r="1.1"/>
	
		<radialGradient id="SVGID_1_" cx="1321.0615" cy="130.4688" r="0.558" gradientTransform="matrix(0.7009 0.7133 0.7133 -0.7009 -932.874 -803.8786)" gradientUnits="userSpaceOnUse">
		<stop  offset="0" style="stop-color:#00C8C5"/>
		<stop  offset="0.1255" style="stop-color:#00C1BD"/>
		<stop  offset="0.3392" style="stop-color:#00AFA6"/>
		<stop  offset="0.6139" style="stop-color:#008F80"/>
		<stop  offset="0.6214" style="stop-color:#008E80"/>
		<stop  offset="0.9933" style="stop-color:#007C6D"/>
	</radialGradient>
	<circle fill="url(#SVGID_1_)" cx="86.745" cy="47.21" r="1.02"/>
	<g>
		
			<line fill="none" stroke="#005C51" stroke-width="0.1965" stroke-miterlimit="10" x1="86.198" y1="46.69" x2="87.309" y2="47.897"/>
	</g>
	<g>
		
			<line fill="none" stroke="#005C51" stroke-width="0.1965" stroke-miterlimit="10" x1="87.355" y1="46.74" x2="86.15" y2="47.848"/>
	</g>
</g>
<path fill="#FFFFFF" stroke="#1F191A" stroke-width="0.1223" stroke-miterlimit="10" d="M93.42,47.239"/>
<path fill="#FFFFFF" stroke="#1F191A" stroke-width="0.1223" stroke-miterlimit="10" d="M69.727,58.374"/>
<path fill="#87C922" stroke="#538A0C" stroke-width="0.3283" stroke-miterlimit="10" d="M71.238,57.741c0,0-0.37,5.237,0.888,5.883
	c1.259,0.646,2.44,0.646,2.44,0.646s4.289-2.74,5.474,1.854c1.183,4.597-11.466,1.937-11.466,0.401c0-1.529,2.294-3.545,0.962-8.705
	L71.238,57.741z"/>
<path fill="#87C922" stroke="#538A0C" stroke-width="0.3283" stroke-miterlimit="10" d="M69.631,58.384c0,0-0.67,3.273,0.697,5.025
	c1.37,1.747,1.889,4.237-2.297,5.825c-4.188,1.586-7.524,1.039-7.524-1.644c0-2.682,4.625-2.792,5.964-2.874
	c1.342-0.082,2.407-2.461,1.613-7.03L69.631,58.384z"/>
<path fill="#87C922" stroke="#538A0C" stroke-width="0.3283" stroke-miterlimit="10" d="M68.003,65.759c0,0-0.466-1.092-1.396-1.038
	"/>
<path fill="#87C922" stroke="#538A0C" stroke-width="0.3283" stroke-miterlimit="10" d="M89.445,48.026L85.9,46.313
	c-5.202,5.418-13.092,1.716-14.82,0.801l-0.957-0.956l-1.152,0.866l-0.119-0.031c0,0-7.192,0.245-7.113,0.738
	c0.082,0.493,1.686,3.282,2.3,5.54l0.532-1.068l-1.148-3.323c0,0,2.215-0.409,3.879-0.604l-0.033,0.027l5.58,0.576l-0.234-0.238
	C79.533,53.662,89.445,48.026,89.445,48.026z"/>
<path fill="#87C922" stroke="#538A0C" stroke-width="0.3283" stroke-miterlimit="10" d="M86.427,43.582c0,0,1.277-2.896,1.531-4.171
	c0.256-1.278,2.384-3.322,3.065-1.023c0.681,2.299-2.043,5.108-2.043,5.108l3.146,2.809c0,0-0.938,4.426-3.572,2.553
	c0,0-3.406-0.254-3.576-2.639C84.809,43.836,86.427,43.582,86.427,43.582z"/>
<path fill="#87C922" stroke="#538A0C" stroke-width="0.3283" stroke-miterlimit="10" d="M90.477,43.583
	c0.535,0.514,0.396,1.53-0.313,2.271c-0.709,0.736-1.719,0.918-2.255,0.403c-0.536-0.515-0.396-1.532,0.312-2.271
	C88.93,43.249,89.939,43.067,90.477,43.583z"/>
<ellipse transform="matrix(0.6922 -0.7217 0.7217 0.6922 -5.4534 79.8382)" fill="#87C922" stroke="#538A0C" stroke-width="0.3283" stroke-miterlimit="10" cx="90.866" cy="46.312" rx="1.552" ry="1.147"/>
<path fill="#87C922" stroke="#538A0C" stroke-width="0.3283" stroke-miterlimit="10" d="M86.005,43.764
	c-0.028-0.191,3.037-1.205,3.037,0.958c0,2.161-2.462,1.177-2.462,1.177"/>
<path fill="#87C922" stroke="#538A0C" stroke-width="0.3283" stroke-miterlimit="10" d="M66.598,57.562c0,0-0.682,1.564-3.369,1.402
	c-2.686-0.161-1.805-4.612,0-3.409L66.598,57.562z"/>
<path fill="#87C922" stroke="#538A0C" stroke-width="0.3283" stroke-miterlimit="10" d="M64.15,52.347c0,0-2.084,0.922-1.764,2.044
	c0.318,1.124,1.402,5.575,3.932,3.85C68.843,56.517,67.842,50.463,64.15,52.347z"/>
<ellipse fill="#87C922" cx="64.172" cy="57.982" rx="1.544" ry="0.862"/>
<polyline fill="none" stroke="#538A0C" stroke-width="0.3283" stroke-miterlimit="10" points="62.348,22.998 64.201,25.822 
	71.629,25.032 72.846,21.883 "/>
<ellipse transform="matrix(-0.1576 -0.9875 0.9875 -0.1576 49.4435 88.1834)" fill="#87C922" cx="62.334" cy="23.003" rx="0.409" ry="0.38"/>
<circle fill="#87C922" cx="72.926" cy="21.813" r="0.41"/>
<circle fill="#87C922" stroke="#538A0C" stroke-width="0.3283" stroke-miterlimit="10" cx="67.979" cy="47.376" r="1.596"/>
<circle fill="#87C922" stroke="#538A0C" stroke-width="0.3283" stroke-miterlimit="10" cx="72.053" cy="47.375" r="1.409"/>
<path fill="#87C922" stroke="#538A0C" stroke-width="0.3283" stroke-miterlimit="10" d="M69.855,46.212l-0.065,0.034l-0.065-0.034
	c0,0-13.336,8.619-0.084,12.312l0.149-0.026l0.149,0.026C83.195,54.831,69.855,46.212,69.855,46.212z"/>
<path fill="#87C922" stroke="#538A0C" stroke-width="0.3283" stroke-miterlimit="10" d="M70.902,42.808c0,0-0.123,4.309,0,4.187
	c0.123-0.125-0.848,1.338-2.051,0v-4.214L70.902,42.808z"/>
<path fill="#87C922" stroke="#538A0C" stroke-width="0.3283" stroke-miterlimit="10" d="M81.702,38.244
	c-0.733-8.185-6.942-14.319-13.871-13.699c-6.929,0.621-11.95,7.758-11.219,15.944c0.022,0.237,0.048,0.472,0.078,0.704
	c0,0.014-0.004,0.027-0.002,0.039l0.251,2.805c0.041,0.464,1.304,0.729,2.82,0.595l19.556-1.75c1.521-0.135,2.713-0.621,2.672-1.085
	l-0.228-2.527C81.749,38.926,81.732,38.586,81.702,38.244z"/>
<circle fill="#FFFFFF" stroke="#1F191A" stroke-width="0.3283" stroke-miterlimit="10" cx="64.337" cy="33.58" r="2.608"/>
<circle fill="#87C922" stroke="#538A0C" stroke-width="0.3283" stroke-miterlimit="10" cx="69.782" cy="52.656" r="2.298"/>
<circle fill="#1F191A" cx="64.829" cy="32.922" r="1.466"/>
<circle fill="#FFFFFF" cx="65.238" cy="32.43" r="0.635"/>
<circle fill="#FFFFFF" stroke="#1F191A" stroke-width="0.3283" stroke-miterlimit="10" cx="74.074" cy="30.914" r="2.608"/>
<circle fill="#1F191A" cx="74.566" cy="30.256" r="1.464"/>
<circle fill="#FFFFFF" cx="74.979" cy="29.763" r="0.637"/>
<g>
	<polyline fill="#87C922" stroke="#538A0C" stroke-width="0.3283" stroke-miterlimit="10" points="64.669,39.836 65.32,40.877 
		70.357,40.425 	"/>
	<polyline fill="#87C922" stroke="#538A0C" stroke-width="0.3283" stroke-miterlimit="10" points="75.857,38.833 75.398,39.975 
		70.361,40.425 	"/>
</g>
<path fill="#87C922" stroke="#538A0C" stroke-width="0.3283" stroke-miterlimit="10" d="M68.811,44.064c0,0,1.115,0.904,2.017,0"/>
<path fill="#87C922" stroke="#538A0C" stroke-width="0.3283" stroke-miterlimit="10" d="M68.891,45.214c0,0,1.07,0.903,1.936,0"/>
<path fill="#87C922" stroke="#538A0C" stroke-width="0.3283" stroke-miterlimit="10" d="M68.891,46.199c0,0,1.07,0.903,1.936,0"/>
<circle fill="#FFFFFF" cx="64.091" cy="32.43" r="0.222"/>
<path fill="#FFFFFF" d="M73.782,29.58c0.12,0,0.221,0.099,0.221,0.22c0,0.125-0.101,0.223-0.221,0.223
	c-0.123,0-0.224-0.097-0.224-0.223C73.561,29.679,73.659,29.58,73.782,29.58z"/>
<polygon fill="#FFF000" points="61.287,23.061 59.84,22.766 60.008,22.53 "/>
<polygon fill="#FFF000" points="62.441,21.924 62.314,20.45 62.592,20.547 "/>
<polygon fill="#FFF000" points="62.371,24.108 62.338,25.589 62.074,25.463 "/>
<polygon fill="#FFF000" points="63.48,23.057 64.954,22.932 64.855,23.209 "/>
<polygon fill="#FFF000" points="72.521,20.739 72.516,19.259 72.783,19.378 "/>
<polygon fill="#FFF000" points="73.873,21.636 75.291,21.208 75.252,21.498 "/>
<polygon fill="#FFF000" points="71.721,22.013 70.264,22.285 70.335,22 "/>
<polygon fill="#FFF000" points="72.977,22.882 73.398,24.302 73.107,24.263 "/>
<path fill="#87C922" stroke="#538A0C" stroke-width="0.3283" stroke-miterlimit="10" d="M74.566,64.271c0,0-0.489,0.504-0.489,0.916
	"/>
<path fill="#FFFFFF" d="M68.414,47.567c0,0-3.393,3.282-3.502,4.266c-0.109,0.986-1.532,2.519,1.095,4.706
	C66.007,56.54,62.396,54.571,68.414,47.567z"/>
<path fill="#FFFFFF" d="M66.938,25.188c0,0-11.6,2.626-9.521,17.729C57.417,42.917,55.994,29.784,66.938,25.188z"/>
<path fill="#FFFFFF" d="M62.23,48.17l1.531,3.61C63.764,51.78,63.105,48.825,62.23,48.17z"/>
<path fill="#FFFFFF" d="M62.777,54.078c0,0,0.438,2.299,0.766,2.627C63.872,57.032,62.777,54.078,62.777,54.078z"/>
<path fill="#FFFFFF" d="M62.121,55.938c0,0-0.875,1.37,0.164,2.353C62.284,58.291,61.684,57.144,62.121,55.938z"/>
<path fill="#FFFFFF" d="M67.813,46.09c0,0-1.492,0.547-1.137,1.642C66.676,47.731,66.746,46.747,67.813,46.09z"/>
<path fill="#FFFFFF" d="M69.125,44.064v2.79C69.125,46.854,69.51,45.105,69.125,44.064z"/>
<path fill="#FFFFFF" d="M68.633,51.124c0,0-1.915,1.258-0.055,3.063C68.577,54.187,67.211,52.819,68.633,51.124z"/>
<path fill="#FFFFFF" d="M86.087,44.23c0,0,0.985-0.987,2.407-0.22C88.494,44.01,87.455,43.682,86.087,44.23z"/>
<path fill="#FFFFFF" d="M90.081,37.719c0,0-1.696,0.219-2.188,3.392C87.893,41.11,88.658,38.266,90.081,37.719z"/>
<path fill="#FFFFFF" d="M62.402,65.84c0,0,1.052-0.523,1.557-0.025c0.507,0.496-1.352,1.319-1.91,1.023
	C61.486,66.546,61.802,66.046,62.402,65.84z"/>
<path fill="#FFFFFF" d="M75.552,64.459c0,0,1.054-0.523,1.56-0.025c0.509,0.5-1.353,1.321-1.908,1.026
	C74.637,65.167,74.951,64.667,75.552,64.459z"/>
<path fill="#FFFFFF" d="M90.736,45.488c0,0-0.932,0.603-0.875,1.259L90.736,45.488z"/>
<path fill="#FFFFFF" d="M89.843,43.751c0,0-0.624,0.057-0.687,0.229C89.157,43.98,89.781,43.925,89.843,43.751z"/>
<path fill="#FFFFFF" d="M85.048,47.676c0,0-2.772,1.804-5.063,1.804C79.984,49.479,82.273,50.035,85.048,47.676z"/>
<circle fill="none" stroke="#FF8C22" stroke-width="3.3964" stroke-miterlimit="10" cx="73.227" cy="54.519" r="11.022"/>
<path fill="#FF0000" stroke="#D50B11" stroke-width="0.3639" stroke-miterlimit="10" d="M102.577,63.389
	c0,0,6.549-49.008-44.152-49.008c-50.706,0-41.001,49.977-41.001,49.977c-6.793,9.223-4.609,29.355-4.609,29.355h94.855
	C108.884,70.182,102.577,63.389,102.577,63.389z M97.238,59.263c-38.33-20.621-76.178,2.668-76.178,0.971
	c0-3.638-2.425-39.785,38.576-39.785C100.637,20.449,97.238,59.263,97.238,59.263z"/>
<circle fill="#FFFD00" stroke="#EAAA23" stroke-width="0.4852" stroke-miterlimit="10" cx="26.885" cy="78.427" r="8.948"/>
<circle fill="#FFFD00" stroke="#EAAA23" stroke-width="0.4852" stroke-miterlimit="10" cx="94.367" cy="78.427" r="8.947"/>
<path fill="none" d="M109.393,90.316h-46.58v12.131h44.153c0,0,4.367,0.486,4.367-4.367
	C111.332,93.229,111.574,90.559,109.393,90.316z"/>
<path fill="#1F191A" d="M32.948,107.943c0,3.799-3.078,6.877-6.876,6.877h-4.32c-3.798,0-6.875-3.079-6.875-6.877v-3.473
	c0-3.799,3.078-6.875,6.875-6.875h4.32c3.798,0,6.876,3.076,6.876,6.875V107.943z"/>
<path fill="#1F191A" d="M107.229,107.943c0,3.799-3.078,6.877-6.875,6.877h-4.319c-3.802,0-6.88-3.079-6.88-6.877v-3.473
	c0-3.799,3.08-6.875,6.88-6.875h4.319c3.797,0,6.875,3.076,6.875,6.875V107.943z"/>
<path fill="#C5CFD7" stroke="#9BA4AB" stroke-width="0.9704" stroke-miterlimit="10" d="M107.762,90.316H60.553h-0.477h-47.21
	c-2.235,0.242-1.986,2.912-1.986,7.764c0,4.854,4.47,4.365,4.47,4.365h44.728h0.477h44.725c0,0,4.473,0.488,4.473-4.365
	C109.746,93.229,109.996,90.559,107.762,90.316z"/>
<path fill="#A1A6AD" stroke="#7F8288" stroke-width="0.4852" stroke-miterlimit="10" d="M42.656,62.723v14.979h1.943v-15.44v15.44
	h1.942V61.771C45.282,62.049,43.983,62.364,42.656,62.723z"/>
<path fill="#A1A6AD" stroke="#7F8288" stroke-width="0.4852" stroke-miterlimit="10" d="M46.542,61.77v15.935h1.942v-16.34v16.338
	h1.94V60.995C49.194,61.217,47.893,61.471,46.542,61.77z"/>
<path fill="#A1A6AD" stroke="#7F8288" stroke-width="0.4852" stroke-miterlimit="10" d="M38.773,63.885v13.817h1.942V63.273
	C40.07,63.466,39.42,63.672,38.773,63.885z"/>
<path fill="#A1A6AD" stroke="#7F8288" stroke-width="0.4852" stroke-miterlimit="10" d="M54.31,60.386v17.316h1.94V60.176v17.526
	h1.942V59.933C57.165,60.029,55.843,60.176,54.31,60.386z"/>
<path fill="#A1A6AD" stroke="#7F8288" stroke-width="0.4852" stroke-miterlimit="10" d="M50.423,60.995v16.708h1.944V60.749v16.954
	h1.942V60.386C53.128,60.547,51.824,60.749,50.423,60.995z"/>
<path fill="#A1A6AD" stroke="#7F8288" stroke-width="0.4852" stroke-miterlimit="10" d="M33.918,65.691v5.134l1.457,2.426v-8.149
	C34.886,65.293,34.401,65.489,33.918,65.691z"/>
<path fill="#A1A6AD" stroke="#7F8288" stroke-width="0.4852" stroke-miterlimit="10" d="M31.494,66.784l2.425,4.04v-5.135
	C33.103,66.037,32.292,66.398,31.494,66.784z"/>
<path fill="#A1A6AD" stroke="#7F8288" stroke-width="0.4852" stroke-miterlimit="10" d="M36.832,64.555V75.68l1.213,2.022h0.729
	V63.885C38.125,64.096,37.478,64.32,36.832,64.555z"/>
<path fill="#A1A6AD" stroke="#7F8288" stroke-width="0.4852" stroke-miterlimit="10" d="M35.375,65.104v8.149l1.457,2.427V64.555
	C36.344,64.73,35.86,64.915,35.375,65.104z"/>
<path fill="#A1A6AD" stroke="#7F8288" stroke-width="0.4852" stroke-miterlimit="10" d="M40.714,63.275v14.427h1.941V62.723
	C42.013,62.896,41.367,63.079,40.714,63.275z"/>
<path fill="#A1A6AD" stroke="#7F8288" stroke-width="0.4852" stroke-miterlimit="10" d="M77.611,62.598v15.104h1.939V63.266v14.438
	h1.943v-13.83v13.829H82.7l0.739-1.23v-12.09C81.479,63.689,79.521,63.1,77.611,62.598z"/>
<path fill="#A1A6AD" stroke="#7F8288" stroke-width="0.4852" stroke-miterlimit="10" d="M84.895,64.918v9.127l1.457-2.427v-6.121
	C85.865,65.3,85.382,65.104,84.895,64.918z"/>
<path fill="#A1A6AD" stroke="#7F8288" stroke-width="0.4852" stroke-miterlimit="10" d="M83.439,64.383v12.086l1.455-2.424v-9.127
	C84.409,64.734,83.924,64.557,83.439,64.383z"/>
<path fill="#A1A6AD" stroke="#7F8288" stroke-width="0.4852" stroke-miterlimit="10" d="M86.352,65.497v6.121l2.897-4.833
	C88.298,66.326,87.325,65.896,86.352,65.497z"/>
<path fill="#A1A6AD" stroke="#7F8288" stroke-width="0.4852" stroke-miterlimit="10" d="M69.843,60.914v16.789h1.942V61.364v16.338
	h1.943V61.665C72.371,61.374,71.07,61.124,69.843,60.914z"/>
<path fill="#A1A6AD" stroke="#7F8288" stroke-width="0.4852" stroke-miterlimit="10" d="M62.074,59.89v17.812h1.943V60.176v17.526
	h1.938V60.351v17.351H67.9V60.749v16.954h1.938V60.914C66.538,60.342,63.793,60.042,62.074,59.89z"/>
<path fill="#A1A6AD" stroke="#7F8288" stroke-width="0.4852" stroke-miterlimit="10" d="M60.605,59.777v-0.028
	c0,0-0.084,0.007-0.233,0.013c-0.15-0.007-0.235-0.013-0.235-0.013v0.028h-0.002v17.925h0.002h0.468h1.47V59.89
	C61.436,59.833,60.938,59.797,60.605,59.777z"/>
<path fill="#A1A6AD" stroke="#7F8288" stroke-width="0.4852" stroke-miterlimit="10" d="M73.727,61.663V77.7h1.943V62.261V77.7
	h1.941V62.596C76.283,62.244,74.982,61.936,73.727,61.663z"/>
<path fill="#A1A6AD" stroke="#7F8288" stroke-width="0.4852" stroke-miterlimit="10" d="M58.191,59.933v17.769h1.944V59.777
	C59.729,59.802,59.062,59.852,58.191,59.933z"/>
<path opacity="0.65" fill="#FFFFFF" stroke="#0B7ABF" stroke-width="2" stroke-miterlimit="10" enable-background="new    " d="
	M0.009,0.101v119.8h119.982V0.101H0.009z M103.229,112.402c-0.359,0.479-73.218,4.117-74.185,4.168
	c-0.97,0.047-2.025-23.943-2.025-23.943l20.127-1.504l-0.527-47.447c0,0-14.446,6.078-15.979,6.463
	C29.103,50.522,15.07,34.666,14.835,33.92C14.601,33.17,55.438,4.11,55.444,4.262l26.72,5.76c0,0,2.497,77.783,2.932,78.672
	c0.437,0.887,15.099-1.092,17.113,0.326C104.223,90.439,103.592,111.926,103.229,112.402z"/>
</svg>
