<?xml version="1.0" encoding="utf-8"?>
<!-- Generator: Adobe Illustrator 16.0.0, SVG Export Plug-In . SVG Version: 6.00 Build 0)  -->
<!DOCTYPE svg PUBLIC "-//W3C//DTD SVG 1.1//EN" "http://www.w3.org/Graphics/SVG/1.1/DTD/svg11.dtd">
<svg version="1.1" id="Capa_1" xmlns="http://www.w3.org/2000/svg" xmlns:xlink="http://www.w3.org/1999/xlink" x="0px" y="0px"
	 width="120px" height="120px" viewBox="0 0 120 120" enable-background="new 0 0 120 120" xml:space="preserve">
<rect x="-0.233" y="-1.312" fill="#231F20" width="121.733" height="122.826"/>
<g>
	<path fill="#9AB3B0" d="M39.712,102.523c7.659-0.719,13.99,0.016,14.143,1.638c0.152,1.628-5.931,3.526-13.593,4.243
		c-7.658,0.723-13.989-0.014-14.143-1.637C25.966,105.145,32.05,103.244,39.712,102.523z"/>
	<g>
		<circle opacity="0.8" fill="#004A3F" enable-background="new    " cx="60.36" cy="77.998" r="1.379"/>
		
			<radialGradient id="SVGID_1_" cx="192.7588" cy="-640.4863" r="0.7" gradientTransform="matrix(0.7009 0.7133 -0.7133 0.7009 -532.532 389.1425)" gradientUnits="userSpaceOnUse">
			<stop  offset="0" style="stop-color:#00C8C5"/>
			<stop  offset="0.1255" style="stop-color:#00C1BD"/>
			<stop  offset="0.3392" style="stop-color:#00AFA6"/>
			<stop  offset="0.6139" style="stop-color:#008F80"/>
			<stop  offset="0.6214" style="stop-color:#008E80"/>
			<stop  offset="0.9933" style="stop-color:#007C6D"/>
		</radialGradient>
		<circle fill="url(#SVGID_1_)" cx="60.216" cy="77.999" r="1.28"/>
		<g>
			
				<line fill="none" stroke="#005C51" stroke-width="0.2465" stroke-miterlimit="10" x1="59.53" y1="77.348" x2="60.923" y2="78.859"/>
		</g>
		<g>
			
				<line fill="none" stroke="#005C51" stroke-width="0.2465" stroke-miterlimit="10" x1="60.98" y1="77.409" x2="59.471" y2="78.799"/>
		</g>
	</g>
	<path fill="#FFFFFF" stroke="#1F191A" stroke-width="0.1534" stroke-miterlimit="10" d="M38.871,92.003"/>
	<path fill="#87C922" stroke="#538A0C" stroke-width="0.4118" stroke-miterlimit="10" d="M40.768,91.209
		c0,0-0.464,6.568,1.114,7.379c1.579,0.811,3.062,0.811,3.062,0.811s5.38-3.438,6.866,2.324c1.483,5.766-14.383,2.43-14.383,0.506
		c0-1.92,2.877-4.446,1.207-10.918L40.768,91.209z"/>
	<path fill="#87C922" stroke="#538A0C" stroke-width="0.4118" stroke-miterlimit="10" d="M38.751,92.016c0,0-0.84,4.105,0.875,6.305
		c1.719,2.19,2.37,5.314-2.881,7.307c-5.254,1.989-9.439,1.305-9.439-2.059c0-3.364,5.802-3.504,7.481-3.605
		c1.683-0.104,3.02-3.087,2.023-8.818L38.751,92.016z"/>
	<path fill="#87C922" stroke="#538A0C" stroke-width="0.4118" stroke-miterlimit="10" d="M36.709,101.268
		c0,0-0.584-1.371-1.75-1.305"/>
	<path fill="#87C922" stroke="#538A0C" stroke-width="0.4118" stroke-miterlimit="10" d="M63.604,79.021l-4.445-2.148
		c-6.523,6.796-16.42,2.152-18.588,1.006l-1.201-1.199l-1.445,1.086l-0.149-0.039c0,0-9.025,0.309-8.923,0.926
		c0.103,0.619,2.111,4.117,2.882,6.949l0.67-1.34l-1.443-4.168c0,0,2.778-0.513,4.866-0.759l-0.044,0.034l7,0.724l-0.294-0.299
		C51.173,86.093,63.604,79.021,63.604,79.021z"/>
	<path fill="#87C922" stroke="#538A0C" stroke-width="0.4118" stroke-miterlimit="10" d="M59.818,73.447c0,0,1.602-3.635,1.92-5.233
		c0.318-1.604,2.99-4.17,3.846-1.284c0.854,2.885-2.563,6.41-2.563,6.41l3.949,3.524c0,0-1.178,5.551-4.484,3.2
		c0,0-4.271-0.316-4.484-3.311C57.788,73.766,59.818,73.447,59.818,73.447z"/>
	<path fill="#87C922" stroke="#538A0C" stroke-width="0.4118" stroke-miterlimit="10" d="M64.896,73.449
		c0.67,0.646,0.496,1.919-0.393,2.849c-0.889,0.923-2.156,1.151-2.829,0.505c-0.673-0.646-0.495-1.921,0.392-2.849
		C62.956,73.029,64.223,72.802,64.896,73.449z"/>
	
		<ellipse transform="matrix(0.7217 0.6922 -0.6922 0.7217 71.415 -23.871)" fill="#87C922" stroke="#538A0C" stroke-width="0.4118" stroke-miterlimit="10" cx="65.395" cy="76.881" rx="1.439" ry="1.945"/>
	<path fill="#87C922" stroke="#538A0C" stroke-width="0.4118" stroke-miterlimit="10" d="M59.288,73.676
		c-0.035-0.238,3.81-1.512,3.81,1.202c0,2.711-3.088,1.478-3.088,1.478"/>
	<path fill="#87C922" stroke="#538A0C" stroke-width="0.4118" stroke-miterlimit="10" d="M34.947,90.984
		c0,0-0.855,1.961-4.227,1.759c-3.369-0.202-2.264-5.786,0-4.276L34.947,90.984z"/>
	<path fill="#87C922" stroke="#538A0C" stroke-width="0.4118" stroke-miterlimit="10" d="M31.877,84.441
		c0,0-2.615,1.158-2.214,2.564c0.403,1.41,1.763,6.992,4.933,4.83C37.763,89.674,36.507,82.079,31.877,84.441z"/>
	<ellipse fill="#87C922" cx="31.904" cy="91.511" rx="1.937" ry="1.081"/>
	<polyline fill="none" stroke="#538A0C" stroke-width="0.4118" stroke-miterlimit="10" points="29.615,47.622 31.94,51.164 
		41.258,50.173 42.784,46.222 	"/>
	
		<ellipse transform="matrix(0.9875 -0.1575 0.1575 0.9875 -7.1312 5.2566)" fill="#87C922" cx="29.603" cy="47.626" rx="0.476" ry="0.513"/>
	<circle fill="#87C922" cx="42.884" cy="46.135" r="0.514"/>
	<circle fill="#87C922" stroke="#538A0C" stroke-width="0.4118" stroke-miterlimit="10" cx="36.679" cy="78.207" r="2.002"/>
	<circle fill="#87C922" stroke="#538A0C" stroke-width="0.4118" stroke-miterlimit="10" cx="41.789" cy="78.205" r="1.768"/>
	<path fill="#87C922" stroke="#538A0C" stroke-width="0.4118" stroke-miterlimit="10" d="M39.033,76.746l-0.083,0.043l-0.082-0.043
		c0,0-16.732,10.813-0.105,15.445l0.187-0.033l0.188,0.033C55.765,87.559,39.033,76.746,39.033,76.746z"/>
	<path fill="#87C922" stroke="#538A0C" stroke-width="0.4118" stroke-miterlimit="10" d="M40.346,72.477c0,0-0.154,5.406,0,5.252
		c0.155-0.155-1.062,1.68-2.572,0v-5.285L40.346,72.477z"/>
	<path fill="#87C922" stroke="#538A0C" stroke-width="0.4118" stroke-miterlimit="10" d="M53.894,66.749
		c-0.92-10.271-8.709-17.966-17.4-17.188c-8.691,0.779-14.99,9.732-14.073,20.005c0.027,0.297,0.061,0.592,0.098,0.884
		c0,0.018-0.005,0.032-0.002,0.048l0.314,3.521c0.051,0.582,1.636,0.914,3.538,0.746L50.9,72.57c1.905-0.17,3.403-0.779,3.352-1.361
		l-0.285-3.172C53.953,67.604,53.931,67.178,53.894,66.749z"/>
	<circle fill="#FFFFFF" stroke="#1F191A" stroke-width="0.4118" stroke-miterlimit="10" cx="32.111" cy="60.896" r="3.272"/>
	<circle fill="#87C922" stroke="#538A0C" stroke-width="0.4118" stroke-miterlimit="10" cx="38.941" cy="84.83" r="2.883"/>
	<circle fill="#1F191A" cx="32.728" cy="60.071" r="1.839"/>
	<circle fill="#FFFFFF" cx="33.243" cy="59.453" r="0.796"/>
	<circle fill="#FFFFFF" stroke="#1F191A" stroke-width="0.4118" stroke-miterlimit="10" cx="44.325" cy="57.551" r="3.271"/>
	<circle fill="#1F191A" cx="44.943" cy="56.725" r="1.836"/>
	<circle fill="#FFFFFF" cx="45.459" cy="56.107" r="0.799"/>
	<g>
		<polyline fill="#87C922" stroke="#538A0C" stroke-width="0.4118" stroke-miterlimit="10" points="32.527,68.747 33.344,70.055 
			39.663,69.484 		"/>
		<polyline fill="#87C922" stroke="#538A0C" stroke-width="0.4118" stroke-miterlimit="10" points="46.562,67.486 45.987,68.921 
			39.667,69.484 		"/>
	</g>
	<path fill="#87C922" stroke="#538A0C" stroke-width="0.4118" stroke-miterlimit="10" d="M37.722,74.052c0,0,1.399,1.134,2.527,0"/>
	<path fill="#87C922" stroke="#538A0C" stroke-width="0.4118" stroke-miterlimit="10" d="M37.823,75.494c0,0,1.343,1.134,2.425,0"/>
	<path fill="#87C922" stroke="#538A0C" stroke-width="0.4118" stroke-miterlimit="10" d="M37.823,76.73c0,0,1.343,1.133,2.425,0"/>
	<circle fill="#FFFFFF" cx="31.802" cy="59.453" r="0.278"/>
	<path fill="#FFFFFF" d="M43.958,55.877c0.151,0,0.277,0.125,0.277,0.276c0,0.157-0.125,0.28-0.277,0.28
		c-0.154,0-0.28-0.122-0.28-0.28C43.681,56.002,43.805,55.877,43.958,55.877z"/>
	<polygon fill="#FFF000" points="28.285,47.7 26.469,47.33 26.68,47.035 	"/>
	<polygon fill="#FFF000" points="29.733,46.273 29.574,44.425 29.921,44.546 	"/>
	<polygon fill="#FFF000" points="29.645,49.013 29.603,50.871 29.272,50.713 	"/>
	<polygon fill="#FFF000" points="31.037,47.695 32.885,47.539 32.761,47.886 	"/>
	<polygon fill="#FFF000" points="42.378,44.788 42.37,42.931 42.706,43.08 	"/>
	<polygon fill="#FFF000" points="44.073,45.912 45.852,45.376 45.802,45.74 	"/>
	<polygon fill="#FFF000" points="41.373,46.386 39.545,46.727 39.634,46.37 	"/>
	<polygon fill="#FFF000" points="42.949,47.476 43.477,49.256 43.113,49.208 	"/>
	<path fill="#87C922" stroke="#538A0C" stroke-width="0.4118" stroke-miterlimit="10" d="M44.943,99.4c0,0-0.614,0.632-0.614,1.148"
		/>
	<path fill="#FFFFFF" d="M37.226,78.445c0,0-4.256,4.117-4.393,5.353c-0.138,1.236-1.922,3.159,1.373,5.903
		C34.206,89.702,29.677,87.23,37.226,78.445z"/>
	<path fill="#FFFFFF" d="M35.373,50.368c0,0-14.551,3.294-11.943,22.245C23.43,72.613,21.646,56.134,35.373,50.368z"/>
	<path fill="#FFFFFF" d="M29.468,79.202l1.921,4.528C31.392,83.73,30.566,80.025,29.468,79.202z"/>
	<path fill="#FFFFFF" d="M30.154,86.614c0,0,0.55,2.884,0.96,3.295C31.528,90.318,30.154,86.614,30.154,86.614z"/>
	<path fill="#FFFFFF" d="M29.331,88.947c0,0-1.097,1.718,0.206,2.951C29.536,91.898,28.782,90.46,29.331,88.947z"/>
	<path fill="#FFFFFF" d="M36.47,76.593c0,0-1.872,0.688-1.426,2.062C35.044,78.652,35.133,77.418,36.47,76.593z"/>
	<path fill="#FFFFFF" d="M38.117,74.052v3.501C38.117,77.553,38.6,75.357,38.117,74.052z"/>
	<path fill="#FFFFFF" d="M37.499,82.909c0,0-2.402,1.577-0.068,3.841C37.429,86.75,35.716,85.034,37.499,82.909z"/>
	<path fill="#FFFFFF" d="M59.393,74.26c0,0,1.233-1.236,3.019-0.275C62.411,73.984,61.105,73.573,59.393,74.26z"/>
	<path fill="#FFFFFF" d="M64.4,66.09c0,0-2.127,0.274-2.746,4.258C61.654,70.346,62.615,66.775,64.4,66.09z"/>
	<path fill="#FFFFFF" d="M29.684,101.368c0,0,1.319-0.657,1.953-0.032c0.636,0.622-1.695,1.655-2.396,1.284
		C28.535,102.253,28.931,101.627,29.684,101.368z"/>
	<path fill="#FFFFFF" d="M46.178,99.636c0,0,1.322-0.657,1.957-0.03c0.636,0.625-1.697,1.656-2.396,1.285
		C45.031,100.523,45.425,99.896,46.178,99.636z"/>
	<path fill="#FFFFFF" d="M65.225,75.838c0,0-1.17,0.758-1.1,1.58L65.225,75.838z"/>
	<path fill="#FFFFFF" d="M64.104,73.659c0,0-0.783,0.071-0.862,0.288C63.241,73.947,64.023,73.878,64.104,73.659z"/>
	<path fill="#FFFFFF" d="M58.088,78.582c0,0-3.475,2.264-6.35,2.264C51.738,80.846,54.61,81.543,58.088,78.582z"/>
</g>
<polygon fill="#FFCD00" points="68.5,11.833 66.199,9.688 63.459,11.232 64.167,8.167 61.459,6.566 64.468,5.646 64.5,2.5 
	66.801,4.646 69.541,3.102 68.833,6.167 71.541,7.768 68.532,8.688 "/>
<polygon fill="#FFCD00" points="91.834,23.525 92.994,26.157 95.854,25.846 94.154,28.167 95.854,30.488 92.994,30.177 
	91.834,32.809 90.674,30.177 87.813,30.488 89.514,28.167 87.813,25.846 90.674,26.157 "/>
<polygon fill="#FFCD00" points="98.167,49.374 99.948,53.414 104.338,52.937 101.729,56.5 104.338,60.063 99.948,59.584 
	98.167,63.625 96.387,59.584 91.996,60.063 94.604,56.5 91.996,52.937 96.387,53.414 "/>
<polygon fill="#FFCD00" points="106.566,10.967 107.7,13.537 110.492,13.233 108.833,15.5 110.492,17.767 107.7,17.463 
	106.566,20.033 105.434,17.463 102.641,17.767 104.3,15.5 102.641,13.233 105.434,13.537 "/>
<polygon fill="#FFCD00" points="18.5,12.593 19.977,15.942 23.616,15.546 21.454,18.5 23.616,21.454 19.977,21.058 18.5,24.407 
	17.023,21.058 13.384,21.454 15.546,18.5 13.384,15.546 17.023,15.942 "/>
<polygon fill="#FFCD00" points="70.167,84.23 71.9,88.163 76.174,87.699 73.635,91.167 76.174,94.635 71.9,94.171 70.167,98.104 
	68.434,94.171 64.16,94.635 66.699,91.167 64.16,87.699 68.434,88.163 "/>
<polygon fill="#FFCD00" points="67.834,45.833 69.084,48.668 72.164,48.333 70.334,50.833 72.164,53.333 69.084,52.999 
	67.834,55.833 66.584,52.999 63.504,53.333 65.334,50.833 63.504,48.333 66.584,48.668 "/>
<polygon fill="#FFCD00" points="15.833,75.577 16.731,77.611 18.942,77.372 17.628,79.167 18.942,80.962 16.731,80.723 
	15.833,82.757 14.936,80.723 12.725,80.962 14.039,79.167 12.725,77.372 14.936,77.611 "/>
<polygon fill="#FFCD00" points="91.962,71.827 93.141,74.5 96.044,74.186 94.318,76.541 96.044,78.896 93.141,78.582 91.962,81.255 
	90.783,78.582 87.88,78.896 89.605,76.541 87.88,74.186 90.783,74.5 "/>
<polygon fill="#FFCD00" points="100.167,94.617 101.471,97.575 104.686,97.227 102.775,99.834 104.686,102.441 101.471,102.093 
	100.167,105.051 98.863,102.093 95.648,102.441 97.559,99.834 95.648,97.227 98.863,97.575 "/>
<polygon fill="#FFCD00" points="47.833,22.593 48.977,25.186 51.795,24.879 50.121,27.167 51.795,29.454 48.977,29.147 
	47.833,31.74 46.69,29.147 43.872,29.454 45.546,27.167 43.872,24.879 46.69,25.186 "/>
<path fill="#16307A" d="M68.066,92.422C83.12,77.827,84.74,77.034,84.74,74.231c0-0.847-1.352-1.852-2.565-1.852
	c-4.253,0-6.346,2.538-6.346,2.538c-1.08,0.635-7.088-6.451-7.088-7.297c0-0.793,4.726-5.341,14.311-5.341
	c9.046,0,16.471,2.961,16.471,10.206c0,4.178-1.688,6.716-13.096,18.243l13.096-0.159c0.743,0.688,0.54,9.307-0.066,9.254
	c-1.08-0.212-29.567,0.37-30.04,0.105C69.011,99.719,67.796,93.85,68.066,92.422z"/>
</svg>
