<svg version="1.1" id="Capa_1" xmlns="http://www.w3.org/2000/svg" xmlns:xlink="http://www.w3.org/1999/xlink" x="0px" y="0px" width="120px" height="120px" viewBox="0 0 120 120" enable-background="new 0 0 120 120" xml:space="preserve">
<rect fill="#EF8031" width="120" height="120"/>
<path fill="#A1EEE9" stroke="#9BCBCB" stroke-width="1.3247" stroke-miterlimit="10" d="M43.598,82.284
	c5.066-5.276,12.051,18.466,12.378,34.47c0.023,1.154,0.129,2.229,0.292,3.246h37.731c0.19-1.236,0.287-2.566,0.258-4.006
	c-0.327-16.025,5.708-40.018,10.979-34.951c5.291,5.07,2.473-10.398-3.891-11.27c-5.734-0.791-17.716,12.129-26.873,14.809
	c-9.244-2.323-21.732-14.73-27.432-13.719C40.725,71.993,38.531,87.564,43.598,82.284z"/>
<path fill="#FF6D77" d="M62.146,106.954c-1.603,4.998-1.86,9.235-1.133,12.713h27.375c1.248-4.712,1.4-9.499,1.16-11.483
	c-0.537-4.438,3.155-20.092,3.155-20.092c-7.188,7.93-32.229,2.206-32.229,2.206C64.57,94.893,62.146,106.954,62.146,106.954z"/>
<path fill="#FFA47C" stroke="#E4906D" stroke-width="0.8833" stroke-miterlimit="10" d="M59.577,34.895L47.859,16.874
	c0,0-2.753-3.953,1.179-8.037c3.926-4.082,8.045,1.841,8.045,1.841l13.104,20.438l-8.347,5.724L59.577,34.895z"/>
<ellipse transform="matrix(-0.7444 -0.6677 0.6677 -0.7444 80.9045 53.8287)" fill="#C85D0D" cx="50.754" cy="11.43" rx="2.082" ry="4.425"/>
<circle fill="#FFE551" stroke="#FFD350" stroke-width="0.8833" stroke-miterlimit="10" cx="56.271" cy="53.748" r="19.358"/>
<path fill="#ED7FB5" stroke="#B6608C" stroke-width="0.8833" stroke-miterlimit="10" d="M92.105,41.255
	c10.692-0.218,19.531,8.264,19.748,18.953c0.213,10.692-8.275,19.524-18.965,19.744c-10.688,0.217-19.527-8.277-19.742-18.959
	C72.932,50.304,81.419,41.465,92.105,41.255z"/>
<line fill="none" stroke="#C85D0D" stroke-width="1.3353" stroke-miterlimit="10" x1="103.326" y1="13.513" x2="80.35" y2="48.678"/>
<path fill="#FFD8E3" stroke="#EBC3CD" stroke-width="0.4414" stroke-miterlimit="10" d="M75.666,21.216
	c0,0,8.066-13.854,27.249-6.557c0,0,14.819,6.711,9.851,24.837c0,0-7.115-4.869-9.369-0.812c0,0-5.146-6.913-11.127-5.457
	c0,0-7.187-8.867-10.479-6.46C81.783,26.768,82.006,21.083,75.666,21.216z"/>
<path fill="#529C6C" stroke="#408258" stroke-width="0.8833" stroke-miterlimit="10" d="M75.927,28.774c0,0-1.709-7.53,0.052-8.676
	c1.764-1.159-6.203,1.235-5.192,7.442c1.017,6.211-5.425-4.344-7.685-5.854c-2.256-1.518,0.176,8.454,1.547,10.206
	c1.369,1.758-6.684-0.078-7.758,1.709c-1.072,1.802,3.887,5.053,9.036,6.28L75.927,28.774z"/>
<path fill="#D8406D" d="M60.584,106.984c0,0,23.204-8.26,32.535-20.244c0,0-8.732,19.539-31.576,23.999
	C61.553,110.749,58.628,109.247,60.584,106.984z"/>
<path fill="#FF5F7D" stroke="#DB4A64" stroke-width="0.4493" stroke-miterlimit="10" d="M103.361,15.327
	c0,0,2.699,17.773,0.477,23.525c0,0,2.082-4.378,9.025,0.684C112.863,39.532,116.535,22.847,103.361,15.327z"/>
<path fill="#FF5F7D" stroke="#DB4A64" stroke-width="0.4398" stroke-miterlimit="10" d="M82.268,25.583c0,0,8.08,0.494,10.063,7.362
	c0,0,9.479-13.669,9.224-18.098C101.551,14.854,89.27,14.597,82.268,25.583z"/>
<path fill="#FFE551" d="M52.948,72.393c0,0,0.518,3.545,2.366,6.854c1.848,3.3,2.344,5.729,1.709,7.306
	c-0.637,1.57-3.032,4.297-0.119,5.34c2.916,1.058,1.527-1.81,2.376-3.832c0.848-2.026-0.373-7.565,1.4-7.813
	c1.774-0.263,1.868,4.188,1.699,6.862c-0.172,2.673-2.708,9.181,1.298,9.317c4.007,0.14,1.683-5.147,1.423-6.702
	c-0.259-1.547-0.146-7.345,0.285-8.234c0.428-0.904,0.362-3.788,0.362-3.788s-10.239-11.155-11.74-8.007
	C52.515,72.848,52.948,72.393,52.948,72.393z"/>
<circle fill="#70C72C" stroke="#5FAF25" stroke-width="0.8833" stroke-miterlimit="10" cx="73.932" cy="67.653" r="19.357"/>
<path fill="#FF6B7F" stroke="#EA5B6C" stroke-width="0.8833" stroke-miterlimit="10" d="M70.484,29.334
	c0,0,16.865-8.022,17.306,13.671c0.438,21.69-25.503,4.515-23.479-5.535C64.307,37.47,65.068,30.785,70.484,29.334z"/>
<g>
	<g>
		<path fill="#A84E11" d="M66.684,36.71c0.49-0.011,0.642-0.649,0.063-0.638C66.256,36.075,66.109,36.719,66.684,36.71L66.684,36.71
			z"/>
	</g>
</g>
<g>
	<g>
		<path fill="#A84E11" d="M71.357,33.873c0.295-0.001,0.901-0.473,0.332-0.47C71.387,33.413,70.784,33.886,71.357,33.873
			L71.357,33.873z"/>
	</g>
</g>
<g>
	<g>
		<path fill="#A84E11" d="M69.855,30.766c0.188-0.011,0.974-0.38,0.543-0.376C70.218,30.393,69.436,30.772,69.855,30.766
			L69.855,30.766z"/>
	</g>
</g>
<g>
	<g>
		<path fill="#A84E11" d="M68.622,34.236c0.493-0.017,0.646-0.643,0.065-0.632C68.201,33.617,68.051,34.239,68.622,34.236
			L68.622,34.236z"/>
	</g>
</g>
<g>
	<g>
		<path fill="#A84E11" d="M71.182,40.583c0.492-0.012,0.643-0.632,0.065-0.613C70.758,39.977,70.604,40.593,71.182,40.583
			L71.182,40.583z"/>
	</g>
</g>
<g>
	<g>
		<path fill="#A84E11" d="M73.586,45.141c0.359-0.005,0.876-0.58,0.296-0.561C73.521,44.586,73.005,45.157,73.586,45.141
			L73.586,45.141z"/>
	</g>
</g>
<g>
	<g>
		<path fill="#A84E11" d="M77.081,44.76c0.25-0.006,0.92-0.394,0.353-0.378C77.193,44.383,76.518,44.77,77.081,44.76L77.081,44.76z"
			/>
	</g>
</g>
<g>
	<g>
		<path fill="#A84E11" d="M77.302,48.409c0.489-0.011,0.642-0.641,0.066-0.624C76.875,47.793,76.725,48.424,77.302,48.409
			L77.302,48.409z"/>
	</g>
</g>
<g>
	<g>
		<path fill="#A84E11" d="M73.676,39.556c0.272-0.007,0.911-0.445,0.34-0.43C73.732,39.129,73.098,39.556,73.676,39.556
			L73.676,39.556z"/>
	</g>
</g>
<g>
	<g>
		<path fill="#A84E11" d="M68.914,43.687c0.355-0.007,0.886-0.557,0.307-0.547C68.867,43.143,68.338,43.688,68.914,43.687
			L68.914,43.687z"/>
	</g>
</g>
<g>
	<g>
		<path fill="#A84E11" d="M68.654,35.981c0.475-0.009,0.65-0.607,0.072-0.6C68.255,35.397,68.073,35.994,68.654,35.981
			L68.654,35.981z"/>
	</g>
</g>
<g>
	<g>
		<path fill="#A84E11" d="M66.82,39.674c0.264-0.002,0.916-0.421,0.352-0.411C66.91,39.277,66.26,39.679,66.82,39.674L66.82,39.674z
			"/>
	</g>
</g>
<g>
	<g>
		<path fill="#A84E11" d="M80.381,42.999c0.338-0.007,0.887-0.537,0.314-0.535C80.344,42.479,79.807,43.014,80.381,42.999
			L80.381,42.999z"/>
	</g>
</g>
<g>
	<g>
		<path fill="#A84E11" d="M81.465,46.787c0.49-0.015,0.643-0.644,0.063-0.63C81.036,46.17,80.885,46.797,81.465,46.787
			L81.465,46.787z"/>
	</g>
</g>
<g>
	<g>
		<path fill="#A84E11" d="M78.422,50.242c0.184-0.009,0.964-0.365,0.543-0.357C78.795,49.89,78.006,50.244,78.422,50.242
			L78.422,50.242z"/>
	</g>
</g>
<g>
	<g>
		<path fill="#A84E11" d="M82.721,49.159c0.364-0.015,0.875-0.577,0.297-0.565C82.646,48.593,82.141,49.165,82.721,49.159
			L82.721,49.159z"/>
	</g>
</g>
<g>
	<g>
		<path fill="#A84E11" d="M82.096,51.966c0.258-0.014,0.912-0.427,0.338-0.414C82.172,51.555,81.523,51.974,82.096,51.966
			L82.096,51.966z"/>
	</g>
</g>
<g>
	<g>
		<path fill="#A84E11" d="M83.736,39.75c0.183,0.001,0.968-0.368,0.539-0.367C84.092,39.395,83.309,39.762,83.736,39.75
			L83.736,39.75z"/>
	</g>
</g>
<g>
	<g>
		<path fill="#A84E11" d="M81.145,36.995c0.313-0.006,0.9-0.491,0.321-0.477C81.154,36.522,80.564,37.007,81.145,36.995
			L81.145,36.995z"/>
	</g>
</g>
<g>
	<g>
		<path fill="#A84E11" d="M78.313,39.26c0.299-0.009,0.908-0.49,0.328-0.476C78.334,38.791,77.734,39.273,78.313,39.26L78.313,39.26
			z"/>
	</g>
</g>
<g>
	<g>
		<path fill="#A84E11" d="M75.132,35.739c0.252-0.008,0.925-0.391,0.354-0.376C75.23,35.368,74.568,35.75,75.132,35.739
			L75.132,35.739z"/>
	</g>
</g>
<g>
	<g>
		<path fill="#A84E11" d="M74.984,33.084c0.188-0.01,0.965-0.371,0.543-0.364C75.352,32.719,74.57,33.094,74.984,33.084
			L74.984,33.084z"/>
	</g>
</g>
<g>
	<g>
		<path fill="#A84E11" d="M77.042,31.296c0.263-0.003,0.917-0.416,0.337-0.401C77.121,30.901,76.464,31.308,77.042,31.296
			L77.042,31.296z"/>
	</g>
</g>
<g>
	<g>
		<path fill="#A84E11" d="M80.964,33.073c0.47-0.007,0.646-0.587,0.075-0.573C80.559,32.501,80.384,33.091,80.964,33.073
			L80.964,33.073z"/>
	</g>
</g>
<g>
	<g>
		<path fill="#A84E11" d="M79.127,30.564c0.17-0.007,0.965-0.354,0.547-0.352C79.504,30.22,78.713,30.573,79.127,30.564
			L79.127,30.564z"/>
	</g>
</g>
<g>
	<g>
		<path fill="#A84E11" d="M77.8,35.525c0.327-0.005,0.896-0.509,0.319-0.49C77.788,35.031,77.225,35.538,77.8,35.525L77.8,35.525z"
			/>
	</g>
</g>
<g>
	<g>
		<path fill="#A84E11" d="M83.307,35.356c0.252-0.003,0.918-0.397,0.348-0.383C83.396,34.978,82.736,35.368,83.307,35.356
			L83.307,35.356z"/>
	</g>
</g>
<g>
	<g>
		<path fill="#A84E11" d="M82.365,31.905c0.326-0.002,0.896-0.511,0.322-0.503C82.355,31.405,81.783,31.913,82.365,31.905
			L82.365,31.905z"/>
	</g>
</g>
<g>
	<g>
		<path fill="#A84E11" d="M83.184,44.328c0.485-0.013,0.635-0.653,0.063-0.639C82.752,43.69,82.609,44.339,83.184,44.328
			L83.184,44.328z"/>
	</g>
</g>
<g>
	<g>
		<path fill="#A84E11" d="M77.813,41.107c0.485-0.003,0.646-0.626,0.065-0.612C77.393,40.499,77.238,41.115,77.813,41.107
			L77.813,41.107z"/>
	</g>
</g>
<g>
	<g>
		<path fill="#A84E11" d="M75.061,42.809c0.252-0.006,0.916-0.401,0.347-0.379C75.162,42.435,74.496,42.824,75.061,42.809
			L75.061,42.809z"/>
	</g>
</g>
<g>
	<g>
		<path fill="#A84E11" d="M74.324,49.286c0.332-0.005,0.902-0.511,0.322-0.497C74.313,48.788,73.744,49.305,74.324,49.286
			L74.324,49.286z"/>
	</g>
</g>
<g>
	<g>
		<path fill="#A84E11" d="M84.866,46.836c0.284,0,0.911-0.442,0.331-0.431C84.912,46.416,84.297,46.853,84.866,46.836L84.866,46.836
			z"/>
	</g>
</g>
<g>
	<g>
		<path fill="#A84E11" d="M84.921,49.515c0.317-0.009,0.905-0.5,0.327-0.491C84.936,49.036,84.35,49.523,84.921,49.515
			L84.921,49.515z"/>
	</g>
</g>
<g>
	<g>
		<path fill="#A84E11" d="M84.658,41.725c0.188-0.003,0.972-0.381,0.541-0.375C85.007,41.358,84.225,41.74,84.658,41.725
			L84.658,41.725z"/>
	</g>
</g>
<g>
	<g>
		<path fill="#A84E11" d="M85.223,36.857c0.187-0.004,0.977-0.38,0.541-0.37C85.582,36.492,84.801,36.865,85.223,36.857
			L85.223,36.857z"/>
	</g>
</g>
<g>
	<g>
		<path fill="#A84E11" d="M80.561,40.583c0.375-0.011,0.879-0.57,0.301-0.562C80.495,40.026,79.982,40.587,80.561,40.583
			L80.561,40.583z"/>
	</g>
</g>
<g>
	<g>
		<path fill="#A84E11" d="M85.926,43.982c0.326-0.003,0.889-0.521,0.309-0.508C85.9,43.482,85.346,43.995,85.926,43.982
			L85.926,43.982z"/>
	</g>
</g>
<g>
	<g>
		<path fill="#A84E11" d="M78.906,46.544c0.314-0.003,0.894-0.511,0.32-0.496C78.911,46.059,78.327,46.561,78.906,46.544
			L78.906,46.544z"/>
	</g>
</g>
<g>
	<g>
		<path fill="#A84E11" d="M70.871,46.561c0.488-0.005,0.625-0.657,0.046-0.646C70.42,45.92,70.284,46.572,70.871,46.561
			L70.871,46.561z"/>
	</g>
</g>
<g>
	<g>
		<path fill="#A84E11" d="M70.982,37.41c0.3-0.015,0.904-0.462,0.34-0.458C71.027,36.959,70.404,37.416,70.982,37.41L70.982,37.41z"
			/>
	</g>
</g>
<g>
	<g>
		<path fill="#A84E11" d="M73.296,30.573c0.375-0.002,0.872-0.592,0.29-0.578C73.203,30.007,72.721,30.591,73.296,30.573
			L73.296,30.573z"/>
	</g>
</g>
<path fill="#FFFFFF" d="M47.994,38.756c0,0-13.099,7.552-8.2,20.702C39.794,59.458,38.684,47.989,47.994,38.756z"/>
<path fill="#FFFFFF" d="M57.315,59.836c0,0-6.328,13.729,5.265,21.645C62.582,81.477,55.052,72.759,57.315,59.836z"/>
<path fill="#FFFFFF" d="M56.935,87.934c0,0-1.821,2.682-0.371,3.541C56.563,91.475,56.079,89.268,56.935,87.934z"/>
<path fill="#FFFFFF" d="M62.096,91.924c0,0-0.604,3.096,0.952,3.732C63.05,95.65,62.257,94.784,62.096,91.924z"/>
<path fill="#FFFFFF" d="M64.768,38.411c0,0,0.867,6.605,9.221,11.886C73.992,50.298,67.411,45.122,64.768,38.411z"/>
<path fill="#C85D0D" d="M103.159,15.381c-0.317,0.365-0.933,0.353-1.384-0.022l0,0c-0.447-0.393-0.547-0.999-0.229-1.367
	l0.578-0.661c0.319-0.373,0.937-0.361,1.384,0.012l0,0c0.44,0.385,0.544,0.992,0.232,1.362L103.159,15.381z"/>
<path fill="#FFFFFF" d="M50.403,85.225c0,0,5.678,11.523,6.619,29.021C57.022,114.244,57.072,95.111,50.403,85.225z"/>
<path fill="#FFFFFF" d="M46.024,72.652c0,0-3.188,2.422-4.102,8.32C41.922,80.975,44.148,74.907,46.024,72.652z"/>
<path fill="#D8406D" d="M84.545,120c2.866-2.751,4.688-5.128,4.688-5.128c-1.821,2.058-4.635,3.731-7.73,5.128H84.545z"/>
<path opacity="0.65" fill="#FFFFFF" stroke="#0B7ABF" stroke-width="2" stroke-miterlimit="10" enable-background="new    " d="
	M0.008,0.101v119.799h119.984V0.101H0.008z M60.545,116.667c-37.657,0-50.151-24.303-50.151-24.303s21.153-18.927,22.765-18.927
	c1.612,0,9.875,13.571,24.777,13.571c6.039,0,8.053-4.262,8.053-6.312c0-7.261-8.86-10.257-19.737-10.257
	c-2.011-1.579,0-21.93,0-21.93c9.268,0,20.141,0.158,20.141-9.47c0-4.89-4.427-7.729-9.867-7.729
	c-10.878,0-19.743,9.938-19.743,9.938S16.443,27.524,17.244,23.736C18.051,20.105,32.352,2.433,59.14,2.433
	c26.985,0,47.334,11.676,47.334,34.081c0,13.728-14.906,20.511-14.906,20.511s16.918,7.572,16.918,23.666
	C108.484,103.417,85.117,116.667,60.545,116.667z"/>
</svg>
