<?xml version="1.0" encoding="utf-8"?>
<!-- Generator: Adobe Illustrator 16.0.0, SVG Export Plug-In . SVG Version: 6.00 Build 0)  -->
<!DOCTYPE svg PUBLIC "-//W3C//DTD SVG 1.1//EN" "http://www.w3.org/Graphics/SVG/1.1/DTD/svg11.dtd">
<svg version="1.1" id="Capa_1" xmlns="http://www.w3.org/2000/svg" xmlns:xlink="http://www.w3.org/1999/xlink" x="0px" y="0px"
	 width="120px" height="120px" viewBox="0 0 120 120" enable-background="new 0 0 120 120" xml:space="preserve">
<rect fill="#602D91" width="120" height="120"/>
<g>
	
		<radialGradient id="SVGID_1_" cx="-1733.4233" cy="133.9561" r="5.4768" gradientTransform="matrix(-1.1488 0.094 0.0981 1.1647 -1964.1587 76.0402)" gradientUnits="userSpaceOnUse">
		<stop  offset="0" style="stop-color:#FFFFFF"/>
		<stop  offset="0.1177" style="stop-color:#FFFBEC"/>
		<stop  offset="0.3551" style="stop-color:#FFF2BB"/>
		<stop  offset="0.6866" style="stop-color:#FFE469"/>
		<stop  offset="1" style="stop-color:#FFD600"/>
	</radialGradient>
	<path fill="url(#SVGID_1_)" d="M38.394,74.083c0,0-4.158-6.757,6.246-11.058c0,0,4.145,6.752,5.577,6.627
		C51.649,69.548,45.158,79.9,38.394,74.083z"/>
	<path fill="#CBCCCE" d="M71.995,53.063c0,0-33.979,7.223-37.904,0.529C34.091,53.593,35.344,44.253,71.995,53.063z"/>
	<path fill="#F3F3F3" stroke="#FFFFFF" stroke-width="0.3553" d="M48.573,51.828c0,0-4.47-0.164-8.409,1.065"/>
	<path fill="#D88D58" stroke="#BB6143" stroke-width="0.3553" d="M78.314,51.867c0,0-18.92-31.118-38.468-28.647
		c0,0-6.591,22.942,36.791,30.21C76.637,53.43,78.162,53.938,78.314,51.867z"/>
	<path fill="#CBCCCE" d="M33.56,44.841c0,0,4.177-8.471,36.141,11.288C69.701,56.129,35.151,52.423,33.56,44.841"/>
	<path fill="#FF9963" stroke="#E58355" stroke-width="0.4294" stroke-miterlimit="10" d="M66.452,61.168c0,0-8.94-2.288-10.904-9.34
		c0,0,21.095-8.988,32.183-9.523c0,0,0.709,8.118,2.672,8.464C90.402,50.769,83.27,51.305,66.452,61.168z"/>
	<path fill="#FF9963" stroke="#E58355" stroke-width="0.4294" stroke-miterlimit="10" d="M95.527,43.017
		c0,0-12.69-1.941-17.338,0.53c-4.656,2.463,1.252,10.222,15.377,6.875C93.561,50.422,91.77,43.9,95.527,43.017z"/>
	<path fill="#FF140F" d="M83.547,42.671c0,0-2.492,6.34,8.945,7.398c0,0-1.611-7.398,2.326-7.059c0,0-8.229-1.228-10.549-0.706"/>
	<path fill="#FF936E" stroke="#DE7E5B" stroke-width="0.3553" d="M98.081,41.332c3.628,0,6.571,2.667,6.571,5.954
		c0,3.294-2.943,5.96-6.571,5.96c-3.634,0-6.576-2.666-6.576-5.96C91.505,43.998,94.447,41.332,98.081,41.332z"/>
	<path fill="#171714" stroke="#8D8D8D" stroke-width="0.089" d="M102.354,45.312c0,1.85,0.907,3.36,2.035,3.36
		c1.12,0,2.034-1.51,2.034-3.36c0-1.836-0.914-3.347-2.034-3.347C103.262,41.965,102.354,43.462,102.354,45.312z"/>
	<path fill="#171714" stroke="#8D8D8D" stroke-width="0.089" d="M99.131,45.312c0,1.85,0.914,3.36,2.028,3.36
		c1.128,0,2.042-1.51,2.042-3.36c0-1.836-0.914-3.347-2.042-3.347C100.038,41.965,99.131,43.462,99.131,45.312z"/>
	<g>
		<path fill="#171714" d="M97.591,43.351c0.531-0.889-0.059-2.543-0.298-3.471c-0.357-1.444-0.85-2.974-1.704-4.222
			c-1.325-1.935-3.17,1.477-3.713,2.32c-0.678,1.052-1.438,2.241-2.706,2.601c-0.054,0.04-0.197-0.052-0.146-0.065
			c1.897-0.548,2.771-2.85,3.834-4.301c0.49-0.692,1.379-1.581,2.319-1.084c1.169,0.613,1.646,2.64,1.99,3.751
			c0.358,1.072,1.267,3.399,0.597,4.523C97.736,43.449,97.57,43.376,97.591,43.351L97.591,43.351z"/>
	</g>
	<g>
		<path fill="#171714" d="M99.555,41.756c0.041-2.563,3.455-7.458,6.088-8.118c3.297-0.811,5.662,2.072,6.776,4.823
			c0.015,0.025-0.153,0.007-0.167-0.033c-0.576-1.431-1.365-2.621-2.492-3.693c-2.626-2.51-4.607-0.947-6.246,0.642
			c-1.586,1.516-3.754,4.091-3.785,6.431C99.729,41.834,99.555,41.809,99.555,41.756L99.555,41.756z"/>
	</g>
	<path fill="#FF9963" stroke="#E58355" stroke-width="0.4294" stroke-miterlimit="10" d="M45.529,67.163
		c0,0-3.747-6.335,2.327-11.636c0,0-0.365,11.104,9.482,11.981C57.333,67.509,50.005,73.861,45.529,67.163z"/>
	<path fill="#FF9963" stroke="#E58355" stroke-width="0.4294" stroke-miterlimit="10" d="M55.9,68.396
		c0,0-11.797-2.816-9.482-10.746c0,0,0.365-1.764,2.507-3c0,0,10.371,12.151,11.804,10.399C60.729,65.045,57.512,68.038,55.9,68.396
		z"/>
	<path fill="#FF9963" stroke="#E58355" stroke-width="0.4294" stroke-miterlimit="10" d="M59.116,66.279
		c0,0-12.162-4.223-10.192-11.635c0,0,3.037-2.104,5.192-2.104l10.021,10.216C64.13,62.757,61.266,65.58,59.116,66.279z"/>
	<path fill="#FF9963" stroke="#E58355" stroke-width="0.4294" stroke-miterlimit="10" d="M63.229,63.979
		c0,0-12.163-1.805-10.557-11.026l4.661-1.993c0,0,4.463,9.411,10.724,9.052L63.229,63.979z"/>
	<path fill="#D88D58" stroke="#BB6143" stroke-width="0.3553" d="M79.48,50.743c0,0-29.509-22.987-46.638-12.987
		c0,0,2.752,24.916,45.698,15.163C78.534,52.919,80.15,52.828,79.48,50.743z"/>
	<path fill="none" stroke="#BB6143" stroke-width="0.3553" d="M78.05,50.827c0,0-26.785-10.614-42.566-10.934"/>
	<path fill="none" stroke="#BB6143" stroke-width="0.3398" d="M41.955,25.383c0,0,17.738,6.072,25.04,17.269"/>
	<g>
		<path fill="#FFFFFF" d="M102.232,44.083c0.332,1.202,0.352,2.418-0.543,3.379c-0.053,0.045-0.213-0.013-0.16-0.065
			c0.89-0.948,0.851-2.15,0.531-3.327C102.042,43.991,102.221,44.018,102.232,44.083L102.232,44.083z"/>
	</g>
	<path fill="none" stroke="#171714" stroke-width="0.1294" stroke-miterlimit="10" d="M95.913,47.835c0,0-1.916,4.641,2.168,5.418"
		/>
</g>
<path fill="none" stroke="#000000" stroke-width="0.25" stroke-miterlimit="10" d="M32.91,77.332c0,0-7.566,2.869-9.88,11.458"/>
<path fill="none" stroke="#000000" stroke-width="0.25" stroke-miterlimit="10" d="M31.57,80.686c0,0-6.353,4.947-5.967,13.836"/>
<radialGradient id="SVGID_2_" cx="1468.0713" cy="353.3457" r="18.7031" gradientTransform="matrix(2.2437 0 0 -1.8667 -3248.4431 729.8738)" gradientUnits="userSpaceOnUse">
	<stop  offset="0.3497" style="stop-color:#FBD623;stop-opacity:0.26"/>
	<stop  offset="0.8466" style="stop-color:#FFFFFF;stop-opacity:0"/>
</radialGradient>
<ellipse fill="url(#SVGID_2_)" cx="45.467" cy="70.284" rx="41.967" ry="34.912"/>
<path fill="none" stroke="#000000" stroke-width="0.25" stroke-miterlimit="10" d="M37.251,26.25c0,0-0.5-4,0.25-5.75
	c0,0,4.25-1,5.5,0"/>
<path fill="none" stroke="#000000" stroke-width="0.25" stroke-miterlimit="10" d="M36.001,24.25c0,0,0-3.75,0.5-4.5
	c0,0,2.25-1.25,4.5-0.25"/>
<path fill="none" stroke="#000000" stroke-width="0.25" stroke-miterlimit="10" d="M32.001,41c0,0-1-2-0.833-3.333
	c0,0,1.833-1.667,2.833-1.5"/>
<path fill="none" stroke="#000000" stroke-width="0.25" stroke-miterlimit="10" d="M30.167,39.5c0,0-0.333-1.5-0.167-2.5
	c0,0,1-1.167,2.333-1.5"/>
<path d="M67.733,84.347c0-13.062,16.471-23.002,16.471-23.002c-0.135-0.104,9.991,3.597,10.869,5.447
	c0,0.157-8.371,4.229-10.262,8.196C91.63,76.152,100,80.011,100,88.049S92.979,100,84.946,100S67.733,95.451,67.733,84.347z
	 M88.524,87.943c0-3.385-4.726-4.813-7.291-4.813c-1.62,2.168-0.945,7.402,4.319,7.402C86.837,90.533,88.524,89.688,88.524,87.943z"
	/>
</svg>
