<svg version="1.1" id="Capa_1" xmlns="http://www.w3.org/2000/svg" xmlns:xlink="http://www.w3.org/1999/xlink" x="0px" y="0px" width="120px" height="120px" viewBox="0 0 120 120" enable-background="new 0 0 120 120" xml:space="preserve">
<rect x="-0.09" y="0.456" fill="#96DEF8" stroke="#FF153F" stroke-width="2.9937" stroke-miterlimit="10" width="120.167" height="118.237"/>
<path fill="#FFFFFF" d="M28.093,30.922c-1.591-0.183-3.419-0.106-4.619,1.101c-0.666,0.671-1.407,1.945-0.892,2.897
	c0.907,1.672,4.165,1.407,5.715,1.316c1.146-0.068,2.265-0.275,3.404-0.405c2.38-0.271,4.777-0.241,7.167-0.173
	c2.083,0.059,4.183,0.173,6.267,0.148c1.409-0.014,3.812-0.813,3.154-2.734c-0.337-0.988-1.548-1.233-2.456-1.007
	c1.076-2.55-2.212-3.459-4.118-3.251c1.261-2.916-3.653-4.842-4.984-2.166c0.3-1.793-0.067-3.772-1.864-4.603
	c-1.433-0.663-3.227-0.462-4.634,0.169c-0.939,0.42-1.972,1.159-2.176,2.238c-0.254,1.344,0.944,2.41,1.955,3.062
	c-1.09-0.35-2.625-0.39-2.976,0.968c-0.248,0.957,0.248,2.129,1.124,2.591"/>
<path fill="#C8CF00" stroke="#5FAF25" stroke-width="0.0933" stroke-miterlimit="10" d="M30.914,29.946c0,0,3.585-1.564,0.684-5.386
	c-2.339-3.078-4.894-3.337-6.426-2.778c-1.275-1.855-3.763-4.487-6.373-1.832c0,0-1.002-3.313-4.007-2.039s-2.503-5.096-6.26-3.058
	c0,0-0.5-6.37-5.257-2.293C2.576,13.159,2,13.539,1.521,13.779v44.015c0.656-0.089,1.98-1.168,2.522-2.271
	c2.123,2.392,2.888,1.449,3.163,0.359c0.152-0.18,0.327-0.344,0.509-0.501c0.788,1.409,2.184,0.882,3.387-0.004
	c1.602,0.613,3.173,0.81,3.329-1.565c1.351,0.392,2.091-0.772,2.469-1.805c0.137-0.247,0.26-0.519,0.373-0.809
	c0.494,0.19,0.913,0.242,1.27,0.188c1.637-0.121,2.375-1.831,2.71-3.365c1.164,0.357,1.909-0.447,1.621-1.776
	c0.506,0.062,0.604-0.353,0.54-0.867c0.707-0.256,0.56-0.648,1.082-1.176c1.155,0.047,1.64-0.91,1.841-1.78
	c2.583-0.283,5.418-0.747,4.23-3.497c1.697-0.736,1.414-1.719,1.414-3.191c0,0,4.054,0.988,4.226-3.008
	C36.377,28.731,30.914,29.946,30.914,29.946z"/>
<path fill="#C85D0D" stroke="#8C3F04" stroke-width="0.1365" stroke-miterlimit="10" d="M1.506,59.538c0,0,6.805,3.676,10.869,4.383
	c4.062,0.71,7.042,3.964,10.563,3.7l-0.608,1.496c0,0-2.473-0.264-3.996-1.051c-1.525-0.787-7.957-2.649-9.108-3.308
	c-1.152-0.653-2.336-0.104-3.927-0.784c-1.591-0.686-3.861-2.416-3.861-2.416"/>
<path fill="#93D100" stroke="#70A40F" stroke-width="0.1223" stroke-miterlimit="10" d="M18.723,60.441c0,0-0.88-4.344-7.643-2.927
	c0,0-5.698,1.413-4.205,9.022c1.495,7.61,6.22,9.093,8.478,7.198c2.259-1.896,1.251-5.684-2.466-5.684c0,0-2.084,0.311-2.084,2.376
	s3.3,1.79,3.3,0.724s-0.764-0.998-0.694-0.274c0.069,0.724-1.148,0.448-1.148-0.207c0-0.653,0.488-1.171,1.46-1.171
	c0.973,0,1.39,0.758,1.39,1.445c0,0.688-0.835,2.171-2.641,2.171c-1.807,0-5.49-5.259-2.455-8.931c0,0,5.142,1.262,6.277,1.262
	c0,0,1.367,1.93,3.937,1.125c2.572-0.803,1.946-2.707,1.275-3.327c-0.672-0.62-0.718-1.147-0.672-1.425
	c0.047-0.274,0-0.734-0.579-1.31C19.673,59.937,18.723,60.441,18.723,60.441z"/>
<path fill="#93D100" stroke="#70A40F" stroke-width="0.1223" stroke-miterlimit="10" d="M13.443,64.161c0,0,0.416,0.458-0.512,1.284
	c-0.926,0.828,0,2.55,1.761,1.884c0,0,0.185-0.274-0.208-0.438c-0.394-0.158-1.598-1.101,1.274-1.721"/>
<path fill="#93D100" stroke="#70A40F" stroke-width="0.1223" stroke-miterlimit="10" d="M11.867,63.977c0,0-1.088,0.553-1.019,1.194
	c0,0,0.023,0.552,0.903,0.437c0,0,0.188,0.229-0.068,0.367c-0.255,0.139-1.808,0.574-1.854-1.033c0,0,0.024-0.666,0.764-1.332
	c0.741-0.664,0.741-0.778,0.812-1.01c0.068-0.229,0.625-0.367,0.625-0.367"/>
<path fill="#6FA607" d="M15.11,61.979c0,0,0.371-1.696,1.691-1.605c1.32,0.093,1.274,0.598,1.922,0.069"/>
<ellipse fill="#FFFFFF" stroke="#1F191A" stroke-width="0.0612" stroke-miterlimit="10" cx="16.755" cy="61.911" rx="0.803" ry="0.796"/>
<ellipse fill="#FFFFFF" stroke="#1F191A" stroke-width="0.0612" stroke-miterlimit="10" cx="19.536" cy="61.635" rx="0.803" ry="0.795"/>
<path fill="#6FA607" d="M15.527,57.527c0,0,0.904,0.16,1.32,0.504c0.417,0.345-1.112,0.597-1.274,1.309
	c-0.162,0.711-0.855,0.299-0.88-0.252C14.669,58.536,15.179,57.411,15.527,57.527z"/>
<path fill="#6FA607" d="M17.612,58.674c0,0,0.741,0.689,0.88,1.217c0.139,0.527-0.625,0.16-0.88-0.116
	c-0.255-0.274-0.093-0.573-0.302-0.756C17.102,58.835,17.38,58.49,17.612,58.674z"/>
<path fill="#6FA607" d="M13.651,60.441c0,0-0.394,0.667-0.07,1.081c0.325,0.412,0.881,0.023,0.881,0.023s0.185-0.32,0.092-0.643
	c-0.092-0.322,0.232-0.254,0.396-0.299C15.11,60.557,14.346,59.753,13.651,60.441z"/>
<path fill="#6FA607" d="M13.071,58.444c0,0-0.926,0.735-0.671,1.606c0.255,0.874,0.811-0.023,0.811-0.023s0.254-0.803,0.532-0.849
	c0.278-0.046,0.396-0.827-0.023-0.918C13.303,58.169,13.071,58.444,13.071,58.444z"/>
<path fill="#6FA607" d="M13.628,57.274c0,0-0.997-0.023-1.367,0c-0.37,0.023-0.417,0.963-0.301,1.101
	c0.115,0.138,0.857-0.068,1.019-0.368C13.141,57.709,13.071,57.388,13.628,57.274z"/>
<path fill="#6FA607" d="M9.829,58.031c0,0,0.811-0.459,1.158-0.435c0.347,0.022,0.44,1.101,0.023,1.308
	C10.593,59.11,9.528,58.651,9.829,58.031z"/>
<path fill="#6FA607" d="M8.787,59.478c0,0-0.486,0.436-0.301,1.055c0.186,0.619,0.741,0.941,1.135,0.758s0.764-1.194,0.371-1.171
	c-0.394,0.023-1.181-0.046-1.019-0.32C9.134,59.524,9.181,59.225,8.787,59.478z"/>
<path fill="#6FA607" d="M12.887,68.053c0,0-1.367,0.264-1.993,1.641c0,0,0.927,0.07,1.39-0.504
	C12.748,68.614,12.956,68.086,12.887,68.053z"/>
<path fill="#6FA607" d="M15.041,68.639c0,0,0.88,0.482,1.228,1.424c0.347,0.94-1.043-0.299-1.043-0.299S14.438,68.684,15.041,68.639
	z"/>
<path fill="#6FA607" d="M16.454,71.896c0,0-0.301,1.218-1.101,1.838c-0.799,0.619,0.058-1.194,0.174-1.264
	C15.643,72.402,15.99,72.586,16.454,71.896z"/>
<path fill="#6FA607" d="M13.049,74.445c0,0,0.693,0.07,1.064-0.092c0.371-0.162-0.579-0.412-0.67-0.711
	C13.35,73.344,12.701,73.941,13.049,74.445z"/>
<path fill="#6FA607" d="M11.566,74.102c0,0,0.093-0.666-0.834-1.055c-0.926-0.393-0.625,0.021-0.625,0.021
	S11.08,74.01,11.566,74.102z"/>
<path fill="#6FA607" d="M9.504,72.473c0,0,0.348-1.103-0.323-1.285C8.51,71.003,8.995,71.92,8.995,71.92L9.504,72.473z"/>
<path fill="#6FA607" d="M8.856,68.294c0,0-0.603,0.619-0.277,1.239c0.324,0.619,0.625,0.391,0.671,0.666s0.185,0.297,0.347,0.252
	C9.597,70.451,8.741,68.432,8.856,68.294z"/>
<path fill="#6FA607" d="M7.466,68.891c0,0-0.047-0.322,0.301-0.552s0.394,0.093,0.371,0.275C8.115,68.799,8,69.143,8.07,69.258
	c0.069,0.114,0.185,0.573,0,0.85C8.069,70.107,7.536,69.418,7.466,68.891z"/>
<path fill="#6FA607" d="M6.818,66.389c0,0,0.44-0.826,1.181-0.713c0.742,0.115,0.278,0.645,0.139,0.689
	C7.999,66.41,7.096,67.1,7.119,67.396C7.119,67.398,6.794,66.594,6.818,66.389z"/>
<path fill="#6FA607" d="M6.963,64.643c0,0,0.689-0.918,1.105-0.643c0.417,0.275,0.718,0.619,0.532,0.941
	c-0.185,0.319-0.671-0.186-0.903-0.047c-0.231,0.139-0.879,0.779-0.927,0.437C6.725,64.986,6.785,64.666,6.963,64.643z"/>
<path fill="#6FA607" d="M6.818,62.209c0,0-0.231,1.469-0.208,1.745c0.021,0.276,1.065-0.481,1.065-0.481s0.509-0.391,0.811-0.021
	c0.301,0.367,0.463-0.346-0.07-0.666C7.884,62.462,6.818,61.979,6.818,62.209z"/>
<path fill="#6FA607" d="M7.605,60.213c0,0-0.556,1.102-0.58,1.309c-0.023,0.207,1.251,0.393,1.506,0.367
	c0.255-0.021-0.324-0.481-0.324-0.734C8.208,60.902,7.768,60.005,7.605,60.213z"/>
<circle fill="#1F191A" cx="16.94" cy="61.498" r="0.23"/>
<circle fill="#1F191A" cx="19.721" cy="61.222" r="0.229"/>
<path fill="#93D100" stroke="#70A40F" stroke-width="0.1223" stroke-miterlimit="10" d="M18.932,64.666c0,0-0.069,0.391,0.232,0.391
	c0.301,0,0.115-0.414,0.115-0.414"/>
<path fill="#93D100" stroke="#70A40F" stroke-width="0.1223" stroke-miterlimit="10" d="M20.292,64.425c0,0-0.005,0.396,0.292,0.347
	c0.297-0.047,0.047-0.424,0.047-0.424"/>
<path fill="#C8CF00" stroke="#5FAF25" stroke-width="0.0942" stroke-miterlimit="10" d="M24.295,69.109c0,0,0.428-1.555-1.428-1.414
	c-1.854,0.144-2.942,2.438-5.296,3.57c0,0,3.192,1.184,4.459,0.301C23.295,70.684,24.33,69.182,24.295,69.109z"/>
<path fill="#C8CF00" stroke="#5FAF25" stroke-width="0.0942" stroke-miterlimit="10" d="M24.116,69.163c0,0-2.175,1.308-2.371,2.704
	c-0.196,1.396-0.82,2.229-0.82,2.229S26.72,73.158,24.116,69.163z"/>
<path fill="#C8CF00" stroke="#5FAF25" stroke-width="0.0942" stroke-miterlimit="10" d="M24.063,69.322c0,0,0.302,1.572-1.445,3.092
	"/>
<path fill="#C8CF00" stroke="#5FAF25" stroke-width="0.0942" stroke-miterlimit="10" d="M24.063,68.934c0,0-1.801,0.035-2.675,0.637
	s-1.427,1.256-2.033,1.291"/>
<path fill="#93D100" stroke="#70A40F" stroke-width="0.1184" stroke-miterlimit="10" d="M16.457,64.271c0,0-0.369,1.025-0.062,1.313
	"/>
<path fill="#FFFFFF" d="M107.034,62.05c-0.491,0.245-0.736,0.491-1.229,0.491c-0.67,0.09-1.334,0.166-1.99,0.232
	c-0.426-0.103-0.85-0.201-1.274-0.293c-3.519-0.746-7.024-0.479-10.565-0.008c-2.734,0.362-5.709,0.944-8.461,0.327
	c-0.101-0.049-0.197-0.097-0.296-0.146c-0.313-0.135-0.604-0.297-0.868-0.479c-0.396-0.231-0.787-0.475-1.177-0.731l0.699,0.343
	c-0.821-0.806-1.11-1.926-0.256-3.266c1.038-1.634,3.403-2.868,5.265-1.877c-3.271-1.861-0.234-7.134,2.705-4.669
	c-0.02-4.434,7.885-2.137,8.109,1.475c2.279-1.597,5.884-0.163,6.146,2.705c0.49,0,0.736-0.247,1.229-0.247
	c1.476,0,3.195,0.247,4.18,1.72C110.477,59.345,108.755,61.313,107.034,62.05z"/>
<path fill="#5EAE6C" d="M115.294,87.074c0.544-2.327-1.396-3.336-3.257-2.096v0.078l0,0h0.078c0.389-2.48-4.961-1.552-2.713,0.619
	c0.697,0.62,2.172,0.774,3.102,1.088c0.932,0.23,1.782,0.773,2.79,0.93c0.078-0.465,0.155-1.086,0-1.553"/>
<path fill="#95CA63" d="M111.218,86.311c0.028-0.777-0.726-1.666-1.372-2.093c-0.726-0.421-1.479-0.063-2.119-0.334
	c-0.725-0.423-1.009-1.259-2.104-1.425c-0.866-0.18-1.868-0.041-2.357,0.846c-0.777-1.275-3.313-0.809-2.283,0.762
	c-0.875-0.336-1.269,0.854-0.61,1.436c-0.677-0.893-1.343-1.627-2.509-1.633c-0.772,0.048-1.605,0.41-1.383,1.482
	c2.629-0.162,5.381,0.367,8.025,0.438c2.102,0.024,4.991,0.315,6.654,0.833"/>
<path fill="#B8D350" d="M1.11,83.02v34.146h117.697c0,0,0-30.462,0-29.234c0,1.229-16.623-6.777-47.896-2.527
	C39.637,89.65,4.459,84.493,1.11,83.02z"/>
<g>
	<path fill="#5FAF25" d="M25.589,32.008c2.016,1.257,0.795,3.454-1.03,4.125c-0.088,0.033-0.227,0.186-0.064,0.236
		c2.585,0.771-1.932,6.14-3.45,3.025c-0.068-0.14-0.387-0.012-0.307,0.151c1.71,3.507,7.036-2.489,3.949-3.41
		c-0.021,0.079-0.042,0.157-0.062,0.237c1.981-0.729,3.476-3.158,1.222-4.562C25.716,31.729,25.425,31.906,25.589,32.008
		L25.589,32.008z"/>
</g>
<g>
	<path fill="#5FAF25" d="M15.938,43.588c0.933,0.706,0.818,2.183-0.384,2.521c-0.075,0.022-0.147,0.076-0.137,0.161
		c0.193,1.513-2.341,3.442-2.883,1.357c-0.04-0.154-0.376-0.065-0.336,0.09c0.628,2.414,3.791,0.311,3.554-1.537
		c-0.046,0.052-0.092,0.105-0.137,0.16c1.371-0.387,1.757-2.057,0.58-2.947C16.077,43.304,15.783,43.471,15.938,43.588
		L15.938,43.588z"/>
</g>
<g>
	<path fill="#5FAF25" d="M16.259,34.1c1.321,0.744,0.631,3.088-0.823,3.15c-0.194,0.007-0.255,0.267-0.026,0.257
		c1.662-0.069,2.726-2.694,1.107-3.607C16.381,33.824,16.093,34.005,16.259,34.1L16.259,34.1z"/>
</g>
<g>
	<path fill="#5FAF25" d="M6.582,46.132c0.467,0.751,0.273,1.588-0.014,2.363c-0.011,0.03,0.017,0.053,0.037,0.067
		c2.167,1.568-1.225,4.434-2.93,2.581c-0.087-0.094-0.407,0.032-0.31,0.136c1.057,1.148,2.896,0.792,3.819-0.366
		c0.417-0.525,0.706-1.281,0.3-1.904c-0.125-0.19-0.264-0.34-0.437-0.488c-0.179-0.152,0.048-0.64,0.091-0.817
		c0.147-0.597,0.077-1.187-0.247-1.708C6.827,45.891,6.501,46.004,6.582,46.132L6.582,46.132z"/>
</g>
<path fill="none" stroke="#5FAF25" stroke-width="0.3822" stroke-miterlimit="10" d="M19.253,24.027
	c0.51,1.529,0.51,4.077-2.038,5.096c0,0,0.255,2.549-3.058,2.039"/>
<path fill="none" stroke="#5FAF25" stroke-width="0.3822" stroke-miterlimit="10" d="M8.296,26.576c0,0,2.039,3.058-0.765,4.586
	c0,0,2.039,2.293-2.038,3.312"/>
<path fill="none" stroke="#5FAF25" stroke-width="0.3822" stroke-miterlimit="10" d="M2.436,19.441c0,0,3.822-2.039,4.332,1.783
	c0,0,2.548-1.783,3.058,2.293"/>
<path fill="#D23A45" d="M57.694,103.205c0,0,2.121,0.434,1.686,1.783c-0.433,1.349-8.097,0.77-6.266-1.881L57.694,103.205z"/>
<path fill="#D23A45" d="M47.427,103.35c0,0,2.023-0.435,2.506,1.108C50.415,106,41.98,106,44.68,103.688L47.427,103.35z"/>
<path fill="#FFF7C2" stroke="#E5E4E2" stroke-width="0.0723" d="M48.488,104.686c-1.11-0.359-1.688-0.42-1.688-0.42
	c-0.723,0-0.578,0.061-1.734,0.359c-0.503,0.131-0.734,0.158-0.832,0.15c-0.008,0.01-0.014,0.02-0.024,0.026
	c0.062,0.3,0.439,1.05,2.688,0.902c2.794-0.183,3.035-0.961,3.035-0.961S49.595,105.046,48.488,104.686z"/>
<path fill="#FFF7C2" stroke="#E5E4E2" stroke-width="0.0723" d="M59.426,104.12c0,0-0.837-0.868-1.97,0.579
	c-1.134,1.445-4.582-0.629-4.582-0.629s-0.149,1.158,2.266,1.447C57.554,105.809,60.115,105.809,59.426,104.12z"/>
<path fill="#FF6913" stroke="#92AB00" stroke-width="0.1446" d="M56.439,80.938c0,0,4.049,3.688,4.338,6.578
	c0,0-0.505,2.1-2.096,2.17c0,0-1.952-6.58-4.483-8.17L56.439,80.938z"/>
<path fill="#FF6913" stroke="#92AB00" stroke-width="0.1446" d="M51.958,95.613c0,0,14.747,3.324,2.24-15.037l-5.784,0.361
	c0,0-5.567,1.082-4.337,12.65C44.078,93.59,48.704,96.915,51.958,95.613z"/>
<path fill="#FF6913" stroke="#92AB00" stroke-width="0.1446" d="M47.33,87.876c0,0-1.39,0.959-1.707,2.647
	c0,0-6.319-1.348-1.185-6.914c0,0,2.312-1.808,2.891,1.303C47.33,84.912,46.39,87.154,47.33,87.876z"/>
<g>
	<path fill="#92AB00" d="M42.786,85.568c1.386-0.684,3.383-0.56,4.256,0.863c0.061,0.096-0.463,0.061-0.552-0.089
		c-0.708-1.149-2.168-1.071-3.251-0.538C43.108,85.868,42.592,85.664,42.786,85.568L42.786,85.568z"/>
</g>
<g>
	<path fill="#92AB00" d="M43.526,84.57c1.071-1.036,2.837-0.332,3.625,0.716c0.127,0.17-0.422,0.098-0.51-0.021
		c-0.628-0.834-1.748-1.312-2.591-0.492C43.932,84.887,43.414,84.682,43.526,84.57L43.526,84.57z"/>
</g>
<g>
	<path fill="#92AB00" d="M42.474,87.33c1.291-1.018,3.083-1.184,4.47-0.262c0.317,0.211-0.138,0.438-0.378,0.281
		c-1.148-0.768-2.623-0.502-3.663,0.316C42.691,87.835,42.21,87.538,42.474,87.33L42.474,87.33z"/>
</g>
<g>
	<path fill="#92AB00" d="M46.951,87.9c-1.409-0.553-2.466,0.641-2.604,1.953c-0.021,0.207-0.57,0.082-0.547-0.146
		c0.185-1.768,1.731-2.71,3.376-2.064C47.53,87.781,47.209,88.002,46.951,87.9L46.951,87.9z"/>
</g>
<g>
	<path fill="#92AB00" d="M57.206,81.703c0.048,0.613-0.289,1.183-0.899,1.338c-0.117,0.029-0.285-0.027-0.389-0.076
		c-0.045-0.02-0.191-0.097-0.074-0.126c0.57-0.146,0.847-0.733,0.805-1.286C56.644,81.497,57.193,81.551,57.206,81.703
		L57.206,81.703z"/>
</g>
<g>
	<path fill="#92AB00" d="M58.111,82.697c0.001,0.759-0.624,1.244-1.274,1.501c-0.203,0.081-0.653-0.21-0.333-0.339
		c0.508-0.199,1.047-0.623,1.044-1.219C57.547,82.377,58.111,82.482,58.111,82.697L58.111,82.697z"/>
</g>
<g>
	<path fill="#92AB00" d="M59.055,83.882c-0.238,0.795-0.913,1.392-1.736,1.519c-0.278,0.043-0.567-0.354-0.191-0.41
		c0.66-0.104,1.181-0.633,1.368-1.258C58.576,83.471,59.133,83.623,59.055,83.882L59.055,83.882z"/>
</g>
<g>
	<path fill="#92AB00" d="M59.839,85.053c-0.309,0.809-1.016,1.354-1.86,1.506c-0.163,0.029-0.656-0.229-0.347-0.285
		c0.756-0.138,1.375-0.652,1.647-1.369C59.351,84.721,59.903,84.889,59.839,85.053L59.839,85.053z"/>
</g>
<g>
	<path fill="#92AB00" d="M55.489,82.648c-0.478,1.197-1.665,1.699-2.844,1.973c-1.607,0.375-3.302,0.38-4.917,0.063
		c-0.234-0.047-0.483-0.319-0.093-0.244c1.516,0.302,3.046,0.265,4.556-0.054c1.133-0.237,2.287-0.751,2.74-1.886
		C54.994,82.342,55.541,82.518,55.489,82.648L55.489,82.648z"/>
</g>
<g>
	<path fill="#92AB00" d="M56.733,84.663c-0.997,1.649-3.076,2.286-4.866,2.601c-1.683,0.293-3.677,0.258-4.98-0.996
		c-0.237-0.229,0.313-0.238,0.452-0.104c1.28,1.232,3.305,0.996,4.897,0.646c1.513-0.334,3.142-0.984,3.978-2.367
		C56.316,84.271,56.858,84.454,56.733,84.663L56.733,84.663z"/>
</g>
<g>
	<path fill="#92AB00" d="M57.522,86.42c-1.843,2.711-5.288,3.332-8.351,2.932c-0.283-0.037-0.451-0.395-0.068-0.344
		c2.927,0.383,6.145-0.232,7.902-2.816C57.125,86.016,57.664,86.209,57.522,86.42L57.522,86.42z"/>
</g>
<g>
	<path fill="#92AB00" d="M57.886,89.404c-1.815,1.121-3.689,2.055-5.853,2.193c-2.081,0.135-4.28-0.213-6.106-1.252
		c-0.331-0.188-0.027-0.449,0.24-0.298c1.725,0.979,3.705,1.253,5.665,1.173c2.067-0.089,3.898-1.063,5.621-2.123
		C57.643,88.979,58.144,89.246,57.886,89.404L57.886,89.404z"/>
</g>
<g>
	<path fill="#92AB00" d="M58.879,91.202c-1.073,0.746-1.924,1.682-3.208,2.065c-1.458,0.438-3.047,0.35-4.548,0.34
		c-1.445-0.008-2.881-0.104-4.302-0.394c-1.062-0.214-2.439-0.532-3.077-1.498c-0.149-0.222,0.417-0.177,0.522-0.019
		c0.682,1.029,2.477,1.225,3.591,1.388c1.337,0.197,2.694,0.19,4.043,0.199c1.282,0.006,2.607-0.021,3.828-0.46
		c1.036-0.37,1.819-1.284,2.708-1.9C58.593,90.816,59.108,91.046,58.879,91.202L58.879,91.202z"/>
</g>
<path fill="#007CC6" stroke="#00499C" stroke-width="0.1446" d="M58.899,92.648c0,0,0.865,5.396-1.062,9.352l0.193,1.252
	c0,0,0.963,0.579-2.024,0.191c-2.988-0.385-3.183,1.156-3.084-1.541c0.095-2.699,0.192-4.529-2.218-4.436
	c-2.409,0.098-2.218,3.76-1.928,4.436c0.289,0.674,1.061,1.83-0.288,1.733c-1.352-0.097-3.375,0.388-3.375,0.388
	s-2.604,0.867-1.253-11.473C43.86,92.553,49.837,96.021,58.899,92.648z"/>
<path fill="#FFCB97" stroke="#FFB59C" stroke-width="0.1446" d="M46.938,88.051c0,0-1.767,1.079-1.315,2.379
	c0.451,1.297,2.798,1.899,2.856,0.863c0,0,0.679-0.744,0.307-1.083c0,0,0.942-0.71,0.516-1.142c-0.424-0.434-1.141-0.52-1.249-0.821
	c-0.11-0.306,0.846,0.862,1.004,0.167C49.217,87.718,48.133,87.413,46.938,88.051z"/>
<g>
	<path fill="#FFCB97" stroke="#FFB59C" stroke-width="0.1446" d="M57.079,76.199c1.404-2.272,4.305-0.567,2.722,1.632
		c-1.725,2.646-3.898,0.188-2.228-2.017"/>
	<g>
		<path fill="#FFCB97" stroke="#FFB59C" stroke-width="0.1446" d="M57.046,76.186c0.534-0.817,1.442-1.344,2.399-0.93
			c0.924,0.4,1.036,1.546,0.555,2.333c-0.496,0.81-1.451,1.87-2.462,1.188c-1.009-0.678-0.567-2.187,0.002-2.976
			c0.014-0.021,0.081,0.005,0.064,0.025c-0.537,0.747-0.832,1.728-0.343,2.575c0.755,1.313,2.069,0.053,2.595-0.717
			c0.511-0.748,0.518-1.771-0.278-2.313c-0.912-0.625-1.957,0.054-2.468,0.837C57.097,76.232,57.029,76.209,57.046,76.186
			L57.046,76.186z"/>
	</g>
</g>
<g>
	<path fill="#FFCB97" stroke="#FFB59C" stroke-width="0.1446" d="M48.103,70.085c2.448-1.043,6.11,0.351,8.142,2.031
		c3.5,2.794,1.917,8.644-1.972,10.223c-3.726,1.396-8.762,1.49-11.18-1.989c-2.513-3.56-1.509-7.804,2.55-9.396
		c1.013-0.418,2.113-0.845,3.219-1.185"/>
	<g>
		<path fill="#FFCB97" stroke="#FFB59C" stroke-width="0.1446" d="M48.07,70.073c2.662-1.06,5.931,0.282,8.058,1.927
			c2.307,1.784,2.579,4.861,1.332,7.367c-1.341,2.695-4.277,3.678-7.114,3.857c-2.69,0.17-5.463-0.492-7.171-2.724
			c-1.449-1.892-1.961-4.461-0.909-6.649c1.187-2.474,4.154-3.342,6.568-4.097c0.017-0.005,0.079,0.021,0.058,0.026
			c-1.852,0.576-3.926,1.197-5.388,2.529c-1.151,1.045-1.734,2.545-1.743,4.084c-0.01,1.728,0.818,3.455,1.978,4.705
			c1.375,1.484,3.432,2.057,5.395,2.125c3.208,0.107,6.677-0.887,8.258-3.881c0.658-1.24,0.895-2.695,0.676-4.082
			c-0.27-1.713-1.403-2.932-2.809-3.847c-1.991-1.295-4.805-2.244-7.119-1.321C48.117,70.104,48.066,70.073,48.07,70.073
			L48.07,70.073z"/>
	</g>
</g>
<g>
	<path fill="#FFB59C" d="M58.355,77.456c0.275-0.399,0.643-1.003,1.205-0.965c0.071,0.005,0.113,0.091,0.017,0.084
		c-0.489-0.034-0.855,0.591-1.094,0.937C58.454,77.555,58.319,77.507,58.355,77.456L58.355,77.456z"/>
</g>
<g>
	<path fill="#FFAF96" d="M51.191,77.771c0.313,0.041,0.635,0,0.829-0.273c0.149-0.21,0.146-0.503,0.094-0.743
		c-0.049-0.226-0.169-0.465-0.367-0.597c-0.269-0.184-0.541,0.095-0.689,0.3c-0.029,0.039-0.165-0.008-0.129-0.056
		c0.178-0.248,0.425-0.446,0.746-0.361c0.276,0.073,0.449,0.344,0.541,0.596c0.104,0.286,0.105,0.622-0.048,0.891
		c-0.19,0.332-0.615,0.369-0.958,0.324C51.141,77.842,51.095,77.76,51.191,77.771L51.191,77.771z"/>
</g>
<g>
	<path fill="#171714" d="M53.686,75.164c0.258,0.225,0.366,1.086-0.224,0.936s-0.251-1.529,0.282-0.793"/>
	<g>
		<path fill="#171714" d="M53.78,75.098c0.224,0.209,0.34,0.629,0.2,0.914c-0.161,0.327-0.642,0.239-0.839-0.004
			c-0.186-0.23-0.168-0.611-0.02-0.855c0.197-0.319,0.568-0.116,0.741,0.108c0.108,0.144-0.155,0.198-0.235,0.091
			c-0.115-0.149-0.199-0.209-0.285-0.01c-0.074,0.176-0.07,0.391,0.021,0.557c0.104,0.193,0.33,0.11,0.377-0.068
			c0.046-0.18-0.011-0.465-0.149-0.596C53.455,75.104,53.672,74.995,53.78,75.098L53.78,75.098z"/>
	</g>
</g>
<g>
	<path fill="#171714" d="M48.752,75.756c0.257,0.223,0.367,1.085-0.224,0.934c-0.591-0.15-0.254-1.525,0.281-0.793"/>
	<g>
		<path fill="#171714" d="M48.845,75.688c0.225,0.211,0.341,0.631,0.2,0.916c-0.161,0.328-0.642,0.238-0.839-0.004
			c-0.187-0.229-0.168-0.613-0.02-0.854c0.197-0.321,0.569-0.117,0.741,0.108c0.109,0.145-0.154,0.197-0.235,0.088
			c-0.112-0.146-0.2-0.207-0.284-0.006c-0.074,0.174-0.07,0.39,0.02,0.556c0.105,0.192,0.331,0.11,0.378-0.07
			c0.045-0.177-0.011-0.464-0.148-0.594C48.52,75.695,48.738,75.586,48.845,75.688L48.845,75.688z"/>
	</g>
</g>
<g opacity="0.5">
	<path fill="#FFB59C" d="M47.319,77.049c3.076-0.326,1.661,3.414-0.132,2.619c-2.436-1.023,0.909-4.251,1.634-2.182"/>
	<g>
		<path fill="#FFB59C" d="M47.255,77.02c0.914-0.08,2.032,0.196,1.937,1.332c-0.075,0.895-0.973,1.697-1.876,1.39
			c-1.172-0.401-1.357-1.493-0.542-2.38c0.627-0.682,1.737-0.864,2.121,0.141c0.011,0.021-0.135,0.008-0.15-0.027
			c-0.42-1.095-1.531-0.488-2.029,0.188c-0.557,0.756-0.347,1.609,0.515,1.998c1.553,0.695,3.023-2.84,0.15-2.582
			C47.347,77.08,47.218,77.023,47.255,77.02L47.255,77.02z"/>
	</g>
</g>
<g opacity="0.5">
	<path fill="#FFB59C" d="M53.695,76.896c3.076-0.326,1.658,3.416-0.13,2.619c-2.437-1.023,0.906-4.25,1.63-2.184"/>
	<g>
		<path fill="#FFB59C" d="M53.667,76.841c0.967-0.087,2.043,0.265,1.892,1.427c-0.118,0.912-1.025,1.646-1.932,1.334
			c-2.736-0.938,0.817-4.435,1.643-2.274c0.032,0.084-0.123,0.082-0.147,0.021c-0.39-1.018-1.401-0.58-1.94,0.047
			c-0.677,0.793-0.469,1.78,0.548,2.129c0.786,0.269,1.465-0.467,1.646-1.157c0.292-1.099-0.747-1.49-1.656-1.408
			C53.646,76.961,53.562,76.852,53.667,76.841L53.667,76.841z"/>
	</g>
</g>
<g>
	<path fill="#00499C" d="M57.958,99.229c-0.361-0.07-0.795-0.07-1.157,0c0.072,0.576,0.072,1.229-0.434,1.59
		C57.597,100.962,58.101,100.458,57.958,99.229"/>
	<g>
		<path fill="#00499C" d="M57.932,99.324c-0.36-0.064-0.723-0.059-1.083,0.006c0.032-0.03,0.063-0.061,0.095-0.092
			c0.07,0.609,0.053,1.253-0.468,1.662c-0.04-0.063-0.08-0.125-0.12-0.187c0.411,0.043,0.897,0.06,1.214-0.258
			c0.312-0.313,0.29-0.837,0.248-1.24c-0.017-0.146,0.27-0.104,0.283,0.021c0.051,0.476,0.047,1.021-0.314,1.382
			c-0.359,0.356-0.94,0.353-1.406,0.303c-0.079-0.01-0.224-0.104-0.12-0.185c0.475-0.369,0.465-0.977,0.4-1.521
			c-0.006-0.056,0.047-0.084,0.092-0.091c0.412-0.074,0.822-0.066,1.23,0.005C58.163,99.163,58.104,99.355,57.932,99.324
			L57.932,99.324z"/>
	</g>
</g>
<path fill="#FFB59C" d="M58.271,87.443c0,0-0.699-0.071-0.313-0.867c0.386-0.797,1.048-0.303,1.048-0.303s1.145-0.457,1.579,0.121
	c0.433,0.578,0.022,3.556-1.76,3.155c0,0-1.278-0.374-0.854-0.964c0,0-0.085-0.107-0.037-0.301s0.313-0.29,0.313-0.29
	S57.826,87.646,58.271,87.443z"/>
<ellipse transform="matrix(-0.8753 -0.4837 0.4837 -0.8753 67.5391 190.9251)" fill="#FFCB97" stroke="#FFCB97" stroke-width="0.1446" cx="58.391" cy="86.753" rx="0.313" ry="0.555"/>
<path fill="#FFCB97" stroke="#FFCB97" stroke-width="0.1446" d="M60.44,88.143c0,0-0.663,2.289-2.362,0.855
	c0,0-0.083-0.146-0.047-0.229c0.037-0.086,0.759,0.069,0.759,0.069s-0.627-0.274-0.674-0.435c-0.048-0.156,0.181-0.288,0.95-0.182
	c0,0-0.721-0.229-0.733-0.555s1.217-0.229,1.217-0.229l0.325-0.037c0,0-0.289-0.313-0.602-0.24c-0.314,0.072-0.615-0.254-0.23-0.578
	C59.428,86.264,61.199,85.602,60.44,88.143z"/>
<g>
	<path fill="#171714" d="M57.881,98.968c-0.029,0.069-0.04,0.146-0.071,0.218c-0.044,0.098-0.251,0.037-0.21-0.058
		c0.032-0.069,0.041-0.146,0.072-0.218C57.717,98.813,57.925,98.872,57.881,98.968L57.881,98.968z"/>
</g>
<g>
	<path fill="#171714" d="M57.267,99.002c-0.029,0.064-0.035,0.132-0.035,0.201c0,0.093-0.21,0.05-0.21-0.023
		c0-0.082,0.002-0.158,0.037-0.229C57.093,98.869,57.298,98.936,57.267,99.002L57.267,99.002z"/>
</g>
<g>
	<path fill="#171714" d="M56.617,99.682c0.006,0.014,0.016,0.027,0.028,0.039c0.021,0.016,0.022,0.019,0.003,0.006
		c0.046,0.002,0.106,0.02,0.139,0.051c0.036,0.033-0.029,0.037-0.049,0.037c-0.127-0.006-0.264-0.056-0.329-0.17
		c-0.019-0.033,0.076-0.023,0.085-0.021C56.532,99.627,56.595,99.643,56.617,99.682L56.617,99.682z"/>
</g>
<g>
	<path fill="#171714" d="M56.324,100.261c0.126,0,0.254,0.001,0.371,0.054c0.018,0.01,0.092,0.043,0.059,0.072
		c-0.033,0.028-0.104,0.012-0.138-0.004c-0.062-0.027-0.14-0.019-0.208-0.019c-0.046,0-0.107-0.019-0.139-0.054
		C56.24,100.271,56.299,100.261,56.324,100.261L56.324,100.261z"/>
</g>
<g>
	<path fill="#171714" d="M56.906,100.883c-0.029,0.059-0.069,0.109-0.115,0.156c-0.05,0.05-0.247-0.029-0.196-0.08
		c0.041-0.041,0.075-0.082,0.102-0.133C56.733,100.759,56.935,100.829,56.906,100.883L56.906,100.883z"/>
</g>
<g>
	<path fill="#171714" d="M57.339,100.811c-0.003,0.066-0.034,0.107-0.078,0.152c-0.04,0.04-0.232-0.035-0.197-0.072
		c0.041-0.041,0.064-0.076,0.066-0.137C57.133,100.713,57.343,100.749,57.339,100.811L57.339,100.811z"/>
</g>
<g>
	<path fill="#171714" d="M57.968,99.891c0.069,0.033,0.144,0.039,0.204,0.088c0.11,0.09-0.061,0.154-0.139,0.09
		c-0.037-0.029-0.11-0.035-0.156-0.06c-0.036-0.016-0.082-0.062-0.049-0.104C57.858,99.864,57.927,99.873,57.968,99.891
		L57.968,99.891z"/>
</g>
<g>
	<path fill="#171714" d="M57.75,100.385c0.114-0.052,0.26-0.051,0.361,0.029c0.029,0.025,0.029,0.049-0.013,0.051
		c-0.047,0.004-0.111-0.01-0.148-0.039c0.021,0.004,0.04,0.008,0.06,0.014c-0.023,0.004-0.042,0.011-0.062,0.021
		c-0.042,0.019-0.096,0.005-0.135-0.01C57.806,100.443,57.713,100.4,57.75,100.385L57.75,100.385z"/>
</g>
<path fill="#171714" d="M48.968,80.032c0,0,0.616-0.724,0.76-0.687c0.144,0.034,0.65,0.795,0.65,0.977c0,0.181,0.469,0,0.434,0.287
	c-0.036,0.291,0.977-0.325,1.193,0.255c0,0-0.168-0.267-1.085-0.097c0,0-0.095,0.022-0.337-0.072
	c-0.241-0.098-0.602,0.072-1.157,0.313c-0.554,0.24-0.867,0.217-0.746-0.218C48.8,80.355,48.968,80.032,48.968,80.032z"/>
<polygon fill="#FFFFFF" points="50.029,80.406 49.716,80.382 49.74,80.576 50.029,80.551 "/>
<path fill="#FFFFFF" d="M49.765,79.9c0,0,0.218-0.023,0.265,0.048c0.048,0.071-0.024,0.239-0.024,0.239l-0.217-0.047L49.765,79.9z"
	/>
<path fill="#FFFFFF" d="M49.45,80.406l0.048,0.289l-0.552,0.218C48.945,80.913,49.137,80.551,49.45,80.406z"/>
<path fill="#FFFFFF" d="M49.524,79.9l-0.048,0.265l-0.266,0.022C49.211,80.188,49.354,79.973,49.524,79.9z"/>
<g>
	<path fill="#171714" d="M52.473,74.979c0.556-0.567,1.078-1.17,1.639-1.733c0.029-0.03,0.11-0.021,0.127,0.021
		c0.11,0.295,0.267,0.563,0.292,0.881c0.007,0.065-0.132,0.045-0.137-0.014c-0.029-0.308-0.179-0.57-0.285-0.855
		c0.042,0.01,0.086,0.019,0.127,0.022c-0.56,0.565-1.083,1.167-1.638,1.735C52.558,75.077,52.429,75.023,52.473,74.979
		L52.473,74.979z"/>
</g>
<g>
	<path fill="#171714" d="M49.651,75.729c-0.366-0.02-0.598-0.256-0.787-0.552c-0.273-0.429-0.475-1.077-1.094-0.711
		c-0.046,0.026-0.171-0.036-0.108-0.071c1.115-0.664,1.066,1.201,1.974,1.244C49.709,75.643,49.747,75.73,49.651,75.729
		L49.651,75.729z"/>
</g>
<g>
	<path fill="#FFCB97" stroke="#FFB59C" stroke-width="0.1446" d="M40.629,79.951c0.001,0,0.001,0,0.002,0
		c0.599-0.232,1.14-0.584,1.491-1.139c0.097-0.151,0.203-0.314,0.296-0.483c-0.006-0.044-0.007-0.091-0.006-0.14
		c0.028-0.613-0.205-1.539-0.84-1.789c-1.349-0.242-2.803,0.213-2.758,1.752C38.85,79.657,39.699,80.109,40.629,79.951z"/>
	<g>
		<path fill="#FFCB97" stroke="#FFB59C" stroke-width="0.1446" d="M40.609,79.928c0.325-0.152,0.629-0.299,0.918-0.51
			c0.289-0.212,0.869-0.822,0.852-1.23c-0.019-0.426-0.067-0.791-0.247-1.188c-0.29-0.65-1.001-0.665-1.597-0.614
			c-1,0.089-1.673,0.769-1.686,1.771c-0.013,1.082,0.628,1.927,1.766,1.771c0.038-0.005,0.072,0.048,0.025,0.054
			c-0.772,0.104-1.517-0.203-1.739-1.017c-0.323-1.185,0.037-2.233,1.273-2.569c0.925-0.248,1.891-0.08,2.162,0.94
			c0.168,0.642,0.161,0.956-0.182,1.496c-0.365,0.571-0.91,0.868-1.506,1.146C40.618,79.989,40.569,79.943,40.609,79.928z"/>
	</g>
</g>
<g>
	<path fill="#FFB59C" d="M41.565,77.689c-0.561-0.308-1.396-0.564-1.908-0.039c-0.042,0.043-0.174-0.012-0.129-0.06
		c0.56-0.573,1.478-0.313,2.096,0.025C41.708,77.663,41.631,77.727,41.565,77.689L41.565,77.689z"/>
</g>
<path fill="#1F191A" d="M41.263,76.453c0.074-0.577,0.45-2.023,0.898-2.819c0.6-0.938,1.122-1.444,2.02-2.024
	c0.898-0.506,2.17-1.154,0.598-1.95c0.3,0.146,0.524,0.146,0.75,0.36c0-0.435,0.148-0.938,0.447-1.301
	c0.076,0.434,0.076,0.866,0.076,1.301c0.449-0.724,0.971-1.301,1.646-1.808c-0.375,0.289-0.747,1.156-0.675,1.808
	c0.974,0.146,2.172-0.217,3.144-0.289c1.123-0.071,2.021,0.219,3.066,0.58c2.469,0.938,4.417,2.528,4.865,5.131
	c-0.075-0.723-0.673-1.662-1.423-1.949c0.075,0.576,0.075,1.154,0,1.732c0.075-0.648-0.298-1.229-0.672-1.807
	c0,1.229-0.375,1.734-1.274,2.602c0.225-1.951-0.147-5.205-2.918-5.061c-0.149,0.939,0.076,1.809-0.373,2.748
	c-0.449,0.795-1.348,1.879-2.17,2.313c0.299-0.723,0.299-1.59,0-2.239c-1.122,1.372-1.946,2.098-3.592,2.894
	c0.375-0.289,0.673-0.65,0.823-1.156c-0.748,0.724-1.346,1.301-2.244,1.733c-0.749,0.36-1.572,0.507-1.572,1.521
	c0,0-0.298,0-0.223,0c-0.075-0.869,0-2.242-1.198-2.387"/>
<g>
	<path fill="#372484" d="M43.215,71.633c0.147-0.306,0.198-0.597,0.203-0.934c0.014-0.69-0.64-0.235-1.002-0.031
		c-0.018,0.01-0.13-0.007-0.115-0.037c0.169-0.318,0.33-0.801,0.528-0.98c-0.387,0.355-0.828,0.647-1.216,1.004
		c-0.02,0.02-0.122-0.004-0.114-0.034c0.3-1.271,0.958-2.37,1.637-3.474c0.112-0.185,0.538-0.633,0.118-0.166
		c-0.243,0.271-0.484,0.539-0.728,0.812c-0.485,0.54-0.968,1.082-1.453,1.622c-0.018,0.021-0.126-0.012-0.114-0.037
		c0.359-0.936,0.833-1.809,1.307-2.686c0.04,0.012,0.079,0.021,0.117,0.031c-0.086,0.148-0.173,0.299-0.264,0.443
		c-0.133,0.217-0.273,0.432-0.412,0.645c-0.326,0.504-0.649,1.004-0.939,1.53c-0.016,0.027-0.121,0-0.119-0.03
		c0.069-0.676,0.264-1.297,0.52-1.922c0.132-0.313,0.286-0.621,0.438-0.926c0.259-0.512,0.055-0.087-0.116,0.115
		c-0.779,0.929-1.375,1.979-2.335,2.746c-0.026,0.021-0.13-0.025-0.109-0.043c1.135-0.907,1.812-2.217,2.796-3.266
		c0.02-0.021,0.128,0.012,0.115,0.034c-0.514,0.972-0.994,1.957-1.167,3.052c0.056-0.349,0.458-0.804,0.659-1.109
		c0.329-0.503,0.65-1.006,0.939-1.53c0.018-0.03,0.129,0.011,0.118,0.03c-0.239,0.445-0.482,0.89-0.716,1.337
		c-0.208,0.394-0.371,1.03-0.647,1.339c0.787-0.878,1.574-1.756,2.361-2.635c0.019-0.021,0.127,0.016,0.113,0.037
		c-0.53,0.891-1.1,1.755-1.54,2.695c-0.102,0.221-0.187,0.446-0.267,0.676c-0.032,0.086-0.09,0.468-0.154,0.524
		c0.388-0.356,0.831-0.649,1.218-1.009c0.021-0.02,0.128,0.02,0.114,0.038c-0.178,0.269-0.29,0.905-0.567,1.063
		c0.289-0.162,0.626-0.264,0.944-0.354c0.022-0.007,0.099,0.004,0.105,0.035c0.102,0.487,0.079,0.971-0.144,1.424
		C43.316,71.695,43.204,71.654,43.215,71.633L43.215,71.633z"/>
</g>
<g>
	<path fill="#372484" d="M41.278,72.736c-0.193-0.283-0.375-0.577-0.537-0.881c-0.083-0.187-0.086-0.181-0.005,0.02
		c-0.017,0.146-0.04,0.294-0.071,0.439c-0.07,0.369-0.155,0.72-0.178,1.099c-0.001,0.021-0.111-0.005-0.117-0.028
		c-0.034-0.123-0.335-1.09-0.323-1.104c-0.139,0.173-0.093,0.476-0.331,0.561c-0.023,0.01-0.102-0.001-0.112-0.029
		c-0.064-0.188-0.134-0.375-0.209-0.563c-0.025-0.064-0.052-0.131-0.077-0.195c-0.112-0.201-0.111-0.242,0.006-0.125
		c0.058,0.545-0.143,1.131-0.175,1.678c-0.002,0.021-0.11-0.008-0.117-0.027c-0.141-0.389-0.234-0.773-0.302-1.184
		c-0.04-0.252-0.056-0.506-0.071-0.76c-0.005-0.082-0.007-0.168-0.011-0.25c-0.07-0.254-0.041-0.313,0.084-0.186
		c-0.121,1.056-0.258,2.109-0.379,3.166c-0.003,0.021-0.116-0.003-0.119-0.032c-0.066-1.084-0.064-2.173-0.107-3.26
		c-0.016-0.412,0.061-0.29,0.012,0.009c-0.041,0.266-0.092,0.525-0.143,0.79c-0.124,0.644-0.27,1.28-0.411,1.918
		c-0.006,0.024-0.116-0.006-0.118-0.03c-0.046-0.396-0.092-0.791-0.126-1.188c-0.023-0.249-0.033-0.497-0.04-0.746
		c-0.008-0.174,0.115-0.518,0.012-0.15c-0.171,0.615-0.208,1.266-0.393,1.879c-0.009,0.024-0.125-0.011-0.117-0.033
		c0.22-0.725,0.258-1.49,0.497-2.217c0.007-0.021,0.117,0.004,0.117,0.03c-0.006,0.425,0.01,0.847,0.04,1.271
		c0.012,0.158,0.029,0.318,0.046,0.479c0.003,0.034-0.025,0.623,0.025,0.397c0.219-0.976,0.428-1.95,0.569-2.938
		c0.002-0.021,0.115,0.003,0.116,0.031c0.071,1.175,0.062,2.353,0.122,3.524c-0.008-0.117-0.03-0.396-0.007-0.582
		c0.031-0.259,0.062-0.519,0.095-0.776c0.075-0.617,0.151-1.233,0.221-1.853c0.002-0.021,0.119,0.002,0.119,0.03
		c-0.009,0.759,0.047,1.493,0.233,2.229c0.134,0.531,0.087-0.14,0.114-0.322c0.059-0.389,0.115-0.753,0.074-1.146
		c-0.002-0.016,0.109,0.004,0.116,0.028c0.035,0.103,0.423,1.015,0.44,0.995c0.138-0.172,0.09-0.475,0.328-0.563
		c0.023-0.007,0.106,0.004,0.113,0.03c0.058,0.205,0.106,0.409,0.152,0.617c0.013,0.052,0.037,0.604,0.052,0.349
		c0.031-0.519,0.215-1.017,0.249-1.535c0.001-0.021,0.11,0.006,0.117,0.024c0.152,0.405,0.401,0.772,0.642,1.129
		C41.399,72.77,41.296,72.766,41.278,72.736L41.278,72.736z"/>
</g>
<path fill="#00BBC3" d="M118.785,106.264c-0.506-0.039-0.905-0.062-1.148-0.062c-2.177,0-26.424-1.927-18.65-2.569
	c7.771-0.643-0.312-3.213-0.312-3.213c-4.042-1.286-17.098-0.32-17.098-0.32c-20.829,0.32-13.058,3.533-11.813,3.533
	c1.243,0,1.865,4.819-3.421,6.428c-5.282,1.605,4.663,3.854,16.788,5.782c12.123,1.929-3.107-1.928,11.502-0.964
	c7.902,0.521,16.983-0.273,24.152-1.469V106.264z"/>
<path fill="#00B9AC" stroke="#865C3C" stroke-width="0.0671" stroke-linecap="round" stroke-linejoin="round" d="M85.307,110.167
	c0,0-1.388,0.59-0.625,1.422c0.764,0.831,1.457-0.519,1.354-0.866L85.307,110.167z"/>
<path fill="none" stroke="#865C3C" stroke-width="0.0336" stroke-linecap="round" stroke-linejoin="round" d="M85.079,111.156
	c0,0-0.363,0.277-0.501,0.26l0.104,0.122C84.682,111.538,85.012,111.244,85.079,111.156z"/>
<path fill="none" stroke="#865C3C" stroke-width="0.0336" stroke-linecap="round" stroke-linejoin="round" d="M84.525,111.329
	c0,0-0.123-0.14-0.068-0.226c0.052-0.088,0.208-0.262,0.503-0.328C84.96,110.775,84.457,111.07,84.525,111.329z"/>
<path fill="none" stroke="#865C3C" stroke-width="0.0336" stroke-linecap="round" stroke-linejoin="round" d="M84.87,111.725
	c0,0,0.137,0.125,0.226,0.073c0.086-0.05,0.264-0.2,0.34-0.493C85.436,111.305,85.129,111.798,84.87,111.725z"/>
<path fill="none" stroke="#865C3C" stroke-width="0.0336" stroke-linecap="round" stroke-linejoin="round" d="M79.082,107.934"/>
<circle fill="none" stroke="#865C3C" stroke-width="0.0671" stroke-linecap="round" stroke-linejoin="round" cx="87.555" cy="107.586" r="0.573"/>
<circle cx="87.533" cy="107.408" r="0.393"/>
<circle fill="#FFFFFF" cx="87.563" cy="107.24" r="0.141"/>
<path fill="#865C3C" d="M88.014,107.009c0,0-0.041-0.182-0.234-0.226C87.586,106.738,87.939,106.891,88.014,107.009z"/>
<circle fill="#FFFFFF" cx="87.543" cy="107.209" r="0.073"/>
<path fill="#00B9AC" stroke="#865C3C" stroke-width="0.0671" stroke-linecap="round" stroke-linejoin="round" d="M81.543,108.609
	c0,0-1.316-1.698-2.496-1.18c0,0-0.242,1.107,1.662,1.731c0,0-1.454,1.004-1.213,1.802c0.242,0.798,2.047-0.313,2.461-1.385
	L81.543,108.609z"/>
<path fill="#00B9AC" stroke="#865C3C" stroke-width="0.0671" stroke-linecap="round" stroke-linejoin="round" d="M83.273,107.327
	c0,0-0.59-0.902-0.483-1.249c0.104-0.348,1.628,0.035,2.287,0.9L83.273,107.327z"/>
<path fill="#72C72C" stroke="#865C3C" stroke-width="0.0671" stroke-linecap="round" stroke-linejoin="round" d="M87.296,110.792
	c0,0,2.078-0.521,0.763-2.877c-1.316-2.356-5.686-0.972-6.586,0.832C80.573,110.551,85.908,112.456,87.296,110.792z"/>
<circle fill="#FFFFFF" stroke="#865C3C" stroke-width="0.0671" stroke-linecap="round" stroke-linejoin="round" cx="86.637" cy="107.36" r="0.712"/>
<path fill="none" stroke="#865C3C" stroke-width="0.0671" stroke-linecap="round" stroke-linejoin="round" d="M86.48,109.458
	c0,0-0.174,0.347-0.765,0.174"/>
<path fill="none" stroke="#865C3C" stroke-width="0.0671" stroke-linecap="round" stroke-linejoin="round" d="M87.296,110.792
	c0,0-0.729-0.138-1.146-1.108"/>
<circle cx="86.48" cy="107.205" r="0.486"/>
<path fill="none" stroke="#865C3C" stroke-width="0.0336" stroke-linecap="round" stroke-linejoin="round" d="M79.652,107.335
	c0,0,1.246,0.624,1.535,1.117c0,0-1.483-1.015-1.926-1.04C78.822,107.386,79.652,107.335,79.652,107.335z"/>
<path fill="none" stroke="#865C3C" stroke-width="0.0336" stroke-linecap="round" stroke-linejoin="round" d="M79.047,107.795
	c0,0,0.068,0.12,0.104,0.258c0.035,0.141,1.146,0.59,1.51,0.643C80.658,108.695,79.115,107.984,79.047,107.795z"/>
<path fill="none" stroke="#865C3C" stroke-width="0.0336" stroke-linecap="round" stroke-linejoin="round" d="M80.249,111.146
	c0,0,0.955-0.865,1.087-1.373c0,0-1.066,1.268-1.454,1.401C79.494,111.313,80.249,111.146,80.249,111.146z"/>
<path fill="none" stroke="#865C3C" stroke-width="0.0336" stroke-linecap="round" stroke-linejoin="round" d="M79.464,110.895
	c0,0,0.028-0.131,0.022-0.27s0.863-0.836,1.177-0.979C80.663,109.646,79.475,110.699,79.464,110.895z"/>
<path fill="none" stroke="#865C3C" stroke-width="0.0336" stroke-linecap="round" stroke-linejoin="round" d="M84.453,106.771
	l-0.329,0.104c0,0-0.312-0.348-0.606-0.555C83.518,106.32,84.35,106.648,84.453,106.771z"/>
<path fill="none" stroke="#865C3C" stroke-width="0.0336" stroke-linecap="round" stroke-linejoin="round" d="M83.988,106.956
	l-0.188,0.058c0,0-0.177-0.193-0.341-0.311C83.462,106.703,83.93,106.889,83.988,106.956z"/>
<path fill="#00A43D" stroke="#865C3C" stroke-width="0.0671" stroke-linecap="round" stroke-linejoin="round" d="M85.486,106.67
	c-1.646,0.044-3.469,0.982-4.014,2.077c-0.611,1.222,1.644,2.491,3.59,2.664C84.214,108.469,85.059,107.127,85.486,106.67z"/>
<path fill="none" stroke="#865C3C" stroke-width="0.0336" stroke-linecap="round" stroke-linejoin="round" d="M84.662,107.327
	c0,0-0.764-0.14-0.348,0.588c0,0-0.557-0.069-0.451,0.243c0.104,0.311,0.451,0.381,0.451,0.381s-0.277,0-0.277,0.243
	c0,0.241,0.381,0.311,0.381,0.311"/>
<path fill="none" stroke="#865C3C" stroke-width="0.0336" stroke-linecap="round" stroke-linejoin="round" d="M84.245,109.648
	c0,0-0.554,0.172,0.312,0.658"/>
<path fill="none" stroke="#865C3C" stroke-width="0.0336" stroke-linecap="round" stroke-linejoin="round" d="M83.518,107.95
	c0,0-0.484-0.07-0.068,0.485"/>
<path fill="none" stroke="#865C3C" stroke-width="0.0336" stroke-linecap="round" stroke-linejoin="round" d="M82.79,108.02
	c0,0-0.692,0.241,0.104,0.765"/>
<path fill="none" stroke="#865C3C" stroke-width="0.0336" stroke-linecap="round" stroke-linejoin="round" d="M82.79,108.955
	c0,0-0.937-0.104,0.173,0.658"/>
<path fill="none" stroke="#865C3C" stroke-width="0.0336" stroke-linecap="round" stroke-linejoin="round" d="M82.305,108.609
	c0,0-0.589,0.138-0.035,0.658"/>
<path fill="none" stroke="#865C3C" stroke-width="0.0336" stroke-linecap="round" stroke-linejoin="round" d="M83.465,108.4
	c0,0-0.691,0.242,0.104,0.763"/>
<path fill="none" stroke="#865C3C" stroke-width="0.0336" stroke-linecap="round" stroke-linejoin="round" d="M82.27,108.609
	c0,0-0.449-0.278,0.069-0.59"/>
<path fill="none" stroke="#865C3C" stroke-width="0.0336" stroke-linecap="round" stroke-linejoin="round" d="M83.327,110.221
	c0,0-0.831-0.104-0.382-0.589"/>
<path fill="#00B9AC" stroke="#865C3C" stroke-width="0.0671" stroke-linecap="round" stroke-linejoin="round" d="M83.727,110.167
	c0,0-1.388,0.59-0.625,1.422c0.762,0.831,1.455-0.519,1.354-0.866L83.727,110.167z"/>
<path fill="none" stroke="#865C3C" stroke-width="0.0336" stroke-linecap="round" stroke-linejoin="round" d="M83.5,111.156
	c0,0-0.363,0.277-0.502,0.26l0.104,0.122C83.102,111.538,83.432,111.244,83.5,111.156z"/>
<path fill="none" stroke="#865C3C" stroke-width="0.0336" stroke-linecap="round" stroke-linejoin="round" d="M82.945,111.329
	c0,0-0.121-0.14-0.069-0.226c0.052-0.088,0.206-0.262,0.503-0.328C83.379,110.775,82.876,111.07,82.945,111.329z"/>
<path fill="none" stroke="#865C3C" stroke-width="0.0336" stroke-linecap="round" stroke-linejoin="round" d="M83.29,111.725
	c0,0,0.137,0.125,0.224,0.073c0.09-0.05,0.264-0.2,0.342-0.493C83.854,111.305,83.549,111.798,83.29,111.725z"/>
<ellipse fill="none" stroke="#865C3C" stroke-width="0.0336" stroke-linecap="round" stroke-linejoin="round" cx="88.126" cy="109.354" rx="0.088" ry="0.226"/>
<ellipse fill="none" stroke="#865C3C" stroke-width="0.0336" stroke-linecap="round" stroke-linejoin="round" cx="88.326" cy="109.371" rx="0.053" ry="0.139"/>
<ellipse transform="matrix(-0.9359 0.3523 -0.3523 -0.9359 204.7615 180.8894)" fill="#A0D215" cx="85.922" cy="109.076" rx="0.367" ry="0.312"/>
<circle fill="#FFFFFF" cx="86.325" cy="106.997" r="0.175"/>
<path fill="#865C3C" d="M86.292,106.512c0,0,0.164-0.188,0.429-0.117C86.98,106.466,86.457,106.417,86.292,106.512z"/>
<circle fill="#CAEEF1" stroke="#865C3C" stroke-width="0.0336" stroke-linecap="round" stroke-linejoin="round" cx="89.166" cy="108.505" r="0.381"/>
<circle fill="#CAEEF1" stroke="#865C3C" stroke-width="0.0336" stroke-linecap="round" stroke-linejoin="round" cx="88.775" cy="107.585" r="0.226"/>
<circle fill="#CAEEF1" stroke="#865C3C" stroke-width="0.0336" stroke-linecap="round" stroke-linejoin="round" cx="89.132" cy="106.582" r="0.184"/>
<path fill="none" stroke="#865C3C" stroke-width="0.0336" stroke-linecap="round" stroke-linejoin="round" d="M83.587,110.029
	c0,0,0.526,0.584,1.091,0.798"/>
<circle fill="#FFFFFF" cx="86.271" cy="106.945" r="0.074"/>
<path fill="none" stroke="#96722B" stroke-width="0.4438" stroke-miterlimit="10" d="M33.917,108.479c0,0,14.503-2.058,19.993-1.787
	"/>
<path fill="none" stroke="#737577" stroke-width="0.1479" stroke-miterlimit="10" d="M51.906,113.925c0,0-0.449,0.161-0.888,0.224
	c-0.518,0.074-0.074,0.888,0.296,0.738c0.37-0.146,0.074-0.296,0.074-0.296"/>
<path fill="none" stroke="#FFFFFF" stroke-width="0.1184" stroke-miterlimit="10" d="M53.932,106.667c0,0,1.628,2.366-1.478,2.662
	c-3.108,0.297-5.623-0.888-4.586,1.332c1.035,2.22,5.178-0.297,6.953,1.331c1.775,1.627-2.367,2.072-2.959,1.923
	c0,0,0.272,0.126,0.112,0.162c-0.161,0.038-0.173-0.001-0.222-0.099c-0.048-0.101,0.037-0.248-0.098-0.356
	c-0.135-0.111-0.283,0.147-0.049,0.258"/>
<path opacity="0.65" fill="#FFFFFF" stroke="#0B7ABF" stroke-width="2" stroke-miterlimit="10" enable-background="new    " d="
	M0.009,0.1v119.8h119.982V0.1H0.009z M61.104,115.678c-0.396,0-32.854-8.572-40.62-13.564l45.208-70.046l-22.702-0.151l0.994,13.882
	c0,0-29.67,1.096-30.066,0.779C13.518,46.268,4.153,8.829,8.735,5.399c4.586-3.437,91.212-1.094,91.806-1.094
	c0.597,0,14.341,15.128,14.341,15.128S61.51,115.678,61.104,115.678z"/>
</svg>
