<?xml version="1.0" encoding="utf-8"?>
<!-- Generator: Adobe Illustrator 16.0.0, SVG Export Plug-In . SVG Version: 6.00 Build 0)  -->
<!DOCTYPE svg PUBLIC "-//W3C//DTD SVG 1.1//EN" "http://www.w3.org/Graphics/SVG/1.1/DTD/svg11.dtd">
<svg version="1.1" id="Capa_1" xmlns="http://www.w3.org/2000/svg" xmlns:xlink="http://www.w3.org/1999/xlink" x="0px" y="0px"
	 width="120px" height="120px" viewBox="0 0 120 120" enable-background="new 0 0 120 120" xml:space="preserve">
<rect x="-0.09" y="-1.044" fill="#00E1E8" width="120.167" height="121.737"/>
<path fill="#00B9AC" stroke="#865C3C" stroke-width="0.326" stroke-linecap="round" stroke-linejoin="round" d="M76.771,83.326
	c-0.508,1.691,2.857,8.247,6.568,4.209c3.705-4.045-3.035-6.912-3.035-6.912L76.771,83.326z"/>
<path fill="none" stroke="#865C3C" stroke-width="0.1632" stroke-linecap="round" stroke-linejoin="round" d="M83.342,87.289
	l0.504-0.598c-0.67,0.086-2.436-1.26-2.436-1.26C81.736,85.859,83.342,87.289,83.342,87.289z"/>
<path fill="none" stroke="#865C3C" stroke-width="0.1632" stroke-linecap="round" stroke-linejoin="round" d="M81.988,83.58
	c1.434,0.331,2.191,1.17,2.443,1.594c0.268,0.419-0.332,1.1-0.332,1.1C84.434,85.018,81.988,83.58,81.988,83.58z"/>
<path fill="none" stroke="#865C3C" stroke-width="0.1632" stroke-linecap="round" stroke-linejoin="round" d="M79.682,86.15
	c0.367,1.426,1.229,2.158,1.647,2.398c0.433,0.25,1.097-0.355,1.097-0.355C81.168,88.551,79.682,86.15,79.682,86.15z"/>
<path fill="#FFFFFF" stroke="#865C3C" stroke-width="0.326" stroke-linecap="round" stroke-linejoin="round" d="M72.163,68.086
	c0,1.537-1.241,2.785-2.778,2.785c-1.539,0-2.785-1.248-2.785-2.785c0-1.535,1.246-2.783,2.785-2.783
	C70.922,65.303,72.163,66.551,72.163,68.086z"/>
<path d="M71.395,67.223c0,1.051-0.854,1.91-1.908,1.91c-1.053,0-1.903-0.859-1.903-1.91s0.854-1.904,1.903-1.904
	C70.541,65.318,71.395,66.172,71.395,67.223z"/>
<path fill="#FFFFFF" d="M70.027,66.408c0,0.378-0.31,0.684-0.686,0.684c-0.379,0-0.688-0.306-0.688-0.684
	c0-0.383,0.31-0.684,0.688-0.684C69.721,65.725,70.027,66.025,70.027,66.408z"/>
<path fill="#865C3C" d="M68.291,64.186c-0.939,0.217-1.141,1.102-1.141,1.102C67.514,64.708,69.229,63.965,68.291,64.186z"/>
<path fill="#FFFFFF" d="M69.789,66.254c0,0.201-0.152,0.357-0.348,0.357c-0.201,0-0.357-0.156-0.357-0.357
	c0-0.191,0.156-0.354,0.357-0.354C69.637,65.9,69.789,66.063,69.789,66.254z"/>
<path fill="#00B9AC" stroke="#865C3C" stroke-width="0.326" stroke-linecap="round" stroke-linejoin="round" d="M96.579,77.77
	c2.011,5.209,10.78,10.605,11.956,6.727c1.172-3.873-5.893-8.75-5.893-8.75c9.252-3.03,8.075-8.416,8.075-8.416
	c-5.731-2.521-12.13,5.73-12.13,5.73L96.579,77.77z"/>
<path fill="#00B9AC" stroke="#865C3C" stroke-width="0.326" stroke-linecap="round" stroke-linejoin="round" d="M81.42,65.136
	c3.204-4.204,10.607-6.065,11.111-4.374c0.518,1.684-2.348,6.068-2.348,6.068L81.42,65.136z"/>
<path fill="#72C72C" stroke="#865C3C" stroke-width="0.326" stroke-linecap="round" stroke-linejoin="round" d="M98.934,73.729
	c-4.375-8.767-25.598-15.496-31.998-4.043c-6.391,11.446,3.705,13.978,3.705,13.978C77.382,91.748,103.307,82.494,98.934,73.729z"/>
<path fill="#FFFFFF" stroke="#865C3C" stroke-width="0.326" stroke-linecap="round" stroke-linejoin="round" d="M77.309,66.982
	c0,1.918-1.549,3.467-3.461,3.467s-3.459-1.549-3.459-3.467c0-1.902,1.547-3.449,3.459-3.449S77.309,65.08,77.309,66.982z"/>
<path fill="none" stroke="#865C3C" stroke-width="0.326" stroke-linecap="round" stroke-linejoin="round" d="M78.313,78.027
	c-2.867,0.837-3.709-0.846-3.709-0.846"/>
<path fill="none" stroke="#865C3C" stroke-width="0.326" stroke-linecap="round" stroke-linejoin="round" d="M76.207,78.277
	c-2.021,4.719-5.566,5.385-5.566,5.385"/>
<path d="M76.96,66.234c0,1.308-1.058,2.363-2.356,2.363c-1.31,0-2.362-1.058-2.362-2.363c0-1.301,1.055-2.363,2.362-2.363
	C75.902,63.871,76.96,64.934,76.96,66.234z"/>
<path fill="none" stroke="#865C3C" stroke-width="0.1632" stroke-linecap="round" stroke-linejoin="round" d="M109.674,67.242
	c-2.148,0.122-9.355,5.053-9.355,5.053c1.404-2.396,7.459-5.428,7.459-5.428S111.809,67.115,109.674,67.242z"/>
<path fill="none" stroke="#865C3C" stroke-width="0.1632" stroke-linecap="round" stroke-linejoin="round" d="M102.885,73.477
	c1.77-0.258,7.158-2.438,7.33-3.121c0.172-0.67,0.506-1.254,0.506-1.254C110.387,70.025,102.889,73.477,102.885,73.477z"/>
<path fill="none" stroke="#865C3C" stroke-width="0.1632" stroke-linecap="round" stroke-linejoin="round" d="M106.66,85.527
	c-1.881-0.65-7.064-6.813-7.064-6.813c0.645,2.469,5.281,6.67,5.281,6.67S108.547,86.191,106.66,85.527z"/>
<path fill="none" stroke="#865C3C" stroke-width="0.1632" stroke-linecap="round" stroke-linejoin="round" d="M102.865,78.098
	c1.523,0.691,5.746,4.082,5.718,4.754s0.108,1.312,0.108,1.312C108.641,83.213,102.865,78.098,102.865,78.098z"/>
<path fill="none" stroke="#865C3C" stroke-width="0.1632" stroke-linecap="round" stroke-linejoin="round" d="M88.999,61.938
	c-1.435,1.004-2.948,2.696-2.948,2.696l-1.6-0.503C84.953,63.533,88.999,61.938,88.999,61.938z"/>
<path fill="none" stroke="#865C3C" stroke-width="0.1632" stroke-linecap="round" stroke-linejoin="round" d="M89.273,63.797
	c-0.797,0.57-1.656,1.506-1.656,1.506l-0.907-0.279C86.996,64.697,89.268,63.797,89.273,63.797z"/>
<path fill="#00A43D" stroke="#865C3C" stroke-width="0.326" stroke-linecap="round" stroke-linejoin="round" d="M81.49,86.672
	c9.457-0.843,20.412-7.008,17.441-12.941c-2.646-5.32-11.512-9.881-19.5-10.098C81.51,65.855,85.615,72.374,81.49,86.672z"/>
<path fill="none" stroke="#865C3C" stroke-width="0.1632" stroke-linecap="round" stroke-linejoin="round" d="M84.624,75.41
	c0,0,1.849-0.34,1.849-1.51c0-1.188-1.346-1.188-1.346-1.188s1.686-0.341,2.189-1.846c0.508-1.521-2.189-1.186-2.189-1.186
	c2.02-3.537-1.691-2.854-1.691-2.854"/>
<path fill="none" stroke="#865C3C" stroke-width="0.1632" stroke-linecap="round" stroke-linejoin="round" d="M83.947,81.305
	c4.207-2.363,1.514-3.197,1.514-3.197"/>
<path fill="none" stroke="#865C3C" stroke-width="0.1632" stroke-linecap="round" stroke-linejoin="round" d="M89.334,72.212
	c2.021-2.696-0.335-2.354-0.335-2.354"/>
<path fill="none" stroke="#865C3C" stroke-width="0.1632" stroke-linecap="round" stroke-linejoin="round" d="M92.027,73.902
	c3.867-2.539,0.504-3.709,0.504-3.709"/>
<path fill="none" stroke="#865C3C" stroke-width="0.1632" stroke-linecap="round" stroke-linejoin="round" d="M91.691,77.936
	c5.391-3.695,0.84-3.194,0.84-3.194"/>
<path fill="none" stroke="#865C3C" stroke-width="0.1632" stroke-linecap="round" stroke-linejoin="round" d="M95.061,76.258
	c2.689-2.527-0.17-3.197-0.17-3.197"/>
<path fill="none" stroke="#865C3C" stroke-width="0.1632" stroke-linecap="round" stroke-linejoin="round" d="M88.75,75.75
	c3.861-2.531,0.505-3.708,0.505-3.708"/>
<path fill="none" stroke="#865C3C" stroke-width="0.1632" stroke-linecap="round" stroke-linejoin="round" d="M94.725,70.193
	c2.521,1.512,0.336,2.867,0.336,2.867"/>
<path fill="none" stroke="#865C3C" stroke-width="0.1632" stroke-linecap="round" stroke-linejoin="round" d="M91.777,78.027
	c2.183,2.356-1.854,2.861-1.854,2.861"/>
<path fill="#00B9AC" stroke="#865C3C" stroke-width="0.326" stroke-linecap="round" stroke-linejoin="round" d="M84.447,83.326
	c-0.5,1.691,2.865,8.247,6.57,4.209c3.707-4.045-3.037-6.912-3.037-6.912L84.447,83.326z"/>
<path fill="none" stroke="#865C3C" stroke-width="0.1632" stroke-linecap="round" stroke-linejoin="round" d="M91.018,87.289
	l0.506-0.598c-0.676,0.086-2.439-1.26-2.439-1.26C89.414,85.859,91.018,87.289,91.018,87.289z"/>
<path fill="none" stroke="#865C3C" stroke-width="0.1632" stroke-linecap="round" stroke-linejoin="round" d="M89.67,83.58
	c1.443,0.331,2.191,1.17,2.443,1.594c0.252,0.419-0.336,1.1-0.336,1.1C92.113,85.018,89.67,83.58,89.67,83.58z"/>
<path fill="none" stroke="#865C3C" stroke-width="0.1632" stroke-linecap="round" stroke-linejoin="round" d="M87.355,86.15
	c0.379,1.426,1.225,2.158,1.66,2.398c0.424,0.25,1.086-0.355,1.086-0.355C88.846,88.551,87.365,86.15,87.355,86.15z"/>
<path fill="none" stroke="#865C3C" stroke-width="0.1632" stroke-linecap="round" stroke-linejoin="round" d="M67.035,76.672
	c0,0.611-0.189,1.102-0.43,1.102c-0.236,0-0.426-0.488-0.426-1.102c0-0.605,0.188-1.098,0.426-1.098
	C66.846,75.574,67.035,76.066,67.035,76.672z"/>
<path fill="none" stroke="#865C3C" stroke-width="0.1632" stroke-linecap="round" stroke-linejoin="round" d="M65.891,76.762
	c0,0.368-0.113,0.672-0.256,0.672s-0.256-0.304-0.256-0.672c0-0.373,0.113-0.678,0.256-0.678S65.891,76.389,65.891,76.762z"/>
<path fill="#A0D215" d="M78.977,75.93c-0.295,0.783-1.281,1.135-2.201,0.793c-0.92-0.354-1.43-1.263-1.135-2.051
	c0.295-0.781,1.281-1.141,2.207-0.789C78.77,74.225,79.271,75.148,78.977,75.93z"/>
<path fill="#FFFFFF" d="M76.207,65.221c0,0.475-0.381,0.854-0.85,0.854c-0.473,0-0.853-0.38-0.853-0.854
	c0-0.463,0.38-0.841,0.853-0.841C75.826,64.38,76.207,64.758,76.207,65.221z"/>
<path fill="#865C3C" d="M73.436,62.295c1.285-0.344,2.084,0.574,2.084,0.574C74.717,62.404,72.172,62.643,73.436,62.295z"/>
<path fill="#00E1E8" stroke="#865C3C" stroke-width="0.1632" stroke-linecap="round" stroke-linejoin="round" d="M63.404,72.549
	c0,1.023-0.825,1.854-1.85,1.854c-1.025,0-1.854-0.829-1.854-1.854c0-1.016,0.826-1.848,1.854-1.848
	C62.579,70.701,63.404,71.533,63.404,72.549z"/>
<path fill="#00E1E8" stroke="#865C3C" stroke-width="0.1632" stroke-linecap="round" stroke-linejoin="round" d="M64.545,68.083
	c0,0.603-0.495,1.092-1.092,1.092c-0.607,0-1.098-0.489-1.098-1.092c0-0.606,0.487-1.101,1.098-1.101
	C64.05,66.982,64.545,67.477,64.545,68.083z"/>
<circle fill="#00E1E8" stroke="#865C3C" stroke-width="0.1632" stroke-linecap="round" stroke-linejoin="round" cx="61.721" cy="63.209" r="0.887"/>
<path fill="none" stroke="#865C3C" stroke-width="0.1632" stroke-linecap="round" stroke-linejoin="round" d="M83.359,83.83
	c2.744-1.037,5.302-3.873,5.302-3.873"/>
<path fill="#FFFFFF" d="M75.975,64.977c0,0.197-0.158,0.357-0.356,0.357c-0.197,0-0.358-0.16-0.358-0.357
	c0-0.199,0.161-0.359,0.358-0.359C75.816,64.615,75.975,64.775,75.975,64.977z"/>
<path fill="#00B9AC" stroke="#865C3C" stroke-width="0.2635" stroke-linecap="round" stroke-linejoin="round" d="M51.927,46.298
	c0,0-5.451,2.316-2.455,5.584c2.999,3.264,5.722-2.036,5.312-3.401L51.927,46.298z"/>
<path fill="none" stroke="#865C3C" stroke-width="0.132" stroke-linecap="round" stroke-linejoin="round" d="M51.032,50.183
	c0,0-1.426,1.09-1.967,1.021l0.406,0.479C49.472,51.683,50.769,50.528,51.032,50.183z"/>
<path fill="none" stroke="#865C3C" stroke-width="0.132" stroke-linecap="round" stroke-linejoin="round" d="M48.858,50.862
	c0,0-0.484-0.549-0.269-0.887c0.203-0.345,0.817-1.023,1.975-1.289C50.564,48.687,48.59,49.846,48.858,50.862z"/>
<path fill="none" stroke="#865C3C" stroke-width="0.132" stroke-linecap="round" stroke-linejoin="round" d="M50.213,52.415
	c0,0,0.536,0.49,0.885,0.288c0.338-0.196,1.036-0.787,1.334-1.938C52.432,50.766,51.229,52.703,50.213,52.415z"/>
<path fill="none" stroke="#865C3C" stroke-width="0.132" stroke-linecap="round" stroke-linejoin="round" d="M27.477,37.526"/>
<circle fill="#FFFFFF" stroke="#865C3C" stroke-width="0.2635" stroke-linecap="round" stroke-linejoin="round" cx="60.755" cy="36.163" r="2.249"/>
<circle cx="60.671" cy="35.463" r="1.542"/>
<path fill="#FFFFFF" d="M60.786,34.251c0.308,0,0.556,0.245,0.556,0.552c0,0.307-0.248,0.553-0.556,0.553
	c-0.303,0-0.552-0.246-0.552-0.553C60.234,34.496,60.483,34.251,60.786,34.251z"/>
<path fill="#865C3C" d="M62.559,33.894c0,0-0.162-0.713-0.92-0.886C60.879,32.832,62.268,33.43,62.559,33.894z"/>
<path fill="#FFFFFF" d="M60.709,34.393c0.162,0,0.288,0.13,0.288,0.288c0,0.161-0.126,0.287-0.288,0.287
	c-0.157,0-0.283-0.126-0.283-0.287C60.426,34.523,60.552,34.393,60.709,34.393z"/>
<path fill="#00B9AC" stroke="#865C3C" stroke-width="0.2635" stroke-linecap="round" stroke-linejoin="round" d="M37.144,40.181
	c0,0-5.172-6.67-9.806-4.634c0,0-0.95,4.354,6.528,6.805c0,0-5.711,3.943-4.764,7.076c0.951,3.133,8.041-1.23,9.668-5.438
	L37.144,40.181z"/>
<path fill="#00B9AC" stroke="#865C3C" stroke-width="0.2635" stroke-linecap="round" stroke-linejoin="round" d="M43.94,35.145
	c0,0-2.315-3.544-1.897-4.905c0.409-1.366,6.393,0.138,8.981,3.536L43.94,35.145z"/>
<path fill="#72C72C" stroke="#865C3C" stroke-width="0.2635" stroke-linecap="round" stroke-linejoin="round" d="M59.739,48.752
	c0,0,8.162-2.044,2.996-11.298c-5.174-9.256-22.331-3.817-25.867,3.267C33.33,47.806,54.289,55.288,59.739,48.752z"/>
<path fill="#FFFFFF" stroke="#865C3C" stroke-width="0.2635" stroke-linecap="round" stroke-linejoin="round" d="M57.146,32.479
	c1.545,0,2.796,1.25,2.796,2.791c0,1.55-1.251,2.801-2.796,2.801c-1.546,0-2.797-1.251-2.797-2.801
	C54.35,33.729,55.601,32.479,57.146,32.479z"/>
<path fill="none" stroke="#865C3C" stroke-width="0.2635" stroke-linecap="round" stroke-linejoin="round" d="M56.536,43.514
	c0,0-0.683,1.361-2.999,0.682"/>
<path fill="none" stroke="#865C3C" stroke-width="0.2635" stroke-linecap="round" stroke-linejoin="round" d="M59.739,48.752
	c0,0-2.865-0.54-4.499-4.353"/>
<path d="M56.536,32.755c1.059,0,1.91,0.855,1.91,1.91c0,1.054-0.852,1.91-1.91,1.91c-1.051,0-1.906-0.855-1.906-1.91
	S55.485,32.755,56.536,32.755z"/>
<path fill="none" stroke="#865C3C" stroke-width="0.132" stroke-linecap="round" stroke-linejoin="round" d="M29.716,35.175
	c0,0,4.896,2.451,6.031,4.388c0,0-5.827-3.984-7.564-4.084C26.457,35.375,29.716,35.175,29.716,35.175z"/>
<path fill="none" stroke="#865C3C" stroke-width="0.132" stroke-linecap="round" stroke-linejoin="round" d="M27.338,36.981
	c0,0,0.269,0.473,0.407,1.013c0.138,0.553,4.495,2.316,5.926,2.523C33.667,40.518,27.606,37.726,27.338,36.981z"/>
<path fill="none" stroke="#865C3C" stroke-width="0.132" stroke-linecap="round" stroke-linejoin="round" d="M32.06,50.145
	c0,0,3.752-3.397,4.271-5.393c0,0-4.189,4.979-5.712,5.508C29.095,50.797,32.06,50.145,32.06,50.145z"/>
<path fill="none" stroke="#865C3C" stroke-width="0.132" stroke-linecap="round" stroke-linejoin="round" d="M28.977,49.155
	c0,0,0.111-0.514,0.088-1.061c-0.023-0.543,3.391-3.282,4.621-3.842C33.686,44.254,29.019,48.389,28.977,49.155z"/>
<path fill="none" stroke="#865C3C" stroke-width="0.132" stroke-linecap="round" stroke-linejoin="round" d="M48.574,32.962
	l-1.293,0.406c0,0-1.224-1.365-2.382-2.178C44.899,31.191,48.168,32.479,48.574,32.962z"/>
<path fill="none" stroke="#865C3C" stroke-width="0.132" stroke-linecap="round" stroke-linejoin="round" d="M46.749,33.687
	l-0.733,0.227c0,0-0.694-0.76-1.339-1.22C44.682,32.694,46.518,33.422,46.749,33.687z"/>
<path fill="#00A43D" stroke="#865C3C" stroke-width="0.2635" stroke-linecap="round" stroke-linejoin="round" d="M52.632,32.563
	c-6.459,0.173-13.624,3.859-15.765,8.158c-2.402,4.799,6.456,9.784,14.101,10.463C47.635,39.628,50.952,34.358,52.632,32.563z"/>
<path fill="none" stroke="#865C3C" stroke-width="0.132" stroke-linecap="round" stroke-linejoin="round" d="M49.396,35.145
	c0,0-3-0.549-1.366,2.31c0,0-2.182-0.273-1.771,0.955c0.41,1.219,1.771,1.495,1.771,1.495s-1.089,0-1.089,0.955
	c0,0.947,1.495,1.22,1.495,1.22"/>
<path fill="none" stroke="#865C3C" stroke-width="0.132" stroke-linecap="round" stroke-linejoin="round" d="M47.758,44.261
	c0,0-2.175,0.675,1.224,2.585"/>
<path fill="none" stroke="#865C3C" stroke-width="0.132" stroke-linecap="round" stroke-linejoin="round" d="M44.899,37.592
	c0,0-1.905-0.276-0.271,1.905"/>
<path fill="none" stroke="#865C3C" stroke-width="0.132" stroke-linecap="round" stroke-linejoin="round" d="M42.043,37.864
	c0,0-2.721,0.946,0.409,2.999"/>
<path fill="none" stroke="#865C3C" stroke-width="0.132" stroke-linecap="round" stroke-linejoin="round" d="M42.043,41.538
	c0,0-3.68-0.406,0.679,2.585"/>
<path fill="none" stroke="#865C3C" stroke-width="0.132" stroke-linecap="round" stroke-linejoin="round" d="M40.137,40.181
	c0,0-2.313,0.54-0.139,2.584"/>
<path fill="none" stroke="#865C3C" stroke-width="0.132" stroke-linecap="round" stroke-linejoin="round" d="M44.692,39.359
	c0,0-2.715,0.951,0.407,2.996"/>
<path fill="none" stroke="#865C3C" stroke-width="0.132" stroke-linecap="round" stroke-linejoin="round" d="M39.998,40.181
	c0,0-1.766-1.093,0.272-2.316"/>
<path fill="none" stroke="#865C3C" stroke-width="0.132" stroke-linecap="round" stroke-linejoin="round" d="M44.152,46.509
	c0,0-3.265-0.406-1.5-2.313"/>
<path fill="#00B9AC" stroke="#865C3C" stroke-width="0.2635" stroke-linecap="round" stroke-linejoin="round" d="M45.721,46.298
	c0,0-5.45,2.316-2.454,5.584c2.995,3.264,5.715-2.036,5.312-3.401L45.721,46.298z"/>
<path fill="none" stroke="#865C3C" stroke-width="0.132" stroke-linecap="round" stroke-linejoin="round" d="M44.831,50.183
	c0,0-1.427,1.09-1.972,1.021l0.407,0.479C43.267,51.683,44.562,50.528,44.831,50.183z"/>
<path fill="none" stroke="#865C3C" stroke-width="0.132" stroke-linecap="round" stroke-linejoin="round" d="M42.652,50.862
	c0,0-0.476-0.549-0.271-0.887c0.202-0.345,0.809-1.023,1.975-1.289C44.355,48.687,42.381,49.846,42.652,50.862z"/>
<path fill="none" stroke="#865C3C" stroke-width="0.132" stroke-linecap="round" stroke-linejoin="round" d="M44.006,52.415
	c0,0,0.537,0.49,0.879,0.288c0.353-0.196,1.035-0.787,1.343-1.938C46.22,50.766,45.022,52.703,44.006,52.415z"/>
<ellipse fill="none" stroke="#865C3C" stroke-width="0.132" stroke-linecap="round" stroke-linejoin="round" cx="62.999" cy="43.104" rx="0.347" ry="0.888"/>
<ellipse fill="none" stroke="#865C3C" stroke-width="0.132" stroke-linecap="round" stroke-linejoin="round" cx="63.785" cy="43.172" rx="0.208" ry="0.545"/>
<path fill="#A0D215" d="M53.913,40.849c0.748-0.285,1.546,0.003,1.783,0.636c0.238,0.637-0.173,1.373-0.916,1.657
	c-0.744,0.275-1.543-0.008-1.78-0.642C52.763,41.868,53.169,41.124,53.913,40.849z"/>
<circle fill="#FFFFFF" cx="55.927" cy="33.848" r="0.686"/>
<path fill="#865C3C" d="M55.796,31.942c0,0,0.646-0.741,1.685-0.46C58.5,31.761,56.443,31.57,55.796,31.942z"/>
<path fill="#00E1E8" stroke="#865C3C" stroke-width="0.132" stroke-linecap="round" stroke-linejoin="round" d="M67.084,38.273
	c0.828,0,1.496,0.672,1.496,1.496c0,0.825-0.668,1.496-1.496,1.496c-0.829,0-1.496-0.671-1.496-1.496
	C65.588,38.945,66.255,38.273,67.084,38.273z"/>
<path fill="#00E1E8" stroke="#865C3C" stroke-width="0.132" stroke-linecap="round" stroke-linejoin="round" d="M65.55,35.271
	c0.49,0,0.886,0.399,0.886,0.887c0,0.486-0.396,0.885-0.886,0.885c-0.483,0-0.883-0.398-0.883-0.885
	C64.667,35.67,65.066,35.271,65.55,35.271z"/>
<circle fill="#00E1E8" stroke="#865C3C" stroke-width="0.132" stroke-linecap="round" stroke-linejoin="round" cx="66.949" cy="32.218" r="0.721"/>
<path fill="none" stroke="#865C3C" stroke-width="0.132" stroke-linecap="round" stroke-linejoin="round" d="M45.172,45.757
	c0,0,2.067,2.293,4.285,3.134"/>
<circle fill="#FFFFFF" cx="55.716" cy="33.645" r="0.291"/>
<path fill="#18C433" d="M109.329,114.583c0,0,4,0-1-8s-11.5-13.75-5.5-18.75s0.5-5.5,0.25-8.25s2.25,0.5,2.25,0.5
	s4.625,3.625-2,9.625c0,0-3.875,3.25-0.375,7.375s10.875,14.25,8.25,17.75L109.329,114.583z"/>
<path fill="#00B9AC" stroke="#865C3C" stroke-width="0.1697" stroke-linecap="round" stroke-linejoin="round" d="M17.196,23.689
	c-0.265,0.88,1.489,4.294,3.421,2.19c1.93-2.104-1.582-3.597-1.582-3.597L17.196,23.689z"/>
<path fill="none" stroke="#865C3C" stroke-width="0.085" stroke-linecap="round" stroke-linejoin="round" d="M20.617,25.752
	l0.263-0.309c-0.349,0.045-1.269-0.658-1.269-0.658C19.782,25.009,20.617,25.752,20.617,25.752z"/>
<path fill="none" stroke="#865C3C" stroke-width="0.085" stroke-linecap="round" stroke-linejoin="round" d="M19.913,23.822
	c0.746,0.172,1.142,0.609,1.272,0.83c0.139,0.218-0.174,0.572-0.174,0.572C21.186,24.569,19.913,23.822,19.913,23.822z"/>
<path fill="none" stroke="#865C3C" stroke-width="0.085" stroke-linecap="round" stroke-linejoin="round" d="M18.711,25.161
	c0.191,0.741,0.641,1.122,0.859,1.249c0.225,0.13,0.57-0.187,0.57-0.187C19.486,26.41,18.711,25.161,18.711,25.161z"/>
<path fill="none" stroke="#865C3C" stroke-width="0.085" stroke-linecap="round" stroke-linejoin="round" d="M34.783,16.634"/>
<circle fill="#FFFFFF" stroke="#865C3C" stroke-width="0.1697" stroke-linecap="round" stroke-linejoin="round" cx="13.349" cy="15.753" r="1.448"/>
<circle cx="13.404" cy="15.305" r="0.993"/>
<circle fill="#FFFFFF" cx="13.328" cy="14.88" r="0.357"/>
<path fill="#865C3C" d="M12.781,13.724c-0.489,0.112-0.594,0.571-0.594,0.571C12.376,13.995,13.27,13.609,12.781,13.724z"/>
<path fill="#FFFFFF" d="M13.562,14.801c0,0.104-0.081,0.185-0.182,0.185c-0.104,0-0.187-0.081-0.187-0.185
	c0-0.101,0.082-0.185,0.187-0.185C13.48,14.616,13.562,14.7,13.562,14.801z"/>
<path fill="#00B9AC" stroke="#865C3C" stroke-width="0.1697" stroke-linecap="round" stroke-linejoin="round" d="M27.51,20.796
	c1.047,2.711,5.613,5.522,6.226,3.503c0.61-2.018-3.068-4.558-3.068-4.558c4.817-1.577,4.205-4.381,4.205-4.381
	c-2.984-1.312-6.315,2.984-6.315,2.984L27.51,20.796z"/>
<path fill="#00B9AC" stroke="#865C3C" stroke-width="0.1697" stroke-linecap="round" stroke-linejoin="round" d="M19.617,14.218
	c1.668-2.19,5.521-3.157,5.785-2.277c0.27,0.876-1.223,3.158-1.223,3.158L19.617,14.218z"/>
<path fill="#72C72C" stroke="#865C3C" stroke-width="0.1697" stroke-linecap="round" stroke-linejoin="round" d="M28.735,18.692
	c-2.278-4.563-13.328-8.067-16.66-2.104c-3.327,5.96,1.929,7.277,1.929,7.277C17.514,28.075,31.013,23.255,28.735,18.692z"/>
<path fill="#FFFFFF" stroke="#865C3C" stroke-width="0.1697" stroke-linecap="round" stroke-linejoin="round" d="M17.476,15.18
	c0,0.998-0.806,1.804-1.802,1.804c-0.996,0-1.801-0.806-1.801-1.804c0-0.992,0.805-1.797,1.801-1.797
	C16.67,13.383,17.476,14.188,17.476,15.18z"/>
<path fill="none" stroke="#865C3C" stroke-width="0.1697" stroke-linecap="round" stroke-linejoin="round" d="M17.998,20.93
	c-1.492,0.437-1.931-0.441-1.931-0.441"/>
<path fill="none" stroke="#865C3C" stroke-width="0.1697" stroke-linecap="round" stroke-linejoin="round" d="M16.902,21.06
	c-1.053,2.457-2.898,2.804-2.898,2.804"/>
<circle cx="16.065" cy="14.791" r="1.229"/>
<path fill="none" stroke="#865C3C" stroke-width="0.085" stroke-linecap="round" stroke-linejoin="round" d="M34.328,15.314
	c-1.119,0.064-4.871,2.63-4.871,2.63c0.73-1.246,3.884-2.825,3.884-2.825S35.439,15.249,34.328,15.314z"/>
<path fill="none" stroke="#865C3C" stroke-width="0.085" stroke-linecap="round" stroke-linejoin="round" d="M30.793,18.56
	c0.922-0.134,3.729-1.269,3.816-1.625c0.09-0.348,0.263-0.652,0.263-0.652C34.699,16.763,30.795,18.56,30.793,18.56z"/>
<path fill="none" stroke="#865C3C" stroke-width="0.085" stroke-linecap="round" stroke-linejoin="round" d="M32.76,24.836
	c-0.98-0.341-3.68-3.548-3.68-3.548c0.334,1.285,2.75,3.474,2.75,3.474S33.741,25.182,32.76,24.836z"/>
<path fill="none" stroke="#865C3C" stroke-width="0.085" stroke-linecap="round" stroke-linejoin="round" d="M30.783,20.966
	c0.793,0.362,2.992,2.125,2.977,2.476c-0.015,0.35,0.057,0.681,0.057,0.681C33.789,23.631,30.783,20.966,30.783,20.966z"/>
<path fill="none" stroke="#865C3C" stroke-width="0.085" stroke-linecap="round" stroke-linejoin="round" d="M23.562,12.553
	c-0.746,0.523-1.535,1.403-1.535,1.403l-0.832-0.262C21.457,13.383,23.562,12.553,23.562,12.553z"/>
<path fill="none" stroke="#865C3C" stroke-width="0.085" stroke-linecap="round" stroke-linejoin="round" d="M23.706,13.521
	c-0.415,0.296-0.862,0.785-0.862,0.785l-0.473-0.146C22.521,13.99,23.703,13.521,23.706,13.521z"/>
<path fill="#00A43D" stroke="#865C3C" stroke-width="0.1697" stroke-linecap="round" stroke-linejoin="round" d="M19.654,25.431
	c4.923-0.438,10.627-3.648,9.081-6.739c-1.378-2.771-5.993-5.144-10.153-5.256C19.664,14.594,21.801,17.987,19.654,25.431z"/>
<path fill="none" stroke="#865C3C" stroke-width="0.085" stroke-linecap="round" stroke-linejoin="round" d="M21.285,19.567
	c0,0,0.963-0.177,0.963-0.786c0-0.616-0.701-0.616-0.701-0.616s0.877-0.178,1.141-0.962c0.264-0.792-1.141-0.615-1.141-0.615
	c1.052-1.842-0.881-1.489-0.881-1.489"/>
<path fill="none" stroke="#865C3C" stroke-width="0.085" stroke-linecap="round" stroke-linejoin="round" d="M20.934,22.636
	c2.189-1.229,0.787-1.665,0.787-1.665"/>
<path fill="none" stroke="#865C3C" stroke-width="0.085" stroke-linecap="round" stroke-linejoin="round" d="M23.737,17.903
	c1.052-1.406-0.175-1.227-0.175-1.227"/>
<path fill="none" stroke="#865C3C" stroke-width="0.085" stroke-linecap="round" stroke-linejoin="round" d="M25.139,18.783
	c2.016-1.322,0.264-1.932,0.264-1.932"/>
<path fill="none" stroke="#865C3C" stroke-width="0.085" stroke-linecap="round" stroke-linejoin="round" d="M24.965,20.882
	c2.807-1.926,0.438-1.665,0.438-1.665"/>
<path fill="none" stroke="#865C3C" stroke-width="0.085" stroke-linecap="round" stroke-linejoin="round" d="M26.719,20.009
	c1.4-1.317-0.088-1.665-0.088-1.665"/>
<path fill="none" stroke="#865C3C" stroke-width="0.085" stroke-linecap="round" stroke-linejoin="round" d="M23.434,19.745
	c2.011-1.318,0.263-1.931,0.263-1.931"/>
<path fill="none" stroke="#865C3C" stroke-width="0.085" stroke-linecap="round" stroke-linejoin="round" d="M26.544,16.852
	c1.312,0.787,0.175,1.492,0.175,1.492"/>
<path fill="none" stroke="#865C3C" stroke-width="0.085" stroke-linecap="round" stroke-linejoin="round" d="M25.01,20.93
	c1.137,1.228-0.966,1.49-0.966,1.49"/>
<path fill="#00B9AC" stroke="#865C3C" stroke-width="0.1697" stroke-linecap="round" stroke-linejoin="round" d="M21.193,23.689
	c-0.26,0.88,1.492,4.294,3.421,2.19c1.93-2.104-1.581-3.597-1.581-3.597L21.193,23.689z"/>
<path fill="none" stroke="#865C3C" stroke-width="0.085" stroke-linecap="round" stroke-linejoin="round" d="M24.614,25.752
	l0.263-0.309c-0.352,0.045-1.271-0.658-1.271-0.658C23.779,25.009,24.614,25.752,24.614,25.752z"/>
<path fill="none" stroke="#865C3C" stroke-width="0.085" stroke-linecap="round" stroke-linejoin="round" d="M23.912,23.822
	c0.752,0.172,1.143,0.609,1.273,0.83c0.131,0.218-0.176,0.572-0.176,0.572C25.186,24.569,23.912,23.822,23.912,23.822z"/>
<path fill="none" stroke="#865C3C" stroke-width="0.085" stroke-linecap="round" stroke-linejoin="round" d="M22.707,25.161
	c0.197,0.741,0.638,1.122,0.865,1.249c0.22,0.13,0.565-0.187,0.565-0.187C23.482,26.41,22.712,25.161,22.707,25.161z"/>
<ellipse fill="none" stroke="#865C3C" stroke-width="0.085" stroke-linecap="round" stroke-linejoin="round" cx="11.904" cy="20.225" rx="0.223" ry="0.573"/>
<ellipse fill="none" stroke="#865C3C" stroke-width="0.085" stroke-linecap="round" stroke-linejoin="round" cx="11.398" cy="20.271" rx="0.133" ry="0.351"/>
<path fill="#A0D215" d="M18.345,19.837c-0.153,0.409-0.667,0.592-1.146,0.414c-0.479-0.184-0.743-0.657-0.591-1.067
	c0.153-0.408,0.667-0.594,1.148-0.41C18.236,18.951,18.498,19.431,18.345,19.837z"/>
<circle fill="#FFFFFF" cx="16.46" cy="14.264" r="0.442"/>
<path fill="#865C3C" d="M15.459,12.74c0.669-0.18,1.086,0.297,1.086,0.297C16.127,12.797,14.802,12.92,15.459,12.74z"/>
<circle fill="#00E1E8" stroke="#865C3C" stroke-width="0.085" stroke-linecap="round" stroke-linejoin="round" cx="9.272" cy="18.078" r="0.964"/>
<path fill="#00E1E8" stroke="#865C3C" stroke-width="0.085" stroke-linecap="round" stroke-linejoin="round" d="M10.83,15.752
	c0,0.313-0.258,0.569-0.568,0.569c-0.316,0-0.571-0.256-0.571-0.569c0-0.315,0.255-0.572,0.571-0.572
	C10.572,15.18,10.83,15.437,10.83,15.752z"/>
<circle fill="#00E1E8" stroke="#865C3C" stroke-width="0.085" stroke-linecap="round" stroke-linejoin="round" cx="9.359" cy="13.215" r="0.462"/>
<path fill="none" stroke="#865C3C" stroke-width="0.085" stroke-linecap="round" stroke-linejoin="round" d="M20.627,23.953
	c1.429-0.542,2.76-2.018,2.76-2.018"/>
<circle fill="#FFFFFF" cx="16.595" cy="14.134" r="0.187"/>
<path fill="none" stroke="#865C3C" stroke-width="0.121" stroke-linecap="round" stroke-linejoin="round" d="M53.368,28.271"/>
<path fill="#18C433" d="M28.653,113.677c0.564-0.423,1.833-8.743,7.192-11.987c5.359-3.244,4.09-15.229,1.692-18.475
	c-2.398-3.244-1.27-9.025-0.141-10.152c1.128-1.129,0.705-2.258-0.141-2.963c-0.847-0.703-4.09,1.271-2.962,8.604
	c1.127,7.333,4.795,14.385,0.423,18.052c-4.372,3.667-6.911,8.32-7.051,11.563c-0.067,1.543-0.167,3.054-0.251,4.214
	c-0.095,1.278-0.171,2.135-0.171,2.135L28.653,113.677z"/>
<path fill="#18C433" d="M28.371,111.703c0,0-6.487-10.859-1.41-21.014c5.077-10.155,8.461-18.191,1.692-26.938
	c-6.77-8.745-7.898-15.655-5.077-17.488c2.82-1.833,1.833-3.385-0.564-2.539c-2.397,0.847-6.346,7.051,2.68,22.708
	c9.026,15.65-3.949,19.317-4.795,31.166c-0.846,11.846,3.667,10.576,4.09,14.104c0.423,3.525,0.846,1.128,0.846,1.128
	L28.371,111.703z"/>
<path fill="#18C433" d="M21.319,97.6c0,0-2.82-5.076,1.27-12.27c4.09-7.193,0.846-6.488-1.128-8.885
	c-1.974-2.397-2.68-3.807-0.705-4.793c1.975-0.988-2.539-5.219-3.103,3.383c-0.564,8.604,4.513,0.564,4.513,6.064
	s-2.82,3.946-4.654,9.729c-1.833,5.78,1.833,8.885,2.821,10.717c0.987,1.834,2.115,0.849,2.538,3.104
	c0.423,2.257,0.988-3.809,0.988-3.809S21.179,99.01,21.319,97.6z"/>
<path fill="#B14B49" stroke="#B14B49" stroke-width="0.0356" stroke-miterlimit="10" d="M-229.164,256.166
	c-4.333-1.333-8,1.334-7.333,3.667"/>
<path fill="#18C433" d="M111.829,113.833c0,0,3.125-5.125,0.75-10.625s-10.25-18.125-2.5-25c0,0,1.625-0.75,1,1.625
	s-3.875,5.625-2.125,10.375s6.25,10.25,6.125,17s-1.625,7.875-1.625,7.875l-2.125,0.5L111.829,113.833z"/>
<path fill="#F7B18F" d="M120,121.832v-6.223c-7.943,1.97-16.486,2.111-28.104-2.375c-17.358-6.707-15.076-6.191-31.521-3.096
	c-16.445,3.096-20.1,5.674-39.743-1.033c-14.492-4.946-19.282-3.155-20.8-1.877v14.604H120z"/>
<path d="M70.839,79.799c-2.431-1.532-3.915-3.965-3.915-7.719c0-7.033,8.844-10.312,15.525-10.312
	c6.615,0,15.863,3.384,15.863,10.417c0,3.543-1.553,6.027-3.982,7.563c3.375,1.744,5.67,4.601,5.67,9.201
	C100,96.193,91.63,100,83.26,100c-8.235,0-17.618-3.332-17.618-11.209C65.641,84.348,67.666,81.545,70.839,79.799z M82.854,91.168
	c2.97,0,4.455-1.11,4.455-3.119c0-2.063-1.282-3.648-4.253-3.648c-3.105,0-4.389,1.586-4.389,3.385
	C78.669,89.899,79.951,91.168,82.854,91.168z M86.229,72.133c0-1.586-1.08-2.75-3.578-2.75c-2.633,0-3.78,1.162-3.78,2.591
	c0,1.586,1.147,2.538,3.646,2.538S86.229,73.666,86.229,72.133z"/>
</svg>
