<?xml version="1.0" encoding="utf-8"?>
<!-- Generator: Adobe Illustrator 16.0.0, SVG Export Plug-In . SVG Version: 6.00 Build 0)  -->
<!DOCTYPE svg PUBLIC "-//W3C//DTD SVG 1.1//EN" "http://www.w3.org/Graphics/SVG/1.1/DTD/svg11.dtd">
<svg version="1.1" id="Capa_1" xmlns="http://www.w3.org/2000/svg" xmlns:xlink="http://www.w3.org/1999/xlink" x="0px" y="0px"
	 width="120px" height="120px" viewBox="0 0 120 120" enable-background="new 0 0 120 120" xml:space="preserve">
<rect fill="#93D100" stroke="#70A40F" stroke-width="0.5224" stroke-miterlimit="10" width="120" height="120"/>
<path fill="#C85D0D" stroke="#8C3F04" stroke-width="0.5831" stroke-miterlimit="10" d="M0.29,35.291
	c0,0,29.069,15.702,46.428,18.722c17.351,3.033,30.08,16.932,45.121,15.805l-2.598,6.392c0,0-10.563-1.127-17.069-4.489
	c-6.513-3.361-33.988-11.316-38.904-14.125c-4.92-2.794-9.979-0.441-16.775-3.354C9.696,51.317,0,43.921,0,43.921"/>
<path fill="#93D100" stroke="#70A40F" stroke-width="0.5224" stroke-miterlimit="10" d="M73.835,39.147
	c0,0-3.761-18.554-32.648-12.501c0,0-24.34,6.034-17.962,38.538c6.387,32.508,26.57,38.84,36.214,30.748
	c9.648-8.094,5.344-24.274-10.532-24.274c0,0-8.902,1.323-8.902,10.149c0,8.822,14.096,7.646,14.096,3.088
	c0-4.557-3.264-4.265-2.964-1.174c0.294,3.092-4.906,1.915-4.906-0.885c0-2.79,2.086-5.001,6.239-5.001
	c4.155,0,5.936,3.237,5.936,6.173c0,2.945-3.567,9.273-11.279,9.273c-7.719,0-23.452-22.463-10.487-38.147
	c0,0,21.965,5.39,26.812,5.39c0,0,5.841,8.242,16.817,4.807c10.985-3.43,8.312-11.563,5.444-14.212
	c-2.868-2.649-3.065-4.906-2.868-6.086c0.199-1.172,0-3.137-2.476-5.589C77.891,36.995,73.835,39.147,73.835,39.147z"/>
<path fill="#93D100" stroke="#70A40F" stroke-width="0.5224" stroke-miterlimit="10" d="M51.28,55.038c0,0,1.775,1.957-2.187,5.485
	c-3.957,3.537,0,10.892,7.521,8.047c0,0,0.79-1.172-0.889-1.873c-1.684-0.676-6.827-4.7,5.441-7.35"/>
<path fill="#93D100" stroke="#70A40F" stroke-width="0.5224" stroke-miterlimit="10" d="M44.549,54.25c0,0-4.649,2.365-4.353,5.102
	c0,0,0.098,2.357,3.857,1.865c0,0,0.803,0.979-0.29,1.567c-1.089,0.593-7.724,2.452-7.919-4.412c0,0,0.102-2.846,3.262-5.69
	c3.166-2.837,3.166-3.329,3.468-4.313c0.292-0.976,2.67-1.568,2.67-1.568"/>
<path fill="#6FA607" d="M58.399,45.715c0,0,1.586-7.25,7.224-6.862c5.641,0.396,5.443,2.549,8.212,0.294"/>
<path fill="#FFFFFF" stroke="#1F191A" stroke-width="0.2614" stroke-miterlimit="10" d="M65.428,42.028
	c1.893,0,3.432,1.518,3.432,3.399c0,1.877-1.539,3.4-3.432,3.4c-1.896,0-3.43-1.523-3.43-3.4
	C61.998,43.546,63.532,42.028,65.428,42.028z"/>
<ellipse fill="#FFFFFF" stroke="#1F191A" stroke-width="0.2614" stroke-miterlimit="10" cx="77.309" cy="44.247" rx="3.428" ry="3.396"/>
<path fill="#6FA607" d="M60.181,26.7c0,0,3.864,0.684,5.641,2.154c1.781,1.473-4.752,2.549-5.441,5.59
	c-0.692,3.037-3.654,1.278-3.762-1.076C56.517,31.011,58.696,26.206,60.181,26.7z"/>
<path fill="#6FA607" d="M69.087,31.599c0,0,3.167,2.943,3.761,5.2c0.594,2.251-2.668,0.683-3.761-0.496
	c-1.088-1.17-0.396-2.446-1.289-3.229C66.91,32.288,68.098,30.815,69.087,31.599z"/>
<path fill="#6FA607" d="M52.168,39.147c0,0-1.683,2.847-0.298,4.616c1.389,1.76,3.763,0.1,3.763,0.1s0.79-1.368,0.394-2.745
	c-0.394-1.376,0.99-1.084,1.691-1.276C58.399,39.642,55.139,36.208,52.168,39.147z"/>
<path fill="#6FA607" d="M49.69,30.617c0,0-3.955,3.141-2.866,6.86c1.089,3.733,3.465-0.098,3.465-0.098s1.085-3.429,2.273-3.627
	c1.187-0.196,1.691-3.531-0.099-3.921C50.683,29.442,49.69,30.617,49.69,30.617z"/>
<path fill="#6FA607" d="M52.07,25.62c0,0-4.259-0.099-5.84,0c-1.579,0.098-1.781,4.112-1.285,4.703
	c0.492,0.59,3.66-0.29,4.353-1.573C49.991,27.478,49.69,26.107,52.07,25.62z"/>
<path fill="#6FA607" d="M35.843,28.854c0,0,3.464-1.96,4.945-1.858c1.483,0.094,1.879,4.703,0.098,5.585
	C39.105,33.461,34.557,31.501,35.843,28.854z"/>
<path fill="#6FA607" d="M31.393,35.034c0,0-2.077,1.863-1.287,4.507c0.795,2.645,3.166,4.021,4.849,3.237
	c1.683-0.784,3.262-5.1,1.585-5.001c-1.683,0.098-5.045-0.196-4.353-1.368C32.873,35.23,33.075,33.954,31.393,35.034z"/>
<path fill="#6FA607" d="M48.906,71.662c0,0-5.84,1.126-8.514,7.008c0,0,3.959,0.299,5.938-2.152
	C48.312,74.061,49.2,71.803,48.906,71.662z"/>
<path fill="#6FA607" d="M58.106,74.164c0,0,3.759,2.061,5.246,6.083c1.482,4.017-4.455-1.278-4.455-1.278
	S55.53,74.355,58.106,74.164z"/>
<path fill="#6FA607" d="M64.143,88.08c0,0-1.287,5.201-4.704,7.852c-3.412,2.646,0.249-5.104,0.742-5.397
	C60.678,90.241,62.16,91.025,64.143,88.08z"/>
<path fill="#6FA607" d="M49.597,98.968c0,0,2.962,0.302,4.544-0.392c1.586-0.693-2.471-1.762-2.86-3.038
	C50.883,94.264,48.111,96.814,49.597,98.968z"/>
<path fill="#6FA607" d="M43.262,97.499c0,0,0.398-2.845-3.562-4.505c-3.955-1.674-2.669,0.092-2.669,0.092
	S41.187,97.107,43.262,97.499z"/>
<path fill="#6FA607" d="M34.454,90.541c0,0,1.487-4.709-1.379-5.489c-2.868-0.788-0.794,3.128-0.794,3.128L34.454,90.541z"/>
<path fill="#6FA607" d="M31.687,72.691c0,0-2.576,2.645-1.183,5.293c1.383,2.646,2.67,1.67,2.866,2.846
	c0.196,1.177,0.79,1.27,1.482,1.076C34.853,81.906,31.196,73.279,31.687,72.691z"/>
<path fill="#6FA607" d="M25.748,75.24c0,0-0.2-1.376,1.287-2.357c1.487-0.979,1.684,0.396,1.585,1.178
	c-0.098,0.789-0.59,2.258-0.292,2.75c0.296,0.486,0.791,2.446,0,3.627C28.324,80.438,26.049,77.492,25.748,75.24z"/>
<path fill="#6FA607" d="M22.98,64.555c0,0,1.879-3.531,5.046-3.047c3.17,0.492,1.187,2.753,0.594,2.945
	c-0.594,0.191-4.451,3.138-4.353,4.404C24.268,68.866,22.878,65.43,22.98,64.555z"/>
<path fill="#6FA607" d="M23.6,57.095c0,0,2.943-3.921,4.72-2.745c1.781,1.176,3.068,2.645,2.273,4.022
	c-0.791,1.368-2.866-0.789-3.859-0.201c-0.987,0.593-3.754,3.334-3.958,1.865C22.584,58.562,22.841,57.194,23.6,57.095z"/>
<path fill="#6FA607" d="M22.98,46.7c0,0-0.986,6.273-0.889,7.454c0.09,1.181,4.549-2.056,4.549-2.056s2.175-1.669,3.464-0.096
	c1.287,1.573,1.979-1.473-0.298-2.845C27.534,47.78,22.98,45.715,22.98,46.7z"/>
<path fill="#6FA607" d="M26.343,38.173c0,0-2.375,4.706-2.478,5.59c-0.099,0.885,5.343,1.673,6.435,1.568
	c1.088-0.096-1.385-2.061-1.385-3.137C28.918,41.118,27.04,37.285,26.343,38.173z"/>
<circle fill="#1F191A" cx="66.218" cy="43.663" r="0.985"/>
<circle fill="#1F191A" cx="78.098" cy="42.484" r="0.978"/>
<path fill="#93D100" stroke="#70A40F" stroke-width="0.5224" stroke-miterlimit="10" d="M74.727,57.194c0,0-0.295,1.67,0.991,1.67
	c1.285,0,0.49-1.771,0.49-1.771"/>
<path fill="#93D100" stroke="#70A40F" stroke-width="0.5224" stroke-miterlimit="10" d="M80.536,56.164c0,0-0.021,1.689,1.246,1.481
	c1.269-0.2,0.2-1.811,0.2-1.811"/>
<path fill="#C8CF00" stroke="#5FAF25" stroke-width="0.4024" stroke-miterlimit="10" d="M97.634,75.174c0,0,1.83-6.641-6.098-6.04
	c-7.92,0.613-12.568,10.416-22.624,15.251c0,0,13.636,5.057,19.047,1.284C93.363,81.896,97.785,75.482,97.634,75.174z"/>
<path fill="#C8CF00" stroke="#5FAF25" stroke-width="0.4024" stroke-miterlimit="10" d="M96.871,75.402
	c0,0-9.292,5.587-10.128,11.552c-0.839,5.965-3.504,9.521-3.504,9.521S107.994,92.468,96.871,75.402z"/>
<path fill="#C8CF00" stroke="#5FAF25" stroke-width="0.4024" stroke-miterlimit="10" d="M96.645,76.083
	c0,0,1.291,6.717-6.172,13.207"/>
<path fill="#C8CF00" stroke="#5FAF25" stroke-width="0.4024" stroke-miterlimit="10" d="M96.645,74.423c0,0-7.691,0.15-11.426,2.72
	c-3.734,2.565-6.097,5.361-8.685,5.516"/>
<g id="tOvtze_1_">
</g>
<path fill="#B14B49" stroke="#B14B49" stroke-width="0.0356" stroke-miterlimit="10" d="M-229.164,256.166
	c-4.333-1.333-8,1.334-7.333,3.667"/>
<path d="M82.313,85.825c-6.818-1.163-15.121-4.917-15.121-12.955c0-8.037,7.224-12.058,15.256-12.058
	c8.033,0,17.552,3.12,17.552,14.226c0,13.062-15.525,24.959-15.525,24.959c0.135,0.104-8.573-2.485-11.139-5.183
	C73.334,94.656,80.424,89.791,82.313,85.825z M81.841,70.278c-1.282,0-2.971,0.847-2.971,2.592c0,3.384,4.591,4.547,7.155,4.547
	C87.646,75.249,87.106,70.278,81.841,70.278z"/>
</svg>
