<svg version="1.1" id="svg_0" xmlns="http://www.w3.org/2000/svg" xmlns:xlink="http://www.w3.org/1999/xlink" x="0px" y="0px"
	 width="85.04px" height="85.04px" viewBox="0 0 85.04 85.04" enable-background="new 0 0 85.04 85.04" xml:space="preserve">
<path fill="#C1E1F9" stroke="#020202" stroke-width="0.4643" stroke-linecap="round" stroke-linejoin="round" d="M34.246,60.938
	c8.487-7.299,19.048-1.658,16.765,6.287c-1.449,5.047-3.693,7.277-6.781,7.979c-3.089,0.703,9.086-2.822,9.43,1.877
	c0.23,3.123-5.869,3.527-11.139,2.197c-5.271-1.332-6.147,0.789-6.844-2.148c-0.003-4.049-3.071-3.051-3.806-3.686"/>
<path fill="none" stroke="#020202" stroke-width="0.3096" stroke-linecap="round" stroke-linejoin="round" d="M51.473,75.768
	c0.875,0.24,1.59,0.875,1.631,1.195c0.041,0.318,0.24,0.834,0.199,1.195"/>
<path fill="none" stroke="#020202" stroke-width="0.3096" stroke-linecap="round" stroke-linejoin="round" d="M50.516,76.606
	c0.877,0.238,1.594,0.877,1.633,1.191c0.039,0.318,0.24,0.838,0.199,1.197"/>
<path fill="none" stroke="#020202" stroke-width="0.3096" stroke-linecap="round" stroke-linejoin="round" d="M63.059,71.965
	c0.389,0.822,0.369,1.779,0.154,2.018c-0.219,0.24-0.48,0.727-0.779,0.93"/>
<path fill="none" stroke="#020202" stroke-width="0.3096" stroke-linecap="round" stroke-linejoin="round" d="M61.801,71.786
	c0.389,0.82,0.371,1.779,0.154,2.018c-0.217,0.236-0.479,0.723-0.777,0.926"/>
<path fill="#D4E7F9" d="M49.69,29.545c-3.598-14.857,1.525-21.4,5.344-21.538c5.168-0.186,8.34,6.831,5.768,8.229
	c-1.594,0.865-3.92-1.51-3.92-1.51S54,18.93,54.37,29.858C52.092,29.645,51.385,29.618,49.69,29.545z"/>
<path fill="#020202" d="M49.913,29.485c-1.4-6.021-2.721-14.771,2.096-19.753c2.094-2.167,5.059-1.702,7.227,0.182
	c1.23,1.07,2.092,2.708,2.242,4.328c0.281,3.01-3.256,1.479-4.434,0.322c-0.111-0.109-0.281-0.076-0.363,0.047
	c-0.955,1.434-1.393,3.287-1.768,4.932c-0.439,1.943-0.631,3.939-0.748,5.924c-0.033,0.594,0.322,4.172-0.684,4.08
	c-1.262-0.113-2.527-0.178-3.793-0.23c-0.299-0.014-0.299,0.451,0,0.465c1.564,0.064,3.121,0.17,4.682,0.311
	c0.123,0.012,0.234-0.113,0.23-0.23c-0.104-4.041,0.1-8.111,1.229-12.016c0.242-0.838,0.555-1.658,0.939-2.441
	c0.391-0.797-0.055-0.49,0.494-0.021c1.244,1.066,3.275,1.998,4.389,0.316c1.029-1.553-0.369-4.205-1.383-5.361
	c-2.662-3.033-6.807-3.489-9.316-0.103c-4.008,5.409-2.902,13.288-1.486,19.374C49.532,29.899,49.981,29.776,49.913,29.485z"/>
<path fill="#F2CDD2" stroke="#020202" stroke-width="0.3096" d="M51.512,30.151c-2.182-11.488,2.602-19.398,2.602-19.398l2.01,3.382
	c0,0-3.824,6.34-2.707,16.072C52.977,30.19,52.438,30.19,51.512,30.151z"/>
<path fill="#D4E7F9" d="M53.887,10.431c0,0,0.832,2.137,2.992,4.296"/>
<path fill="#020202" d="M53.663,10.492c0.658,1.655,1.818,3.139,3.053,4.399c0.211,0.215,0.539-0.113,0.328-0.328
	c-1.172-1.197-2.307-2.617-2.934-4.194C54,10.093,53.553,10.213,53.663,10.492L53.663,10.492z"/>
<path fill="#C1E1F9" stroke="#020202" stroke-width="0.4643" stroke-linecap="round" stroke-linejoin="round" d="M55.829,51.161
	c1.594,4.117-0.725,5.611,2.885,6.371c3.611,0.756,6.367-0.475,9.711,1.617c3.199,2,3.775,4.736,2.184,6.668
	c-0.621,0.824-3.195,0.545-4.369-0.486c-1.48-1.303-1.723-1.969-4.867-2.477c-6.826,0.914-10.35,0.145-11.428-4.195"/>
<path fill="#D4E7F9" stroke="#020202" stroke-width="0.4643" stroke-linecap="round" stroke-linejoin="round" d="M21.624,71.549
	c6.703,8.645,10.484,7.469,21.374,4.525c11.864-4.18,16.085-17.084,13.274-25.066c-2.807-7.979-9.973,0.775-24.712,3.182
	C19.12,56.217,16.468,64.899,21.624,71.549z"/>
<path fill="#D4E7F9" stroke="#020202" stroke-width="0.4643" stroke-linecap="round" stroke-linejoin="round" d="M54.745,53.301
	c1.75-0.25,3.52-0.793,5.225-1.648c7.336-3.688,12.824-11.809,9.637-18.146c-0.67-0.811-1.078-1.955-2.111-2.391
	c-0.443-0.188-1.5,1.244-4.299,0.049c-4.602-1.957-10.098-4.811-14.77-2.463c-7.335,3.688-10.696,11.813-7.51,18.152
	c1.602,3.188,4.551,5.313,8.021,6.174"/>
<path fill="#D4E7F9" stroke="#020202" stroke-width="0.4643" stroke-linecap="round" stroke-linejoin="round" d="M53.68,59.479
	c0.541,2.334,0.902,3.527,3.555,4.32c3.535,1.061,6.049,0.578,7.244,4.594c1.074,3.619,0,5.299-1.238,6.359
	c-0.883,0.531-3.012,0.334-3.709-1.061c-0.885-1.768-0.707-3.184-1.236-4.412c-6.537,1.938-11.064,0.428-11.771-3.992"/>
<ellipse transform="matrix(-0.5492 -0.8357 0.8357 -0.5492 60.2424 102.9128)" fill="#010200" stroke="#020202" stroke-width="0.3096" cx="57.879" cy="35.208" rx="1.145" ry="0.771"/>
<path fill="#F8CB68" d="M55.827,54.03c0,0,3.496-1.32,3.686-0.947c0.188,0.375-0.082,5.156-0.293,5.383
	c-0.213,0.229-3.182-2.203-3.182-2.203L55.827,54.03z"/>
<path fill="#020202" d="M55.868,54.178c1.066-0.4,2.225-0.895,3.365-1.006c0.389-0.037,0.074,3.504,0.037,3.945
	c-0.027,0.314-0.061,0.627-0.105,0.939c-0.053,0.346-0.082,0.246-0.355,0.088c-0.717-0.422-1.377-0.973-2.029-1.484
	c-0.178-0.141-0.354-0.283-0.529-0.426c-0.121-0.098-0.061-0.002-0.09-0.322c-0.061-0.627-0.119-1.256-0.178-1.883
	c-0.02-0.197-0.328-0.199-0.311,0c0.068,0.734,0.139,1.471,0.209,2.207c0.033,0.361,0.887,0.805,1.139,1
	c0.586,0.455,1.271,1.125,1.992,1.361c0.42,0.139,0.436-0.32,0.477-0.631c0.131-1.002,0.184-2.016,0.223-3.023
	c0.016-0.4,0.24-1.639-0.09-1.971c-0.328-0.334-1.219,0.045-1.566,0.143c-0.768,0.217-1.523,0.484-2.27,0.764
	C55.602,53.95,55.682,54.249,55.868,54.178z"/>
<path fill="#020202" d="M57.579,54.272c-0.533,0.213-1.064,0.428-1.6,0.643c-0.184,0.072-0.104,0.373,0.082,0.299
	c0.533-0.215,1.066-0.43,1.6-0.643C57.844,54.497,57.764,54.198,57.579,54.272L57.579,54.272z"/>
<path fill="#020202" d="M57.346,55.838c-0.512-0.125-1.02-0.252-1.529-0.379c-0.193-0.047-0.275,0.252-0.082,0.299
	c0.51,0.127,1.02,0.254,1.529,0.381C57.456,56.186,57.538,55.887,57.346,55.838L57.346,55.838z"/>
<path fill="#F8CB68" d="M54.034,54.133c0,0-3.713-1.254-3.92-0.957s-0.09,6.242,0.182,6.402c0.268,0.162,3.814-3.137,3.814-3.137
	L54.034,54.133z"/>
<path fill="#020202" d="M54.075,53.985c-0.492-0.166-3.957-1.525-4.127-0.811c-0.193,0.82-0.098,1.762-0.09,2.596
	c0.012,1.139,0.031,2.291,0.176,3.42c0.189,1.457,2.248-0.895,2.662-1.258c0.354-0.313,1.432-0.971,1.563-1.449
	c0.184-0.666-0.047-1.654-0.07-2.35c-0.006-0.199-0.314-0.199-0.309,0c0.021,0.68,0.045,1.357,0.066,2.035
	c0.01,0.33-0.369,0.555-0.768,0.914c-0.654,0.594-1.318,1.18-2,1.738c-0.25,0.205-0.504,0.404-0.781,0.57
	c-0.049,0.027-0.09-0.494-0.107-0.693c-0.156-1.674-0.193-3.404-0.09-5.082c0.041-0.684,1.578-0.02,2.035,0.113
	c0.59,0.17,1.176,0.355,1.758,0.553C54.184,54.346,54.264,54.047,54.075,53.985z"/>
<path fill="#020202" d="M52.258,54.934c0.557,0.139,1.111,0.279,1.668,0.42c0.193,0.049,0.275-0.25,0.082-0.301
	c-0.557-0.139-1.111-0.279-1.668-0.42C52.147,54.584,52.065,54.883,52.258,54.934L52.258,54.934z"/>
<path fill="#020202" d="M52.866,56.446c0.486-0.195,0.975-0.389,1.461-0.582c0.184-0.074,0.104-0.373-0.082-0.299
	c-0.486,0.193-0.975,0.387-1.461,0.582C52.602,56.219,52.68,56.52,52.866,56.446L52.866,56.446z"/>
<polygon fill="#F8CB68" points="56.038,53.823 56.077,56.696 54.071,56.833 53.567,53.991 "/>
<path fill="#020202" d="M55.883,53.823c0.014,0.959,0.025,1.916,0.039,2.873c0.053-0.051,0.104-0.104,0.154-0.154
	c-0.412,0.027-0.82,0.057-1.23,0.084c-0.215,0.016-0.432,0.029-0.646,0.045c-0.207,0.014,0.039,0.227-0.006-0.027
	c-0.158-0.896-0.318-1.795-0.477-2.691c-0.051,0.064-0.102,0.131-0.15,0.195c0.824-0.057,1.646-0.111,2.471-0.168
	c0.197-0.014,0.199-0.322,0-0.311c-0.822,0.057-1.646,0.111-2.471,0.168c-0.107,0.008-0.168,0.094-0.148,0.195
	c0.168,0.947,0.336,1.895,0.504,2.842c0.012,0.064,0.086,0.119,0.148,0.113c0.668-0.045,1.336-0.09,2.006-0.137
	c0.082-0.004,0.154-0.064,0.154-0.154c-0.014-0.957-0.025-1.914-0.039-2.873C56.19,53.624,55.881,53.622,55.883,53.823z"/>
<path fill="#D4E7F9" d="M21.307,68.952c0.008,2.76-3.898,3.26-4.356,1.576c-2.211,0.639-4.602-2.439-2.129-4.352
	c-1.666-1.961-1.411-4.443,1.432-4.717c-0.122-2.055,4.443-3.254,5.046-1.066"/>
<path fill="#070505" d="M21.099,68.952c-0.115,1.508-3.019,3.785-3.948,1.521c-0.046-0.113-0.134-0.168-0.255-0.146
	c-2.496,0.447-3.729-2.348-1.928-4.004c0.062-0.057,0.087-0.18,0.032-0.25c-1.378-1.799-1.295-3.996,1.308-4.412
	c0.094-0.016,0.147-0.115,0.152-0.201c0.108-1.883,3.846-2.996,4.638-1.014c0.099,0.246,0.499,0.139,0.399-0.109
	c-0.785-1.969-4.234-1.611-5.166,0.119c-0.365,0.684-0.335,0.781-1.195,1.049c-0.623,0.193-1.033,0.666-1.345,1.203
	c-0.692,1.207,0.978,3.008,0.419,3.76c-0.695,0.939-0.939,2.191-0.107,3.168c0.443,0.52,0.863,0.813,1.484,1.068
	c0.559,0.229,1.078-0.098,1.453,0.408c1.485,2,4.34-0.414,4.475-2.162C21.534,68.684,21.12,68.686,21.099,68.952L21.099,68.952z"/>
<path fill="#D4E7F9" d="M48.153,31.022c-5.869-15.738,0.639-27.561-3.25-28.727c-4.512-1.352-16.506,13.631-0.482,31.76"/>
<path fill="#020202" d="M48.375,30.959c-2.924-8.131-2.553-15.918-1.965-24.339c0.191-2.729-0.471-5.722-3.81-4.195
	c-3.802,1.736-5.864,6.864-6.324,10.715c-0.951,7.972,2.901,15.21,7.979,21.08c0.195,0.227,0.521-0.104,0.326-0.328
	c-4.771-5.518-8.413-12.189-7.952-19.678c0.254-4.161,2.191-9.079,5.963-11.261c4.683-2.712,3.196,5.507,3.009,7.665
	c-0.613,6.999-0.063,13.823,2.328,20.465C48.028,31.364,48.479,31.243,48.375,30.959L48.375,30.959z"/>
<path fill="#F2CDD2" stroke="#020202" stroke-width="0.3096" d="M45.799,32.506C35.528,16.659,41.482,4.89,43.715,6.037
	c1.723,0.889-3.182,10.487,3.168,25.622C46.883,31.659,46.293,32.079,45.799,32.506z"/>
<ellipse fill="#E11080" stroke="#070505" stroke-width="0.4152" stroke-linecap="round" stroke-linejoin="round" cx="67.397" cy="29.741" rx="1.434" ry="1.279"/>
<path fill="none" stroke="#020202" stroke-width="0.3096" stroke-linecap="round" stroke-linejoin="round" d="M69.364,62.805
	c0.84,0.348,1.469,1.07,1.469,1.389c0.002,0.322,0.135,0.861,0.051,1.211"/>
<path fill="none" stroke="#020202" stroke-width="0.3096" stroke-linecap="round" stroke-linejoin="round" d="M68.313,63.516
	c0.838,0.348,1.471,1.07,1.471,1.389c-0.002,0.32,0.133,0.861,0.047,1.211"/>
<path fill="#D4E7F9" stroke="#020202" stroke-width="0.4643" stroke-linecap="round" stroke-linejoin="round" d="M68.831,43.403
	c0,0-4.66,5.037-6.396-0.449"/>
<path fill="#D4E7F9" stroke="#020202" stroke-width="0.4643" stroke-linecap="round" stroke-linejoin="round" d="M27.628,63.969
	c8.493-7.299,19.054-1.656,16.769,6.287c-1.45,5.051-3.694,7.277-6.78,7.979c-3.092,0.705,9.083-2.818,9.433,1.879
	c0.229,3.125-5.871,3.527-11.144,2.195c-5.271-1.33-6.779,0.982-7.475-1.951c-0.006-4.051-2.369-4.25-3.104-4.883"/>
<path fill="none" stroke="#020202" stroke-width="0.3096" stroke-linecap="round" stroke-linejoin="round" d="M43.647,79.875
	c0.875,0.238,1.592,0.877,1.633,1.193c0.037,0.314,0.236,0.834,0.197,1.191"/>
<path fill="none" stroke="#020202" stroke-width="0.3096" stroke-linecap="round" stroke-linejoin="round" d="M44.6,79.04
	c0.877,0.238,1.594,0.871,1.631,1.193c0.041,0.316,0.24,0.836,0.201,1.191"/>
</svg>
