<?xml version="1.0" encoding="utf-8"?>
<!-- Generator: Adobe Illustrator 15.1.0, SVG Export Plug-In . SVG Version: 6.00 Build 0)  -->
<!DOCTYPE svg PUBLIC "-//W3C//DTD SVG 1.1//EN" "http://www.w3.org/Graphics/SVG/1.1/DTD/svg11.dtd">
<svg version="1.1" id="svg_0_2" xmlns="http://www.w3.org/2000/svg" xmlns:xlink="http://www.w3.org/1999/xlink" x="0px" y="0px"
	 width="85.04px" height="85.04px" viewBox="0 0 85.04 85.04" enable-background="new 0 0 85.04 85.04" xml:space="preserve">
<path id="toFill_11_" fill="#FFFFFF" stroke="#815C2D" stroke-width="0.4643" stroke-linecap="round" stroke-linejoin="round" d="
	M31.465,60.938c8.487-7.299,19.048-1.658,16.766,6.287c-1.449,5.047-3.693,7.277-6.782,7.979c-3.089,0.703,9.086-2.822,9.431,1.877
	c0.229,3.123-5.869,3.527-11.141,2.197c-5.271-1.332-6.147,0.789-6.844-2.148c-0.003-4.049-3.071-3.051-3.806-3.686"/>
<path fill="none" stroke="#815C2D" stroke-width="0.3096" stroke-linecap="round" stroke-linejoin="round" d="M48.693,75.768
	c0.875,0.24,1.59,0.875,1.631,1.195c0.041,0.318,0.24,0.834,0.199,1.195"/>
<path fill="none" stroke="#815C2D" stroke-width="0.3096" stroke-linecap="round" stroke-linejoin="round" d="M47.736,76.606
	c0.877,0.238,1.594,0.877,1.633,1.191c0.039,0.318,0.24,0.838,0.199,1.197"/>
<path fill="none" stroke="#020202" stroke-width="0.3096" stroke-linecap="round" stroke-linejoin="round" d="M60.279,71.965
	c0.389,0.822,0.369,1.779,0.154,2.018c-0.219,0.24-0.48,0.727-0.779,0.93"/>
<path fill="none" stroke="#020202" stroke-width="0.3096" stroke-linecap="round" stroke-linejoin="round" d="M59.021,71.786
	c0.389,0.82,0.371,1.779,0.154,2.021c-0.22,0.233-0.479,0.723-0.777,0.926"/>
<path id="toFill_2_" fill="#FFFFFF" d="M46.91,29.545c-3.598-14.857,1.525-21.4,5.344-21.538c5.168-0.187,8.34,6.831,5.768,8.229
	c-1.594,0.865-3.92-1.51-3.92-1.51s-2.881,4.204-2.512,15.132C49.312,29.646,48.605,29.62,46.91,29.545z"/>
<path fill="#815C2D" d="M47.132,29.485c-1.397-6.021-2.721-14.771,2.096-19.753c2.097-2.167,5.062-1.701,7.229,0.183
	c1.229,1.069,2.095,2.708,2.242,4.328c0.278,3.01-3.256,1.479-4.437,0.321c-0.108-0.108-0.278-0.076-0.36,0.047
	c-0.955,1.435-1.396,3.287-1.771,4.933c-0.438,1.942-0.631,3.938-0.748,5.924c-0.033,0.594,0.322,4.172-0.684,4.08
	c-1.262-0.113-2.527-0.178-3.793-0.23c-0.299-0.014-0.299,0.451,0,0.466c1.564,0.063,3.121,0.17,4.682,0.311
	c0.123,0.012,0.234-0.113,0.23-0.229c-0.104-4.04,0.1-8.11,1.229-12.016c0.242-0.838,0.555-1.658,0.939-2.44
	c0.391-0.798-0.055-0.49,0.494-0.021c1.244,1.066,3.275,1.998,4.389,0.316c1.029-1.554-0.369-4.205-1.383-5.361
	c-2.662-3.033-6.807-3.489-9.316-0.104c-4.008,5.409-2.902,13.288-1.486,19.374C46.751,29.899,47.201,29.776,47.132,29.485z"/>
<path id="toFill_1_" fill="#FFFFFF" stroke="#815C2D" stroke-width="0.3096" d="M48.732,30.151
	c-2.182-11.487,2.602-19.397,2.602-19.397l2.01,3.382c0,0-3.824,6.34-2.707,16.072C50.197,30.19,49.658,30.19,48.732,30.151z"/>
<path fill="#D4E7F9" d="M51.107,10.432c0,0,0.832,2.137,2.992,4.296"/>
<path fill="#815C2D" d="M50.882,10.494c0.658,1.654,1.818,3.139,3.053,4.398c0.211,0.215,0.539-0.113,0.328-0.328
	c-1.172-1.196-2.307-2.617-2.934-4.193C51.22,10.093,50.773,10.213,50.882,10.494L50.882,10.494z"/>
<path id="toFill_9_" fill="#FFFFFF" stroke="#815C2D" stroke-width="0.4643" stroke-linecap="round" stroke-linejoin="round" d="
	M53.048,51.161c1.594,4.117-0.725,5.611,2.885,6.371c3.611,0.756,6.367-0.475,9.711,1.617c3.199,2,3.775,4.736,2.187,6.668
	c-0.62,0.824-3.192,0.545-4.366-0.486c-1.48-1.303-1.726-1.969-4.867-2.477c-6.826,0.914-10.353,0.145-11.431-4.195"/>
<path id="toFill_8_" fill="#FFFFFF" stroke="#815C2D" stroke-width="0.4643" stroke-linecap="round" stroke-linejoin="round" d="
	M18.843,71.549c6.703,8.645,10.484,7.469,21.374,4.525c11.865-4.183,16.085-17.084,13.275-25.066
	c-2.807-7.979-9.973,0.775-24.713,3.182C16.339,56.217,13.687,64.899,18.843,71.549z"/>
<path id="toFill_4_" fill="#FFFFFF" stroke="#815C2D" stroke-width="0.4643" stroke-linecap="round" stroke-linejoin="round" d="
	M51.964,53.301c1.75-0.25,3.521-0.793,5.228-1.648c7.336-3.688,12.821-11.809,9.637-18.146c-0.67-0.812-1.078-1.955-2.108-2.391
	c-0.443-0.188-1.5,1.243-4.301,0.049c-4.603-1.957-10.099-4.812-14.771-2.463c-7.334,3.688-10.695,11.813-7.509,18.15
	c1.602,3.188,4.549,5.313,8.022,6.174"/>
<path id="toFill_10_" fill="#FFFFFF" stroke="#815C2D" stroke-width="0.4643" stroke-linecap="round" stroke-linejoin="round" d="
	M50.9,59.479c0.541,2.334,0.902,3.527,3.555,4.32c3.535,1.061,6.049,0.578,7.244,4.594c1.074,3.619,0,5.299-1.238,6.359
	c-0.883,0.531-3.012,0.334-3.709-1.063c-0.885-1.771-0.707-3.187-1.236-4.412c-6.537,1.938-11.063,0.431-11.771-3.989"/>
<ellipse transform="matrix(0.8357 -0.5491 0.5491 0.8357 -10.2828 36.0414)" fill="#815C2D" stroke="#815C2D" stroke-width="0.3096" cx="55.102" cy="35.208" rx="0.77" ry="1.146"/>
<path id="toFill_7_" fill="#FFFFFF" d="M53.046,54.03c0,0,3.496-1.32,3.688-0.947c0.188,0.375-0.082,5.156-0.293,5.383
	c-0.216,0.229-3.185-2.2-3.185-2.2L53.046,54.03z"/>
<path fill="#815C2D" d="M53.087,54.178c1.066-0.4,2.225-0.895,3.365-1.006c0.389-0.037,0.074,3.504,0.037,3.945
	c-0.027,0.313-0.061,0.627-0.105,0.938c-0.053,0.346-0.082,0.244-0.354,0.088c-0.719-0.422-1.377-0.975-2.027-1.482
	c-0.18-0.143-0.354-0.283-0.529-0.428c-0.121-0.1-0.063-0.002-0.09-0.32c-0.063-0.627-0.119-1.256-0.18-1.885
	c-0.021-0.195-0.326-0.197-0.313,0c0.068,0.734,0.141,1.473,0.209,2.207c0.033,0.361,0.889,0.807,1.141,1
	c0.586,0.455,1.271,1.125,1.992,1.361c0.42,0.139,0.438-0.32,0.479-0.633c0.131-1.002,0.184-2.016,0.223-3.021
	c0.017-0.398,0.24-1.639-0.09-1.971c-0.328-0.334-1.221,0.045-1.565,0.145c-0.769,0.217-1.522,0.482-2.271,0.764
	C52.822,53.95,52.902,54.249,53.087,54.178z"/>
<path fill="#815C2D" d="M54.798,54.272c-0.533,0.213-1.063,0.428-1.6,0.643c-0.184,0.072-0.104,0.373,0.082,0.299
	c0.533-0.215,1.066-0.43,1.6-0.643C55.064,54.497,54.984,54.198,54.798,54.272L54.798,54.272z"/>
<path fill="#815C2D" d="M54.566,55.838c-0.512-0.125-1.02-0.252-1.529-0.379c-0.193-0.047-0.275,0.252-0.082,0.299
	c0.51,0.127,1.02,0.254,1.529,0.381C54.675,56.186,54.757,55.887,54.566,55.838L54.566,55.838z"/>
<path id="toFill_6_" fill="#FFFFFF" d="M51.253,54.133c0,0-3.713-1.254-3.92-0.957s-0.09,6.242,0.182,6.402
	c0.271,0.162,3.814-3.14,3.814-3.14L51.253,54.133z"/>
<path fill="#815C2D" d="M51.294,53.985c-0.492-0.166-3.957-1.525-4.127-0.811c-0.193,0.82-0.098,1.762-0.09,2.596
	c0.012,1.139,0.031,2.291,0.176,3.42c0.189,1.457,2.248-0.895,2.662-1.258c0.354-0.313,1.432-0.971,1.563-1.449
	c0.187-0.666-0.047-1.654-0.067-2.35c-0.006-0.199-0.313-0.199-0.312,0c0.021,0.68,0.045,1.357,0.066,2.035
	c0.01,0.33-0.369,0.555-0.768,0.914c-0.654,0.594-1.318,1.18-2,1.735c-0.25,0.205-0.504,0.404-0.781,0.57
	c-0.049,0.024-0.09-0.494-0.107-0.69c-0.156-1.677-0.19-3.404-0.09-5.082c0.041-0.687,1.578-0.021,2.035,0.11
	c0.59,0.17,1.176,0.354,1.758,0.556C51.404,54.346,51.484,54.047,51.294,53.985z"/>
<path fill="#815C2D" d="M49.478,54.934c0.557,0.139,1.111,0.279,1.668,0.42c0.193,0.049,0.275-0.25,0.082-0.301
	c-0.557-0.139-1.111-0.279-1.668-0.42C49.367,54.584,49.285,54.883,49.478,54.934L49.478,54.934z"/>
<path fill="#815C2D" d="M50.085,56.446c0.486-0.195,0.975-0.389,1.461-0.582c0.187-0.074,0.104-0.373-0.082-0.299
	c-0.486,0.193-0.975,0.387-1.461,0.582C49.822,56.219,49.9,56.52,50.085,56.446L50.085,56.446z"/>
<polygon id="tie" fill="#FFFFFF" points="53.257,53.823 53.296,56.696 51.291,56.833 50.787,53.991 "/>
<path fill="#815C2D" d="M53.103,53.823c0.014,0.959,0.025,1.916,0.039,2.873c0.053-0.051,0.104-0.104,0.154-0.154
	c-0.412,0.027-0.82,0.06-1.23,0.084c-0.215,0.019-0.432,0.029-0.646,0.045c-0.207,0.017,0.039,0.229-0.006-0.024
	c-0.158-0.896-0.318-1.795-0.477-2.688c-0.051,0.063-0.102,0.131-0.15,0.192c0.824-0.06,1.646-0.108,2.471-0.168
	c0.197-0.017,0.199-0.319,0-0.313c-0.822,0.06-1.646,0.111-2.471,0.168c-0.107,0.008-0.168,0.097-0.148,0.195
	c0.168,0.947,0.336,1.895,0.504,2.842c0.015,0.064,0.086,0.119,0.148,0.113c0.668-0.045,1.336-0.09,2.006-0.137
	c0.082-0.004,0.154-0.064,0.154-0.154c-0.014-0.957-0.025-1.914-0.039-2.873C53.41,53.624,53.101,53.622,53.103,53.823z"/>
<path id="toFill_3_" fill="#FFFFFF" d="M45.373,31.022c-5.87-15.737,0.639-27.561-3.251-28.727
	c-4.512-1.353-16.506,13.631-0.482,31.76"/>
<path fill="#815C2D" d="M45.595,30.959C42.67,22.829,43.04,15.042,43.63,6.621c0.188-2.729-0.474-5.723-3.813-4.195
	c-3.802,1.736-5.864,6.864-6.324,10.715c-0.951,7.972,2.901,15.21,7.979,21.08c0.195,0.229,0.521-0.104,0.326-0.328
	c-4.771-5.518-8.414-12.188-7.953-19.678c0.254-4.161,2.191-9.079,5.963-11.261c4.684-2.712,3.197,5.507,3.009,7.665
	c-0.613,6.999-0.063,13.822,2.329,20.465C45.248,31.366,45.699,31.245,45.595,30.959L45.595,30.959z"/>
<path id="toFill" fill="#FFFFFF" stroke="#815C2D" stroke-width="0.3096" d="M43.018,32.506
	C32.747,16.661,38.701,4.891,40.935,6.039c1.722,0.889-3.183,10.486,3.168,25.622C44.103,31.661,43.513,32.081,43.018,32.506z"/>
<ellipse id="toFill_5_" fill="#FFFFFF" stroke="#815C2D" stroke-width="0.4152" stroke-linecap="round" stroke-linejoin="round" cx="64.617" cy="29.741" rx="1.434" ry="1.279"/>
<path fill="none" stroke="#815C2D" stroke-width="0.3096" stroke-linecap="round" stroke-linejoin="round" d="M66.583,62.805
	c0.84,0.348,1.469,1.07,1.469,1.389c0.002,0.322,0.135,0.861,0.051,1.211"/>
<path fill="none" stroke="#815C2D" stroke-width="0.3096" stroke-linecap="round" stroke-linejoin="round" d="M65.533,63.516
	c0.838,0.348,1.471,1.07,1.471,1.389c-0.002,0.32,0.133,0.861,0.047,1.211"/>
<path id="smile" fill="#FFFFFF" stroke="#815C2D" stroke-width="0.4643" stroke-linecap="round" stroke-linejoin="round" d="
	M66.05,43.403c0,0-4.66,5.037-6.396-0.449"/>
<path id="toFill_12_" fill="#FFFFFF" stroke="#815C2D" stroke-width="0.4643" stroke-linecap="round" stroke-linejoin="round" d="
	M24.847,63.969c8.493-7.299,19.055-1.656,16.77,6.287c-1.451,5.051-3.694,7.277-6.78,7.979c-3.092,0.705,9.083-2.818,9.433,1.879
	c0.229,3.125-5.871,3.527-11.146,2.195c-5.271-1.33-6.779,0.982-7.475-1.951c-0.006-4.051-2.369-4.25-3.104-4.883"/>
<path fill="none" stroke="#815C2D" stroke-width="0.3096" stroke-linecap="round" stroke-linejoin="round" d="M40.866,79.875
	c0.875,0.235,1.591,0.877,1.632,1.19c0.037,0.313,0.236,0.834,0.197,1.188"/>
<path fill="none" stroke="#815C2D" stroke-width="0.3096" stroke-linecap="round" stroke-linejoin="round" d="M41.819,79.04
	c0.876,0.238,1.594,0.871,1.631,1.193c0.041,0.316,0.24,0.836,0.201,1.191"/>
</svg>
