<svg version="1.1" id="svg_0_v" valid="1" xmlns="http://www.w3.org/2000/svg" xmlns:xlink="http://www.w3.org/1999/xlink" x="0px" y="0px" width="85.04px" height="85.04px" viewBox="0 0 85.04 85.04" enable-background="new 0 0 85.04 85.04" xml:space="preserve">
	<path fill="#FFFFFF" toFill="#C1E1F9" stroke="#815C2D" stroke-width="0.4643" stroke-linecap="round" stroke-linejoin="round" d="M34.246,60.938c8.487-7.299,19.047-1.658,16.765,6.287c-1.449,5.047-3.693,7.277-6.781,7.979c-3.089,0.703,9.086-2.822,9.431,1.877 c0.229,3.123-5.869,3.527-11.14,2.197c-5.271-1.332-6.147,0.789-6.844-2.148c-0.003-4.049-3.071-3.051-3.806-3.686" />
	<path fill="none" stroke="#815C2D" stroke-width="0.3096" stroke-linecap="round" stroke-linejoin="round" d="M51.473,75.768 c0.875,0.24,1.59,0.875,1.631,1.195c0.041,0.318,0.24,0.834,0.199,1.195"/>
	<path fill="none" stroke="#815C2D" stroke-width="0.3096" stroke-linecap="round" stroke-linejoin="round" d="M50.516,76.606 c0.877,0.238,1.594,0.877,1.633,1.191c0.039,0.318,0.24,0.838,0.199,1.197"/>
	<path fill="none" stroke="#020202" stroke-width="0.3096" stroke-linecap="round" stroke-linejoin="round" d="M63.059,71.965 c0.389,0.822,0.369,1.779,0.154,2.018c-0.219,0.24-0.48,0.727-0.779,0.93"/>
	<path fill="none" stroke="#020202" stroke-width="0.3096" stroke-linecap="round" stroke-linejoin="round" d="M61.801,71.786 c0.389,0.82,0.371,1.779,0.154,2.019c-0.218,0.235-0.479,0.723-0.777,0.926"/>
	<path fill="#FFFFFF" toFill="#D4E7F9" d="M49.69,29.545c-3.598-14.857,1.525-21.4,5.344-21.538c5.168-0.187,8.34,6.831,5.768,8.229 c-1.594,0.865-3.92-1.51-3.92-1.51S54,18.93,54.37,29.858C52.092,29.645,51.385,29.619,49.69,29.545z"/>
	<path fill="#815C2D" d="M49.913,29.485c-1.399-6.021-2.721-14.771,2.096-19.753c2.095-2.167,5.06-1.701,7.228,0.183 c1.229,1.069,2.093,2.708,2.242,4.328c0.28,3.01-3.256,1.479-4.435,0.321c-0.11-0.108-0.28-0.076-0.362,0.047 c-0.955,1.435-1.394,3.287-1.769,4.933c-0.438,1.942-0.631,3.938-0.748,5.924c-0.033,0.594,0.322,4.172-0.684,4.08 c-1.262-0.113-2.527-0.178-3.793-0.23c-0.299-0.014-0.299,0.451,0,0.466c1.564,0.063,3.121,0.17,4.682,0.311 c0.123,0.012,0.234-0.113,0.23-0.23c-0.104-4.04,0.1-8.11,1.229-12.016c0.242-0.838,0.555-1.658,0.939-2.44 c0.391-0.798-0.055-0.49,0.494-0.021c1.244,1.066,3.275,1.998,4.389,0.316c1.029-1.554-0.369-4.205-1.383-5.361 c-2.662-3.033-6.807-3.489-9.316-0.104c-4.008,5.409-2.902,13.288-1.486,19.374C49.532,29.899,49.981,29.776,49.913,29.485z"/>
	<path fill="#FFFFFF" toFill="#F2CDD2" stroke="#815C2D" stroke-width="0.3096" d="M51.512,30.151 c-2.182-11.487,2.602-19.397,2.602-19.397l2.01,3.382c0,0-3.824,6.34-2.707,16.072C52.977,30.19,52.438,30.19,51.512,30.151z"/>
	<path fill="#FFFFFF" toFill="#D4E7F9" d="M53.887,10.431c0,0,0.832,2.137,2.992,4.296"/>
	<path fill="#815C2D" d="M53.663,10.493c0.658,1.654,1.818,3.139,3.053,4.398c0.211,0.215,0.539-0.113,0.328-0.328 c-1.172-1.196-2.307-2.617-2.934-4.193C54,10.093,53.553,10.213,53.663,10.493L53.663,10.493z"/>
	<path fill="#FFFFFF" toFill="#C1E1F9" stroke="#815C2D" stroke-width="0.4643" stroke-linecap="round" stroke-linejoin="round" d="M55.829,51.161c1.594,4.117-0.725,5.611,2.885,6.371c3.611,0.756,6.367-0.475,9.711,1.617c3.199,2,3.775,4.736,2.185,6.668 c-0.621,0.824-3.194,0.545-4.368-0.486c-1.48-1.303-1.724-1.969-4.867-2.477c-6.826,0.914-10.351,0.145-11.429-4.195"/>
	<path fill="#FFFFFF" toFill="#D4E7F9" stroke="#815C2D" stroke-width="0.4643" stroke-linecap="round" stroke-linejoin="round" d="M21.624,71.549c6.703,8.645,10.484,7.469,21.374,4.525c11.864-4.181,16.084-17.084,13.274-25.066 c-2.807-7.979-9.973,0.775-24.712,3.182C19.12,56.217,16.468,64.899,21.624,71.549z"/>
	<path fill="#FFFFFF" toFill="#D4E7F9" stroke="#815C2D" stroke-width="0.4643" stroke-linecap="round" stroke-linejoin="round" d="M54.745,53.301c1.75-0.25,3.521-0.793,5.226-1.648c7.336-3.688,12.823-11.809,9.637-18.146c-0.67-0.812-1.078-1.955-2.11-2.391 c-0.443-0.188-1.5,1.243-4.3,0.049c-4.602-1.957-10.098-4.812-14.771-2.463c-7.334,3.688-10.695,11.813-7.509,18.151 c1.602,3.188,4.55,5.313,8.021,6.174"/>
	<path fill="#FFFFFF" toFill="#D4E7F9" stroke="#815C2D" stroke-width="0.4643" stroke-linecap="round" stroke-linejoin="round" d="M53.68,59.479c0.541,2.334,0.902,3.527,3.555,4.32c3.535,1.061,6.049,0.578,7.244,4.594c1.074,3.619,0,5.299-1.238,6.359 c-0.883,0.531-3.012,0.334-3.709-1.062c-0.885-1.769-0.707-3.185-1.236-4.412c-6.537,1.938-11.063,0.429-11.771-3.991"/>
	<ellipse transform="matrix(-0.8356 0.5493 -0.5493 -0.8356 125.5833 32.8357)" fill="#815C2D" stroke="#815C2D" stroke-width="0.3096" cx="57.879" cy="35.207" rx="0.771" ry="1.145"/>
	<path fill="#FFFFFF" toFill="#F8CB68" d="M55.827,54.03c0,0,3.496-1.32,3.687-0.947c0.188,0.375-0.082,5.156-0.293,5.383 c-0.214,0.229-3.183-2.202-3.183-2.202L55.827,54.03z"/>
	<path fill="#815C2D" d="M55.868,54.178c1.066-0.4,2.225-0.895,3.365-1.006c0.389-0.037,0.074,3.504,0.037,3.945 c-0.027,0.313-0.061,0.627-0.105,0.938c-0.053,0.346-0.082,0.245-0.354,0.088c-0.718-0.422-1.377-0.974-2.028-1.483 c-0.179-0.142-0.355-0.283-0.529-0.427c-0.121-0.099-0.062-0.002-0.09-0.321c-0.062-0.627-0.119-1.256-0.179-1.884 c-0.021-0.196-0.327-0.198-0.312,0c0.068,0.734,0.14,1.472,0.209,2.207c0.033,0.361,0.888,0.806,1.14,1 c0.586,0.455,1.271,1.125,1.992,1.361c0.42,0.139,0.437-0.32,0.478-0.632c0.131-1.002,0.184-2.016,0.223-3.022 c0.016-0.399,0.24-1.639-0.09-1.971c-0.328-0.334-1.22,0.045-1.566,0.144c-0.768,0.217-1.523,0.483-2.27,0.764 C55.602,53.95,55.682,54.249,55.868,54.178z"/>
	<path fill="#815C2D" d="M57.579,54.272c-0.533,0.213-1.063,0.428-1.6,0.643c-0.184,0.072-0.104,0.373,0.082,0.299 c0.533-0.215,1.066-0.43,1.6-0.643C57.844,54.497,57.764,54.198,57.579,54.272L57.579,54.272z"/>
	<path fill="#815C2D" d="M57.346,55.838c-0.512-0.125-1.02-0.252-1.529-0.379c-0.193-0.047-0.275,0.252-0.082,0.299 c0.51,0.127,1.02,0.254,1.529,0.381C57.456,56.186,57.538,55.887,57.346,55.838L57.346,55.838z"/>
	<path fill="#FFFFFF" toFill="#F8CB68" d="M54.034,54.133c0,0-3.713-1.254-3.92-0.957s-0.09,6.242,0.182,6.402 c0.269,0.162,3.814-3.138,3.814-3.138L54.034,54.133z"/>
	<path fill="#815C2D" d="M54.075,53.985c-0.492-0.166-3.957-1.525-4.127-0.811c-0.193,0.82-0.098,1.762-0.09,2.596 c0.012,1.139,0.031,2.291,0.176,3.42c0.189,1.457,2.248-0.895,2.662-1.258c0.354-0.313,1.432-0.971,1.563-1.449 c0.185-0.666-0.047-1.654-0.069-2.35c-0.006-0.199-0.313-0.199-0.31,0c0.021,0.68,0.045,1.357,0.066,2.035 c0.01,0.33-0.369,0.555-0.768,0.914c-0.654,0.594-1.318,1.18-2,1.737c-0.25,0.205-0.504,0.404-0.781,0.57 c-0.049,0.026-0.09-0.494-0.107-0.692c-0.156-1.675-0.192-3.404-0.09-5.082c0.041-0.685,1.578-0.021,2.035,0.112 c0.59,0.17,1.176,0.354,1.758,0.554C54.184,54.346,54.264,54.047,54.075,53.985z"/>
	<path fill="#815C2D" d="M52.258,54.934c0.557,0.139,1.111,0.279,1.668,0.42c0.193,0.049,0.275-0.25,0.082-0.301 c-0.557-0.139-1.111-0.279-1.668-0.42C52.147,54.584,52.065,54.883,52.258,54.934L52.258,54.934z"/>
	<path fill="#815C2D" d="M52.866,56.446c0.486-0.195,0.975-0.389,1.461-0.582c0.185-0.074,0.104-0.373-0.082-0.299 c-0.486,0.193-0.975,0.387-1.461,0.582C52.602,56.219,52.68,56.52,52.866,56.446L52.866,56.446z"/>
	<polygon fill="#FFFFFF" toFill="#F8CB68" points="56.038,53.823 56.077,56.696 54.071,56.833 53.567,53.991 "/>
	<path fill="#815C2D" d="M55.883,53.823c0.014,0.959,0.025,1.916,0.039,2.873c0.053-0.051,0.104-0.104,0.154-0.154 c-0.412,0.027-0.82,0.058-1.23,0.084c-0.215,0.017-0.432,0.029-0.646,0.045c-0.207,0.015,0.039,0.228-0.006-0.026 c-0.158-0.896-0.318-1.795-0.477-2.69c-0.051,0.063-0.102,0.131-0.15,0.194c0.824-0.058,1.646-0.11,2.471-0.168 c0.197-0.015,0.199-0.321,0-0.312c-0.822,0.058-1.646,0.111-2.471,0.168c-0.107,0.008-0.168,0.095-0.148,0.195 c0.168,0.947,0.336,1.895,0.504,2.842c0.013,0.064,0.086,0.119,0.148,0.113c0.668-0.045,1.336-0.09,2.006-0.137 c0.082-0.004,0.154-0.064,0.154-0.154c-0.014-0.957-0.025-1.914-0.039-2.873C56.19,53.624,55.881,53.622,55.883,53.823z"/>
	<path fill="#FFFFFF" toFill="#D4E7F9" d="M21.307,68.952c0.008,2.76-3.898,3.26-4.356,1.576c-2.211,0.639-4.602-2.439-2.129-4.352 c-1.666-1.961-1.411-4.443,1.432-4.717c-0.122-2.056,4.443-3.254,5.046-1.066"/>
	<path fill="#815C2D" d="M21.099,68.952c-0.115,1.508-3.019,3.785-3.948,1.521c-0.046-0.113-0.134-0.168-0.255-0.146 c-2.496,0.447-3.729-2.348-1.928-4.004c0.062-0.057,0.087-0.18,0.032-0.25c-1.378-1.799-1.295-3.996,1.308-4.412 c0.094-0.016,0.147-0.115,0.152-0.201c0.108-1.883,3.846-2.996,4.638-1.014c0.099,0.246,0.499,0.139,0.399-0.109 c-0.785-1.969-4.234-1.61-5.166,0.119c-0.365,0.685-0.335,0.781-1.195,1.049c-0.623,0.193-1.033,0.666-1.345,1.203 c-0.692,1.207,0.978,3.008,0.419,3.76c-0.695,0.939-0.939,2.191-0.107,3.168c0.443,0.521,0.863,0.814,1.484,1.068 c0.559,0.229,1.078-0.098,1.453,0.408c1.485,2,4.34-0.414,4.475-2.162C21.534,68.684,21.12,68.686,21.099,68.952L21.099,68.952z"/>
	<path fill="#FFFFFF" toFill="#D4E7F9" d="M48.153,31.022c-5.869-15.737,0.639-27.561-3.25-28.727 c-4.512-1.353-16.506,13.631-0.482,31.76"/>
	<path fill="#815C2D" d="M48.375,30.959c-2.924-8.131-2.554-15.918-1.965-24.339c0.19-2.729-0.472-5.723-3.811-4.195 c-3.802,1.736-5.864,6.864-6.324,10.715c-0.951,7.972,2.901,15.21,7.979,21.08c0.195,0.228,0.521-0.104,0.326-0.328 c-4.771-5.518-8.413-12.188-7.952-19.678c0.254-4.161,2.191-9.079,5.963-11.261c4.683-2.712,3.196,5.507,3.009,7.665 c-0.613,6.999-0.063,13.822,2.328,20.465C48.028,31.365,48.479,31.244,48.375,30.959L48.375,30.959z"/>
	<path fill="#FFFFFF" toFill="#F2CDD2" stroke="#815C2D" stroke-width="0.3096" d="M45.799,32.506C35.528,16.66,41.482,4.89,43.715,6.038 c1.723,0.889-3.182,10.486,3.168,25.622C46.883,31.66,46.293,32.08,45.799,32.506z"/>
	<ellipse fill="#FFFFFF" toFill="#E11080" stroke="#815C2D" stroke-width="0.4152" stroke-linecap="round" stroke-linejoin="round" cx="67.397" cy="29.741" rx="1.434" ry="1.279"/>
	<path fill="none" stroke="#815C2D" stroke-width="0.3096" stroke-linecap="round" stroke-linejoin="round" d="M69.364,62.805 c0.84,0.348,1.469,1.07,1.469,1.389c0.002,0.322,0.135,0.861,0.051,1.211"/>
	<path fill="none" stroke="#815C2D" stroke-width="0.3096" stroke-linecap="round" stroke-linejoin="round" d="M68.313,63.516 c0.838,0.348,1.471,1.07,1.471,1.389c-0.002,0.32,0.133,0.861,0.047,1.211"/>
	<path fill="#FFFFFF" toFill="#D4E7F9" stroke="#815C2D" stroke-width="0.4643" stroke-linecap="round" stroke-linejoin="round" d="M68.831,43.403 c0,0-4.66,5.037-6.396-0.449"/>
	<path fill="#FFFFFF" toFill="#D4E7F9" stroke="#815C2D" stroke-width="0.4643" stroke-linecap="round" stroke-linejoin="round" d="M27.628,63.969c8.493-7.299,19.054-1.656,16.769,6.287c-1.45,5.051-3.694,7.277-6.78,7.979c-3.092,0.705,9.083-2.818,9.432,1.879 c0.229,3.125-5.87,3.527-11.144,2.195c-5.271-1.33-6.779,0.982-7.475-1.951c-0.006-4.051-2.369-4.25-3.104-4.883"/>
	<path fill="none" stroke="#815C2D" stroke-width="0.3096" stroke-linecap="round" stroke-linejoin="round" d="M43.647,79.875 c0.875,0.237,1.592,0.877,1.633,1.192c0.037,0.313,0.236,0.834,0.197,1.19"/>
	<path fill="none" stroke="#815C2D" stroke-width="0.3096" stroke-linecap="round" stroke-linejoin="round" d="M44.6,79.04 c0.877,0.238,1.594,0.871,1.631,1.193c0.041,0.316,0.24,0.836,0.201,1.191"/>
	
	<g id="clickMark_0_v" class="none">
		<path fill="#FFFFFF" d="M83.978,42.521c0,22.892-18.561,41.454-41.459,41.454c-22.895,0-41.457-18.562-41.457-41.454 c0-22.899,18.562-41.457,41.457-41.457C65.417,1.064,83.978,19.623,83.978,42.521z" />
		<path fill="none" stroke="#000000" stroke-width="0.9447" d="M42.519,73.262c16.982,0,30.749-13.76,30.749-30.741 c0-16.98-13.767-30.74-30.749-30.74c-16.981,0-30.745,13.76-30.745,30.74C11.772,59.502,25.537,73.262,42.519,73.262z" />
		<path fill="#D7DF23" stroke="#000000" stroke-width="0.8879" d="M42.519,73.262c16.982,0,30.749-13.76,30.749-30.741 c0-16.98-13.767-30.74-30.749-30.74c-16.981,0-30.745,13.76-30.745,30.74C11.772,59.502,25.537,73.262,42.519,73.262" />
		<path fill="#009444" d="M61.976,26.239c0,0.923-0.524,1.787-1.572,2.587c-1.356,1.11-2.188,1.91-2.495,2.403L43.209,54.614 c-1.108,1.972-2.188,3.943-3.236,5.912c-1.724,2.527-3.481,3.789-5.268,3.789c-0.8,0-1.617-0.229-2.447-0.692 c-0.833-0.459-1.312-1.338-1.435-2.634c-0.246-1.786-0.493-2.926-0.739-3.418l-4.621-9.43c-0.185-0.369-1.017-1.416-2.496-3.143 c-0.864-1.109-1.202-2.277-1.015-3.511c0.185-1.54,0.891-2.895,2.126-4.066c1.229-1.17,2.555-1.755,3.972-1.755 c0.616,0,1.234,0.122,1.849,0.368c0.309,0.125,0.741,0.958,1.294,2.496c0.74,2.095,1.265,3.482,1.572,4.159l3.326,6.192 l13.405-21.719c0.678-1.293,1.354-2.618,2.035-3.975c0.983-1.355,2.187-2.033,3.604-2.033c1.537,0,3.064,0.555,4.574,1.666 C61.218,23.93,61.976,25.067,61.976,26.239z" />
	</g>
</svg>
