<svg version="1.1" id="svg_1" xmlns="http://www.w3.org/2000/svg" xmlns:xlink="http://www.w3.org/1999/xlink" x="0px" y="0px"
	 width="85.04px" height="85.04px" viewBox="0 0 85.04 85.04" enable-background="new 0 0 85.04 85.04" xml:space="preserve">
<path fill="#DBECED" d="M77.28,28.399c-0.023-0.705-0.098-1.422-0.229-2.145c-0.346-1.953-1.029-3.518-1.891-4.73
	c-0.857-1.213-1.869-2.051-2.768-2.664c-2.371-1.615-4.621-1.939-5.586-2.012c-5.031-0.777-9.041,0.896-11.781,0.734
	c-3.332-0.193-2.771-3.094-2.771-3.094s-0.021,0.014-0.051,0.027c0.844-3.463,1.984-5.426,2.438-6.102
	c0.127-0.09,0.193-0.184,0.193-0.277c0-1.072-8.605-1.941-19.218-1.941c-7.902,0-14.688,0.48-17.643,1.172
	c-3.729,0.791-4.412,1.852-4.412,1.852c3.493,0.764,4.867,3.316,5.395,4.893c0.441,1.713,0.818,3.816,0.99,6.344
	c0.589,8.605,0.099,12.811-4.792,19.656c-4.892,6.846-8.29,12.357-7.199,21.441c1.139,9.492,10.45,15.496,10.987,15.836
	c0,0.006-0.006,0.012-0.006,0.02c0,0.791,7.465,1.436,16.68,1.436c9.21,0,16.679-0.645,16.679-1.436c0,0,9.84-6.078,11.01-15.855
	c1.094-9.084-2.311-14.596-7.195-21.439c-2.262-3.164-3.584-5.766-4.289-8.496c-0.682-3.408,0.229-7.645,5.959-10.066
	c3.064-1.299,6.061-1.322,8.199-1.061c0.137,0.037,0.297,0.063,0.5,0.072c1.115,0.17,1.936,0.398,2.334,0.525
	c0.494,0.193,1.021,0.459,1.547,0.822c0.668,0.461,1.264,0.967,1.779,1.693c0.514,0.729,0.967,1.695,1.234,3.18
	c0.1,0.539,0.154,1.078,0.172,1.615c0.166,3.928-1.715,7.855-3.752,10.766c-1.01,1.455-2.039,2.65-2.809,3.475
	c-0.385,0.412-0.703,0.73-0.924,0.939c-0.105,0.105-0.193,0.188-0.248,0.238s-0.072,0.066-0.072,0.066
	c-0.754,0.672-0.801,1.852-0.098,2.635c0.385,0.428,0.912,0.646,1.438,0.646c0.434,0,0.857-0.148,1.199-0.453
	c0.066-0.061,2.34-2.082,4.605-5.342C75.137,38.112,77.458,33.59,77.28,28.399z"/>
<path fill="#C5E0E2" d="M52.684,17.583c0.521,0.031,1.09-0.006,1.707-0.076c-2.619-0.51-2.137-3.018-2.137-3.018
	s-0.021,0.014-0.051,0.029c0.844-3.463,1.984-5.426,2.438-6.102c0.127-0.09,0.193-0.184,0.193-0.277c0-0.33-0.816-0.641-2.256-0.914
	c-0.486,0.789-1.896,3.922-2.721,7.293c0.033-0.016,0.049-0.029,0.049-0.029S49.35,17.389,52.684,17.583z"/>
<path fill="#EBEBA5" d="M55.1,40.981c-2.846-3.955-4.408-7.121-5.07-10.834H20.975c-0.662,3.713-2.225,6.879-5.07,10.834
	c-4.68,6.506-7.937,11.736-6.895,20.365c1.091,9.023,10.004,14.727,10.52,15.049c-0.002,0.004-0.005,0.01-0.005,0.014
	c0,0.754,7.146,1.365,15.966,1.365c8.813,0,15.959-0.611,15.959-1.365c0,0,9.422-5.77,10.543-15.063
	C63.034,52.717,59.78,47.487,55.1,40.981z"/>
<path fill="#C5E0E2" d="M52.858,11.942c0,0.639-7.822,1.158-17.479,1.158s-17.482-0.52-17.482-1.158
	c0-0.643,7.826-1.162,17.482-1.162S52.858,11.299,52.858,11.942z"/>
<path fill="#AED4D4" d="M50.793,11.393c-0.133,0.369-0.256,0.748-0.375,1.141c1.547-0.176,2.439-0.375,2.439-0.592
	C52.858,11.743,52.11,11.557,50.793,11.393z"/>
<ellipse fill="#F2F3CC" cx="35.617" cy="30.098" rx="14.47" ry="1.018"/>
<path fill="#E7A1C6" d="M62.313,50.981c-5.674,0.773-15.502,1.291-26.647,1.289c-11.189,0.002-21.049-0.521-26.709-1.297
	c-0.168,0.484-0.318,0.975-0.451,1.473c5.768,0.816,15.756,1.346,27.16,1.348c11.358,0,21.321-0.527,27.097-1.338
	C62.631,51.958,62.479,51.465,62.313,50.981z M57.721,42.413c-0.32-0.469-0.646-0.939-0.988-1.414
	c-5.193,0.408-12.73,0.674-21.113,0.674c-8.367,0.002-15.896-0.26-21.092-0.672c-0.338,0.475-0.665,0.945-0.983,1.414
	c5.284,0.463,13.193,0.75,22.075,0.75C44.51,43.165,52.434,42.875,57.721,42.413z"/>
<path fill="#C5E0E2" d="M52.295,28.167c0,0.793-7.467,1.438-16.677,1.438c-9.216,0-16.681-0.645-16.681-1.438
	s7.465-1.438,16.681-1.438C44.829,26.729,52.295,27.374,52.295,28.167z"/>
<path fill="#E0E26E" d="M20.389,27.581c2.041,0.553,8.088,0.953,15.229,0.953c7.141,0,13.183-0.4,15.224-0.953
	c-2.604-0.502-8.439-0.852-15.224-0.852C28.832,26.729,22.997,27.079,20.389,27.581z"/>
<path fill="none" stroke="#799F9D" stroke-width="0.4924" stroke-linecap="round" stroke-linejoin="round" d="M48.104,11.198
	c1.32,0.115,3.133,0.334,4.754,0.744"/>
<path fill="none" stroke="#799F9D" stroke-width="0.4924" stroke-linecap="round" stroke-linejoin="round" d="M46.208,11.079
	c0,0,0.053,0.002,0.146,0.008"/>
<path fill="none" stroke="#799F9D" stroke-width="0.4924" stroke-linecap="round" stroke-linejoin="round" d="M33.266,10.786
	c0.066-0.002,0.135-0.002,0.201-0.006"/>
<path fill="none" stroke="#799F9D" stroke-width="0.4924" stroke-linecap="round" stroke-linejoin="round" d="M26.169,10.985
	c1.584-0.072,3.463-0.135,5.699-0.178"/>
<path fill="none" stroke="#799F9D" stroke-width="0.4924" stroke-linecap="round" stroke-linejoin="round" d="M17.897,11.942
	c0,0,0.66-0.494,6.323-0.848"/>
<path fill="none" stroke="#ECF3F5" stroke-width="0.4924" stroke-linecap="round" stroke-linejoin="round" d="M48.899,25.721
	c-0.09-0.586-0.133-1.23-0.119-1.947"/>
<path fill="none" stroke="#ECF3F5" stroke-width="0.4924" stroke-linecap="round" stroke-linejoin="round" d="M51.782,30.635
	c0,0-1.473-0.797-2.355-2.971"/>
<path fill="none" stroke="#ECF3F5" stroke-width="0.4924" stroke-linecap="round" stroke-linejoin="round" d="M49.407,18.772
	c0.365-1.162,1.145-2.873,2.688-3.656"/>
<path fill="none" stroke="#ECF3F5" stroke-width="0.4924" stroke-linecap="round" stroke-linejoin="round" d="M49.118,19.954
	c0,0,0.008-0.053,0.025-0.156"/>
<path fill="none" stroke="#799F9D" stroke-width="0.7575" stroke-linecap="round" stroke-linejoin="round" d="M77.28,28.399
	c-0.023-0.705-0.098-1.422-0.229-2.145c-0.346-1.953-1.029-3.518-1.891-4.73c-0.857-1.213-1.869-2.051-2.768-2.664
	c-2.371-1.615-4.621-1.939-5.586-2.012c-5.031-0.777-9.041,0.896-11.781,0.734c-3.332-0.193-2.771-3.094-2.771-3.094
	s-0.021,0.014-0.051,0.027c0.844-3.463,1.984-5.426,2.438-6.102c0.127-0.09,0.193-0.184,0.193-0.277
	c0-1.072-8.605-1.941-19.218-1.941c-7.902,0-14.688,0.48-17.643,1.172c-3.729,0.791-4.412,1.852-4.412,1.852
	c3.493,0.764,4.867,3.316,5.395,4.893c0.441,1.713,0.818,3.816,0.99,6.344c0.589,8.605,0.099,12.811-4.792,19.656
	c-4.892,6.846-8.29,12.357-7.199,21.441c1.139,9.492,10.45,15.496,10.987,15.836c0,0.006-0.006,0.012-0.006,0.02
	c0,0.791,7.465,1.436,16.68,1.436c9.21,0,16.679-0.645,16.679-1.436c0,0,9.84-6.078,11.01-15.855
	c1.094-9.084-2.311-14.596-7.195-21.439c-2.262-3.164-3.584-5.766-4.289-8.496c-0.682-3.408,0.229-7.645,5.959-10.066
	c3.064-1.299,6.061-1.322,8.199-1.061c0.137,0.037,0.297,0.063,0.5,0.072c1.115,0.17,1.936,0.398,2.334,0.525
	c0.494,0.193,1.021,0.459,1.547,0.822c0.668,0.461,1.264,0.967,1.779,1.693c0.514,0.729,0.967,1.695,1.234,3.18
	c0.1,0.539,0.154,1.078,0.172,1.615c0.166,3.928-1.715,7.855-3.752,10.766c-1.01,1.455-2.039,2.65-2.809,3.475
	c-0.385,0.412-0.703,0.73-0.924,0.939c-0.105,0.105-0.193,0.188-0.248,0.238s-0.072,0.066-0.072,0.066
	c-0.754,0.672-0.801,1.852-0.098,2.635c0.385,0.428,0.912,0.646,1.438,0.646c0.434,0,0.857-0.148,1.199-0.453
	c0.066-0.061,2.34-2.082,4.605-5.342C75.137,38.112,77.458,33.59,77.28,28.399z"/>
<path fill="none" stroke="#FFFFFF" stroke-width="1.3257" stroke-linecap="round" stroke-linejoin="round" d="M64.03,18.487
	c2.469-0.066,6.779,0.365,9.332,3.77"/>
<path fill="none" stroke="#FFFFFF" stroke-width="1.3257" stroke-linecap="round" stroke-linejoin="round" d="M62.143,18.653
	c0,0,0.084-0.014,0.236-0.035"/>
<path fill="none" stroke="#799F9D" stroke-width="0.3788" stroke-linecap="round" stroke-linejoin="round" d="M19.471,35.377
	c0,0,2.195-4.037,1.982-10.545"/>
<path fill="none" stroke="#799F9D" stroke-width="0.4924" stroke-linecap="round" stroke-linejoin="round" d="M62.038,54.676
	c0.441,2.662,0.574,6.703-1.141,11.279"/>
<path fill="none" stroke="#799F9D" stroke-width="0.4924" stroke-linecap="round" stroke-linejoin="round" d="M61.797,53.452
	c0.023,0.105,0.051,0.219,0.074,0.332"/>
<path fill="none" stroke="#799F9D" stroke-width="0.3788" stroke-linecap="round" stroke-linejoin="round" d="M30.684,28.485
	c0.139,0.004,0.277,0.004,0.421,0.006"/>
<path fill="none" stroke="#799F9D" stroke-width="0.3788" stroke-linecap="round" stroke-linejoin="round" d="M17.748,25.795
	c0.748,0.604,1.762,1.357,2.643,1.785c0,0,2.523,0.695,8.672,0.871"/>
<path fill="none" stroke="#799F9D" stroke-width="0.3788" stroke-linecap="round" stroke-linejoin="round" d="M16.677,24.883
	c0,0,0.057,0.051,0.16,0.143"/>
<path fill="none" stroke="#F4F5DD" stroke-width="1.8938" stroke-linecap="round" stroke-linejoin="round" d="M12.674,57.682
	c-0.088,2.273,0.383,5.236,2.629,7.941"/>
<path fill="none" stroke="#FFFFFF" stroke-width="1.3257" stroke-linecap="round" stroke-linejoin="round" d="M23.805,15.217
	c0,0,0.504,2.633,0.605,5.672"/>
<path fill="none" stroke="#F3F6F8" stroke-width="0.9469" stroke-linecap="round" stroke-linejoin="round" d="M17.562,9.383
	c0,0,0.966-0.367,3.186-0.629"/>
<path fill="none" stroke="#A98EC0" stroke-width="0.5681" stroke-linecap="round" stroke-linejoin="round" d="M17.56,47.122
	c0,0-0.719-1.461-0.314-2.855c0.375-1.301,2.406-1.301,2.754,2.23l0.166,0.193c0,0,1.078-0.195,2.104,0.295
	c0.947,0.451,0.77,1.484-0.104,1.955c-0.941,0.51-2.449,0.33-2.449,0.33s0.031,1.494-0.791,1.756
	c-0.821,0.262-1.434-0.93-1.146-2.086c0,0-1.144,0.188-1.879-0.246C15.167,48.262,15.33,47.014,17.56,47.122z"/>
<path fill="#FFFFFF" d="M17.56,47.122c0,0-0.719-1.461-0.314-2.855c0.375-1.301,2.406-1.301,2.754,2.23l0.166,0.193
	c0,0,1.078-0.195,2.104,0.295c0.947,0.451,0.77,1.484-0.104,1.955c-0.941,0.51-2.449,0.33-2.449,0.33s0.031,1.494-0.791,1.756
	c-0.821,0.262-1.434-0.93-1.146-2.086c0,0-1.144,0.188-1.879-0.246C15.167,48.262,15.33,47.014,17.56,47.122z"/>
<ellipse transform="matrix(-0.7138 -0.7003 0.7003 -0.7138 -1.0132 95.1924)" fill="#E7A1C6" cx="18.943" cy="47.803" rx="0.399" ry="2.116"/>
<path fill="none" stroke="#E7A1C6" stroke-width="0.1515" stroke-linecap="round" stroke-linejoin="round" d="M20.272,46.354
	c0,0,0.772-0.613,1.093-1.539c0.14-0.404,0.116-0.635,0.034-0.807c-0.104-0.223-0.348-0.309-0.522-0.279
	c-0.448,0.074-0.409,0.605-0.12,0.695c0.288,0.088,0.439-0.162,0.372-0.35"/>
<path fill="none" stroke="#E7A1C6" stroke-width="0.1515" stroke-linecap="round" stroke-linejoin="round" d="M20.35,46.34
	c0,0,0.517-0.756,1.188-0.732c0.582,0.018,0.557,0.568,0.293,0.656c-0.17,0.057-0.408-0.064-0.31-0.297"/>
<circle fill="#E7A1C6" cx="18.205" cy="44.144" r="0.294"/>
<circle fill="#E7A1C6" cx="22.055" cy="47.85" r="0.293"/>
<path fill="#E7A1C6" d="M18.955,50.325c0.008-0.102-0.068-0.191-0.172-0.201c-0.103-0.004-0.188,0.068-0.197,0.174
	c-0.008,0.098,0.067,0.191,0.171,0.197C18.857,50.504,18.946,50.426,18.955,50.325z"/>
<circle fill="#E7A1C6" cx="16.371" cy="48.127" r="0.184"/>
<path fill="none" stroke="#A98EC0" stroke-width="0.5681" stroke-linecap="round" stroke-linejoin="round" d="M34.048,47.602
	c0,0-0.719-1.465-0.316-2.855c0.377-1.303,2.408-1.303,2.756,2.225l0.165,0.197c0,0,1.077-0.197,2.104,0.293
	c0.949,0.449,0.77,1.48-0.104,1.957c-0.942,0.51-2.445,0.33-2.445,0.33s0.031,1.492-0.79,1.756c-0.824,0.26-1.437-0.932-1.148-2.086
	c0,0-1.144,0.189-1.877-0.246C31.651,48.741,31.813,47.493,34.048,47.602z"/>
<path fill="#FFFFFF" d="M34.048,47.602c0,0-0.719-1.465-0.316-2.855c0.377-1.303,2.408-1.303,2.756,2.225l0.165,0.197
	c0,0,1.077-0.197,2.104,0.293c0.949,0.449,0.77,1.48-0.104,1.957c-0.942,0.51-2.445,0.33-2.445,0.33s0.031,1.492-0.79,1.756
	c-0.824,0.26-1.437-0.932-1.148-2.086c0,0-1.144,0.189-1.877-0.246C31.651,48.741,31.813,47.493,34.048,47.602z"/>
<path fill="#E7A1C6" d="M36.882,46.75c0.158,0.154-0.377,0.957-1.195,1.791c-0.818,0.83-1.606,1.385-1.766,1.23
	c-0.158-0.156,0.377-0.957,1.195-1.789C35.934,47.149,36.725,46.596,36.882,46.75z"/>
<path fill="none" stroke="#E7A1C6" stroke-width="0.1515" stroke-linecap="round" stroke-linejoin="round" d="M36.758,46.834
	c0,0,0.773-0.617,1.093-1.541c0.141-0.402,0.119-0.633,0.032-0.807c-0.104-0.225-0.345-0.309-0.521-0.279
	c-0.449,0.072-0.408,0.605-0.119,0.695c0.288,0.088,0.438-0.162,0.368-0.352"/>
<path fill="none" stroke="#E7A1C6" stroke-width="0.1515" stroke-linecap="round" stroke-linejoin="round" d="M36.837,46.821
	c0,0,0.518-0.758,1.186-0.734c0.585,0.021,0.562,0.568,0.293,0.656c-0.165,0.055-0.404-0.068-0.307-0.299"/>
<path fill="#E7A1C6" d="M34.984,44.647c0.013-0.162-0.109-0.305-0.271-0.318c-0.16-0.01-0.303,0.109-0.313,0.273
	c-0.015,0.16,0.108,0.303,0.27,0.314C34.83,44.926,34.97,44.809,34.984,44.647z"/>
<path fill="#E7A1C6" d="M38.834,48.35c0.012-0.16-0.108-0.303-0.271-0.316c-0.162-0.01-0.303,0.107-0.316,0.27
	c-0.014,0.166,0.109,0.307,0.271,0.316C38.681,48.633,38.819,48.512,38.834,48.35z"/>
<path fill="#E7A1C6" d="M35.439,50.803c0.01-0.104-0.064-0.191-0.169-0.201c-0.103-0.006-0.19,0.068-0.199,0.172
	c-0.008,0.102,0.068,0.193,0.169,0.199C35.345,50.981,35.432,50.905,35.439,50.803z"/>
<path fill="#E7A1C6" d="M33.042,48.62c0.007-0.104-0.067-0.191-0.172-0.201c-0.101-0.008-0.189,0.068-0.199,0.17
	c-0.005,0.102,0.072,0.193,0.17,0.197C32.946,48.795,33.037,48.723,33.042,48.62z"/>
<path fill="none" stroke="#A98EC0" stroke-width="0.5681" stroke-linecap="round" stroke-linejoin="round" d="M51.206,47.122
	c0,0-0.723-1.461-0.318-2.855c0.379-1.301,2.41-1.301,2.754,2.23l0.168,0.193c0,0,1.074-0.195,2.105,0.295
	c0.941,0.451,0.766,1.484-0.107,1.955c-0.941,0.51-2.445,0.33-2.445,0.33s0.031,1.494-0.791,1.756
	c-0.824,0.262-1.436-0.93-1.146-2.086c0,0-1.145,0.188-1.881-0.246C48.805,48.262,48.971,47.014,51.206,47.122z"/>
<path fill="#FFFFFF" d="M51.206,47.122c0,0-0.723-1.461-0.318-2.855c0.379-1.301,2.41-1.301,2.754,2.23l0.168,0.193
	c0,0,1.074-0.195,2.105,0.295c0.941,0.451,0.766,1.484-0.107,1.955c-0.941,0.51-2.445,0.33-2.445,0.33s0.031,1.494-0.791,1.756
	c-0.824,0.262-1.436-0.93-1.146-2.086c0,0-1.145,0.188-1.881-0.246C48.805,48.262,48.971,47.014,51.206,47.122z"/>
<ellipse transform="matrix(-0.7132 -0.701 0.701 -0.7132 56.5808 118.7592)" fill="#E7A1C6" cx="52.586" cy="47.804" rx="0.4" ry="2.117"/>
<path fill="none" stroke="#E7A1C6" stroke-width="0.1515" stroke-linecap="round" stroke-linejoin="round" d="M53.915,46.354
	c0,0,0.775-0.613,1.094-1.539c0.139-0.404,0.117-0.635,0.033-0.807c-0.107-0.223-0.35-0.309-0.523-0.279
	c-0.449,0.074-0.406,0.605-0.119,0.695c0.289,0.088,0.438-0.162,0.371-0.35"/>
<path fill="none" stroke="#E7A1C6" stroke-width="0.1515" stroke-linecap="round" stroke-linejoin="round" d="M53.993,46.34
	c0,0,0.516-0.756,1.188-0.732c0.584,0.018,0.559,0.568,0.295,0.656c-0.168,0.057-0.41-0.064-0.309-0.297"/>
<circle fill="#E7A1C6" cx="51.844" cy="44.143" r="0.293"/>
<path fill="#E7A1C6" d="M55.987,47.874c0.016-0.162-0.104-0.303-0.27-0.314c-0.16-0.016-0.303,0.105-0.316,0.27
	c-0.008,0.162,0.109,0.305,0.273,0.313C55.834,48.155,55.975,48.034,55.987,47.874z"/>
<path fill="#E7A1C6" d="M52.594,50.325c0.01-0.102-0.066-0.191-0.168-0.201c-0.104-0.004-0.193,0.068-0.197,0.174
	c-0.01,0.098,0.066,0.191,0.172,0.197C52.499,50.504,52.59,50.426,52.594,50.325z"/>
<circle fill="#E7A1C6" cx="50.014" cy="48.127" r="0.186"/>
<path fill="none" stroke="#FFFFFF" stroke-width="1.3257" stroke-linecap="round" stroke-linejoin="round" d="M53.372,52.938
	c2.463-0.068,6.779,0.367,9.328,3.77"/>
<path fill="none" stroke="#FFFFFF" stroke-width="1.3257" stroke-linecap="round" stroke-linejoin="round" d="M51.483,53.106
	c0,0,0.084-0.014,0.236-0.035"/>
<path fill="none" stroke="#799F9D" stroke-width="0.3788" stroke-linecap="round" stroke-linejoin="round" d="M8.811,69.831"/>
</svg>
