<svg version="1.1" id="svg_1_0" xmlns="http://www.w3.org/2000/svg" xmlns:xlink="http://www.w3.org/1999/xlink" x="0px" y="0px" width="85.04px" height="85.04px" viewBox="0 0 85.04 85.04" enable-background="new 0 0 85.04 85.04" xml:space="preserve">
<path fill="#FFFFFF" stroke="#815C2D" stroke-width="0.7575" stroke-linecap="round" stroke-linejoin="round" d="M77.281,28.403
	c-0.028-0.709-0.104-1.422-0.229-2.146c-0.346-1.955-1.029-3.521-1.893-4.731c-0.857-1.215-1.871-2.053-2.769-2.664
	c-2.369-1.613-4.621-1.939-5.584-2.012c-5.033-0.779-9.045,0.895-11.781,0.731c-3.332-0.19-2.774-3.094-2.774-3.094
	s-0.021,0.014-0.047,0.029c0.844-3.463,1.985-5.427,2.438-6.104c0.125-0.092,0.191-0.18,0.191-0.274
	c0-1.072-8.603-1.945-19.217-1.945c-7.902,0-14.686,0.481-17.641,1.176c-3.727,0.789-4.412,1.85-4.412,1.85
	c3.494,0.767,4.869,3.316,5.395,4.894c0.445,1.713,0.82,3.815,0.992,6.346c0.588,8.605,0.098,12.813-4.795,19.656
	c-4.889,6.85-8.289,12.355-7.201,21.441c1.143,9.494,10.451,15.496,10.99,15.834c0,0.01-0.006,0.014-0.006,0.02
	c0,0.789,7.465,1.438,16.678,1.438c9.211,0,16.674-0.646,16.674-1.438c0,0,9.844-6.076,11.018-15.854
	c1.088-9.086-2.313-14.592-7.201-21.441c-2.262-3.164-3.582-5.762-4.287-8.496c-0.684-3.41,0.227-7.643,5.957-10.066
	c3.066-1.297,6.063-1.323,8.201-1.059c0.135,0.033,0.297,0.063,0.502,0.07c1.111,0.17,1.934,0.399,2.33,0.526
	c0.492,0.193,1.023,0.459,1.549,0.822c0.666,0.459,1.264,0.969,1.781,1.691c0.51,0.729,0.967,1.694,1.236,3.176
	c0.096,0.541,0.149,1.08,0.17,1.621c0.162,3.928-1.719,7.854-3.754,10.764c-1.013,1.455-2.039,2.65-2.81,3.478
	c-0.385,0.412-0.703,0.729-0.922,0.939c-0.11,0.106-0.19,0.186-0.252,0.233c-0.056,0.054-0.067,0.067-0.067,0.067
	c-0.761,0.673-0.804,1.854-0.101,2.634c0.387,0.43,0.914,0.649,1.438,0.649c0.434,0,0.86-0.149,1.203-0.453
	c0.063-0.063,2.338-2.086,4.604-5.344C75.133,38.112,77.456,33.591,77.281,28.403z"/>
<path fill="#815C2D" stroke="#815C2D" stroke-width="0.3788" d="M62.308,50.983c-5.679,0.77-15.502,1.291-26.646,1.289
	c-11.186,0.002-21.047-0.523-26.709-1.297c-0.166,0.482-0.316,0.975-0.451,1.473c5.771,0.814,15.758,1.344,27.16,1.348
	c11.357,0,21.322-0.53,27.098-1.34C62.625,51.958,62.476,51.465,62.308,50.983z M57.715,42.415
	c-0.317-0.467-0.647-0.936-0.985-1.418c-5.194,0.414-12.735,0.676-21.115,0.676C26.49,41.675,19.07,41.36,14.527,41
	c-0.338,0.479-0.664,0.947-0.984,1.416c5.285,0.461,13.195,0.753,22.072,0.753C55.668,43.165,58.284,42.391,57.715,42.415z"/>
<path fill="none" stroke="#815C2D" stroke-width="0.4924" stroke-linecap="round" stroke-linejoin="round" d="M48.101,11.2
	c1.265,0.109,3.082,0.32,4.754,0.742"/>
<path fill="none" stroke="#815C2D" stroke-width="0.4924" stroke-linecap="round" stroke-linejoin="round" d="M26.167,10.989
	c1.58-0.074,3.461-0.135,5.697-0.18"/>
<path fill="none" stroke="#815C2D" stroke-width="0.4924" stroke-linecap="round" stroke-linejoin="round" d="M17.9,11.942
	c0,0,0.658-0.49,6.322-0.849"/>
<path fill="none" stroke="#815C2D" stroke-width="0.4924" stroke-linecap="round" stroke-linejoin="round" d="M48.896,25.725
	c-0.092-0.588-0.14-1.236-0.119-1.949"/>
<path fill="none" stroke="#815C2D" stroke-width="0.4924" stroke-linecap="round" stroke-linejoin="round" d="M51.784,30.637
	c0,0-1.48-0.8-2.361-2.974"/>
<path fill="none" stroke="#815C2D" stroke-width="0.4924" stroke-linecap="round" stroke-linejoin="round" d="M49.404,18.772
	c0.365-1.16,1.146-2.871,2.688-3.654"/>
<path fill="none" stroke="#815C2D" stroke-width="0.3788" stroke-linecap="round" stroke-linejoin="round" d="M19.472,35.378
	c0,0,2.193-4.035,1.98-10.545"/>
<path fill="none" stroke="#815C2D" stroke-width="0.3788" stroke-linecap="round" stroke-linejoin="round" d="M17.746,75.038
	c0.746,0.603,1.762,1.357,2.646,1.783c0,0,2.52,0.697,8.666,0.871"/>
<path fill="#815C2D" d="M19.431,46.002c-0.809-0.672-1.023-1.586-2.158-1.787c-0.623-0.109-1.566,0.207-1.896,0.785
	c-1.256,2.192,1.303,3.16,3.092,2.508c0.406-0.148,0.135-0.496-0.209-0.393c-0.709,0.211-4.367,1.772-2.514,2.848
	c2.283,1.32,3.094-0.937,3.672-2.748c-0.244,0.045-0.488,0.09-0.734,0.135c0.316,1.191,0.811,2.102,2.055,2.443
	c0.699,0.192,1.836,0.233,2.412-0.303c1.932-1.8-1.588-3.146-2.963-3.205c-0.09,0.155-0.18,0.313-0.271,0.467
	c0.77-0.012,1.912-0.019,2.465-0.674c0.754-0.896,0.662-1.767-0.311-2.427c-1.732-1.174-4.152,0.942-3.205,2.781
	c0.145,0.278,0.861,0.051,0.732-0.195c-0.381-0.735-0.287-1.364,0.254-1.995c1.521-1.778,3.91,1.983,0.336,2.043
	c-0.293,0.006-0.779,0.444-0.271,0.467c1.051,0.047,2.441,0.426,2.943,1.438c0.566,1.146-1.271,1.276-1.975,1.084
	c-0.947-0.262-1.252-1.306-1.469-2.121c-0.082-0.31-0.664-0.081-0.734,0.138c-0.254,0.795-0.553,2.813-1.762,2.582
	c-2.406-0.459,0.697-2.104,1.453-2.332c-0.07-0.131-0.139-0.263-0.209-0.394c-1.021,0.313-1.814,0.043-2.379-0.808
	c-0.246-1.051,0.4-1.479,1.938-1.291c0.416,0.349,0.605,0.896,1.033,1.255C18.978,46.489,19.662,46.194,19.431,46.002L19.431,46.002
	z"/>
<path fill="#815C2D" d="M34.935,46.534c-0.811-0.672-1.023-1.58-2.16-1.785c-0.623-0.11-1.566,0.207-1.896,0.785
	c-1.252,2.193,1.303,3.16,3.092,2.506c0.406-0.147,0.135-0.498-0.209-0.393c-0.709,0.213-4.367,1.779-2.51,2.852
	c2.283,1.318,3.092-0.936,3.666-2.752c-0.244,0.047-0.488,0.092-0.734,0.137c0.32,1.191,0.811,2.101,2.057,2.443
	c0.697,0.191,1.836,0.236,2.414-0.301c1.934-1.795-1.586-3.148-2.961-3.209c-0.09,0.156-0.18,0.313-0.271,0.467
	c0.768-0.012,1.91-0.016,2.463-0.672c0.756-0.896,0.66-1.766-0.311-2.426c-1.73-1.174-4.152,0.943-3.205,2.781
	c0.145,0.279,0.861,0.051,0.732-0.195c-0.381-0.736-0.287-1.363,0.254-1.994c1.52-1.779,3.91,1.982,0.34,2.039
	c-0.293,0.006-0.779,0.445-0.271,0.467c1.051,0.047,2.439,0.428,2.941,1.441c0.566,1.146-1.275,1.273-1.977,1.08
	c-0.949-0.262-1.254-1.301-1.473-2.117c-0.082-0.311-0.664-0.082-0.732,0.135c-0.252,0.795-0.549,2.813-1.758,2.584
	c-2.406-0.457,0.693-2.105,1.449-2.334c-0.068-0.131-0.139-0.262-0.209-0.393c-1.021,0.314-1.813,0.047-2.375-0.809
	c-0.246-1.052,0.398-1.479,1.938-1.289c0.416,0.348,0.604,0.896,1.031,1.254C34.48,47.022,35.166,46.729,34.935,46.534
	L34.935,46.534z"/>
<path fill="#815C2D" d="M51.458,46.321c-0.806-0.674-1.021-1.588-2.162-1.787c-0.623-0.107-1.563,0.207-1.896,0.787
	c-1.243,2.191,1.302,3.164,3.093,2.506c0.405-0.147,0.135-0.498-0.209-0.393c-0.709,0.213-4.367,1.777-2.511,2.85
	c2.283,1.322,3.095-0.939,3.666-2.754c-0.244,0.047-0.487,0.092-0.733,0.137c0.319,1.193,0.813,2.104,2.061,2.449
	c0.697,0.191,1.836,0.234,2.412-0.303c1.936-1.803-1.588-3.15-2.965-3.209c-0.09,0.156-0.18,0.313-0.271,0.467
	c0.769-0.012,1.912-0.016,2.466-0.672c0.754-0.896,0.659-1.768-0.312-2.428c-1.731-1.179-4.154,0.943-3.205,2.781
	c0.146,0.279,0.858,0.051,0.729-0.195c-0.381-0.736-0.287-1.365,0.254-1.996c1.521-1.777,3.904,1.984,0.336,2.043
	c-0.293,0.006-0.776,0.445-0.27,0.467c1.051,0.045,2.441,0.424,2.945,1.439c0.564,1.146-1.273,1.277-1.979,1.084
	c-0.949-0.262-1.255-1.307-1.474-2.123c-0.082-0.311-0.664-0.084-0.733,0.135c-0.25,0.797-0.548,2.814-1.757,2.588
	c-2.409-0.455,0.693-2.105,1.449-2.334c-0.069-0.131-0.14-0.262-0.209-0.393c-1.021,0.311-1.813,0.041-2.375-0.809
	c-0.246-1.05,0.397-1.479,1.935-1.293c0.418,0.348,0.608,0.899,1.034,1.258C51,46.811,51.691,46.518,51.458,46.321L51.458,46.321z"
	/>
<path fill="none" stroke="#815C2D" stroke-width="0.4924" stroke-linecap="round" stroke-linejoin="round" d="M17.541,36.616
	c0.025,0.615,1.049,1.26,1.59,1.449c0.814,0.291,1.17,0.088,1.783-0.418c1.041-0.855,2.461-1.84,3.863-1.47
	c1.545,0.408,2.656,1.955,4.336,2.029c1.693,0.08,2.607-1.904,4.195-2.24c1.635-0.35,2.496,0.298,3.773,1.173
	c0.803,0.545,1.494,0.797,2.52,0.637c1.441-0.228,1.947-1.189,3.021-1.91c2.917-1.967,5.4,3.299,8.475,1.654
	c0.526-0.285,1.502-1.049,1.588-1.658"/>
	
	<g id="clickMark_1_0" class="none">
		<path fill="#FFFFFF" d="M83.975,42.521c0,22.892-18.561,41.454-41.458,41.454c-22.893,0-41.453-18.562-41.453-41.454 C1.065,19.623,19.625,1.064,42.519,1.064C65.415,1.064,83.975,19.623,83.975,42.521z" />
		<path fill="none" stroke="#000000" stroke-width="0.9447" d="M42.519,73.262c16.977,0,30.746-13.76,30.746-30.741 c0-16.98-13.769-30.74-30.746-30.74c-16.979,0-30.743,13.76-30.743,30.74C11.774,59.502,25.54,73.262,42.519,73.262z" />
		<path fill="#D7DF23" d="M42.519,73.262c16.977,0,30.746-13.76,30.746-30.741c0-16.98-13.769-30.74-30.746-30.74 c-16.979,0-30.743,13.76-30.743,30.74C11.774,59.502,25.54,73.262,42.519,73.262" />
		<path fill="none" stroke="#000000" stroke-width="0.8879" d="M42.519,73.262c16.977,0,30.746-13.76,30.746-30.741 c0-16.98-13.769-30.74-30.746-30.74c-16.979,0-30.743,13.76-30.743,30.74C11.774,59.502,25.54,73.262,42.519,73.262" />
		<path fill="#ED1C24" d="M58.706,24.476c0.098,0.837-0.395,1.623-1.477,2.36c-1.377,0.983-2.213,1.721-2.508,2.211l-8.408,14.606 l7.08,13.721c0.1,0.148,0.615,0.91,1.549,2.287c0.591,0.838,0.886,1.6,0.886,2.287c0,0.395-0.071,0.789-0.222,1.182 c-0.836,2.113-2.387,3.172-4.646,3.172c-0.937,0-1.846-0.197-2.731-0.592c-1.229-0.541-1.904-1.242-2.027-2.102 c-0.122-0.861-0.232-1.707-0.332-2.545l-3.982-9.888l-4.424,8.854c-0.295,0.982-0.64,1.953-1.033,2.914 c-0.395,0.959-1.157,1.437-2.287,1.437c-1.428,0-2.804-0.491-4.131-1.476c-1.426-1.131-2.041-2.383-1.844-3.762 c0.097-0.541,0.429-1.115,0.995-1.733c0.565-0.615,0.922-1.068,1.071-1.363l6.492-11.806l-4.577-14.306 c-0.147-0.493-0.626-1.096-1.438-1.808s-1.268-1.387-1.364-2.028c-0.148-1.13,0.539-2.139,2.065-3.024 c1.376-0.737,2.851-1.107,4.427-1.107c0.886,0,1.573,0.148,2.066,0.441c1.081,0.692,1.743,1.563,1.989,2.62 c0.245,1.059,0.468,2.104,0.664,3.135l2.212,6.934l4.869-8.706c0.442-0.934,0.924-1.891,1.438-2.876 c0.519-0.985,1.216-1.646,2.103-1.991c0.539-0.247,1.154-0.37,1.844-0.37c1.279,0,2.521,0.356,3.726,1.071 C57.954,22.938,58.606,23.689,58.706,24.476z" />
	</g>
</svg>
