<svg version="1.1" id="svg_1_v" valid="1" xmlns="http://www.w3.org/2000/svg" xmlns:xlink="http://www.w3.org/1999/xlink" x="0px" y="0px"
	 width="85.04px" height="85.04px" viewBox="0 0 85.04 85.04" enable-background="new 0 0 85.04 85.04" xml:space="preserve">
	 
<path fill="#FFFFFF" toFill="#DBECED" d="M77.28,28.399c-0.023-0.705-0.098-1.422-0.229-2.145c-0.346-1.953-1.029-3.518-1.891-4.73
	c-0.857-1.213-1.869-2.051-2.77-2.664c-2.371-1.615-4.621-1.939-5.586-2.012c-5.031-0.777-9.041,0.896-11.781,0.734
	c-3.332-0.193-2.771-3.094-2.771-3.094s-0.021,0.014-0.051,0.027c0.844-3.463,1.983-5.426,2.438-6.102
	c0.127-0.09,0.192-0.184,0.192-0.277c0-1.072-8.604-1.941-19.217-1.941c-7.902,0-14.688,0.48-17.643,1.172
	c-3.729,0.791-4.412,1.852-4.412,1.852c3.493,0.764,4.867,3.316,5.395,4.893c0.441,1.713,0.818,3.816,0.99,6.344
	c0.589,8.605,0.099,12.811-4.792,19.656c-4.892,6.846-8.29,12.357-7.199,21.441c1.139,9.492,10.45,15.496,10.987,15.836
	c0,0.006-0.006,0.012-0.006,0.02c0,0.791,7.465,1.438,16.68,1.438c9.209,0,16.678-0.646,16.678-1.438c0,0,9.84-6.078,11.011-15.854
	c1.094-9.084-2.312-14.598-7.195-21.439c-2.262-3.164-3.584-5.766-4.289-8.496c-0.682-3.408,0.229-7.645,5.959-10.066
	c3.063-1.299,6.062-1.322,8.199-1.061c0.138,0.037,0.297,0.063,0.5,0.072c1.114,0.17,1.937,0.398,2.334,0.525
	c0.494,0.193,1.021,0.459,1.547,0.822c0.668,0.461,1.265,0.967,1.779,1.693c0.514,0.729,0.967,1.695,1.233,3.18
	c0.101,0.539,0.153,1.078,0.172,1.615c0.166,3.928-1.715,7.855-3.752,10.766c-1.01,1.455-2.039,2.65-2.81,3.475
	c-0.385,0.41-0.702,0.729-0.924,0.938c-0.104,0.105-0.192,0.188-0.248,0.238c-0.056,0.051-0.071,0.066-0.071,0.066
	c-0.755,0.672-0.802,1.852-0.099,2.635c0.385,0.428,0.911,0.646,1.438,0.646c0.434,0,0.855-0.148,1.197-0.453
	c0.066-0.062,2.342-2.082,4.604-5.342C75.137,38.112,77.458,33.59,77.28,28.399z"/>
<path fill="#FFFFFF" toFill="#C5E0E2" stroke="#815C2D" stroke-width="0.25" stroke-miterlimit="10" d="M52.684,17.583
	c0.521,0.031,1.09-0.006,1.707-0.076c-2.619-0.51-2.137-3.018-2.137-3.018s-0.021,0.014-0.051,0.029
	c0.844-3.463,1.982-5.426,2.438-6.102c0.127-0.09,0.193-0.184,0.193-0.277c0-0.33-0.816-0.641-2.256-0.914
	c-0.486,0.789-1.896,3.922-2.723,7.293c0.033-0.016,0.051-0.029,0.051-0.029S49.35,17.389,52.684,17.583z"/>
<path fill="#FFFFFF" toFill="#EBEBA5" stroke="#815C2D" stroke-width="0.25" stroke-miterlimit="10" d="M55.1,40.981
	c-2.846-3.955-4.408-7.121-5.07-10.834H20.975c-0.662,3.713-2.225,6.879-5.07,10.834c-4.68,6.506-7.937,11.736-6.895,20.365
	c1.091,9.023,10.004,14.727,10.52,15.049c-0.002,0.004-0.005,0.01-0.005,0.014c0,0.754,7.146,1.365,15.966,1.365
	c8.813,0,15.958-0.611,15.958-1.365c0,0,9.422-5.77,10.543-15.062C63.034,52.717,59.78,47.487,55.1,40.981z"/>
<path fill="none" stroke="#815C2D" stroke-width="0.25" stroke-miterlimit="10" d="M52.858,11.942c0,0.639-7.822,1.158-17.479,1.158
	s-17.482-0.52-17.482-1.158c0-0.643,7.826-1.162,17.482-1.162C45.036,10.78,52.858,11.299,52.858,11.942z"/>
<path fill="none" stroke="#815C2D" stroke-width="0.25" stroke-miterlimit="10" d="M50.793,11.393
	c-0.133,0.369-0.256,0.748-0.375,1.141c1.547-0.176,2.438-0.375,2.438-0.592C52.858,11.743,52.11,11.557,50.793,11.393z"/>
<ellipse fill="#FFFFFF" toFill="#F2F3CC" stroke="#815C2D" stroke-width="0.25" stroke-miterlimit="10" cx="35.617" cy="30.098" rx="14.469" ry="1.018"/>
<path fill="#FFFFFF" toFill="#E7A1C6" stroke="#815C2D" stroke-width="0.25" stroke-miterlimit="10" d="M62.313,50.981
	c-5.674,0.773-15.502,1.291-26.647,1.289c-11.189,0.002-21.049-0.521-26.709-1.297c-0.168,0.484-0.318,0.975-0.451,1.473
	c5.768,0.816,15.756,1.346,27.16,1.348c11.358,0,21.321-0.525,27.097-1.338C62.631,51.958,62.479,51.465,62.313,50.981z
	 M57.721,42.413c-0.32-0.469-0.646-0.939-0.988-1.414c-5.193,0.408-12.73,0.674-21.113,0.674c-8.367,0.002-15.896-0.26-21.092-0.672
	c-0.338,0.475-0.665,0.945-0.983,1.414c5.284,0.463,13.193,0.75,22.075,0.75C44.51,43.165,52.434,42.875,57.721,42.413z"/>
<path fill="#FFFFFF" toFill="#C5E0E2" stroke="#815C2D" stroke-width="0.25" stroke-miterlimit="10" d="M52.295,28.167
	c0,0.793-7.467,1.438-16.677,1.438c-9.216,0-16.681-0.645-16.681-1.438s7.465-1.438,16.681-1.438
	C44.829,26.729,52.295,27.374,52.295,28.167z"/>
<path fill="#FFFFFF" toFill="#E0E26E" stroke="#815C2D" stroke-width="0.25" stroke-miterlimit="10" d="M20.389,27.581
	c2.041,0.553,8.088,0.953,15.229,0.953c7.141,0,13.183-0.4,15.224-0.953c-2.604-0.502-8.439-0.852-15.224-0.852
	C28.832,26.729,22.997,27.079,20.389,27.581z"/>
<path fill="none" stroke="#815C2D" stroke-width="0.5" stroke-linecap="round" stroke-linejoin="round" d="M48.104,11.198
	c1.32,0.115,3.133,0.334,4.754,0.744"/>
<path fill="none" stroke="#815C2D" stroke-width="0.5" stroke-linecap="round" stroke-linejoin="round" d="M46.208,11.079
	c0,0,0.053,0.002,0.146,0.008"/>
<path fill="none" stroke="#815C2D" stroke-width="0.5" stroke-linecap="round" stroke-linejoin="round" d="M33.266,10.786
	c0.066-0.002,0.135-0.002,0.201-0.006"/>
<path fill="none" stroke="#815C2D" stroke-width="0.5" stroke-linecap="round" stroke-linejoin="round" d="M17.897,11.942
	c0,0,0.66-0.494,6.323-0.848"/>
<path fill="none" stroke="#815C2D" stroke-width="0.5" stroke-linecap="round" stroke-linejoin="round" d="M48.899,25.721
	c-0.09-0.586-0.133-1.23-0.119-1.947"/>
<path fill="none" stroke="#815C2D" stroke-width="0.5" stroke-linecap="round" stroke-linejoin="round" d="M51.782,30.635
	c0,0-1.473-0.797-2.355-2.971"/>
<path fill="none" stroke="#815C2D" stroke-width="0.5" stroke-linecap="round" stroke-linejoin="round" d="M49.407,18.772
	c0.365-1.162,1.145-2.873,2.688-3.656"/>
<path fill="none" stroke="#815C2D" stroke-width="0.5" stroke-linecap="round" stroke-linejoin="round" d="M49.118,19.954
	c0,0,0.008-0.053,0.025-0.156"/>
<path fill="none" stroke="#815C2D" stroke-width="0.75" stroke-linecap="round" stroke-linejoin="round" d="M77.28,28.399
	c-0.023-0.705-0.098-1.422-0.229-2.145c-0.346-1.953-1.029-3.518-1.891-4.73c-0.857-1.213-1.869-2.051-2.77-2.664
	c-2.371-1.615-4.621-1.939-5.586-2.012c-5.031-0.777-9.041,0.896-11.781,0.734c-3.332-0.193-2.771-3.094-2.771-3.094
	s-0.021,0.014-0.051,0.027c0.844-3.463,1.983-5.426,2.438-6.102c0.127-0.09,0.192-0.184,0.192-0.277
	c0-1.072-8.604-1.941-19.217-1.941c-7.902,0-14.688,0.48-17.643,1.172c-3.729,0.791-4.412,1.852-4.412,1.852
	c3.493,0.764,4.867,3.316,5.395,4.893c0.441,1.713,0.818,3.816,0.99,6.344c0.589,8.605,0.099,12.811-4.792,19.656
	c-4.892,6.846-8.29,12.357-7.199,21.441c1.139,9.492,10.45,15.496,10.987,15.836c0,0.006-0.006,0.012-0.006,0.02
	c0,0.791,7.465,1.438,16.68,1.438c9.209,0,16.678-0.646,16.678-1.438c0,0,9.84-6.078,11.011-15.854
	c1.094-9.084-2.312-14.598-7.195-21.439c-2.262-3.164-3.584-5.766-4.289-8.496c-0.682-3.408,0.229-7.645,5.959-10.066
	c3.063-1.299,6.062-1.322,8.199-1.061c0.138,0.037,0.297,0.063,0.5,0.072c1.114,0.17,1.937,0.398,2.334,0.525
	c0.494,0.193,1.021,0.459,1.547,0.822c0.668,0.461,1.265,0.967,1.779,1.693c0.514,0.729,0.967,1.695,1.233,3.18
	c0.101,0.539,0.153,1.078,0.172,1.615c0.166,3.928-1.715,7.855-3.752,10.766c-1.01,1.455-2.039,2.65-2.81,3.475
	c-0.385,0.41-0.702,0.729-0.924,0.938c-0.104,0.105-0.192,0.188-0.248,0.238c-0.056,0.051-0.071,0.066-0.071,0.066
	c-0.755,0.672-0.802,1.852-0.099,2.635c0.385,0.428,0.911,0.646,1.438,0.646c0.434,0,0.855-0.148,1.197-0.453
	c0.066-0.062,2.342-2.082,4.604-5.342C75.137,38.112,77.458,33.59,77.28,28.399z"/>
<path fill="none" stroke="#815C2D" stroke-width="0.5" stroke-linecap="round" stroke-linejoin="round" d="M64.03,18.487
	c2.469-0.066,6.779,0.365,9.332,3.77"/>
<path fill="none" stroke="#815C2D" stroke-width="0.5" stroke-linecap="round" stroke-linejoin="round" d="M62.143,18.653
	c0,0,0.084-0.014,0.236-0.035"/>
<path fill="none" stroke="#815C2D" stroke-width="0.25" stroke-linecap="round" stroke-linejoin="round" d="M19.471,35.377
	c0,0,2.195-4.037,1.982-10.545"/>
<path fill="none" stroke="#799F9D" stroke-width="0.25" stroke-linecap="round" stroke-linejoin="round" d="M61.797,53.452
	c0.021,0.105,0.051,0.219,0.074,0.332"/>
<path fill="none" stroke="#799F9D" stroke-width="0.25" stroke-linecap="round" stroke-linejoin="round" d="M30.684,28.485
	c0.139,0.004,0.277,0.004,0.421,0.006"/>
<path fill="none" stroke="#815C2D" stroke-width="0.25" stroke-linecap="round" stroke-linejoin="round" d="M17.748,25.795
	c0.748,0.604,1.762,1.357,2.643,1.785c0,0,2.523,0.695,8.672,0.871"/>
<path fill="#FFFFFF" toFill="#EBEBA5" stroke="#815C2D" stroke-width="0.25" stroke-miterlimit="10" d="M16.677,24.883c0,0,0.057,0.051,0.16,0.143"/>
<path fill="none" stroke="#815C2D" stroke-width="0.25" stroke-linecap="round" stroke-linejoin="round" d="M12.674,57.682
	c-0.088,2.273,0.383,5.236,2.629,7.941"/>
<path fill="none" stroke="#815C2D" stroke-width="0.5" stroke-linecap="round" stroke-linejoin="round" d="M23.805,15.217
	c0,0,0.504,2.633,0.605,5.672"/>
<path fill="none" stroke="#815C2D" stroke-width="0.25" stroke-miterlimit="10" d="M17.562,9.383c0,0,0.966-0.367,3.186-0.629"/>
<path fill="#FFFFFF" toFill="#FFFFFF" stroke="#815C2D" stroke-width="0.25" stroke-miterlimit="10" d="M17.56,47.122c0,0-0.719-1.461-0.314-2.854
	c0.375-1.301,2.406-1.301,2.754,2.229l0.166,0.193c0,0,1.078-0.195,2.104,0.295c0.947,0.451,0.77,1.484-0.104,1.955
	c-0.941,0.51-2.449,0.33-2.449,0.33s0.031,1.494-0.791,1.756c-0.821,0.262-1.434-0.93-1.146-2.086c0,0-1.144,0.188-1.879-0.246
	C15.167,48.262,15.33,47.014,17.56,47.122z"/>
<ellipse transform="matrix(0.7138 0.7003 -0.7003 0.7138 38.9012 0.415)" fill="#FFFFFF" toFill="#E7A1C6" stroke="#815C2D" stroke-width="0.25" stroke-miterlimit="10" cx="18.943" cy="47.805" rx="0.399" ry="2.116"/>
<path fill="none" stroke="#815C2D" stroke-width="0.25" stroke-linecap="round" stroke-linejoin="round" d="M20.272,46.354
	c0,0,0.772-0.613,1.093-1.539c0.14-0.404,0.116-0.635,0.034-0.807c-0.104-0.223-0.348-0.309-0.522-0.279
	c-0.448,0.074-0.409,0.605-0.12,0.695c0.288,0.088,0.439-0.162,0.372-0.35"/>
<path fill="none" stroke="#815C2D" stroke-width="0.25" stroke-linecap="round" stroke-linejoin="round" d="M20.35,46.34
	c0,0,0.517-0.756,1.188-0.732c0.582,0.018,0.557,0.568,0.293,0.656c-0.17,0.057-0.408-0.064-0.31-0.297"/>
<circle fill="#FFFFFF" toFill="#E7A1C6" stroke="#815C2D" stroke-width="0.25" stroke-miterlimit="10" cx="18.205" cy="44.144" r="0.294"/>
<circle fill="#FFFFFF" toFill="#E7A1C6" stroke="#815C2D" stroke-width="0.25" stroke-miterlimit="10" cx="22.055" cy="47.85" r="0.293"/>
<path fill="#FFFFFF" toFill="#E7A1C6" stroke="#815C2D" stroke-width="0.25" stroke-miterlimit="10" d="M18.955,50.325
	c0.008-0.102-0.068-0.191-0.172-0.201c-0.103-0.004-0.188,0.068-0.197,0.174c-0.008,0.1,0.067,0.191,0.171,0.197
	C18.857,50.504,18.946,50.426,18.955,50.325z"/>
<circle fill="#FFFFFF" toFill="#E7A1C6" stroke="#815C2D" stroke-width="0.25" stroke-miterlimit="10" cx="16.371" cy="48.127" r="0.184"/>
<path fill="none" stroke="#815C2D" stroke-width="0.25" stroke-linecap="round" stroke-linejoin="round" d="M53.372,52.938
	c2.463-0.068,6.779,0.367,9.328,3.77"/>
<path fill="none" stroke="#815C2D" stroke-width="0.25" stroke-linecap="round" stroke-linejoin="round" d="M51.483,53.106
	c0,0,0.084-0.014,0.236-0.035"/>
<path fill="none" stroke="#799F9D" stroke-width="0.25" stroke-linecap="round" stroke-linejoin="round" d="M8.811,69.831"/>
<path fill="#FFFFFF" toFill="#FFFFFF" stroke="#815C2D" stroke-width="0.25" stroke-miterlimit="10" d="M34.57,47.122c0,0-0.719-1.461-0.314-2.854
	c0.375-1.301,2.406-1.301,2.754,2.229l0.166,0.193c0,0,1.078-0.195,2.104,0.295c0.947,0.451,0.771,1.484-0.104,1.955
	c-0.941,0.51-2.449,0.33-2.449,0.33s0.031,1.494-0.791,1.756c-0.821,0.262-1.434-0.93-1.146-2.086c0,0-1.144,0.188-1.879-0.246
	C32.177,48.262,32.34,47.014,34.57,47.122z"/>
<ellipse transform="matrix(0.7138 0.7003 -0.7003 0.7138 43.7695 -11.4984)" fill="#FFFFFF" toFill="#E7A1C6" stroke="#815C2D" stroke-width="0.25" stroke-miterlimit="10" cx="35.954" cy="47.805" rx="0.399" ry="2.116"/>
<path fill="none" stroke="#815C2D" stroke-width="0.25" stroke-linecap="round" stroke-linejoin="round" d="M37.282,46.354
	c0,0,0.772-0.613,1.093-1.539c0.14-0.404,0.116-0.635,0.034-0.807c-0.104-0.223-0.348-0.309-0.522-0.279
	c-0.448,0.074-0.409,0.605-0.12,0.695c0.288,0.088,0.439-0.162,0.372-0.35"/>
<path fill="none" stroke="#815C2D" stroke-width="0.25" stroke-linecap="round" stroke-linejoin="round" d="M37.36,46.34
	c0,0,0.517-0.756,1.188-0.732c0.582,0.018,0.557,0.568,0.293,0.656c-0.17,0.057-0.408-0.064-0.31-0.297"/>
<circle fill="#FFFFFF" toFill="#E7A1C6" stroke="#815C2D" stroke-width="0.25" stroke-miterlimit="10" cx="35.215" cy="44.144" r="0.294"/>
<circle fill="#FFFFFF" toFill="#E7A1C6" stroke="#815C2D" stroke-width="0.25" stroke-miterlimit="10" cx="39.065" cy="47.85" r="0.293"/>
<path fill="#FFFFFF" toFill="#E7A1C6" stroke="#815C2D" stroke-width="0.25" stroke-miterlimit="10" d="M35.965,50.325
	c0.008-0.102-0.068-0.191-0.172-0.201c-0.103-0.004-0.188,0.068-0.197,0.174c-0.008,0.1,0.067,0.191,0.171,0.197
	C35.867,50.504,35.956,50.426,35.965,50.325z"/>
<circle fill="#FFFFFF" toFill="#E7A1C6" stroke="#815C2D" stroke-width="0.25" stroke-miterlimit="10" cx="33.381" cy="48.127" r="0.184"/>
<path fill="#FFFFFF" toFill="#FFFFFF" stroke="#815C2D" stroke-width="0.25" stroke-miterlimit="10" d="M50.579,47.122c0,0-0.72-1.461-0.313-2.854
	c0.375-1.301,2.405-1.301,2.754,2.229l0.166,0.193c0,0,1.078-0.195,2.104,0.295c0.946,0.451,0.771,1.484-0.104,1.955
	c-0.94,0.51-2.449,0.33-2.449,0.33s0.031,1.494-0.791,1.756c-0.819,0.262-1.435-0.93-1.146-2.086c0,0-1.146,0.188-1.879-0.246
	C48.185,48.262,48.348,47.014,50.579,47.122z"/>
<ellipse transform="matrix(0.7126 0.7016 -0.7016 0.7126 48.4707 -22.7123)" fill="#FFFFFF" toFill="#E7A1C6" stroke="#815C2D" stroke-width="0.25" stroke-miterlimit="10" cx="51.957" cy="47.805" rx="0.398" ry="2.116"/>
<path fill="none" stroke="#815C2D" stroke-width="0.25" stroke-linecap="round" stroke-linejoin="round" d="M53.292,46.354
	c0,0,0.771-0.613,1.092-1.539c0.141-0.404,0.117-0.635,0.035-0.807c-0.104-0.223-0.35-0.309-0.522-0.279
	c-0.446,0.074-0.409,0.605-0.12,0.695c0.288,0.088,0.439-0.162,0.372-0.35"/>
<path fill="none" stroke="#815C2D" stroke-width="0.25" stroke-linecap="round" stroke-linejoin="round" d="M53.37,46.34
	c0,0,0.516-0.756,1.188-0.732c0.582,0.018,0.559,0.568,0.293,0.656c-0.17,0.057-0.408-0.064-0.311-0.297"/>
<circle fill="#FFFFFF" toFill="#E7A1C6" stroke="#815C2D" stroke-width="0.25" stroke-miterlimit="10" cx="51.223" cy="44.144" r="0.294"/>
<circle fill="#FFFFFF" toFill="#E7A1C6" stroke="#815C2D" stroke-width="0.25" stroke-miterlimit="10" cx="55.075" cy="47.85" r="0.293"/>
<path fill="#FFFFFF" toFill="#E7A1C6" stroke="#815C2D" stroke-width="0.25" stroke-miterlimit="10" d="M51.973,50.325
	c0.008-0.102-0.066-0.191-0.172-0.201c-0.104-0.004-0.188,0.068-0.197,0.174c-0.008,0.1,0.066,0.191,0.171,0.197
	C51.875,50.504,51.963,50.426,51.973,50.325z"/>
<circle fill="#FFFFFF" toFill="#E7A1C6" stroke="#815C2D" stroke-width="0.25" stroke-miterlimit="10" cx="49.389" cy="48.127" r="0.184"/>
</svg>
