<svg version="1.1" id="svg_2" xmlns="http://www.w3.org/2000/svg" xmlns:xlink="http://www.w3.org/1999/xlink" x="0px" y="0px"
	 width="85.04px" height="85.04px" viewBox="0 0 85.04 85.04" enable-background="new 0 0 85.04 85.04" xml:space="preserve">
<radialGradient id="SVGID_1_" cx="-599.7754" cy="-261.4302" r="6.8684" gradientTransform="matrix(-0.9651 0.0801 -0.0824 -0.9927 -591.8251 -147.9475)" gradientUnits="userSpaceOnUse">
	<stop  offset="0" style="stop-color:#FFFFFF"/>
	<stop  offset="0.1177" style="stop-color:#FFFCED"/>
	<stop  offset="0.3551" style="stop-color:#FEF3BD"/>
	<stop  offset="0.6866" style="stop-color:#FCE471"/>
	<stop  offset="1" style="stop-color:#FBD623"/>
</radialGradient>
<path fill="url(#SVGID_1_)" d="M6.469,68.816c0,0-4.378-7.208,6.574-11.811c0,0,4.378,7.211,5.877,7.084
	C20.423,63.964,13.596,75.024,6.469,68.816z"/>
<path fill="#CBCCCE" d="M41.848,46.365c0,0-35.775,7.715-39.913,0.565C1.935,46.93,3.25,36.954,41.848,46.365z"/>
<path fill="#F4F4F4" stroke="#FFFFFF" stroke-width="0.3888" d="M17.184,45.046c0,0-4.71-0.184-8.848,1.129"/>
<path fill="#C68D5B" stroke="#A76146" stroke-width="0.3888" d="M48.497,45.084c0,0-19.917-33.251-40.5-30.604
	c0,0-6.94,24.499,38.739,32.274C46.735,46.754,48.335,47.298,48.497,45.084z"/>
<path fill="#CBCCCE" d="M1.384,37.581c0,0,4.399-9.054,38.051,12.053C39.434,49.634,3.055,45.676,1.384,37.581"/>
<path fill="#F39966" stroke="#CF8358" stroke-width="0.4704" stroke-miterlimit="10" d="M36.01,55.022c0,0-9.413-2.444-11.482-9.976
	c0,0,22.213-9.6,33.886-10.165c0,0,0.752,8.662,2.822,9.035C61.236,43.917,53.708,44.485,36.01,55.022z"/>
<path fill="#F39966" stroke="#CF8358" stroke-width="0.4704" stroke-miterlimit="10" d="M66.629,35.635
	c0,0-13.366-2.073-18.262,0.566c-4.896,2.633,1.315,10.915,16.191,7.342C64.557,43.543,62.676,36.573,66.629,35.635z"/>
<path fill="#E31B17" d="M54.014,35.255c0,0-2.636,6.779,9.412,7.908c0,0-1.693-7.908,2.451-7.529c0,0-8.663-1.318-11.109-0.753"/>
<ellipse fill="#F2936F" stroke="#C87D5D" stroke-width="0.3888" cx="69.312" cy="40.199" rx="6.919" ry="6.356"/>
<path fill="#1D1D1B" stroke="#8D8D8D" stroke-width="0.0972" d="M73.807,38.082c0,1.975,0.96,3.576,2.141,3.576
	c1.183,0,2.142-1.601,2.142-3.576s-0.959-3.581-2.142-3.581C74.767,34.501,73.807,36.108,73.807,38.082z"/>
<path fill="#1D1D1B" stroke="#8D8D8D" stroke-width="0.0972" d="M70.418,38.082c0,1.975,0.957,3.576,2.139,3.576
	c1.183,0,2.142-1.601,2.142-3.576s-0.959-3.581-2.142-3.581C71.375,34.501,70.418,36.108,70.418,38.082z"/>
<path fill="#1D1D1B" d="M68.795,35.99c0.561-0.952-0.066-2.723-0.307-3.699c-0.38-1.549-0.899-3.184-1.798-4.515
	c-1.392-2.067-3.335,1.575-3.91,2.474c-0.712,1.122-1.514,2.396-2.855,2.784c-0.05,0.021-0.21-0.06-0.148-0.077
	c1.996-0.578,2.923-3.045,4.039-4.6c0.52-0.722,1.458-1.688,2.439-1.162c1.225,0.66,1.729,2.823,2.1,4.007
	c0.368,1.158,1.328,3.64,0.622,4.835C68.947,36.088,68.775,36.022,68.795,35.99L68.795,35.99z"/>
<path fill="#1D1D1B" d="M70.868,34.292c0.039-2.742,3.638-7.966,6.416-8.667c3.468-0.88,5.961,2.193,7.13,5.135
	c0.013,0.028-0.159,0.01-0.176-0.038c-0.607-1.521-1.445-2.794-2.628-3.943c-2.765-2.675-4.848-1-6.579,0.684
	c-1.673,1.628-3.946,4.384-3.98,6.877C71.048,34.365,70.868,34.344,70.868,34.292L70.868,34.292z"/>
<path fill="#F39966" stroke="#CF8358" stroke-width="0.4704" stroke-miterlimit="10" d="M13.983,61.418c0,0-3.953-6.77,2.445-12.419
	c0,0-0.374,11.857,9.98,12.793C26.409,61.792,18.691,68.572,13.983,61.418z"/>
<path fill="#F39966" stroke="#CF8358" stroke-width="0.4704" stroke-miterlimit="10" d="M24.902,62.733
	c0,0-12.428-3.006-9.978-11.474c0,0,0.378-1.882,2.636-3.2c0,0,10.918,12.984,12.425,11.101
	C29.985,59.16,26.598,62.361,24.902,62.733z"/>
<path fill="#F39966" stroke="#CF8358" stroke-width="0.4704" stroke-miterlimit="10" d="M28.29,60.476
	c0,0-12.802-4.513-10.73-12.417c0,0,3.2-2.259,5.46-2.259l10.542,10.916C33.563,56.716,30.55,59.727,28.29,60.476z"/>
<path fill="#F39966" stroke="#CF8358" stroke-width="0.4704" stroke-miterlimit="10" d="M32.62,58.027c0,0-12.8-1.933-11.107-11.785
	l4.896-2.13c0,0,4.706,10.053,11.294,9.665L32.62,58.027z"/>
<path fill="#C68D5B" stroke="#A76146" stroke-width="0.3888" d="M49.73,43.885c0,0-31.068-24.561-49.104-13.876
	c0,0,2.896,26.608,48.109,16.198C48.735,46.208,50.424,46.107,49.73,43.885z"/>
<path fill="none" stroke="#A76146" stroke-width="0.3888" d="M48.223,43.974c0,0-28.206-11.339-44.822-11.677"/>
<path fill="none" stroke="#A76146" stroke-width="0.3719" d="M10.215,16.792c0,0,18.678,6.486,26.367,18.451"/>
<path fill="#FFFFFF" d="M73.687,36.775c0.343,1.277,0.369,2.579-0.575,3.603c-0.049,0.056-0.221-0.016-0.168-0.073
	c0.933-1.013,0.896-2.293,0.56-3.549C73.483,36.681,73.668,36.703,73.687,36.775L73.687,36.775z"/>
<path fill="#FFFFFF" d="M77.45,36.965c0.332,1.321,0.019,2.568-0.563,3.775c-0.036,0.068-0.212,0.009-0.184-0.049
	c0.575-1.192,0.89-2.435,0.563-3.75C77.248,36.87,77.432,36.894,77.45,36.965L77.45,36.965z"/>
<path fill="none" stroke="#1D1D1B" stroke-width="0.1418" stroke-miterlimit="10" d="M67.03,40.783c0,0-2.026,4.954,2.282,5.772"/>
</svg>
