<svg version="1.1" id="svg_2_1" xmlns="http://www.w3.org/2000/svg" xmlns:xlink="http://www.w3.org/1999/xlink" x="0px" y="0px" width="85.04px" height="85.04px" viewBox="0 0 85.04 85.04" enable-background="new 0 0 85.04 85.04" xml:space="preserve">
<path fill="#FFFFFF" stroke="#815C2D" stroke-width="0.1598" stroke-linecap="round" stroke-linejoin="round" d="M41.844,49.41
	c0,0-35.98,7.76-40.142,0.568C1.702,49.978,3.025,39.945,41.844,49.41z"/>
<path fill="#FFFFFF" stroke="#815C2D" stroke-width="0.1598" stroke-linecap="round" stroke-linejoin="round" d="M17.039,48.083
	c0,0-4.738-0.185-8.899,1.136"/>
<path fill="#FFFFFF" stroke="#815C2D" stroke-width="0.3196" stroke-linecap="round" stroke-linejoin="round" d="M48.532,48.122
	c0,0-20.032-33.442-40.734-30.779c0,0-6.98,24.64,38.96,32.459C46.758,49.801,48.371,50.349,48.532,48.122z"/>
<path fill="#FFFFFF" stroke="#815C2D" stroke-width="0.1598" stroke-linecap="round" stroke-linejoin="round" d="M1.148,40.575
	c0,0,4.425-9.105,38.27,12.124C39.417,52.699,2.829,48.717,1.148,40.575"/>
<path fill="#FFFFFF" stroke="#815C2D" stroke-width="0.3196" stroke-linecap="round" stroke-linejoin="round" d="M35.974,58.117
	c0,0-9.468-2.458-11.549-10.033c0,0,22.34-9.655,34.081-10.223c0,0,0.755,8.711,2.838,9.087
	C61.343,46.948,53.773,47.519,35.974,58.117z"/>
<path fill="#FFFFFF" stroke="#815C2D" stroke-width="0.3196" stroke-linecap="round" stroke-linejoin="round" d="M66.768,38.618
	c0,0-13.442-2.085-18.367,0.57c-4.925,2.648,1.324,10.977,16.284,7.384C64.685,46.572,62.792,39.562,66.768,38.618z"/>
<path fill="#FFFFFF" stroke="#815C2D" stroke-width="0.3196" stroke-linecap="round" stroke-linejoin="round" d="M54.08,38.236
	c0,0-2.65,6.819,9.467,7.955c0,0-1.703-7.955,2.465-7.573c0,0-8.712-1.325-11.174-0.757"/>
<ellipse fill="#FFFFFF" stroke="#815C2D" stroke-width="0.3196" stroke-linecap="round" stroke-linejoin="round" cx="69.465" cy="43.209" rx="6.959" ry="6.393"/>
<path fill="#FFFFFF" stroke="#815C2D" stroke-width="0.1598" stroke-linecap="round" stroke-linejoin="round" d="M73.988,41.079
	c0,1.987,0.964,3.597,2.151,3.597c1.19,0,2.155-1.61,2.155-3.597c0-1.986-0.965-3.601-2.155-3.601
	C74.952,37.478,73.988,39.094,73.988,41.079z"/>
<path fill="#FFFFFF" stroke="#815C2D" stroke-width="0.3196" stroke-linecap="round" stroke-linejoin="round" d="M70.579,41.079
	c0,1.987,0.963,3.597,2.151,3.597c1.189,0,2.153-1.61,2.153-3.597c0-1.986-0.964-3.601-2.153-3.601
	C71.542,37.478,70.579,39.094,70.579,41.079z"/>
<path fill="#FFFFFF" stroke="#815C2D" stroke-width="0.1598" stroke-linecap="round" stroke-linejoin="round" d="M68.949,38.976
	c0.561-0.957-0.069-2.739-0.311-3.72c-0.381-1.558-0.903-3.202-1.809-4.541c-1.398-2.079-3.354,1.584-3.931,2.488
	c-0.717,1.128-1.523,2.41-2.873,2.8c-0.049,0.021-0.212-0.06-0.149-0.077c2.009-0.581,2.94-3.063,4.062-4.626
	c0.524-0.727,1.466-1.698,2.453-1.169c1.233,0.664,1.739,2.839,2.112,4.03c0.371,1.164,1.335,3.66,0.626,4.862
	C69.098,39.074,68.927,39.008,68.949,38.976L68.949,38.976z"/>
<path fill="#FFFFFF" stroke="#815C2D" stroke-width="0.1598" stroke-linecap="round" stroke-linejoin="round" d="M71.032,37.267
	c0.038-2.757,3.658-8.012,6.452-8.716c3.487-0.886,5.994,2.206,7.17,5.165c0.012,0.029-0.162,0.011-0.179-0.038
	c-0.61-1.529-1.451-2.81-2.643-3.965c-2.779-2.69-4.874-1.006-6.616,0.688c-1.682,1.638-3.97,4.409-4.004,6.917
	C71.212,37.341,71.032,37.319,71.032,37.267L71.032,37.267z"/>
<path fill="#FFFFFF" stroke="#815C2D" stroke-width="0.3196" stroke-linecap="round" stroke-linejoin="round" d="M13.82,64.55
	c0,0-3.976-6.809,2.459-12.491c0,0-0.376,11.926,10.038,12.868C26.317,64.927,18.555,71.745,13.82,64.55z"/>
<path fill="#FFFFFF" stroke="#815C2D" stroke-width="0.3196" stroke-linecap="round" stroke-linejoin="round" d="M24.801,65.873
	c0,0-12.5-3.023-10.035-11.54c0,0,0.381-1.893,2.651-3.219c0,0,10.982,13.06,12.497,11.165
	C29.914,62.279,26.506,65.498,24.801,65.873z"/>
<path fill="#FFFFFF" stroke="#815C2D" stroke-width="0.3196" stroke-linecap="round" stroke-linejoin="round" d="M28.208,63.603
	c0,0-12.875-4.539-10.792-12.489c0,0,3.219-2.271,5.493-2.271L33.51,59.821C33.511,59.821,30.481,62.849,28.208,63.603z"/>
<path fill="#FFFFFF" stroke="#815C2D" stroke-width="0.3196" stroke-linecap="round" stroke-linejoin="round" d="M32.565,61.139
	c0,0-12.875-1.944-11.173-11.854l4.925-2.142c0,0,4.732,10.11,11.358,9.721L32.565,61.139z"/>
<path fill="#FFFFFF" stroke="#815C2D" stroke-width="0.3196" stroke-linecap="round" stroke-linejoin="round" d="M49.771,46.916
	c0,0-31.244-24.702-49.386-13.955c0,0,2.911,26.762,48.385,16.291C48.77,49.251,50.469,49.151,49.771,46.916z"/>
<path fill="#FFFFFF" stroke="#815C2D" stroke-width="0.1598" stroke-linecap="round" stroke-linejoin="round" d="M48.255,47.005
	c0,0-28.367-11.405-45.079-11.744"/>
<path fill="#FFFFFF" stroke="#815C2D" stroke-width="0.1598" stroke-linecap="round" stroke-linejoin="round" d="M10.029,19.667
	c0,0,18.786,6.523,26.518,18.557"/>
<path fill="#FFFFFF" stroke="#815C2D" stroke-width="0.1598" stroke-linecap="round" stroke-linejoin="round" d="M73.866,39.765
	c0.345,1.284,0.371,2.594-0.578,3.624c-0.05,0.056-0.223-0.017-0.169-0.073c0.938-1.019,0.901-2.307,0.563-3.57
	C73.661,39.67,73.847,39.692,73.866,39.765L73.866,39.765z"/>
<path fill="#FFFFFF" stroke="#815C2D" stroke-width="0.3196" stroke-linecap="round" stroke-linejoin="round" d="M77.652,39.956
	c0.332,1.329,0.017,2.583-0.567,3.797c-0.036,0.068-0.213,0.01-0.185-0.05c0.578-1.199,0.895-2.449,0.565-3.771
	C77.448,39.86,77.632,39.885,77.652,39.956L77.652,39.956z"/>
<path fill="#FFFFFF" stroke="#815C2D" stroke-width="0.1598" stroke-linecap="round" stroke-linejoin="round" d="M67.171,43.796
	c0,0-2.039,4.981,2.294,5.806"/>
	
	<g id="clickMark_2_1" class="none">
		<path fill="#FFFFFF" d="M83.975,42.521c0,22.892-18.561,41.454-41.458,41.454c-22.893,0-41.453-18.562-41.453-41.454 C1.065,19.623,19.625,1.064,42.519,1.064C65.415,1.064,83.975,19.623,83.975,42.521z" />
		<path fill="none" stroke="#000000" stroke-width="0.9447" d="M42.519,73.262c16.977,0,30.746-13.76,30.746-30.741 c0-16.98-13.769-30.74-30.746-30.74c-16.979,0-30.743,13.76-30.743,30.74C11.774,59.502,25.54,73.262,42.519,73.262z" />
		<path fill="#D7DF23" d="M42.519,73.262c16.977,0,30.746-13.76,30.746-30.741c0-16.98-13.769-30.74-30.746-30.74 c-16.979,0-30.743,13.76-30.743,30.74C11.774,59.502,25.54,73.262,42.519,73.262" />
		<path fill="none" stroke="#000000" stroke-width="0.8879" d="M42.519,73.262c16.977,0,30.746-13.76,30.746-30.741 c0-16.98-13.769-30.74-30.746-30.74c-16.979,0-30.743,13.76-30.743,30.74C11.774,59.502,25.54,73.262,42.519,73.262" />
		<path fill="#ED1C24" d="M58.706,24.476c0.098,0.837-0.395,1.623-1.477,2.36c-1.377,0.983-2.213,1.721-2.508,2.211l-8.408,14.606 l7.08,13.721c0.1,0.148,0.615,0.91,1.549,2.287c0.591,0.838,0.886,1.6,0.886,2.287c0,0.395-0.071,0.789-0.222,1.182 c-0.836,2.113-2.387,3.172-4.646,3.172c-0.937,0-1.846-0.197-2.731-0.592c-1.229-0.541-1.904-1.242-2.027-2.102 c-0.122-0.861-0.232-1.707-0.332-2.545l-3.982-9.888l-4.424,8.854c-0.295,0.982-0.64,1.953-1.033,2.914 c-0.395,0.959-1.157,1.437-2.287,1.437c-1.428,0-2.804-0.491-4.131-1.476c-1.426-1.131-2.041-2.383-1.844-3.762 c0.097-0.541,0.429-1.115,0.995-1.733c0.565-0.615,0.922-1.068,1.071-1.363l6.492-11.806l-4.577-14.306 c-0.147-0.493-0.626-1.096-1.438-1.808s-1.268-1.387-1.364-2.028c-0.148-1.13,0.539-2.139,2.065-3.024 c1.376-0.737,2.851-1.107,4.427-1.107c0.886,0,1.573,0.148,2.066,0.441c1.081,0.692,1.743,1.563,1.989,2.62 c0.245,1.059,0.468,2.104,0.664,3.135l2.212,6.934l4.869-8.706c0.442-0.934,0.924-1.891,1.438-2.876 c0.519-0.985,1.216-1.646,2.103-1.991c0.539-0.247,1.154-0.37,1.844-0.37c1.279,0,2.521,0.356,3.726,1.071 C57.954,22.938,58.606,23.689,58.706,24.476z" />
	</g>
</svg>
