<svg version="1.1" id="svg_2_v" valid="1" xmlns="http://www.w3.org/2000/svg" xmlns:xlink="http://www.w3.org/1999/xlink" x="0px" y="0px" width="85.04px" height="85.04px" viewBox="0 0 85.04 85.04" enable-background="new 0 0 85.04 85.04" xml:space="preserve">
<path fill="#FFFFFF" toFill="#F4D72C" stroke="#815C2D" stroke-width="0.25" d="M6.468,68.816c0,0-4.378-7.208,6.574-11.812
	c0,0,4.378,7.211,5.877,7.084C20.422,63.963,13.595,75.024,6.468,68.816z"/>
<path fill="#FFFFFF" toFill="#CBCCCE" stroke="#815C2D" stroke-width="0.25" d="M41.847,46.366c0,0-35.775,7.715-39.913,0.564
	C1.934,46.93,3.249,36.955,41.847,46.366z"/>
<path fill="#815C2D" d="M17.183,45.045c0,0-4.71-0.184-8.848,1.129"/>
<path fill="#FFFFFF" toFill="#C68D5B" stroke="#815C2D" stroke-width="0.3888" d="M48.496,45.084c0,0-19.917-33.251-40.5-30.604
	c0,0-6.94,24.499,38.739,32.274C46.734,46.754,48.333,47.297,48.496,45.084z"/>
<path fill="#FFFFFF" toFill="#CBCCCE" stroke="#815C2D" stroke-width="0.25" d="M1.383,37.582c0,0,4.399-9.054,38.051,12.052
	C39.433,49.633,3.054,45.676,1.383,37.582"/>
<path fill="#FFFFFF" toFill="#F39966" stroke="#815C2D" stroke-width="0.4704" stroke-miterlimit="10" d="M36.009,55.022
	c0,0-9.413-2.443-11.482-9.977c0,0,22.213-9.599,33.887-10.164c0,0,0.752,8.662,2.821,9.035
	C61.235,43.917,53.707,44.485,36.009,55.022z"/>
<path fill="#FFFFFF" toFill="#F39966" stroke="#815C2D" stroke-width="0.4704" stroke-miterlimit="10" d="M66.628,35.635
	c0,0-13.366-2.073-18.262,0.566c-4.896,2.633,1.314,10.914,16.19,7.342C64.556,43.543,62.675,36.574,66.628,35.635z"/>
<path fill="#FFFFFF" toFill="#E31B17" stroke="#815C2D" stroke-width="0.25" d="M54.013,35.255c0,0-2.637,6.779,9.412,7.907
	c0,0-1.693-7.907,2.451-7.528c0,0-8.664-1.318-11.109-0.753"/>
<ellipse fill="#FFFFFF" toFill="#F2936F" stroke="#815C2D" stroke-width="0.3888" cx="69.311" cy="40.199" rx="6.919" ry="6.356"/>
<path fill="#FFFFFF" toFill="#1D1D1B" stroke="#815C2D" stroke-width="0.0972" d="M73.806,38.083c0,1.975,0.96,3.576,2.141,3.576
	c1.184,0,2.143-1.601,2.143-3.576s-0.959-3.581-2.143-3.581C74.766,34.501,73.806,36.108,73.806,38.083z"/>
<path fill="#FFFFFF" toFill="#1D1D1B" stroke="#815C2D" stroke-width="0.0972" d="M70.417,38.083c0,1.975,0.957,3.576,2.139,3.576
	c1.184,0,2.143-1.601,2.143-3.576s-0.959-3.581-2.143-3.581C71.375,34.501,70.417,36.108,70.417,38.083z"/>
<path fill="#815C2D" d="M68.794,35.991c0.561-0.952-0.066-2.723-0.308-3.699c-0.38-1.549-0.899-3.184-1.798-4.515
	c-1.393-2.067-3.335,1.575-3.91,2.474c-0.712,1.122-1.514,2.396-2.855,2.784c-0.049,0.021-0.209-0.06-0.147-0.077
	c1.996-0.578,2.923-3.045,4.039-4.6c0.521-0.722,1.458-1.688,2.438-1.162c1.226,0.66,1.729,2.823,2.101,4.007
	c0.368,1.158,1.328,3.64,0.622,4.835C68.946,36.088,68.774,36.022,68.794,35.991L68.794,35.991z"/>
<path fill="#815C2D" d="M70.867,34.292c0.039-2.742,3.639-7.966,6.416-8.667c3.469-0.88,5.961,2.193,7.131,5.135
	c0.012,0.028-0.16,0.01-0.177-0.038c-0.606-1.521-1.444-2.794-2.628-3.943c-2.765-2.675-4.848-1-6.579,0.684
	c-1.673,1.628-3.946,4.384-3.979,6.877C71.046,34.366,70.867,34.344,70.867,34.292L70.867,34.292z"/>
<path fill="#FFFFFF" toFill="#F39966" stroke="#815C2D" stroke-width="0.4704" stroke-miterlimit="10" d="M13.982,61.418
	c0,0-3.953-6.771,2.445-12.42c0,0-0.374,11.857,9.98,12.793C26.408,61.792,18.69,68.573,13.982,61.418z"/>
<path fill="#FFFFFF" toFill="#F39966" stroke="#815C2D" stroke-width="0.4704" stroke-miterlimit="10" d="M24.901,62.733
	c0,0-12.428-3.006-9.978-11.475c0,0,0.378-1.881,2.636-3.199c0,0,10.918,12.984,12.425,11.102
	C29.984,59.161,26.597,62.361,24.901,62.733z"/>
<path fill="#FFFFFF" toFill="#F39966" stroke="#815C2D" stroke-width="0.4704" stroke-miterlimit="10" d="M28.289,60.476
	c0,0-12.802-4.513-10.73-12.417c0,0,3.2-2.26,5.46-2.26l10.542,10.916C33.562,56.715,30.549,59.727,28.289,60.476z"/>
<path fill="#FFFFFF" toFill="#F39966" stroke="#815C2D" stroke-width="0.4704" stroke-miterlimit="10" d="M32.619,58.027
	c0,0-12.8-1.933-11.107-11.784l4.896-2.131c0,0,4.706,10.053,11.294,9.665L32.619,58.027z"/>
<path fill="#FFFFFF" toFill="#C68D5B" stroke="#815C2D" stroke-width="0.3888" d="M49.729,43.885c0,0-31.068-24.561-49.104-13.876
	c0,0,2.896,26.608,48.109,16.198C48.734,46.208,50.423,46.107,49.729,43.885z"/>
<path fill="none" stroke="#815C2D" stroke-width="0.3888" d="M48.222,43.974c0,0-28.206-11.339-44.822-11.677"/>
<path fill="none" stroke="#815C2D" stroke-width="0.3719" d="M10.214,16.792c0,0,18.678,6.486,26.367,18.451"/>
<path fill="#FFFFFF" d="M73.686,36.775c0.343,1.277,0.369,2.579-0.575,3.603c-0.049,0.056-0.221-0.016-0.168-0.073
	c0.934-1.013,0.896-2.293,0.561-3.549C73.482,36.682,73.667,36.704,73.686,36.775L73.686,36.775z"/>
<path fill="#FFFFFF" d="M77.449,36.965c0.332,1.321,0.02,2.568-0.563,3.775c-0.036,0.068-0.213,0.009-0.184-0.049
	c0.574-1.192,0.889-2.435,0.563-3.75C77.248,36.871,77.431,36.895,77.449,36.965L77.449,36.965z"/>
<path fill="none" stroke="#815C2D" stroke-width="0.1418" stroke-miterlimit="10" d="M67.029,40.784c0,0-2.025,4.953,2.282,5.771"/>
</svg>
