<svg version="1.1" id="svg_0" xmlns="http://www.w3.org/2000/svg" xmlns:xlink="http://www.w3.org/1999/xlink" x="0px" y="0px"
	 width="85.04px" height="85.04px" viewBox="0 0 85.04 85.04" enable-background="new 0 0 85.04 85.04" xml:space="preserve">
<g>
	<defs>
		<path id="SVGID_1_" d="M23.038,30.089c0,3.124,0.744,6.074,2.058,8.688c4.245,2.09,19.367,6.549,34.654-0.171h0.017
			c0.02-0.011,0.039-0.021,0.057-0.032c1.252-2.563,1.955-5.44,1.955-8.484c0-10.697-8.673-19.37-19.371-19.37
			C31.709,10.719,23.038,19.392,23.038,30.089"/>
	</defs>
	<clipPath id="SVGID_2_">
		<use xlink:href="#SVGID_1_"  overflow="visible"/>
	</clipPath>
	
		<linearGradient id="SVGID_3_" gradientUnits="userSpaceOnUse" x1="-387.2017" y1="373.5981" x2="-386.8921" y2="373.5981" gradientTransform="matrix(125.0708 0 0 -125.0708 48450.7227 46754.1289)">
		<stop  offset="0" style="stop-color:#FFFFFF"/>
		<stop  offset="0.9752" style="stop-color:#76C1C6"/>
		<stop  offset="1" style="stop-color:#76C1C6"/>
	</linearGradient>
	<rect x="23.038" y="10.719" clip-path="url(#SVGID_2_)" fill="url(#SVGID_3_)" width="38.74" height="34.606"/>
</g>
<g>
	<path fill="#060606" d="M42.364,42.327c-0.001,0,0,0-0.002,0c-8.217-0.001-14.763-2.145-17.334-3.411l-0.047-0.022l-0.023-0.047
		c-1.377-2.737-2.075-5.683-2.075-8.757c0-10.767,8.759-19.524,19.524-19.524c10.767,0,19.526,8.758,19.526,19.524
		c0,2.996-0.663,5.874-1.971,8.553l-0.021,0.042l-0.158,0.075C54.389,41.125,48.528,42.327,42.364,42.327L42.364,42.327z
		 M25.211,38.661c2.58,1.258,9.04,3.355,17.151,3.355c0.001,0,0.002,0,0.002,0c6.132,0,11.961-1.195,17.323-3.553l0.022-0.009
		c1.27-2.621,1.914-5.436,1.914-8.365c0-10.596-8.621-19.215-19.217-19.215c-10.595,0-19.215,8.619-19.215,19.215
		C23.192,33.097,23.872,35.981,25.211,38.661L25.211,38.661z"/>
</g>
<g>
	<path fill="#060606" d="M42.364,42.365c-0.001,0,0,0-0.002,0c-8.225-0.001-14.776-2.146-17.352-3.415
		c-0.038-0.018-0.068-0.048-0.087-0.086c-1.38-2.742-2.08-5.694-2.08-8.774c0-10.788,8.776-19.563,19.563-19.563
		c10.788,0,19.565,8.775,19.565,19.563c0,3.002-0.665,5.886-1.975,8.569c-0.018,0.034-0.045,0.063-0.077,0.082l-0.061,0.035
		c-0.021,0.011-0.042,0.018-0.064,0.021C54.397,41.165,48.532,42.365,42.364,42.365L42.364,42.365z M25.24,38.631
		c2.584,1.257,9.03,3.346,17.122,3.346c0.001,0,0.002,0,0.002,0c6.128,0,11.95-1.193,17.308-3.549
		c0.004-0.001,0.006-0.002,0.009-0.003c1.264-2.612,1.904-5.416,1.904-8.336c0-10.574-8.604-19.176-19.178-19.176
		c-10.573,0-19.176,8.602-19.176,19.176C23.231,33.086,23.906,35.96,25.24,38.631L25.24,38.631z"/>
</g>
<path fill="#B0DBFA" d="M42.483,63.341L1.901,55.735c0,0,1.008,6.674,14.682,13.395c4.533,2.227,8.538,3.35,14.255,4.237
	c3.235,0.662,7.286,0.992,11.645,0.95c4.36,0.042,8.37-0.288,11.606-0.95c5.717-0.888,9.763-2.011,14.296-4.237
	c13.672-6.72,14.681-13.395,14.681-13.395L42.483,63.341z"/>
<g>
	<path fill="#060606" d="M43.221,74.475c-0.245,0-0.492-0.001-0.739-0.003c-0.245,0.002-0.491,0.003-0.737,0.003
		c-4.097,0-7.879-0.331-10.938-0.958c-5.93-0.919-9.939-2.11-14.292-4.25C2.925,62.589,1.79,56.034,1.748,55.758l-0.032-0.216
		l40.767,7.643l40.77-7.643l-0.033,0.216c-0.042,0.275-1.178,6.831-14.766,13.509c-4.34,2.132-8.361,3.324-14.34,4.253
		C51.061,74.144,47.292,74.475,43.221,74.475L43.221,74.475z M42.482,74.162c0.249,0.002,0.495,0.004,0.739,0.004
		c4.052,0,7.799-0.329,10.837-0.951c5.954-0.923,9.949-2.107,14.259-4.226c12.067-5.93,14.224-11.857,14.545-13.058L42.483,63.5
		l-0.028-0.005L2.106,55.93c0.326,1.203,2.499,7.14,14.545,13.059c4.323,2.125,8.308,3.309,14.211,4.224
		C34.091,73.874,38.123,74.204,42.482,74.162L42.482,74.162z"/>
</g>
<g>
	<path fill="#060606" d="M43.221,74.513c-0.245,0-0.492-0.001-0.74-0.002c-0.243,0.001-0.49,0.002-0.736,0.002
		c-4.1,0-7.885-0.33-10.946-0.958c-5.932-0.92-9.944-2.112-14.302-4.253C2.89,62.615,1.752,56.041,1.71,55.763
		c-0.01-0.062,0.012-0.125,0.057-0.167c0.045-0.044,0.108-0.063,0.17-0.052l40.546,7.601l40.547-7.6
		c0.063-0.012,0.126,0.008,0.171,0.051s0.066,0.105,0.057,0.168c-0.041,0.276-1.18,6.851-14.786,13.537
		c-4.345,2.136-8.368,3.328-14.353,4.256C51.067,74.183,47.295,74.513,43.221,74.513L43.221,74.513z M42.481,74.124
		c0.251,0.002,0.496,0.004,0.74,0.004c4.048,0,7.793-0.329,10.829-0.951c5.95-0.924,9.943-2.106,14.25-4.223
		c11.874-5.835,14.138-11.658,14.509-12.973l-40.29,7.552c-0.024,0.004-0.049,0.004-0.072,0L2.16,55.981
		c0.377,1.317,2.66,7.15,14.508,12.973c4.319,2.123,8.3,3.306,14.2,4.222C34.096,73.836,38.126,74.167,42.481,74.124L42.481,74.124z
		"/>
</g>
<path fill="#89C7C4" d="M61.652,40.697l-6.381-0.429c-10.435,3.209-20.29,1.749-26.073,0.038l-5.81,0.391
	c0,0-14.972,4.257-21.487,15.037c0,0,0.748,2.195,15.911,6.756c9.847,2.959,17.943,3.398,24.708,3.353
	c6.765,0.046,14.86-0.394,24.707-3.353c15.164-4.561,15.911-6.756,15.911-6.756C77.621,45.704,61.652,40.697,61.652,40.697"/>
<g>
	<path fill="#060606" d="M43.408,66C43.407,66,43.408,66,43.408,66c-0.299,0-0.596,0-0.889-0.002C42.227,66,41.931,66,41.632,66
		c-5.903,0-13.951-0.382-23.864-3.362C2.702,58.106,1.786,55.878,1.755,55.785l-0.024-0.068l0.038-0.062
		c6.472-10.71,21.426-15.063,21.576-15.106l0.032-0.006l5.838-0.393l0.027,0.008c2.863,0.847,7.463,1.856,13.115,1.856
		c4.452,0,8.783-0.638,12.869-1.894l0.027-0.009l0.028,0.002l6.416,0.436c0.161,0.05,16.092,5.141,21.576,15.111l0.033,0.06
		l-0.022,0.064c-0.031,0.094-0.947,2.32-16.013,6.853C57.359,65.618,49.311,66,43.408,66L43.408,66z M42.519,65.688
		c0.294,0.001,0.59,0.002,0.888,0.002c5.882,0,13.9-0.38,23.776-3.35c13.583-4.085,15.531-6.231,15.779-6.605
		c-5.384-9.668-20.734-14.69-21.339-14.884l-6.334-0.427c-4.108,1.261-8.459,1.899-12.933,1.899c-5.672,0-10.292-1.01-13.176-1.861
		l-5.766,0.389C22.86,41.013,8.42,45.341,2.08,55.74c0.245,0.367,2.189,2.515,15.778,6.601c9.875,2.97,17.893,3.35,23.775,3.35
		C41.931,65.69,42.226,65.689,42.519,65.688L42.519,65.688z"/>
</g>
<g>
	<path fill="#060606" d="M43.408,66.039C43.407,66.039,43.408,66.039,43.408,66.039c-0.299,0-0.596-0.001-0.89-0.003
		c-0.291,0.002-0.587,0.003-0.886,0.003c-5.906,0-13.957-0.383-23.875-3.364C2.672,58.138,1.75,55.89,1.718,55.797
		c-0.018-0.054-0.012-0.113,0.018-0.162c6.48-10.724,21.449-15.082,21.6-15.124c0.013-0.005,0.027-0.006,0.04-0.008l5.81-0.39
		c0.022-0.003,0.046,0,0.067,0.007c2.861,0.846,7.458,1.855,13.104,1.855c4.448,0,8.774-0.637,12.857-1.893
		c0.022-0.008,0.046-0.011,0.069-0.008l6.382,0.428c0.016,0.002,0.03,0.004,0.044,0.009c0.16,0.051,16.106,5.145,21.599,15.129
		c0.026,0.048,0.031,0.104,0.014,0.156c-0.032,0.093-0.954,2.341-16.039,6.877C57.366,65.656,49.313,66.039,43.408,66.039
		L43.408,66.039z M42.518,65.648c0.296,0.003,0.591,0.004,0.889,0.004c5.88,0,13.896-0.381,23.765-3.348
		c13.373-4.022,15.454-6.163,15.744-6.57c-5.374-9.621-20.631-14.631-21.3-14.846l-6.322-0.424
		c-4.109,1.26-8.462,1.898-12.937,1.898c-5.672,0-10.293-1.01-13.18-1.86l-5.755,0.386c-0.612,0.181-14.97,4.503-21.296,14.851
		c0.285,0.398,2.359,2.54,15.744,6.565c9.87,2.967,17.884,3.348,23.763,3.348C41.931,65.652,42.226,65.651,42.518,65.648
		L42.518,65.648z"/>
</g>
<g>
	<path fill="#060606" d="M43.347,64.93l-0.466-0.001c-0.051,0-0.092-0.042-0.092-0.095c0-0.05,0.042-0.092,0.093-0.092l0,0
		l0.465,0.002c0.051,0,0.092,0.041,0.092,0.092C43.439,64.888,43.398,64.93,43.347,64.93L43.347,64.93z M41.798,64.93
		c-0.051,0-0.093-0.042-0.093-0.094c0-0.051,0.042-0.092,0.093-0.092l0.464-0.002l0,0c0.052,0,0.094,0.041,0.094,0.092
		c0,0.052-0.041,0.094-0.093,0.094L41.798,64.93L41.798,64.93z M41.179,64.929L41.179,64.929l-0.465-0.003
		c-0.051-0.001-0.092-0.043-0.092-0.094c0-0.052,0.038-0.105,0.093-0.093l0.464,0.003c0.052,0.001,0.094,0.043,0.093,0.093
		C41.271,64.887,41.229,64.929,41.179,64.929L41.179,64.929z M43.966,64.929c-0.051,0-0.093-0.042-0.093-0.094
		c0-0.05,0.041-0.093,0.093-0.093l0.465-0.003l0,0c0.051,0,0.092,0.041,0.092,0.093c0.001,0.05-0.039,0.092-0.091,0.093
		L43.966,64.929L43.966,64.929L43.966,64.929z M40.094,64.919L40.094,64.919l-0.466-0.008c-0.051-0.001-0.092-0.043-0.091-0.094
		c0.001-0.051,0.042-0.092,0.092-0.092c0,0,0.001,0,0.002,0l0.464,0.008c0.051,0.001,0.093,0.043,0.092,0.094
		C40.187,64.879,40.146,64.919,40.094,64.919L40.094,64.919z M45.05,64.917c-0.051,0-0.093-0.04-0.093-0.091
		c-0.001-0.052,0.04-0.093,0.092-0.095l0.464-0.008c0.045,0.004,0.093,0.041,0.095,0.092c0.001,0.051-0.04,0.094-0.091,0.094
		l-0.465,0.008C45.051,64.917,45.05,64.917,45.05,64.917L45.05,64.917z M39.011,64.899c-0.001,0-0.001,0-0.002,0l-0.465-0.012
		c-0.052-0.002-0.092-0.044-0.09-0.096c0.002-0.052,0.042-0.093,0.096-0.09l0.464,0.012c0.051,0.001,0.092,0.044,0.091,0.095
		C39.103,64.859,39.061,64.899,39.011,64.899L39.011,64.899z M46.134,64.896c-0.051,0-0.092-0.039-0.093-0.09
		c-0.002-0.051,0.038-0.094,0.09-0.096l0.465-0.013c0.054,0,0.094,0.04,0.096,0.09c0.001,0.053-0.039,0.095-0.091,0.096
		l-0.465,0.013C46.135,64.896,46.135,64.896,46.134,64.896L46.134,64.896z M37.927,64.869c0,0-0.001,0-0.002,0l-0.465-0.02
		c-0.051-0.001-0.091-0.045-0.089-0.097c0.002-0.051,0.042-0.094,0.097-0.089l0.464,0.019c0.051,0.001,0.091,0.044,0.089,0.096
		C38.019,64.828,37.977,64.869,37.927,64.869L37.927,64.869z M47.218,64.863c-0.05,0-0.091-0.039-0.094-0.089
		c-0.002-0.051,0.039-0.095,0.09-0.097l0.464-0.018c0.062,0.006,0.095,0.038,0.097,0.089s-0.038,0.095-0.089,0.097l-0.465,0.018
		C47.22,64.863,47.219,64.863,47.218,64.863L47.218,64.863z M36.844,64.822c-0.001,0-0.002,0-0.004,0l-0.465-0.022
		c-0.051-0.002-0.09-0.048-0.088-0.098c0.003-0.051,0.047-0.085,0.098-0.088l0.464,0.022c0.051,0.003,0.091,0.047,0.088,0.098
		C36.934,64.784,36.893,64.822,36.844,64.822L36.844,64.822z M48.3,64.818c-0.049,0-0.09-0.039-0.092-0.089
		c-0.003-0.052,0.036-0.095,0.088-0.098l0.464-0.024c0.047-0.003,0.094,0.037,0.098,0.089c0.002,0.052-0.037,0.095-0.089,0.098
		l-0.464,0.024C48.303,64.818,48.301,64.818,48.3,64.818L48.3,64.818z M35.762,64.764c-0.002,0-0.004,0-0.006,0l-0.464-0.028
		c-0.052-0.004-0.09-0.047-0.086-0.1c0.003-0.051,0.05-0.091,0.098-0.087l0.463,0.03c0.051,0.002,0.09,0.047,0.087,0.098
		C35.851,64.726,35.81,64.764,35.762,64.764L35.762,64.764z M49.382,64.758c-0.048,0-0.089-0.039-0.092-0.088
		c-0.004-0.051,0.036-0.095,0.087-0.099l0.463-0.028c0.051-0.003,0.097,0.034,0.1,0.085c0.003,0.052-0.035,0.096-0.087,0.1
		l-0.464,0.03C49.387,64.758,49.385,64.758,49.382,64.758L49.382,64.758z M34.68,64.693c-0.002,0-0.005,0-0.007,0l-0.463-0.036
		c-0.051-0.003-0.089-0.049-0.085-0.1s0.053-0.094,0.1-0.085l0.463,0.035c0.05,0.003,0.089,0.049,0.085,0.1
		C34.769,64.655,34.728,64.693,34.68,64.693L34.68,64.693z M50.464,64.685c-0.048,0-0.089-0.037-0.093-0.086
		c-0.003-0.052,0.034-0.096,0.086-0.101l0.463-0.035c0.046-0.006,0.096,0.034,0.101,0.086c0.003,0.051-0.034,0.096-0.086,0.1
		l-0.464,0.036C50.469,64.685,50.466,64.685,50.464,64.685L50.464,64.685z M33.599,64.607c-0.002,0-0.005,0-0.008-0.001l-0.464-0.04
		c-0.051-0.006-0.089-0.051-0.083-0.103c0.004-0.05,0.052-0.088,0.101-0.084l0.462,0.042c0.051,0.004,0.089,0.049,0.084,0.1
		C33.688,64.57,33.647,64.607,33.599,64.607L33.599,64.607z M51.545,64.598c-0.048,0-0.088-0.038-0.093-0.085
		c-0.004-0.052,0.033-0.097,0.085-0.101L52,64.371c0.049-0.006,0.097,0.032,0.102,0.084c0.004,0.051-0.033,0.097-0.085,0.102
		l-0.462,0.041C51.55,64.598,51.548,64.598,51.545,64.598L51.545,64.598z M32.521,64.506c-0.004,0-0.007-0.001-0.01-0.001
		l-0.462-0.048c-0.051-0.005-0.088-0.051-0.083-0.102c0.005-0.052,0.05-0.088,0.102-0.083l0.461,0.048
		c0.052,0.006,0.088,0.051,0.083,0.102C32.607,64.47,32.567,64.506,32.521,64.506L32.521,64.506z M52.624,64.496
		c-0.046,0-0.086-0.035-0.091-0.083c-0.007-0.052,0.031-0.097,0.083-0.103l0.462-0.048c0.051-0.007,0.096,0.031,0.102,0.082
		c0.006,0.052-0.031,0.097-0.082,0.104l-0.463,0.048C52.631,64.496,52.628,64.496,52.624,64.496L52.624,64.496z M31.442,64.39
		c-0.004,0-0.007,0-0.011,0c-0.153-0.018-0.307-0.036-0.462-0.055c-0.051-0.006-0.087-0.052-0.081-0.103
		c0.006-0.052,0.055-0.087,0.104-0.081c0.154,0.019,0.308,0.036,0.46,0.055c0.051,0.004,0.088,0.05,0.082,0.101
		C31.528,64.356,31.489,64.39,31.442,64.39L31.442,64.39z M53.703,64.379c-0.046,0-0.088-0.035-0.093-0.083
		c-0.006-0.051,0.031-0.097,0.082-0.104l0.461-0.055c0.049-0.006,0.097,0.03,0.104,0.082c0.006,0.051-0.03,0.097-0.082,0.104
		l-0.461,0.054C53.709,64.379,53.706,64.379,53.703,64.379L53.703,64.379z M30.366,64.261c-0.004,0-0.008-0.001-0.012-0.002
		l-0.461-0.061c-0.05-0.006-0.086-0.053-0.08-0.104c0.006-0.052,0.054-0.088,0.104-0.08l0.46,0.061
		c0.051,0.007,0.087,0.054,0.081,0.104C30.452,64.226,30.412,64.261,30.366,64.261L30.366,64.261z M54.778,64.247
		c-0.046,0-0.086-0.033-0.092-0.081c-0.007-0.051,0.029-0.097,0.08-0.104L55.227,64c0.049-0.007,0.098,0.028,0.104,0.08
		c0.007,0.05-0.029,0.098-0.08,0.104l-0.462,0.062C54.787,64.247,54.783,64.247,54.778,64.247L54.778,64.247z M29.292,64.115
		c-0.004,0-0.009,0-0.014-0.001l-0.459-0.066c-0.051-0.008-0.086-0.056-0.079-0.105c0.007-0.052,0.055-0.086,0.105-0.079
		l0.459,0.068c0.051,0.007,0.086,0.053,0.079,0.104C29.376,64.082,29.337,64.115,29.292,64.115L29.292,64.115z M55.852,64.1
		c-0.045,0-0.085-0.033-0.092-0.079c-0.008-0.051,0.027-0.099,0.079-0.105c0.152-0.021,0.306-0.045,0.459-0.068
		c0.052-0.005,0.099,0.027,0.105,0.078c0.008,0.052-0.027,0.099-0.078,0.105c-0.152,0.023-0.307,0.046-0.46,0.069
		C55.861,64.1,55.857,64.1,55.852,64.1L55.852,64.1z M28.219,63.955c-0.004,0-0.009,0-0.014-0.001
		c-0.152-0.023-0.306-0.049-0.459-0.074c-0.051-0.009-0.085-0.057-0.077-0.106c0.008-0.051,0.057-0.085,0.106-0.076
		c0.153,0.024,0.306,0.049,0.458,0.072c0.05,0.008,0.085,0.056,0.078,0.107C28.304,63.921,28.265,63.955,28.219,63.955
		L28.219,63.955z M56.924,63.938c-0.045,0-0.084-0.033-0.092-0.079c-0.009-0.05,0.026-0.098,0.077-0.106l0.458-0.073
		c0.053-0.009,0.099,0.025,0.107,0.076c0.008,0.052-0.026,0.1-0.077,0.106l-0.46,0.075C56.933,63.938,56.929,63.938,56.924,63.938
		L56.924,63.938z M27.15,63.779c-0.005,0-0.01-0.001-0.016-0.002l-0.458-0.08c-0.05-0.009-0.084-0.057-0.075-0.107
		s0.057-0.084,0.108-0.075l0.457,0.079c0.05,0.009,0.084,0.058,0.076,0.108C27.233,63.747,27.194,63.779,27.15,63.779L27.15,63.779z
		 M57.994,63.76c-0.044,0-0.084-0.031-0.091-0.077c-0.009-0.051,0.024-0.099,0.075-0.107l0.457-0.079
		c0.05-0.009,0.098,0.024,0.108,0.073c0.008,0.051-0.025,0.1-0.075,0.108l-0.459,0.081C58.003,63.76,58,63.76,57.994,63.76
		L57.994,63.76z M26.083,63.587c-0.005,0-0.012-0.001-0.017-0.002l-0.457-0.087c-0.05-0.009-0.083-0.058-0.074-0.108
		c0.01-0.051,0.06-0.085,0.109-0.072l0.456,0.085c0.051,0.011,0.084,0.059,0.075,0.108C26.166,63.556,26.126,63.587,26.083,63.587
		L26.083,63.587z M59.061,63.568c-0.045,0-0.084-0.031-0.092-0.075c-0.01-0.052,0.023-0.1,0.074-0.109
		c0.15-0.028,0.304-0.057,0.455-0.087c0.05-0.01,0.1,0.023,0.109,0.074s-0.022,0.099-0.073,0.108
		c-0.152,0.03-0.305,0.059-0.457,0.087C59.072,63.568,59.067,63.568,59.061,63.568L59.061,63.568z M25.019,63.38
		c-0.006,0-0.012-0.001-0.019-0.001c-0.151-0.03-0.303-0.062-0.456-0.094c-0.05-0.01-0.083-0.059-0.072-0.109
		c0.01-0.052,0.061-0.08,0.11-0.072c0.152,0.033,0.303,0.063,0.455,0.093c0.05,0.011,0.083,0.06,0.073,0.109
		C25.101,63.351,25.062,63.38,25.019,63.38L25.019,63.38z M60.124,63.36c-0.042,0-0.082-0.03-0.09-0.074
		c-0.01-0.051,0.021-0.1,0.072-0.109l0.455-0.093c0.051-0.01,0.1,0.021,0.109,0.071c0.011,0.051-0.021,0.101-0.071,0.11
		l-0.455,0.094C60.137,63.36,60.13,63.36,60.124,63.36L60.124,63.36z M23.958,63.16c-0.007,0-0.014,0-0.02-0.001
		c-0.151-0.034-0.303-0.066-0.455-0.101c-0.05-0.011-0.082-0.061-0.07-0.11c0.011-0.051,0.06-0.082,0.111-0.071
		c0.151,0.034,0.302,0.067,0.453,0.1c0.05,0.011,0.082,0.061,0.071,0.11C24.039,63.13,24,63.16,23.958,63.16L23.958,63.16z
		 M61.185,63.138c-0.042,0-0.081-0.029-0.09-0.074c-0.012-0.05,0.021-0.099,0.07-0.11l0.453-0.1c0.049-0.013,0.101,0.02,0.111,0.07
		c0.011,0.05-0.021,0.1-0.07,0.111l-0.454,0.1C61.199,63.137,61.192,63.138,61.185,63.138L61.185,63.138z M22.899,62.924
		c-0.007,0-0.014-0.001-0.021-0.004c-0.151-0.034-0.301-0.068-0.454-0.104c-0.049-0.012-0.08-0.063-0.069-0.111
		c0.012-0.05,0.063-0.08,0.112-0.069c0.151,0.035,0.302,0.07,0.452,0.104c0.049,0.013,0.081,0.061,0.069,0.112
		C22.98,62.895,22.941,62.924,22.899,62.924L22.899,62.924z M62.243,62.901c-0.042,0-0.08-0.029-0.09-0.073
		c-0.012-0.049,0.019-0.1,0.069-0.111l0.452-0.105c0.049-0.012,0.1,0.019,0.11,0.068c0.014,0.05-0.018,0.101-0.068,0.112
		l-0.452,0.106C62.257,62.899,62.25,62.901,62.243,62.901L62.243,62.901z M21.844,62.673c-0.007,0-0.014-0.001-0.022-0.003
		l-0.451-0.111c-0.05-0.013-0.081-0.063-0.068-0.113c0.013-0.05,0.063-0.08,0.113-0.067l0.451,0.111
		c0.049,0.013,0.08,0.063,0.068,0.112C21.924,62.644,21.886,62.673,21.844,62.673L21.844,62.673z M63.297,62.649
		c-0.042,0-0.08-0.029-0.09-0.071c-0.014-0.051,0.019-0.101,0.067-0.113l0.451-0.111c0.049-0.011,0.1,0.017,0.113,0.067
		c0.013,0.049-0.019,0.1-0.069,0.112l-0.45,0.112C63.312,62.648,63.305,62.649,63.297,62.649L63.297,62.649z M20.793,62.408
		c-0.008,0-0.015,0-0.023-0.002l-0.45-0.119c-0.049-0.013-0.079-0.064-0.065-0.113c0.013-0.049,0.063-0.079,0.113-0.066l0.449,0.117
		c0.05,0.013,0.08,0.064,0.066,0.114C20.873,62.38,20.835,62.408,20.793,62.408L20.793,62.408z M64.348,62.381
		c-0.041,0-0.079-0.027-0.09-0.069c-0.013-0.05,0.017-0.101,0.066-0.113l0.449-0.118c0.05-0.013,0.101,0.017,0.113,0.065
		c0.013,0.05-0.016,0.101-0.066,0.114l-0.449,0.118C64.364,62.38,64.356,62.381,64.348,62.381L64.348,62.381z M19.746,62.128
		c-0.008,0-0.017-0.001-0.024-0.004l-0.448-0.123c-0.049-0.015-0.079-0.065-0.065-0.115c0.014-0.05,0.065-0.077,0.115-0.064
		l0.447,0.124c0.049,0.014,0.079,0.064,0.065,0.115C19.824,62.102,19.787,62.128,19.746,62.128L19.746,62.128z M65.395,62.102
		c-0.04,0-0.078-0.028-0.089-0.069c-0.014-0.051,0.015-0.101,0.063-0.114l0.448-0.125c0.048-0.015,0.101,0.016,0.115,0.064
		c0.014,0.05-0.016,0.102-0.065,0.115l-0.448,0.124C65.412,62.1,65.404,62.102,65.395,62.102L65.395,62.102z M18.702,61.835
		c-0.008,0-0.018-0.001-0.025-0.004l-0.447-0.13c-0.049-0.015-0.077-0.066-0.063-0.115c0.015-0.049,0.066-0.076,0.116-0.063
		l0.445,0.13c0.049,0.014,0.078,0.064,0.063,0.114C18.78,61.809,18.743,61.835,18.702,61.835L18.702,61.835z M66.439,61.806
		c-0.041,0-0.078-0.026-0.09-0.067c-0.014-0.049,0.014-0.101,0.063-0.115l0.446-0.13c0.048-0.015,0.1,0.013,0.114,0.063
		c0.016,0.049-0.014,0.099-0.063,0.114l-0.444,0.13C66.456,61.805,66.447,61.806,66.439,61.806L66.439,61.806z M17.663,61.528
		c-0.009,0-0.018-0.002-0.027-0.004l-0.445-0.135c-0.049-0.016-0.077-0.067-0.062-0.116s0.066-0.076,0.116-0.062l0.444,0.135
		c0.049,0.015,0.077,0.067,0.062,0.117C17.74,61.501,17.703,61.528,17.663,61.528L17.663,61.528z M67.478,61.498
		c-0.04,0-0.076-0.025-0.089-0.066c-0.015-0.05,0.014-0.101,0.063-0.115l0.443-0.136c0.049-0.015,0.101,0.014,0.115,0.063
		c0.016,0.049-0.013,0.101-0.062,0.116l-0.443,0.135C67.496,61.497,67.486,61.498,67.478,61.498L67.478,61.498z M16.625,61.212
		c-0.009,0-0.018-0.002-0.027-0.004l-0.444-0.139c-0.049-0.015-0.077-0.066-0.061-0.115c0.015-0.05,0.067-0.077,0.116-0.062
		l0.444,0.137c0.049,0.016,0.076,0.067,0.062,0.116C16.703,61.187,16.666,61.212,16.625,61.212L16.625,61.212z M68.513,61.181
		c-0.038,0-0.075-0.026-0.088-0.066c-0.015-0.049,0.013-0.1,0.062-0.115l0.444-0.138c0.049-0.016,0.1,0.012,0.115,0.061
		c0.017,0.05-0.012,0.102-0.062,0.118l-0.443,0.137C68.534,61.18,68.523,61.181,68.513,61.181L68.513,61.181z M15.59,60.89
		c-0.009,0-0.019-0.002-0.028-0.005l-0.442-0.14c-0.049-0.016-0.077-0.068-0.061-0.117c0.015-0.048,0.067-0.075,0.117-0.061
		l0.443,0.141c0.048,0.016,0.076,0.067,0.061,0.117C15.667,60.865,15.63,60.89,15.59,60.89L15.59,60.89z M69.549,60.859
		c-0.039,0-0.076-0.025-0.089-0.065c-0.016-0.049,0.012-0.101,0.061-0.116l0.443-0.141c0.049-0.016,0.101,0.012,0.116,0.06
		c0.016,0.05-0.012,0.102-0.061,0.117l-0.443,0.141C69.568,60.857,69.558,60.859,69.549,60.859L69.549,60.859z M14.558,60.561
		c-0.009,0-0.019-0.001-0.028-0.005l-0.442-0.142c-0.049-0.018-0.075-0.069-0.06-0.118c0.016-0.049,0.068-0.075,0.117-0.06
		l0.441,0.144c0.049,0.015,0.076,0.068,0.06,0.116C14.633,60.537,14.597,60.561,14.558,60.561L14.558,60.561z M70.582,60.529
		c-0.039,0-0.076-0.024-0.089-0.064c-0.015-0.049,0.012-0.101,0.061-0.118l0.441-0.143c0.049-0.017,0.102,0.011,0.117,0.06
		s-0.012,0.103-0.06,0.117l-0.442,0.145C70.601,60.527,70.591,60.529,70.582,60.529L70.582,60.529z M13.527,60.224
		c-0.009,0-0.02-0.001-0.029-0.004l-0.441-0.146c-0.049-0.017-0.075-0.069-0.059-0.118c0.016-0.049,0.068-0.074,0.118-0.058
		l0.439,0.145c0.049,0.017,0.076,0.069,0.06,0.118C13.603,60.2,13.567,60.224,13.527,60.224L13.527,60.224z M71.612,60.192
		c-0.039,0-0.075-0.025-0.088-0.064c-0.017-0.049,0.009-0.1,0.059-0.117l0.44-0.147c0.049-0.014,0.102,0.012,0.117,0.06
		c0.017,0.049-0.01,0.102-0.059,0.118l-0.44,0.146C71.63,60.19,71.622,60.192,71.612,60.192L71.612,60.192z M12.5,59.881
		c-0.01,0-0.021-0.003-0.03-0.006l-0.439-0.15c-0.048-0.018-0.075-0.068-0.058-0.117c0.017-0.05,0.069-0.075,0.118-0.059l0.439,0.15
		c0.048,0.017,0.074,0.068,0.058,0.117C12.575,59.857,12.538,59.881,12.5,59.881L12.5,59.881z M72.639,59.847
		c-0.038,0-0.074-0.024-0.088-0.063c-0.017-0.05,0.009-0.102,0.058-0.118l0.439-0.15c0.049-0.017,0.101,0.01,0.118,0.059
		c0.016,0.048-0.009,0.101-0.058,0.117l-0.439,0.15C72.66,59.845,72.65,59.847,72.639,59.847L72.639,59.847z M11.476,59.526
		c-0.01,0-0.021,0-0.031-0.005l-0.438-0.153c-0.048-0.019-0.074-0.071-0.057-0.119c0.018-0.049,0.071-0.074,0.12-0.058l0.438,0.154
		c0.048,0.018,0.074,0.07,0.057,0.119C11.55,59.502,11.514,59.526,11.476,59.526L11.476,59.526z M73.664,59.492
		c-0.038,0-0.074-0.022-0.088-0.063c-0.018-0.049,0.008-0.101,0.057-0.118l0.438-0.154c0.049-0.018,0.102,0.008,0.119,0.057
		c0.017,0.048-0.009,0.101-0.057,0.119l-0.438,0.154C73.684,59.491,73.674,59.492,73.664,59.492L73.664,59.492z M10.455,59.164
		c-0.011,0-0.021-0.002-0.032-0.006l-0.436-0.16c-0.049-0.017-0.073-0.071-0.056-0.119c0.018-0.049,0.071-0.071,0.119-0.055
		l0.436,0.159c0.048,0.018,0.073,0.071,0.055,0.119C10.528,59.14,10.492,59.164,10.455,59.164L10.455,59.164z M74.684,59.127
		c-0.038,0-0.074-0.023-0.088-0.062c-0.018-0.048,0.007-0.102,0.055-0.119l0.437-0.159c0.048-0.019,0.102,0.007,0.119,0.056
		c0.019,0.047-0.006,0.102-0.055,0.117l-0.437,0.16C74.705,59.125,74.695,59.127,74.684,59.127L74.684,59.127z M9.438,58.789
		c-0.011,0-0.022-0.003-0.033-0.007l-0.434-0.165c-0.048-0.019-0.072-0.072-0.054-0.12c0.019-0.048,0.072-0.071,0.12-0.054
		l0.433,0.165c0.048,0.018,0.073,0.072,0.055,0.119C9.511,58.765,9.475,58.789,9.438,58.789L9.438,58.789z M75.699,58.75
		c-0.036,0-0.071-0.023-0.085-0.061c-0.02-0.047,0.005-0.103,0.054-0.12l0.434-0.164c0.047-0.019,0.102,0.004,0.12,0.053
		c0.018,0.048-0.007,0.102-0.055,0.12l-0.434,0.166C75.722,58.749,75.71,58.75,75.699,58.75L75.699,58.75z M8.427,58.398
		c-0.012,0-0.023-0.002-0.035-0.005c-0.146-0.06-0.291-0.116-0.432-0.172c-0.048-0.02-0.071-0.074-0.051-0.122
		c0.019-0.048,0.073-0.069,0.121-0.051c0.14,0.057,0.284,0.112,0.431,0.171c0.047,0.019,0.071,0.073,0.052,0.121
		C8.499,58.375,8.463,58.398,8.427,58.398L8.427,58.398z M76.71,58.361c-0.037,0-0.072-0.022-0.086-0.06
		c-0.019-0.047,0.004-0.102,0.052-0.12c0.147-0.059,0.29-0.116,0.431-0.172c0.048-0.019,0.102,0.004,0.121,0.051
		c0.021,0.048-0.003,0.102-0.05,0.121c-0.143,0.057-0.287,0.115-0.433,0.173C76.733,58.358,76.721,58.361,76.71,58.361L76.71,58.361
		z M7.422,57.994c-0.012,0-0.024-0.002-0.036-0.007c-0.146-0.061-0.29-0.12-0.429-0.18c-0.047-0.02-0.069-0.074-0.049-0.122
		s0.075-0.068,0.122-0.049c0.139,0.06,0.281,0.118,0.428,0.18c0.048,0.019,0.07,0.072,0.051,0.12
		C7.493,57.972,7.458,57.994,7.422,57.994L7.422,57.994z M77.715,57.954c-0.037,0-0.071-0.021-0.086-0.057
		c-0.02-0.047,0.003-0.102,0.05-0.122c0.146-0.062,0.289-0.121,0.427-0.18c0.047-0.021,0.103,0.002,0.122,0.049
		c0.021,0.048-0.001,0.103-0.049,0.123c-0.138,0.058-0.282,0.118-0.429,0.18C77.739,57.951,77.727,57.954,77.715,57.954
		L77.715,57.954z M6.425,57.57c-0.012,0-0.025-0.002-0.037-0.008c-0.146-0.064-0.289-0.127-0.425-0.188
		c-0.047-0.021-0.067-0.076-0.046-0.123c0.021-0.048,0.077-0.068,0.123-0.048c0.137,0.063,0.278,0.125,0.424,0.189
		c0.047,0.021,0.068,0.075,0.047,0.122C6.495,57.549,6.46,57.57,6.425,57.57L6.425,57.57z M78.71,57.527
		c-0.035,0-0.069-0.021-0.084-0.055c-0.021-0.048,0-0.102,0.047-0.123c0.146-0.063,0.286-0.126,0.423-0.188
		c0.047-0.022,0.103-0.001,0.124,0.045c0.021,0.047,0,0.103-0.047,0.124c-0.138,0.063-0.278,0.126-0.425,0.189
		C78.736,57.526,78.723,57.527,78.71,57.527L78.71,57.527z M5.438,57.122c-0.013,0-0.026-0.003-0.04-0.009
		c-0.146-0.068-0.286-0.137-0.42-0.201c-0.046-0.022-0.065-0.079-0.042-0.125c0.023-0.046,0.079-0.064,0.125-0.042
		c0.133,0.065,0.272,0.133,0.417,0.2c0.046,0.021,0.066,0.077,0.045,0.124C5.507,57.102,5.473,57.122,5.438,57.122L5.438,57.122z
		 M79.696,57.078c-0.034,0-0.067-0.021-0.084-0.055c-0.021-0.046-0.002-0.101,0.045-0.123c0.144-0.069,0.283-0.137,0.416-0.201
		c0.046-0.022,0.103-0.005,0.125,0.041c0.022,0.047,0.003,0.103-0.043,0.125c-0.135,0.066-0.272,0.133-0.418,0.203
		C79.723,57.074,79.709,57.078,79.696,57.078L79.696,57.078z M4.467,56.643c-0.014,0-0.029-0.004-0.042-0.012
		c-0.146-0.075-0.282-0.147-0.411-0.218c-0.046-0.024-0.063-0.08-0.038-0.127C4,56.243,4.057,56.226,4.102,56.25
		c0.128,0.069,0.264,0.143,0.408,0.217c0.046,0.024,0.063,0.08,0.04,0.125C4.533,56.624,4.5,56.643,4.467,56.643L4.467,56.643z
		 M80.667,56.594c-0.033,0-0.067-0.019-0.082-0.05c-0.025-0.045-0.008-0.102,0.037-0.125c0.145-0.076,0.28-0.148,0.408-0.22
		c0.045-0.024,0.101-0.008,0.126,0.037c0.024,0.045,0.009,0.101-0.037,0.125c-0.127,0.072-0.265,0.145-0.409,0.222
		C80.695,56.59,80.681,56.594,80.667,56.594L80.667,56.594z M3.519,56.12c-0.016,0-0.033-0.004-0.047-0.013
		c-0.146-0.086-0.278-0.168-0.398-0.245c-0.043-0.028-0.056-0.086-0.028-0.128c0.028-0.043,0.084-0.057,0.128-0.028
		c0.119,0.076,0.249,0.156,0.392,0.241c0.044,0.026,0.059,0.084,0.033,0.127C3.582,56.103,3.551,56.12,3.519,56.12L3.519,56.12z
		 M81.611,56.065c-0.031,0-0.063-0.015-0.08-0.044c-0.026-0.045-0.012-0.102,0.032-0.129c0.143-0.086,0.272-0.166,0.39-0.243
		c0.043-0.028,0.102-0.018,0.129,0.026c0.027,0.043,0.017,0.101-0.027,0.128c-0.119,0.079-0.25,0.161-0.396,0.249
		C81.644,56.061,81.627,56.065,81.611,56.065L81.611,56.065z M2.614,55.527c-0.019,0-0.039-0.007-0.055-0.021
		c-0.139-0.103-0.262-0.203-0.366-0.297c-0.038-0.034-0.041-0.093-0.007-0.131c0.034-0.039,0.093-0.041,0.131-0.007
		c0.1,0.09,0.219,0.187,0.353,0.287c0.042,0.03,0.05,0.088,0.019,0.13C2.671,55.513,2.643,55.527,2.614,55.527L2.614,55.527z
		 M82.508,55.462c-0.027,0-0.055-0.013-0.073-0.036c-0.032-0.041-0.023-0.1,0.017-0.13c0.107-0.084,0.196-0.158,0.271-0.225
		c0.037-0.034,0.097-0.032,0.131,0.007s0.031,0.097-0.007,0.131c-0.076,0.069-0.169,0.147-0.281,0.234
		C82.548,55.457,82.529,55.462,82.508,55.462L82.508,55.462z"/>
</g>
<path fill="#F0B0CA" d="M47.982,56.661c0-2.98-2.416-5.396-5.397-5.396c-2.981,0-5.398,2.416-5.398,5.396
	c0,2.982,2.417,5.399,5.398,5.399C45.566,62.06,47.982,59.643,47.982,56.661"/>
<g>
	<path fill="#060606" d="M42.584,62.214c-3.062,0-5.553-2.491-5.553-5.554c0-3.061,2.491-5.552,5.553-5.552
		c3.063,0,5.554,2.491,5.554,5.552C48.138,59.723,45.647,62.214,42.584,62.214L42.584,62.214z M42.584,51.418
		c-2.891,0-5.243,2.353-5.243,5.242c0,2.893,2.352,5.244,5.243,5.244c2.892,0,5.244-2.352,5.244-5.244
		C47.829,53.771,45.476,51.418,42.584,51.418L42.584,51.418z"/>
</g>
<g>
	<path fill="#060606" d="M42.584,62.253c-3.083,0-5.591-2.508-5.591-5.593c0-3.082,2.509-5.59,5.591-5.59
		c3.149,0,5.592,3.005,5.592,5.59C48.176,59.746,45.667,62.253,42.584,62.253L42.584,62.253z M42.584,51.458
		c-2.869,0-5.205,2.335-5.205,5.203c0,2.871,2.335,5.205,5.205,5.205c2.87,0,5.205-2.334,5.205-5.205
		C47.79,54.254,45.516,51.458,42.584,51.458L42.584,51.458z"/>
</g>
<path fill="#FFFFFF" d="M46.521,56.661c0-2.173-1.762-3.935-3.937-3.935c-2.173,0-3.935,1.762-3.935,3.935
	c0,2.175,1.762,3.937,3.935,3.937C44.759,60.597,46.521,58.835,46.521,56.661"/>
<g>
	<path fill="#060606" d="M42.584,60.753c-2.255,0-4.09-1.836-4.09-4.093c0-2.255,1.834-4.09,4.09-4.09
		c2.256,0,4.092,1.835,4.092,4.09C46.676,58.917,44.84,60.753,42.584,60.753L42.584,60.753z M42.584,52.88
		c-2.084,0-3.78,1.696-3.78,3.78c0,2.086,1.696,3.782,3.78,3.782c2.085,0,3.781-1.696,3.781-3.782
		C46.366,54.577,44.669,52.88,42.584,52.88L42.584,52.88z"/>
</g>
<g>
	<path fill="#060606" d="M42.584,60.791c-2.276,0-4.128-1.852-4.128-4.13c0-2.275,1.852-4.129,4.128-4.129
		c3.359,0,4.13,3.588,4.13,4.129C46.714,58.939,44.861,60.791,42.584,60.791L42.584,60.791z M42.584,52.919
		c-2.063,0-3.742,1.68-3.742,3.741c0,2.065,1.678,3.743,3.742,3.743s3.742-1.678,3.742-3.743
		C46.327,56.17,45.629,52.919,42.584,52.919L42.584,52.919z"/>
</g>
<path fill="#EFB2CC" d="M19.008,51.424c0.313-2.72-1.638-4.924-4.358-4.924c-2.72,0-5.179,2.204-5.492,4.924
	c-0.313,2.721,1.64,4.925,4.359,4.925C16.238,56.349,18.696,54.145,19.008,51.424"/>
<g>
	<path fill="#060606" d="M13.518,56.504c-1.354,0-2.57-0.527-3.423-1.483c-0.86-0.964-1.247-2.249-1.09-3.614
		c0.32-2.791,2.854-5.062,5.646-5.062c1.354,0,2.569,0.526,3.421,1.482c0.861,0.966,1.248,2.248,1.091,3.615
		C18.842,54.233,16.31,56.504,13.518,56.504L13.518,56.504z M14.65,46.656c-2.64,0-5.035,2.146-5.338,4.787
		c-0.146,1.277,0.213,2.474,1.013,3.373c0.793,0.889,1.927,1.379,3.192,1.379c2.64,0,5.033-2.147,5.337-4.788
		c0.146-1.276-0.213-2.475-1.014-3.373C17.047,47.145,15.915,46.656,14.65,46.656L14.65,46.656z"/>
</g>
<g>
	<path fill="#060606" d="M13.518,56.542c-1.366,0-2.592-0.531-3.452-1.495c-0.868-0.975-1.258-2.268-1.1-3.645
		c0.323-2.81,2.873-5.097,5.684-5.097c1.365,0,2.59,0.531,3.45,1.495c0.868,0.975,1.258,2.269,1.1,3.646
		C18.878,54.257,16.329,56.542,13.518,56.542L13.518,56.542z M14.65,46.693c-2.622,0-4.998,2.133-5.3,4.754
		c-0.146,1.266,0.211,2.453,1.004,3.343c0.786,0.882,1.909,1.365,3.163,1.365c2.62,0,4.998-2.131,5.298-4.752
		c0.146-1.267-0.211-2.453-1.004-3.344C17.026,47.179,15.903,46.693,14.65,46.693L14.65,46.693z"/>
</g>
<path fill="#FFFFFF" d="M17.674,51.424c0.229-1.982-1.194-3.589-3.177-3.589s-3.775,1.606-4.003,3.589
	c-0.228,1.983,1.194,3.592,3.178,3.592C15.654,55.016,17.446,53.408,17.674,51.424"/>
<g>
	<path fill="#060606" d="M13.671,55.17c-1,0-1.896-0.388-2.526-1.095c-0.635-0.713-0.921-1.66-0.806-2.669
		c0.237-2.055,2.102-3.727,4.157-3.727c1,0,1.897,0.389,2.526,1.096c0.635,0.712,0.921,1.659,0.805,2.667
		C17.592,53.498,15.728,55.17,13.671,55.17L13.671,55.17z M14.497,47.99c-1.904,0-3.631,1.549-3.849,3.453
		c-0.106,0.92,0.153,1.781,0.729,2.427c0.57,0.639,1.385,0.991,2.295,0.991c1.903,0,3.63-1.549,3.849-3.454
		c0.105-0.918-0.153-1.779-0.729-2.426C16.222,48.341,15.406,47.99,14.497,47.99L14.497,47.99z"/>
</g>
<g>
	<path fill="#060606" d="M13.671,55.209c-1.011,0-1.918-0.394-2.555-1.108c-0.643-0.72-0.933-1.679-0.816-2.698
		c0.239-2.074,2.121-3.762,4.196-3.762c1.011,0,1.918,0.394,2.556,1.109c0.643,0.72,0.932,1.678,0.814,2.696
		C17.628,53.521,15.746,55.209,13.671,55.209L13.671,55.209z M14.497,48.028c-1.884,0.001-3.594,1.533-3.811,3.419
		c-0.104,0.908,0.151,1.759,0.719,2.397c0.563,0.63,1.367,0.979,2.266,0.979c1.885,0,3.594-1.534,3.81-3.42
		c0.105-0.907-0.15-1.759-0.718-2.396C16.2,48.376,15.396,48.028,14.497,48.028L14.497,48.028z"/>
</g>
<path fill="#EFB2CC" d="M65.772,51.424c-0.313-2.72,1.639-4.924,4.359-4.924c2.72,0,5.18,2.204,5.491,4.924
	c0.313,2.721-1.639,4.925-4.358,4.925C68.543,56.349,66.084,54.145,65.772,51.424"/>
<g>
	<path fill="#060606" d="M71.264,56.504c-2.792,0-5.325-2.271-5.646-5.062c-0.156-1.367,0.231-2.649,1.091-3.615
		c0.853-0.956,2.067-1.482,3.423-1.482c2.792,0,5.324,2.271,5.646,5.062c0.156,1.366-0.231,2.65-1.091,3.615
		C73.833,55.977,72.618,56.504,71.264,56.504L71.264,56.504z M70.131,46.656c-1.266,0-2.398,0.489-3.191,1.379
		c-0.801,0.897-1.161,2.096-1.014,3.372c0.304,2.641,2.697,4.788,5.338,4.788c1.264,0,2.397-0.49,3.19-1.38
		c0.801-0.898,1.16-2.095,1.015-3.372C75.166,48.802,72.772,46.656,70.131,46.656L70.131,46.656z"/>
</g>
<g>
	<path fill="#060606" d="M71.264,56.542c-2.813,0-5.361-2.286-5.685-5.096c-0.158-1.377,0.232-2.671,1.101-3.646
		c0.859-0.964,2.085-1.495,3.451-1.495c2.811,0,5.361,2.287,5.684,5.097c0.158,1.377-0.233,2.671-1.1,3.645
		C73.855,56.011,72.629,56.542,71.264,56.542L71.264,56.542z M70.131,46.693c-1.254,0-2.377,0.486-3.162,1.366
		c-0.793,0.891-1.15,2.077-1.005,3.344c0.302,2.621,2.679,4.752,5.3,4.752c1.254,0,2.376-0.483,3.161-1.365
		c0.793-0.89,1.15-2.077,1.005-3.343C75.129,48.826,72.751,46.693,70.131,46.693L70.131,46.693z"/>
</g>
<path fill="#FFFFFF" d="M67.107,51.424c-0.228-1.983,1.195-3.59,3.178-3.59c1.981,0,3.774,1.606,4.004,3.59
	c0.228,1.983-1.195,3.592-3.178,3.592C69.126,55.016,67.334,53.408,67.107,51.424"/>
<g>
	<path fill="#060606" d="M71.111,55.17c-2.057,0-3.921-1.673-4.158-3.728c-0.114-1.009,0.171-1.957,0.807-2.668
		c0.63-0.706,1.526-1.095,2.525-1.095c2.055,0,3.92,1.672,4.158,3.727c0.115,1.009-0.172,1.955-0.807,2.669
		C73.005,54.783,72.109,55.17,71.111,55.17L71.111,55.17z M70.285,47.99c-0.909,0-1.725,0.352-2.295,0.99
		c-0.575,0.646-0.834,1.508-0.729,2.427c0.219,1.905,1.946,3.454,3.851,3.454c0.908,0,1.724-0.353,2.293-0.991
		c0.576-0.646,0.837-1.507,0.73-2.427C73.915,49.539,72.188,47.99,70.285,47.99L70.285,47.99z"/>
</g>
<g>
	<path fill="#060606" d="M71.111,55.209c-2.075,0-3.958-1.688-4.197-3.763c-0.116-1.02,0.173-1.978,0.816-2.698
		c0.637-0.714,1.544-1.107,2.555-1.107c2.074,0,3.956,1.688,4.196,3.762c0.116,1.02-0.173,1.979-0.817,2.699
		C73.028,54.817,72.121,55.209,71.111,55.209L71.111,55.209z M70.285,48.028c-0.898,0-1.702,0.348-2.267,0.979
		c-0.566,0.637-0.823,1.488-0.719,2.396c0.217,1.886,1.926,3.42,3.812,3.42c0.897,0,1.702-0.348,2.264-0.979
		c0.569-0.639,0.826-1.489,0.722-2.397C73.878,49.561,72.168,48.028,70.285,48.028L70.285,48.028z"/>
</g>
<g>
	<path fill="#060606" d="M26.824,39.494c-0.042,0-0.083-0.023-0.104-0.064c-1.672-3.342-2.385-6.211-2.385-9.594
		c0-9.965,8.107-18.071,18.073-18.071c9.965,0,18.072,8.106,18.072,18.071c0,2.741-0.286,5.786-2.356,9.472
		c-0.03,0.057-0.102,0.077-0.158,0.046c-0.056-0.032-0.075-0.103-0.044-0.159c2.044-3.64,2.326-6.649,2.326-9.358
		c0-9.836-8.003-17.839-17.84-17.839c-9.837,0-17.84,8.003-17.84,17.839c0,2.36,0.28,5.332,2.36,9.49
		c0.029,0.058,0.005,0.127-0.052,0.156C26.859,39.49,26.841,39.494,26.824,39.494L26.824,39.494z"/>
</g>
<g>
	<path fill="#060606" d="M55.134,52.183c-2.182,0-3.956-1.775-3.956-3.957c0-2.18,1.774-3.955,3.956-3.955
		c2.229,0,3.955,2.126,3.955,3.955C59.089,50.408,57.316,52.183,55.134,52.183L55.134,52.183z M55.134,44.658
		c-1.968,0-3.568,1.602-3.568,3.568c0,1.969,1.601,3.569,3.568,3.569s3.568-1.601,3.568-3.569
		C58.703,46.576,57.144,44.658,55.134,44.658L55.134,44.658z"/>
</g>
<g>
	<path fill="#060606" d="M55.134,51.164c-1.619,0-2.936-1.316-2.936-2.938c0-1.618,1.316-2.936,2.936-2.936
		c2.233,0,2.937,2.289,2.937,2.936C58.071,49.847,56.752,51.164,55.134,51.164L55.134,51.164z M55.134,45.677
		c-1.406,0-2.549,1.145-2.549,2.549c0,1.406,1.143,2.55,2.549,2.55c1.405,0,2.549-1.144,2.549-2.55
		C57.683,47.892,57.208,45.677,55.134,45.677L55.134,45.677z"/>
</g>
<g>
	<path fill="#060606" d="M30.348,52.671L30.348,52.671h-0.004c-1.057-0.001-2.05-0.413-2.796-1.162
		c-0.747-0.747-1.157-1.74-1.156-2.797c0.001-2.181,1.775-3.953,3.955-3.953c2.232,0.002,3.958,2.131,3.956,3.96
		C34.301,50.898,32.527,52.671,30.348,52.671L30.348,52.671z M30.351,45.146c-1.97,0-3.571,1.6-3.572,3.566
		c-0.001,0.954,0.369,1.85,1.042,2.524s1.569,1.046,2.522,1.047l0.003,0.194v-0.194c1.966,0.001,3.566-1.599,3.568-3.565
		C33.917,47.069,32.36,45.149,30.351,45.146L30.351,45.146z"/>
</g>
<g>
	<path fill="#060606" d="M30.347,51.653L30.347,51.653h-0.003c-0.785-0.001-1.521-0.308-2.075-0.863
		c-0.554-0.555-0.859-1.293-0.858-2.076c0.001-1.618,1.318-2.935,2.936-2.935c2.236,0.002,2.938,2.291,2.937,2.938
		C33.282,50.336,31.965,51.653,30.347,51.653L30.347,51.653z M30.349,46.167c-1.407,0-2.55,1.143-2.551,2.547
		c0,0.681,0.264,1.321,0.745,1.804c0.482,0.482,1.121,0.747,1.802,0.748l0.002,0.193v-0.193c1.404,0,2.548-1.143,2.549-2.548
		C32.896,48.384,32.423,46.167,30.349,46.167L30.349,46.167z"/>
</g>
<g>
	<path fill="#060606" d="M30.358,36.696c-0.751,0-1.712-1.143-1.819-1.272c-0.051-0.062-5.067-6.355,3.021-17.626
		c0.055-0.077,0.159-0.103,0.243-0.061l4.021,1.984c0.053,0.026,0.091,0.075,0.103,0.132c0.013,0.059-0.001,0.119-0.039,0.164
		c-0.06,0.072-5.938,7.312-4.92,13.108c0.315,1.791,0.284,2.881-0.091,3.328C30.743,36.612,30.564,36.696,30.358,36.696
		L30.358,36.696z M31.78,18.156c-7.769,10.929-2.992,16.961-2.942,17.021c0.36,0.438,1.091,1.131,1.52,1.131
		c0.093,0,0.162-0.031,0.222-0.104c0.166-0.197,0.386-0.851,0.006-3.013c-0.966-5.509,3.896-12.017,4.851-13.23L31.78,18.156
		L31.78,18.156z"/>
</g>
<g>
	<path fill="#060606" d="M34.266,25.443c-0.259,0-0.369-0.107-0.415-0.197c-0.068-0.131-0.039-0.29,0.085-0.473
		c0.137-0.365,1.547-4.056,3.164-4.549c0.038-0.011,0.08-0.011,0.119,0.002l2.483,0.837c0.072,0.023,0.123,0.088,0.131,0.164
		c0.007,0.075-0.03,0.148-0.096,0.187c-0.867,0.507-3.163,1.979-3.367,2.693C36.154,24.866,34.84,25.443,34.266,25.443
		L34.266,25.443z M34.219,25.053c0.012,0.001,0.028,0.002,0.046,0.002c0.459,0,1.574-0.499,1.733-1.055
		c0.235-0.825,2.304-2.166,3.183-2.704l-2.025-0.683c-1.462,0.53-2.851,4.278-2.865,4.316c-0.006,0.017-0.014,0.031-0.024,0.046
		C34.243,25.008,34.229,25.034,34.219,25.053L34.219,25.053z"/>
</g>
<g>
	<path fill="#060606" d="M31.431,62.253c-0.016,0-0.031-0.002-0.046-0.006l-8.394-2.071c-0.078-0.019-0.136-0.085-0.146-0.163
		L20.73,43.531l-6.149,1.124c-0.106,0.019-0.206-0.051-0.225-0.155c-0.019-0.105,0.05-0.207,0.156-0.226l6.35-1.161
		c0.052-0.009,0.106,0.003,0.149,0.035c0.043,0.031,0.07,0.078,0.078,0.131l2.125,16.554l7.901,1.949l-2.64-6.695
		c-0.034-0.086-0.002-0.184,0.075-0.233L42.48,45.81c0.05-0.033,0.112-0.04,0.168-0.021l6.574,2.253
		c0.063,0.022,0.109,0.074,0.125,0.139c0.015,0.064-0.003,0.132-0.048,0.18l-2.511,2.609l9.359,9.852l9.53-2.317l-8.553-3.182
		c-0.058-0.023-0.103-0.071-0.119-0.133c-0.016-0.061-0.001-0.125,0.039-0.174l8.545-10.188c0.031-0.037,0.077-0.062,0.126-0.068
		l4.514-0.537c0.104-0.012,0.202,0.063,0.215,0.169c0.013,0.107-0.063,0.203-0.17,0.216l-4.437,0.528l-8.32,9.919l8.886,3.306
		c0.081,0.031,0.132,0.109,0.127,0.193c-0.005,0.085-0.065,0.157-0.147,0.177l-10.252,2.494c-0.068,0.017-0.139-0.004-0.187-0.055
		L46.38,51.103c-0.071-0.076-0.071-0.193,0.001-0.269l2.428-2.523l-6.197-2.125l-13.719,8.906l2.719,6.896
		c0.026,0.067,0.013,0.144-0.035,0.198C31.54,62.229,31.486,62.253,31.431,62.253L31.431,62.253z"/>
</g>
<g>
	<path fill="#060606" d="M41.808,69.442c-5.233,0-10.454-0.518-15.607-1.551c-13.912-2.789-22.621-8.452-22.707-8.51
		c-0.089-0.058-0.115-0.179-0.055-0.267C3.498,59.024,3.618,59,3.707,59.059c0.086,0.057,8.744,5.685,22.587,8.456
		c12.771,2.557,32.697,3.137,55.091-8.624c0.096-0.05,0.212-0.014,0.262,0.082c0.05,0.095,0.014,0.212-0.081,0.262
		c-9.937,5.217-20.222,8.472-30.572,9.674C47.937,69.264,44.87,69.442,41.808,69.442L41.808,69.442z"/>
</g>
<g>
	<path fill="#060606" d="M42.602,44.867c-12.374,0-20.963-3.686-21.09-3.741c-0.098-0.043-0.143-0.157-0.1-0.255
		c0.043-0.099,0.157-0.143,0.255-0.099c0.188,0.082,19.063,8.173,41.225,0.195c0.101-0.036,0.212,0.017,0.248,0.117
		c0.037,0.1-0.017,0.211-0.116,0.247C55.673,43.977,48.68,44.867,42.602,44.867L42.602,44.867z"/>
</g>
<circle fill="#E40F51" cx="30.382" cy="48.787" r="2.546"/>
<circle fill="#E40F51" cx="55.069" cy="48.238" r="2.545"/>
<path fill="#E40F51" d="M25.013,39.04c0,0-1.284,0.709-1.419,1.433c-0.08,0.422-0.952,0.462-1.042,0.598
	c-0.09,0.137,11.274,4.971,28.118,2.935c0,0,9.145-1.449,11.635-2.898l-0.905-0.634c0,0-0.255-1.664-1.603-1.663
	C59.375,38.809,45.082,46.5,25.013,39.04z"/>
<path fill="#E40F51" d="M31.78,18.156"/>
<path fill="#FFFFFF" d="M35.437,19.961l-3.657-1.806c0,0-5.716,7.488-4.375,13.946c0,0,0.935,3.452,2.518,4.143
	c1.584,0.69,0.69-1.34,0.853-1.908c0.162-0.568-0.239-2.346-0.203-3.29C30.694,27.838,33.282,22.98,35.437,19.961z"/>
<path fill="#FFFFFF" d="M37.121,20.579c0.048-0.008,2.061,0.718,2.061,0.718s-1.907,1.305-2.227,1.564
	c-0.318,0.261-0.744,0.757-0.828,0.91c-0.083,0.154-0.106,0.344-0.189,0.427c-0.083,0.082-0.698,0.969-1.786,0.898
	c0,0,0.213-0.544,0.367-0.863C34.673,23.914,35.95,20.768,37.121,20.579z"/>
</svg>
