<svg version="1.1" id="svg_0_0" xmlns="http://www.w3.org/2000/svg" xmlns:xlink="http://www.w3.org/1999/xlink" x="0px" y="0px" width="85.04px" height="85.04px" viewBox="0 0 85.04 85.04" enable-background="new 0 0 85.04 85.04" xml:space="preserve">
<path fill="#FFFFFF" stroke="#815C2D" stroke-width="0.25" stroke-miterlimit="10" d="M23.039,29.37
	c0,3.124,0.744,6.074,2.058,8.688c4.245,2.09,19.367,6.55,34.654-0.171h0.017c0.021-0.012,0.039-0.021,0.058-0.032
	c1.252-2.563,1.954-5.44,1.954-8.484c0-10.696-8.673-19.37-19.37-19.37C31.709,10,23.039,18.673,23.039,29.37"/>
<path fill="#FFFFFF" stroke="#815C2D" stroke-width="0.25" stroke-miterlimit="10" d="M42.483,64.059L1.901,56.454
	c0,0,1.009,6.674,14.683,13.395c4.533,2.227,8.538,3.35,14.255,4.238c3.235,0.66,7.286,0.99,11.645,0.949
	c4.359,0.041,8.37-0.289,11.605-0.949c5.718-0.889,9.764-2.012,14.297-4.238c13.672-6.719,14.681-13.395,14.681-13.395
	L42.483,64.059z"/>
<path fill="#FFFFFF" stroke="#815C2D" stroke-width="0.25" stroke-miterlimit="10" d="M61.652,40.696l-6.381-0.429
	c-10.435,3.209-20.29,1.749-26.072,0.038l-5.811,0.391c0,0-14.972,4.257-21.487,15.037c0,0,0.748,2.195,15.911,6.758
	c9.848,2.959,17.943,3.396,24.708,3.352c6.766,0.047,14.859-0.393,24.707-3.352c15.164-4.563,15.911-6.758,15.911-6.758
	C77.622,45.704,61.652,40.696,61.652,40.696"/>
<path fill="#060606" stroke="#815C2D" stroke-width="0.25" stroke-miterlimit="10" d="M43.347,64.93l-0.466-0.002
	c-0.051,0-0.092-0.041-0.092-0.094c0-0.051,0.042-0.092,0.093-0.092l0,0l0.465,0.002c0.051,0,0.092,0.041,0.092,0.092
	S43.398,64.93,43.347,64.93L43.347,64.93z M41.798,64.93c-0.051,0-0.093-0.043-0.093-0.094s0.042-0.092,0.093-0.092l0.464-0.002l0,0
	c0.052,0,0.094,0.041,0.094,0.092s-0.041,0.094-0.093,0.094L41.798,64.93L41.798,64.93z M41.179,64.928L41.179,64.928l-0.465-0.002
	c-0.051-0.002-0.092-0.043-0.092-0.094c0-0.053,0.038-0.105,0.093-0.094l0.464,0.004c0.052,0,0.094,0.043,0.093,0.092
	C41.271,64.887,41.229,64.928,41.179,64.928L41.179,64.928z M43.965,64.928c-0.051,0-0.092-0.041-0.092-0.094
	c0-0.049,0.041-0.092,0.092-0.092l0.466-0.004l0,0c0.051,0,0.092,0.041,0.092,0.094c0.001,0.049-0.039,0.092-0.091,0.092
	L43.965,64.928L43.965,64.928L43.965,64.928z M40.094,64.918L40.094,64.918l-0.466-0.008c-0.051,0-0.092-0.043-0.091-0.094
	s0.042-0.092,0.092-0.092c0,0,0.001,0,0.002,0l0.464,0.008c0.051,0,0.093,0.043,0.092,0.094
	C40.187,64.879,40.146,64.918,40.094,64.918L40.094,64.918z M45.049,64.917c-0.051,0-0.092-0.039-0.092-0.09
	c-0.002-0.053,0.039-0.094,0.092-0.096l0.464-0.008c0.045,0.004,0.093,0.041,0.095,0.092c0.001,0.051-0.04,0.094-0.091,0.094
	l-0.466,0.008H45.049L45.049,64.917z M39.011,64.899c-0.001,0-0.001,0-0.002,0l-0.465-0.012c-0.052-0.002-0.092-0.045-0.09-0.096
	c0.002-0.053,0.042-0.094,0.096-0.09l0.464,0.012c0.051,0,0.092,0.043,0.091,0.094C39.103,64.858,39.061,64.899,39.011,64.899
	L39.011,64.899z M46.133,64.895c-0.051,0-0.092-0.039-0.092-0.09c-0.002-0.051,0.037-0.094,0.09-0.096l0.465-0.012
	c0.054,0,0.094,0.039,0.096,0.09c0.001,0.053-0.039,0.094-0.091,0.096l-0.465,0.012C46.135,64.895,46.135,64.895,46.133,64.895
	L46.133,64.895z M37.927,64.87c0,0-0.001,0-0.002,0l-0.465-0.021c-0.051,0-0.091-0.045-0.089-0.096s0.042-0.094,0.097-0.09
	l0.464,0.02c0.051,0,0.091,0.043,0.089,0.096C38.019,64.829,37.977,64.87,37.927,64.87L37.927,64.87z M47.217,64.862
	c-0.049,0-0.09-0.037-0.094-0.088c-0.002-0.051,0.039-0.096,0.09-0.098l0.465-0.018c0.063,0.006,0.095,0.039,0.097,0.09
	s-0.038,0.094-0.089,0.096l-0.465,0.018C47.22,64.862,47.219,64.862,47.217,64.862L47.217,64.862z M36.844,64.823
	c-0.001,0-0.002,0-0.004,0l-0.465-0.023c-0.051-0.002-0.09-0.047-0.088-0.098c0.003-0.051,0.047-0.084,0.098-0.088l0.464,0.021
	c0.051,0.004,0.091,0.047,0.088,0.098S36.893,64.823,36.844,64.823L36.844,64.823z M48.299,64.817c-0.049,0-0.09-0.039-0.092-0.088
	c-0.002-0.053,0.037-0.096,0.088-0.098l0.465-0.025c0.047-0.002,0.094,0.037,0.098,0.09c0.002,0.053-0.037,0.096-0.089,0.098
	l-0.464,0.023C48.303,64.817,48.301,64.817,48.299,64.817L48.299,64.817z M35.762,64.764c-0.002,0-0.004,0-0.006,0l-0.464-0.029
	c-0.052-0.004-0.09-0.047-0.086-0.1c0.003-0.051,0.05-0.09,0.098-0.086l0.463,0.029c0.051,0.002,0.09,0.047,0.087,0.098
	C35.851,64.725,35.81,64.764,35.762,64.764L35.762,64.764z M49.381,64.758c-0.047,0-0.088-0.039-0.092-0.088
	c-0.004-0.051,0.037-0.096,0.088-0.1l0.463-0.027c0.051-0.004,0.097,0.033,0.1,0.084c0.003,0.053-0.035,0.096-0.087,0.1
	l-0.464,0.031C49.387,64.758,49.385,64.758,49.381,64.758L49.381,64.758z M34.68,64.692c-0.002,0-0.005,0-0.007,0l-0.463-0.035
	c-0.051-0.004-0.089-0.049-0.085-0.1s0.053-0.094,0.1-0.086l0.463,0.035c0.05,0.004,0.089,0.049,0.085,0.1
	C34.769,64.655,34.728,64.692,34.68,64.692L34.68,64.692z M50.463,64.684c-0.047,0-0.088-0.037-0.092-0.086
	c-0.004-0.051,0.033-0.096,0.086-0.1l0.463-0.035c0.045-0.006,0.096,0.033,0.101,0.086c0.003,0.051-0.034,0.096-0.086,0.1
	l-0.464,0.035C50.469,64.684,50.465,64.684,50.463,64.684L50.463,64.684z M33.599,64.606c-0.002,0-0.005,0-0.008,0l-0.464-0.041
	c-0.051-0.006-0.089-0.051-0.083-0.102c0.004-0.051,0.052-0.088,0.101-0.084l0.462,0.041c0.052,0.004,0.089,0.049,0.084,0.1
	C33.688,64.569,33.647,64.606,33.599,64.606L33.599,64.606z M51.545,64.598c-0.049,0-0.088-0.039-0.094-0.086
	c-0.004-0.051,0.033-0.096,0.086-0.1L52,64.372c0.049-0.006,0.097,0.031,0.102,0.084c0.004,0.051-0.033,0.096-0.085,0.102
	l-0.462,0.041C51.549,64.598,51.547,64.598,51.545,64.598L51.545,64.598z M32.521,64.506c-0.004,0-0.007-0.002-0.01-0.002
	l-0.462-0.047c-0.051-0.006-0.088-0.051-0.083-0.104c0.005-0.051,0.05-0.088,0.102-0.082l0.461,0.047
	c0.053,0.008,0.089,0.053,0.083,0.104C32.607,64.469,32.567,64.506,32.521,64.506L32.521,64.506z M52.624,64.497
	c-0.045,0-0.086-0.035-0.09-0.084c-0.008-0.053,0.03-0.098,0.082-0.104l0.463-0.047c0.051-0.008,0.096,0.031,0.102,0.082
	s-0.031,0.096-0.082,0.104l-0.463,0.049C52.631,64.497,52.627,64.497,52.624,64.497L52.624,64.497z M31.442,64.389
	c-0.004,0-0.007,0-0.011,0c-0.153-0.018-0.307-0.035-0.462-0.055c-0.051-0.006-0.087-0.051-0.081-0.104
	c0.006-0.051,0.055-0.086,0.104-0.08c0.153,0.02,0.308,0.035,0.46,0.055c0.051,0.004,0.088,0.051,0.082,0.102
	C31.528,64.356,31.489,64.389,31.442,64.389L31.442,64.389z M53.704,64.379c-0.047,0-0.088-0.035-0.094-0.084
	c-0.006-0.051,0.031-0.096,0.082-0.104l0.461-0.055c0.049-0.006,0.098,0.029,0.104,0.082c0.007,0.051-0.029,0.096-0.082,0.104
	l-0.461,0.055C53.709,64.379,53.706,64.379,53.704,64.379L53.704,64.379z M30.367,64.26c-0.005,0-0.009,0-0.013-0.002l-0.461-0.061
	c-0.05-0.006-0.086-0.053-0.08-0.104c0.006-0.053,0.055-0.088,0.104-0.08l0.46,0.061c0.051,0.008,0.087,0.055,0.081,0.104
	C30.453,64.225,30.413,64.26,30.367,64.26L30.367,64.26z M54.778,64.247c-0.046,0-0.086-0.033-0.092-0.08
	c-0.007-0.051,0.029-0.098,0.08-0.105L55.227,64c0.049-0.008,0.098,0.027,0.104,0.08c0.008,0.049-0.029,0.098-0.08,0.104
	l-0.461,0.063C54.788,64.247,54.784,64.247,54.778,64.247L54.778,64.247z M29.292,64.116c-0.004,0-0.009,0-0.015-0.002l-0.459-0.066
	c-0.051-0.008-0.086-0.055-0.078-0.105c0.007-0.051,0.055-0.086,0.104-0.078l0.459,0.068c0.051,0.006,0.086,0.053,0.079,0.104
	C29.376,64.083,29.337,64.116,29.292,64.116L29.292,64.116z M55.852,64.1c-0.045,0-0.085-0.033-0.092-0.08
	c-0.008-0.051,0.027-0.098,0.078-0.104c0.152-0.021,0.307-0.045,0.459-0.068c0.053-0.006,0.1,0.027,0.105,0.078
	c0.008,0.051-0.027,0.098-0.078,0.105c-0.152,0.021-0.307,0.045-0.459,0.068C55.861,64.1,55.857,64.1,55.852,64.1L55.852,64.1z
	 M28.219,63.956c-0.004,0-0.009,0-0.014-0.002c-0.152-0.023-0.307-0.049-0.459-0.074c-0.052-0.008-0.085-0.057-0.077-0.105
	c0.008-0.051,0.057-0.086,0.105-0.076c0.153,0.023,0.307,0.049,0.458,0.072c0.051,0.008,0.085,0.057,0.078,0.107
	C28.304,63.92,28.265,63.956,28.219,63.956L28.219,63.956z M56.924,63.938c-0.045,0-0.084-0.033-0.092-0.08
	c-0.01-0.049,0.025-0.098,0.076-0.105l0.459-0.072c0.053-0.01,0.098,0.025,0.106,0.076c0.008,0.051-0.026,0.1-0.077,0.105
	l-0.46,0.074C56.933,63.938,56.929,63.938,56.924,63.938L56.924,63.938z M27.15,63.778c-0.005,0-0.01,0-0.016-0.002l-0.458-0.078
	c-0.05-0.01-0.084-0.059-0.075-0.107c0.009-0.051,0.058-0.084,0.108-0.076l0.457,0.08c0.05,0.008,0.084,0.057,0.076,0.107
	C27.233,63.747,27.194,63.778,27.15,63.778L27.15,63.778z M57.995,63.76c-0.045,0-0.084-0.031-0.092-0.078
	c-0.009-0.051,0.023-0.098,0.075-0.105l0.457-0.08c0.05-0.01,0.099,0.023,0.108,0.072c0.008,0.053-0.025,0.102-0.076,0.109
	l-0.459,0.08C58.002,63.76,58,63.76,57.995,63.76L57.995,63.76z M26.083,63.586c-0.005,0-0.013,0-0.018-0.002l-0.457-0.086
	c-0.05-0.01-0.083-0.059-0.073-0.109s0.06-0.084,0.108-0.072l0.456,0.086c0.051,0.012,0.084,0.059,0.075,0.107
	C26.167,63.555,26.126,63.586,26.083,63.586L26.083,63.586z M59.061,63.567c-0.045,0-0.084-0.029-0.092-0.074
	c-0.01-0.053,0.023-0.1,0.074-0.109c0.149-0.027,0.304-0.057,0.455-0.086c0.049-0.01,0.1,0.021,0.108,0.074
	c0.009,0.051-0.022,0.098-0.073,0.107c-0.152,0.029-0.305,0.059-0.457,0.086C59.072,63.567,59.067,63.567,59.061,63.567
	L59.061,63.567z M25.019,63.379c-0.006,0-0.012,0-0.019,0c-0.151-0.031-0.304-0.063-0.456-0.094
	c-0.05-0.012-0.083-0.061-0.072-0.109c0.01-0.053,0.062-0.08,0.11-0.072c0.151,0.033,0.303,0.063,0.455,0.094
	c0.05,0.01,0.083,0.059,0.072,0.107C25.101,63.35,25.062,63.379,25.019,63.379L25.019,63.379z M60.124,63.36
	c-0.041,0-0.082-0.029-0.09-0.074c-0.01-0.051,0.021-0.1,0.072-0.109l0.455-0.092c0.051-0.01,0.1,0.02,0.109,0.07
	c0.011,0.051-0.021,0.102-0.071,0.109l-0.455,0.094C60.137,63.36,60.129,63.36,60.124,63.36L60.124,63.36z M23.958,63.161
	c-0.007,0-0.015,0-0.021-0.002c-0.15-0.033-0.303-0.066-0.455-0.102c-0.05-0.01-0.082-0.061-0.069-0.109
	c0.011-0.051,0.06-0.082,0.11-0.07c0.151,0.033,0.303,0.066,0.453,0.1c0.05,0.01,0.082,0.061,0.071,0.109
	C24.04,63.129,24,63.161,23.958,63.161L23.958,63.161z M61.185,63.137c-0.042,0-0.081-0.029-0.09-0.074
	c-0.013-0.049,0.021-0.098,0.069-0.109l0.453-0.1c0.049-0.014,0.102,0.02,0.111,0.07c0.012,0.049-0.021,0.1-0.07,0.111l-0.453,0.1
	C61.2,63.137,61.192,63.137,61.185,63.137L61.185,63.137z M22.899,62.924c-0.007,0-0.014-0.002-0.021-0.004
	c-0.151-0.035-0.301-0.068-0.454-0.105c-0.049-0.012-0.08-0.063-0.069-0.109c0.013-0.051,0.063-0.08,0.112-0.07
	c0.151,0.035,0.302,0.07,0.452,0.105c0.049,0.012,0.081,0.061,0.068,0.111C22.98,62.895,22.941,62.924,22.899,62.924L22.899,62.924z
	 M62.243,62.901c-0.041,0-0.08-0.029-0.09-0.072c-0.012-0.051,0.02-0.102,0.069-0.111l0.452-0.105c0.049-0.012,0.1,0.02,0.109,0.068
	c0.014,0.049-0.018,0.102-0.068,0.111l-0.451,0.105C62.256,62.899,62.25,62.901,62.243,62.901L62.243,62.901z M21.844,62.672
	c-0.007,0-0.014,0-0.022-0.002l-0.45-0.111c-0.051-0.014-0.081-0.063-0.068-0.113s0.063-0.08,0.113-0.066l0.451,0.111
	c0.049,0.012,0.079,0.063,0.067,0.111C21.924,62.643,21.886,62.672,21.844,62.672L21.844,62.672z M63.297,62.649
	c-0.043,0-0.08-0.029-0.09-0.07c-0.015-0.053,0.019-0.102,0.066-0.113l0.451-0.111c0.049-0.012,0.1,0.018,0.113,0.066
	c0.013,0.049-0.02,0.1-0.069,0.113l-0.45,0.111C63.312,62.647,63.305,62.649,63.297,62.649L63.297,62.649z M20.793,62.409
	c-0.008,0-0.016,0-0.023-0.002l-0.45-0.119c-0.049-0.014-0.078-0.064-0.064-0.113c0.013-0.049,0.063-0.08,0.113-0.066l0.448,0.117
	c0.051,0.012,0.08,0.064,0.066,0.113C20.874,62.379,20.835,62.409,20.793,62.409L20.793,62.409z M64.348,62.381
	c-0.041,0-0.079-0.027-0.09-0.07c-0.014-0.049,0.017-0.1,0.066-0.111l0.448-0.119c0.05-0.014,0.101,0.018,0.113,0.064
	c0.013,0.051-0.017,0.102-0.066,0.115l-0.448,0.117C64.364,62.379,64.356,62.381,64.348,62.381L64.348,62.381z M19.747,62.127
	c-0.009,0-0.018,0-0.024-0.004L19.274,62c-0.049-0.016-0.079-0.064-0.064-0.115c0.014-0.049,0.064-0.076,0.115-0.063l0.446,0.123
	c0.049,0.014,0.079,0.064,0.065,0.115C19.825,62.102,19.788,62.127,19.747,62.127L19.747,62.127z M65.395,62.102
	c-0.04,0-0.078-0.027-0.089-0.068c-0.015-0.053,0.015-0.102,0.063-0.115l0.447-0.125c0.049-0.016,0.102,0.016,0.115,0.064
	c0.014,0.051-0.016,0.102-0.064,0.115l-0.449,0.123C65.413,62.1,65.404,62.102,65.395,62.102L65.395,62.102z M18.703,61.834
	c-0.009,0-0.019,0-0.025-0.004l-0.447-0.129c-0.049-0.016-0.077-0.066-0.063-0.115s0.065-0.076,0.116-0.064l0.444,0.131
	c0.049,0.014,0.078,0.064,0.063,0.113C18.78,61.809,18.744,61.834,18.703,61.834L18.703,61.834z M66.439,61.805
	c-0.041,0-0.078-0.025-0.09-0.066c-0.015-0.049,0.014-0.102,0.063-0.115l0.445-0.129c0.049-0.016,0.1,0.012,0.114,0.063
	c0.016,0.049-0.015,0.1-0.063,0.113l-0.443,0.131C66.456,61.805,66.447,61.805,66.439,61.805L66.439,61.805z M17.664,61.528
	c-0.01,0-0.019-0.002-0.027-0.004l-0.445-0.135c-0.049-0.016-0.077-0.066-0.062-0.117c0.015-0.049,0.065-0.074,0.116-0.061
	l0.443,0.135c0.049,0.014,0.077,0.066,0.063,0.117C17.741,61.5,17.704,61.528,17.664,61.528L17.664,61.528z M67.478,61.499
	c-0.04,0-0.076-0.025-0.089-0.066c-0.016-0.051,0.014-0.102,0.063-0.115l0.443-0.137c0.049-0.014,0.102,0.014,0.115,0.064
	c0.016,0.049-0.014,0.1-0.063,0.115l-0.443,0.135C67.497,61.497,67.486,61.499,67.478,61.499L67.478,61.499z M16.625,61.211
	c-0.009,0-0.019-0.002-0.027-0.004l-0.444-0.139c-0.049-0.016-0.076-0.066-0.061-0.115c0.015-0.051,0.067-0.076,0.116-0.063
	l0.443,0.137c0.05,0.018,0.076,0.068,0.063,0.117C16.704,61.186,16.667,61.211,16.625,61.211L16.625,61.211z M68.513,61.18
	c-0.038,0-0.075-0.025-0.089-0.064c-0.014-0.051,0.014-0.102,0.063-0.115l0.444-0.139c0.049-0.016,0.1,0.012,0.114,0.061
	c0.018,0.051-0.012,0.102-0.062,0.119l-0.442,0.137C68.534,61.18,68.523,61.18,68.513,61.18L68.513,61.18z M15.59,60.889
	c-0.009,0-0.02-0.002-0.028-0.004l-0.441-0.141c-0.05-0.016-0.077-0.068-0.062-0.117c0.016-0.047,0.067-0.074,0.117-0.061
	l0.443,0.141c0.048,0.016,0.075,0.066,0.061,0.117C15.667,60.866,15.63,60.889,15.59,60.889L15.59,60.889z M69.549,60.858
	c-0.039,0-0.076-0.023-0.09-0.064c-0.016-0.049,0.013-0.102,0.062-0.115l0.442-0.141c0.05-0.018,0.102,0.012,0.117,0.059
	c0.016,0.051-0.013,0.104-0.062,0.117l-0.442,0.141C69.568,60.856,69.558,60.858,69.549,60.858L69.549,60.858z M14.558,60.561
	c-0.009,0-0.019-0.002-0.028-0.006l-0.441-0.141c-0.049-0.02-0.075-0.07-0.061-0.119c0.017-0.049,0.068-0.074,0.117-0.061
	l0.441,0.145c0.049,0.016,0.076,0.068,0.06,0.117C14.633,60.538,14.597,60.561,14.558,60.561L14.558,60.561z M70.583,60.528
	c-0.039,0-0.076-0.023-0.09-0.063c-0.015-0.049,0.012-0.102,0.062-0.119l0.44-0.143c0.049-0.018,0.103,0.012,0.117,0.061
	c0.016,0.049-0.012,0.104-0.061,0.117l-0.441,0.145C70.601,60.526,70.59,60.528,70.583,60.528L70.583,60.528z M13.527,60.223
	c-0.009,0-0.02,0-0.028-0.004l-0.441-0.145c-0.049-0.018-0.075-0.07-0.059-0.119c0.016-0.049,0.067-0.074,0.118-0.059l0.438,0.146
	c0.049,0.016,0.076,0.068,0.061,0.117C13.603,60.2,13.567,60.223,13.527,60.223L13.527,60.223z M71.612,60.192
	c-0.039,0-0.074-0.025-0.088-0.064c-0.018-0.049,0.01-0.1,0.059-0.117l0.44-0.146c0.049-0.014,0.103,0.012,0.117,0.061
	c0.017,0.049-0.011,0.102-0.06,0.117l-0.439,0.146C71.629,60.19,71.622,60.192,71.612,60.192L71.612,60.192z M12.5,59.881
	c-0.01,0-0.021-0.004-0.03-0.006l-0.439-0.15c-0.048-0.018-0.074-0.068-0.058-0.117c0.018-0.051,0.069-0.074,0.118-0.059l0.438,0.15
	c0.049,0.016,0.074,0.066,0.059,0.115C12.576,59.856,12.539,59.881,12.5,59.881L12.5,59.881z M72.639,59.846
	c-0.038,0-0.074-0.023-0.088-0.063c-0.018-0.051,0.009-0.102,0.058-0.117l0.438-0.15c0.05-0.018,0.102,0.01,0.119,0.059
	c0.016,0.049-0.01,0.102-0.059,0.117l-0.439,0.15C72.661,59.844,72.65,59.846,72.639,59.846L72.639,59.846z M11.476,59.526
	c-0.01,0-0.021,0-0.031-0.006l-0.438-0.152c-0.048-0.02-0.074-0.07-0.057-0.119s0.07-0.074,0.119-0.059l0.438,0.154
	c0.048,0.018,0.074,0.07,0.057,0.119C11.55,59.502,11.514,59.526,11.476,59.526L11.476,59.526z M73.665,59.493
	c-0.039,0-0.074-0.023-0.088-0.064c-0.019-0.049,0.008-0.1,0.057-0.117l0.438-0.154c0.049-0.018,0.102,0.008,0.119,0.057
	s-0.009,0.102-0.057,0.119l-0.438,0.154C73.684,59.491,73.674,59.493,73.665,59.493L73.665,59.493z M10.456,59.165
	c-0.012,0-0.021-0.002-0.032-0.006l-0.437-0.16c-0.049-0.018-0.072-0.072-0.056-0.119c0.019-0.049,0.071-0.072,0.119-0.055
	l0.436,0.158c0.049,0.018,0.073,0.07,0.056,0.119C10.528,59.139,10.493,59.165,10.456,59.165L10.456,59.165z M74.684,59.127
	c-0.038,0-0.074-0.023-0.088-0.063c-0.018-0.049,0.007-0.102,0.055-0.119l0.438-0.158c0.048-0.02,0.102,0.006,0.119,0.055
	c0.019,0.047-0.006,0.102-0.056,0.117l-0.437,0.16C74.706,59.125,74.695,59.127,74.684,59.127L74.684,59.127z M9.438,58.79
	c-0.011,0-0.021-0.004-0.033-0.008l-0.434-0.164c-0.048-0.02-0.072-0.072-0.054-0.121c0.019-0.047,0.071-0.07,0.12-0.055
	l0.433,0.166c0.048,0.018,0.073,0.072,0.055,0.119C9.511,58.764,9.475,58.79,9.438,58.79L9.438,58.79z M75.7,58.75
	c-0.037,0-0.072-0.023-0.086-0.063c-0.02-0.047,0.006-0.102,0.055-0.119l0.434-0.164c0.047-0.02,0.102,0.004,0.12,0.053
	s-0.007,0.102-0.056,0.121l-0.434,0.166C75.722,58.749,75.709,58.75,75.7,58.75L75.7,58.75z M8.427,58.397
	c-0.012,0-0.023-0.002-0.035-0.004c-0.146-0.061-0.291-0.117-0.432-0.172c-0.048-0.02-0.071-0.074-0.051-0.123
	c0.019-0.047,0.072-0.068,0.12-0.051c0.141,0.057,0.284,0.113,0.432,0.172c0.047,0.018,0.071,0.072,0.052,0.121
	C8.5,58.375,8.463,58.397,8.427,58.397L8.427,58.397z M76.709,58.36c-0.037,0-0.071-0.021-0.086-0.059
	c-0.019-0.047,0.004-0.102,0.053-0.121c0.146-0.059,0.289-0.115,0.431-0.172c0.048-0.018,0.103,0.004,0.121,0.051
	c0.021,0.049-0.003,0.104-0.05,0.121c-0.143,0.057-0.287,0.115-0.434,0.174C76.733,58.358,76.721,58.36,76.709,58.36L76.709,58.36z
	 M7.422,57.995c-0.012,0-0.024-0.002-0.036-0.008c-0.146-0.061-0.29-0.119-0.429-0.18c-0.047-0.02-0.069-0.074-0.049-0.123
	c0.02-0.047,0.074-0.066,0.121-0.049c0.14,0.061,0.281,0.119,0.429,0.18c0.048,0.02,0.069,0.072,0.051,0.121
	C7.494,57.971,7.458,57.995,7.422,57.995L7.422,57.995z M77.715,57.954c-0.037,0-0.071-0.021-0.086-0.057
	c-0.021-0.047,0.002-0.102,0.05-0.123c0.146-0.061,0.288-0.121,0.427-0.18c0.047-0.02,0.104,0.002,0.122,0.049
	c0.021,0.049-0.001,0.104-0.049,0.123c-0.138,0.059-0.282,0.119-0.429,0.182C77.739,57.952,77.727,57.954,77.715,57.954
	L77.715,57.954z M6.425,57.569c-0.012,0-0.025-0.002-0.037-0.008c-0.146-0.063-0.289-0.127-0.425-0.188
	c-0.047-0.021-0.067-0.076-0.046-0.123c0.021-0.047,0.077-0.068,0.123-0.047c0.137,0.063,0.277,0.125,0.424,0.188
	c0.047,0.021,0.068,0.076,0.047,0.123C6.496,57.549,6.46,57.569,6.425,57.569L6.425,57.569z M78.709,57.526
	c-0.035,0-0.068-0.02-0.084-0.055c-0.021-0.047,0-0.102,0.047-0.123c0.146-0.063,0.287-0.125,0.424-0.188
	c0.047-0.021,0.104,0,0.124,0.045c0.021,0.047,0,0.104-0.048,0.125c-0.137,0.063-0.277,0.125-0.424,0.188
	C78.736,57.526,78.723,57.526,78.709,57.526L78.709,57.526z M5.438,57.122c-0.013,0-0.025-0.002-0.04-0.01
	c-0.146-0.066-0.286-0.137-0.42-0.199c-0.046-0.023-0.064-0.08-0.042-0.125c0.023-0.047,0.079-0.064,0.125-0.043
	c0.133,0.064,0.272,0.133,0.417,0.199c0.046,0.021,0.066,0.078,0.045,0.125C5.507,57.102,5.473,57.122,5.438,57.122L5.438,57.122z
	 M79.696,57.079c-0.033,0-0.066-0.021-0.084-0.057c-0.021-0.045-0.002-0.1,0.045-0.123c0.145-0.068,0.283-0.137,0.416-0.199
	c0.047-0.023,0.104-0.006,0.125,0.041c0.022,0.047,0.004,0.102-0.043,0.125c-0.135,0.064-0.271,0.133-0.418,0.201
	C79.723,57.075,79.709,57.079,79.696,57.079L79.696,57.079z M4.467,56.643c-0.014,0-0.029-0.004-0.042-0.012
	c-0.146-0.076-0.282-0.148-0.411-0.219c-0.046-0.023-0.063-0.08-0.038-0.127C4,56.243,4.057,56.225,4.102,56.25
	c0.128,0.068,0.265,0.143,0.408,0.217c0.046,0.023,0.063,0.08,0.04,0.125C4.534,56.624,4.5,56.643,4.467,56.643L4.467,56.643z
	 M80.667,56.594c-0.033,0-0.066-0.02-0.082-0.051c-0.024-0.045-0.008-0.102,0.037-0.125c0.146-0.076,0.28-0.148,0.408-0.219
	c0.045-0.025,0.102-0.01,0.126,0.035c0.024,0.047,0.009,0.102-0.036,0.125c-0.127,0.072-0.266,0.146-0.41,0.223
	C80.695,56.59,80.681,56.594,80.667,56.594L80.667,56.594z M3.519,56.12c-0.016,0-0.033-0.004-0.047-0.014
	c-0.146-0.086-0.278-0.168-0.397-0.244c-0.044-0.027-0.057-0.086-0.028-0.129s0.084-0.057,0.128-0.027
	c0.119,0.076,0.249,0.156,0.392,0.242c0.044,0.025,0.06,0.084,0.033,0.127C3.583,56.102,3.551,56.12,3.519,56.12L3.519,56.12z
	 M81.611,56.065c-0.03,0-0.063-0.016-0.08-0.045c-0.026-0.045-0.012-0.102,0.032-0.129c0.143-0.086,0.271-0.166,0.391-0.242
	c0.043-0.027,0.102-0.018,0.129,0.025c0.026,0.043,0.017,0.102-0.027,0.129c-0.119,0.078-0.25,0.16-0.396,0.248
	C81.644,56.061,81.627,56.065,81.611,56.065L81.611,56.065z M2.614,55.526c-0.019,0-0.038-0.006-0.055-0.02
	c-0.139-0.104-0.262-0.203-0.366-0.297c-0.038-0.035-0.041-0.094-0.007-0.131c0.034-0.039,0.093-0.041,0.131-0.008
	c0.101,0.09,0.22,0.188,0.354,0.287c0.042,0.029,0.05,0.088,0.019,0.129C2.671,55.512,2.643,55.526,2.614,55.526L2.614,55.526z
	 M82.508,55.461c-0.027,0-0.055-0.012-0.073-0.035c-0.032-0.041-0.022-0.1,0.017-0.131c0.107-0.084,0.196-0.158,0.271-0.225
	c0.037-0.033,0.097-0.031,0.131,0.008s0.031,0.096-0.007,0.131c-0.076,0.068-0.169,0.146-0.281,0.232
	C82.547,55.458,82.529,55.461,82.508,55.461L82.508,55.461z"/>
<path fill="#FFFFFF" stroke="#815C2D" stroke-width="0.25" stroke-miterlimit="10" d="M47.982,56.661
	c0-2.98-2.416-5.396-5.396-5.396c-2.981,0-5.398,2.416-5.398,5.396c0,2.982,2.417,5.398,5.398,5.398
	C45.566,62.059,47.982,59.643,47.982,56.661"/>
<path fill="#FFFFFF" stroke="#815C2D" stroke-width="0.25" stroke-miterlimit="10" d="M46.521,56.661
	c0-2.174-1.763-3.936-3.937-3.936c-2.173,0-3.936,1.762-3.936,3.936c0,2.176,1.763,3.938,3.936,3.938
	C44.758,60.596,46.521,58.834,46.521,56.661"/>
<path fill="#FFFFFF" stroke="#815C2D" stroke-width="0.25" stroke-miterlimit="10" d="M19.008,51.424
	c0.313-2.721-1.638-4.924-4.358-4.924c-2.72,0-5.179,2.203-5.491,4.924c-0.313,2.721,1.64,4.924,4.358,4.924
	C16.238,56.348,18.696,54.145,19.008,51.424"/>
<path fill="#FFFFFF" stroke="#815C2D" stroke-width="0.25" stroke-miterlimit="10" d="M17.674,51.424
	c0.229-1.982-1.194-3.59-3.177-3.59c-1.983,0-3.775,1.605-4.003,3.59c-0.229,1.982,1.193,3.592,3.178,3.592
	C15.654,55.016,17.446,53.409,17.674,51.424"/>
<path fill="#FFFFFF" stroke="#815C2D" stroke-width="0.25" stroke-miterlimit="10" d="M65.772,51.424
	c-0.313-2.721,1.639-4.924,4.359-4.924c2.72,0,5.18,2.203,5.49,4.924c0.313,2.721-1.639,4.924-4.357,4.924
	C68.543,56.348,66.084,54.145,65.772,51.424"/>
<path fill="#FFFFFF" stroke="#815C2D" stroke-width="0.25" stroke-miterlimit="10" d="M67.107,51.424
	c-0.228-1.984,1.194-3.59,3.179-3.59c1.98,0,3.773,1.605,4.004,3.59c0.228,1.982-1.195,3.592-3.179,3.592
	C69.125,55.016,67.334,53.409,67.107,51.424"/>
<path fill="#815C2D" d="M26.825,38.493c-0.043,0-0.084-0.022-0.104-0.063c-1.673-3.343-2.386-6.212-2.386-9.595
	c0-9.965,8.107-18.07,18.074-18.07c9.965,0,18.071,8.105,18.071,18.07c0,2.741-0.286,5.786-2.356,9.473
	c-0.029,0.057-0.102,0.076-0.158,0.046c-0.055-0.032-0.074-0.104-0.043-0.159c2.043-3.64,2.326-6.649,2.326-9.358
	c0-9.836-8.004-17.839-17.84-17.839c-9.838,0-17.841,8.003-17.841,17.839c0,2.36,0.28,5.332,2.36,9.49
	c0.029,0.058,0.005,0.127-0.053,0.156C26.859,38.489,26.84,38.493,26.825,38.493L26.825,38.493z"/>
<path fill="#815C2D" d="M55.133,52.182c-2.182,0-3.955-1.773-3.955-3.957c0-2.18,1.773-3.955,3.955-3.955
	c2.229,0,3.955,2.127,3.955,3.955C59.088,50.409,57.316,52.182,55.133,52.182L55.133,52.182z M55.133,44.659
	c-1.967,0-3.567,1.602-3.567,3.566c0,1.969,1.601,3.57,3.567,3.57c1.968,0,3.568-1.602,3.568-3.57
	C58.704,46.577,57.144,44.659,55.133,44.659L55.133,44.659z"/>
<path fill="#815C2D" d="M30.348,52.67L30.348,52.67h-0.004c-1.057,0-2.05-0.412-2.796-1.162c-0.747-0.746-1.157-1.74-1.156-2.797
	c0.001-2.18,1.775-3.953,3.955-3.953c2.232,0.002,3.958,2.131,3.956,3.961C34.301,50.897,32.527,52.67,30.348,52.67L30.348,52.67z
	 M30.351,45.145c-1.97,0-3.571,1.602-3.572,3.566c-0.001,0.955,0.369,1.85,1.042,2.523c0.674,0.676,1.569,1.047,2.522,1.049
	l0.003,0.193v-0.193c1.966,0,3.566-1.6,3.568-3.566C33.917,47.069,32.36,45.149,30.351,45.145L30.351,45.145z"/>
<path fill="#815C2D" d="M41.808,69.442c-5.232,0-10.454-0.518-15.606-1.551c-13.912-2.789-22.621-8.453-22.707-8.51
	c-0.09-0.059-0.115-0.18-0.056-0.268c0.06-0.09,0.18-0.113,0.269-0.055c0.086,0.057,8.744,5.686,22.587,8.455
	c12.771,2.559,32.696,3.137,55.091-8.623c0.096-0.051,0.212-0.014,0.262,0.082c0.05,0.094,0.014,0.211-0.081,0.262
	c-9.937,5.217-20.222,8.473-30.571,9.674C47.937,69.264,44.87,69.442,41.808,69.442L41.808,69.442z"/>
<circle fill="#FFFFFF" stroke="#815C2D" stroke-width="0.25" stroke-miterlimit="10" cx="30.382" cy="48.787" r="2.546"/>
<circle fill="#FFFFFF" stroke="#815C2D" stroke-width="0.25" stroke-miterlimit="10" cx="55.069" cy="48.238" r="2.546"/>
<path fill="#FFFFFF" stroke="#815C2D" stroke-width="0.25" stroke-miterlimit="10" d="M25.013,39.039c0,0-1.284,0.709-1.419,1.434
	c-0.08,0.422-0.952,0.462-1.042,0.598c-0.09,0.137,11.274,4.971,28.118,2.936c0,0,9.145-1.45,11.635-2.899L61.4,40.474
	c0,0-0.255-1.664-1.603-1.663C59.375,38.809,45.083,46.5,25.013,39.039z"/>
<path fill="#E40F51" stroke="#815C2D" stroke-width="0.25" stroke-miterlimit="10" d="M31.78,18.155"/>
<path fill="#FFFFFF" stroke="#815C2D" stroke-width="0.25" stroke-miterlimit="10" d="M35.437,19.96l-3.657-1.806
	c0,0-5.716,7.488-4.375,13.946c0,0,0.936,3.451,2.519,4.143c1.584,0.69,0.689-1.34,0.853-1.908c0.162-0.567-0.238-2.346-0.202-3.29
	C30.694,27.837,33.282,22.979,35.437,19.96z"/>
<path fill="#FFFFFF" stroke="#815C2D" stroke-width="0.25" stroke-miterlimit="10" d="M37.122,20.578
	c0.048-0.008,2.061,0.718,2.061,0.718s-1.907,1.306-2.227,1.564c-0.318,0.261-0.744,0.757-0.828,0.91
	c-0.083,0.153-0.106,0.344-0.189,0.427c-0.083,0.082-0.697,0.969-1.786,0.898c0,0,0.214-0.545,0.367-0.863
	C34.673,23.913,35.951,20.768,37.122,20.578z"/>
<g>
	<path fill="#815C2D" d="M28.148,61.247c-0.01,0-0.02-0.002-0.029-0.004c-0.064-0.009-0.117-0.051-0.143-0.109l-7.443-17.178
		l-6.009,1.313c-0.1,0.022-0.2-0.042-0.223-0.144c-0.022-0.103,0.042-0.201,0.143-0.225l6.159-1.347
		c0.088-0.021,0.177,0.026,0.212,0.108l7.39,17.051L40.902,46.5c0.035-0.039,0.084-0.063,0.138-0.063
		c0.055-0.008,0.103,0.02,0.139,0.059l12.906,13.666l7.769-14.779c0.024-0.049,0.069-0.084,0.126-0.096l6.928-1.539
		c0.102-0.022,0.201,0.041,0.225,0.143c0.021,0.102-0.043,0.201-0.144,0.225l-6.844,1.52L54.293,60.57
		c-0.026,0.056-0.08,0.091-0.141,0.099c-0.059,0.008-0.119-0.012-0.16-0.057l-12.946-13.71L28.289,61.184
		C28.252,61.223,28.202,61.247,28.148,61.247L28.148,61.247z"/>
</g>

	<g id="clickMark_0_0" class="none">
		<path fill="#FFFFFF" d="M83.975,42.521c0,22.892-18.561,41.454-41.458,41.454c-22.893,0-41.453-18.562-41.453-41.454 C1.065,19.623,19.625,1.064,42.519,1.064C65.415,1.064,83.975,19.623,83.975,42.521z" />
		<path fill="none" stroke="#000000" stroke-width="0.9447" d="M42.519,73.262c16.977,0,30.746-13.76,30.746-30.741 c0-16.98-13.769-30.74-30.746-30.74c-16.979,0-30.743,13.76-30.743,30.74C11.774,59.502,25.54,73.262,42.519,73.262z" />
		<path fill="#D7DF23" d="M42.519,73.262c16.977,0,30.746-13.76,30.746-30.741c0-16.98-13.769-30.74-30.746-30.74 c-16.979,0-30.743,13.76-30.743,30.74C11.774,59.502,25.54,73.262,42.519,73.262" />
		<path fill="none" stroke="#000000" stroke-width="0.8879" d="M42.519,73.262c16.977,0,30.746-13.76,30.746-30.741 c0-16.98-13.769-30.74-30.746-30.74c-16.979,0-30.743,13.76-30.743,30.74C11.774,59.502,25.54,73.262,42.519,73.262" />
		<path fill="#ED1C24" d="M58.706,24.476c0.098,0.837-0.395,1.623-1.477,2.36c-1.377,0.983-2.213,1.721-2.508,2.211l-8.408,14.606 l7.08,13.721c0.1,0.148,0.615,0.91,1.549,2.287c0.591,0.838,0.886,1.6,0.886,2.287c0,0.395-0.071,0.789-0.222,1.182 c-0.836,2.113-2.387,3.172-4.646,3.172c-0.937,0-1.846-0.197-2.731-0.592c-1.229-0.541-1.904-1.242-2.027-2.102 c-0.122-0.861-0.232-1.707-0.332-2.545l-3.982-9.888l-4.424,8.854c-0.295,0.982-0.64,1.953-1.033,2.914 c-0.395,0.959-1.157,1.437-2.287,1.437c-1.428,0-2.804-0.491-4.131-1.476c-1.426-1.131-2.041-2.383-1.844-3.762 c0.097-0.541,0.429-1.115,0.995-1.733c0.565-0.615,0.922-1.068,1.071-1.363l6.492-11.806l-4.577-14.306 c-0.147-0.493-0.626-1.096-1.438-1.808s-1.268-1.387-1.364-2.028c-0.148-1.13,0.539-2.139,2.065-3.024 c1.376-0.737,2.851-1.107,4.427-1.107c0.886,0,1.573,0.148,2.066,0.441c1.081,0.692,1.743,1.563,1.989,2.62 c0.245,1.059,0.468,2.104,0.664,3.135l2.212,6.934l4.869-8.706c0.442-0.934,0.924-1.891,1.438-2.876 c0.519-0.985,1.216-1.646,2.103-1.991c0.539-0.247,1.154-0.37,1.844-0.37c1.279,0,2.521,0.356,3.726,1.071 C57.954,22.938,58.606,23.689,58.706,24.476z" />
	</g>
</svg>
