<svg version="1.1" id="svg_1_1" xmlns="http://www.w3.org/2000/svg" xmlns:xlink="http://www.w3.org/1999/xlink" x="0px" y="0px"
	 width="85.04px" height="85.04px" viewBox="0 0 85.04 85.04" enable-background="new 0 0 85.04 85.04" xml:space="preserve">
<path id="toFill_12_" fill="#FFFFFF" stroke="#815C2D" stroke-width="0.25" stroke-miterlimit="10" d="M32.853,78.866
	c0.456,0.531,0.456,0.531,0.456,0.531s1.518-0.379,2.732-0.379c0.875,0,1.312,0.195,1.49,0.307c-0.068-0.175-0.135-0.353-0.2-0.533
	c-0.379-1.063-0.304-1.441-0.304-1.441l-4.174-7.516l-1.29-0.076c0,0-1.822,0.305-2.277,0.685c0,0,0.684,2.276,1.291,4.101
	C31.183,76.362,32.398,78.334,32.853,78.866z"/>
<path fill="#FFFFFF" stroke="#815C2D" stroke-width="0.25" stroke-miterlimit="10" d="M37.531,79.325
	c-0.178-0.111-0.616-0.307-1.49-0.307c-1.214,0-2.732,0.379-2.732,0.379s0,0-0.456-0.531c-0.455-0.531-1.67-2.504-2.277-4.326
	c-0.607-1.82-1.291-4.099-1.291-4.099c-0.455,0.38-1.139,0.761-1.063,0.985c0.076,0.23,0.532,2.961,1.594,4.936
	c1.063,1.975,2.505,5.01,4.706,6.072s3.036,0.91,3.264,0.758c0.228-0.15,0.683-0.605,0.532-1.518
	C38.192,80.92,37.858,80.165,37.531,79.325z"/>
<path fill="none" stroke="#815C2D" stroke-width="0.25" stroke-miterlimit="10" d="M33.309,79.397c0,0,1.822,2.354,5.01,2.656"/>
<path id="toFill_13_" fill="#FFFFFF" stroke="#815C2D" stroke-width="0.25" stroke-miterlimit="10" d="M50.386,81.598
	c1.215,0,2.885-0.15,2.885-0.15s1.819-1.596,1.819-2.582c0-0.852,0-0.968,0-0.982c-0.745-0.176-1.315-0.23-1.315-0.23L43.599,79.57
	c0,0-0.41,0.376-0.502,1.033c-0.009,0.056-0.013,0.11-0.019,0.167c0.299,0.027,1.799,0.178,2.754,0.449
	C46.894,81.523,49.17,81.598,50.386,81.598z"/>
<path fill="#FFFFFF" stroke="#815C2D" stroke-width="0.25" stroke-miterlimit="10" d="M56.284,78.243
	c-0.41-0.156-0.82-0.271-1.191-0.359c0,0.017,0,0.133,0,0.982c0,0.986-1.819,2.582-1.819,2.582s-1.67,0.15-2.885,0.15
	c-1.216,0-3.492-0.075-4.554-0.381c-0.955-0.271-2.455-0.42-2.752-0.448c-0.039,0.47,0.017,0.938,0.017,0.938
	s0.146,0.592,0.358,0.737c0.215,0.146,3.151,0.519,4.515,0.368c1.36-0.146,1.435-0.146,2.149-0.07
	c0.717,0.07,4.801,0.439,6.305-0.148c1.507-0.59,2.009-0.959,2.009-1.918S57.644,78.758,56.284,78.243z"/>
<path fill="none" stroke="#815C2D" stroke-width="0.25" stroke-miterlimit="10" d="M53.271,81.448c0,0,3.34,0.227,4.935-1.064"/>
<path id="toFill_10_" fill="#FFFFFF" stroke="#815C2D" stroke-width="0.25" stroke-miterlimit="10" d="M33.005,40.899
	c-1.16,2.93-1.622,5.877-2.201,8.943c-1.318,0.053-0.887,1.344-1.498,2.132c-0.566,0.729-1.773,0.604-1.528,1.846
	c0.079,0.397,1.869-0.629,2.04-0.728c-0.397,0.789-1.368,1.996-1.069,2.574c1.124,0.617,1.322-1.39,2.073-1.949
	c0.459,0.898-0.659,2.711,0.328,2.953c1.219,0.303,0.842-2.146,1.342-2.549c-0.015,0.625,0.699,2.25,1.195,2.104
	c1.015-0.785-0.064-2.345,0.205-3.31c0.48,0.69,0.888,1.412,1.742,1.43c0.33,0.006-1.313-4.188-1.188-4.795
	c0.123-0.596,2.548-7.716,2.54-7.721c-0.984-0.569-2.661-0.938-3.834-1.298C33.101,40.658,33.053,40.78,33.005,40.899z"/>
<path fill="#FFFFFF" stroke="#815C2D" stroke-width="0.25" stroke-miterlimit="10" d="M31.907,50.788c0,0-0.604,1.412,1.075,1.512"
	/>
<path id="toFill_11_" fill="#FFFFFF" stroke="#815C2D" stroke-width="0.25" stroke-miterlimit="10" d="M36.041,51.465
	c0,0-2.55,2.697,0.921,10.134l1.053,3.907c0,0-1.68,0.263-2.581,1.14c-1.148,1.118-3.745,1.854-4.022,1.974
	c-0.496,0.213,1.305,2.172,1.518,2.81c0,0,0.959,1.761,1.215,2.655c0.455,1.596,3.305,4.938,4.933,3.947
	c0.479-0.291,0.884-1.058,1.519-1.595c0.367-0.312,1.19-0.614,1.407-1.009c0.684-1.237,1.292-2.479,1.899-2.781
	c0,0-0.217,1.818-0.107,2.255c0.055,0.218-0.674,1.581-0.693,2.446c-0.02,0.863-0.603,2.257,0.531,2.505
	c2.268,0.495,8.744,0.769,10.779-1.366c1.205-1.266-0.07-0.988-0.607-1.974c-0.369-0.677-0.244-1.921-0.531-2.353
	c-0.709-1.063-0.164-4.49-0.164-6.261s0.566-2.763-0.354-4.392s-1-3.471-1-4.53c0-0.466-0.715-1.821-0.607-3.188
	c0.152-1.963-0.684-2.457-0.684-3.188c0-0.911,0.523-1.977-0.607-3.036C48.722,48.504,36.041,51.465,36.041,51.465z"/>
<path fill="#BEE1E6" stroke="#815C2D" stroke-width="0.25" stroke-miterlimit="10" d="M38.015,65.735c0,0,1.354,1.459,1.921,1.459"
	/>
<path fill="none" stroke="#815C2D" stroke-width="0.25" stroke-miterlimit="10" d="M38.52,65.14c0,0,3.187,0.849,4.318-1.417"/>
<path id="toFill_7_" fill="#FFFFFF" stroke="#815C2D" stroke-width="0.25" stroke-miterlimit="10" d="M36.307,31.408
	c0,0-1.196,1.367-2.479,4.75c-0.372,0.979-2.629,3.824-3.054,3.824c-0.425,0,4.435,4.091,6.108,3.321
	C38.555,42.532,36.307,31.408,36.307,31.408z"/>
<path id="toFill_6_" fill="#FFFFFF" stroke="#815C2D" stroke-width="0.25" stroke-miterlimit="10" d="M36.749,29.802
	c-0.437-0.047-1.467,1.378-1.41,3.769c0.042,1.768,0.304,3.872,0.512,5.921c0.216,2.121,0.07,3.604,0.024,3.995
	c-0.284,2.412-2.099,5.168-1.389,7.623c0.568,1.965,3.277,2.695,5.166,2.842c2.894,0.223,9.578-0.061,11.359-2.631
	c2.061-2.977-0.951-7.686-2.085-10.472c-1.502-3.69-3.366-7.646-6.832-9.878c-0.83-0.534-1.239-0.719-2.644-0.874
	C38.55,30,37.65,29.901,36.749,29.802z"/>
<path id="toFill_8_" fill="#FFFFFF" stroke="#815C2D" stroke-width="0.25" stroke-miterlimit="10" d="M41.688,41.063
	c-0.534,0.338-0.982,0.642-0.97,0.688c0.878,3.267,4.115,4.73,6.83,6.207c1.336,0.729,2.604,0.939,3.334,2.293
	c0.436,0.814,1.08,3.701,2.162,4.213c0.396-0.17-0.17-1.194-0.27-1.937c0.656,0.687,1.063,2.164,1.979,2.05
	c0.512-0.057-0.398-1.423-0.521-2.377c0.801,0.777,1.375,2.719,2.377,2.391c0.363-0.297-0.377-1.891-0.893-2.941
	c0.477,0.504,1.914,2.628,2.564,1.62c0.348-0.535-1.674-2.593-2.162-3.188c1.066,0.336,2.613-0.228,1.82-1.537
	c-1.963,0.842-2.563-1.082-4.84-1.252c-0.998-0.076-3.125-2.814-3.871-3.474c-1.422-1.252-2.162-1.708-2.855-2.798
	c-0.957-1.506-1.295-1.658-2.976-0.975C43.265,40.098,42.4,40.613,41.688,41.063z"/>
<path id="toFill_9_" fill="#FFFFFF" stroke="#815C2D" stroke-width="0.25" stroke-miterlimit="10" d="M36.855,32.246
	c0,0,1.577-0.627,3.151-0.097c1.224,0.412,2.325,1.821,3.469,2.858c2.621,2.373,3.719,3.4,4.566,3.577
	c0.851,0.177,1.523,0.531,1.523,0.531s-4.32,6.94-8.959,5.559C40.609,44.672,35.333,39.611,36.855,32.246z"/>
<path id="toFill_5_" fill="#FFFFFF" stroke="#815C2D" stroke-width="0.25" stroke-miterlimit="10" d="M39.171,10.697
	c0,0-1.804,9.78-1.695,10.601c0.11,0.82-1.17-3.552-3.333-1.445c0,0-1.857,4.34,1.749,5.325c0,0,1.822,2.803,0.856,4.625
	c0,0,4.116,1.932,5.208,1.932c1.091,0-1.126-1.132-0.471-2.717c1.605,0.27,3.697,0.517,5.281,0.138
	c0.846-0.202,1.938-0.514,2.625-1.079c0.199-0.166,1.479-2.161,1.299-2.155c-1.395,0.045-2.162-1.317-2.051-2.639
	c0.754,0.275,1.688,0.32,2.469-0.012c-0.732-1.712,1.182-1.796,1.178-3.13c-0.002-0.655-0.229-1.574-2.188-1.302
	c0,0-0.492-0.765-0.328-2.295c0.164-1.53,1.641-4.753-3.061-6.994C42.012,7.309,39.171,10.697,39.171,10.697z"/>
<path fill="#FFFFFF" stroke="#815C2D" stroke-width="0.25" stroke-miterlimit="10" d="M35.893,25.177c0,0,1.093,0.438,1.803-1.093"
	/>
<path id="toFill_3_" fill="#FFFFFF" stroke="#815C2D" stroke-width="0.25" stroke-miterlimit="10" d="M47.531,11.025
	c0,0,2.242,0.656,2.46,2.24c0.219,1.585,1.147,0.001,1.313-0.601c0.164-0.601-0.272-2.021-1.747-3.388
	C48.079,7.91,35.51,9.386,35.51,9.386l-5.082,2.841c0,0-2.483,1.341-1.803,6.011c0,0-1.639,0.219-2.787-1.202
	c0,0-0.656,6.666,3.825,4.152c0,0-1.257,2.021,1.093,4.317c0,0,0.383,1.804-1.584,2.405c0,0,2.186,0.273,3.443-1.749
	c0,0,0.998,3.636,4.22,1.321c0,0-0.479-2.039-0.856-2.215c-0.377-0.176-1.813-0.528-1.988-2.215c0,0-0.644-0.991,0.496-3.029
	c0,0,1.165-0.973,1.92-0.293c0,0,0.881,0.956,0.982,1.586c0,0,0.252,0.729,0.78,0.729c0,0,0.755,0.176,1.51-0.327
	c0.755-0.503-1.284,0.075-1.208-0.956c0,0,0.705,0.352,1.435-0.026c0.73-0.377-0.705-0.201-0.881-1.334
	c-0.175-1.132,4.474-4.379,2.635-6.267C41.657,13.135,44.459,9.418,47.531,11.025z"/>
<ellipse fill="#815C2D" cx="47.684" cy="18.477" rx="0.363" ry="0.75"/>
<ellipse fill="#FFFFFF" cx="47.625" cy="18.21" rx="0.123" ry="0.298"/>
<line fill="none" stroke="#815C2D" stroke-width="0.25" stroke-miterlimit="10" x1="48.851" y1="22.908" x2="48.29" y2="23.506"/>
<path id="toFill_2_" fill="#FFFFFF" stroke="#815C2D" stroke-width="0.25" stroke-miterlimit="10" d="M37.856,12.022
	c0,0,10.784,2.802,21.379-4.537c0,0,0.105-1.424-2.928-0.979c-2.475,0.363-6.602,1.779-9.896,1.379
	C43.109,7.485,37.856,12.022,37.856,12.022z"/>
<path fill="#FFFFFF" stroke="#815C2D" stroke-width="0.25" stroke-miterlimit="10" d="M27.939,16.493c0,0,14.714-1.713,20.834-8.937
	c0,0-4.222-8.206-13.377-5.124C35.396,2.433,24.901,5.587,27.939,16.493z"/>
<path id="toFill_4_" fill="#FFFFFF" stroke="#815C2D" stroke-width="0.25" stroke-miterlimit="10" d="M46.097,15.469
	c0,0,0.569-1.252,1.194-1.594c0.627-0.342,0.854-0.513,0.854-0.513s0.342-0.285,0.058-0.512
	C47.918,12.623,46.156,13.533,46.097,15.469z"/>
<path fill="#FFFFFF" stroke="#815C2D" stroke-width="0.25" stroke-miterlimit="10" d="M36.42,23.78c0,0-0.512-0.171-0.342-0.74
	c0.171-0.569,0.626-0.285,0.626-0.285s-0.228-1.48-0.854-1.594c-0.626-0.114-0.797,0.569-0.854,0.911c-0.057,0.342,0,0.569,0,0.569"
	/>
<ellipse id="toFill_14_" fill="#FFFFFF" stroke="#815C2D" stroke-width="0.25" stroke-miterlimit="10" cx="31.752" cy="72.85" rx="0.911" ry="0.854"/>
<path fill="none" stroke="#815C2D" stroke-width="0.25" stroke-miterlimit="10" d="M43.902,72.647c0,0,4.002-2.509,4.738-4.938
	c0,0,1.053-2.645,0.685-5.92c-0.238-2.119-0.604-3.563-0.197-5.597c0.11-0.552,1.031-0.479,0.772-1.51c0,0-0.672-1.188-0.784-1.53"
	/>
<path fill="#FFFFFF" stroke="#815C2D" stroke-width="0.25" stroke-miterlimit="10" d="M35.851,14.539c0,0-1.291-2.505-1.594-5.389
	c-0.303-2.884,0.797-6.262,0.797-6.262"/>
</svg>
