<svg version="1.1" id="svg_1_v" valid="1" xmlns="http://www.w3.org/2000/svg" xmlns:xlink="http://www.w3.org/1999/xlink" x="0px" y="0px" width="85.04px" height="85.04px" viewBox="0 0 85.04 85.04" enable-background="new 0 0 85.04 85.04" xml:space="preserve">
<path fill="#FFFFFF" toFill="#CA3029" stroke="#815C2D" stroke-width="0.25" stroke-miterlimit="10" d="M32.853,78.866
	c0.456,0.531,0.456,0.531,0.456,0.531s1.518-0.379,2.732-0.379c0.875,0,1.312,0.195,1.49,0.307c-0.068-0.175-0.135-0.353-0.2-0.533
	c-0.379-1.063-0.304-1.442-0.304-1.442l-4.174-7.515l-1.29-0.076c0,0-1.822,0.304-2.277,0.684c0,0,0.684,2.277,1.291,4.1
	C31.183,76.362,32.398,78.334,32.853,78.866z"/>
<path fill="#FFFFFF" stroke="#815C2D" stroke-width="0.25" stroke-miterlimit="10" d="M37.531,79.325
	c-0.178-0.111-0.616-0.307-1.49-0.307c-1.214,0-2.732,0.379-2.732,0.379s0,0-0.456-0.531c-0.455-0.531-1.67-2.504-2.277-4.326
	c-0.607-1.82-1.291-4.099-1.291-4.099c-0.455,0.38-1.139,0.761-1.063,0.985c0.076,0.23,0.532,2.961,1.594,4.936
	c1.063,1.975,2.505,5.01,4.706,6.072s3.036,0.91,3.264,0.758c0.228-0.15,0.683-0.605,0.532-1.518
	C38.192,80.92,37.858,80.165,37.531,79.325z"/>
<path fill="none" stroke="#815C2D" stroke-width="0.25" stroke-miterlimit="10" d="M33.309,79.397c0,0,1.822,2.354,5.01,2.656"/>
<path fill="#FFFFFF" stroke="#815C2D" stroke-width="0.25" stroke-miterlimit="10" d="M36.99,78.202c0,0-1.082-0.285-1.537-0.285
	s-1.309,0.115-1.423-0.057c-0.114-0.171-0.284-0.74,0.228-0.91c0.513-0.172,2.05,0,2.448,0.342
	C37.103,77.631,36.99,78.202,36.99,78.202z"/>
<path fill="#FFFFFF" stroke="#815C2D" stroke-width="0.25" stroke-miterlimit="10" d="M35.453,76.04c0,0-1.139,0.057-1.537,0
	c-0.398-0.059-0.797-0.57-0.398-0.685s1.594-0.112,1.765,0.112C35.453,75.698,35.453,76.04,35.453,76.04z"/>
<path fill="#FFFFFF" toFill="#CA3029" stroke="#815C2D" stroke-width="0.25" stroke-miterlimit="10" d="M50.386,81.598
	c1.215,0,2.885-0.15,2.885-0.15s1.82-1.596,1.82-2.582c0-0.852,0-0.968,0-0.982c-0.746-0.176-1.316-0.231-1.316-0.231L43.599,79.57
	c0,0-0.41,0.376-0.502,1.033c-0.008,0.056-0.012,0.11-0.018,0.167c0.299,0.027,1.799,0.178,2.754,0.449
	C46.894,81.523,49.171,81.598,50.386,81.598z"/>
<path fill="#FFFFFF" stroke="#815C2D" stroke-width="0.25" stroke-miterlimit="10" d="M56.283,78.243
	c-0.41-0.156-0.82-0.271-1.191-0.359c0,0.016,0,0.132,0,0.982c0,0.986-1.819,2.582-1.819,2.582s-1.67,0.15-2.885,0.15
	c-1.216,0-3.492-0.075-4.554-0.381c-0.955-0.271-2.455-0.42-2.752-0.448c-0.039,0.47,0.017,0.938,0.017,0.938
	s0.146,0.592,0.358,0.738c0.215,0.146,3.152,0.518,4.515,0.368c1.36-0.147,1.434-0.146,2.149-0.071
	c0.717,0.071,4.801,0.44,6.305-0.148c1.507-0.59,2.009-0.959,2.009-1.918S57.644,78.758,56.283,78.243z"/>
<path fill="none" stroke="#815C2D" stroke-width="0.25" stroke-miterlimit="10" d="M53.271,81.448c0,0,3.34,0.227,4.934-1.064"/>
<path fill="#FFFFFF" stroke="#815C2D" stroke-width="0.25" stroke-miterlimit="10" d="M53.158,78.202c0,0-0.799,1.424-0.799,1.709
	c0,0.283,0.115,0.512,0.342,0.512c0.229,0,0.57-0.455,0.969-1.311c0.398-0.854,0.455-1.023,0.455-1.023L53.158,78.202z"/>
<path fill="#FFFFFF" toFill="#F1CBA9" stroke="#815C2D" stroke-width="0.25" stroke-miterlimit="10" d="M33.005,40.899
	c-1.16,2.93-1.622,5.877-2.201,8.943c-1.318,0.053-0.887,1.344-1.498,2.132c-0.566,0.729-1.773,0.604-1.528,1.846
	c0.079,0.397,1.869-0.629,2.04-0.728c-0.397,0.789-1.368,1.996-1.069,2.574c1.124,0.617,1.322-1.389,2.073-1.949
	c0.459,0.898-0.659,2.711,0.328,2.953c1.219,0.303,0.842-2.145,1.342-2.549c-0.015,0.625,0.699,2.25,1.195,2.105
	c1.015-0.785-0.064-2.344,0.205-3.309c0.48,0.69,0.888,1.412,1.742,1.429c0.33,0.006-1.313-4.188-1.188-4.794
	c0.123-0.596,2.548-7.717,2.54-7.722c-0.984-0.569-2.661-0.938-3.834-1.298C33.101,40.658,33.053,40.78,33.005,40.899z"/>
<path fill="#F1CBA9" stroke="#815C2D" stroke-width="0.25" stroke-miterlimit="10" d="M31.907,50.788c0,0-0.604,1.412,1.075,1.512"
	/>
<path fill="#FFFFFF" toFill="#BEE1E6" stroke="#815C2D" stroke-width="0.25" stroke-miterlimit="10" d="M36.041,51.465
	c0,0-2.55,2.697,0.921,10.134l1.053,3.907c0,0-1.68,0.263-2.581,1.14c-1.148,1.118-3.745,1.854-4.022,1.974
	c-0.496,0.213,1.305,2.172,1.518,2.809c0,0,0.959,1.761,1.215,2.656c0.455,1.595,3.305,4.938,4.933,3.947
	c0.479-0.291,0.884-1.058,1.519-1.595c0.367-0.312,1.19-0.614,1.407-1.009c0.684-1.237,1.292-2.479,1.899-2.781
	c0,0-0.217,1.818-0.108,2.255c0.055,0.218-0.674,1.581-0.693,2.446c-0.02,0.863-0.602,2.257,0.531,2.505
	c2.268,0.495,8.744,0.769,10.779-1.366c1.205-1.266-0.07-0.988-0.607-1.974c-0.369-0.677-0.244-1.921-0.531-2.353
	c-0.709-1.063-0.164-4.49-0.164-6.26c0-1.771,0.566-2.763-0.354-4.391c-0.92-1.629-1-3.471-1-4.531c0-0.466-0.715-1.822-0.607-3.188
	c0.152-1.963-0.684-2.457-0.684-3.188c0-0.911,0.524-1.976-0.607-3.036C48.722,48.504,36.041,51.465,36.041,51.465z"/>
<path fill="#BEE1E6" stroke="#815C2D" stroke-width="0.25" stroke-miterlimit="10" d="M38.015,65.735c0,0,1.354,1.459,1.921,1.459"
	/>
<path fill="none" stroke="#815C2D" stroke-width="0.25" stroke-miterlimit="10" d="M38.52,65.14c0,0,3.187,0.849,4.319-1.417"/>
<path fill="#FFFFFF" toFill="#90C480" stroke="#815C2D" stroke-width="0.25" stroke-miterlimit="10" d="M36.307,31.408
	c0,0-1.196,1.367-2.479,4.75c-0.372,0.979-2.629,3.824-3.054,3.824c-0.425,0,4.435,4.091,6.108,3.321
	C38.555,42.532,36.307,31.408,36.307,31.408z"/>
<path fill="#FFFFFF" toFill="#0080C5" stroke="#815C2D" stroke-width="0.25" stroke-miterlimit="10" d="M36.749,29.802
	c-0.437-0.047-1.467,1.378-1.41,3.769c0.042,1.768,0.304,3.872,0.512,5.921c0.216,2.121,0.07,3.604,0.024,3.995
	c-0.284,2.412-2.099,5.168-1.389,7.623c0.568,1.965,3.277,2.695,5.166,2.842c2.894,0.223,9.578-0.061,11.359-2.631
	c2.061-2.977-0.951-7.686-2.084-10.472c-1.502-3.69-3.367-7.646-6.833-9.878c-0.83-0.534-1.239-0.719-2.644-0.874
	C38.55,30,37.65,29.901,36.749,29.802z"/>
<path fill="#FFFFFF" toFill="#F1CBA9" stroke="#815C2D" stroke-width="0.25" stroke-miterlimit="10" d="M41.688,41.063
	c-0.534,0.338-0.982,0.642-0.97,0.688c0.878,3.267,4.114,4.73,6.829,6.207c1.336,0.729,2.604,0.939,3.334,2.293
	c0.436,0.814,1.08,3.701,2.162,4.213c0.397-0.17-0.17-1.195-0.269-1.937c0.656,0.687,1.063,2.164,1.978,2.05
	c0.512-0.057-0.398-1.423-0.521-2.377c0.801,0.777,1.375,2.719,2.377,2.391c0.363-0.297-0.377-1.891-0.893-2.942
	c0.477,0.504,1.914,2.628,2.565,1.62c0.347-0.535-1.674-2.592-2.163-3.188c1.067,0.336,2.614-0.228,1.821-1.537
	c-1.963,0.842-2.563-1.082-4.84-1.252c-0.998-0.076-3.125-2.815-3.871-3.474c-1.422-1.252-2.162-1.708-2.856-2.798
	c-0.957-1.506-1.295-1.658-2.975-0.975C43.265,40.098,42.4,40.613,41.688,41.063z"/>
<path fill="#FFFFFF" toFill="#A5CE96" stroke="#815C2D" stroke-width="0.25" stroke-miterlimit="10" d="M36.855,32.246
	c0,0,1.577-0.627,3.151-0.097c1.224,0.412,2.324,1.821,3.469,2.858c2.621,2.373,3.719,3.4,4.567,3.577
	c0.85,0.177,1.523,0.531,1.523,0.531s-4.32,6.94-8.959,5.559C40.609,44.672,35.333,39.611,36.855,32.246z"/>
<path fill="#FFFFFF" toFill="#F1CBA9" stroke="#815C2D" stroke-width="0.25" stroke-miterlimit="10" d="M39.171,10.697
	c0,0-1.804,9.78-1.695,10.601c0.11,0.82-1.17-3.552-3.333-1.445c0,0-1.857,4.34,1.749,5.325c0,0,1.822,2.803,0.856,4.625
	c0,0,4.116,1.932,5.208,1.932s-1.126-1.132-0.471-2.717c1.606,0.27,3.697,0.517,5.281,0.138c0.846-0.202,1.938-0.514,2.625-1.079
	c0.2-0.166,1.479-2.161,1.299-2.155c-1.394,0.045-2.162-1.317-2.051-2.639c0.754,0.275,1.687,0.32,2.469-0.012
	c-0.733-1.712,1.181-1.796,1.177-3.13c-0.002-0.655-0.228-1.574-2.187-1.302c0,0-0.492-0.765-0.328-2.295
	c0.164-1.53,1.64-4.753-3.06-6.994C42.012,7.309,39.171,10.697,39.171,10.697z"/>
<path fill="#F1CBA9" stroke="#815C2D" stroke-width="0.25" stroke-miterlimit="10" d="M35.893,25.177c0,0,1.093,0.438,1.803-1.093"
	/>
<path fill="#FFFFFF" toFill="#394A53" stroke="#815C2D" stroke-width="0.25" stroke-miterlimit="10" d="M47.531,11.025
	c0,0,2.242,0.656,2.459,2.24c0.219,1.585,1.148,0.001,1.313-0.601c0.164-0.601-0.272-2.021-1.747-3.388
	C48.078,7.91,35.51,9.386,35.51,9.386l-5.082,2.841c0,0-2.483,1.341-1.803,6.011c0,0-1.639,0.219-2.787-1.202
	c0,0-0.656,6.666,3.825,4.152c0,0-1.257,2.021,1.093,4.317c0,0,0.383,1.804-1.584,2.405c0,0,2.186,0.273,3.443-1.749
	c0,0,0.998,3.636,4.22,1.321c0,0-0.479-2.039-0.856-2.215c-0.377-0.176-1.813-0.528-1.988-2.215c0,0-0.644-0.991,0.496-3.029
	c0,0,1.165-0.973,1.92-0.293c0,0,0.881,0.956,0.982,1.586c0,0,0.252,0.729,0.78,0.729c0,0,0.755,0.176,1.51-0.327
	c0.755-0.503-1.284,0.075-1.208-0.956c0,0,0.705,0.352,1.435-0.026c0.73-0.377-0.705-0.201-0.881-1.334
	c-0.175-1.132,4.473-4.379,2.635-6.267C41.657,13.135,44.46,9.418,47.531,11.025z"/>
<ellipse fill="#815C2D" cx="47.684" cy="18.477" rx="0.364" ry="0.75"/>
<ellipse fill="#FFFFFF" cx="47.626" cy="18.21" rx="0.123" ry="0.298"/>
<line fill="none" stroke="#815C2D" stroke-width="0.25" stroke-miterlimit="10" x1="48.851" y1="22.908" x2="48.289" y2="23.506"/>
<path fill="#FFFFFF" toFill="#E43222" stroke="#815C2D" stroke-width="0.25" stroke-miterlimit="10" d="M37.856,12.022
	c0,0,10.784,2.802,21.379-4.537c0,0,0.106-1.424-2.928-0.979c-2.474,0.363-6.601,1.779-9.897,1.379
	C43.109,7.485,37.856,12.022,37.856,12.022z"/>
<path fill="#FFFFFF" stroke="#815C2D" stroke-width="0.25" stroke-miterlimit="10" d="M27.939,16.493c0,0,14.714-1.713,20.834-8.937
	c0,0-4.221-8.206-13.377-5.124C35.396,2.433,24.901,5.587,27.939,16.493z"/>
<path fill="#FFFFFF" toFill="#394A53" stroke="#815C2D" stroke-width="0.25" stroke-miterlimit="10" d="M46.097,15.469
	c0,0,0.57-1.252,1.195-1.594c0.627-0.342,0.854-0.513,0.854-0.513s0.342-0.285,0.058-0.512
	C47.919,12.623,46.156,13.533,46.097,15.469z"/>
<path fill="#F1CBA9" stroke="#815C2D" stroke-width="0.25" stroke-miterlimit="10" d="M36.42,23.78c0,0-0.512-0.171-0.342-0.74
	c0.171-0.569,0.626-0.285,0.626-0.285s-0.228-1.48-0.854-1.594c-0.626-0.114-0.797,0.569-0.854,0.911c-0.057,0.342,0,0.569,0,0.569"
	/>
<ellipse fill="#FFFFFF" toFill="#E08B81" stroke="#815C2D" stroke-width="0.25" stroke-miterlimit="10" cx="31.752" cy="72.85" rx="0.911" ry="0.854"/>
<path fill="none" stroke="#815C2D" stroke-width="0.25" stroke-miterlimit="10" d="M43.902,72.647c0,0,4.002-2.509,4.738-4.938
	c0,0,1.053-2.644,0.684-5.92c-0.238-2.119-0.604-3.562-0.197-5.596c0.111-0.552,1.031-0.479,0.773-1.51c0,0-0.672-1.188-0.785-1.53"
	/>
<path fill="#FFFFFF" toFill="#E96647" d="M48.64,8.201c0,0,3.15-0.341,4.631-0.683c1.48-0.341,3.756-1.024,4.439-0.911
	c0.683,0.113,0.912,0.417,0.912,0.417s-1.291,0.114-2.545,0.493c-1.252,0.379-3.527,1.214-5.388,1.404s-2.771-0.114-2.771-0.114
	S48.564,8.315,48.64,8.201z"/>
<path fill="#FFFFFF" toFill="#E2EBF0" d="M28.109,16.133c0,0-0.607-2.277-0.456-3.833c0.152-1.556,0.341-2.922,1.101-4.212
	c0.759-1.29,1.366-1.897,1.366-1.897s-0.721,2.808-0.113,5.047c0.607,2.239,2.694,4.136,2.694,4.136S28.375,16.323,28.109,16.133z"
	/>
<path fill="#FFFFFF" stroke="#815C2D" stroke-width="0.25" stroke-miterlimit="10" d="M35.851,14.539c0,0-1.291-2.505-1.594-5.389
	c-0.303-2.884,0.797-6.262,0.797-6.262"/>
<path fill="none" stroke="#815C2D" stroke-width="0.25" stroke-linecap="round" stroke-dasharray="1.866" d="M33.973,72.624
	c0,0,1.803-1.127,3.928-1.766c2.125-0.637,5.837-2.811,6.261-3.871c0.426-1.063-1.479-9.506-1.479-9.506s5.365-2.417,3.027-3.691"/>
	
	<g id="clickMark_1_v" class="none">
		<path fill="#FFFFFF" d="M83.978,42.521c0,22.892-18.561,41.454-41.459,41.454c-22.895,0-41.457-18.562-41.457-41.454 c0-22.899,18.562-41.457,41.457-41.457C65.417,1.064,83.978,19.623,83.978,42.521z" />
		<path fill="none" stroke="#000000" stroke-width="0.9447" d="M42.519,73.262c16.982,0,30.749-13.76,30.749-30.741 c0-16.98-13.767-30.74-30.749-30.74c-16.981,0-30.745,13.76-30.745,30.74C11.772,59.502,25.537,73.262,42.519,73.262z" />
		<path fill="#D7DF23" stroke="#000000" stroke-width="0.8879" d="M42.519,73.262c16.982,0,30.749-13.76,30.749-30.741 c0-16.98-13.767-30.74-30.749-30.74c-16.981,0-30.745,13.76-30.745,30.74C11.772,59.502,25.537,73.262,42.519,73.262" />
		<path fill="#009444" d="M61.976,26.239c0,0.923-0.524,1.787-1.572,2.587c-1.356,1.11-2.188,1.91-2.495,2.403L43.209,54.614 c-1.108,1.972-2.188,3.943-3.236,5.912c-1.724,2.527-3.481,3.789-5.268,3.789c-0.8,0-1.617-0.229-2.447-0.692 c-0.833-0.459-1.312-1.338-1.435-2.634c-0.246-1.786-0.493-2.926-0.739-3.418l-4.621-9.43c-0.185-0.369-1.017-1.416-2.496-3.143 c-0.864-1.109-1.202-2.277-1.015-3.511c0.185-1.54,0.891-2.895,2.126-4.066c1.229-1.17,2.555-1.755,3.972-1.755 c0.616,0,1.234,0.122,1.849,0.368c0.309,0.125,0.741,0.958,1.294,2.496c0.74,2.095,1.265,3.482,1.572,4.159l3.326,6.192 l13.405-21.719c0.678-1.293,1.354-2.618,2.035-3.975c0.983-1.355,2.187-2.033,3.604-2.033c1.537,0,3.064,0.555,4.574,1.666 C61.218,23.93,61.976,25.067,61.976,26.239z" />
	</g>
</svg>
