<svg version="1.1" id="svg_2" xmlns="http://www.w3.org/2000/svg" xmlns:xlink="http://www.w3.org/1999/xlink" x="0px" y="0px" width="85.04px" height="85.04px" viewBox="0 0 85.04 85.04" enable-background="new 0 0 85.04 85.04" xml:space="preserve">

<path fill="#B15D1D" stroke="#7C4113" stroke-width="0.5" stroke-miterlimit="10" d="M3.891,20.778c0,0,22.236,15.084,35.514,17.993
	c13.274,2.909,23.01,16.27,34.516,15.191l-1.99,6.142c0,0-8.076-1.077-13.055-4.31c-4.98-3.231-25.998-10.883-29.759-13.575
	c-3.764-2.694-7.636-0.431-12.834-3.232c-5.199-2.801-12.611-9.913-12.611-9.913"/>
<path fill="#A7D10F" stroke="#81A32B" stroke-width="0.5" stroke-miterlimit="10" d="M56.688,20.295c0,0-3.584-17.836-31.105-12.019
	c0,0-23.188,5.797-17.107,37.043c6.079,31.248,25.31,37.327,34.498,29.551c9.191-7.775,5.089-23.328-10.038-23.328
	c0,0-8.482,1.271-8.482,9.756c0,8.482,13.432,7.352,13.432,2.969s-3.109-4.102-2.828-1.131c0.283,2.969-4.666,1.838-4.666-0.85
	c0-2.687,1.98-4.808,5.939-4.808s5.655,3.111,5.655,5.938c0,2.828-3.395,8.906-10.745,8.906c-7.354,0-22.34-21.584-9.992-36.666
	c0,0,20.926,5.185,25.545,5.185c0,0,5.561,7.918,16.023,4.619c10.463-3.3,7.918-11.123,5.184-13.668
	c-2.732-2.545-2.922-4.713-2.732-5.844c0.188-1.132,0-3.017-2.357-5.373C60.553,18.222,56.688,20.295,56.688,20.295z"/>
<path fill="#A7D10F" stroke="#81A32B" stroke-width="0.5" stroke-miterlimit="10" d="M35.198,35.566c0,0,1.695,1.885-2.074,5.278
	c-3.771,3.394,0,10.463,7.164,7.729c0,0,0.754-1.131-0.851-1.791c-1.602-0.66-6.504-4.524,5.187-7.069"/>
<path fill="#A7D10F" stroke="#81A32B" stroke-width="0.5" stroke-miterlimit="10" d="M28.788,34.811c0,0-4.431,2.263-4.147,4.902
	c0,0,0.096,2.263,3.678,1.791c0,0,0.754,0.942-0.283,1.508c-1.037,0.566-7.354,2.354-7.541-4.242c0,0,0.094-2.732,3.109-5.467
	c3.018-2.733,3.018-3.205,3.301-4.147c0.281-0.942,2.545-1.508,2.545-1.508"/>
<path fill="#81A529" d="M41.983,26.611c0,0,1.509-6.975,6.882-6.598c5.371,0.377,5.184,2.45,7.822,0.282"/>
<circle fill="#FFFFFF" stroke="#231F20" stroke-width="0.25" stroke-miterlimit="10" cx="48.676" cy="26.327" r="3.266"/>
<circle fill="#FFFFFF" stroke="#231F20" stroke-width="0.25" stroke-miterlimit="10" cx="59.995" cy="25.195" r="3.266"/>
<path fill="#81A529" d="M43.68,8.325c0,0,3.676,0.66,5.373,2.074c1.697,1.414-4.523,2.451-5.184,5.372
	c-0.66,2.922-3.489,1.226-3.583-1.037C40.193,12.472,42.266,7.854,43.68,8.325z"/>
<path fill="#81A529" d="M52.165,13.037c0,0,3.016,2.828,3.582,4.996c0.564,2.168-2.545,0.659-3.582-0.472
	c-1.037-1.131-0.377-2.356-1.227-3.11C50.09,13.698,51.221,12.283,52.165,13.037z"/>
<path fill="#81A529" d="M36.046,20.295c0,0-1.604,2.733-0.283,4.431c1.32,1.696,3.582,0.094,3.582,0.094s0.754-1.319,0.377-2.639
	s0.943-1.037,1.604-1.226C41.983,20.767,38.874,17.468,36.046,20.295z"/>
<path fill="#81A529" d="M33.688,12.095c0,0-3.771,3.016-2.732,6.598s3.299-0.094,3.299-0.094s1.037-3.3,2.168-3.487
	c1.131-0.188,1.604-3.395-0.094-3.771C34.631,10.964,33.688,12.095,33.688,12.095z"/>
<path fill="#81A529" d="M35.952,7.288c0,0-4.055-0.095-5.563,0c-1.508,0.094-1.694,3.958-1.225,4.524
	c0.471,0.565,3.487-0.283,4.146-1.509C33.971,9.078,33.688,7.759,35.952,7.288z"/>
<path fill="#81A529" d="M20.493,10.399c0,0,3.299-1.886,4.713-1.791c1.414,0.094,1.791,4.524,0.094,5.372
	C23.603,14.828,19.268,12.944,20.493,10.399z"/>
<path fill="#81A529" d="M16.251,16.337c0,0-1.979,1.79-1.226,4.335c0.755,2.545,3.017,3.864,4.619,3.11s3.109-4.901,1.509-4.807
	c-1.604,0.094-4.808-0.188-4.147-1.319C17.665,16.525,17.854,15.3,16.251,16.337z"/>
<path fill="#81A529" d="M32.935,51.542c0,0-5.562,1.084-8.105,6.738c0,0,3.77,0.283,5.655-2.072
	C32.369,53.852,33.217,51.683,32.935,51.542z"/>
<path fill="#81A529" d="M41.702,53.947c0,0,3.582,1.979,4.996,5.844s-4.242-1.225-4.242-1.225S39.251,54.135,41.702,53.947z"/>
<path fill="#81A529" d="M47.452,67.33c0,0-1.227,4.996-4.479,7.541c-3.252,2.545,0.237-4.9,0.708-5.185
	C44.153,69.406,45.565,70.16,47.452,67.33z"/>
<path fill="#81A529" d="M33.594,77.792c0,0,2.828,0.283,4.336-0.377c1.508-0.659-2.354-1.695-2.731-2.922
	C34.821,73.268,32.18,75.719,33.594,77.792z"/>
<path fill="#81A529" d="M27.562,76.379c0,0,0.377-2.732-3.394-4.335c-3.771-1.604-2.545,0.094-2.545,0.094
	S25.583,76.001,27.562,76.379z"/>
<path fill="#81A529" d="M19.173,69.687c0,0,1.414-4.523-1.318-5.277c-2.733-0.754-0.754,3.017-0.754,3.017L19.173,69.687z"/>
<path fill="#81A529" d="M16.534,52.533c0,0-2.451,2.545-1.131,5.09c1.319,2.545,2.545,1.603,2.732,2.734
	c0.188,1.131,0.755,1.225,1.414,1.035C19.55,61.392,16.063,53.098,16.534,52.533z"/>
<path fill="#81A529" d="M10.879,54.984c0,0-0.188-1.32,1.226-2.264c1.414-0.941,1.604,0.378,1.509,1.132
	c-0.095,0.755-0.565,2.168-0.283,2.64c0.283,0.472,0.755,2.355,0,3.486C13.329,59.978,11.161,57.152,10.879,54.984z"/>
<path fill="#81A529" d="M8.239,44.708c0,0,1.791-3.393,4.808-2.922c3.017,0.472,1.131,2.64,0.564,2.829
	c-0.565,0.188-4.241,3.017-4.146,4.24C9.465,48.857,8.145,45.557,8.239,44.708z"/>
<path fill="#81A529" d="M8.833,37.544c0,0,2.8-3.77,4.496-2.639s2.922,2.545,2.168,3.864c-0.754,1.32-2.733-0.754-3.677-0.188
	c-0.942,0.566-3.581,3.205-3.77,1.791C7.862,38.959,8.106,37.638,8.833,37.544z"/>
<path fill="#81A529" d="M8.239,27.553c0,0-0.941,6.033-0.849,7.164c0.093,1.131,4.336-1.979,4.336-1.979s2.073-1.603,3.299-0.094
	c1.226,1.508,1.886-1.414-0.282-2.733C12.575,28.59,8.239,26.611,8.239,27.553z"/>
<path fill="#81A529" d="M11.443,19.353c0,0-2.262,4.524-2.355,5.373c-0.095,0.848,5.09,1.603,6.126,1.508
	c1.037-0.094-1.318-1.979-1.318-3.017C13.895,22.181,12.104,18.504,11.443,19.353z"/>
<circle fill="#231F20" cx="49.43" cy="24.631" r="0.943"/>
<circle fill="#231F20" cx="60.749" cy="23.499" r="0.942"/>
<path fill="#A7D10F" stroke="#81A32B" stroke-width="0.5" stroke-miterlimit="10" d="M57.538,37.639c0,0-0.283,1.603,0.941,1.603
	s0.471-1.696,0.471-1.696"/>
<path fill="#A7D10F" stroke="#81A32B" stroke-width="0.5" stroke-miterlimit="10" d="M63.071,36.649c0,0-0.02,1.628,1.189,1.429
	c1.209-0.199,0.189-1.751,0.189-1.751"/>
<path fill="#CACF30" stroke="#7CAE38" stroke-width="0.3849" stroke-miterlimit="10" d="M79.358,55.885c0,0,1.742-6.386-5.807-5.806
	c-7.547,0.582-11.973,10.015-21.553,14.66c0,0,12.99,4.86,18.143,1.232S79.504,56.177,79.358,55.885z"/>
<path fill="#CACF30" stroke="#7CAE38" stroke-width="0.3849" stroke-miterlimit="10" d="M78.631,56.104c0,0-8.854,5.37-9.65,11.104
	c-0.799,5.732-3.338,9.144-3.338,9.144S89.227,72.504,78.631,56.104z"/>
<path fill="#CACF30" stroke="#7CAE38" stroke-width="0.3849" stroke-miterlimit="10" d="M78.415,56.757
	c0,0,1.232,6.458-5.877,12.699"/>
<path fill="#CACF30" stroke="#7CAE38" stroke-width="0.3849" stroke-miterlimit="10" d="M78.415,55.16c0,0-7.33,0.146-10.885,2.613
	c-3.557,2.467-5.807,5.152-8.273,5.297"/>
<path fill="#A7D10F" stroke="#81A32B" stroke-width="0.4841" stroke-miterlimit="10" d="M47.461,36.017c0,0-1.499,4.219-0.25,5.391"
	/>
</svg>
