<svg version="1.1" id="svg_2_v" valid="1" xmlns="http://www.w3.org/2000/svg" xmlns:xlink="http://www.w3.org/1999/xlink" x="0px" y="0px" width="85.04px" height="85.04px" viewBox="0 0 85.04 85.04" enable-background="new 0 0 85.04 85.04" xml:space="preserve">
<path fill="#FFFFFF" toFill="#B15D1D" stroke="#815C2D" stroke-width="0.25" stroke-miterlimit="10" d="M3.891,20.779
	c0,0,22.236,15.084,35.514,17.993c13.275,2.909,23.01,16.271,34.516,15.19l-1.989,6.143c0,0-8.076-1.077-13.056-4.311
	c-4.979-3.23-25.998-10.883-29.759-13.575c-3.764-2.694-7.636-0.431-12.834-3.232c-5.199-2.801-12.611-9.913-12.611-9.913"/>
<path fill="#FFFFFF" toFill="#A7D10F" stroke="#815C2D" stroke-width="0.25" stroke-miterlimit="10" d="M56.688,20.296
	c0,0-3.584-17.836-31.105-12.019c0,0-23.188,5.797-17.107,37.043c6.079,31.248,25.31,37.327,34.498,29.551
	c9.191-7.775,5.089-23.328-10.038-23.328c0,0-8.482,1.271-8.482,9.756c0,8.482,13.432,7.353,13.432,2.97
	c0-4.384-3.109-4.103-2.828-1.132c0.283,2.97-4.666,1.839-4.666-0.85c0-2.687,1.98-4.808,5.939-4.808s5.655,3.11,5.655,5.938
	s-3.395,8.906-10.745,8.906c-7.354,0-22.34-21.584-9.992-36.667c0,0,20.926,5.185,25.545,5.185c0,0,5.562,7.917,16.023,4.619
	C73.28,42.161,70.735,34.338,68,31.793c-2.731-2.545-2.922-4.713-2.731-5.844c0.188-1.132,0-3.017-2.356-5.373
	C60.553,18.223,56.688,20.296,56.688,20.296z"/>
<path fill="#FFFFFF" toFill="#A7D10F" stroke="#815C2D" stroke-width="0.25" stroke-miterlimit="10" d="M35.198,35.567
	c0,0,1.695,1.885-2.074,5.278c-3.771,3.394,0,10.463,7.164,7.729c0,0,0.754-1.131-0.851-1.791c-1.602-0.66-6.504-4.524,5.187-7.069"
	/>
<path fill="#FFFFFF" toFill="#A7D10F" stroke="#815C2D" stroke-width="0.25" stroke-miterlimit="10" d="M28.788,34.812
	c0,0-4.431,2.263-4.147,4.902c0,0,0.096,2.263,3.678,1.791c0,0,0.754,0.942-0.283,1.508s-7.354,2.354-7.541-4.242
	c0,0,0.094-2.732,3.109-5.467c3.018-2.733,3.018-3.205,3.301-4.146c0.281-0.942,2.545-1.508,2.545-1.508"/>
<path fill="#FFFFFF" toFill="#81A529" stroke="#815C2D" stroke-width="0.25" stroke-miterlimit="10" d="M41.982,26.612
	c0,0,1.51-6.975,6.883-6.598c5.37,0.377,5.184,2.45,7.821,0.282"/>
<circle fill="#FFFFFF" stroke="#815C2D" stroke-width="0.25" stroke-miterlimit="10" cx="48.676" cy="26.328" r="3.266"/>
<circle fill="#FFFFFF" stroke="#815C2D" stroke-width="0.25" stroke-miterlimit="10" cx="59.995" cy="25.196" r="3.266"/>
<path fill="#FFFFFF" toFill="#81A529" stroke="#815C2D" stroke-width="0.25" stroke-miterlimit="10" d="M43.68,8.326
	c0,0,3.676,0.66,5.373,2.074s-4.523,2.451-5.184,5.372c-0.66,2.922-3.49,1.226-3.584-1.037C40.192,12.473,42.266,7.855,43.68,8.326z
	"/>
<path fill="#FFFFFF" toFill="#81A529" stroke="#815C2D" stroke-width="0.25" stroke-miterlimit="10" d="M52.165,13.038
	c0,0,3.017,2.828,3.582,4.996c0.564,2.168-2.545,0.659-3.582-0.472s-0.377-2.356-1.227-3.11
	C50.09,13.699,51.221,12.284,52.165,13.038z"/>
<path fill="#FFFFFF" toFill="#81A529" stroke="#815C2D" stroke-width="0.25" stroke-miterlimit="10" d="M36.045,20.296
	c0,0-1.604,2.733-0.283,4.431c1.32,1.696,3.582,0.094,3.582,0.094s0.754-1.319,0.377-2.639c-0.377-1.32,0.943-1.037,1.604-1.226
	C41.982,20.768,38.874,17.469,36.045,20.296z"/>
<path fill="#FFFFFF" toFill="#81A529" stroke="#815C2D" stroke-width="0.25" stroke-miterlimit="10" d="M33.688,12.096
	c0,0-3.771,3.016-2.732,6.598s3.299-0.094,3.299-0.094s1.037-3.3,2.168-3.487c1.131-0.188,1.604-3.395-0.094-3.771
	C34.63,10.965,33.688,12.096,33.688,12.096z"/>
<path fill="#FFFFFF" toFill="#81A529" stroke="#815C2D" stroke-width="0.25" stroke-miterlimit="10" d="M35.952,7.289
	c0,0-4.055-0.095-5.563,0c-1.508,0.094-1.694,3.958-1.225,4.524c0.471,0.565,3.487-0.283,4.146-1.509
	C33.971,9.079,33.688,7.76,35.952,7.289z"/>
<path fill="#FFFFFF" toFill="#81A529" stroke="#815C2D" stroke-width="0.25" stroke-miterlimit="10" d="M20.493,10.4
	c0,0,3.299-1.886,4.713-1.791c1.414,0.094,1.791,4.524,0.094,5.372C23.603,14.829,19.268,12.945,20.493,10.4z"/>
<path fill="#FFFFFF" toFill="#81A529" stroke="#815C2D" stroke-width="0.25" stroke-miterlimit="10" d="M16.25,16.338
	c0,0-1.979,1.79-1.226,4.335c0.755,2.545,3.017,3.864,4.619,3.11c1.602-0.754,3.109-4.901,1.509-4.807
	c-1.604,0.094-4.808-0.188-4.147-1.319C17.665,16.526,17.854,15.301,16.25,16.338z"/>
<path fill="#FFFFFF" toFill="#81A529" stroke="#815C2D" stroke-width="0.25" stroke-miterlimit="10" d="M32.935,51.542
	c0,0-5.562,1.084-8.105,6.738c0,0,3.77,0.283,5.655-2.072C32.369,53.853,33.216,51.684,32.935,51.542z"/>
<path fill="#FFFFFF" toFill="#81A529" stroke="#815C2D" stroke-width="0.25" stroke-miterlimit="10" d="M41.702,53.949
	c0,0,3.582,1.979,4.996,5.844s-4.242-1.226-4.242-1.226S39.25,54.136,41.702,53.949z"/>
<path fill="#FFFFFF" toFill="#81A529" stroke="#815C2D" stroke-width="0.25" stroke-miterlimit="10" d="M47.452,67.332
	c0,0-1.227,4.996-4.479,7.541c-3.252,2.545,0.237-4.9,0.708-5.186C44.153,69.408,45.565,70.162,47.452,67.332z"/>
<path fill="#FFFFFF" toFill="#81A529" stroke="#815C2D" stroke-width="0.25" stroke-miterlimit="10" d="M33.594,77.792
	c0,0,2.828,0.283,4.336-0.377c1.508-0.658-2.354-1.695-2.731-2.922C34.82,73.269,32.18,75.72,33.594,77.792z"/>
<path fill="#FFFFFF" toFill="#81A529" stroke="#815C2D" stroke-width="0.25" stroke-miterlimit="10" d="M27.562,76.38
	c0,0,0.377-2.732-3.394-4.336s-2.545,0.095-2.545,0.095S25.583,76.001,27.562,76.38z"/>
<path fill="#FFFFFF" toFill="#81A529" stroke="#815C2D" stroke-width="0.25" stroke-miterlimit="10" d="M19.172,69.688
	c0,0,1.414-4.522-1.318-5.276c-2.733-0.754-0.754,3.016-0.754,3.016L19.172,69.688z"/>
<path fill="#FFFFFF" toFill="#81A529" stroke="#815C2D" stroke-width="0.25" stroke-miterlimit="10" d="M16.534,52.535
	c0,0-2.451,2.545-1.131,5.09c1.319,2.545,2.545,1.603,2.732,2.733c0.188,1.131,0.755,1.226,1.414,1.035
	C19.549,61.393,16.063,53.099,16.534,52.535z"/>
<path fill="#FFFFFF" toFill="#81A529" stroke="#815C2D" stroke-width="0.25" stroke-miterlimit="10" d="M10.878,54.985
	c0,0-0.188-1.319,1.226-2.265c1.414-0.94,1.604,0.379,1.509,1.133c-0.095,0.755-0.565,2.168-0.283,2.641
	c0.283,0.471,0.755,2.354,0,3.485C13.329,59.979,11.161,57.153,10.878,54.985z"/>
<path fill="#FFFFFF" toFill="#81A529" stroke="#815C2D" stroke-width="0.25" stroke-miterlimit="10" d="M8.238,44.708
	c0,0,1.791-3.393,4.808-2.921c3.017,0.472,1.131,2.64,0.564,2.83c-0.565,0.188-4.241,3.016-4.146,4.239
	C9.464,48.858,8.145,45.558,8.238,44.708z"/>
<path fill="#FFFFFF" toFill="#81A529" stroke="#815C2D" stroke-width="0.25" stroke-miterlimit="10" d="M8.833,37.545
	c0,0,2.8-3.77,4.496-2.639c1.696,1.131,2.922,2.545,2.168,3.864c-0.754,1.32-2.733-0.754-3.677-0.188
	c-0.942,0.566-3.581,3.205-3.77,1.791C7.861,38.96,8.105,37.639,8.833,37.545z"/>
<path fill="#FFFFFF" toFill="#81A529" stroke="#815C2D" stroke-width="0.25" stroke-miterlimit="10" d="M8.238,27.554
	c0,0-0.941,6.033-0.849,7.164c0.093,1.131,4.336-1.979,4.336-1.979s2.073-1.603,3.299-0.094c1.226,1.508,1.886-1.414-0.282-2.733
	C12.575,28.591,8.238,26.612,8.238,27.554z"/>
<path fill="#FFFFFF" toFill="#81A529" stroke="#815C2D" stroke-width="0.25" stroke-miterlimit="10" d="M11.442,19.354
	c0,0-2.262,4.524-2.355,5.373c-0.095,0.848,5.09,1.603,6.126,1.508c1.037-0.094-1.318-1.979-1.318-3.017
	C13.895,22.182,12.104,18.505,11.442,19.354z"/>
<circle fill="#815C2D" cx="49.43" cy="24.632" r="0.943"/>
<circle fill="#815C2D" cx="60.749" cy="23.5" r="0.942"/>
<path fill="none" stroke="#815C2D" stroke-width="0.25" stroke-miterlimit="10" d="M57.538,37.64c0,0-0.283,1.603,0.941,1.603
	s0.471-1.696,0.471-1.696"/>
<path fill="none" stroke="#815C2D" stroke-width="0.25" stroke-miterlimit="10" d="M63.071,36.65c0,0-0.02,1.628,1.189,1.429
	c1.209-0.199,0.189-1.751,0.189-1.751"/>
<path fill="#FFFFFF" toFill="#CACF30" stroke="#815C2D" stroke-width="0.25" stroke-miterlimit="10" d="M79.358,55.886
	c0,0,1.742-6.387-5.807-5.807c-7.547,0.582-11.973,10.016-21.553,14.66c0,0,12.989,4.86,18.143,1.232
	C75.293,62.343,79.504,56.177,79.358,55.886z"/>
<path fill="#FFFFFF" toFill="#CACF30" stroke="#815C2D" stroke-width="0.25" stroke-miterlimit="10" d="M78.631,56.105
	c0,0-8.854,5.37-9.65,11.104c-0.799,5.732-3.338,9.145-3.338,9.145S89.227,72.505,78.631,56.105z"/>
<path fill="none" stroke="#815C2D" stroke-width="0.25" stroke-miterlimit="10" d="M78.415,56.757c0,0,1.232,6.459-5.877,12.699"/>
<path fill="none" stroke="#815C2D" stroke-width="0.25" stroke-miterlimit="10" d="M78.415,55.162c0,0-7.33,0.146-10.885,2.612
	c-3.557,2.468-5.807,5.151-8.273,5.297"/>
<path fill="none" stroke="#815C2D" stroke-width="0.25" stroke-miterlimit="10" d="M47.461,36.018c0,0-1.5,4.219-0.25,5.391"/>
</svg>
