<svg version="1.1" id="svg_0_0" repeat="0" xmlns="http://www.w3.org/2000/svg" xmlns:xlink="http://www.w3.org/1999/xlink" x="0px" y="0px" width="85.04px" height="85.04px" viewBox="0 0 85.04 85.04" enable-background="new 0 0 85.04 85.04" xml:space="preserve">

<path fill="#FFFFFF" d="M12.806,82.695V3.605h15.853v5.39c4.722-4.628,11.042-7.129,18.215-7.129
c19.413,0,29.569,16.059,29.569,31.922c0,17.673-12.667,31-29.466,31c-8.828,0-14.361-3.407-17.5-6.366v24.273H12.806z
M44.214,17.615c-4.271,0-8.075,1.597-11,4.619c-2.764,2.859-4.35,6.958-4.35,11.246c0,4.25,1.574,8.163,4.432,11.019
c2.927,2.927,6.841,4.538,11.021,4.538c8.811,0,15.455-6.732,15.455-15.66v-0.102C59.772,25.684,54.319,17.615,44.214,17.615z" class="colorable" />

<path d="M46.874,3.499c19.648,0,27.937,16.679,27.937,30.289c0,15.962-11.358,29.367-27.833,29.367
c-10.946,0-16.881-5.629-19.133-9.209v7.47v19.646H14.439V5.238h12.587v8.186C31.016,7.797,37.566,3.499,46.874,3.499
M44.317,50.671c10.231,0,17.088-8.083,17.088-17.292v-0.102c0-8.084-5.833-17.294-17.191-17.294
c-4.91,0-9.104,1.945-12.174,5.117c-2.967,3.069-4.809,7.471-4.809,12.382c0,4.809,1.842,9.107,4.91,12.174
C35.213,48.726,39.509,50.671,44.317,50.671 M46.874,0.232c-6.29,0-11.966,1.817-16.581,5.225V5.238V1.971h-3.267H14.439h-3.267
v3.267v75.824v3.267h3.267h13.405h3.267v-3.267V61.833c3.528,2.438,8.678,4.589,15.866,4.589c8.746,0,16.737-3.466,22.503-9.758
c5.544-6.05,8.597-14.174,8.597-22.876C78.077,17.113,67.359,0.232,46.874,0.232L46.874,0.232z M44.317,47.404
c-3.746,0-7.249-1.441-9.866-4.059c-2.55-2.548-3.953-6.052-3.953-9.865c0-3.868,1.418-7.554,3.891-10.112
c2.608-2.695,6.006-4.12,9.825-4.12c9.045,0,13.925,7.227,13.925,14.027v0.102C58.138,40.177,53.295,47.404,44.317,47.404
L44.317,47.404z" class="colorable" />

</svg>
