<svg version="1.1" id="svg_0_2" repeat="1" xmlns="http://www.w3.org/2000/svg" xmlns:xlink="http://www.w3.org/1999/xlink" x="0px" y="0px"
	 width="85.04px" height="85.04px" viewBox="0 0 85.04 85.04" enable-background="new 0 0 85.04 85.04" xml:space="preserve">

		<path fill="#FFFFFF" d="M54.819,82.695V58.181c-3.327,3.304-8.865,6.606-17.705,6.606c-16.74,0-29.363-13.151-29.363-30.591
			c0-18.734,12.692-32.332,30.18-32.332c8.738,0,14.21,3.495,17.398,6.721V3.605H71.49v79.09H54.819z M39.876,17.615
			c-10.146,0-15.456,8.033-15.456,15.967v0.102c0,7.497,5.819,15.251,15.557,15.251c4.057,0,8.036-1.654,10.918-4.537
			c2.859-2.857,4.435-6.734,4.435-10.918c0.18-4.261-1.329-8.23-4.248-11.246C48.151,19.306,44.059,17.615,39.876,17.615z" class="colorable" />
		<path d="M37.93,3.499c11.151,0,16.779,6.038,19.031,9.823V5.238h12.896v75.824H56.452V61.416v-7.88
			c-2.355,3.787-7.983,9.619-19.338,9.619c-16.477,0-27.73-13.099-27.73-28.958C9.384,15.778,21.763,3.499,37.93,3.499
			 M39.976,50.569c4.707,0,9.004-1.944,12.073-5.016c3.07-3.067,4.912-7.366,4.912-12.073c0.205-4.809-1.637-9.209-4.707-12.382
			c-3.173-3.172-7.675-5.117-12.379-5.117c-11.156,0-17.089,8.903-17.089,17.601v0.102C22.787,41.871,29.133,50.569,39.976,50.569
			 M37.93,0.232c-18.434,0-31.813,14.284-31.813,33.965c0,18.371,13.326,32.225,30.997,32.225c7.283,0,12.484-2.209,16.071-4.781
			v19.422v3.267h3.267h13.405h3.267v-3.267V5.238V1.971h-3.267H56.962h-3.267v3.053C50.163,2.435,45.061,0.232,37.93,0.232
			L37.93,0.232z M39.976,47.302c-6.844,0-13.923-5.094-13.923-13.618v-0.102c0-7.123,4.748-14.334,13.822-14.334
			c3.745,0,7.407,1.509,10.05,4.141c2.593,2.688,3.932,6.222,3.772,9.952l-0.003,0.069v0.07c0,3.748-1.404,7.215-3.954,9.761
			C47.162,45.823,43.602,47.302,39.976,47.302L39.976,47.302z" class="colorable"/>
</svg>
