<svg version="1.1" id="svg_0_0" xmlns="http://www.w3.org/2000/svg" xmlns:xlink="http://www.w3.org/1999/xlink" x="0px" y="0px"
	 width="85.04px" height="85.04px" viewBox="0 0 85.04 85.04" enable-background="new 0 0 85.04 85.04" xml:space="preserve">
<ellipse transform="matrix(-0.0935 -0.9956 0.9956 -0.0935 -41.1227 123.2216)" fill="#FFFFFF" stroke="#815C2D" stroke-width="0.1698" stroke-linecap="round" stroke-linejoin="round" cx="35.536" cy="80.332" rx="3.766" ry="17.762"/>
<path fill="#FFFFFF" stroke="#815C2D" stroke-width="0.3397" stroke-linecap="round" stroke-linejoin="round" d="M72.013,45.358"/>
<path fill="#FFFFFF" stroke="#815C2D" stroke-width="0.3397" stroke-linecap="round" stroke-linejoin="round" d="M34.118,63.167"/>
<path fill="#FFFFFF" stroke="#815C2D" stroke-width="0.3397" stroke-linecap="round" stroke-linejoin="round" d="M36.536,62.155
	c0,0-0.592,8.379,1.42,9.411c2.01,1.032,3.904,1.032,3.904,1.032s6.861-4.384,8.755,2.965c1.893,7.35-18.338,3.095-18.338,0.645
	c0-2.449,3.667-5.674,1.538-13.925L36.536,62.155z"/>
<path fill="#FFFFFF" stroke="#815C2D" stroke-width="0.3397" stroke-linecap="round" stroke-linejoin="round" d="M33.965,63.185
	c0,0-1.073,5.234,1.115,8.035c2.188,2.8,3.02,6.782-3.675,9.32c-6.695,2.539-12.034,1.663-12.034-2.626
	c0-4.288,7.396-4.464,9.54-4.595c2.144-0.132,3.851-3.938,2.582-11.245L33.965,63.185z"/>
<path fill="#FFFFFF" stroke="#815C2D" stroke-width="0.3397" stroke-linecap="round" stroke-linejoin="round" d="M31.361,74.983
	c0,0-0.744-1.751-2.231-1.663"/>
<path fill="#FFFFFF" stroke="#815C2D" stroke-width="0.3397" stroke-linecap="round" stroke-linejoin="round" d="M65.66,46.617
	l-5.673-2.738c-8.319,8.666-20.937,2.743-23.705,1.281l-1.529-1.53l-1.843,1.385l-0.191-0.05c0,0-11.509,0.394-11.377,1.182
	c0.131,0.788,2.691,5.251,3.675,8.861l0.854-1.707l-1.837-5.316c0,0,3.543-0.654,6.205-0.962l-0.057,0.042l8.926,0.92l-0.379-0.38
	C49.803,55.633,65.66,46.617,65.66,46.617z"/>
<path fill="#FFFFFF" stroke="#815C2D" stroke-width="0.3397" stroke-linecap="round" stroke-linejoin="round" d="M60.829,39.506
	c0,0,2.042-4.629,2.452-6.672c0.407-2.042,3.812-5.311,4.9-1.634c1.09,3.677-3.269,8.17-3.269,8.17l5.039,4.493
	c0,0-1.498,7.08-5.719,4.085c0,0-5.448-0.408-5.719-4.222C58.242,39.915,60.829,39.506,60.829,39.506z"/>
<ellipse transform="matrix(0.6925 -0.7215 0.7215 0.6925 -9.9795 59.8848)" fill="#FFFFFF" stroke="#815C2D" stroke-width="0.3397" stroke-linecap="round" stroke-linejoin="round" cx="65.252" cy="41.648" rx="2.964" ry="2.153"/>
<ellipse transform="matrix(0.6923 -0.7216 0.7216 0.6923 -10.7636 62.5242)" fill="#FFFFFF" stroke="#815C2D" stroke-width="0.3397" stroke-linecap="round" stroke-linejoin="round" cx="67.937" cy="43.884" rx="2.478" ry="1.837"/>
<path fill="#FFFFFF" stroke="#815C2D" stroke-width="0.3397" stroke-linecap="round" stroke-linejoin="round" d="M60.154,39.801
	c-0.044-0.306,4.857-1.926,4.857,1.531c0,3.457-3.939,1.881-3.939,1.881"/>
<path fill="#FFFFFF" stroke="#815C2D" stroke-width="0.3397" stroke-linecap="round" stroke-linejoin="round" d="M29.112,61.868
	c0,0-1.09,2.502-5.388,2.245c-4.298-0.258-2.887-7.377,0-5.452L29.112,61.868z"/>
<path fill="#FFFFFF" stroke="#815C2D" stroke-width="0.3397" stroke-linecap="round" stroke-linejoin="round" d="M25.2,53.529
	c0,0-3.335,1.476-2.822,3.272c0.513,1.796,2.245,8.915,6.285,6.156C32.704,60.199,31.102,50.514,25.2,53.529z"/>
<ellipse fill="#FFFFFF" stroke="#815C2D" stroke-width="0.3397" stroke-linecap="round" stroke-linejoin="round" cx="25.231" cy="62.541" rx="2.47" ry="1.378"/>
<polyline fill="#FFFFFF" stroke="#815C2D" stroke-width="0.3397" stroke-linecap="round" stroke-linejoin="round" points="
	22.316,6.586 25.28,11.104 37.16,9.84 39.107,4.799 "/>
<ellipse transform="matrix(-0.1566 -0.9877 0.9877 -0.1566 19.214 29.6778)" fill="#FFFFFF" stroke="#815C2D" stroke-width="0.3397" stroke-linecap="round" stroke-linejoin="round" cx="22.279" cy="6.635" rx="0.657" ry="0.606"/>
<circle fill="#FFFFFF" stroke="#815C2D" stroke-width="0.3397" stroke-linecap="round" stroke-linejoin="round" cx="39.235" cy="4.689" r="0.656"/>
<circle fill="#FFFFFF" stroke="#815C2D" stroke-width="0.3397" stroke-linecap="round" stroke-linejoin="round" cx="31.323" cy="45.577" r="2.554"/>
<circle fill="#FFFFFF" stroke="#815C2D" stroke-width="0.3397" stroke-linecap="round" stroke-linejoin="round" cx="37.838" cy="45.577" r="2.255"/>
<path fill="#FFFFFF" stroke="#815C2D" stroke-width="0.3397" stroke-linecap="round" stroke-linejoin="round" d="M34.325,43.717
	l-0.105,0.051l-0.104-0.051c0,0-21.337,13.783-0.135,19.69l0.239-0.042l0.24,0.042C55.661,57.501,34.325,43.717,34.325,43.717z"/>
<path fill="#FFFFFF" stroke="#815C2D" stroke-width="0.3397" stroke-linecap="round" stroke-linejoin="round" d="M35.999,38.271
	c0,0-0.197,6.891,0,6.695c0.197-0.197-1.356,2.144-3.281,0v-6.738L35.999,38.271z"/>
<path fill="#FFFFFF" stroke="#815C2D" stroke-width="0.3397" stroke-linecap="round" stroke-linejoin="round" d="M53.271,30.969
	C52.1,17.877,42.168,8.067,31.084,9.059C20.002,10.05,11.969,21.468,13.14,34.561c0.034,0.379,0.077,0.755,0.125,1.128
	c-0.001,0.021-0.007,0.042-0.005,0.063l0.402,4.485c0.066,0.741,2.086,1.166,4.512,0.949l31.281-2.798
	c2.426-0.217,4.337-0.995,4.272-1.735l-0.364-4.044C53.348,32.065,53.321,31.519,53.271,30.969z"/>
<circle fill="#FFFFFF" stroke="#815C2D" stroke-width="0.3397" stroke-linecap="round" stroke-linejoin="round" cx="25.497" cy="23.51" r="4.171"/>
<circle fill="#815C2D" cx="26.285" cy="22.458" r="2.343"/>
<circle fill="#FFFFFF" stroke="#815C2D" stroke-width="0.3397" stroke-linecap="round" stroke-linejoin="round" cx="26.941" cy="21.671" r="1.019"/>
<circle fill="#FFFFFF" stroke="#815C2D" stroke-width="0.3397" stroke-linecap="round" stroke-linejoin="round" cx="41.071" cy="19.245" r="4.172"/>
<circle fill="#815C2D" cx="41.859" cy="18.194" r="2.343"/>
<circle fill="#FFFFFF" stroke="#815C2D" stroke-width="0.3397" stroke-linecap="round" stroke-linejoin="round" cx="42.515" cy="17.406" r="1.019"/>
<g>
	<polyline fill="#FFFFFF" stroke="#815C2D" stroke-width="0.3397" stroke-linecap="round" stroke-linejoin="round" points="
		26.027,33.517 27.07,35.181 35.129,34.459 	"/>
	<polyline fill="#FFFFFF" stroke="#815C2D" stroke-width="0.3397" stroke-linecap="round" stroke-linejoin="round" points="
		43.922,31.916 43.191,33.738 35.134,34.458 	"/>
</g>
<path fill="#FFFFFF" stroke="#815C2D" stroke-width="0.3397" stroke-linecap="round" stroke-linejoin="round" d="M32.65,40.282
	c0,0,1.785,1.444,3.223,0"/>
<path fill="#FFFFFF" stroke="#815C2D" stroke-width="0.3397" stroke-linecap="round" stroke-linejoin="round" d="M32.778,42.12
	c0,0,1.714,1.444,3.093,0"/>
<path fill="#FFFFFF" stroke="#815C2D" stroke-width="0.3397" stroke-linecap="round" stroke-linejoin="round" d="M32.778,43.696
	c0,0,1.714,1.444,3.093,0"/>
<circle fill="#FFFFFF" cx="25.102" cy="21.672" r="0.355"/>
<circle fill="#FFFFFF" cx="40.602" cy="17.468" r="0.355"/>
<polygon fill="#FFFFFF" stroke="#815C2D" stroke-width="0.1698" stroke-linecap="round" stroke-linejoin="round" points="
	20.62,6.687 18.3,6.214 18.573,5.835 "/>
<polygon fill="#FFFFFF" stroke="#815C2D" stroke-width="0.1698" stroke-linecap="round" stroke-linejoin="round" points="
	22.464,4.866 22.263,2.509 22.703,2.663 "/>
<polygon fill="#FFFFFF" stroke="#815C2D" stroke-width="0.1698" stroke-linecap="round" stroke-linejoin="round" points="
	22.352,8.362 22.299,10.729 21.876,10.527 "/>
<polygon fill="#FFFFFF" stroke="#815C2D" stroke-width="0.1698" stroke-linecap="round" stroke-linejoin="round" points="
	24.125,6.679 26.485,6.481 26.328,6.923 "/>
<polygon fill="#FFFFFF" stroke="#815C2D" stroke-width="0.1698" stroke-linecap="round" stroke-linejoin="round" points="
	38.591,2.972 38.577,0.605 39.005,0.795 "/>
<polygon fill="#FFFFFF" stroke="#815C2D" stroke-width="0.1698" stroke-linecap="round" stroke-linejoin="round" points="
	40.75,4.405 43.018,3.724 42.956,4.187 "/>
<polygon fill="#FFFFFF" stroke="#815C2D" stroke-width="0.1698" stroke-linecap="round" stroke-linejoin="round" points="
	37.306,5.01 34.978,5.443 35.09,4.988 "/>
<polygon fill="#FFFFFF" stroke="#815C2D" stroke-width="0.1698" stroke-linecap="round" stroke-linejoin="round" points="
	39.316,6.403 39.992,8.671 39.529,8.608 "/>
<path fill="#FFFFFF" stroke="#815C2D" stroke-width="0.3397" stroke-linecap="round" stroke-linejoin="round" d="M41.861,72.598
	c0,0-0.785,0.809-0.785,1.465"/>
<path fill="#FFFFFF" stroke="#815C2D" stroke-width="0.1698" stroke-linecap="round" stroke-linejoin="round" d="M32.017,45.883
	c0,0-5.426,5.251-5.601,6.825c-0.174,1.576-2.451,4.026,1.751,7.527C28.166,60.236,22.39,57.084,32.017,45.883z"/>
<path fill="#FFFFFF" stroke="#815C2D" stroke-width="0.1698" stroke-linecap="round" stroke-linejoin="round" d="M29.655,10.088
	c0,0-18.555,4.201-15.228,28.355C14.427,38.444,12.151,17.439,29.655,10.088z"/>
<path fill="#FFFFFF" stroke="#815C2D" stroke-width="0.1698" stroke-linecap="round" stroke-linejoin="round" d="M22.127,46.846
	l2.45,5.775C24.579,52.622,23.528,47.896,22.127,46.846z"/>
<path fill="#FFFFFF" stroke="#815C2D" stroke-width="0.1698" stroke-linecap="round" stroke-linejoin="round" d="M23.003,56.298
	c0,0,0.699,3.675,1.225,4.2C24.753,61.022,23.003,56.298,23.003,56.298z"/>
<path fill="#FFFFFF" stroke="#815C2D" stroke-width="0.1698" stroke-linecap="round" stroke-linejoin="round" d="M21.953,59.273
	c0,0-1.401,2.188,0.263,3.764C22.216,63.037,21.252,61.198,21.953,59.273z"/>
<path fill="#FFFFFF" stroke="#815C2D" stroke-width="0.1698" stroke-linecap="round" stroke-linejoin="round" d="M31.055,43.52
	c0,0-2.386,0.875-1.818,2.626C29.237,46.145,29.35,44.57,31.055,43.52z"/>
<path fill="#FFFFFF" stroke="#815C2D" stroke-width="0.1698" stroke-linecap="round" stroke-linejoin="round" d="M33.155,40.282
	v4.463C33.155,44.745,33.768,41.945,33.155,40.282z"/>
<path fill="#FFFFFF" stroke="#815C2D" stroke-width="0.1698" stroke-linecap="round" stroke-linejoin="round" d="M60.286,40.544
	c0,0,1.576-1.576,3.853-0.35C64.136,40.194,62.474,39.669,60.286,40.544z"/>
<path fill="#FFFFFF" stroke="#815C2D" stroke-width="0.1698" stroke-linecap="round" stroke-linejoin="round" d="M66.673,30.129
	c0,0-2.712,0.35-3.5,5.427C63.173,35.556,64.399,31.005,66.673,30.129z"/>
<path fill="#FFFFFF" stroke="#815C2D" stroke-width="0.1698" stroke-linecap="round" stroke-linejoin="round" d="M22.405,75.109
	c0,0,1.678-0.837,2.489-0.042c0.811,0.798-2.161,2.111-3.057,1.642S21.443,75.438,22.405,75.109z"/>
<path fill="#FFFFFF" stroke="#815C2D" stroke-width="0.1698" stroke-linecap="round" stroke-linejoin="round" d="M43.436,72.903
	c0,0,1.679-0.839,2.49-0.04c0.81,0.796-2.16,2.108-3.058,1.639C41.972,74.032,42.476,73.232,43.436,72.903z"/>
<path fill="#FFFFFF" stroke="#815C2D" stroke-width="0.1698" stroke-linecap="round" stroke-linejoin="round" d="M67.724,42.558
	c0,0-1.487,0.962-1.399,2.013L67.724,42.558z"/>
<path fill="#FFFFFF" stroke="#815C2D" stroke-width="0.1698" stroke-linecap="round" stroke-linejoin="round" d="M66.294,39.78
	c0,0-0.999,0.091-1.099,0.365C65.196,40.146,66.194,40.054,66.294,39.78z"/>
<path fill="#FFFFFF" stroke="#815C2D" stroke-width="0.1698" stroke-linecap="round" stroke-linejoin="round" d="M58.625,46.057
	c0,0-4.438,2.885-8.1,2.885C50.525,48.942,54.187,49.831,58.625,46.057z"/>
	
	<g id="clickMark_0_0" class="none">
		<path fill="#FFFFFF" d="M83.975,42.521c0,22.892-18.561,41.454-41.458,41.454c-22.893,0-41.453-18.562-41.453-41.454 C1.065,19.623,19.625,1.064,42.519,1.064C65.415,1.064,83.975,19.623,83.975,42.521z" />
		<path fill="none" stroke="#000000" stroke-width="0.9447" d="M42.519,73.262c16.977,0,30.746-13.76,30.746-30.741 c0-16.98-13.769-30.74-30.746-30.74c-16.979,0-30.743,13.76-30.743,30.74C11.774,59.502,25.54,73.262,42.519,73.262z" />
		<path fill="#D7DF23" d="M42.519,73.262c16.977,0,30.746-13.76,30.746-30.741c0-16.98-13.769-30.74-30.746-30.74 c-16.979,0-30.743,13.76-30.743,30.74C11.774,59.502,25.54,73.262,42.519,73.262" />
		<path fill="none" stroke="#000000" stroke-width="0.8879" d="M42.519,73.262c16.977,0,30.746-13.76,30.746-30.741 c0-16.98-13.769-30.74-30.746-30.74c-16.979,0-30.743,13.76-30.743,30.74C11.774,59.502,25.54,73.262,42.519,73.262" />
		<path fill="#ED1C24" d="M58.706,24.476c0.098,0.837-0.395,1.623-1.477,2.36c-1.377,0.983-2.213,1.721-2.508,2.211l-8.408,14.606 l7.08,13.721c0.1,0.148,0.615,0.91,1.549,2.287c0.591,0.838,0.886,1.6,0.886,2.287c0,0.395-0.071,0.789-0.222,1.182 c-0.836,2.113-2.387,3.172-4.646,3.172c-0.937,0-1.846-0.197-2.731-0.592c-1.229-0.541-1.904-1.242-2.027-2.102 c-0.122-0.861-0.232-1.707-0.332-2.545l-3.982-9.888l-4.424,8.854c-0.295,0.982-0.64,1.953-1.033,2.914 c-0.395,0.959-1.157,1.437-2.287,1.437c-1.428,0-2.804-0.491-4.131-1.476c-1.426-1.131-2.041-2.383-1.844-3.762 c0.097-0.541,0.429-1.115,0.995-1.733c0.565-0.615,0.922-1.068,1.071-1.363l6.492-11.806l-4.577-14.306 c-0.147-0.493-0.626-1.096-1.438-1.808s-1.268-1.387-1.364-2.028c-0.148-1.13,0.539-2.139,2.065-3.024 c1.376-0.737,2.851-1.107,4.427-1.107c0.886,0,1.573,0.148,2.066,0.441c1.081,0.692,1.743,1.563,1.989,2.62 c0.245,1.059,0.468,2.104,0.664,3.135l2.212,6.934l4.869-8.706c0.442-0.934,0.924-1.891,1.438-2.876 c0.519-0.985,1.216-1.646,2.103-1.991c0.539-0.247,1.154-0.37,1.844-0.37c1.279,0,2.521,0.356,3.726,1.071 C57.954,22.938,58.606,23.689,58.706,24.476z" />
	</g>
</svg>
