<svg version="1.1" id="svg_0_v" valid="1" xmlns="http://www.w3.org/2000/svg" xmlns:xlink="http://www.w3.org/1999/xlink" x="0px" y="0px"
	 width="85.04px" height="85.04px" viewBox="0 0 85.04 85.04" enable-background="new 0 0 85.04 85.04" xml:space="preserve">
<ellipse transform="matrix(-0.0935 -0.9956 0.9956 -0.0935 -40.4893 122.7536)" fill="#FFFFFF" toFill="#A1B3B0" cx="35.636" cy="79.809" rx="3.714" ry="17.517"/>
<path fill="#FFFFFF" toFill="#FFFFFF" stroke="#815C2D" stroke-width="0.34" stroke-miterlimit="10" d="M71.604,45.318"/>
<path fill="#FFFFFF" toFill="#FFFFFF" stroke="#815C2D" stroke-width="0.34" stroke-miterlimit="10" d="M34.234,62.88"/>
<path fill="#FFFFFF" toFill="#9DC93B" stroke="#815C2D" stroke-width="0.34" stroke-miterlimit="10" d="M36.618,61.882c0,0-0.583,8.262,1.4,9.28
	c1.983,1.018,3.85,1.018,3.85,1.018s6.767-4.323,8.634,2.924c1.866,7.248-18.084,3.052-18.084,0.636
	c0-2.415,3.617-5.596,1.517-13.731L36.618,61.882z"/>
<path fill="#FFFFFF" toFill="#9DC93B" stroke="#815C2D" stroke-width="0.34" stroke-miterlimit="10" d="M34.083,62.897c0,0-1.058,5.163,1.1,7.925
	c2.157,2.761,2.977,6.688-3.625,9.19c-6.603,2.504-11.867,1.641-11.867-2.589s7.293-4.402,9.408-4.531
	c2.114-0.13,3.797-3.884,2.546-11.09L34.083,62.897z"/>
<path fill="#FFFFFF" toFill="#9DC93B" stroke="#815C2D" stroke-width="0.34" stroke-miterlimit="10" d="M31.515,74.532c0,0-0.733-1.727-2.2-1.64"/>
<path fill="#FFFFFF" toFill="#9DC93B" stroke="#815C2D" stroke-width="0.34" stroke-miterlimit="10" d="M65.339,46.56l-5.596-2.701
	c-8.203,8.546-20.646,2.705-23.375,1.264l-1.509-1.51l-1.818,1.365l-0.189-0.049c0,0-11.349,0.389-11.219,1.166
	c0.129,0.775,2.654,5.178,3.625,8.738L26.1,53.15l-1.812-5.243c0,0,3.495-0.646,6.118-0.949L30.35,47l8.803,0.907l-0.373-0.374
	C49.704,55.451,65.339,46.56,65.339,46.56z"/>
<path fill="#FFFFFF" toFill="#9DC93B" stroke="#815C2D" stroke-width="0.34" stroke-miterlimit="10" d="M60.575,39.547c0,0,2.014-4.565,2.417-6.58
	c0.403-2.015,3.76-5.237,4.834-1.612c1.074,3.626-3.223,8.057-3.223,8.057l4.97,4.431c0,0-1.478,6.982-5.642,4.029
	c0,0-5.371-0.404-5.639-4.164C58.025,39.95,60.575,39.547,60.575,39.547z"/>
<ellipse transform="matrix(0.6924 -0.7215 0.7215 0.6924 -10.0832 59.6659)" fill="#FFFFFF" toFill="#9DC93B" stroke="#815C2D" stroke-width="0.34" stroke-miterlimit="10" cx="64.938" cy="41.659" rx="2.923" ry="2.125"/>
<ellipse transform="matrix(0.6923 -0.7216 0.7216 0.6923 -10.8609 62.2696)" fill="#FFFFFF" toFill="#9DC93B" stroke="#815C2D" stroke-width="0.34" stroke-miterlimit="10" cx="67.583" cy="43.87" rx="2.445" ry="1.811"/>
<path fill="#FFFFFF" toFill="#9DC93B" stroke="#815C2D" stroke-width="0.34" stroke-miterlimit="10" d="M59.91,39.837
	c-0.043-0.302,4.79-1.899,4.79,1.51c0,3.409-3.883,1.855-3.883,1.855"/>
<path fill="#FFFFFF" toFill="#9DC93B" stroke="#815C2D" stroke-width="0.34" stroke-miterlimit="10" d="M29.299,61.599c0,0-1.076,2.467-5.313,2.214
	c-4.238-0.254-2.847-7.275,0-5.377L29.299,61.599z"/>
<path fill="#FFFFFF" toFill="#9DC93B" stroke="#815C2D" stroke-width="0.34" stroke-miterlimit="10" d="M25.44,53.375c0,0-3.29,1.454-2.783,3.226
	c0.505,1.772,2.214,8.793,6.199,6.072C32.84,59.954,31.259,50.402,25.44,53.375z"/>
<ellipse fill="#FFFFFF" toFill="#9DC93B" cx="25.471" cy="62.263" rx="2.436" ry="1.359"/>
<polyline fill="none" stroke="#815C2D" stroke-width="0.34" stroke-miterlimit="10" points="22.595,7.083 25.519,11.539 
	37.234,10.292 39.155,5.321 "/>
<ellipse transform="matrix(-0.1569 -0.9876 0.9876 -0.1569 19.0826 30.5232)" fill="#FFFFFF" toFill="#9DC93B" cx="22.569" cy="7.117" rx="0.647" ry="0.598"/>
<circle fill="#FFFFFF" toFill="#9DC93B" cx="39.281" cy="5.212" r="0.648"/>
<circle fill="#FFFFFF" toFill="#9DC93B" stroke="#815C2D" stroke-width="0.34" stroke-miterlimit="10" cx="31.479" cy="45.533" r="2.518"/>
<circle fill="#FFFFFF" toFill="#9DC93B" stroke="#815C2D" stroke-width="0.34" stroke-miterlimit="10" cx="37.902" cy="45.533" r="2.223"/>
<path fill="#FFFFFF" toFill="#9DC93B" stroke="#815C2D" stroke-width="0.34" stroke-miterlimit="10" d="M34.438,43.699l-0.104,0.052l-0.104-0.052
	c0,0-21.04,13.594-0.132,19.418l0.237-0.041l0.236,0.041C55.479,57.292,34.438,43.699,34.438,43.699z"/>
<path fill="#FFFFFF" toFill="#9DC93B" stroke="#815C2D" stroke-width="0.34" stroke-miterlimit="10" d="M36.09,38.328c0,0-0.194,6.796,0,6.603
	c0.194-0.194-1.337,2.113-3.237,0v-6.646L36.09,38.328z"/>
<path fill="#FFFFFF" toFill="#9DC93B" stroke="#815C2D" stroke-width="0.34" stroke-miterlimit="10" d="M53.124,31.128
	c-1.155-12.91-10.951-22.584-21.88-21.606C20.314,10.5,12.393,21.759,13.548,34.669c0.034,0.375,0.076,0.745,0.123,1.113
	c-0.001,0.02-0.006,0.042-0.004,0.062l0.396,4.423c0.065,0.731,2.057,1.15,4.45,0.936l30.847-2.759
	c2.393-0.214,4.278-0.98,4.213-1.711l-0.357-3.988C53.198,32.208,53.171,31.67,53.124,31.128z"/>
<circle fill="#FFFFFF" toFill="#FFFFFF" stroke="#815C2D" stroke-width="0.34" stroke-miterlimit="10" cx="25.733" cy="23.772" r="4.114"/>
<circle fill="#FFFFFF" toFill="#9DC93B" stroke="#815C2D" stroke-width="0.34" stroke-miterlimit="10" cx="34.32" cy="53.861" r="3.625"/>
<circle fill="#815C2D" toFill="#815C2D" cx="26.51" cy="22.735" r="2.311"/>
<circle fill="#FFFFFF" toFill="#FFFFFF" cx="27.158" cy="21.958" r="1.005"/>
<circle fill="#FFFFFF" toFill="#FFFFFF" stroke="#815C2D" stroke-width="0.34" stroke-miterlimit="10" cx="41.091" cy="19.567" r="4.114"/>
<circle fill="#815C2D" toFill="#815C2D" cx="41.868" cy="18.53" r="2.31"/>
<circle fill="#815C2D" toFill="#FFFFFF" cx="42.514" cy="17.753" r="1.005"/>
<g>
	<polyline fill="#FFFFFF" toFill="#9DC93B" stroke="#815C2D" stroke-width="0.34" stroke-miterlimit="10" points="26.256,33.641 27.284,35.281 
		35.23,34.57 	"/>
	<polyline fill="#FFFFFF" toFill="#9DC93B" stroke="#815C2D" stroke-width="0.34" stroke-miterlimit="10" points="43.905,32.062 43.183,33.859 
		35.236,34.569 	"/>
</g>
<path fill="#FFFFFF" toFill="#9DC93B" stroke="#815C2D" stroke-width="0.34" stroke-miterlimit="10" d="M32.787,40.312c0,0,1.76,1.424,3.178,0"/>
<path fill="#FFFFFF" toFill="#9DC93B" stroke="#815C2D" stroke-width="0.34" stroke-miterlimit="10" d="M32.914,42.124c0,0,1.69,1.424,3.05,0"/>
<path fill="#FFFFFF" toFill="#9DC93B" stroke="#815C2D" stroke-width="0.34" stroke-miterlimit="10" d="M32.914,43.678c0,0,1.69,1.425,3.05,0"/>
<circle fill="#FFFFFF" toFill="#FFFFFF" cx="25.344" cy="21.959" r="0.35"/>
<circle fill="#FFFFFF" toFill="#FFFFFF" cx="40.629" cy="17.814" r="0.35"/>
<polygon fill="#815C2D" toFill="#FFF100" points="20.923,7.182 18.636,6.716 18.906,6.343 "/>
<polygon fill="#815C2D" toFill="#FFF100" points="22.742,5.387 22.544,3.063 22.979,3.215 "/>
<polygon fill="#815C2D" toFill="#FFF100" points="22.631,8.835 22.58,11.168 22.163,10.969 "/>
<polygon fill="#815C2D" toFill="#FFF100" points="24.38,7.175 26.707,6.98 26.553,7.416 "/>
<polygon fill="#815C2D" toFill="#FFF100" points="38.646,3.52 38.632,1.185 39.054,1.373 "/>
<polygon fill="#815C2D" toFill="#FFF100" points="40.775,4.932 43.01,4.26 42.949,4.717 "/>
<polygon fill="#815C2D" toFill="#FFF100" points="37.378,5.529 35.083,5.957 35.192,5.508 "/>
<polygon fill="#815C2D" toFill="#FFF100" points="39.359,6.902 40.026,9.139 39.569,9.078 "/>
<path fill="#FFFFFF" toFill="#9DC93B" stroke="#815C2D" stroke-width="0.34" stroke-miterlimit="10" d="M41.869,72.18c0,0-0.774,0.798-0.774,1.445"
	/>
<path fill="#FFFFFF" toFill="#FFFFFF" d="M32.163,45.835c0,0-5.352,5.178-5.523,6.731c-0.173,1.553-2.417,3.971,1.726,7.422
	C28.365,59.989,22.669,56.881,32.163,45.835z"/>
<path fill="#FFFFFF" toFill="#FFFFFF" d="M29.832,10.536c0,0-18.296,4.143-15.017,27.963C14.815,38.5,12.572,17.786,29.832,10.536z"/>
<path fill="#FFFFFF" toFill="#FFFFFF" d="M22.41,46.785l2.417,5.696C24.827,52.481,23.791,47.82,22.41,46.785z"/>
<path fill="#FFFFFF" toFill="#FFFFFF" d="M23.273,56.106c0,0,0.69,3.625,1.208,4.143C25,60.765,23.273,56.106,23.273,56.106z"/>
<path fill="#FFFFFF" toFill="#FFFFFF" d="M22.238,59.04c0,0-1.381,2.157,0.259,3.712C22.497,62.751,21.547,60.938,22.238,59.04z"/>
<path fill="#FFFFFF" toFill="#FFFFFF" d="M31.213,43.505c0,0-2.353,0.863-1.792,2.59C29.421,46.093,29.533,44.541,31.213,43.505z"/>
<path fill="#FFFFFF" toFill="#FFFFFF" d="M33.285,40.312v4.402C33.285,44.713,33.89,41.952,33.285,40.312z"/>
<path fill="#FFFFFF" toFill="#FFFFFF" d="M32.509,51.445c0,0-3.021,1.984-0.086,4.832C32.422,56.278,30.264,54.12,32.509,51.445z"/>
<path fill="#FFFFFF" toFill="#FFFFFF" d="M60.041,40.57c0,0,1.553-1.553,3.797-0.345C63.837,40.226,62.197,39.708,60.041,40.57z"/>
<path fill="#FFFFFF" toFill="#FFFFFF" d="M66.339,30.3c0,0-2.675,0.345-3.451,5.351C62.888,35.651,64.096,31.163,66.339,30.3z"/>
<path fill="#FFFFFF" toFill="#FFFFFF" d="M22.683,74.657c0,0,1.656-0.826,2.455-0.042c0.799,0.786-2.131,2.082-3.015,1.619
	C21.238,75.77,21.735,74.981,22.683,74.657z"/>
<path fill="#FFFFFF" toFill="#FFFFFF" d="M43.424,72.481c0,0,1.656-0.827,2.456-0.04c0.799,0.785-2.132,2.08-3.016,1.616
	C41.98,73.594,42.475,72.805,43.424,72.481z"/>
<path fill="#FFFFFF" toFill="#FFFFFF" d="M67.375,42.556c0,0-1.468,0.949-1.381,1.984L67.375,42.556z"/>
<path fill="#FFFFFF" toFill="#FFFFFF" d="M65.964,39.817c0,0-0.983,0.09-1.083,0.36C64.881,40.177,65.866,40.087,65.964,39.817z"/>
<path fill="#FFFFFF" toFill="#FFFFFF" d="M58.402,46.007c0,0-4.376,2.846-7.986,2.846C50.416,48.853,54.026,49.728,58.402,46.007z"/>

<g id="clickMark_0_v" class="none">
	<path fill="#FFFFFF" d="M83.978,42.521c0,22.892-18.561,41.454-41.459,41.454c-22.895,0-41.457-18.562-41.457-41.454 c0-22.899,18.562-41.457,41.457-41.457C65.417,1.064,83.978,19.623,83.978,42.521z" />
	<path fill="none" stroke="#000000" stroke-width="0.9447" d="M42.519,73.262c16.982,0,30.749-13.76,30.749-30.741 c0-16.98-13.767-30.74-30.749-30.74c-16.981,0-30.745,13.76-30.745,30.74C11.772,59.502,25.537,73.262,42.519,73.262z" />
	<path fill="#D7DF23" stroke="#000000" stroke-width="0.8879" d="M42.519,73.262c16.982,0,30.749-13.76,30.749-30.741 c0-16.98-13.767-30.74-30.749-30.74c-16.981,0-30.745,13.76-30.745,30.74C11.772,59.502,25.537,73.262,42.519,73.262" />
	<path fill="#009444" d="M61.976,26.239c0,0.923-0.524,1.787-1.572,2.587c-1.356,1.11-2.188,1.91-2.495,2.403L43.209,54.614 c-1.108,1.972-2.188,3.943-3.236,5.912c-1.724,2.527-3.481,3.789-5.268,3.789c-0.8,0-1.617-0.229-2.447-0.692 c-0.833-0.459-1.312-1.338-1.435-2.634c-0.246-1.786-0.493-2.926-0.739-3.418l-4.621-9.43c-0.185-0.369-1.017-1.416-2.496-3.143 c-0.864-1.109-1.202-2.277-1.015-3.511c0.185-1.54,0.891-2.895,2.126-4.066c1.229-1.17,2.555-1.755,3.972-1.755 c0.616,0,1.234,0.122,1.849,0.368c0.309,0.125,0.741,0.958,1.294,2.496c0.74,2.095,1.265,3.482,1.572,4.159l3.326,6.192 l13.405-21.719c0.678-1.293,1.354-2.618,2.035-3.975c0.983-1.355,2.187-2.033,3.604-2.033c1.537,0,3.064,0.555,4.574,1.666 C61.218,23.93,61.976,25.067,61.976,26.239z" />
</g>
</svg>
