<svg version="1.1" id="svg_1" xmlns="http://www.w3.org/2000/svg" xmlns:xlink="http://www.w3.org/1999/xlink" x="0px" y="0px"
	 width="85.04px" height="85.04px" viewBox="0 0 85.04 85.04" enable-background="new 0 0 85.04 85.04" xml:space="preserve">
<path fill="#BBEFEA" stroke="#AACBCB" stroke-width="0.75" stroke-miterlimit="10" d="M56.184,35.424
	c-3.07-0.486-9.637,6.315-14.579,7.655c-4.939-1.34-11.507-8.141-14.577-7.655c-3.404,0.537-4.749,8.868-1.971,6.092
	c2.777-2.778,6.271,10.035,6.271,18.635c0,8.6,7.884,10.034,7.884,10.034s0.179,3.047,0.179,6.63s-11.647,4.659-11.468,5.554
	c0.178,0.896,2.15,1.254,2.15,1.254h9.982h3.098h9.982c0,0,1.973-0.357,2.152-1.254c0.176-0.895-11.471-1.971-11.471-5.554
	s0.18-6.63,0.18-6.63s7.885-1.434,7.885-10.034s3.494-21.413,6.271-18.635C60.934,44.292,59.588,35.961,56.184,35.424z"/>
<path fill="#FF6D76" d="M34.025,45.997c0,0,13.379,3.343,17.323-0.837c0,0-2.152,8.362-1.914,10.751
	c0.242,2.39-0.717,12.305-6.808,12.305c-6.092,0-10.871-4.54-7.884-13.258C34.742,54.956,36.176,48.506,34.025,45.997z"/>
<path fill="#EEA47D" stroke="#D0906E" stroke-width="0.5" stroke-miterlimit="10" d="M34.145,16.25l-6.092-9.796
	c0,0-1.434-2.15,0.717-4.3c2.151-2.15,4.3,1.075,4.3,1.075l6.81,11.11l-4.54,2.986L34.145,16.25z"/>
<ellipse transform="matrix(-0.7303 -0.6831 0.6831 -0.7303 48.9611 26.4368)" fill="#B15D1D" cx="29.699" cy="3.553" rx="1.119" ry="2.374"/>
<circle fill="#FBE55E" stroke="#F8D35B" stroke-width="0.5" stroke-miterlimit="10" cx="32.167" cy="26.336" r="10.39"/>
<circle fill="#D57EB3" stroke="#A3608A" stroke-width="0.5" stroke-miterlimit="10" cx="51.536" cy="30.406" r="10.39"/>
<line fill="none" stroke="#B15D1D" stroke-width="0.7559" stroke-miterlimit="10" x1="57.854" y1="5.247" x2="45.141" y2="23.871"/>
<path fill="#FFD8E3" stroke="#E1C3CC" stroke-width="0.25" stroke-miterlimit="10" d="M42.926,9.083c0,0,4.479-7.347,14.691-3.225
	c0,0,7.885,3.762,5.018,13.439c0,0-3.764-2.688-5.018-0.538c0,0-2.686-3.764-5.912-3.046c0,0-3.762-4.838-5.555-3.584
	C46.151,12.128,46.331,9.083,42.926,9.083z"/>
<path fill="#6E9C6E" stroke="#5A825B" stroke-width="0.5" stroke-miterlimit="10" d="M42.984,13.146c0,0-0.836-4.062,0.12-4.659
	c0.955-0.598-3.345,0.597-2.866,3.941c0.478,3.345-2.867-2.389-4.062-3.225c-1.195-0.835,0,4.538,0.717,5.495
	s-3.583-0.12-4.181,0.837c-0.597,0.956,2.032,2.747,4.779,3.464L42.984,13.146z"/>
<path fill="#BC426B" d="M33.906,54.956c0,0,12.544-4.183,17.681-10.513c0,0-4.898,10.394-17.204,12.544
	C34.383,56.987,32.831,56.151,33.906,54.956z"/>
<path fill="#BC426B" d="M49.198,59.495c0,0-6.572,8.242-12.424,6.81C30.921,64.869,44.897,64.154,49.198,59.495z"/>
<path fill="#FF5F7B" stroke="#BF4B63" stroke-width="0.2545" stroke-miterlimit="10" d="M57.856,6.225c0,0,1.254,9.563,0,12.626
	c0,0,1.164-2.321,4.838,0.464C62.694,19.315,64.844,10.403,57.856,6.225z"/>
<path fill="#FF5F7B" stroke="#BF4B63" stroke-width="0.249" stroke-miterlimit="10" d="M46.422,11.502c0,0,4.33,0.353,5.322,4.057
	c0,0,5.234-7.232,5.146-9.615C56.891,5.945,50.301,5.681,46.422,11.502z"/>
<path fill="#FBE55E" d="M30.182,36.304c0,0,0.238,1.912,1.193,3.704c0.957,1.792,1.197,3.105,0.837,3.941
	c-0.358,0.837-1.672,2.271-0.12,2.866c1.555,0.597,0.837-0.955,1.315-2.03c0.478-1.076-0.121-4.063,0.835-4.181
	c0.957-0.12,0.957,2.27,0.837,3.703c-0.121,1.434-1.554,4.897,0.596,5.018c2.152,0.12,0.957-2.748,0.837-3.584
	c-0.121-0.837-0.001-3.942,0.239-4.42c0.239-0.478,0.239-2.031,0.239-2.031s-5.376-6.093-6.212-4.42
	C29.941,36.543,30.182,36.304,30.182,36.304z"/>
<circle fill="#8FC740" stroke="#7CAE38" stroke-width="0.5" stroke-miterlimit="10" cx="41.492" cy="33.99" r="10.39"/>
<path fill="#F46B7D" stroke="#CE5B6B" stroke-width="0.5" stroke-miterlimit="10" d="M40.058,13.385c0,0,9.14-4.122,9.14,7.526
	s-13.738,2.15-12.544-3.225C36.654,17.685,37.132,14.1,40.058,13.385z"/>
<path fill="#FFFFFF" d="M27.885,18.198c0,0-7.111,3.911-4.622,11.022C23.263,29.221,22.789,23.057,27.885,18.198z"/>
<path fill="#FFFFFF" d="M32.661,29.614c0,0-3.546,7.301,2.592,11.669C35.252,41.282,31.307,36.525,32.661,29.614z"/>
<path fill="#FFFFFF" d="M32.152,44.688c0,0-1.008,1.422-0.237,1.896C31.915,46.583,31.678,45.399,32.152,44.688z"/>
<path fill="#FFFFFF" d="M34.878,46.882c0,0-0.356,1.659,0.474,2.015C35.352,48.897,34.937,48.422,34.878,46.882z"/>
<path fill="#FFFFFF" d="M36.893,18.197c0,0,0.395,3.554,4.821,6.479C41.714,24.676,38.238,21.831,36.893,18.197z"/>
<path fill="#B15D1D" d="M57.745,6.248c-0.174,0.194-0.506,0.183-0.74-0.026l0,0c-0.236-0.211-0.283-0.537-0.109-0.732l0.316-0.353
	c0.174-0.195,0.506-0.184,0.738,0.026l0,0c0.236,0.21,0.283,0.538,0.109,0.732L57.745,6.248z"/>
<path fill="#FFFFFF" d="M30.493,82.125c0,0,6.4-1.264,7.743-2.608C38.236,79.516,36.102,81.809,30.493,82.125z"/>
<path fill="#FFFFFF" d="M39.738,70.981l0.237,5.374C39.975,76.355,40.369,72.167,39.738,70.981z"/>
<path fill="#FFFFFF" d="M28.676,43.167c0,0,2.924,6.242,3.239,15.645C31.915,58.812,32.152,48.54,28.676,43.167z"/>
<path fill="#FFFFFF" d="M26.462,36.371c0,0-1.738,1.265-2.291,4.425C24.172,40.796,25.435,37.557,26.462,36.371z"/>
</svg>
