<svg version="1.1" id="svg_1_1" xmlns="http://www.w3.org/2000/svg" xmlns:xlink="http://www.w3.org/1999/xlink" x="0px" y="0px"
	 width="85.04px" height="85.04px" viewBox="0 0 85.04 85.04" enable-background="new 0 0 85.04 85.04" xml:space="preserve">
<path fill="#FFFFFF" stroke="#815C2D" stroke-width="0.2288" stroke-linecap="round" stroke-linejoin="round" d="M55.931,35.556
	c-3.014-0.477-9.46,6.198-14.308,7.513c-4.847-1.314-11.292-7.989-14.306-7.513c-3.341,0.527-4.661,8.704-1.934,5.979
	c2.725-2.726,6.155,9.848,6.155,18.29c0,8.44,7.737,9.847,7.737,9.847s0.176,2.99,0.176,6.507c0,3.518-11.43,4.572-11.256,5.451
	c0.176,0.879,2.112,1.23,2.112,1.23h9.794h3.042h9.795c0,0,1.936-0.352,2.112-1.23c0.174-0.879-11.255-1.934-11.255-5.451
	c0-3.517,0.175-6.507,0.175-6.507s7.737-1.406,7.737-9.847c0-8.441,3.43-21.016,6.154-18.29
	C60.591,44.26,59.273,36.083,55.931,35.556z"/>
<path fill="#FFFFFF" stroke="#815C2D" stroke-width="0.1598" stroke-linecap="round" stroke-linejoin="round" d="M34.184,45.932
	c0,0,13.13,3.28,17-0.821c0,0-2.111,8.207-1.875,10.552c0.234,2.344-0.704,12.075-6.684,12.075s-10.669-4.455-7.738-13.012
	C34.887,54.724,36.294,48.395,34.184,45.932z"/>
<path fill="#FFFFFF" stroke="#815C2D" stroke-width="0.2288" stroke-linecap="round" stroke-linejoin="round" d="M34.302,16.739
	l-5.98-9.614c0,0-1.407-2.11,0.704-4.22c2.11-2.11,4.22,1.056,4.22,1.056l6.684,10.903l-4.455,2.93L34.302,16.739z"/>
<ellipse transform="matrix(-0.7303 -0.6832 0.6832 -0.7303 48.8761 27.8552)" fill="#FFFFFF" stroke="#815C2D" stroke-width="0.1598" stroke-linecap="round" stroke-linejoin="round" cx="29.937" cy="4.279" rx="1.099" ry="2.329"/>
<circle fill="#FFFFFF" stroke="#815C2D" stroke-width="0.2288" stroke-linecap="round" stroke-linejoin="round" cx="32.361" cy="26.637" r="10.197"/>
<line fill="none" stroke="#815C2D" stroke-width="0.1598" stroke-linecap="round" stroke-linejoin="round" x1="57.568" y1="5.94" x2="45.092" y2="24.217"/>
<path fill="#FFFFFF" stroke="#815C2D" stroke-width="0.2288" stroke-linecap="round" stroke-linejoin="round" d="M42.919,9.705
	c0,0,4.395-7.21,14.418-3.165c0,0,7.737,3.692,4.924,13.189c0,0-3.693-2.638-4.924-0.528c0,0-2.637-3.693-5.804-2.99
	c0,0-3.691-4.748-5.449-3.517C46.083,12.694,46.259,9.705,42.919,9.705z"/>
<path fill="#FFFFFF" stroke="#815C2D" stroke-width="0.2288" stroke-linecap="round" stroke-linejoin="round" d="M42.975,13.691
	c0,0-0.819-3.986,0.118-4.572c0.938-0.587-3.282,0.586-2.813,3.868c0.469,3.282-2.813-2.345-3.986-3.165
	c-1.173-0.819,0,4.454,0.703,5.393c0.704,0.938-3.517-0.117-4.102,0.821c-0.587,0.938,1.994,2.696,4.689,3.399L42.975,13.691z"/>
<path fill="#FFFFFF" stroke="#815C2D" stroke-width="0.1598" stroke-linecap="round" stroke-linejoin="round" d="M34.067,54.724
	c0,0,12.309-4.104,17.35-10.317c0,0-4.807,10.201-16.883,12.312C34.534,56.718,33.011,55.898,34.067,54.724z"/>
<path fill="#FFFFFF" stroke="#815C2D" stroke-width="0.1598" stroke-linecap="round" stroke-linejoin="round" d="M49.073,59.179
	c0,0-6.448,8.089-12.192,6.683C31.135,64.454,44.853,63.752,49.073,59.179z"/>
<path fill="#FFFFFF" stroke="#815C2D" stroke-width="0.1598" stroke-linecap="round" stroke-linejoin="round" d="M57.57,6.899
	c0,0,1.23,9.386,0,12.392c0,0,1.144-2.278,4.75,0.455C62.318,19.747,64.429,11,57.57,6.899z"/>
<path fill="#FFFFFF" stroke="#815C2D" stroke-width="0.1598" stroke-linecap="round" stroke-linejoin="round" d="M46.348,12.079
	c0,0,4.251,0.346,5.226,3.981c0,0,5.139-7.098,5.049-9.436C56.623,6.625,50.157,6.366,46.348,12.079z"/>
<path fill="#FFFFFF" stroke="#815C2D" stroke-width="0.1598" stroke-linecap="round" stroke-linejoin="round" d="M30.411,36.419
	c0,0,0.234,1.876,1.172,3.635c0.939,1.759,1.174,3.048,0.821,3.868c-0.351,0.821-1.641,2.229-0.118,2.813
	c1.525,0.585,0.822-0.938,1.291-1.993s-0.118-3.987,0.82-4.104c0.939-0.117,0.939,2.228,0.821,3.634
	c-0.118,1.407-1.525,4.807,0.585,4.924c2.112,0.118,0.939-2.695,0.823-3.517c-0.118-0.821-0.002-3.869,0.234-4.337
	c0.235-0.469,0.235-1.994,0.235-1.994s-5.276-5.98-6.098-4.338C30.176,36.654,30.411,36.419,30.411,36.419z"/>
<circle fill="#FFFFFF" stroke="#815C2D" stroke-width="0.1598" stroke-linecap="round" stroke-linejoin="round" cx="41.512" cy="34.149" r="10.197"/>
<path fill="#FFFFFF" stroke="#815C2D" stroke-width="0.2288" stroke-linecap="round" stroke-linejoin="round" d="M40.104,13.926
	c0,0,8.969-4.045,8.969,7.386s-13.482,2.111-12.31-3.165C36.763,18.146,37.232,14.628,40.104,13.926z"/>
<path fill="#FFFFFF" stroke="#815C2D" stroke-width="0.1598" stroke-linecap="round" stroke-linejoin="round" d="M28.156,18.65
	c0,0-6.979,3.839-4.536,10.818C23.62,29.468,23.154,23.419,28.156,18.65z"/>
<path fill="#FFFFFF" stroke="#815C2D" stroke-width="0.1598" stroke-linecap="round" stroke-linejoin="round" d="M32.842,29.854
	c0,0-3.481,7.165,2.544,11.452C35.389,41.305,31.515,36.637,32.842,29.854z"/>
<path fill="#FFFFFF" stroke="#815C2D" stroke-width="0.1598" stroke-linecap="round" stroke-linejoin="round" d="M35.02,46.801
	c0,0-0.349,1.628,0.466,1.978C35.485,48.779,35.078,48.313,35.02,46.801z"/>
<path fill="#FFFFFF" stroke="#815C2D" stroke-width="0.1598" stroke-linecap="round" stroke-linejoin="round" d="M36.997,18.648
	c0,0,0.387,3.489,4.731,6.359C41.729,25.007,38.317,22.216,36.997,18.648z"/>
<path fill="#FFFFFF" stroke="#815C2D" stroke-width="0.1598" stroke-linecap="round" stroke-linejoin="round" d="M57.461,6.922
	c-0.172,0.189-0.497,0.178-0.728-0.026l0,0c-0.231-0.208-0.278-0.528-0.107-0.719l0.311-0.346c0.172-0.191,0.496-0.181,0.726,0.025
	l0,0c0.231,0.206,0.278,0.527,0.107,0.719L57.461,6.922z"/>
<path fill="#FFFFFF" stroke="#815C2D" stroke-width="0.1598" stroke-linecap="round" stroke-linejoin="round" d="M30.716,81.388
	c0,0,6.281-1.239,7.599-2.56C38.315,78.829,36.221,81.079,30.716,81.388z"/>
<path fill="#FFFFFF" stroke="#815C2D" stroke-width="0.1598" stroke-linecap="round" stroke-linejoin="round" d="M39.789,70.452
	l0.232,5.275C40.021,75.727,40.409,71.616,39.789,70.452z"/>
<path fill="#FFFFFF" stroke="#815C2D" stroke-width="0.1598" stroke-linecap="round" stroke-linejoin="round" d="M28.933,43.155
	c0,0,2.87,6.126,3.179,15.355C32.112,58.51,32.344,48.427,28.933,43.155z"/>
<path fill="#FFFFFF" stroke="#815C2D" stroke-width="0.1598" stroke-linecap="round" stroke-linejoin="round" d="M26.761,36.485
	c0,0-1.707,1.242-2.249,4.343C24.512,40.829,25.752,37.649,26.761,36.485z"/>
	
	<g id="clickMark_1_1" class="none">
		<path fill="#FFFFFF" d="M83.975,42.521c0,22.892-18.561,41.454-41.458,41.454c-22.893,0-41.453-18.562-41.453-41.454 C1.065,19.623,19.625,1.064,42.519,1.064C65.415,1.064,83.975,19.623,83.975,42.521z" />
		<path fill="none" stroke="#000000" stroke-width="0.9447" d="M42.519,73.262c16.977,0,30.746-13.76,30.746-30.741 c0-16.98-13.769-30.74-30.746-30.74c-16.979,0-30.743,13.76-30.743,30.74C11.774,59.502,25.54,73.262,42.519,73.262z" />
		<path fill="#D7DF23" d="M42.519,73.262c16.977,0,30.746-13.76,30.746-30.741c0-16.98-13.769-30.74-30.746-30.74 c-16.979,0-30.743,13.76-30.743,30.74C11.774,59.502,25.54,73.262,42.519,73.262" />
		<path fill="none" stroke="#000000" stroke-width="0.8879" d="M42.519,73.262c16.977,0,30.746-13.76,30.746-30.741 c0-16.98-13.769-30.74-30.746-30.74c-16.979,0-30.743,13.76-30.743,30.74C11.774,59.502,25.54,73.262,42.519,73.262" />
		<path fill="#ED1C24" d="M58.706,24.476c0.098,0.837-0.395,1.623-1.477,2.36c-1.377,0.983-2.213,1.721-2.508,2.211l-8.408,14.606 l7.08,13.721c0.1,0.148,0.615,0.91,1.549,2.287c0.591,0.838,0.886,1.6,0.886,2.287c0,0.395-0.071,0.789-0.222,1.182 c-0.836,2.113-2.387,3.172-4.646,3.172c-0.937,0-1.846-0.197-2.731-0.592c-1.229-0.541-1.904-1.242-2.027-2.102 c-0.122-0.861-0.232-1.707-0.332-2.545l-3.982-9.888l-4.424,8.854c-0.295,0.982-0.64,1.953-1.033,2.914 c-0.395,0.959-1.157,1.437-2.287,1.437c-1.428,0-2.804-0.491-4.131-1.476c-1.426-1.131-2.041-2.383-1.844-3.762 c0.097-0.541,0.429-1.115,0.995-1.733c0.565-0.615,0.922-1.068,1.071-1.363l6.492-11.806l-4.577-14.306 c-0.147-0.493-0.626-1.096-1.438-1.808s-1.268-1.387-1.364-2.028c-0.148-1.13,0.539-2.139,2.065-3.024 c1.376-0.737,2.851-1.107,4.427-1.107c0.886,0,1.573,0.148,2.066,0.441c1.081,0.692,1.743,1.563,1.989,2.62 c0.245,1.059,0.468,2.104,0.664,3.135l2.212,6.934l4.869-8.706c0.442-0.934,0.924-1.891,1.438-2.876 c0.519-0.985,1.216-1.646,2.103-1.991c0.539-0.247,1.154-0.37,1.844-0.37c1.279,0,2.521,0.356,3.726,1.071 C57.954,22.938,58.606,23.689,58.706,24.476z" />
	</g>
</svg>
