<svg version="1.1" id="svg_1_v" valid="1" xmlns="http://www.w3.org/2000/svg" xmlns:xlink="http://www.w3.org/1999/xlink" x="0px" y="0px"
	 width="85.04px" height="85.04px" viewBox="0 0 85.04 85.04" enable-background="new 0 0 85.04 85.04" xml:space="preserve">
<path fill="#FFFFFF" toFill="#BBEFEA" stroke="#815C2D" stroke-width="0.25" stroke-miterlimit="10" d="M56.172,35.43
	c-3.068-0.484-9.629,6.309-14.566,7.648c-4.935-1.34-11.496-8.133-14.563-7.648c-3.401,0.537-4.744,8.86-1.969,6.088
	c2.773-2.775,6.265,10.024,6.265,18.616c0,8.593,7.877,10.025,7.877,10.025s0.178,3.044,0.178,6.624s-11.635,4.655-11.457,5.549
	c0.18,0.896,2.15,1.253,2.15,1.253h9.971h3.098h9.971c0,0,1.971-0.357,2.15-1.253c0.178-0.894-11.457-1.969-11.457-5.549
	s0.178-6.624,0.178-6.624s7.876-1.433,7.876-10.025c0-8.592,3.492-21.392,6.266-18.616C60.917,44.291,59.575,35.967,56.172,35.43z"
	/>
<path fill="#FFFFFF" toFill="#FF6D76" stroke="#815C2D" stroke-width="0.25" stroke-miterlimit="10" d="M34.033,45.993c0,0,13.367,3.34,17.306-0.836
	c0,0-2.15,8.354-1.91,10.741c0.239,2.387-0.718,12.293-6.803,12.293c-6.088,0-10.861-4.535-7.877-13.246
	C34.749,54.943,36.182,48.5,34.033,45.993z"/>
<path fill="#FFFFFF" toFill="#EEA47D" stroke="#815C2D" stroke-width="0.25" stroke-miterlimit="10" d="M34.153,16.275l-6.087-9.787
	c0,0-1.433-2.149,0.716-4.296c2.148-2.148,4.296,1.075,4.296,1.075l6.804,11.1l-4.535,2.983L34.153,16.275z"/>
<ellipse transform="matrix(-0.7305 -0.6829 0.6829 -0.7305 48.9618 26.5035)" fill="#FFFFFF" toFill="#B15D1D" stroke="#815C2D" stroke-width="0.25" stroke-miterlimit="10" cx="29.71" cy="3.591" rx="1.118" ry="2.372"/>
<circle fill="#FFFFFF" toFill="#FBE55E" stroke="#815C2D" stroke-width="0.25" stroke-miterlimit="10" cx="32.178" cy="26.35" r="10.381"/>
<circle fill="#FFFFFF" toFill="#D57EB3" stroke="#815C2D" stroke-width="0.25" stroke-miterlimit="10" cx="51.526" cy="30.417" r="10.381"/>
<line fill="FFFFFF" toFill="none" stroke="#815C2D" stroke-width="0.1598" stroke-linecap="round" stroke-linejoin="round" x1="57.839" y1="5.281" x2="45.139" y2="23.888"/>
<path fill="#FFFFFF" toFill="#FFD8E3" stroke="#815C2D" stroke-width="0.25" stroke-miterlimit="10" d="M42.926,9.114c0,0,4.474-7.34,14.678-3.222
	c0,0,7.877,3.759,5.013,13.426c0,0-3.76-2.686-5.013-0.537c0,0-2.685-3.76-5.908-3.043c0,0-3.758-4.833-5.549-3.581
	C46.147,12.157,46.327,9.114,42.926,9.114z"/>
<path fill="#FFFFFF" toFill="#6E9C6E" stroke="#815C2D" stroke-width="0.25" stroke-miterlimit="10" d="M42.982,13.173c0,0-0.834-4.058,0.122-4.654
	c0.954-0.598-3.342,0.597-2.865,3.938c0.477,3.342-2.864-2.387-4.058-3.222s0,4.534,0.716,5.49c0.716,0.955-3.58-0.119-4.176,0.836
	c-0.598,0.955,2.029,2.744,4.773,3.46L42.982,13.173z"/>
<path fill="#FFFFFF" toFill="#BC426B" stroke="#815C2D" stroke-width="0.25" stroke-miterlimit="10" d="M33.915,54.943c0,0,12.53-4.178,17.663-10.502
	c0,0-4.894,10.384-17.187,12.531C34.391,56.972,32.84,56.138,33.915,54.943z"/>
<path fill="#FFFFFF" toFill="#BC426B" stroke="#815C2D" stroke-width="0.25" stroke-miterlimit="10" d="M49.191,59.478c0,0-6.565,8.235-12.412,6.804
	C30.931,64.847,44.895,64.133,49.191,59.478z"/>
<path fill="#FFFFFF" toFill="#FF5F7B" stroke="#815C2D" stroke-width="0.25" stroke-miterlimit="10" d="M57.841,6.259c0,0,1.252,9.554,0,12.615
	c0,0,1.163-2.319,4.834,0.463C62.674,19.337,64.824,10.433,57.841,6.259z"/>
<path fill="#FFFFFF" toFill="#FF5F7B" stroke="#815C2D" stroke-width="0.25" stroke-miterlimit="10" d="M46.417,11.531c0,0,4.328,0.353,5.319,4.053
	c0,0,5.23-7.225,5.141-9.605C56.877,5.979,50.293,5.715,46.417,11.531z"/>
<path fill="#FFFFFF" toFill="#FBE55E" stroke="#815C2D" stroke-width="0.25" stroke-miterlimit="10" d="M30.192,36.309c0,0,0.238,1.91,1.193,3.699
	c0.956,1.791,1.195,3.104,0.836,3.938c-0.357,0.836-1.671,2.269-0.12,2.864c1.552,0.596,0.836-0.955,1.313-2.028
	c0.478-1.074-0.12-4.06,0.835-4.178c0.956-0.12,0.956,2.267,0.836,3.699c-0.12,1.432-1.553,4.894,0.596,5.012
	c2.15,0.12,0.957-2.743,0.838-3.58c-0.122-0.834-0.002-3.938,0.239-4.415c0.238-0.478,0.238-2.029,0.238-2.029
	s-5.371-6.088-6.207-4.416C29.953,36.547,30.192,36.309,30.192,36.309z"/>
<circle fill="#FFFFFF" toFill="#8FC740" stroke="#815C2D" stroke-width="0.25" stroke-miterlimit="10" cx="41.493" cy="33.998" r="10.381"/>
<path fill="#FFFFFF" toFill="#F46B7D" stroke="#815C2D" stroke-width="0.25" stroke-miterlimit="10" d="M40.06,13.412c0,0,9.131-4.119,9.131,7.519
	c0,11.637-13.726,2.149-12.533-3.222C36.658,17.708,37.136,14.126,40.06,13.412z"/>
<path fill="#FFFFFF" toFill="#FFFFFF" stroke="#815C2D" stroke-width="0.1598" stroke-linecap="round" stroke-linejoin="round" d="M27.897,18.22
	c0,0-7.104,3.908-4.618,11.013C23.279,29.233,22.806,23.075,27.897,18.22z"/>
<path fill="#FFFFFF" toFill="#FFFFFF" stroke="#815C2D" stroke-width="0.1598" stroke-linecap="round" stroke-linejoin="round" d="M32.668,29.625
	c0,0-3.544,7.294,2.59,11.658C35.26,41.282,31.317,36.53,32.668,29.625z"/>
<path fill="#FFFFFF" toFill="#FFFFFF" stroke="#815C2D" stroke-width="0.1598" stroke-linecap="round" stroke-linejoin="round" d="M32.161,44.685
	c0,0-1.007,1.421-0.237,1.895C31.924,46.58,31.687,45.396,32.161,44.685z"/>
<path fill="#FFFFFF" toFill="#FFFFFF" stroke="#815C2D" stroke-width="0.1598" stroke-linecap="round" stroke-linejoin="round" d="M34.884,46.877
	c0,0-0.354,1.658,0.474,2.014C35.357,48.891,34.943,48.417,34.884,46.877z"/>
<path fill="#FFFFFF" toFill="#FFFFFF" stroke="#815C2D" stroke-width="0.1598" stroke-linecap="round" stroke-linejoin="round" d="M36.897,18.219
	c0,0,0.394,3.552,4.816,6.473C41.714,24.692,38.24,21.85,36.897,18.219z"/>
<path fill="#FFFFFF" toFill="#B15D1D" stroke="#815C2D" stroke-width="0.25" stroke-miterlimit="10" d="M57.73,6.282
	c-0.174,0.193-0.505,0.182-0.74-0.027l0,0c-0.235-0.211-0.283-0.537-0.109-0.731l0.316-0.353c0.174-0.194,0.506-0.184,0.738,0.026
	l0,0c0.235,0.21,0.283,0.537,0.109,0.732L57.73,6.282z"/>
<path fill="#FFFFFF" toFill="#FFFFFF" stroke="#815C2D" stroke-width="0.1598" stroke-linecap="round" stroke-linejoin="round" d="M30.503,82.086
	c0,0,6.395-1.262,7.735-2.605C38.238,79.481,36.107,81.772,30.503,82.086z"/>
<path fill="#FFFFFF" toFill="#FFFFFF" stroke="#815C2D" stroke-width="0.1598" stroke-linecap="round" stroke-linejoin="round" d="M39.739,70.955
	l0.237,5.368C39.977,76.323,40.37,72.139,39.739,70.955z"/>
<path fill="#FFFFFF" toFill="#FFFFFF" stroke="#815C2D" stroke-width="0.1598" stroke-linecap="round" stroke-linejoin="round" d="M28.688,43.167
	c0,0,2.922,6.236,3.236,15.631C31.924,58.797,32.161,48.534,28.688,43.167z"/>
<path fill="#FFFFFF" toFill="#FFFFFF" stroke="#815C2D" stroke-width="0.1598" stroke-linecap="round" stroke-linejoin="round" d="M26.477,36.376
	c0,0-1.737,1.264-2.289,4.421C24.188,40.797,25.45,37.561,26.477,36.376z"/>
	
<g id="clickMark_1_v" class="none">
	<path fill="#FFFFFF" d="M83.978,42.521c0,22.892-18.561,41.454-41.459,41.454c-22.895,0-41.457-18.562-41.457-41.454 c0-22.899,18.562-41.457,41.457-41.457C65.417,1.064,83.978,19.623,83.978,42.521z" />
	<path fill="none" stroke="#000000" stroke-width="0.9447" d="M42.519,73.262c16.982,0,30.749-13.76,30.749-30.741 c0-16.98-13.767-30.74-30.749-30.74c-16.981,0-30.745,13.76-30.745,30.74C11.772,59.502,25.537,73.262,42.519,73.262z" />
	<path fill="#D7DF23" stroke="#000000" stroke-width="0.8879" d="M42.519,73.262c16.982,0,30.749-13.76,30.749-30.741 c0-16.98-13.767-30.74-30.749-30.74c-16.981,0-30.745,13.76-30.745,30.74C11.772,59.502,25.537,73.262,42.519,73.262" />
	<path fill="#009444" d="M61.976,26.239c0,0.923-0.524,1.787-1.572,2.587c-1.356,1.11-2.188,1.91-2.495,2.403L43.209,54.614 c-1.108,1.972-2.188,3.943-3.236,5.912c-1.724,2.527-3.481,3.789-5.268,3.789c-0.8,0-1.617-0.229-2.447-0.692 c-0.833-0.459-1.312-1.338-1.435-2.634c-0.246-1.786-0.493-2.926-0.739-3.418l-4.621-9.43c-0.185-0.369-1.017-1.416-2.496-3.143 c-0.864-1.109-1.202-2.277-1.015-3.511c0.185-1.54,0.891-2.895,2.126-4.066c1.229-1.17,2.555-1.755,3.972-1.755 c0.616,0,1.234,0.122,1.849,0.368c0.309,0.125,0.741,0.958,1.294,2.496c0.74,2.095,1.265,3.482,1.572,4.159l3.326,6.192 l13.405-21.719c0.678-1.293,1.354-2.618,2.035-3.975c0.983-1.355,2.187-2.033,3.604-2.033c1.537,0,3.064,0.555,4.574,1.666 C61.218,23.93,61.976,25.067,61.976,26.239z" />
</g>
</svg>
