<svg version="1.1" id="svg_2" xmlns="http://www.w3.org/2000/svg" xmlns:xlink="http://www.w3.org/1999/xlink" x="0px" y="0px"
	 width="85.04px" height="85.04px" viewBox="0 0 85.04 85.04" enable-background="new 0 0 85.04 85.04" xml:space="preserve">
<path fill="#B5E2F7" d="M11.146,39.029c0,1.358,30.25-17.258,60.888-0.775c0,0,2.717-31.024-30.056-31.024
	C9.208,7.229,11.146,36.122,11.146,39.029z"/>
<circle fill="none" stroke="#EE8C31" stroke-width="2.7147" stroke-miterlimit="10" cx="52.842" cy="32.244" r="8.81"/>
<path fill="#FC0001" stroke="#B71318" stroke-width="0.2909" stroke-miterlimit="10" d="M76.301,41.55c0,0,5.234-39.17-35.291-39.17
	C0.483,2.38,8.239,42.325,8.239,42.325c-5.43,7.369-3.684,23.462-3.684,23.462h75.818C81.342,46.981,76.301,41.55,76.301,41.55z
	 M72.034,38.254c-30.638-16.482-60.888,2.134-60.888,0.775c0-2.908-1.939-31.8,30.832-31.8C74.75,7.229,72.034,38.254,72.034,38.254
	z"/>
<circle fill="#FFFE30" stroke="#DAA936" stroke-width="0.3878" stroke-miterlimit="10" cx="15.801" cy="53.571" r="7.152"/>
<circle fill="#FFFE30" stroke="#DAA936" stroke-width="0.3878" stroke-miterlimit="10" cx="69.739" cy="53.571" r="7.15"/>
<path fill="#231F20" d="M20.648,77.163c0,3.035-2.461,5.496-5.496,5.496h-3.453c-3.035,0-5.496-2.461-5.496-5.496v-2.775
	c0-3.035,2.461-5.496,5.496-5.496h3.453c3.035,0,5.496,2.461,5.496,5.496V77.163z"/>
<path fill="#231F20" d="M80.02,77.163c0,3.035-2.461,5.496-5.496,5.496h-3.453c-3.037,0-5.498-2.461-5.498-5.496v-2.775
	c0-3.035,2.461-5.496,5.498-5.496h3.453c3.035,0,5.496,2.461,5.496,5.496V77.163z"/>
<path fill="#C8CFD7" stroke="#9DA3AA" stroke-width="0.7756" stroke-miterlimit="10" d="M80.444,63.075H42.711H42.33H4.596
	c-1.787,0.191-1.588,2.326-1.588,6.205s3.573,3.488,3.573,3.488H42.33h0.382h35.748c0,0,3.572,0.391,3.572-3.488
	S82.231,63.266,80.444,63.075z"/>
<path fill="#A2A5AC" stroke="#7F8288" stroke-width="0.3878" stroke-miterlimit="10" d="M28.407,41.019v11.972h1.553V40.65v12.34
	h1.553V40.258C30.505,40.48,29.467,40.732,28.407,41.019z"/>
<path fill="#A2A5AC" stroke="#7F8288" stroke-width="0.3878" stroke-miterlimit="10" d="M31.512,40.257v12.733h1.553V39.933v13.058
	h1.551V39.637C33.632,39.814,32.592,40.019,31.512,40.257z"/>
<path fill="#A2A5AC" stroke="#7F8288" stroke-width="0.3878" stroke-miterlimit="10" d="M25.303,41.947v11.043h1.553V41.46
	C26.34,41.613,25.821,41.777,25.303,41.947z"/>
<path fill="#A2A5AC" stroke="#7F8288" stroke-width="0.3878" stroke-miterlimit="10" d="M37.721,39.151v13.839h1.551V38.982v14.008
	h1.553V38.79C40.003,38.866,38.947,38.982,37.721,39.151z"/>
<path fill="#A2A5AC" stroke="#7F8288" stroke-width="0.3878" stroke-miterlimit="10" d="M34.615,39.638v13.353h1.554V39.44v13.55
	h1.553V39.151C36.777,39.279,35.734,39.44,34.615,39.638z"/>
<path fill="#A2A5AC" stroke="#7F8288" stroke-width="0.3878" stroke-miterlimit="10" d="M21.423,43.393v4.102l1.164,1.939V42.92
	C22.197,43.073,21.809,43.231,21.423,43.393z"/>
<path fill="#A2A5AC" stroke="#7F8288" stroke-width="0.3878" stroke-miterlimit="10" d="M19.485,44.264l1.938,3.23v-4.104
	C20.771,43.668,20.123,43.958,19.485,44.264z"/>
<path fill="#A2A5AC" stroke="#7F8288" stroke-width="0.3878" stroke-miterlimit="10" d="M23.751,42.483v8.892l0.97,1.615h0.582
	V41.947C24.785,42.116,24.268,42.296,23.751,42.483z"/>
<path fill="#A2A5AC" stroke="#7F8288" stroke-width="0.3878" stroke-miterlimit="10" d="M22.587,42.921v6.515l1.164,1.939v-8.892
	C23.362,42.625,22.975,42.771,22.587,42.921z"/>
<path fill="#A2A5AC" stroke="#7F8288" stroke-width="0.3878" stroke-miterlimit="10" d="M26.855,41.46v11.53h1.552V41.019
	C27.893,41.157,27.376,41.304,26.855,41.46z"/>
<path fill="#A2A5AC" stroke="#7F8288" stroke-width="0.3878" stroke-miterlimit="10" d="M56.346,40.918v12.072h1.553V41.454v11.537
	h1.553V41.938v11.052h0.963l0.59-0.984v-9.659C59.438,41.792,57.872,41.32,56.346,40.918z"/>
<path fill="#A2A5AC" stroke="#7F8288" stroke-width="0.3878" stroke-miterlimit="10" d="M62.168,42.773v7.295l1.164-1.941v-4.891
	C62.944,43.079,62.557,42.922,62.168,42.773z"/>
<path fill="#A2A5AC" stroke="#7F8288" stroke-width="0.3878" stroke-miterlimit="10" d="M61.004,42.346v9.66l1.164-1.938v-7.295
	C61.78,42.627,61.393,42.484,61.004,42.346z"/>
<path fill="#A2A5AC" stroke="#7F8288" stroke-width="0.3878" stroke-miterlimit="10" d="M63.333,43.237v4.891l2.316-3.861
	C64.887,43.899,64.112,43.557,63.333,43.237z"/>
<path fill="#A2A5AC" stroke="#7F8288" stroke-width="0.3878" stroke-miterlimit="10" d="M50.137,39.572v13.418h1.553V39.935v13.056
	h1.553V40.174C52.159,39.94,51.118,39.741,50.137,39.572z"/>
<path fill="#A2A5AC" stroke="#7F8288" stroke-width="0.3878" stroke-miterlimit="10" d="M43.928,38.754v14.236h1.555V38.982v14.008
	h1.551V39.124v13.867h1.555V39.44v13.55h1.551V39.572C47.497,39.116,45.301,38.876,43.928,38.754z"/>
<path fill="#A2A5AC" stroke="#7F8288" stroke-width="0.3878" stroke-miterlimit="10" d="M42.754,38.665v-0.022
	c0,0-0.068,0.004-0.188,0.01c-0.119-0.006-0.188-0.01-0.188-0.01v0.022h-0.002v14.326h0.002h0.375h1.175V38.754
	C43.418,38.709,43.018,38.68,42.754,38.665z"/>
<path fill="#A2A5AC" stroke="#7F8288" stroke-width="0.3878" stroke-miterlimit="10" d="M53.243,40.173v12.817h1.553V40.649v12.341
	h1.551V40.917C55.286,40.637,54.247,40.39,53.243,40.173z"/>
<path fill="#A2A5AC" stroke="#7F8288" stroke-width="0.3878" stroke-miterlimit="10" d="M40.824,38.79v14.201h1.554V38.665
	C42.053,38.685,41.519,38.724,40.824,38.79z"/>
</svg>
