<svg version="1.1" id="svg_2_0" xmlns="http://www.w3.org/2000/svg" xmlns:xlink="http://www.w3.org/1999/xlink" x="0px" y="0px"
	 width="85.04px" height="85.04px" viewBox="0 0 85.04 85.04" enable-background="new 0 0 85.04 85.04" xml:space="preserve">
<path fill="#FFFFFF" stroke="#815C2D" stroke-width="0.3397" stroke-linecap="round" stroke-linejoin="round" d="M12.432,38.685
	c0,1.358,30.25-17.258,60.889-0.775c0,0,2.715-31.024-30.057-31.024C10.493,6.885,12.432,35.777,12.432,38.685z"/>
<circle fill="#FFFFFF" stroke="#815C2D" stroke-width="0.3397" stroke-linecap="round" stroke-linejoin="round" cx="31.125" cy="31.9" r="8.81"/>
<path fill="#FFFFFF" stroke="#815C2D" stroke-width="0.3397" stroke-linecap="round" stroke-linejoin="round" d="M77.586,41.206
	c0,0,5.234-39.17-35.291-39.17c-40.527,0-32.771,39.945-32.771,39.945C4.094,49.35,5.84,65.444,5.84,65.444h75.816
	C82.627,46.636,77.586,41.206,77.586,41.206z M73.321,37.91c-30.639-16.482-60.889,2.134-60.889,0.775
	c0-2.908-1.939-31.8,30.832-31.8S73.321,37.91,73.321,37.91z"/>
<circle fill="#FFFFFF" stroke="#815C2D" stroke-width="0.3397" stroke-linecap="round" stroke-linejoin="round" cx="17.086" cy="53.227" r="7.152"/>
<circle fill="#FFFFFF" stroke="#815C2D" stroke-width="0.3397" stroke-linecap="round" stroke-linejoin="round" cx="71.026" cy="53.227" r="7.15"/>
<path fill="#FFFFFF" stroke="#815C2D" stroke-width="0.3397" stroke-linecap="round" stroke-linejoin="round" d="M21.934,76.819
	c0,3.035-2.461,5.496-5.496,5.496h-3.453c-3.035,0-5.496-2.461-5.496-5.496v-2.775c0-3.035,2.461-5.496,5.496-5.496h3.453
	c3.035,0,5.496,2.461,5.496,5.496V76.819z"/>
<path fill="#FFFFFF" stroke="#815C2D" stroke-width="0.3397" stroke-linecap="round" stroke-linejoin="round" d="M81.305,76.819
	c0,3.035-2.461,5.496-5.496,5.496h-3.453c-3.035,0-5.496-2.461-5.496-5.496v-2.775c0-3.035,2.461-5.496,5.496-5.496h3.453
	c3.035,0,5.496,2.461,5.496,5.496V76.819z"/>
<path fill="#FFFFFF" stroke="#815C2D" stroke-width="0.3397" stroke-linecap="round" stroke-linejoin="round" d="M81.729,62.731
	H43.997h-0.381H5.881c-1.787,0.191-1.588,2.326-1.588,6.205s3.574,3.488,3.574,3.488h35.748h0.381h35.748
	c0,0,3.572,0.391,3.572-3.488S83.516,62.922,81.729,62.731z"/>
<path fill="#FFFFFF" stroke="#815C2D" stroke-width="0.3397" stroke-linecap="round" stroke-linejoin="round" d="M29.694,40.674
	v11.973h1.551V40.306v12.341h1.553V39.914C31.79,40.136,30.752,40.388,29.694,40.674z"/>
<path fill="#FFFFFF" stroke="#815C2D" stroke-width="0.3397" stroke-linecap="round" stroke-linejoin="round" d="M32.797,39.913
	v12.733h1.553V39.589v13.057h1.551V39.293C34.917,39.47,33.877,39.674,32.797,39.913z"/>
<path fill="#FFFFFF" stroke="#815C2D" stroke-width="0.3397" stroke-linecap="round" stroke-linejoin="round" d="M26.588,41.603
	v11.044h1.553V41.116C27.625,41.269,27.108,41.433,26.588,41.603z"/>
<path fill="#FFFFFF" stroke="#815C2D" stroke-width="0.3397" stroke-linecap="round" stroke-linejoin="round" d="M39.006,38.807
	v13.84h1.551V38.638v14.009h1.553V38.445C41.288,38.522,40.233,38.638,39.006,38.807z"/>
<path fill="#FFFFFF" stroke="#815C2D" stroke-width="0.3397" stroke-linecap="round" stroke-linejoin="round" d="M35.901,39.294
	v13.353h1.553V39.096v13.551h1.553v-13.84C38.063,38.935,37.02,39.096,35.901,39.294z"/>
<path fill="#FFFFFF" stroke="#815C2D" stroke-width="0.3397" stroke-linecap="round" stroke-linejoin="round" d="M22.708,43.048
	v4.103l1.164,1.939v-6.514C23.483,42.729,23.094,42.886,22.708,43.048z"/>
<path fill="#FFFFFF" stroke="#815C2D" stroke-width="0.3397" stroke-linecap="round" stroke-linejoin="round" d="M20.772,43.92
	l1.938,3.229v-4.103C22.057,43.325,21.409,43.614,20.772,43.92z"/>
<path fill="#FFFFFF" stroke="#815C2D" stroke-width="0.3397" stroke-linecap="round" stroke-linejoin="round" d="M25.038,42.139
	v8.893l0.969,1.615h0.582V41.603C26.071,41.772,25.553,41.952,25.038,42.139z"/>
<path fill="#FFFFFF" stroke="#815C2D" stroke-width="0.3397" stroke-linecap="round" stroke-linejoin="round" d="M23.872,42.577
	v6.514l1.164,1.94v-8.893C24.649,42.28,24.26,42.426,23.872,42.577z"/>
<path fill="#FFFFFF" stroke="#815C2D" stroke-width="0.3397" stroke-linecap="round" stroke-linejoin="round" d="M28.141,41.116
	v11.531h1.553V40.674C29.178,40.813,28.663,40.96,28.141,41.116z"/>
<path fill="#FFFFFF" stroke="#815C2D" stroke-width="0.3397" stroke-linecap="round" stroke-linejoin="round" d="M57.631,40.574
	v12.073h1.553V41.109v11.538h1.553V41.594v11.053H61.7l0.59-0.984v-9.66C60.723,41.448,59.157,40.976,57.631,40.574z"/>
<path fill="#FFFFFF" stroke="#815C2D" stroke-width="0.3397" stroke-linecap="round" stroke-linejoin="round" d="M63.454,42.429
	v7.295l1.164-1.94v-4.892C64.231,42.734,63.842,42.578,63.454,42.429z"/>
<path fill="#FFFFFF" stroke="#815C2D" stroke-width="0.3397" stroke-linecap="round" stroke-linejoin="round" d="M62.288,42.002
	v9.661l1.164-1.938v-7.295C63.067,42.283,62.676,42.14,62.288,42.002z"/>
<path fill="#FFFFFF" stroke="#815C2D" stroke-width="0.3397" stroke-linecap="round" stroke-linejoin="round" d="M64.618,42.892
	v4.892l2.316-3.861C66.172,43.554,65.397,43.213,64.618,42.892z"/>
<path fill="#FFFFFF" stroke="#815C2D" stroke-width="0.3397" stroke-linecap="round" stroke-linejoin="round" d="M51.422,39.228
	v13.419h1.553V39.59v13.057h1.553V39.83C53.444,39.596,52.405,39.397,51.422,39.228z"/>
<path fill="#FFFFFF" stroke="#815C2D" stroke-width="0.3397" stroke-linecap="round" stroke-linejoin="round" d="M45.213,38.41
	v14.237h1.555V38.638v14.009h1.551V38.779v13.868h1.553V39.096v13.551h1.551V39.228C48.782,38.772,46.586,38.532,45.213,38.41z"/>
<path fill="#FFFFFF" stroke="#815C2D" stroke-width="0.3397" stroke-linecap="round" stroke-linejoin="round" d="M44.04,38.32
	v-0.022c0,0-0.068,0.004-0.188,0.01c-0.119-0.006-0.189-0.01-0.189-0.01v0.022h-0.002v14.327h0.002h0.375h1.174V38.41
	C44.704,38.365,44.303,38.336,44.04,38.32z"/>
<path fill="#FFFFFF" stroke="#815C2D" stroke-width="0.3397" stroke-linecap="round" stroke-linejoin="round" d="M54.528,39.829
	v12.817h1.553V40.305v12.341h1.551V40.573C56.571,40.293,55.532,40.046,54.528,39.829z"/>
<path fill="#FFFFFF" stroke="#815C2D" stroke-width="0.3397" stroke-linecap="round" stroke-linejoin="round" d="M42.11,38.445
	v14.202h1.553V38.32C43.338,38.34,42.805,38.38,42.11,38.445z"/>
	
	<g id="clickMark_2_0" class="none">
		<path fill="#FFFFFF" d="M83.975,42.521c0,22.892-18.561,41.454-41.458,41.454c-22.893,0-41.453-18.562-41.453-41.454 C1.065,19.623,19.625,1.064,42.519,1.064C65.415,1.064,83.975,19.623,83.975,42.521z" />
		<path fill="none" stroke="#000000" stroke-width="0.9447" d="M42.519,73.262c16.977,0,30.746-13.76,30.746-30.741 c0-16.98-13.769-30.74-30.746-30.74c-16.979,0-30.743,13.76-30.743,30.74C11.774,59.502,25.54,73.262,42.519,73.262z" />
		<path fill="#D7DF23" d="M42.519,73.262c16.977,0,30.746-13.76,30.746-30.741c0-16.98-13.769-30.74-30.746-30.74 c-16.979,0-30.743,13.76-30.743,30.74C11.774,59.502,25.54,73.262,42.519,73.262" />
		<path fill="none" stroke="#000000" stroke-width="0.8879" d="M42.519,73.262c16.977,0,30.746-13.76,30.746-30.741 c0-16.98-13.769-30.74-30.746-30.74c-16.979,0-30.743,13.76-30.743,30.74C11.774,59.502,25.54,73.262,42.519,73.262" />
		<path fill="#ED1C24" d="M58.706,24.476c0.098,0.837-0.395,1.623-1.477,2.36c-1.377,0.983-2.213,1.721-2.508,2.211l-8.408,14.606 l7.08,13.721c0.1,0.148,0.615,0.91,1.549,2.287c0.591,0.838,0.886,1.6,0.886,2.287c0,0.395-0.071,0.789-0.222,1.182 c-0.836,2.113-2.387,3.172-4.646,3.172c-0.937,0-1.846-0.197-2.731-0.592c-1.229-0.541-1.904-1.242-2.027-2.102 c-0.122-0.861-0.232-1.707-0.332-2.545l-3.982-9.888l-4.424,8.854c-0.295,0.982-0.64,1.953-1.033,2.914 c-0.395,0.959-1.157,1.437-2.287,1.437c-1.428,0-2.804-0.491-4.131-1.476c-1.426-1.131-2.041-2.383-1.844-3.762 c0.097-0.541,0.429-1.115,0.995-1.733c0.565-0.615,0.922-1.068,1.071-1.363l6.492-11.806l-4.577-14.306 c-0.147-0.493-0.626-1.096-1.438-1.808s-1.268-1.387-1.364-2.028c-0.148-1.13,0.539-2.139,2.065-3.024 c1.376-0.737,2.851-1.107,4.427-1.107c0.886,0,1.573,0.148,2.066,0.441c1.081,0.692,1.743,1.563,1.989,2.62 c0.245,1.059,0.468,2.104,0.664,3.135l2.212,6.934l4.869-8.706c0.442-0.934,0.924-1.891,1.438-2.876 c0.519-0.985,1.216-1.646,2.103-1.991c0.539-0.247,1.154-0.37,1.844-0.37c1.279,0,2.521,0.356,3.726,1.071 C57.954,22.938,58.606,23.689,58.706,24.476z" />
	</g>
</svg>
