<svg version="1.1" id="svg_2_2" xmlns="http://www.w3.org/2000/svg" xmlns:xlink="http://www.w3.org/1999/xlink" x="0px" y="0px"
	 width="85.04px" height="85.04px" viewBox="0 0 85.04 85.04" enable-background="new 0 0 85.04 85.04" xml:space="preserve">
<path fill="#FFFFFF" stroke="#815C2D" stroke-width="0.3397" stroke-linecap="round" stroke-linejoin="round" d="M11.147,39.029
	c0,1.358,30.25-17.258,60.889-0.775c0,0,2.715-31.024-30.057-31.024C9.208,7.229,11.147,36.122,11.147,39.029z"/>
<circle fill="#FFFFFF" stroke="#815C2D" stroke-width="0.3397" stroke-linecap="round" stroke-linejoin="round" cx="29.84" cy="32.244" r="8.81"/>
<path fill="#FFFFFF" stroke="#815C2D" stroke-width="0.3397" stroke-linecap="round" stroke-linejoin="round" d="M76.301,41.55
	c0,0,5.234-39.17-35.291-39.17C0.483,2.38,8.239,42.325,8.239,42.325c-5.43,7.369-3.684,23.462-3.684,23.462h75.816
	C81.342,46.981,76.301,41.55,76.301,41.55z M72.036,38.254c-30.639-16.482-60.889,2.134-60.889,0.775
	c0-2.908-1.939-31.8,30.832-31.8S72.036,38.254,72.036,38.254z"/>
<circle fill="#FFFFFF" stroke="#815C2D" stroke-width="0.3397" stroke-linecap="round" stroke-linejoin="round" cx="15.801" cy="53.571" r="7.152"/>
<circle fill="#FFFFFF" stroke="#815C2D" stroke-width="0.3397" stroke-linecap="round" stroke-linejoin="round" cx="69.741" cy="53.571" r="7.15"/>
<path fill="#FFFFFF" stroke="#815C2D" stroke-width="0.3397" stroke-linecap="round" stroke-linejoin="round" d="M20.649,77.163
	c0,3.035-2.461,5.496-5.496,5.496H11.7c-3.035,0-5.496-2.461-5.496-5.496v-2.775c0-3.035,2.461-5.496,5.496-5.496h3.453
	c3.035,0,5.496,2.461,5.496,5.496V77.163z"/>
<path fill="#FFFFFF" stroke="#815C2D" stroke-width="0.3397" stroke-linecap="round" stroke-linejoin="round" d="M80.02,77.163
	c0,3.035-2.461,5.496-5.496,5.496h-3.453c-3.035,0-5.496-2.461-5.496-5.496v-2.775c0-3.035,2.461-5.496,5.496-5.496h3.453
	c3.035,0,5.496,2.461,5.496,5.496V77.163z"/>
<path fill="#FFFFFF" stroke="#815C2D" stroke-width="0.3397" stroke-linecap="round" stroke-linejoin="round" d="M80.444,63.075
	H42.711h-0.381H4.596c-1.787,0.191-1.588,2.326-1.588,6.205s3.574,3.488,3.574,3.488h35.748h0.381h35.748
	c0,0,3.572,0.391,3.572-3.488S82.231,63.266,80.444,63.075z"/>
<path fill="#FFFFFF" stroke="#815C2D" stroke-width="0.3397" stroke-linecap="round" stroke-linejoin="round" d="M28.409,41.019
	v11.972h1.551V40.65v12.34h1.553V40.258C30.504,40.48,29.467,40.732,28.409,41.019z"/>
<path fill="#FFFFFF" stroke="#815C2D" stroke-width="0.3397" stroke-linecap="round" stroke-linejoin="round" d="M31.512,40.257
	v12.733h1.553V39.933v13.058h1.551V39.637C33.631,39.814,32.592,40.019,31.512,40.257z"/>
<path fill="#FFFFFF" stroke="#815C2D" stroke-width="0.3397" stroke-linecap="round" stroke-linejoin="round" d="M25.303,41.947
	v11.043h1.553V41.46C26.34,41.613,25.823,41.777,25.303,41.947z"/>
<path fill="#FFFFFF" stroke="#815C2D" stroke-width="0.3397" stroke-linecap="round" stroke-linejoin="round" d="M37.721,39.151
	v13.839h1.551V38.982v14.008h1.553V38.79C40.002,38.866,38.948,38.982,37.721,39.151z"/>
<path fill="#FFFFFF" stroke="#815C2D" stroke-width="0.3397" stroke-linecap="round" stroke-linejoin="round" d="M34.616,39.638
	v13.353h1.553V39.44v13.55h1.553V39.151C36.778,39.279,35.735,39.44,34.616,39.638z"/>
<path fill="#FFFFFF" stroke="#815C2D" stroke-width="0.3397" stroke-linecap="round" stroke-linejoin="round" d="M21.422,43.393
	v4.102l1.164,1.939V42.92C22.198,43.073,21.809,43.231,21.422,43.393z"/>
<path fill="#FFFFFF" stroke="#815C2D" stroke-width="0.3397" stroke-linecap="round" stroke-linejoin="round" d="M19.487,44.264
	l1.938,3.23v-4.104C20.772,43.668,20.124,43.958,19.487,44.264z"/>
<path fill="#FFFFFF" stroke="#815C2D" stroke-width="0.3397" stroke-linecap="round" stroke-linejoin="round" d="M23.752,42.483
	v8.892l0.969,1.615h0.582V41.947C24.786,42.116,24.268,42.296,23.752,42.483z"/>
<path fill="#FFFFFF" stroke="#815C2D" stroke-width="0.3397" stroke-linecap="round" stroke-linejoin="round" d="M22.586,42.921
	v6.515l1.164,1.939v-8.892C23.364,42.625,22.975,42.771,22.586,42.921z"/>
<path fill="#FFFFFF" stroke="#815C2D" stroke-width="0.3397" stroke-linecap="round" stroke-linejoin="round" d="M26.856,41.46
	v11.53h1.553V41.019C27.893,41.157,27.377,41.304,26.856,41.46z"/>
<path fill="#FFFFFF" stroke="#815C2D" stroke-width="0.3397" stroke-linecap="round" stroke-linejoin="round" d="M56.346,40.918
	v12.072h1.553V41.454v11.537h1.553V41.938v11.052h0.963l0.59-0.984v-9.659C59.438,41.792,57.872,41.32,56.346,40.918z"/>
<path fill="#FFFFFF" stroke="#815C2D" stroke-width="0.3397" stroke-linecap="round" stroke-linejoin="round" d="M62.168,42.773
	v7.295l1.164-1.941v-4.891C62.946,43.079,62.557,42.922,62.168,42.773z"/>
<path fill="#FFFFFF" stroke="#815C2D" stroke-width="0.3397" stroke-linecap="round" stroke-linejoin="round" d="M61.002,42.346
	v9.66l1.164-1.938v-7.295C61.782,42.627,61.391,42.484,61.002,42.346z"/>
<path fill="#FFFFFF" stroke="#815C2D" stroke-width="0.3397" stroke-linecap="round" stroke-linejoin="round" d="M63.333,43.237
	v4.891l2.316-3.861C64.887,43.899,64.112,43.557,63.333,43.237z"/>
<path fill="#FFFFFF" stroke="#815C2D" stroke-width="0.3397" stroke-linecap="round" stroke-linejoin="round" d="M50.137,39.572
	v13.418h1.553V39.935v13.056h1.553V40.174C52.159,39.94,51.12,39.741,50.137,39.572z"/>
<path fill="#FFFFFF" stroke="#815C2D" stroke-width="0.3397" stroke-linecap="round" stroke-linejoin="round" d="M43.928,38.754
	v14.236h1.555V38.982v14.008h1.551V39.124v13.867h1.553V39.44v13.55h1.551V39.572C47.497,39.116,45.301,38.876,43.928,38.754z"/>
<path fill="#FFFFFF" stroke="#815C2D" stroke-width="0.3397" stroke-linecap="round" stroke-linejoin="round" d="M42.754,38.665
	v-0.022c0,0-0.068,0.004-0.188,0.01c-0.119-0.006-0.189-0.01-0.189-0.01v0.022h-0.002v14.326h0.002h0.375h1.174V38.754
	C43.418,38.709,43.018,38.68,42.754,38.665z"/>
<path fill="#FFFFFF" stroke="#815C2D" stroke-width="0.3397" stroke-linecap="round" stroke-linejoin="round" d="M53.243,40.173
	v12.817h1.553V40.649v12.341h1.551V40.917C55.286,40.637,54.247,40.39,53.243,40.173z"/>
<path fill="#FFFFFF" stroke="#815C2D" stroke-width="0.3397" stroke-linecap="round" stroke-linejoin="round" d="M40.825,38.79
	v14.201h1.553V38.665C42.053,38.685,41.52,38.724,40.825,38.79z"/>
	
	<g id="clickMark_2_2" class="none">
		<path fill="#FFFFFF" d="M83.975,42.521c0,22.892-18.561,41.454-41.458,41.454c-22.893,0-41.453-18.562-41.453-41.454 C1.065,19.623,19.625,1.064,42.519,1.064C65.415,1.064,83.975,19.623,83.975,42.521z" />
		<path fill="none" stroke="#000000" stroke-width="0.9447" d="M42.519,73.262c16.977,0,30.746-13.76,30.746-30.741 c0-16.98-13.769-30.74-30.746-30.74c-16.979,0-30.743,13.76-30.743,30.74C11.774,59.502,25.54,73.262,42.519,73.262z" />
		<path fill="#D7DF23" d="M42.519,73.262c16.977,0,30.746-13.76,30.746-30.741c0-16.98-13.769-30.74-30.746-30.74 c-16.979,0-30.743,13.76-30.743,30.74C11.774,59.502,25.54,73.262,42.519,73.262" />
		<path fill="none" stroke="#000000" stroke-width="0.8879" d="M42.519,73.262c16.977,0,30.746-13.76,30.746-30.741 c0-16.98-13.769-30.74-30.746-30.74c-16.979,0-30.743,13.76-30.743,30.74C11.774,59.502,25.54,73.262,42.519,73.262" />
		<path fill="#ED1C24" d="M58.706,24.476c0.098,0.837-0.395,1.623-1.477,2.36c-1.377,0.983-2.213,1.721-2.508,2.211l-8.408,14.606 l7.08,13.721c0.1,0.148,0.615,0.91,1.549,2.287c0.591,0.838,0.886,1.6,0.886,2.287c0,0.395-0.071,0.789-0.222,1.182 c-0.836,2.113-2.387,3.172-4.646,3.172c-0.937,0-1.846-0.197-2.731-0.592c-1.229-0.541-1.904-1.242-2.027-2.102 c-0.122-0.861-0.232-1.707-0.332-2.545l-3.982-9.888l-4.424,8.854c-0.295,0.982-0.64,1.953-1.033,2.914 c-0.395,0.959-1.157,1.437-2.287,1.437c-1.428,0-2.804-0.491-4.131-1.476c-1.426-1.131-2.041-2.383-1.844-3.762 c0.097-0.541,0.429-1.115,0.995-1.733c0.565-0.615,0.922-1.068,1.071-1.363l6.492-11.806l-4.577-14.306 c-0.147-0.493-0.626-1.096-1.438-1.808s-1.268-1.387-1.364-2.028c-0.148-1.13,0.539-2.139,2.065-3.024 c1.376-0.737,2.851-1.107,4.427-1.107c0.886,0,1.573,0.148,2.066,0.441c1.081,0.692,1.743,1.563,1.989,2.62 c0.245,1.059,0.468,2.104,0.664,3.135l2.212,6.934l4.869-8.706c0.442-0.934,0.924-1.891,1.438-2.876 c0.519-0.985,1.216-1.646,2.103-1.991c0.539-0.247,1.154-0.37,1.844-0.37c1.279,0,2.521,0.356,3.726,1.071 C57.954,22.938,58.606,23.689,58.706,24.476z" />
	</g>
</svg>
