<svg version="1.1" id="svg_2_v" valid="1" xmlns="http://www.w3.org/2000/svg" xmlns:xlink="http://www.w3.org/1999/xlink" x="0px" y="0px"
	 width="85.04px" height="85.04px" viewBox="0 0 85.04 85.04" enable-background="new 0 0 85.04 85.04" xml:space="preserve">
<path fill="#FFFFFF" toFill="#B5E2F7" valid="1" stroke="#815C2D" stroke-width="0.25" stroke-miterlimit="10" d="M11.147,39.029
	c0,1.358,30.25-17.258,60.889-0.775c0,0,2.715-31.024-30.057-31.024C9.208,7.229,11.147,36.122,11.147,39.029z"/>
<circle fill="#FFFFFF" toFill="#FFFFFF" stroke="#815C2D" stroke-width="0.3397" stroke-linecap="round" stroke-linejoin="round" cx="52.84" cy="32.244" r="8.81"/>
<path fill="#FFFFFF" toFill="#FC0001" stroke="#815C2D" stroke-width="0.25" stroke-miterlimit="10" d="M76.301,41.55c0,0,5.234-39.17-35.291-39.17
	C0.483,2.38,8.239,42.325,8.239,42.325C2.809,49.694,4.555,65.79,4.555,65.79h75.816C81.342,46.981,76.301,41.55,76.301,41.55z
	 M72.036,38.254c-30.639-16.482-60.889,2.134-60.889,0.775c0-2.908-1.939-31.8,30.832-31.8S72.036,38.254,72.036,38.254z"/>
<circle fill="#FFFFFF" toFill="#FFFE30" stroke="#815C2D" stroke-width="0.3878" stroke-miterlimit="10" cx="15.801" cy="53.572" r="7.151"/>
<circle fill="#FFFFFF" toFill="#FFFE30" stroke="#815C2D" stroke-width="0.3878" stroke-miterlimit="10" cx="69.741" cy="53.572" r="7.151"/>
<path fill="#FFFFFF" toFill="#231F20" stroke="#815C2D" stroke-width="0.25" stroke-miterlimit="10" d="M20.649,77.165
	c0,3.033-2.461,5.494-5.496,5.494H11.7c-3.035,0-5.496-2.461-5.496-5.494v-2.775c0-3.037,2.461-5.496,5.496-5.496h3.453
	c3.035,0,5.496,2.459,5.496,5.496V77.165z"/>
<path fill="#FFFFFF" toFill="#231F20" stroke="#815C2D" stroke-width="0.25" stroke-miterlimit="10" d="M80.02,77.165
	c0,3.033-2.461,5.494-5.496,5.494h-3.453c-3.035,0-5.496-2.461-5.496-5.494v-2.775c0-3.037,2.461-5.496,5.496-5.496h3.453
	c3.035,0,5.496,2.459,5.496,5.496V77.165z"/>
<path fill="#FFFFFF" toFill="#C8CFD7" stroke="#815C2D" stroke-width="0.25" stroke-miterlimit="10" d="M80.444,63.075H42.711h-0.381H4.596
	c-1.787,0.193-1.588,2.326-1.588,6.205s3.574,3.49,3.574,3.49h35.748h0.381h35.748c0,0,3.572,0.389,3.572-3.49
	S82.231,63.268,80.444,63.075z"/>
<path fill="#FFFFFF" toFill="#FFFFFF" stroke="#815C2D" stroke-width="0.3397" stroke-linecap="round" stroke-linejoin="round" d="M28.409,41.019
	v11.972h1.551V40.65v12.34h1.553V40.258C30.504,40.48,29.467,40.732,28.409,41.019z"/>
<path fill="#FFFFFF" toFill="#FFFFFF" stroke="#815C2D" stroke-width="0.3397" stroke-linecap="round" stroke-linejoin="round" d="M31.512,40.257
	v12.733h1.553V39.933v13.058h1.551V39.637C33.631,39.814,32.592,40.019,31.512,40.257z"/>
<path fill="#FFFFFF" toFill="#FFFFFF" stroke="#815C2D" stroke-width="0.3397" stroke-linecap="round" stroke-linejoin="round" d="M25.303,41.947
	v11.043h1.553V41.46C26.34,41.613,25.823,41.777,25.303,41.947z"/>
<path fill="#FFFFFF" toFill="#FFFFFF" stroke="#815C2D" stroke-width="0.3397" stroke-linecap="round" stroke-linejoin="round" d="M37.721,39.151
	v13.839h1.551V38.982v14.008h1.553V38.79C40.002,38.866,38.948,38.982,37.721,39.151z"/>
<path fill="#FFFFFF" toFill="#FFFFFF" stroke="#815C2D" stroke-width="0.3397" stroke-linecap="round" stroke-linejoin="round" d="M34.616,39.638
	v13.353h1.553V39.44v13.55h1.553V39.151C36.778,39.279,35.735,39.44,34.616,39.638z"/>
<path fill="#FFFFFF" toFill="#FFFFFF" stroke="#815C2D" stroke-width="0.3397" stroke-linecap="round" stroke-linejoin="round" d="M21.422,43.393
	v4.104l1.164,1.938V42.92C22.198,43.073,21.809,43.231,21.422,43.393z"/>
<path fill="#FFFFFF" toFill="#FFFFFF" stroke="#815C2D" stroke-width="0.3397" stroke-linecap="round" stroke-linejoin="round" d="M19.487,44.266
	l1.938,3.229v-4.104C20.772,43.67,20.124,43.958,19.487,44.266z"/>
<path fill="#FFFFFF" toFill="#FFFFFF" stroke="#815C2D" stroke-width="0.3397" stroke-linecap="round" stroke-linejoin="round" d="M23.752,42.483
	v8.892l0.969,1.615h0.582V41.947C24.786,42.116,24.268,42.296,23.752,42.483z"/>
<path fill="#FFFFFF" toFill="#FFFFFF" stroke="#815C2D" stroke-width="0.3397" stroke-linecap="round" stroke-linejoin="round" d="M22.586,42.922
	v6.514l1.164,1.939v-8.892C23.364,42.625,22.975,42.771,22.586,42.922z"/>
<path fill="#FFFFFF" toFill="#FFFFFF" stroke="#815C2D" stroke-width="0.3397" stroke-linecap="round" stroke-linejoin="round" d="M26.856,41.46
	v11.53h1.553V41.019C27.893,41.157,27.377,41.304,26.856,41.46z"/>
<path fill="#FFFFFF" toFill="#FFFFFF" stroke="#815C2D" stroke-width="0.3397" stroke-linecap="round" stroke-linejoin="round" d="M56.346,40.918
	v12.072h1.553V41.454v11.537h1.553V41.938v11.052h0.963l0.59-0.982v-9.661C59.438,41.792,57.872,41.32,56.346,40.918z"/>
<path fill="#FFFFFF" toFill="#FFFFFF" stroke="#815C2D" stroke-width="0.3397" stroke-linecap="round" stroke-linejoin="round" d="M62.168,42.773
	v7.295l1.164-1.939v-4.893C62.946,43.079,62.557,42.922,62.168,42.773z"/>
<path fill="#FFFFFF" toFill="#FFFFFF" stroke="#815C2D" stroke-width="0.3397" stroke-linecap="round" stroke-linejoin="round" d="M61.002,42.346
	v9.66l1.164-1.938v-7.295C61.782,42.627,61.391,42.484,61.002,42.346z"/>
<path fill="#FFFFFF" toFill="#FFFFFF" stroke="#815C2D" stroke-width="0.3397" stroke-linecap="round" stroke-linejoin="round" d="M63.333,43.237
	v4.893l2.316-3.863C64.887,43.899,64.112,43.557,63.333,43.237z"/>
<path fill="#FFFFFF" toFill="#FFFFFF" stroke="#815C2D" stroke-width="0.3397" stroke-linecap="round" stroke-linejoin="round" d="M50.137,39.572
	v13.418h1.553V39.935v13.056h1.553V40.174C52.159,39.94,51.12,39.741,50.137,39.572z"/>
<path fill="#FFFFFF" toFill="#FFFFFF" stroke="#815C2D" stroke-width="0.3397" stroke-linecap="round" stroke-linejoin="round" d="M43.928,38.754
	v14.236h1.555V38.982v14.008h1.551V39.124v13.867h1.553V39.44v13.55h1.551V39.572C47.497,39.116,45.301,38.876,43.928,38.754z"/>
<path fill="#FFFFFF" toFill="#FFFFFF" stroke="#815C2D" stroke-width="0.3397" stroke-linecap="round" stroke-linejoin="round" d="M42.754,38.665
	v-0.022c0,0-0.068,0.004-0.188,0.01c-0.119-0.006-0.189-0.01-0.189-0.01v0.022h-0.002v14.326h0.002h0.375h1.174V38.754
	C43.418,38.709,43.018,38.68,42.754,38.665z"/>
<path fill="#FFFFFF" toFill="#FFFFFF" stroke="#815C2D" stroke-width="0.3397" stroke-linecap="round" stroke-linejoin="round" d="M53.243,40.173
	v12.817h1.553V40.649v12.341h1.551V40.917C55.286,40.637,54.247,40.39,53.243,40.173z"/>
<path fill="#FFFFFF" toFill="#FFFFFF" stroke="#815C2D" stroke-width="0.3397" stroke-linecap="round" stroke-linejoin="round" d="M40.825,38.79
	v14.201h1.553V38.665C42.053,38.685,41.52,38.724,40.825,38.79z"/>
	
<g id="clickMark_2_v" class="none">
	<path fill="#FFFFFF" d="M83.978,42.521c0,22.892-18.561,41.454-41.459,41.454c-22.895,0-41.457-18.562-41.457-41.454 c0-22.899,18.562-41.457,41.457-41.457C65.417,1.064,83.978,19.623,83.978,42.521z" />
	<path fill="none" stroke="#000000" stroke-width="0.9447" d="M42.519,73.262c16.982,0,30.749-13.76,30.749-30.741 c0-16.98-13.767-30.74-30.749-30.74c-16.981,0-30.745,13.76-30.745,30.74C11.772,59.502,25.537,73.262,42.519,73.262z" />
	<path fill="#D7DF23" stroke="#000000" stroke-width="0.8879" d="M42.519,73.262c16.982,0,30.749-13.76,30.749-30.741 c0-16.98-13.767-30.74-30.749-30.74c-16.981,0-30.745,13.76-30.745,30.74C11.772,59.502,25.537,73.262,42.519,73.262" />
	<path fill="#009444" d="M61.976,26.239c0,0.923-0.524,1.787-1.572,2.587c-1.356,1.11-2.188,1.91-2.495,2.403L43.209,54.614 c-1.108,1.972-2.188,3.943-3.236,5.912c-1.724,2.527-3.481,3.789-5.268,3.789c-0.8,0-1.617-0.229-2.447-0.692 c-0.833-0.459-1.312-1.338-1.435-2.634c-0.246-1.786-0.493-2.926-0.739-3.418l-4.621-9.43c-0.185-0.369-1.017-1.416-2.496-3.143 c-0.864-1.109-1.202-2.277-1.015-3.511c0.185-1.54,0.891-2.895,2.126-4.066c1.229-1.17,2.555-1.755,3.972-1.755 c0.616,0,1.234,0.122,1.849,0.368c0.309,0.125,0.741,0.958,1.294,2.496c0.74,2.095,1.265,3.482,1.572,4.159l3.326,6.192 l13.405-21.719c0.678-1.293,1.354-2.618,2.035-3.975c0.983-1.355,2.187-2.033,3.604-2.033c1.537,0,3.064,0.555,4.574,1.666 C61.218,23.93,61.976,25.067,61.976,26.239z" />
</g>
</svg>
