<svg version="1.1" id="rowOk" xmlns="http://www.w3.org/2000/svg" xmlns:xlink="http://www.w3.org/1999/xlink" x="0px" y="0px"
	 width="120px" height="94px" viewBox="0 0 120 94" enable-background="new 0 0 120 94" xml:space="preserve">
<path opacity="0.5" fill="#B7BABF" enable-background="new    " d="M85.889,40.591c0,0,35.832-6.275,32.946,23.602
	c-2.886,29.875-19.72,39.436-45.692,14.639c0,0-11.703-11.851-8.017-24C68.814,42.682,85.889,40.591,85.889,40.591z"/>
<path fill="#B7BABF" stroke="#A2A3A6" stroke-miterlimit="10" d="M86.148,41.753c0,0,34.226-5.993,31.47,22.544
	c-2.756,28.535-18.835,37.668-43.644,13.982c0,0-11.179-11.318-7.656-22.923C69.841,43.751,86.148,41.753,86.148,41.753z"/>
<path fill="#284697" d="M86.524,43.428c0,0,31.911-5.587,29.341,21.019c-2.569,26.605-17.561,35.12-40.69,13.037
	c0,0-10.424-10.553-7.14-21.374C71.318,45.291,86.524,43.428,86.524,43.428z"/>
<path fill="#35509F" d="M86.99,45.501c0,0,29.048-5.086,26.707,19.132c-2.338,24.219-15.985,31.968-37.041,11.868
	c0,0-9.486-9.606-6.498-19.456C73.148,47.197,86.99,45.501,86.99,45.501z"/>
<path fill="#FFFFFF" d="M81.773,71.542c1.706,2.544,3.084,5.346,4.297,8.289c0.757,1.838,3.178,1.852,3.933,0
	c3.399-8.36,7.475-16.217,11.786-23.891c1.686-2.999-2.265-5.822-3.933-2.854c-4.312,7.672-8.388,15.528-11.787,23.891
	c1.312,0,2.622,0,3.933,0c-1.394-3.387-3.048-6.516-5.009-9.436C83.11,64.736,79.907,68.761,81.773,71.542L81.773,71.542z"/>
</svg>
