<?xml version="1.0" encoding="utf-8"?>
<!-- Generator: Adobe Illustrator 16.0.0, SVG Export Plug-In . SVG Version: 6.00 Build 0)  -->
<!DOCTYPE svg PUBLIC "-//W3C//DTD SVG 1.1//EN" "http://www.w3.org/Graphics/SVG/1.1/DTD/svg11.dtd">
<svg version="1.1" id="rowError" xmlns="http://www.w3.org/2000/svg" xmlns:xlink="http://www.w3.org/1999/xlink" x="0px" y="0px"
	 width="119.881px" height="93.609px" viewBox="0 0 119.881 93.609" enable-background="new 0 0 119.881 93.609"
	 xml:space="preserve">
<path opacity="0.5" fill="#B7BABE" enable-background="new    " d="M37.929,39.557c0,0,38.549-42.472,50.311,5.879
	c0,0,7.515,17.972-38.223,25.813c0,0-9.475,1.225-16.335-8.331C26.821,53.363,36.051,41.926,37.929,39.557z"/>
<path fill="#B7BABE" stroke="#A1A2A5" stroke-width="0.8842" stroke-miterlimit="10" d="M38.764,39.773
	c0,0,36.821-40.566,48.055,5.617c0,0,7.177,17.167-36.51,24.655c0,0-9.049,1.17-15.602-7.956
	C28.153,52.96,36.969,42.035,38.764,39.773z"/>
<path fill="#E34633" d="M40.184,40.063c0,0,34.332-37.824,44.807,5.238c0,0,6.693,16.005-34.041,22.986
	c0,0-8.437,1.092-14.548-7.418C30.292,52.36,38.512,42.173,40.184,40.063z"/>
<path fill="#E35B33" d="M41.92,40.703c0,0,31.292-34.475,40.839,4.774c0,0,6.1,14.588-31.027,20.955c0,0-7.692,0.993-13.26-6.764
	C32.903,51.91,40.394,42.626,41.92,40.703z"/>
<path fill="#FFFFFF" d="M70.574,40.071c0.69-0.624,1.207-1.184,1.646-2.009c1.317-2.484-1.647-4.429-3.677-2.837
	c-6.545,5.141-10.085,13.026-16.374,18.424c1.225,0.946,2.451,1.892,3.677,2.837c0.216-0.188,0.436-0.37,0.657-0.551
	c2.333-1.919-0.999-5.211-3.309-3.309c-0.556,0.458-0.962,0.916-1.39,1.496c-1.674,2.268,1.788,4.457,3.676,2.837
	c6.289-5.397,9.83-13.287,16.374-18.424c-1.225-0.946-2.451-1.891-3.677-2.836c-0.22,0.427-0.523,0.781-0.913,1.062
	C65.022,38.791,68.343,42.093,70.574,40.071L70.574,40.071z"/>
<path fill="#FFFFFF" d="M50.891,39.303c2.126,2.541,4.492,4.637,7,6.793c3.995,3.438,7.815,7.043,11.165,11.119
	c0.945-1.225,1.891-2.449,2.836-3.676c-0.341-0.255-0.683-0.511-1.023-0.768c-2.418-1.812-4.747,2.253-2.363,4.042
	c0.342,0.257,0.683,0.513,1.024,0.769c2.283,1.712,4.391-1.783,2.837-3.676c-3.177-3.867-6.777-7.297-10.542-10.583
	c-2.7-2.354-5.317-4.577-7.623-7.332C52.261,33.676,48.968,37.006,50.891,39.303L50.891,39.303z"/>
</svg>
