<svg version="1.1" id="Capa_1" xmlns="http://www.w3.org/2000/svg" xmlns:xlink="http://www.w3.org/1999/xlink" x="0px" y="0px" width="120px" height="120px" viewBox="0 0 120 120" enable-background="new 0 0 120 120" xml:space="preserve">
<rect fill="#010101" width="119.999" height="120"/>
<path fill="#ED2224" d="M103.898,96.055h-9.285V82.443v-5.457c-1.631,2.623-5.528,6.662-13.396,6.662
	c-11.41,0-19.208-9.071-19.208-20.06c0-12.759,8.576-21.265,19.775-21.265c7.725,0,11.625,4.182,13.183,6.804v-5.6h8.932V96.055
	L103.898,96.055z M71.294,63.236c0,5.67,4.396,11.695,11.907,11.695c3.262,0,6.236-1.349,8.365-3.476
	c2.125-2.125,3.398-5.104,3.398-8.363c0.145-3.332-1.134-6.379-3.259-8.577c-2.199-2.197-5.315-3.544-8.578-3.544
	c-7.728,0-11.836,6.166-11.836,12.191L71.294,63.236L71.294,63.236z"/>
<path fill="#F6EB16" d="M82.354,66.432h-9.285v-5.601c-2.48,4.538-7.655,6.805-13.112,6.805c-12.475,0-19.776-9.71-19.776-20.697
	c0-12.263,8.86-20.627,19.776-20.627c7.088,0,11.412,3.757,13.112,6.875v-5.67h9.285V66.432z M49.464,47.15
	c0,4.82,3.474,11.837,11.836,11.837c5.175,0,8.577-2.693,10.351-6.237c0.923-1.701,1.348-3.544,1.488-5.458
	c0.069-1.843-0.283-3.757-1.063-5.458c-1.631-3.686-5.246-6.875-10.846-6.875c-7.515,0-11.768,6.095-11.768,12.121L49.464,47.15
	L49.464,47.15z"/>
<path fill="#1072BA" d="M11.383,34.169h8.718v5.67c2.765-3.898,7.301-6.875,13.752-6.875c13.609,0,19.35,11.553,19.35,20.981
	c0,11.058-7.868,20.343-19.279,20.343c-7.584,0-11.695-3.897-13.254-6.379v5.174v13.608h-9.286L11.383,34.169L11.383,34.169z
	 M43.918,53.59c0-5.6-4.041-11.979-11.908-11.979c-3.403,0-6.309,1.347-8.436,3.544c-2.056,2.126-3.331,5.174-3.331,8.577
	c0,3.332,1.275,6.309,3.402,8.435c2.126,2.127,5.103,3.474,8.435,3.474c7.087,0,11.837-5.6,11.837-11.979L43.918,53.59L43.918,53.59
	z"/>
<path opacity="0.65" fill="#FFFFFF" stroke="#0B7ABF" stroke-width="2" stroke-miterlimit="10" enable-background="new    " d="
	M0.009,0.1v119.8h119.982V0.1H0.009z M103.229,112.402c-0.359,0.479-73.218,4.117-74.185,4.168
	c-0.97,0.047-2.025-23.943-2.025-23.943l20.127-1.504l-0.527-47.448c0,0-14.446,6.078-15.979,6.463
	c-1.537,0.384-15.569-15.473-15.805-16.219C14.601,33.169,55.438,4.11,55.444,4.261l26.72,5.76c0,0,2.497,77.783,2.932,78.672
	c0.437,0.887,15.099-1.092,17.113,0.326C104.223,90.439,103.592,111.926,103.229,112.402z"/>
</svg>
