<svg version="1.1" id="Capa_1" xmlns="http://www.w3.org/2000/svg" xmlns:xlink="http://www.w3.org/1999/xlink" x="0px" y="0px" width="120px" height="120px" viewBox="0 0 120 120" enable-background="new 0 0 120 120" xml:space="preserve">
<polygon fill="#D8D6EC" points="20.986,72.5 14.986,78.5 39.486,78.5 36.486,73 "/>
<rect x="19.479" y="24.904" fill="#86328C" width="50.235" height="49.542"/>
<ellipse fill="#D8D6EC" cx="45.736" cy="83.997" rx="19.385" ry="7.354"/>
<ellipse fill="#D8D6EC" cx="75.734" cy="91.499" rx="18.892" ry="5.998"/>
<rect x="54.375" y="31.524" fill="#E9187E" width="43.053" height="42.458"/>
<path fill="#0083CA" d="M102.029,54.947c0,13.345-10.816,24.161-24.16,24.161c-13.342,0-24.155-10.813-24.155-24.161
	c0-13.342,10.813-24.158,24.155-24.158C91.213,30.789,102.029,41.605,102.029,54.947z"/>
<circle fill="#39B54A" cx="47.611" cy="63.154" r="24.158"/>
<circle fill="#F15A22" cx="75.82" cy="71.873" r="22.619"/>
<path opacity="0.65" fill="#FFFFFF" stroke="#0B7ABF" stroke-width="2" stroke-miterlimit="10" enable-background="new    " d="
	M0.008,0.101v119.799h119.984V0.101H0.008z M105.197,114.706c-3.217-0.633-88.077,1.102-89.485,0.316
	c-1.209-0.631-4.828-18.113-4.022-22.367c44.843-43.477,49.669-45.837,49.669-54.188c0-2.521-4.029-5.512-7.642-5.512
	c-12.669,0-18.903,7.557-18.903,7.557c-3.218,1.893-21.117-19.216-21.117-21.734c0-2.363,14.08-15.91,42.632-15.91
	c26.946,0,49.067,8.82,49.067,30.402c0,12.445-5.029,20.005-39.014,54.345l39.014-0.477C107.607,89.187,107,114.864,105.197,114.706
	z"/>
</svg>
