<svg version="1.1" id="Capa_1" xmlns="http://www.w3.org/2000/svg" xmlns:xlink="http://www.w3.org/1999/xlink" x="0px" y="0px" width="120px" height="120px" viewBox="0 0 120 120" enable-background="new 0 0 120 120" xml:space="preserve">
<rect x="0.006" y="0.001" fill="#FFF200" width="119.994" height="119.999"/>
<rect x="36.746" y="22.52" fill="#00A651" width="60.109" height="59.298"/>
<path fill="#91BE4A" d="M96.355,23.02v58.298H37.246V23.02H96.355 M97.355,22.02h-1H37.246h-1v1v58.298v1h1h59.109h1v-1V23.02V22.02
	L97.355,22.02z"/>
<rect x="56.557" y="37.761" fill="#2E3192" width="49.259" height="48.595"/>
<path fill="#0083CA" d="M105.316,38.261v47.595h-48.26V38.261H105.316 M106.316,37.261h-1h-48.26h-1v1v47.595v1h1h48.26h1v-1V38.261
	V37.261L106.316,37.261z"/>
<rect x="8.49" y="44.542" transform="matrix(0.2898 -0.9571 0.9571 0.2898 -35.2208 74.7969)" fill="#E9187E" width="48.597" height="33.177"/>
<path fill="#A967AA" d="M24.289,33.692l30.794,9.325L41.292,88.566l-30.797-9.324L24.289,33.692 M23.622,32.445l-0.29,0.957
	L9.539,78.952l-0.29,0.957l0.957,0.29l30.797,9.324l0.957,0.291l0.29-0.957l13.79-45.55l0.29-0.958l-0.957-0.29l-30.794-9.325
	L23.622,32.445L23.622,32.445z"/>
<rect x="27.773" y="61.161" fill="#9C298C" width="48.586" height="33.179"/>
<path fill="#A967AA" d="M75.859,61.661V93.84H28.273V61.661H75.859 M76.859,60.661h-1H28.273h-1v1V93.84v1h1h47.586h1v-1V61.661
	V60.661L76.859,60.661z"/>
<path opacity="0.65" fill="#FFFFFF" stroke="#0B7ABF" stroke-width="2" stroke-miterlimit="10" enable-background="new    " d="
	M0.008,0.101v119.799h119.984V0.101H0.008z M60.545,116.667c-37.657,0-50.151-24.303-50.151-24.303s21.153-18.927,22.765-18.927
	c1.612,0,9.875,13.571,24.777,13.571c6.039,0,8.053-4.262,8.053-6.312c0-7.261-8.86-10.257-19.737-10.257
	c-2.011-1.579,0-21.93,0-21.93c9.268,0,20.141,0.158,20.141-9.47c0-4.89-4.427-7.729-9.867-7.729
	c-10.878,0-19.743,9.938-19.743,9.938S16.443,27.524,17.244,23.736C18.051,20.105,32.352,2.433,59.14,2.433
	c26.985,0,47.334,11.676,47.334,34.081c0,13.728-14.906,20.511-14.906,20.511s16.918,7.572,16.918,23.666
	C108.484,103.417,85.117,116.667,60.545,116.667z"/>
</svg>
