<svg version="1.1" id="Capa_1" xmlns="http://www.w3.org/2000/svg" xmlns:xlink="http://www.w3.org/1999/xlink" x="0px" y="0px" width="120px" height="120px" viewBox="0 0 120 120" enable-background="new 0 0 120 120" xml:space="preserve">
<polygon fill="#EF8031" points="46.502,24.46 64.926,56.368 83.348,88.273 46.502,88.273 9.658,88.273 28.08,56.368 "/>
<circle fill="#0083CA" cx="79.999" cy="73.996" r="28.5"/>
<path opacity="0.65" fill="#FFFFFF" stroke="#0B7ABF" stroke-width="2" stroke-miterlimit="10" enable-background="new    " d="
	M0.009,0.101v119.799h119.982V0.101H0.009z M107.267,67.164c0,0.312-16.924,0.466-17.127,0.466c-0.205,0-0.398,25.271-0.398,25.586
	c0,0.309,12.347,0.154,14.332,1.248c1.998,1.094,0.803,20.277,0.803,20.748c0,0.469-66.714,0.309-67.511,0.309
	c-0.794,0,0.404-22.619,0.404-22.619l17.725-0.465l0.994-24.491c0,0-44.41-2.032-44.611-2.032c-0.189,0,0.996-61.617,1.197-61.928
	l30.671-0.781l-0.2,38.225h13.338l1.592-25.43c0,0,32.267,0.623,32.661,0.779c0.398,0.153,0.598,26.051,0.598,26.051
	s15.534-0.162,15.534,0.309L107.267,67.164L107.267,67.164z"/>
</svg>
