<?xml version="1.0" encoding="utf-8"?>
<!-- Generator: Adobe Illustrator 16.0.0, SVG Export Plug-In . SVG Version: 6.00 Build 0)  -->
<!DOCTYPE svg PUBLIC "-//W3C//DTD SVG 1.1//EN" "http://www.w3.org/Graphics/SVG/1.1/DTD/svg11.dtd">
<svg version="1.1" id="Capa_1" xmlns="http://www.w3.org/2000/svg" xmlns:xlink="http://www.w3.org/1999/xlink" x="0px" y="0px"
	 width="120px" height="120px" viewBox="0 0 120 120" enable-background="new 0 0 120 120" xml:space="preserve">
<polygon fill="#EF8031" points="46.502,24.46 64.926,56.368 83.348,88.273 46.502,88.273 9.658,88.273 28.08,56.368 "/>
<circle fill="#0083CA" cx="79.999" cy="73.996" r="28.5"/>
<path d="M76.441,92.324l6.008-0.158l0.337-8.302c0,0-15.054-0.688-15.121-0.688c-0.066,0,0.337-20.886,0.405-20.992l10.396-0.265
	l-0.067,12.956h4.521l0.54-8.619c0,0,10.937,0.211,11.071,0.264s0.202,8.831,0.202,8.831S100,75.298,100,75.456V83.6
	c0,0.105-5.737,0.158-5.806,0.158s-0.135,8.566-0.135,8.673c0,0.104,4.185,0.053,4.859,0.423c0.676,0.37,0.271,6.874,0.271,7.033
	c0,0.158-22.614,0.104-22.884,0.104C76.035,99.991,76.441,92.324,76.441,92.324z"/>
</svg>
