<svg version="1.1" id="Capa_1" xmlns="http://www.w3.org/2000/svg" xmlns:xlink="http://www.w3.org/1999/xlink" x="0px" y="0px" width="120px" height="120px" viewBox="0 0 120 120" enable-background="new 0 0 120 120" xml:space="preserve">
<rect x="0.011" y="-0.002" fill="#FFC60B" width="119.989" height="120.002"/>
<polygon fill="#ED1164" points="60.407,22.976 62.154,33.29 52.909,28.403 43.643,33.251 45.433,22.944 37.959,15.626 
	48.311,14.144 52.957,4.772 57.566,14.164 67.913,15.688 "/>
<polygon fill="#0071B5" points="86.121,18.499 93.771,12.898 92.746,22.325 101.422,26.149 92.746,29.974 93.771,39.399 
	86.121,33.799 78.471,39.399 79.496,29.974 70.82,26.149 79.496,22.325 78.471,12.898 "/>
<polygon fill="#ED1C24" points="104.634,63.173 100.872,72.936 95.413,64.01 84.966,63.447 91.768,55.497 89.072,45.388 
	98.734,49.4 107.516,43.713 106.688,54.143 114.809,60.736 "/>
<polygon fill="#00AEEF" points="83.395,82.846 89.087,75.264 90.846,84.581 100.258,85.719 93.066,91.9 96.788,100.62 87.84,97.484 
	82.146,105.066 80.391,95.751 70.979,94.611 78.167,88.432 74.445,79.709 "/>
<polygon fill="#ED1164" points="58.407,99.482 60.153,109.796 50.909,104.909 41.643,109.758 43.432,99.45 35.957,92.133 
	46.311,90.65 50.957,81.277 55.565,90.67 65.912,92.193 "/>
<polygon fill="#A967AA" points="22.384,67.51 30.035,61.906 29.009,71.336 37.685,75.16 29.009,78.984 30.035,88.41 22.384,82.811 
	14.734,88.41 15.759,78.984 7.085,75.16 15.759,71.336 14.734,61.906 "/>
<polygon fill="#FFE500" points="65.693,54.669 72.277,62.799 61.82,63.08 56.124,71.855 52.628,61.992 42.527,59.286 50.82,52.913 
	50.271,42.466 58.893,48.386 68.657,44.636 "/>
<polygon fill="#00AEEF" points="19.404,31.832 25.098,24.25 26.855,33.568 36.269,34.706 29.078,40.887 32.799,49.607 
	23.851,46.472 18.158,54.053 16.4,44.738 6.988,43.598 14.178,37.418 10.457,28.696 "/>
<path opacity="0.65" fill="#FFFFFF" stroke="#0B7ABF" stroke-width="2" stroke-miterlimit="10" enable-background="new    " d="
	M0.008,0.101v119.799h119.984V0.101H0.008z M62.361,115.413c-37.243,0-49.592-24.021-49.592-24.021s20.913-18.724,22.507-18.724
	s9.759,13.419,24.496,13.419c5.967,0,7.967-3.898,7.967-5.932c0-16.224-30.869-16.224-40.629-16.224l-5.178-4.68L27.11,4.345
	c0,0,65.721-2.342,72.688-0.781c0,0-3.381,24.025-4.377,24.337c-0.994,0.311-34.449,1.249-34.449,1.249L59.57,41.16
	c0,0,50.186,3.9,50.186,38.685C109.754,102.306,86.658,115.413,62.361,115.413z"/>
</svg>
