<?xml version="1.0" encoding="utf-8"?>
<!-- Generator: Adobe Illustrator 16.0.0, SVG Export Plug-In . SVG Version: 6.00 Build 0)  -->
<!DOCTYPE svg PUBLIC "-//W3C//DTD SVG 1.1//EN" "http://www.w3.org/Graphics/SVG/1.1/DTD/svg11.dtd">
<svg version="1.1" id="Capa_1" xmlns="http://www.w3.org/2000/svg" xmlns:xlink="http://www.w3.org/1999/xlink" x="0px" y="0px"
	 width="120px" height="120px" viewBox="0 0 120 120" enable-background="new 0 0 120 120" xml:space="preserve">
<rect y="0.001" fill="#0071B5" width="119.998" height="119.999"/>
<path fill="#ECC3B2" stroke="#97665D" stroke-width="0.6947" stroke-miterlimit="10" d="M95.604,76.419
	c1.328-3.091,3.828-1.808,3.828-1.808c-1.002-0.539-2.846,0.38-3.172,0.109c-0.324-0.271-1.463-3.521-1.463-3.521s11.598,2.438,0,0
	c-11.595-2.438-11.865-4.715-13.98-6.286c-2.112-1.571-0.865-5.581-1.625-2.274c-0.758,3.305-4.172,3.09-5.799,4.012
	c-1.625,0.92-7.207,1.787-7.207,1.787l0.156-1.266c0,0-0.134,0.432-0.38,1.116c-0.299,0.827-0.763,2.024-1.354,3.29
	c-1.084,2.313-2.151,6.349-0.725,11.229c1.569,5.353,6.939,10.805,13.586,11.313c6.648,0.507,15.588-1.387,19.219-11.563
	c0,0,2.666-0.098,3.974-3.033c1.182-2.648-0.069-4.404-1.228-4.912c0,0,0.002-0.691,0.433-2.096"/>
<path fill="none" stroke="#98675D" stroke-width="0.6255" stroke-linecap="round" stroke-linejoin="round" d="M79.952,80.686
	c0.217,1.445-1.709,3.127-3.948,2.26c-1.217-0.471-1.766-1.645-1.615-3.055"/>
<path fill="#573419" d="M84.12,74.299c0,1.004,0.815,1.818,1.819,1.818c1.008,0,1.819-0.814,1.819-1.818
	c0-1.003-0.813-1.82-1.819-1.82C84.936,72.479,84.12,73.296,84.12,74.299"/>
<path fill="#FFFFFF" d="M84.438,73.691c0-0.44,0.357-0.797,0.797-0.797c0.44,0,0.798,0.354,0.798,0.797
	c0,0.438-0.356,0.795-0.798,0.795C84.795,74.486,84.438,74.131,84.438,73.691"/>
<path fill="#FFFFFF" d="M86.579,75.268c0-0.17,0.139-0.309,0.308-0.308c0.168,0,0.307,0.138,0.307,0.308
	c0,0.168-0.137,0.306-0.307,0.306C86.718,75.57,86.579,75.436,86.579,75.268"/>
<path fill="#573419" d="M68.803,72.412c0,0.984,0.797,1.783,1.781,1.783c0.986,0,1.785-0.799,1.785-1.783s-0.799-1.784-1.785-1.784
	C69.6,70.628,68.803,71.428,68.803,72.412"/>
<path fill="#FFFFFF" d="M69.113,71.816c0-0.431,0.35-0.78,0.781-0.78c0.431,0,0.778,0.351,0.778,0.78
	c0,0.431-0.349,0.779-0.778,0.779C69.463,72.596,69.113,72.248,69.113,71.816"/>
<path fill="none" stroke="#573419" stroke-width="0.5004" stroke-linecap="round" stroke-linejoin="round" d="M110.279,79.997
	c0.119,2.614-1.695,4.396-3.661,5.782c-3.813,2.697-8.328,2.76-12.656,1.578"/>
<path fill="none" stroke="#573419" stroke-width="0.5004" stroke-linecap="round" stroke-linejoin="round" d="M78.921,62.609
	c0.134,2.273-3.821,3.605-5.356,4.123c-2.116,0.717-4.385,1.233-6.588,1.634c-1.813,0.327-3.715,0.792-5.566,0.771"/>
<path fill="#BF7C73" stroke="#573419" stroke-width="0.5004" stroke-linecap="round" stroke-linejoin="round" d="M94.367,87.373
	c8.957,2.128,11.306-1.027,14.902-4.331c3.598-3.306-1.791-7.659-3.188-8.833c0,0,0.17,0.835-2.98-9.813
	c-2.672-9.032-11.158-12.7-11.158-12.7c-16.368-4.478-24.491,0.138-26.5,1.763c-2.549,2.062-7.055,11.981-7.498,13.524
	c-0.442,1.541-5.281,3.943-6.895,5.928c-1.614,1.979-1.834,4.109,3.377,9.688c5.211,5.58,11.16,4.332,11.16,4.332
	c-2.568-2.496-2.496-7.636-2.423-11.013c0.071-3.375,2.496-7.34,2.496-7.34c12.261-1.688,13.528-5.942,13.528-5.942
	c2.076,6.021,14.596,8.193,14.732,8.364C98.184,76.214,94.367,87.373,94.367,87.373z"/>
<path fill="#833291" stroke="#573419" stroke-width="0.5004" stroke-linecap="round" stroke-linejoin="round" d="M100.271,88.313
	l0.203,1.455c0,0,1.659,0.244,3.563-0.482c1.902-0.729-0.564-1.66-0.564-1.66L100.271,88.313z"/>
<path fill="#BF7C73" stroke="#573419" stroke-width="0.5004" stroke-linecap="round" stroke-linejoin="round" d="M100.434,90.094
	c0,0-0.037,2.024-0.078,2.43c-0.041,0.402-0.084,1.295-0.364,1.902c-0.284,0.608,0.524,1.012,1.256,0.811
	c0.729-0.2,2.269,0.81,2.673,1.012c0.403,0.203,1.09-1.417,1.578-1.255c0.484,0.161,0.852-1.78,1.697-1.943
	c0.854-0.159-2.469-3.966-2.469-3.966C104.402,89.811,100.434,90.094,100.434,90.094z"/>
<path fill="#833291" stroke="#573419" stroke-width="0.5004" stroke-linecap="round" stroke-linejoin="round" d="M58.375,85.676
	l-0.616,1.332c0,0-1.544-0.229-3.015-1.455c-1.467-1.222,1.002-1.426,1.002-1.426L58.375,85.676z"/>
<path fill="#BF7C73" stroke="#573419" stroke-width="0.5004" stroke-linecap="round" stroke-linejoin="round" d="M57.697,87.331
	c0,0-0.572,1.942-0.656,2.34c-0.086,0.397-0.316,1.259-0.248,1.916c0.07,0.661-0.768,0.821-1.355,0.423
	c-0.586-0.396-2.25,0.143-2.672,0.223c-0.419,0.08-0.545-1.654-1.024-1.639c-0.479,0.018-0.22-1.936-0.927-2.328
	c-0.705-0.392,3.382-3.097,3.382-3.097C54.265,85.955,57.697,87.331,57.697,87.331z"/>
<path fill="none" stroke="#764524" stroke-width="0.5004" stroke-linecap="round" stroke-linejoin="round" d="M86.664,69.363
	c2.885,0.65,3.74,3.234,3.74,3.234"/>
<path fill="none" stroke="#764524" stroke-width="0.5004" stroke-linecap="round" stroke-linejoin="round" d="M67.264,69.438
	c1.856-2.301,4.557-1.926,4.557-1.926"/>
<path fill="none" stroke="#97665C" stroke-width="0.7677" stroke-linecap="round" stroke-linejoin="round" d="M72.762,85.805
	c0,0,0.957,3.391,4.406,3.596c3.445,0.201,4.846-3.139,4.846-3.139"/>
<path fill="#94441C" stroke="#7A4A39" stroke-width="0.5" stroke-linecap="round" stroke-linejoin="round" d="M16.042,57.261
	c0,0,1.051-4.955-0.824-7.931c-1.875-2.979-5.111-3.935-7.189-11.252C5.95,30.761,7.313,27.116,7.313,27.116l-0.629,2.258
	c0,0,0.544-15.479,11.413-22.002c10.87-6.523,20.679-2.025,22.871-0.556c2.19,1.47,2.813,4.412,2.813,4.412s5.429-0.499,7.3,6.705
	c1.869,7.203,1.966,12.082,1.962,15.656c-0.005,3.576-0.012,7.26,1.24,9.245c1.25,1.985,1.249,3.501,1.249,3.501
	s-9.197,4.944-9.196,4.62c0-0.325-17.238,5.046-17.968,4.917C27.635,55.742,16.042,57.261,16.042,57.261z"/>
<path fill="#FAD7E6" stroke="#D93172" stroke-width="0.5" stroke-linecap="round" stroke-linejoin="round" d="M28.4,47.574
	c0,0-3.207,1.021-4.664,3.644c-1.458,2.625-1.604,6.923,3.498,7.435c5.102,0.508,9.621-5.175,9.621-5.175s6.486,2.842,9.546,1.239
	c3.062-1.603,0.292-5.904-1.311-6.705c-1.604-0.802-4.081-1.532-4.081-1.532L28.4,47.574z"/>
<path fill="#F9B28A" stroke="#C47046" stroke-width="0.5" stroke-linecap="round" stroke-linejoin="round" d="M30.587,48.303
	c0,0,5.028,5.466,6.268,5.175c1.239-0.292,3.279-7.216,3.279-7.216L30.587,48.303z"/>
<path fill="#F9B28A" stroke="#C47046" stroke-width="0.5" stroke-linecap="round" stroke-linejoin="round" d="M46.913,20.972
	c-1.842-3.948-3.169-6.779-3.169-6.779s-3.39,3.717-10.387,6.779c-6.996,3.061-11.807,3.28-11.807,3.28s-3.499,6.997-1.093,14.867
	c2.405,7.873,6.414,9.038,6.414,9.038s6.376,2.441,12.5,0.037c6.12-2.405,9.839-4.482,11.26-11.26S49.209,25.892,46.913,20.972z"/>
<path fill="none" stroke="#7A4A39" stroke-width="0.5" stroke-linecap="round" stroke-linejoin="round" d="M51.833,38.682
	c0,0-0.438-0.507-0.438-4.372c0-4.373-2.186-8.527-2.186-8.527c-0.708-1.609-1.533-3.173-2.296-4.81
	c-1.842-3.948-3.169-6.779-3.169-6.779s-3.39,3.717-10.387,6.779c-6.996,3.061-11.807,3.279-11.807,3.279s-3.499,6.998-1.093,14.868
	c0.695,2.275,1.524,3.99,2.352,5.277c0,0,1.132,1.699,2.061,3.077"/>
<path fill="#C47046" d="M39.553,31.957c0,0,2.985-2.133,4.133-0.761c1.147,1.371-0.23,2.895-0.23,2.895s0.458-1.6-0.459-2.363
	C42.077,30.967,39.553,31.957,39.553,31.957z"/>
<ellipse transform="matrix(-0.9675 0.2527 -0.2527 -0.9675 70.9009 53.0937)" fill="#38322F" cx="32.041" cy="31.1" rx="0.829" ry="1.629"/>
<ellipse transform="matrix(-0.9676 0.2525 -0.2525 -0.9676 94.1437 42.2443)" fill="#38322F" cx="44.361" cy="27.164" rx="0.757" ry="1.609"/>
<path fill="#94441C" d="M28.11,28.478c0,0,0.664-1.963,2.04-3.425c1.377-1.461,2.624-1.385,2.624-1.385v-0.874
	c0,0-1.605-0.162-3.059,1.624C28.262,26.204,28.11,28.478,28.11,28.478z"/>
<path fill="#94441C" d="M45.9,21.558c0,0-1.618-0.959-3.383-1.063c-1.764-0.105-2.511,0.813-2.511,0.813l-0.531-0.632
	c0,0,0.921-1.228,2.933-0.941C44.42,20.022,45.9,21.558,45.9,21.558z"/>
<g>
	<path fill="#4CC3F0" stroke="#0080BA" stroke-width="0.5" stroke-linecap="round" stroke-linejoin="round" d="M12.913,23.048
		c-0.437,1.203,3.936,5.139,5.029,2.624C18.704,23.922,13.351,21.846,12.913,23.048z M16.947,25.242
		c-0.656,1.51-3.284-0.854-3.021-1.576C14.189,22.943,17.404,24.189,16.947,25.242z"/>
</g>
<circle fill="#FFFFFF" cx="32.011" cy="30.659" r="0.463"/>
<circle fill="#FFFFFF" cx="44.465" cy="26.609" r="0.464"/>
<path fill="#EF504B" d="M40.864,39.358c-2.334,0.813-4.306,0.993-5.242,1.028c0.311,0.764,1.012,2.214,2.107,2.997
	c1.48,1.057,4.833,1.015,6.534-1.856C43.327,40.51,42.121,39.86,40.864,39.358z"/>
<path fill="#A24238" d="M45.967,36.223c-0.823,0.831-2.295,2.054-4.465,2.9c-0.216,0.083-0.428,0.161-0.638,0.235
	c1.256,0.502,2.462,1.152,3.399,2.168c0.057-0.099,0.119-0.189,0.172-0.294C45.472,39.227,45.838,37.34,45.967,36.223z"/>
<path fill="#FFFFFF" d="M41.666,37.589c-3.718,1.422-6.233,2.296-6.233,2.296s0.065,0.198,0.189,0.5
	c1.02-0.038,3.27-0.244,5.88-1.263c2.17-0.846,3.64-2.069,4.465-2.898c0.076-0.649,0.07-1.041,0.07-1.041
	S45.383,36.168,41.666,37.589z"/>
<path d="M70.839,79.799c-2.431-1.533-3.915-3.966-3.915-7.72c0-7.033,8.844-10.312,15.525-10.312
	c6.615,0,15.863,3.385,15.863,10.418c0,3.543-1.553,6.027-3.982,7.562c3.375,1.745,5.67,4.601,5.67,9.202
	C100,96.193,91.63,100,83.26,100c-8.235,0-17.618-3.332-17.618-11.209C65.641,84.348,67.666,81.545,70.839,79.799z M82.854,91.168
	c2.97,0,4.455-1.111,4.455-3.119c0-2.063-1.282-3.648-4.253-3.648c-3.105,0-4.389,1.586-4.389,3.385
	C78.669,89.898,79.951,91.168,82.854,91.168z M86.229,72.132c0-1.586-1.08-2.75-3.578-2.75c-2.633,0-3.78,1.163-3.78,2.591
	c0,1.586,1.147,2.539,3.646,2.539S86.229,73.665,86.229,72.132z"/>
</svg>
