<?xml version="1.0" encoding="utf-8"?>
<!-- Generator: Adobe Illustrator 16.0.0, SVG Export Plug-In . SVG Version: 6.00 Build 0)  -->
<!DOCTYPE svg PUBLIC "-//W3C//DTD SVG 1.1//EN" "http://www.w3.org/Graphics/SVG/1.1/DTD/svg11.dtd">
<svg version="1.1" id="Capa_1" xmlns="http://www.w3.org/2000/svg" xmlns:xlink="http://www.w3.org/1999/xlink" x="0px" y="0px"
	 width="120px" height="120px" viewBox="0 0 120 120" enable-background="new 0 0 120 120" xml:space="preserve">
<rect y="0.001" fill="#0071B5" width="119.998" height="119.999"/>
<path fill="#ECC3B2" d="M51.357,41.354c0,0,1.331-1.596,2.926,0c1.597,1.595,1.154,5.23-0.532,6.472
	C52.068,49.068,51.357,41.354,51.357,41.354"/>
<path fill="#ECC3B2" stroke="#97665D" stroke-width="0.6947" stroke-miterlimit="10" d="M51.357,41.354c0,0,1.331-1.596,2.926,0
	c1.597,1.595,1.154,5.23-0.532,6.472C52.068,49.068,51.357,41.354,51.357,41.354z"/>
<path fill="#ECC3B2" stroke="#97665D" stroke-width="0.6947" stroke-miterlimit="10" d="M10.125,45.985
	c0.528,1.721,0.531,2.574,0.531,2.574c-1.418,0.62-2.956,2.774-1.506,6.027c1.604,3.604,4.876,3.724,4.876,3.724
	c4.458,12.49,15.429,14.809,23.589,14.188c8.156-0.62,14.75-7.314,16.671-13.883c1.753-5.988,0.442-10.944-0.888-13.78
	c-1.33-2.839-2.129-5.409-2.129-5.409c1.773-1.775,2.129-4.257,2.129-4.257c-2.025,0.256-2.305-0.491-2.305-0.491
	s-8.027-2.333-20.347-0.093C18.426,36.824,11.342,43.763,10.125,45.985"/>
<path fill="none" stroke="#97665C" stroke-width="0.4607" stroke-linecap="round" stroke-linejoin="round" d="M13.316,54.499
	c0,0-1.152-1.241,0.443-2.129c0,0-0.176-1.684-1.418-1.507c-1.408,0.2-1.25,1.386-1.25,1.386"/>
<path fill="#825425" d="M10.656,48.557c0,0-0.272-0.326,1.751-0.246c2.023,0.08,2.428,1.537,2.428,1.537s0.323,0.325,2.185-1.131
	c1.862-1.459,4.454-5.425,4.696-8.743c0,0,0.648-1.538-0.566-1.052c-1.213,0.484-7.562,2.879-11.025,7.062l0.503,1.921
	L10.656,48.557z"/>
<path fill="#825425" d="M25.116,37.303c0,0,2.104,3.237,6.88,4.937c4.779,1.7,13.679,2.51,18.699-2.266l2.105-2.915
	c0,0,0.971-1.618,0.08-1.618s-1.375-0.485-2.266-0.485C49.723,34.956,44.302,32.445,25.116,37.303"/>
<path fill="none" stroke="#573216" stroke-width="0.7677" stroke-linecap="round" stroke-linejoin="round" d="M15.178,50.065
	c0,0,6.119-2.748,6.74-11.438"/>
<path fill="none" stroke="#573216" stroke-width="0.6142" stroke-linecap="round" stroke-linejoin="round" d="M14.292,48.824
	c0,0,1.684-1.685,1.772-4.877"/>
<path fill="none" stroke="#573216" stroke-width="0.6142" stroke-linecap="round" stroke-linejoin="round" d="M38.679,35.966
	c0,0,1.924,2.483,6.472,2.661c5.878,0.229,8.157-3.192,8.157-3.192"/>
<path fill="#333790" stroke="#1C3867" stroke-width="0.7677" stroke-linecap="round" stroke-linejoin="round" d="M41.338,22.363
	c-6.429-2.983-14.128-2.355-20.041,0.214c-5.569,2.418-9.212,6.687-10.819,10.463c-2.735,6.427-0.354,12.945-0.354,12.945
	s1.582-3.469,8.488-8.32L41.338,22.363z"/>
<path fill="none" stroke="#573216" stroke-width="0.7677" stroke-linecap="round" stroke-linejoin="round" d="M25.021,37.561
	c0,0,2.659,4.436,10.997,5.678c8.335,1.241,13.832-2.218,15.25-3.813c0,0,1.782-1.481,2.343-4.374c0,0-0.84,0.466-1.867,0"/>
<path fill="#C1202E" stroke="#700F10" stroke-width="0.7677" stroke-linecap="round" stroke-linejoin="round" d="M51.745,35.052
	c0,0-7.835-2.277-22.29,1.092c-14.454,3.369-19.33,9.842-19.33,9.842v-0.265c0,0,8.301-14.777,31.169-23.27
	c0,0,6.208-2.199,11.386-0.56C58.279,23.666,58.559,30.944,51.745,35.052z"/>
<path fill="none" stroke="#97665C" stroke-width="0.7677" stroke-linecap="round" stroke-linejoin="round" d="M39.902,45.017
	c0,0-1.429,2.807,1.152,5.941c1.133,1.375,1.885,2.625,2.042,4.078c0.184,1.729-0.488,3.169-1.982,3.748
	c-2.749,1.064-5.112-0.998-4.847-2.773"/>
<path fill="none" stroke="#754423" stroke-width="0.6142" stroke-linecap="round" stroke-linejoin="round" d="M24.688,45.438
	c0,0,2.067-2.626,5.668-2.172"/>
<path fill="none" stroke="#754423" stroke-width="0.6142" stroke-linecap="round" stroke-linejoin="round" d="M50.684,42.171
	c0,0-0.307-0.231-0.842-0.479"/>
<path fill="#573216" d="M31.111,48.17c0-1.232-0.999-2.233-2.233-2.233c-1.233,0-2.233,1-2.233,2.233c0,1.234,1,2.233,2.233,2.233
	C30.112,50.403,31.111,49.403,31.111,48.17"/>
<path fill="#FFFFFF" d="M30.721,47.425c0,0.539-0.438,0.976-0.977,0.976c-0.54,0-0.978-0.437-0.978-0.976
	c0-0.54,0.438-0.978,0.978-0.978S30.721,46.885,30.721,47.425"/>
<path fill="#FFFFFF" d="M28.092,49.358c0,0.208-0.168,0.375-0.376,0.375s-0.376-0.167-0.376-0.375s0.168-0.375,0.376-0.375
	S28.092,49.15,28.092,49.358"/>
<path fill="#573216" d="M49.914,45.854c0-1.206-0.98-2.188-2.189-2.188s-2.187,0.982-2.187,2.188c0,1.209,0.978,2.189,2.187,2.189
	S49.914,47.063,49.914,45.854"/>
<path fill="#FFFFFF" d="M49.531,45.123c0,0.53-0.429,0.958-0.957,0.958c-0.529,0-0.959-0.429-0.959-0.958
	c0-0.527,0.43-0.956,0.959-0.956C49.103,44.167,49.531,44.596,49.531,45.123"/>
<path fill="#FFFFFF" d="M46.955,47.02c0,0.204-0.165,0.366-0.369,0.366c-0.203,0-0.367-0.162-0.367-0.366s0.164-0.368,0.367-0.368
	C46.79,46.651,46.955,46.815,46.955,47.02"/>
<path fill="none" stroke="#97665C" stroke-width="0.7677" stroke-linecap="round" stroke-linejoin="round" d="M34.029,63.034
	c0,0,1.248,3.296,4.701,3.198c3.45-0.101,4.553-3.549,4.553-3.549"/>
<path fill="#FEFDF9" stroke="#9E793D" stroke-width="0.7275" stroke-miterlimit="10" d="M100.848,55.384
	c0,0,3.273-1.091,2.668-3.274s-2.668-0.849-2.668-0.849s1.697-4.608,4.729-1.455c3.031,3.152,0.849,7.033-2.063,8.003"/>
<path fill="#FEFDF9" stroke="#9E793D" stroke-width="0.7275" stroke-miterlimit="10" d="M70.639,50.289c0,0-3.272-1.091-2.668-3.274
	c0.606-2.183,2.668-0.849,2.668-0.849s-1.697-4.608-4.729-1.455c-3.031,3.153-0.85,7.032,2.061,8.002"/>
<path fill="#FEFDF9" stroke="#9E793D" stroke-width="0.7275" stroke-miterlimit="10" d="M68.335,51.866c0,0-5.578-1.698-7.396,3.152
	c-1.818,4.85,5.94,0.364,5.94,0.364"/>
<path fill="#FEFDF9" stroke="#9E793D" stroke-width="0.7275" stroke-miterlimit="10" d="M73.913,48.47
	c0,0-7.276,1.213-10.063,10.913c-2.789,9.701-8.001,7.641-9.215,14.792c-1.213,7.155,3.637,18.675,22.432,21.948
	c18.793,3.273,30.678-5.941,28.01-18.916c0,0-1.456-8.852,0.242-12.975C107.016,60.111,94.284,43.014,73.913,48.47z"/>
<path fill="#FEFDF9" stroke="#9E793D" stroke-width="0.7275" stroke-miterlimit="10" d="M98.77,57.443c0,0,1.334,9.943,7.519,6.913
	c0,0,3.88-5.093-4.972-7.76"/>
<path fill="#EDD3AC" d="M74.277,48.653c0,0,2.424,1.358,2.304,3.734c-0.121,2.376,4.729,3.621,5.94-0.453
	c0,0,5.457,1.811,5.941-3.395C88.464,48.54,82.887,46.843,74.277,48.653z"/>
<path fill="#F5CCDD" d="M100.588,58.898c0,0,4.123,1.091,3.76,3.274C103.982,64.354,100.225,60.838,100.588,58.898z"/>
<path fill="#9E793D" d="M69.911,77.813c0,0,5.093,3.518,15.644,3.274c0,0-3.033,8.003-9.701,6.063
	C69.184,85.211,69.911,77.813,69.911,77.813z"/>
<circle fill="#9E793D" cx="75.975" cy="62.415" r="2.183"/>
<circle fill="#FFFFFF" cx="75.246" cy="61.688" r="1.065"/>
<ellipse transform="matrix(0.5219 0.853 -0.853 0.5219 97.3794 -31.3331)" fill="#9E793D" cx="76.641" cy="71.203" rx="1.152" ry="1.757"/>
<ellipse transform="matrix(-0.7834 0.6215 -0.6215 -0.7834 193.0824 76.5842)" fill="#9E793D" cx="83.197" cy="71.935" rx="1.152" ry="1.758"/>
<path fill="#EB7C96" d="M76.823,84.482c0,0,3.638,0.485,4.364,1.818c0,0-2.062,1.819-5.336,0.85
	c-3.273-0.971-4.002-2.547-4.002-2.547S74.884,83.877,76.823,84.482z"/>
<circle fill="#9E793D" cx="93.447" cy="65.326" r="2.183"/>
<circle fill="#FFFFFF" cx="92.718" cy="64.599" r="1.065"/>
<path d="M82.313,85.825c-6.818-1.163-15.121-4.917-15.121-12.955c0-8.037,7.224-12.058,15.256-12.058
	c8.033,0,17.552,3.12,17.552,14.226c0,13.062-15.525,24.959-15.525,24.959c0.135,0.104-8.573-2.485-11.139-5.183
	C73.334,94.656,80.424,89.791,82.313,85.825z M81.841,70.278c-1.282,0-2.971,0.847-2.971,2.592c0,3.384,4.591,4.547,7.155,4.547
	C87.646,75.249,87.106,70.278,81.841,70.278z"/>
</svg>
