<svg version="1.1" id="svg_0" xmlns="http://www.w3.org/2000/svg" xmlns:xlink="http://www.w3.org/1999/xlink" x="0px" y="0px"
	 width="85.04px" height="85.04px" viewBox="0 0 85.04 85.04" enable-background="new 0 0 85.04 85.04" xml:space="preserve">
<path fill="#B63D46" d="M61.148,78.795c0,0,4.438,0.908,3.53,3.731c-0.907,2.823-16.941,1.612-13.11-3.935L61.148,78.795z"/>
<path fill="#B63D46" d="M39.668,79.099c0,0,4.236-0.908,5.245,2.319c1.008,3.227-16.64,3.227-10.993-1.613L39.668,79.099z"/>
<path fill="#FFF8C4" stroke="#E5E4E2" stroke-width="0.1513" d="M41.888,81.894c-2.32-0.755-3.531-0.88-3.531-0.88
	c-1.513,0-1.209,0.125-3.63,0.754c-1.052,0.273-1.533,0.333-1.739,0.313c-0.018,0.021-0.032,0.043-0.052,0.063
	c0.129,0.625,0.919,2.19,5.624,1.89c5.851-0.38,6.354-2.014,6.354-2.014S44.208,82.648,41.888,81.894z"/>
<path fill="#FFF8C4" stroke="#E5E4E2" stroke-width="0.1513" d="M64.773,80.711c0,0-1.75-1.814-4.123,1.211
	c-2.371,3.025-9.586-1.312-9.586-1.312s-0.312,2.421,4.742,3.024C60.857,84.241,66.215,84.243,64.773,80.711z"/>
<path fill="#F26922" stroke="#99AA01" stroke-width="0.3025" d="M58.527,32.204c0,0,8.472,7.715,9.076,13.765
	c0,0-1.06,4.389-4.386,4.539c0,0-4.086-13.767-9.381-17.094L58.527,32.204z"/>
<path fill="#F26922" stroke="#99AA01" stroke-width="0.3025" d="M49.149,62.913c0,0,30.855,6.957,4.688-31.465l-12.101,0.757
	c0,0-11.648,2.269-9.076,26.472C32.66,58.676,42.34,65.635,49.149,62.913z"/>
<path fill="#F26922" stroke="#99AA01" stroke-width="0.3025" d="M39.466,46.725c0,0-2.908,2.002-3.571,5.539
	c0,0-13.22-2.816-2.479-14.464c0,0,4.84-3.782,6.05,2.723C39.466,40.523,37.5,45.213,39.466,46.725z"/>
<path fill="#99AA01" d="M29.957,41.897c2.903-1.428,7.08-1.167,8.907,1.809c0.124,0.201-0.969,0.123-1.158-0.188
	c-1.48-2.409-4.535-2.243-6.8-1.128C30.63,42.525,29.552,42.097,29.957,41.897L29.957,41.897z"/>
<path fill="#99AA01" d="M31.506,39.809c2.24-2.17,5.938-0.697,7.586,1.497c0.266,0.354-0.883,0.204-1.069-0.045
	c-1.312-1.745-3.658-2.739-5.421-1.031C32.355,40.47,31.271,40.037,31.506,39.809L31.506,39.809z"/>
<path fill="#99AA01" d="M29.305,45.583c2.702-2.131,6.452-2.479,9.353-0.547c0.661,0.439-0.29,0.92-0.793,0.586
	c-2.403-1.601-5.487-1.047-7.663,0.668C29.76,46.638,28.753,46.016,29.305,45.583L29.305,45.583z"/>
<path fill="#99AA01" d="M38.672,46.774c-2.949-1.154-5.158,1.34-5.447,4.092c-0.045,0.432-1.195,0.168-1.146-0.307
	c0.388-3.695,3.622-5.672,7.063-4.324C39.885,46.525,39.214,46.987,38.672,46.774L38.672,46.774z"/>
<path fill="#99AA01" d="M60.129,33.808c0.101,1.285-0.606,2.474-1.883,2.799c-0.246,0.062-0.596-0.063-0.813-0.159
	c-0.097-0.042-0.399-0.203-0.154-0.266c1.193-0.304,1.771-1.533,1.683-2.688C58.952,33.377,60.105,33.488,60.129,33.808
	L60.129,33.808z"/>
<path fill="#99AA01" d="M62.023,35.888c0.004,1.587-1.303,2.604-2.666,3.141c-0.426,0.169-1.366-0.442-0.696-0.707
	c1.065-0.42,2.188-1.307,2.188-2.554C60.845,35.217,62.023,35.438,62.023,35.888L62.023,35.888z"/>
<path fill="#99AA01" d="M64,38.365c-0.502,1.666-1.912,2.91-3.633,3.177c-0.582,0.09-1.187-0.738-0.4-0.859
	c1.381-0.215,2.471-1.32,2.865-2.63C62.997,37.504,64.163,37.823,64,38.365L64,38.365z"/>
<path fill="#99AA01" d="M65.64,40.815c-0.646,1.693-2.123,2.833-3.894,3.15c-0.342,0.063-1.375-0.482-0.727-0.6
	c1.582-0.285,2.877-1.366,3.447-2.865C64.618,40.12,65.771,40.471,65.64,40.815L65.64,40.815z"/>
<path fill="#99AA01" d="M56.54,35.787c-1,2.502-3.485,3.553-5.953,4.126c-3.363,0.785-6.905,0.795-10.288,0.129
	c-0.492-0.097-1.01-0.669-0.196-0.508c3.172,0.625,6.375,0.549,9.536-0.113c2.367-0.497,4.779-1.569,5.73-3.946
	C55.5,35.145,56.648,35.511,56.54,35.787L56.54,35.787z"/>
<path fill="#99AA01" d="M59.138,40.001c-2.087,3.449-6.435,4.783-10.183,5.438c-3.519,0.614-7.691,0.542-10.417-2.084
	c-0.498-0.482,0.653-0.5,0.945-0.22c2.678,2.582,6.917,2.082,10.248,1.351c3.166-0.698,6.574-2.061,8.322-4.952
	C58.267,39.184,59.402,39.565,59.138,40.001L59.138,40.001z"/>
<path fill="#99AA01" d="M60.792,43.672c-3.855,5.676-11.066,6.975-17.472,6.137c-0.594-0.078-0.945-0.824-0.142-0.719
	c6.126,0.802,12.857-0.485,16.533-5.895C59.958,42.832,61.086,43.237,60.792,43.672L60.792,43.672z"/>
<path fill="#99AA01" d="M61.553,49.918c-3.801,2.349-7.719,4.301-12.247,4.594c-4.354,0.279-8.955-0.443-12.776-2.618
	c-0.693-0.396-0.059-0.94,0.5-0.624c3.611,2.055,7.754,2.623,11.855,2.451c4.324-0.182,8.154-2.219,11.757-4.441
	C61.043,49.034,62.09,49.588,61.553,49.918L61.553,49.918z"/>
<path fill="#99AA01" d="M63.629,53.685c-2.243,1.558-4.024,3.519-6.711,4.321c-3.049,0.912-6.373,0.731-9.515,0.711
	c-3.026-0.018-6.031-0.221-9.002-0.819c-2.223-0.448-5.104-1.116-6.44-3.135c-0.31-0.466,0.872-0.372,1.092-0.04
	c1.427,2.154,5.183,2.563,7.512,2.902c2.8,0.412,5.64,0.401,8.462,0.418c2.684,0.014,5.455-0.047,8.01-0.963
	c2.168-0.774,3.807-2.687,5.666-3.978C63.034,52.877,64.109,53.354,63.629,53.685L63.629,53.685z"/>
<path fill="#007BC3" stroke="#004A99" stroke-width="0.3025" d="M63.67,56.709c0,0,1.813,11.295-2.219,19.563l0.402,2.621
	c0,0,2.018,1.211-4.234,0.401c-6.254-0.805-6.658,2.424-6.455-3.227c0.199-5.646,0.402-9.479-4.64-9.277
	c-5.042,0.203-4.638,7.867-4.033,9.277c0.604,1.412,2.217,3.834-0.605,3.633c-2.825-0.203-7.06,0.807-7.06,0.807
	s-5.446,1.814-2.622-24.002C32.207,56.508,44.709,63.768,63.67,56.709z"/>
<path fill="#FACB99" stroke="#F6B59D" stroke-width="0.3025" d="M38.646,47.086c0,0-3.698,2.261-2.751,4.977
	c0.946,2.717,5.854,3.979,5.977,1.811c0,0,1.419-1.559,0.64-2.268c0,0,1.969-1.484,1.082-2.389
	c-0.887-0.903-2.387-1.082-2.615-1.719c-0.23-0.636,1.774,1.809,2.104,0.351C43.413,46.391,41.145,45.752,38.646,47.086z"/>
<path fill="#FACB99" stroke="#F6B59D" stroke-width="0.3025" d="M59.861,22.29c2.938-4.754,9.013-1.185,5.699,3.416
	c-3.608,5.531-8.156,0.396-4.664-4.217"/>
<path fill="#FACB99" stroke="#F6B59D" stroke-width="0.3025" d="M59.793,22.261c1.117-1.713,3.017-2.81,5.021-1.943
	c1.938,0.837,2.166,3.236,1.16,4.881c-1.035,1.694-3.033,3.912-5.149,2.49c-2.111-1.418-1.187-4.574,0.004-6.229
	c0.028-0.041,0.17,0.01,0.135,0.059c-1.123,1.561-1.74,3.61-0.719,5.386c1.582,2.749,4.332,0.112,5.432-1.496
	c1.07-1.565,1.082-3.704-0.582-4.843C63.185,19.259,61,20.68,59.929,22.32C59.902,22.361,59.76,22.312,59.793,22.261L59.793,22.261z
	"/>
<path fill="#FACB99" stroke="#F6B59D" stroke-width="0.3025" d="M41.083,9.498c5.121-2.182,12.783,0.731,17.035,4.249
	c7.324,5.848,4.01,18.087-4.125,21.392c-7.796,2.917-18.332,3.117-23.393-4.163c-5.257-7.449-3.158-16.328,5.337-19.658
	c2.121-0.877,4.421-1.769,6.736-2.479"/>
<path fill="#FACB99" stroke="#F6B59D" stroke-width="0.3025" d="M41.015,9.473c5.567-2.215,12.411,0.591,16.86,4.03
	c4.828,3.734,5.396,10.175,2.785,15.415c-2.808,5.643-8.953,7.695-14.888,8.073c-5.628,0.357-11.429-1.032-15.003-5.695
	c-3.033-3.957-4.106-9.335-1.903-13.918c2.487-5.172,8.696-6.986,13.747-8.567c0.031-0.009,0.159,0.042,0.121,0.055
	c-3.875,1.211-8.217,2.506-11.278,5.293c-2.406,2.189-3.627,5.33-3.645,8.545c-0.019,3.617,1.714,7.233,4.138,9.851
	c2.877,3.104,7.176,4.298,11.285,4.44c6.713,0.231,13.973-1.852,17.281-8.115c1.375-2.6,1.872-5.645,1.413-8.543
	c-0.565-3.582-2.937-6.133-5.878-8.047c-4.164-2.71-10.053-4.694-14.896-2.769C41.113,9.537,41.005,9.476,41.015,9.473L41.015,9.473
	z"/>
<path fill="#F6B59D" d="M62.531,24.919c0.58-0.837,1.351-2.099,2.522-2.018c0.15,0.011,0.238,0.189,0.037,0.175
	c-1.024-0.071-1.789,1.238-2.289,1.96C62.741,25.125,62.458,25.025,62.531,24.919L62.531,24.919z"/>
<path fill="#EBAE97" d="M47.545,25.582c0.654,0.085,1.326,0,1.732-0.57c0.313-0.44,0.309-1.052,0.197-1.557
	c-0.104-0.474-0.354-0.973-0.766-1.25c-0.563-0.381-1.133,0.199-1.442,0.628c-0.062,0.083-0.343-0.017-0.271-0.115
	c0.373-0.517,0.893-0.937,1.562-0.759c0.575,0.155,0.937,0.722,1.129,1.248c0.22,0.599,0.222,1.303-0.099,1.862
	c-0.399,0.697-1.291,0.772-2.004,0.679C47.441,25.729,47.342,25.556,47.545,25.582L47.545,25.582z"/>
<g>
	<path fill="#1D1D1B" d="M52.765,20.125c0.538,0.469,0.769,2.271-0.47,1.955c-1.233-0.316-0.528-3.197,0.591-1.661"/>
	<g>
		<path fill="#1D1D1B" d="M52.959,19.984c0.47,0.439,0.713,1.317,0.418,1.915c-0.336,0.686-1.342,0.5-1.754-0.008
			c-0.391-0.483-0.354-1.281-0.041-1.789c0.412-0.674,1.191-0.248,1.551,0.226c0.228,0.3-0.323,0.413-0.493,0.188
			c-0.236-0.313-0.416-0.438-0.595-0.018c-0.153,0.364-0.145,0.814,0.043,1.163c0.22,0.404,0.691,0.233,0.789-0.147
			c0.095-0.372-0.021-0.973-0.311-1.243C52.279,19.999,52.738,19.773,52.959,19.984L52.959,19.984z"/>
	</g>
</g>
<g>
	<path fill="#1D1D1B" d="M42.44,21.363c0.538,0.468,0.768,2.271-0.469,1.955c-1.235-0.317-0.53-3.198,0.59-1.661"/>
	<g>
		<path fill="#1D1D1B" d="M42.636,21.221c0.469,0.439,0.713,1.316,0.418,1.915c-0.339,0.688-1.344,0.5-1.756-0.009
			c-0.39-0.482-0.352-1.28-0.041-1.789c0.411-0.673,1.191-0.245,1.55,0.227c0.227,0.3-0.323,0.414-0.494,0.188
			c-0.237-0.311-0.416-0.436-0.594-0.016c-0.154,0.364-0.144,0.814,0.043,1.162c0.218,0.406,0.691,0.234,0.787-0.146
			c0.095-0.372-0.02-0.973-0.308-1.243C41.954,21.238,42.413,21.011,42.636,21.221L42.636,21.221z"/>
	</g>
</g>
<g opacity="0.5">
	<path fill="#F6B59D" d="M39.441,24.069c6.438-0.684,3.475,7.146-0.272,5.478c-5.099-2.141,1.899-8.891,3.415-4.563"/>
	<g>
		<path fill="#F6B59D" d="M39.309,24.009c1.913-0.171,4.251,0.409,4.053,2.782c-0.156,1.869-2.038,3.555-3.927,2.906
			c-2.452-0.839-2.838-3.121-1.131-4.976c1.312-1.427,3.635-1.812,4.44,0.291c0.02,0.049-0.287,0.019-0.317-0.062
			c-0.878-2.288-3.202-1.021-4.247,0.397c-1.164,1.581-0.722,3.37,1.082,4.179c3.248,1.458,6.322-5.938,0.313-5.4
			C39.501,24.136,39.231,24.015,39.309,24.009L39.309,24.009z"/>
	</g>
</g>
<g opacity="0.5">
	<path fill="#F6B59D" d="M52.781,23.75c6.439-0.684,3.476,7.146-0.271,5.479c-5.1-2.143,1.898-8.893,3.414-4.563"/>
	<g>
		<path fill="#F6B59D" d="M52.728,23.633c2.021-0.182,4.272,0.555,3.957,2.983c-0.248,1.909-2.146,3.438-4.043,2.789
			c-5.726-1.96,1.709-9.274,3.438-4.759c0.066,0.175-0.258,0.173-0.311,0.038c-0.813-2.123-2.932-1.211-4.055,0.103
			c-1.418,1.655-0.982,3.724,1.143,4.45c1.643,0.563,3.063-0.978,3.445-2.421c0.609-2.298-1.564-3.117-3.467-2.947
			C52.679,23.884,52.506,23.653,52.728,23.633L52.728,23.633z"/>
	</g>
</g>
<path fill="#004A99" d="M61.706,70.476c-0.759-0.151-1.664-0.151-2.42,0c0.149,1.208,0.149,2.571-0.908,3.325
	C60.947,74.105,62.004,73.047,61.706,70.476"/>
<path fill="#004A99" d="M61.65,70.676c-0.754-0.133-1.514-0.121-2.267,0.013c0.064-0.063,0.13-0.127,0.195-0.19
	c0.148,1.275,0.113,2.621-0.979,3.476c-0.084-0.128-0.166-0.257-0.25-0.384c0.862,0.091,1.879,0.119,2.539-0.543
	c0.655-0.653,0.608-1.75,0.521-2.594c-0.033-0.301,0.563-0.221,0.592,0.045c0.104,0.994,0.1,2.133-0.656,2.89
	c-0.75,0.749-1.969,0.733-2.943,0.633c-0.164-0.021-0.467-0.216-0.25-0.386c0.994-0.774,0.973-2.039,0.836-3.182
	c-0.012-0.117,0.1-0.174,0.195-0.189c0.859-0.154,1.717-0.143,2.576,0.011C62.129,70.34,62.011,70.743,61.65,70.676L61.65,70.676z"
	/>
<path fill="#F6B59D" d="M62.359,45.819c0,0-1.463-0.15-0.653-1.816c0.806-1.664,2.192-0.629,2.192-0.629s2.396-0.958,3.302,0.252
	c0.907,1.209,0.051,7.438-3.681,6.605c0,0-2.672-0.781-1.791-2.018c0,0-0.177-0.228-0.076-0.629
	c0.103-0.403,0.656-0.606,0.656-0.606S61.426,46.247,62.359,45.819z"/>
<ellipse transform="matrix(0.8742 0.4856 -0.4856 0.8742 29.438 -24.8229)" fill="#FACB99" stroke="#FACB99" stroke-width="0.3025" cx="62.624" cy="44.399" rx="0.655" ry="1.16"/>
<path fill="#FACB99" stroke="#FACB99" stroke-width="0.3025" d="M66.898,47.282c0,0-1.388,4.789-4.94,1.789
	c0,0-0.176-0.302-0.101-0.479c0.076-0.178,1.588,0.15,1.588,0.15s-1.313-0.58-1.411-0.908c-0.103-0.328,0.377-0.604,1.989-0.377
	c0,0-1.513-0.479-1.537-1.16c-0.024-0.68,2.546-0.479,2.546-0.479l0.682-0.075c0,0-0.605-0.656-1.26-0.505
	c-0.656,0.151-1.285-0.53-0.479-1.211C64.779,43.347,68.486,41.96,66.898,47.282z"/>
<path fill="#1D1D1B" d="M61.543,69.93c-0.065,0.146-0.084,0.307-0.151,0.453c-0.093,0.205-0.526,0.08-0.438-0.117
	c0.066-0.146,0.086-0.307,0.15-0.454C61.2,69.606,61.633,69.73,61.543,69.93L61.543,69.93z"/>
<path fill="#1D1D1B" d="M60.258,70.004c-0.063,0.136-0.075,0.272-0.075,0.42c0,0.193-0.438,0.104-0.438-0.049
	c0-0.172,0.006-0.332,0.075-0.488C59.892,69.726,60.325,69.862,60.258,70.004L60.258,70.004z"/>
<path fill="#1D1D1B" d="M58.894,71.42c0.017,0.033,0.035,0.061,0.06,0.084c0.045,0.033,0.049,0.039,0.01,0.016
	c0.096,0.004,0.223,0.037,0.291,0.105c0.074,0.069-0.063,0.078-0.104,0.076c-0.266-0.013-0.553-0.115-0.688-0.354
	c-0.041-0.072,0.158-0.052,0.177-0.048C58.717,71.312,58.851,71.342,58.894,71.42L58.894,71.42z"/>
<path fill="#1D1D1B" d="M58.288,72.635c0.262,0,0.53,0.004,0.774,0.113c0.039,0.016,0.194,0.09,0.123,0.15
	c-0.067,0.063-0.216,0.025-0.287-0.006c-0.131-0.061-0.293-0.04-0.435-0.04c-0.096,0-0.229-0.035-0.291-0.112
	C58.107,72.661,58.23,72.635,58.288,72.635L58.288,72.635z"/>
<path fill="#1D1D1B" d="M59.502,73.938c-0.065,0.123-0.145,0.229-0.242,0.326c-0.104,0.104-0.516-0.059-0.407-0.166
	c0.084-0.085,0.155-0.172,0.211-0.277C59.138,73.678,59.562,73.825,59.502,73.938L59.502,73.938z"/>
<path fill="#1D1D1B" d="M60.411,73.788c-0.009,0.137-0.07,0.227-0.164,0.319c-0.082,0.083-0.488-0.075-0.412-0.153
	c0.084-0.086,0.131-0.162,0.139-0.285C59.976,73.581,60.417,73.661,60.411,73.788L60.411,73.788z"/>
<path fill="#1D1D1B" d="M61.724,71.864c0.144,0.065,0.301,0.08,0.426,0.182c0.231,0.188-0.123,0.322-0.287,0.188
	c-0.079-0.065-0.231-0.079-0.329-0.122c-0.076-0.033-0.173-0.133-0.104-0.219C61.495,71.807,61.638,71.827,61.724,71.864
	L61.724,71.864z"/>
<path fill="#1D1D1B" d="M61.271,72.895c0.237-0.105,0.541-0.105,0.752,0.064c0.063,0.051,0.063,0.1-0.026,0.104
	c-0.097,0.01-0.232-0.021-0.312-0.082c0.043,0.01,0.086,0.018,0.127,0.027c-0.045,0.005-0.088,0.019-0.129,0.037
	c-0.089,0.039-0.199,0.013-0.285-0.02C61.386,73.022,61.193,72.93,61.271,72.895L61.271,72.895z"/>
<path fill="#1D1D1B" d="M42.896,30.312c0,0,1.287-1.514,1.588-1.438c0.302,0.076,1.36,1.664,1.36,2.042s0.982,0,0.908,0.605
	c-0.076,0.604,2.043-0.681,2.496,0.529c0,0-0.354-0.555-2.27-0.201c0,0-0.201,0.051-0.706-0.151c-0.505-0.202-1.26,0.151-2.42,0.655
	c-1.161,0.505-1.815,0.454-1.563-0.454C42.542,30.991,42.896,30.312,42.896,30.312z"/>
<polygon fill="#FFFFFF" points="45.116,31.094 44.458,31.042 44.508,31.447 45.116,31.396 "/>
<path fill="#FFFFFF" d="M44.56,30.034c0,0,0.454-0.049,0.556,0.102c0.102,0.152-0.052,0.505-0.052,0.505l-0.454-0.102L44.56,30.034z
	"/>
<path fill="#FFFFFF" d="M43.904,31.094l0.101,0.604l-1.158,0.454C42.846,32.153,43.249,31.396,43.904,31.094z"/>
<path fill="#FFFFFF" d="M44.056,30.034l-0.103,0.556L43.4,30.641C43.401,30.64,43.702,30.186,44.056,30.034z"/>
<path fill="#1D1D1B" d="M50.228,19.739c1.164-1.191,2.254-2.45,3.429-3.631c0.063-0.064,0.23-0.042,0.266,0.048
	c0.229,0.615,0.557,1.178,0.615,1.841c0.012,0.139-0.277,0.091-0.289-0.026c-0.058-0.645-0.373-1.195-0.597-1.791
	c0.089,0.016,0.179,0.032,0.267,0.049c-1.172,1.182-2.265,2.439-3.428,3.63C50.406,19.945,50.133,19.833,50.228,19.739
	L50.228,19.739z"/>
<path fill="#1D1D1B" d="M44.325,21.304c-0.771-0.037-1.255-0.536-1.649-1.153c-0.572-0.897-0.995-2.256-2.29-1.486
	c-0.095,0.057-0.353-0.076-0.224-0.151c2.333-1.39,2.228,2.517,4.129,2.604C44.444,21.125,44.52,21.312,44.325,21.304L44.325,21.304
	z"/>
<path fill="#FACB99" stroke="#F6B59D" stroke-width="0.3025" d="M25.444,30.142c0.001-0.001,0.003-0.002,0.005-0.002
	c1.257-0.486,2.388-1.223,3.121-2.378c0.203-0.321,0.426-0.662,0.622-1.016c-0.013-0.093-0.017-0.188-0.013-0.292
	c0.055-1.284-0.43-3.217-1.757-3.742c-2.826-0.51-5.867,0.446-5.773,3.664C21.723,29.525,23.5,30.473,25.444,30.142z"/>
<path fill="#FACB99" stroke="#F6B59D" stroke-width="0.3025" d="M25.403,30.091c0.679-0.317,1.316-0.622,1.921-1.065
	c0.604-0.442,1.817-1.721,1.781-2.576c-0.039-0.89-0.14-1.655-0.512-2.486c-0.61-1.362-2.094-1.388-3.343-1.28
	c-2.091,0.181-3.5,1.602-3.528,3.698c-0.029,2.263,1.315,4.028,3.697,3.705c0.075-0.01,0.148,0.099,0.05,0.111
	c-1.616,0.22-3.173-0.428-3.637-2.122c-0.677-2.475,0.075-4.681,2.663-5.38c1.933-0.521,3.955-0.171,4.524,1.97
	c0.355,1.34,0.335,2.001-0.382,3.129c-0.762,1.201-1.904,1.817-3.151,2.398C25.423,30.223,25.318,30.129,25.403,30.091z"/>
<path fill="#F6B59D" d="M27.402,25.412c-1.174-0.642-2.921-1.184-3.992-0.083c-0.085,0.088-0.363-0.025-0.269-0.123
	c1.17-1.204,3.093-0.653,4.386,0.053C27.703,25.354,27.542,25.488,27.402,25.412L27.402,25.412z"/>
<path fill="#231F20" d="M26.771,22.824c0.156-1.209,0.939-4.236,1.879-5.898c1.253-1.968,2.348-3.025,4.227-4.236
	c1.879-1.06,4.54-2.42,1.252-4.084c0.627,0.302,1.096,0.302,1.565,0.755c0-0.907,0.314-1.966,0.939-2.722
	C36.79,7.545,36.79,8.453,36.79,9.36c0.94-1.512,2.035-2.722,3.444-3.781c-0.783,0.605-1.565,2.419-1.409,3.781
	c2.035,0.303,4.542-0.454,6.577-0.604c2.349-0.15,4.228,0.454,6.417,1.212c5.166,1.966,9.238,5.294,10.178,10.738
	c-0.156-1.512-1.41-3.479-2.977-4.084c0.156,1.211,0.156,2.42,0,3.63c0.156-1.36-0.625-2.57-1.408-3.78
	c0,2.57-0.783,3.63-2.662,5.444c0.471-4.083-0.313-10.891-6.104-10.589c-0.313,1.966,0.157,3.782-0.781,5.748
	c-0.94,1.665-2.819,3.934-4.541,4.841c0.626-1.512,0.626-3.328,0-4.688c-2.349,2.875-4.072,4.388-7.516,6.051
	c0.782-0.604,1.408-1.361,1.722-2.419c-1.566,1.512-2.818,2.723-4.697,3.63c-1.566,0.756-3.288,1.059-3.288,3.176
	c0,0-0.626,0-0.469,0c-0.157-1.813,0-4.688-2.505-4.991"/>
<path d="M30.854,12.736c0.31-0.639,0.413-1.248,0.426-1.953c0.029-1.444-1.339-0.491-2.098-0.065
	c-0.039,0.021-0.271-0.017-0.238-0.077c0.354-0.666,0.689-1.674,1.104-2.057c-0.81,0.747-1.734,1.359-2.546,2.107
	c-0.04,0.037-0.254-0.01-0.238-0.076c0.63-2.662,2.004-4.96,3.424-7.266c0.237-0.387,1.125-1.325,0.25-0.349
	c-0.507,0.566-1.014,1.13-1.521,1.696c-1.014,1.131-2.027,2.262-3.041,3.393c-0.037,0.042-0.261-0.019-0.239-0.076
	c0.749-1.955,1.744-3.778,2.738-5.616c0.08,0.021,0.161,0.043,0.241,0.063c-0.178,0.314-0.361,0.625-0.551,0.932
	c-0.276,0.455-0.57,0.899-0.86,1.346c-0.685,1.052-1.361,2.101-1.966,3.203C25.706,8,25.485,7.943,25.491,7.875
	c0.142-1.408,0.551-2.711,1.087-4.017c0.273-0.661,0.597-1.302,0.919-1.939c0.54-1.068,0.111-0.182-0.244,0.242
	c-1.629,1.945-2.877,4.137-4.885,5.744c-0.057,0.044-0.276-0.052-0.231-0.088c2.375-1.9,3.791-4.639,5.852-6.834
	c0.039-0.042,0.266,0.026,0.239,0.077c-1.075,2.029-2.078,4.094-2.441,6.382c0.116-0.728,0.96-1.679,1.379-2.324
	c0.685-1.052,1.361-2.102,1.966-3.202c0.037-0.065,0.271,0.021,0.246,0.066c-0.5,0.931-1.009,1.859-1.501,2.795
	c-0.432,0.821-0.776,2.157-1.354,2.803c1.647-1.838,3.295-3.676,4.942-5.513c0.039-0.044,0.265,0.031,0.239,0.076
	c-1.113,1.863-2.305,3.673-3.223,5.644c-0.214,0.46-0.388,0.937-0.559,1.411c-0.066,0.183-0.188,0.979-0.319,1.1
	c0.81-0.746,1.735-1.359,2.546-2.107c0.043-0.039,0.268,0.033,0.239,0.077c-0.374,0.563-0.607,1.898-1.187,2.224
	c0.607-0.34,1.31-0.549,1.975-0.742c0.048-0.014,0.209,0.007,0.222,0.072c0.212,1.02,0.161,2.034-0.301,2.982
	C31.066,12.869,30.831,12.785,30.854,12.736L30.854,12.736z"/>
<path d="M26.801,15.047c-0.403-0.597-0.782-1.21-1.121-1.846c-0.175-0.386-0.179-0.372-0.011,0.043
	c-0.033,0.31-0.083,0.614-0.149,0.919c-0.146,0.772-0.322,1.507-0.371,2.295c-0.003,0.043-0.231-0.008-0.244-0.055
	c-0.072-0.259-0.702-2.282-0.678-2.312c-0.292,0.36-0.194,0.992-0.689,1.173c-0.049,0.018-0.216-0.003-0.237-0.063
	c-0.134-0.396-0.283-0.786-0.439-1.176c-0.054-0.137-0.109-0.273-0.163-0.41c-0.235-0.42-0.231-0.507,0.015-0.262
	c0.119,1.14-0.301,2.366-0.37,3.507c-0.003,0.045-0.229-0.012-0.244-0.056c-0.297-0.811-0.492-1.624-0.633-2.474
	c-0.084-0.523-0.117-1.057-0.151-1.586c-0.007-0.176-0.014-0.352-0.021-0.528c-0.146-0.527-0.086-0.655,0.178-0.388
	c-0.254,2.209-0.542,4.416-0.796,6.625c-0.005,0.044-0.242-0.006-0.247-0.064c-0.139-2.271-0.134-4.547-0.224-6.821
	c-0.034-0.863,0.124-0.608,0.025,0.016c-0.086,0.555-0.194,1.104-0.299,1.653c-0.256,1.345-0.563,2.68-0.861,4.015
	c-0.012,0.051-0.24-0.011-0.246-0.064c-0.098-0.827-0.191-1.654-0.264-2.483c-0.046-0.52-0.066-1.041-0.084-1.561
	c-0.013-0.362,0.243-1.083,0.028-0.314c-0.36,1.288-0.435,2.647-0.823,3.927c-0.015,0.053-0.26-0.019-0.246-0.065
	c0.461-1.519,0.542-3.124,1.039-4.639c0.016-0.051,0.246,0.01,0.246,0.064c-0.009,0.887,0.021,1.77,0.085,2.654
	c0.027,0.335,0.059,0.669,0.094,1.005c0.008,0.073-0.052,1.303,0.054,0.833c0.456-2.04,0.895-4.082,1.189-6.151
	c0.006-0.045,0.242,0.007,0.246,0.065c0.15,2.458,0.13,4.921,0.252,7.38c-0.013-0.245-0.059-0.833-0.012-1.22
	c0.065-0.542,0.132-1.085,0.199-1.628c0.159-1.291,0.316-2.58,0.466-3.873c0.004-0.042,0.245,0.006,0.245,0.065
	c-0.018,1.583,0.099,3.124,0.488,4.665c0.279,1.111,0.183-0.289,0.241-0.674c0.122-0.812,0.238-1.578,0.153-2.399
	c-0.004-0.031,0.226,0.006,0.243,0.058c0.073,0.213,0.884,2.124,0.918,2.083c0.291-0.36,0.193-0.993,0.688-1.173
	c0.047-0.018,0.221,0.004,0.237,0.063c0.12,0.427,0.221,0.857,0.32,1.289c0.026,0.11,0.075,1.262,0.108,0.73
	c0.067-1.085,0.451-2.123,0.52-3.214c0.002-0.046,0.228,0.012,0.244,0.056c0.322,0.845,0.841,1.616,1.345,2.362
	C27.058,15.114,26.841,15.106,26.801,15.047L26.801,15.047z"/>
</svg>
