<svg version="1.1" id="svg_0_v" valid="1" xmlns="http://www.w3.org/2000/svg" xmlns:xlink="http://www.w3.org/1999/xlink" x="0px" y="0px" width="85.04px" height="85.04px" viewBox="0 0 85.04 85.04" enable-background="new 0 0 85.04 85.04" xml:space="preserve">
<path fill="#FFFFFF" toFill="#B63D46" stroke="#815C2D" stroke-width="0.25" d="M61.149,78.793c0,0,4.438,0.908,3.53,3.731
	s-16.941,1.612-13.11-3.935L61.149,78.793z"/>
<path fill="#FFFFFF" toFill="#B63D46" stroke="#815C2D" stroke-width="0.25" d="M39.668,79.098c0,0,4.236-0.908,5.245,2.318
	c1.008,3.228-16.64,3.228-10.993-1.612L39.668,79.098z"/>
<path fill="#FFFFFF" toFill="#FFF8C4" stroke="#815C2D" stroke-width="0.1513" d="M41.889,81.893c-2.32-0.755-3.531-0.88-3.531-0.88
	c-1.513,0-1.209,0.125-3.63,0.754c-1.052,0.272-1.533,0.333-1.739,0.313c-0.018,0.021-0.032,0.043-0.052,0.063
	c0.129,0.625,0.919,2.189,5.624,1.891c5.852-0.381,6.355-2.015,6.355-2.015S44.208,82.647,41.889,81.893z"/>
<path fill="#FFFFFF" toFill="#FFF8C4" stroke="#815C2D" stroke-width="0.1513" d="M64.774,80.709c0,0-1.75-1.813-4.123,1.211
	c-2.371,3.025-9.586-1.312-9.586-1.312s-0.313,2.421,4.742,3.024C60.858,84.241,66.215,84.243,64.774,80.709z"/>
<path fill="#FFFFFF" toFill="#F26922" stroke="#815C2D" stroke-width="0.3025" d="M58.528,32.203c0,0,8.473,7.715,9.076,13.764
	c0,0-1.061,4.39-4.387,4.539c0,0-4.086-13.766-9.381-17.093L58.528,32.203z"/>
<path fill="#FFFFFF" toFill="#F26922" stroke="#815C2D" stroke-width="0.3025" d="M49.15,62.913c0,0,30.854,6.957,4.688-31.465
	l-12.102,0.757c0,0-11.648,2.269-9.076,26.472C32.661,58.674,42.34,65.633,49.15,62.913z"/>
<path fill="#FFFFFF" toFill="#F26922" stroke="#815C2D" stroke-width="0.3025" d="M39.466,46.724c0,0-2.908,2.002-3.571,5.539
	c0,0-13.22-2.815-2.479-14.464c0,0,4.84-3.782,6.05,2.723C39.466,40.522,37.5,45.211,39.466,46.724z"/>
<path fill="#815C2D" d="M29.958,41.896c2.903-1.428,7.08-1.167,8.907,1.81c0.124,0.201-0.969,0.123-1.158-0.188
	c-1.48-2.409-4.535-2.243-6.8-1.128C30.63,42.524,29.552,42.096,29.958,41.896L29.958,41.896z"/>
<path fill="#815C2D" d="M31.506,39.808c2.24-2.17,5.938-0.697,7.586,1.497c0.266,0.354-0.883,0.204-1.069-0.045
	c-1.312-1.745-3.658-2.739-5.421-1.031C32.355,40.469,31.271,40.036,31.506,39.808L31.506,39.808z"/>
<path fill="#815C2D" d="M29.306,45.583c2.702-2.131,6.452-2.479,9.353-0.547c0.661,0.438-0.29,0.92-0.793,0.586
	c-2.403-1.602-5.487-1.047-7.663,0.668C29.76,46.637,28.753,46.015,29.306,45.583L29.306,45.583z"/>
<path fill="#815C2D" d="M38.672,46.773c-2.949-1.153-5.158,1.34-5.447,4.093c-0.045,0.432-1.195,0.168-1.146-0.308
	c0.388-3.695,3.622-5.673,7.063-4.324C39.885,46.524,39.214,46.986,38.672,46.773L38.672,46.773z"/>
<path fill="#815C2D" d="M60.129,33.807c0.102,1.285-0.605,2.474-1.883,2.799c-0.246,0.062-0.596-0.063-0.813-0.159
	c-0.098-0.042-0.398-0.203-0.154-0.266c1.193-0.304,1.771-1.533,1.684-2.688C58.954,33.376,60.106,33.487,60.129,33.807
	L60.129,33.807z"/>
<path fill="#815C2D" d="M62.024,35.887c0.004,1.587-1.303,2.604-2.666,3.141c-0.426,0.169-1.365-0.442-0.695-0.707
	c1.064-0.42,2.188-1.307,2.188-2.554C60.846,35.216,62.024,35.437,62.024,35.887L62.024,35.887z"/>
<path fill="#815C2D" d="M64,38.364c-0.502,1.666-1.912,2.91-3.633,3.177c-0.582,0.09-1.187-0.738-0.4-0.859
	c1.382-0.215,2.472-1.32,2.865-2.63C62.999,37.503,64.165,37.822,64,38.364L64,38.364z"/>
<path fill="#815C2D" d="M65.641,40.814c-0.646,1.693-2.123,2.833-3.895,3.149c-0.342,0.063-1.375-0.481-0.727-0.6
	c1.582-0.285,2.877-1.366,3.447-2.865C64.62,40.119,65.772,40.47,65.641,40.814L65.641,40.814z"/>
<path fill="#815C2D" d="M56.542,35.786c-1,2.502-3.485,3.553-5.953,4.126c-3.363,0.785-6.905,0.795-10.289,0.129
	c-0.492-0.097-1.01-0.669-0.196-0.508c3.172,0.625,6.375,0.549,9.537-0.113c2.367-0.497,4.779-1.569,5.73-3.946
	C55.5,35.144,56.649,35.51,56.542,35.786L56.542,35.786z"/>
<path fill="#815C2D" d="M59.139,40c-2.088,3.45-6.436,4.784-10.184,5.438c-3.519,0.613-7.691,0.542-10.417-2.084
	c-0.498-0.482,0.653-0.5,0.945-0.221c2.678,2.582,6.917,2.082,10.249,1.352c3.166-0.697,6.574-2.061,8.322-4.952
	C58.268,39.183,59.403,39.564,59.139,40L59.139,40z"/>
<path fill="#815C2D" d="M60.792,43.67c-3.854,5.677-11.065,6.976-17.472,6.138c-0.594-0.078-0.945-0.824-0.142-0.72
	c6.126,0.803,12.857-0.484,16.533-5.895C59.958,42.831,61.086,43.236,60.792,43.67L60.792,43.67z"/>
<path fill="#815C2D" d="M61.554,49.917c-3.802,2.35-7.72,4.301-12.247,4.594c-4.354,0.279-8.956-0.442-12.777-2.617
	c-0.693-0.396-0.059-0.939,0.5-0.624c3.611,2.056,7.754,2.623,11.856,2.45c4.323-0.182,8.153-2.219,11.757-4.44
	C61.043,49.034,62.09,49.586,61.554,49.917L61.554,49.917z"/>
<path fill="#815C2D" d="M63.629,53.684c-2.242,1.559-4.023,3.52-6.711,4.32c-3.049,0.912-6.373,0.731-9.515,0.711
	c-3.026-0.018-6.031-0.221-9.002-0.818c-2.223-0.447-5.104-1.115-6.44-3.135c-0.31-0.467,0.872-0.372,1.092-0.04
	c1.427,2.153,5.183,2.563,7.512,2.901c2.8,0.412,5.64,0.401,8.462,0.418c2.684,0.015,5.455-0.047,8.01-0.963
	c2.168-0.773,3.808-2.687,5.666-3.978C63.036,52.875,64.11,53.353,63.629,53.684L63.629,53.684z"/>
<path fill="#FFFFFF" toFill="#007BC3" stroke="#815C2D" stroke-width="0.3025" d="M63.67,56.708c0,0,1.813,11.295-2.219,19.563
	l0.402,2.621c0,0,2.018,1.211-4.234,0.401c-6.254-0.806-6.658,2.424-6.455-3.228c0.199-5.646,0.402-9.479-4.64-9.276
	s-4.638,7.867-4.033,9.276c0.604,1.412,2.217,3.834-0.605,3.634c-2.825-0.203-7.06,0.807-7.06,0.807s-5.446,1.813-2.622-24.002
	C32.208,56.506,44.709,63.767,63.67,56.708z"/>
<path fill="#FFFFFF" toFill="#FACB99" stroke="#815C2D" stroke-width="0.3025" d="M38.646,47.084c0,0-3.698,2.262-2.751,4.978
	c0.946,2.717,5.854,3.979,5.977,1.812c0,0,1.419-1.56,0.64-2.269c0,0,1.969-1.483,1.083-2.39c-0.888-0.902-2.388-1.082-2.616-1.719
	c-0.23-0.636,1.774,1.81,2.104,0.352C43.413,46.39,41.146,45.75,38.646,47.084z"/>
<path fill="#FFFFFF" toFill="#FACB99" stroke="#F6B59D" stroke-width="0.3025" d="M59.862,22.289c2.938-4.754,9.014-1.185,5.699,3.416
	c-3.607,5.531-8.156,0.396-4.664-4.217"/>
<path fill="#FACB99" stroke="#815C2D" stroke-width="0.3025" d="M59.793,22.26c1.117-1.713,3.018-2.81,5.021-1.943
	c1.938,0.837,2.166,3.236,1.16,4.881c-1.035,1.694-3.033,3.912-5.148,2.49c-2.111-1.418-1.188-4.574,0.004-6.229
	c0.027-0.041,0.17,0.01,0.135,0.059c-1.123,1.561-1.74,3.61-0.719,5.386c1.582,2.749,4.332,0.112,5.432-1.496
	c1.07-1.565,1.082-3.704-0.582-4.843c-1.909-1.307-4.094,0.114-5.165,1.754C59.903,22.36,59.761,22.311,59.793,22.26L59.793,22.26z"
	/>
<path fill="#FFFFFF" toFill="#FACB99" stroke="#F6B59D" stroke-width="0.3025" d="M41.083,9.497
	c5.121-2.182,12.783,0.731,17.035,4.249c7.324,5.848,4.01,18.087-4.125,21.392c-7.796,2.917-18.332,3.117-23.393-4.163
	c-5.257-7.449-3.158-16.328,5.337-19.658c2.121-0.877,4.421-1.769,6.736-2.479"/>
<path fill="#FACB99" stroke="#815C2D" stroke-width="0.3025" d="M41.016,9.472c5.568-2.215,12.412,0.591,16.861,4.03
	c4.828,3.734,5.396,10.175,2.785,15.415c-2.809,5.643-8.953,7.695-14.889,8.073c-5.628,0.357-11.429-1.032-15.003-5.695
	c-3.033-3.957-4.106-9.335-1.903-13.918c2.487-5.172,8.696-6.986,13.747-8.567c0.031-0.009,0.159,0.042,0.121,0.055
	c-3.875,1.211-8.217,2.506-11.278,5.293c-2.406,2.189-3.627,5.33-3.645,8.545c-0.019,3.617,1.714,7.233,4.138,9.851
	c2.877,3.104,7.176,4.298,11.285,4.44c6.714,0.231,13.974-1.852,17.281-8.115c1.375-2.6,1.872-5.645,1.413-8.543
	c-0.564-3.582-2.938-6.133-5.879-8.047C51.888,9.579,46,7.595,41.155,9.52C41.113,9.536,41.005,9.475,41.016,9.472L41.016,9.472z"/>
<path fill="#815C2D" d="M62.532,24.918c0.58-0.837,1.352-2.099,2.522-2.018c0.149,0.011,0.237,0.189,0.036,0.175
	c-1.023-0.071-1.789,1.238-2.289,1.96C62.743,25.124,62.458,25.024,62.532,24.918L62.532,24.918z"/>
<path fill="#815C2D" d="M47.545,25.581c0.654,0.085,1.326,0,1.732-0.57c0.313-0.44,0.309-1.052,0.197-1.557
	c-0.104-0.474-0.354-0.973-0.766-1.25c-0.563-0.381-1.133,0.199-1.442,0.628c-0.062,0.083-0.343-0.017-0.271-0.115
	c0.373-0.517,0.893-0.937,1.562-0.759c0.575,0.155,0.937,0.722,1.129,1.248c0.22,0.599,0.222,1.303-0.099,1.862
	c-0.399,0.697-1.291,0.772-2.004,0.679C47.442,25.728,47.342,25.555,47.545,25.581L47.545,25.581z"/>
<g>
	<path fill="#815C2D" d="M52.766,20.124c0.538,0.469,0.77,2.271-0.471,1.955c-1.232-0.316-0.527-3.197,0.592-1.661"/>
	<g>
		<path fill="#815C2D" d="M52.959,19.983c0.471,0.439,0.713,1.317,0.418,1.915c-0.336,0.686-1.342,0.5-1.754-0.008
			c-0.391-0.483-0.354-1.281-0.041-1.789c0.412-0.674,1.191-0.248,1.551,0.226c0.229,0.3-0.322,0.413-0.492,0.188
			c-0.236-0.313-0.416-0.438-0.596-0.018c-0.152,0.364-0.145,0.814,0.043,1.163c0.221,0.404,0.691,0.233,0.789-0.147
			c0.096-0.372-0.021-0.973-0.311-1.243C52.28,19.998,52.739,19.772,52.959,19.983L52.959,19.983z"/>
	</g>
</g>
<g>
	<path fill="#815C2D" d="M42.44,21.362c0.538,0.468,0.768,2.271-0.469,1.955c-1.235-0.317-0.53-3.198,0.59-1.661"/>
	<g>
		<path fill="#815C2D" d="M42.637,21.22c0.469,0.439,0.713,1.316,0.418,1.915c-0.34,0.688-1.345,0.5-1.757-0.009
			c-0.39-0.482-0.352-1.28-0.041-1.789c0.411-0.673,1.191-0.245,1.55,0.227c0.227,0.3-0.323,0.414-0.494,0.188
			c-0.237-0.311-0.416-0.436-0.594-0.016c-0.154,0.364-0.144,0.814,0.043,1.162c0.218,0.406,0.691,0.234,0.787-0.146
			c0.095-0.372-0.02-0.973-0.308-1.243C41.955,21.237,42.414,21.01,42.637,21.22L42.637,21.22z"/>
	</g>
</g>
<path fill="#FFFFFF" toFill="#F6B59D" d="M39.441,24.068c6.438-0.684,3.475,7.146-0.272,5.478c-5.099-2.141,1.899-8.891,3.415-4.563"
	/>
<path fill="#FFFFFF" toFill="#F6B59D" d="M52.782,23.749c6.439-0.684,3.477,7.146-0.271,5.479c-5.101-2.143,1.897-8.893,3.413-4.563"
	/>
<path fill="#FFFFFF" toFill="#004A99" stroke="#815C2D" stroke-width="0.25" stroke-miterlimit="10" d="M61.802,70.272
	c-0.832-0.164-1.822-0.164-2.65,0c0.162,1.323,0.162,2.815-0.995,3.642C60.97,74.248,62.127,73.087,61.802,70.272"/>
<path fill="#815C2D" d="M62.36,45.818c0,0-1.463-0.149-0.652-1.815c0.806-1.665,2.191-0.629,2.191-0.629s2.396-0.958,3.303,0.252
	c0.906,1.209,0.051,7.438-3.682,6.604c0,0-2.672-0.78-1.791-2.019c0,0-0.178-0.228-0.076-0.629c0.104-0.402,0.656-0.605,0.656-0.605
	S61.426,46.247,62.36,45.818z"/>
<ellipse fill="#FFFFFF" toFransform="matrix(0.4855 -0.8742 0.8742 0.4855 -6.5957 77.5924)" toFill="#FACB99" stroke="#FACB99" stroke-width="0.3025" cx="62.625" cy="44.4" rx="1.161" ry="0.655"/>
<path fill="#FFFFFF" toFill="#FACB99" stroke="#FACB99" stroke-width="0.3025" d="M66.899,47.282c0,0-1.388,4.788-4.939,1.788
	c0,0-0.176-0.302-0.102-0.479c0.076-0.178,1.588,0.15,1.588,0.15s-1.313-0.58-1.41-0.908c-0.104-0.328,0.377-0.604,1.988-0.377
	c0,0-1.513-0.479-1.537-1.16c-0.023-0.68,2.547-0.479,2.547-0.479l0.682-0.074c0,0-0.605-0.656-1.26-0.506
	c-0.656,0.151-1.285-0.529-0.479-1.211C64.78,43.346,68.487,41.959,66.899,47.282z"/>
<path fill="#815C2D" d="M61.543,69.929c-0.064,0.146-0.084,0.307-0.15,0.452c-0.094,0.205-0.525,0.08-0.438-0.116
	c0.065-0.146,0.086-0.308,0.149-0.454C61.202,69.605,61.633,69.729,61.543,69.929L61.543,69.929z"/>
<path fill="#815C2D" d="M60.258,70.002c-0.063,0.137-0.074,0.272-0.074,0.42c0,0.193-0.438,0.104-0.438-0.049
	c0-0.172,0.006-0.332,0.074-0.488C59.893,69.725,60.327,69.861,60.258,70.002L60.258,70.002z"/>
<path fill="#815C2D" d="M58.895,71.418c0.018,0.033,0.035,0.062,0.061,0.084c0.045,0.033,0.049,0.039,0.01,0.017
	c0.096,0.004,0.223,0.037,0.291,0.104c0.074,0.069-0.063,0.078-0.104,0.076c-0.266-0.013-0.553-0.115-0.688-0.354
	c-0.041-0.072,0.158-0.053,0.178-0.049C58.717,71.311,58.852,71.34,58.895,71.418L58.895,71.418z"/>
<path fill="#815C2D" d="M58.29,72.633c0.262,0,0.529,0.005,0.773,0.113c0.039,0.017,0.193,0.09,0.123,0.15
	c-0.066,0.063-0.216,0.025-0.287-0.006c-0.131-0.061-0.293-0.04-0.436-0.04c-0.096,0-0.229-0.035-0.291-0.112
	C58.108,72.661,58.231,72.633,58.29,72.633L58.29,72.633z"/>
<path fill="#815C2D" d="M59.502,73.937c-0.064,0.123-0.145,0.229-0.241,0.326c-0.104,0.104-0.517-0.06-0.407-0.166
	c0.084-0.085,0.154-0.173,0.211-0.277C59.139,73.676,59.563,73.825,59.502,73.937L59.502,73.937z"/>
<path fill="#815C2D" d="M60.413,73.788c-0.01,0.137-0.07,0.227-0.164,0.318c-0.082,0.083-0.488-0.074-0.412-0.152
	c0.084-0.086,0.131-0.162,0.139-0.285C59.977,73.581,60.417,73.661,60.413,73.788L60.413,73.788z"/>
<path fill="#815C2D" d="M61.725,71.863c0.145,0.065,0.301,0.08,0.426,0.183c0.23,0.188-0.123,0.322-0.287,0.188
	c-0.078-0.064-0.23-0.079-0.328-0.122c-0.076-0.032-0.174-0.133-0.104-0.219C61.497,71.806,61.639,71.827,61.725,71.863
	L61.725,71.863z"/>
<path fill="#815C2D" d="M61.272,72.894c0.236-0.104,0.541-0.104,0.752,0.063c0.063,0.051,0.063,0.101-0.025,0.104
	c-0.098,0.011-0.232-0.021-0.313-0.082c0.043,0.011,0.086,0.019,0.127,0.026c-0.045,0.006-0.088,0.02-0.129,0.037
	c-0.089,0.039-0.199,0.014-0.285-0.02C61.387,73.021,61.194,72.929,61.272,72.894L61.272,72.894z"/>
<path fill="#815C2D" d="M42.896,30.311c0,0,1.288-1.514,1.588-1.438c0.302,0.076,1.36,1.664,1.36,2.042s0.982,0,0.908,0.605
	c-0.076,0.604,2.043-0.681,2.496,0.529c0,0-0.354-0.555-2.271-0.201c0,0-0.201,0.051-0.706-0.151
	c-0.505-0.202-1.26,0.151-2.42,0.655c-1.162,0.505-1.815,0.454-1.563-0.454C42.542,30.99,42.896,30.311,42.896,30.311z"/>
<polygon fill="#FFFFFF" points="45.118,31.093 44.458,31.041 44.508,31.446 45.118,31.395 "/>
<path fill="#FFFFFF" d="M44.561,30.033c0,0,0.454-0.049,0.557,0.102c0.102,0.152-0.053,0.505-0.053,0.505l-0.454-0.102
	L44.561,30.033z"/>
<path fill="#FFFFFF" d="M43.905,31.093l0.102,0.604l-1.159,0.454C42.847,32.152,43.25,31.395,43.905,31.093z"/>
<path fill="#FFFFFF" d="M44.057,30.033l-0.104,0.556L43.4,30.64C43.402,30.639,43.704,30.185,44.057,30.033z"/>
<path fill="#815C2D" d="M50.229,19.738c1.164-1.191,2.254-2.45,3.43-3.631c0.063-0.064,0.229-0.042,0.266,0.048
	c0.229,0.615,0.557,1.178,0.615,1.841c0.012,0.139-0.277,0.091-0.289-0.026c-0.059-0.645-0.373-1.195-0.598-1.791
	c0.09,0.016,0.18,0.032,0.268,0.049c-1.172,1.182-2.266,2.439-3.428,3.63C50.407,19.944,50.133,19.832,50.229,19.738L50.229,19.738z
	"/>
<path fill="#815C2D" d="M44.327,21.303c-0.771-0.037-1.256-0.536-1.65-1.153c-0.572-0.897-0.995-2.256-2.29-1.486
	c-0.095,0.057-0.353-0.076-0.224-0.151c2.333-1.39,2.228,2.517,4.13,2.604C44.445,21.124,44.521,21.311,44.327,21.303L44.327,21.303
	z"/>
<path fill="#FFFFFF" toFill="#FACB99" stroke="#F6B59D" stroke-width="0.3025" d="M25.444,30.141c0.001-0.001,0.003-0.002,0.005-0.002
	c1.257-0.486,2.388-1.223,3.121-2.378c0.203-0.321,0.426-0.662,0.622-1.016c-0.013-0.093-0.017-0.188-0.013-0.292
	c0.055-1.284-0.43-3.217-1.757-3.742c-2.826-0.51-5.867,0.446-5.773,3.664C21.724,29.524,23.5,30.472,25.444,30.141z"/>
<path fill="#FACB99" stroke="#815C2D" stroke-width="0.3025" d="M25.403,30.09c0.679-0.317,1.316-0.622,1.921-1.065
	c0.604-0.442,1.817-1.721,1.781-2.576c-0.039-0.89-0.14-1.655-0.512-2.486c-0.61-1.362-2.094-1.388-3.343-1.28
	c-2.091,0.181-3.5,1.602-3.528,3.698c-0.029,2.263,1.315,4.028,3.697,3.705c0.075-0.01,0.148,0.099,0.05,0.111
	c-1.616,0.22-3.173-0.428-3.637-2.122c-0.677-2.475,0.075-4.681,2.663-5.38c1.933-0.521,3.955-0.171,4.524,1.97
	c0.355,1.34,0.335,2.001-0.382,3.129c-0.762,1.201-1.904,1.817-3.151,2.398C25.423,30.222,25.318,30.128,25.403,30.09z"/>
<path fill="#815C2D" d="M27.402,25.411c-1.174-0.642-2.921-1.184-3.992-0.083c-0.085,0.088-0.363-0.025-0.269-0.123
	c1.17-1.204,3.093-0.653,4.386,0.053C27.704,25.353,27.542,25.487,27.402,25.411L27.402,25.411z"/>
<path fill="#FFFFFF" toFill="#231F20" stroke="#815C2D" stroke-width="0.25" d="M26.771,22.823c0.156-1.209,0.939-4.236,1.879-5.898
	c1.253-1.968,2.348-3.025,4.227-4.236c1.879-1.06,4.54-2.42,1.252-4.084c0.627,0.302,1.096,0.302,1.565,0.755
	c0-0.907,0.314-1.966,0.939-2.722c0.157,0.906,0.157,1.814,0.157,2.721c0.94-1.512,2.035-2.722,3.444-3.781
	c-0.783,0.605-1.565,2.419-1.409,3.781c2.035,0.303,4.542-0.454,6.577-0.604c2.349-0.15,4.228,0.454,6.417,1.212
	c5.166,1.966,9.238,5.294,10.178,10.738c-0.156-1.512-1.41-3.479-2.977-4.084c0.156,1.211,0.156,2.42,0,3.63
	c0.156-1.36-0.625-2.57-1.408-3.78c0,2.57-0.783,3.63-2.662,5.444c0.471-4.083-0.313-10.891-6.104-10.589
	c-0.313,1.966,0.156,3.782-0.781,5.748c-0.939,1.665-2.818,3.934-4.541,4.841c0.626-1.512,0.626-3.328,0-4.688
	c-2.35,2.875-4.072,4.388-7.517,6.051c0.782-0.604,1.408-1.361,1.722-2.419c-1.566,1.512-2.818,2.723-4.697,3.63
	c-1.566,0.756-3.288,1.059-3.288,3.176c0,0-0.626,0-0.469,0c-0.157-1.813,0-4.688-2.505-4.991"/>
<path fill="#815C2D" d="M30.854,12.735c0.31-0.639,0.413-1.248,0.426-1.953c0.029-1.444-1.339-0.491-2.098-0.065
	c-0.039,0.021-0.271-0.017-0.238-0.077c0.354-0.666,0.689-1.674,1.104-2.057c-0.81,0.747-1.734,1.359-2.546,2.107
	c-0.04,0.037-0.254-0.01-0.238-0.076c0.63-2.662,2.004-4.96,3.424-7.266c0.237-0.387,1.125-1.325,0.25-0.349
	c-0.507,0.566-1.014,1.13-1.521,1.696c-1.014,1.131-2.027,2.262-3.041,3.393c-0.037,0.042-0.261-0.019-0.239-0.076
	c0.749-1.955,1.744-3.778,2.738-5.616c0.08,0.021,0.161,0.043,0.241,0.063c-0.178,0.314-0.361,0.625-0.551,0.932
	c-0.276,0.455-0.57,0.899-0.86,1.346c-0.685,1.052-1.361,2.101-1.966,3.203c-0.033,0.059-0.254,0.002-0.248-0.066
	c0.142-1.408,0.551-2.711,1.087-4.017c0.273-0.661,0.597-1.302,0.919-1.939c0.54-1.068,0.111-0.182-0.244,0.242
	c-1.629,1.945-2.877,4.137-4.885,5.744c-0.057,0.044-0.276-0.052-0.231-0.088c2.375-1.9,3.791-4.639,5.852-6.834
	c0.039-0.042,0.266,0.026,0.239,0.077c-1.075,2.029-2.078,4.094-2.441,6.382c0.116-0.728,0.96-1.679,1.379-2.324
	c0.685-1.052,1.361-2.102,1.966-3.202c0.037-0.065,0.271,0.021,0.246,0.066c-0.5,0.931-1.009,1.859-1.501,2.795
	c-0.432,0.821-0.776,2.157-1.354,2.803c1.647-1.838,3.295-3.676,4.942-5.513c0.039-0.044,0.265,0.031,0.239,0.076
	c-1.113,1.863-2.305,3.673-3.223,5.644c-0.214,0.46-0.388,0.937-0.559,1.411c-0.066,0.183-0.188,0.979-0.319,1.1
	c0.81-0.746,1.735-1.359,2.546-2.107c0.043-0.039,0.268,0.033,0.239,0.077c-0.374,0.563-0.607,1.898-1.187,2.224
	c0.607-0.34,1.31-0.549,1.975-0.742c0.048-0.014,0.209,0.007,0.222,0.072c0.212,1.02,0.161,2.034-0.301,2.982
	C31.066,12.868,30.832,12.784,30.854,12.735L30.854,12.735z"/>
<path fill="#815C2D" d="M26.801,15.046c-0.403-0.597-0.782-1.21-1.121-1.846c-0.175-0.386-0.179-0.372-0.011,0.043
	c-0.033,0.31-0.083,0.614-0.149,0.919c-0.146,0.772-0.322,1.507-0.371,2.295c-0.003,0.043-0.231-0.008-0.244-0.055
	c-0.072-0.259-0.702-2.282-0.678-2.312c-0.292,0.36-0.194,0.992-0.689,1.173c-0.049,0.018-0.216-0.003-0.237-0.063
	c-0.134-0.396-0.283-0.786-0.439-1.176c-0.054-0.137-0.109-0.273-0.163-0.41c-0.235-0.42-0.231-0.507,0.015-0.262
	c0.119,1.14-0.301,2.366-0.37,3.507c-0.003,0.045-0.229-0.012-0.244-0.056c-0.297-0.811-0.492-1.624-0.633-2.474
	c-0.084-0.523-0.117-1.057-0.151-1.586c-0.007-0.176-0.014-0.352-0.021-0.528c-0.146-0.527-0.086-0.655,0.178-0.388
	c-0.254,2.209-0.542,4.416-0.796,6.625c-0.005,0.044-0.242-0.006-0.247-0.064c-0.139-2.271-0.134-4.547-0.224-6.821
	c-0.034-0.863,0.124-0.608,0.025,0.016c-0.086,0.555-0.194,1.104-0.299,1.653c-0.256,1.345-0.563,2.68-0.861,4.015
	c-0.012,0.051-0.24-0.011-0.246-0.064c-0.098-0.827-0.191-1.654-0.264-2.483c-0.046-0.52-0.066-1.041-0.084-1.561
	c-0.013-0.362,0.243-1.083,0.028-0.314c-0.36,1.288-0.435,2.647-0.823,3.927c-0.015,0.053-0.26-0.019-0.246-0.065
	c0.461-1.519,0.542-3.124,1.039-4.639c0.016-0.051,0.246,0.01,0.246,0.064c-0.009,0.887,0.021,1.77,0.085,2.654
	c0.027,0.335,0.059,0.669,0.094,1.005c0.008,0.073-0.052,1.303,0.054,0.833c0.456-2.04,0.895-4.082,1.189-6.151
	c0.006-0.045,0.242,0.007,0.246,0.065c0.15,2.458,0.13,4.921,0.252,7.38c-0.013-0.245-0.059-0.833-0.012-1.22
	c0.065-0.542,0.132-1.085,0.199-1.628c0.159-1.291,0.316-2.58,0.466-3.873c0.004-0.042,0.245,0.006,0.245,0.065
	c-0.018,1.583,0.099,3.124,0.488,4.665c0.279,1.111,0.183-0.289,0.241-0.674c0.122-0.812,0.238-1.578,0.153-2.399
	c-0.004-0.031,0.226,0.006,0.243,0.058c0.073,0.213,0.884,2.124,0.918,2.083c0.291-0.36,0.193-0.993,0.688-1.173
	c0.047-0.018,0.221,0.004,0.237,0.063c0.12,0.427,0.221,0.857,0.32,1.289c0.026,0.11,0.075,1.262,0.108,0.73
	c0.067-1.085,0.451-2.123,0.52-3.214c0.002-0.046,0.228,0.012,0.244,0.056c0.322,0.845,0.841,1.616,1.345,2.362
	C27.059,15.113,26.841,15.105,26.801,15.046L26.801,15.046z"/>
<path fill="#FFFFFF" stroke="#815C2D" stroke-width="0.1698" stroke-linecap="round" stroke-linejoin="round" d="M39.307,24.009
	c1.913-0.171,4.252,0.409,4.053,2.782c-0.154,1.869-2.037,3.555-3.927,2.906c-2.451-0.839-2.838-3.121-1.131-4.976
	c1.312-1.427,3.636-1.812,4.44,0.291c0.019,0.049-0.287,0.019-0.317-0.062c-0.877-2.288-3.202-1.021-4.246,0.397
	c-1.164,1.581-0.723,3.37,1.082,4.179c3.248,1.458,6.323-5.938,0.313-5.4C39.5,24.136,39.229,24.015,39.307,24.009L39.307,24.009z"
	/>
<path fill="#FFFFFF" stroke="#815C2D" stroke-width="0.1698" stroke-linecap="round" stroke-linejoin="round" d="M52.726,23.633
	c2.022-0.182,4.272,0.555,3.957,2.983c-0.248,1.909-2.146,3.438-4.041,2.789c-5.726-1.96,1.707-9.274,3.438-4.759
	c0.066,0.175-0.258,0.173-0.311,0.038c-0.813-2.123-2.932-1.211-4.055,0.103c-1.418,1.655-0.982,3.724,1.143,4.45
	c1.643,0.563,3.063-0.978,3.445-2.421c0.609-2.298-1.563-3.117-3.467-2.947C52.679,23.884,52.506,23.653,52.726,23.633
	L52.726,23.633z"/>
</svg>
