<svg version="1.1" id="svg_1" xmlns="http://www.w3.org/2000/svg" xmlns:xlink="http://www.w3.org/1999/xlink" x="0px" y="0px"
	 width="85.04px" height="85.04px" viewBox="0 0 85.04 85.04" enable-background="new 0 0 85.04 85.04" xml:space="preserve">
<linearGradient id="SVGID_1_" gradientUnits="userSpaceOnUse" x1="34.854" y1="73.1743" x2="49.0532" y2="73.1743" gradientTransform="matrix(1 0 0 -1 20.835 97.9951)">
	<stop  offset="0.073" style="stop-color:#E990A3"/>
	<stop  offset="0.235" style="stop-color:#EBA1B3"/>
	<stop  offset="0.499" style="stop-color:#EEB6C8"/>
	<stop  offset="0.757" style="stop-color:#EFC3D4"/>
	<stop  offset="1" style="stop-color:#F0C7D8"/>
</linearGradient>
<path fill="url(#SVGID_1_)" stroke="#B368A6" stroke-width="0.4016" stroke-linecap="round" stroke-linejoin="round" d="
	M67.547,23.021c-4.747-3.765-9.804-1.443-9.804-1.443c-0.822,0.324-1.499,0.789-2.055,1.332c1.146,1.5,3.188,4.219,4.153,5.863
	c0.043-0.016,0.069-0.023,0.069-0.023c1.236-0.515,7.481-0.463,7.481-0.463C72.916,27.771,67.547,23.021,67.547,23.021z"/>
<path fill="#EBF2F6" stroke="#58B4C4" stroke-width="0.4016" stroke-linecap="round" stroke-linejoin="round" d="M53.151,28.906
	c0,0,2.581,3.302,2.479,2.32c-0.021-0.187,0.125-0.394,0.374-0.606c-0.653-1.117-1.553-2.492-2.553-3.54
	C53.188,28.135,53.151,28.906,53.151,28.906z"/>
<path fill="#EBF2F6" stroke="#58B4C4" stroke-width="0.4016" stroke-linecap="round" stroke-linejoin="round" d="M54.565,24.331
	c1.091,1.256,3.146,3.69,3.914,4.967c0.642-0.266,1.185-0.461,1.365-0.524c-0.965-1.645-3.007-4.364-4.155-5.863
	C55.241,23.347,54.872,23.832,54.565,24.331z"/>
<path fill="#EBF2F6" stroke="#58B4C4" stroke-width="0.4016" stroke-linecap="round" stroke-linejoin="round" d="M54.068,25.284
	c-0.285,0.63-0.482,1.251-0.619,1.796c1,1.047,1.899,2.422,2.552,3.54c0.34-0.29,0.863-0.584,1.422-0.854
	C56.628,28.621,55.017,26.353,54.068,25.284z"/>
<path fill="#EBF2F6" stroke="#58B4C4" stroke-width="0.4016" stroke-linecap="round" stroke-linejoin="round" d="M57.422,29.767
	c0.352-0.171,0.718-0.33,1.055-0.469c-0.767-1.275-2.823-3.71-3.912-4.967c-0.189,0.315-0.355,0.634-0.499,0.953
	C55.017,26.353,56.628,28.621,57.422,29.767z"/>
<path fill="#F3E0EA" d="M65.461,22.959c-0.729-0.071,0.578,0.978,1.098,1.629c0.519,0.652,0.62,1.178,1.498,1.508
	c0.85,0.319,1.113-0.256,0.365-1.234C67.93,24.218,66.187,23.034,65.461,22.959z"/>
<path fill="#97609D" d="M63.196,37.897c-1.047-2.473-2.894-4.431-4.314-5.677c-1.359,0.209-4.111,0.684-5.974,1.386l2.764,4.935
	C57.717,38.193,60.909,37.749,63.196,37.897z"/>
<path fill="#97609D" d="M56.916,30.711c-5.417-3.354-5.727-8.822-5.727-8.822l-2.013,5.055l3.152,5.629
	c1.528-0.467,3.731-1.053,5.53-1.189C57.288,30.946,56.916,30.711,56.916,30.711z"/>
<path fill="#97609D" d="M56.209,39.5l3.08,5.504c0.724-1.442,1.964-1.081,1.964-1.081c2.941,0.462,4.127-0.413,4.127-0.413
	c-0.412-0.311-1.494-3.305-1.494-3.305c-0.052-0.273-0.112-0.541-0.178-0.806C61.645,39.273,58.614,39.183,56.209,39.5z"/>
<path fill="#F1C43A" d="M57.857,31.383c-1.797,0.137-4,0.723-5.528,1.189l0.579,1.035c1.862-0.702,4.614-1.178,5.974-1.386
	C58.501,31.892,58.156,31.608,57.857,31.383z"/>
<path fill="#F1C43A" d="M55.671,38.542l0.536,0.958c2.404-0.317,5.438-0.226,7.499-0.1c-0.135-0.52-0.309-1.021-0.514-1.504
	C60.909,37.749,57.717,38.193,55.671,38.542z"/>
<path fill="none" stroke="#B368A6" stroke-width="0.4016" stroke-linecap="round" stroke-linejoin="round" d="M63.886,40.206
	c-0.052-0.273-0.112-0.541-0.178-0.806c-0.135-0.52-0.309-1.021-0.513-1.504c-1.047-2.473-2.894-4.431-4.314-5.677
	c-0.38-0.331-0.726-0.613-1.024-0.839c-0.569-0.437-0.941-0.672-0.941-0.672c-5.417-3.354-5.727-8.822-5.727-8.822l-2.013,5.055
	l3.152,5.629l0.579,1.035l2.764,4.935l0.536,0.958l3.082,5.504c0.724-1.442,1.962-1.082,1.962-1.082
	c2.941,0.463,4.127-0.412,4.127-0.412C64.968,43.2,63.886,40.206,63.886,40.206z"/>
<linearGradient id="SVGID_2_" gradientUnits="userSpaceOnUse" x1="-1.0869" y1="43.9663" x2="47.0883" y2="71.7803" gradientTransform="matrix(1 0 0 -1 20.835 97.9951)">
	<stop  offset="0.073" style="stop-color:#E990A3"/>
	<stop  offset="0.235" style="stop-color:#EBA1B3"/>
	<stop  offset="0.499" style="stop-color:#EEB6C8"/>
	<stop  offset="0.757" style="stop-color:#EFC3D4"/>
	<stop  offset="1" style="stop-color:#F0C7D8"/>
</linearGradient>
<path fill="url(#SVGID_2_)" stroke="#B368A6" stroke-width="0.4016" stroke-linecap="round" stroke-linejoin="round" d="
	M52.206,20.044c0,0,3.745-1.335,5.831-3.684c1.021-1.153,2.42-3.277,0.86-5.773c-1.197-1.918-3.757-0.121-4.946,0.426
	c-1.705,0.784-3.965,1.396-4.882-0.286c-1.407-2.576-2.33-7.255-9.231-7.255c0,0-17.289,0.447-19.531,18.903
	c0,0-5.735,3.945-5.107,10.306c0,0,0.717,2.865,2.688,1.522c0,0,2.867-2.6,3.942-1.972c0,0,10.573,20.161,19.62,22.849
	c0,0,9.679,3.313,8.694,7.793c0,0,0.178,2.865-3.585,6.181c0,0-5.375-7.792-11.289-3.849c0,0,2.957,8.867,8.509,8.956
	c0,0-5.641,1.702-6.716,9.855c0,0,4.749,1.611,11.826-8.063c0,0,11.052-8.107,12.813-16.843c1.656-8.215,0.349-19.324-7.077-26.699
	C53.321,31.112,48.708,25.6,52.206,20.044z"/>
<path fill="none" stroke="#B368A6" stroke-width="0.4016" stroke-linecap="round" stroke-linejoin="round" d="M20.313,22.353
	c0.041,3.026,0.359,3.916,0.293,3.806"/>
<path fill="none" stroke="#B368A6" stroke-width="0.4016" stroke-linecap="round" stroke-linejoin="round" d="M21.914,32.349
	c0,0-0.337-1.005-0.561-1.912"/>
<path fill="none" stroke="#B368A6" stroke-width="0.4016" stroke-linecap="round" stroke-linejoin="round" d="M52.21,20.044
	c0,0-2.65,1.363-5.363,1.108c0,0-4.637-0.811-5.728-3.498"/>
<path fill="none" stroke="#B368A6" stroke-width="0.4016" stroke-linecap="round" stroke-linejoin="round" d="M37.494,15.705
	c0,0,1.8,1.849,2.663,1.849c0,0,2.124,0.483,3.8-1.113"/>
<ellipse fill="#882480" cx="40.113" cy="12.364" rx="0.986" ry="0.916"/>
<ellipse fill="#882480" cx="48.558" cy="10.953" rx="0.381" ry="0.582"/>
<path fill="#882480" d="M39.351,6.472c0,0-1.434-0.36-1.479,0.85c0,0-0.984-1.566,0.989-1.522L39.351,6.472z"/>
<linearGradient id="SVGID_3_" gradientUnits="userSpaceOnUse" x1="-0.6787" y1="94.147" x2="13.1351" y2="88.2832" gradientTransform="matrix(1 0 0 -1 20.835 97.9951)">
	<stop  offset="0.0393" style="stop-color:#F4B301"/>
	<stop  offset="0.404" style="stop-color:#F3B103"/>
	<stop  offset="0.6059" style="stop-color:#EEAB0B"/>
	<stop  offset="0.768" style="stop-color:#E6A019"/>
	<stop  offset="0.9081" style="stop-color:#DB902D"/>
	<stop  offset="1" style="stop-color:#D1823E"/>
</linearGradient>
<path fill="url(#SVGID_3_)" d="M36.499,3.755c0,0-6.169-6.869-15.643,0.785c0,0-4.737,3.958-1.095,6.248
	c0,0,1.803,1.229,4.271,1.094c1.662-0.091,4.112,1.561,5.413,3.694l-0.021-1.301c-1.086-1.757-3.285-3.512-4.664-3.437
	c-2.049,0.114-3.406-0.506-3.406-0.506c-3.037-1.888,0.913-5.146,0.913-5.146C30.164-1.118,34.533,4.26,34.533,4.26L36.499,3.755z"
	/>
<path fill="#CF6020" d="M36.599,3.727c-3.823-4.146-9.852-3.109-14.14-0.44c-1.586,0.987-5.283,3.9-4.016,6.192
	c0.628,1.139,1.825,1.86,3.082,2.159c1.413,0.336,2.907,0.181,4.271,0.726c1.503,0.6,2.661,1.949,3.547,3.243
	c0.03,0.045,0.208,0.014,0.208-0.048c-0.035-2.192-1.645-3.507-3.545-4.499c-2.016-1.051-7.314,0.123-5.231-4.013
	c2.217-4.404,10.184-6.877,13.655-2.754c0.026,0.033,0.104,0.015,0.137,0.006c0.656-0.169,1.31-0.336,1.966-0.505
	c0.146-0.038,0.02-0.096-0.069-0.073c-0.46,0.118-1.653,0.695-1.979,0.349c-0.43-0.458-0.958-0.81-1.497-1.125
	c-1.601-0.939-3.741-1.11-5.509-0.598c-2.535,0.736-5.002,2.147-6.625,4.267c-1.666,2.18-0.176,3.765,2.042,4.189
	c1.01,0.193,1.931-0.004,2.935,0.333c1.217,0.41,2.235,1.568,3.037,2.514c0.116,0.135,1.121,2.542,0.207,1.207
	c-0.624-0.909-1.53-1.592-2.427-2.203c-2.372-1.612-9.419-0.33-7.933-5.157c1.306-4.24,7.788-6.663,11.576-6.502
	c2.177,0.093,4.614,1.172,6.106,2.791C36.44,3.832,36.64,3.771,36.599,3.727z"/>
<circle fill="#EF9501" cx="31.659" cy="15.641" r="3.516"/>
<path fill="#CF6020" d="M35.067,15.648c-0.121,2.255-2.004,3.966-4.444,3.295c-1.472-0.405-2.293-1.879-2.37-3.307
	c-0.124-2.301,2.278-3.889,4.44-3.294C34.168,12.747,34.989,14.22,35.067,15.648c0.003,0.063,0.22,0.051,0.215-0.012
	c-0.25-4.629-6.999-4.603-7.249,0.012c-0.102,1.903,1.749,3.654,3.625,3.553c2.022-0.109,3.513-1.509,3.624-3.565
	C35.287,15.58,35.07,15.582,35.067,15.648z"/>
<ellipse fill="#FAD200" cx="31.681" cy="15.764" rx="3.271" ry="3.232"/>
<path fill="#CF6020" d="M34.848,15.738c-0.072,1.311-0.732,2.327-1.903,2.927c-2.179,1.115-4.316-0.779-4.429-2.876
	c-0.07-1.281,0.819-2.374,1.899-2.928C32.593,11.746,34.733,13.64,34.848,15.738c0.004,0.071,0.215,0.098,0.213,0.05
	c-0.233-4.23-6.524-4.345-6.758-0.05c-0.23,4.238,6.523,4.317,6.758,0.05C35.063,15.72,34.85,15.685,34.848,15.738z"/>
<circle fill="#F4B301" cx="31.559" cy="16.248" r="1.292"/>
<path fill="#CF6020" d="M32.743,16.264c-0.047,0.831-0.775,1.483-1.662,1.109c-0.454-0.191-0.68-0.678-0.708-1.141
	c-0.05-0.856,0.886-1.439,1.664-1.11C32.491,15.313,32.717,15.802,32.743,16.264c0.005,0.058,0.22,0.033,0.215-0.031
	c-0.102-1.763-2.7-1.693-2.8,0.031c-0.102,1.757,2.7,1.689,2.8-0.031C32.96,16.18,32.748,16.194,32.743,16.264z"/>
<ellipse fill="#FFFFFF" cx="39.708" cy="12.108" rx="0.221" ry="0.362"/>
<ellipse fill="#FFFFFF" cx="48.437" cy="10.677" rx="0.119" ry="0.159"/>
<path fill="#F3E0EA" d="M58.065,11.58c-0.185,0.39-0.637-0.162-1.015-0.346c-0.38-0.183-0.795-0.152-0.78-0.582
	c0.018-0.415,0.6-0.652,1.181-0.397C57.834,10.424,58.251,11.19,58.065,11.58z"/>
<path fill="#F3E0EA" d="M42.596,16.044c-0.187,0.389-0.636-0.161-1.017-0.346c-0.38-0.181-0.795-0.153-0.777-0.582
	c0.017-0.415,0.597-0.649,1.18-0.395C42.366,14.889,42.783,15.655,42.596,16.044z"/>
<path fill="#F3E0EA" d="M40.555,4.193c-0.7,0.22,0.914,0.675,1.646,1.073c0.734,0.395,1.027,0.841,1.967,0.804
	c0.906-0.037,0.926-0.669-0.144-1.277C43.32,4.389,41.254,3.977,40.555,4.193z"/>
<path fill="#ECF3FA" stroke="#58B4C4" stroke-width="0.4016" stroke-linecap="round" stroke-linejoin="round" d="M22.709,33.874
	c0,0,9.873,3.5,15.873,2.127c6.001-1.375,8.628-2.127,9.879-1.375c1.249,0.75,2.623,2.122,2.623,2.122l-1.124-3.373
	c0,0,0.123,0.125,1.249-1.375c1.125-1.499,0.625-3.625,0.625-3.625s6.375,5.125,8.251,8.373c1.877,3.253,2.503,7.377,2.503,7.377
	L63.21,48c0,0-4.373,4.625-12.251,6.751c-7.877,2.125-8.878,1.875-8.878,1.875S38.208,55,36.708,53.375
	C35.21,51.751,24.208,38.749,22.709,33.874z"/>
<path fill="#97609D" d="M43.84,41.521c-3.186,4.24-11.119,7.007-14.169,7.947c1.044,1.526,4.755,5.417,4.755,5.417
	c2.046-3.187,14.908-6.602,14.908-6.602C49.213,47.459,46.415,44.291,43.84,41.521z"/>
<path fill="#F1C43A" d="M43.84,41.521c-0.275-0.298-0.551-0.59-0.818-0.877c-1.464,1.538-6.438,6.204-13.948,7.53
	c0.236,0.509,0.343,0.848,0.343,0.848c0.04,0.105,0.128,0.259,0.254,0.446C32.719,48.528,40.652,45.76,43.84,41.521z"/>
<path fill="#97609D" d="M39.544,37.017c-0.582-0.659-1.251-1.169-1.965-1.568c-0.824,1.087-2.325,2.722-4,4.465
	c0.971,1.055,1.983,2.457,1.983,3.081c0,0,0.454,2.844-3.53,1.932c0,0-1.149-0.398-2.261-1.157c-0.773,0.769-1.506,1.49-2.145,2.109
	c0.693,0.823,1.165,1.683,1.445,2.295c7.51-1.326,12.484-5.993,13.948-7.53C41.126,38.628,39.544,37.017,39.544,37.017z"/>
<path fill="#97609D" d="M28.792,38.384c0,0,2.446,0,3.243,0.226c0.165,0.048,0.415,0.226,0.706,0.478
	c1.414-1.723,2.466-3.345,3.083-4.383c-3.878-1.194-7.171-0.332-8.381-0.31c-2.883,0.054-5.477-1.871-5.477-1.871l2.39,5.632
	l-0.287,5.406c0.925,0.229,1.709,0.652,2.372,1.167c0.85-0.508,1.651-1.084,2.407-1.701C27.703,41.917,27.069,40.347,28.792,38.384z
	"/>
<path fill="#F1C43A" d="M33.582,39.914c1.675-1.742,3.173-3.378,3.999-4.465c-0.563-0.314-1.153-0.561-1.757-0.745
	c-0.617,1.039-1.666,2.662-3.083,4.383C33,39.312,33.286,39.595,33.582,39.914z"/>
<path fill="#F1C43A" d="M28.846,43.028c-0.754,0.617-1.556,1.193-2.405,1.701c0.452,0.351,0.847,0.747,1.186,1.148
	c0.639-0.621,1.371-1.341,2.145-2.108C29.45,43.551,29.135,43.304,28.846,43.028z"/>
<path fill="none" stroke="#B368A6" stroke-width="0.4016" stroke-linecap="round" stroke-linejoin="round" d="M43.84,41.521
	c-0.275-0.298-0.551-0.59-0.818-0.877c-1.894-2.015-3.475-3.626-3.475-3.626c-0.584-0.659-1.251-1.169-1.966-1.568
	c-0.563-0.314-1.153-0.561-1.757-0.745c-3.878-1.195-7.171-0.333-8.381-0.31c-2.883,0.054-5.477-1.871-5.477-1.871l2.39,5.632
	l-0.287,5.406c0.925,0.229,1.709,0.652,2.372,1.168c0.452,0.351,0.847,0.747,1.186,1.148c0.693,0.823,1.165,1.684,1.447,2.294
	c0.234,0.509,0.343,0.849,0.343,0.849c0.04,0.105,0.128,0.258,0.254,0.445c1.044,1.526,4.755,5.417,4.755,5.417
	c2.046-3.187,14.908-6.602,14.908-6.602C49.213,47.459,46.415,44.291,43.84,41.521z"/>
<path fill="none" stroke="#B368A6" stroke-width="0.4016" stroke-linecap="round" stroke-linejoin="round" d="M28.846,43.028
	c-1.143-1.11-1.777-2.681-0.055-4.645c0,0,2.446,0,3.243,0.226c0.165,0.048,0.415,0.225,0.706,0.478
	c0.259,0.224,0.545,0.508,0.841,0.826c0.971,1.055,1.981,2.457,1.981,3.081c0,0,0.454,2.844-3.528,1.933
	c0,0-1.151-0.399-2.263-1.157C29.45,43.551,29.135,43.304,28.846,43.028z"/>
<linearGradient id="SVGID_4_" gradientUnits="userSpaceOnUse" x1="-4.6509" y1="55.8579" x2="6.7056" y2="55.8579" gradientTransform="matrix(1 0 0 -1 20.835 97.9951)">
	<stop  offset="0.073" style="stop-color:#E990A3"/>
	<stop  offset="0.235" style="stop-color:#EBA1B3"/>
	<stop  offset="0.499" style="stop-color:#EEB6C8"/>
	<stop  offset="0.757" style="stop-color:#EFC3D4"/>
	<stop  offset="1" style="stop-color:#F0C7D8"/>
</linearGradient>
<path fill="url(#SVGID_4_)" stroke="#B368A6" stroke-width="0.4016" stroke-linecap="round" stroke-linejoin="round" d="
	M26.583,38.022c-3.515-0.271-7.025,0.534-7.025,0.534c-7.168,2.333-0.682,6.829-0.682,6.829c2.483,1.645,5.878,0.819,8.565-0.384
	C27.79,41.849,27.158,39.453,26.583,38.022z"/>
<path fill="#EBF2F6" stroke="#58B4C4" stroke-width="0.4016" stroke-linecap="round" stroke-linejoin="round" d="M31.792,39.752
	c-0.669-0.548-1.484-0.939-2.364-1.215c0.226,1.498,0.215,3.68,0.159,5.362c1.292-0.755,2.148-1.419,2.205-1.53
	C31.961,42.029,31.792,39.752,31.792,39.752z"/>
<path fill="#EBF2F6" stroke="#58B4C4" stroke-width="0.4016" stroke-linecap="round" stroke-linejoin="round" d="M29.428,38.537
	c-0.899-0.28-1.87-0.439-2.845-0.515c0.576,1.429,1.208,3.825,0.856,6.979c0.791-0.351,1.518-0.735,2.146-1.103
	C29.643,42.217,29.654,40.035,29.428,38.537z"/>
<path fill="#F3E0EA" d="M20.335,39.594c-0.581,0.447,1.088,0.315,1.916,0.433c0.825,0.118,1.257,0.433,2.124,0.069
	c0.836-0.347,0.634-0.948-0.58-1.146C22.991,38.813,20.913,39.146,20.335,39.594z"/>
<path fill="#FFFFFF" d="M41.117,17.656c0,0-1.319-0.05-1.723-0.38c0,0-0.069,0.83-0.052,2.007c0.836,0.604,2.394,1.607,4.637,2.57
	c1.538,0.657,2.531,0.782,3.163,0.715c-0.044-0.519-0.139-1.012-0.299-1.414C46.847,21.152,42.231,20.395,41.117,17.656z"/>
<path fill="#A93F26" d="M43.98,21.852c-2.244-0.962-3.801-1.966-4.637-2.571c0.019,1.2,0.13,2.759,0.508,4.167
	c0.53-1.262,3.522-0.625,3.522-0.625c2.654,0.632,3.376,1.883,3.5,2.85c0.232-0.765,0.362-1.998,0.27-3.106
	C46.513,22.634,45.518,22.508,43.98,21.852z"/>
<path fill="#A93F26" d="M46.448,26.617c0.152-0.235,0.287-0.515,0.396-0.853c0.012-0.027,0.02-0.061,0.029-0.091
	c-0.124-0.966-0.846-2.217-3.5-2.85c0,0-2.993-0.636-3.522,0.625c0.058,0.222,0.125,0.439,0.197,0.65
	C41.365,23.882,44.017,23.89,46.448,26.617z"/>
<path fill="#E65751" d="M40.048,24.099c0.372,1.075,0.925,2.005,1.753,2.528c1.277,0.806,3.483,1.79,4.646-0.011
	C44.017,23.89,41.365,23.882,40.048,24.099z"/>
<path fill="none" stroke="#B368A6" stroke-width="0.4016" stroke-linecap="round" stroke-linejoin="round" d="M39.395,17.275
	c0,0-0.641,7.427,2.407,9.352c1.444,0.91,4.077,2.053,5.042-0.862c0.366-1.094,0.511-3.318,0-4.611c0,0-4.613-0.758-5.727-3.498
	C41.117,17.656,39.801,17.606,39.395,17.275z"/>
</svg>
