<?xml version="1.0" encoding="utf-8"?>
<!-- Generator: Adobe Illustrator 15.1.0, SVG Export Plug-In . SVG Version: 6.00 Build 0)  -->
<!DOCTYPE svg PUBLIC "-//W3C//DTD SVG 1.1//EN" "http://www.w3.org/Graphics/SVG/1.1/DTD/svg11.dtd">
<svg version="1.1" id="svg_1_0" xmlns="http://www.w3.org/2000/svg" xmlns:xlink="http://www.w3.org/1999/xlink" x="0px" y="0px"
	 width="85.04px" height="85.04px" viewBox="0 0 85.04 85.04" enable-background="new 0 0 85.04 85.04" xml:space="preserve">
<g>
	<path fill="none" stroke="#815C2D" stroke-width="0.4016" stroke-linecap="round" stroke-linejoin="round" d="M66.428,24.895
		c-4.539-3.597-9.367-1.381-9.367-1.381c-0.786,0.311-1.432,0.755-1.966,1.274c1.099,1.433,3.049,4.028,3.973,5.601
		c0.039-0.015,0.063-0.022,0.063-0.022c1.181-0.493,7.147-0.444,7.147-0.444C71.551,29.431,66.428,24.895,66.428,24.895z"/>
	<g>
		<path fill="none" stroke="#815C2D" stroke-width="0.4016" stroke-linecap="round" stroke-linejoin="round" d="M52.674,30.517
			c0,0,2.465,3.154,2.365,2.219c-0.02-0.181,0.119-0.379,0.356-0.582c-0.623-1.067-1.483-2.38-2.437-3.381
			C52.709,29.779,52.674,30.517,52.674,30.517z"/>
		<path fill="none" stroke="#815C2D" stroke-width="0.4016" stroke-linecap="round" stroke-linejoin="round" d="M54.025,26.146
			c1.039,1.199,3.005,3.525,3.737,4.742c0.613-0.252,1.131-0.438,1.306-0.498c-0.924-1.573-2.874-4.169-3.973-5.601
			C54.667,25.204,54.315,25.666,54.025,26.146z"/>
		<path fill="none" stroke="#815C2D" stroke-width="0.4016" stroke-linecap="round" stroke-linejoin="round" d="M53.549,27.057
			c-0.271,0.602-0.463,1.195-0.592,1.716c0.953,1,1.813,2.314,2.437,3.381c0.327-0.274,0.827-0.558,1.358-0.816
			C55.995,30.247,54.456,28.076,53.549,27.057z"/>
		<path fill="none" stroke="#815C2D" stroke-width="0.4016" stroke-linecap="round" stroke-linejoin="round" d="M56.752,31.338
			c0.338-0.162,0.688-0.316,1.008-0.451c-0.73-1.217-2.698-3.543-3.735-4.742c-0.183,0.3-0.342,0.605-0.478,0.91
			C54.456,28.076,55.995,30.247,56.752,31.338z"/>
	</g>
	<path fill="none" stroke="#815C2D" stroke-width="0.2008" d="M64.434,24.836c-0.699-0.068,0.553,0.934,1.046,1.556
		c0.498,0.623,0.595,1.124,1.437,1.44c0.81,0.305,1.057-0.244,0.345-1.178C66.793,26.036,65.125,24.907,64.434,24.836z"/>
</g>
<g>
	<g>
		<path fill="#815C2D" d="M62.37,39.124c-0.605-1.328-1.365-2.488-2.304-3.607c-0.446-0.536-1.2-1.59-1.881-1.865
			c-0.444-0.182-1.487,0.215-1.94,0.299c-1.318,0.244-2.621,0.564-3.884,1.012c-0.011,0.002-0.026,0.015-0.021,0.029
			c0.881,1.571,1.758,3.143,2.638,4.715c0.026,0.049,0.114,0.074,0.167,0.065c2.367-0.396,4.758-0.718,7.163-0.616
			c0.139,0.006-0.021-0.098-0.083-0.101c-2.248-0.097-4.482,0.183-6.699,0.532c-0.587,0.093-0.559-0.23-0.867-0.783
			c-0.418-0.75-0.838-1.5-1.258-2.249c-0.263-0.472-0.527-0.941-0.79-1.412c-0.138-0.244,3.472-1.038,3.761-1.095
			c0.482-0.096,0.969-0.176,1.455-0.256c0.52-0.086,1.34,0.941,1.676,1.295c1.115,1.17,1.992,2.533,2.662,4
			C62.193,39.147,62.39,39.17,62.37,39.124z"/>
	</g>
</g>
<g>
	<g>
		<path fill="#815C2D" d="M56.361,32.207c-2.825-1.85-5.217-4.92-5.454-8.41c-0.006-0.061-0.191-0.028-0.21,0.017
			c-0.368,0.926-0.735,1.852-1.104,2.777c-0.106,0.269-0.959,1.819-0.814,2.077c1.002,1.792,2.01,3.585,3.014,5.378
			c0.02,0.033,0.107,0.02,0.135,0.011c1.723-0.515,3.457-0.947,5.25-1.132c0.013-0.001,0.138-0.037,0.097-0.068
			C56.969,32.633,56.674,32.412,56.361,32.207c-0.047-0.03-0.243,0.023-0.175,0.067c1.17,0.77-0.725,0.791-1.091,0.869
			c-0.247,0.054-3.115,0.834-3.121,0.82c-0.466-0.827-0.929-1.655-1.394-2.483c-0.513-0.916-1.025-1.833-1.539-2.749
			c-0.217-0.386,0.604-1.767,0.756-2.147c0.365-0.914,0.729-1.828,1.092-2.743c-0.148,0.375-0.055,0.98,0.127,1.651
			c0.771,2.865,2.72,5.178,5.167,6.78C56.231,32.306,56.432,32.252,56.361,32.207z"/>
	</g>
</g>
<g>
	<g>
		<path fill="#815C2D" d="M54.977,39.722c0.171,0.305,0.343,0.61,0.514,0.916c0.022,0.044,0.109,0.047,0.152,0.042
			c2.359-0.28,4.743-0.235,7.111-0.096c0.024,0.001,0.121,0.008,0.107-0.042c-0.141-0.492-0.303-0.962-0.49-1.437
			c-0.019-0.04-0.097-0.042-0.129-0.044c-2.414-0.115-4.836,0.22-7.213,0.619c-0.136,0.021,0.033,0.095,0.1,0.084
			c1.324-0.222,2.652-0.404,3.992-0.532c0.912-0.087,1.832-0.119,2.752-0.103c0.611,0.01,1.03,1.374,0.028,1.321
			c-1.466-0.076-2.931-0.084-4.396-0.024c-0.262,0.011-1.793,0.241-1.848,0.143c-0.156-0.283-0.316-0.565-0.475-0.847
			C55.154,39.666,54.95,39.672,54.977,39.722z"/>
	</g>
</g>
<path fill="none" stroke="#815C2D" stroke-width="0.4016" stroke-linecap="round" stroke-linejoin="round" d="M62.926,41.311
	c-0.045-0.261-0.106-0.516-0.166-0.77c-0.131-0.497-0.297-0.976-0.492-1.437c-0.999-2.362-2.764-4.233-4.12-5.424
	c-0.358-0.317-0.694-0.585-0.978-0.801c-0.547-0.42-0.898-0.642-0.898-0.642c-5.177-3.207-5.471-8.43-5.471-8.43l-1.926,4.832
	l3.014,5.377l0.554,0.988l2.638,4.715l0.512,0.916l2.947,5.257c0.688-1.38,1.873-1.035,1.873-1.035
	c2.811,0.444,3.944-0.396,3.944-0.396C63.963,44.17,62.926,41.311,62.926,41.311z"/>
<path fill="#FFFFFF" stroke="#815C2D" stroke-width="0.4016" stroke-linecap="round" stroke-linejoin="round" d="M51.774,22.051
	c0,0,3.577-1.273,5.564-3.519c0.979-1.103,2.311-3.129,0.824-5.516c-1.146-1.833-3.591-0.115-4.728,0.407
	c-1.627,0.75-3.785,1.333-4.661-0.273c-1.343-2.461-2.227-6.931-8.813-6.931c0,0-16.521,0.427-18.66,18.059
	c0,0-5.475,3.766-4.877,9.843c0,0,0.685,2.739,2.565,1.455c0,0,2.739-2.482,3.769-1.882c0,0,10.099,19.256,18.743,21.827
	c0,0,9.24,3.168,8.301,7.446c0,0,0.17,2.736-3.424,5.904c0,0-5.134-7.445-10.783-3.679c0,0,2.822,8.474,8.128,8.558
	c0,0-5.389,1.625-6.416,9.414c0,0,4.534,1.539,11.296-7.703c0,0,10.557-7.744,12.236-16.088c1.582-7.853,0.336-18.462-6.758-25.507
	C52.833,32.622,48.432,27.357,51.774,22.051z"/>
<path fill="none" stroke="#815C2D" stroke-width="0.4016" stroke-linecap="round" stroke-linejoin="round" d="M21.307,24.255
	c0.04,2.891,0.341,3.742,0.278,3.636"/>
<path fill="none" stroke="#815C2D" stroke-width="0.4016" stroke-linecap="round" stroke-linejoin="round" d="M22.836,33.805
	c0,0-0.321-0.96-0.537-1.826"/>
<path fill="none" stroke="#815C2D" stroke-width="0.4016" stroke-linecap="round" stroke-linejoin="round" d="M51.778,22.051
	c0,0-2.533,1.302-5.122,1.059c0,0-4.43-0.775-5.47-3.342"/>
<path fill="none" stroke="#815C2D" stroke-width="0.4016" stroke-linecap="round" stroke-linejoin="round" d="M37.72,17.906
	c0,0,1.719,1.766,2.543,1.766c0,0,2.035,0.461,3.63-1.064"/>
<g>
	<g>
		<path fill="#815C2D" d="M41.059,14.722c-0.082,1.034-1.591,1.018-1.672-0.022c-0.042-0.526,0.55-0.893,1.035-0.792
			C40.811,13.99,41.03,14.36,41.059,14.722c0.005,0.06,0.216,0.04,0.21-0.022c-0.095-1.222-2-1.179-2.096,0.022
			c-0.096,1.212,2.003,1.176,2.096-0.022C41.272,14.648,41.063,14.656,41.059,14.722z"/>
	</g>
</g>
<g>
	<g>
		<path fill="#815C2D" d="M48.549,13.332c-0.028,0.33-0.355,0.755-0.51,0.2c-0.061-0.214,0.021-0.445,0.16-0.606
			c0.26-0.308,0.346,0.376,0.35,0.418c0.005,0.058,0.209,0.108,0.203,0.042c-0.063-0.719-0.857-0.863-0.931-0.053
			c-0.063,0.736,0.861,0.863,0.931,0.066C48.758,13.329,48.554,13.281,48.549,13.332z"/>
	</g>
</g>
<g>
	<g>
		<path fill="#815C2D" d="M39.527,9.045c-0.699-0.167-1.483,0.015-1.548,0.84c0.068,0.003,0.14,0.007,0.21,0.012
			c-0.169-0.271-0.282-0.606-0.21-0.925c0.064-0.293,0.817-0.701,0.978-0.483c0.146,0.198,0.291,0.396,0.436,0.594
			c0.038,0.053,0.237,0.041,0.208,0c-0.131-0.177-0.304-0.56-0.498-0.663c-0.271-0.144-0.83,0.03-1.077,0.178
			c-0.463,0.276-0.272,0.933-0.046,1.3c0.022,0.04,0.205,0.078,0.21,0.011c0.058-0.694,0.641-0.937,1.272-0.787
			C39.552,9.143,39.668,9.079,39.527,9.045z"/>
	</g>
</g>
<ellipse fill="none" stroke="#815C2D" stroke-width="0.2008" cx="39.834" cy="14.469" rx="0.212" ry="0.346"/>
<ellipse fill="none" stroke="#815C2D" stroke-width="0.2008" cx="48.172" cy="13.101" rx="0.111" ry="0.15"/>
<path fill="#FFFFFF" stroke="#815C2D" stroke-width="0.4016" stroke-linecap="round" stroke-linejoin="round" d="M23.595,35.263
	c0,0,9.434,3.342,15.167,2.031c5.729-1.316,8.237-2.031,9.432-1.316c1.192,0.718,2.508,2.032,2.508,2.032l-1.076-3.225
	c0,0,0.119,0.118,1.195-1.313c1.075-1.432,0.598-3.463,0.598-3.463s6.086,4.895,7.879,8.002c1.791,3.104,2.391,7.044,2.391,7.044
	l0.596,3.701c0,0-4.178,4.416-11.701,6.451c-7.523,2.026-8.478,1.791-8.478,1.791s-3.7-1.554-5.137-3.107
	C35.54,52.336,25.03,39.918,23.595,35.263z"/>
<g>
	<g>
		<path fill="#815C2D" d="M43.676,42.563c-3.246,4.029-8.684,6.066-13.487,7.561c-0.019,0.006-0.063,0.025-0.044,0.053
			c1.341,1.854,2.966,3.521,4.541,5.179c0.041,0.045,0.168,0.028,0.203-0.021c1.782-2.426,5.67-3.504,8.357-4.461
			c1.92-0.684,3.871-1.289,5.84-1.814c0.01-0.003,0.055-0.021,0.047-0.042c-0.807-2.414-3.575-4.658-5.252-6.472
			c-0.043-0.046-0.241,0.001-0.202,0.042c0.42,0.457,5.198,6.434,5.266,6.417c-1.085,0.291-2.157,0.617-3.229,0.951
			c-3.481,1.088-7.457,2.264-10.332,4.604c-0.273,0.222-0.516,0.731-0.67,0.571c-0.649-0.687-1.289-1.383-1.924-2.08
			c-0.657-0.727-1.301-1.465-1.921-2.223c-0.804-0.98,0.96-1.133,1.668-1.383c4.106-1.447,8.556-3.41,11.347-6.876
			C43.915,42.529,43.719,42.512,43.676,42.563z"/>
	</g>
</g>
<g>
	<g>
		<path fill="#815C2D" d="M39.774,38.26c-0.604-0.604-1.179-1.062-1.895-1.512c-0.035-0.022-0.146-0.056-0.178-0.013
			c-1.184,1.501-2.501,2.887-3.821,4.267c-0.013,0.012-0.006,0.023,0.004,0.035c0.785,0.899,1.891,1.946,1.899,3.226
			c0.015,2.784-3.997,1.264-5.362,0.437c-0.042-0.025-0.14-0.052-0.181-0.013c-0.679,0.674-1.359,1.345-2.046,2.015
			c-0.011,0.012-0.002,0.022,0.006,0.033c0.554,0.67,1.011,1.396,1.37,2.182c0.026,0.051,0.124,0.06,0.172,0.051
			c5.072-1.004,9.751-3.487,13.354-7.21c0.01-0.011,0.004-0.024-0.006-0.034C41.998,40.561,40.896,39.402,39.774,38.26
			c-0.039-0.04-0.243-0.045-0.188,0.011c0.649,0.664,3.599,3.15,2.895,3.855c-1.077,1.078-2.28,2.013-3.527,2.882
			c-2.308,1.613-4.902,2.736-7.604,3.494c-0.893,0.25-3.789-0.926-2.316-2.364c1.247-1.218,1.866-0.938,3.225-0.361
			c1.256,0.533,3.188,0.444,3.676-1.034c0.288-0.882-0.328-1.722-0.783-2.403c-1.012-1.518-0.211-2.169,0.857-3.328
			c1.245-1.348,1.835-2.484,3.578-0.739C39.625,38.31,39.832,38.315,39.774,38.26z"/>
	</g>
</g>
<g>
	<g>
		<path fill="#815C2D" d="M29.359,39.616c1.178,0.005,2.739-0.118,3.721,0.655c0.043,0.034,0.16,0.021,0.195-0.022
			c1.07-1.343,2.059-2.729,2.948-4.2c0.015-0.022-0.021-0.033-0.033-0.036c-4.405-1.174-9.299,0.716-13.206-2.072
			c-0.031-0.022-0.23-0.014-0.204,0.046c0.754,1.775,1.505,3.552,2.258,5.328c0.52,1.227-0.176,3.864-0.247,5.221
			c0.002,0.008,0.009,0.016,0.019,0.019c0.824,0.206,1.575,0.575,2.252,1.108c0.05,0.032,0.131,0.018,0.179-0.013
			c0.81-0.515,1.564-1.052,2.318-1.64c0.01-0.008,0.015-0.021,0.004-0.032c-1.359-1.479-1.274-2.784-0.061-4.401
			c0.051-0.067-0.155-0.057-0.19-0.012c-1.027,1.371-1.357,2.571-0.332,4.051c1.338,1.932-4.026,1.821-3.973,0.816
			c0.04-0.753,0.077-1.506,0.117-2.259c0.045-0.858,0.406-2.234,0.062-3.046c-0.624-1.474-1.249-2.947-1.874-4.421
			c-0.19-0.445-0.6-0.754-0.245-0.516c0.606,0.406,1.267,0.709,1.935,0.999c1.698,0.736,3.306,0.603,5.078,0.407
			c0.423-0.047,6.297-0.121,5.661,0.924c-0.361,0.6-2.258,3.854-2.843,3.394c-0.81-0.637-2.499-0.384-3.445-0.388
			C29.39,39.524,29.22,39.615,29.359,39.616z"/>
	</g>
</g>
<g>
	<g>
		<path d="M29.366,43.965c-0.732,0.594-1.494,1.138-2.302,1.627c-0.021,0.014,0.007,0.039,0.017,0.048
			c0.409,0.327,0.776,0.688,1.121,1.085c0.031,0.035,0.149,0.084,0.193,0.042c0.685-0.666,1.365-1.341,2.046-2.015
			c0.017-0.018-0.002-0.037-0.017-0.047c-0.308-0.215-0.592-0.441-0.865-0.697c-0.042-0.037-0.243-0.055-0.189-0.008
			c0.171,0.16,0.345,0.313,0.529,0.461c0.426,0.34-0.039,0.602-0.319,0.879c-0.458,0.453-0.917,0.904-1.38,1.353
			c0.066,0.013,0.128,0.026,0.192,0.041c-0.194-0.226-0.396-0.438-0.609-0.646c-0.264-0.258-0.555-0.396-0.123-0.666
			c0.664-0.416,1.291-0.887,1.901-1.379C29.602,44.006,29.416,43.926,29.366,43.965z"/>
	</g>
</g>
<path fill="none" stroke="#815C2D" stroke-width="0.4016" stroke-linecap="round" stroke-linejoin="round" d="M43.782,42.565
	c-0.264-0.285-0.525-0.564-0.781-0.836c-1.808-1.925-3.318-3.463-3.318-3.463c-0.557-0.629-1.198-1.117-1.881-1.5
	c-0.537-0.299-1.102-0.533-1.679-0.709c-3.702-1.144-6.848-0.318-8.004-0.297c-2.754,0.052-5.231-1.789-5.231-1.789l2.28,5.38
	l-0.271,5.166c0.882,0.218,1.633,0.622,2.266,1.116c0.432,0.336,0.81,0.711,1.134,1.098c0.663,0.789,1.109,1.607,1.38,2.191
	c0.226,0.488,0.332,0.813,0.332,0.813c0.033,0.099,0.118,0.244,0.24,0.421c0.998,1.459,4.541,5.178,4.541,5.178
	c1.959-3.047,14.239-6.308,14.239-6.308C48.915,48.243,46.241,45.209,43.782,42.565z M29.462,44.004
	c-1.094-1.059-1.701-2.559-0.059-4.436c0,0,2.337,0,3.101,0.216c0.158,0.046,0.395,0.216,0.677,0.457
	c0.242,0.213,0.519,0.486,0.799,0.788c0.928,1.006,1.895,2.345,1.895,2.939c0,0,0.432,2.718-3.368,1.849c0,0-1.1-0.38-2.164-1.104
	C30.039,44.506,29.734,44.268,29.462,44.004z"/>
<path fill="none" stroke="#815C2D" stroke-width="0.4016" stroke-linecap="round" stroke-linejoin="round" d="M27.295,39.226
	c-3.357-0.259-6.711,0.51-6.711,0.51c-6.848,2.228-0.653,6.522-0.653,6.522c2.374,1.572,5.617,0.783,8.185-0.365
	C28.451,42.879,27.843,40.591,27.295,39.226z"/>
<path fill="none" stroke="#815C2D" stroke-width="0.4016" stroke-linecap="round" stroke-linejoin="round" d="M32.271,40.878
	c-0.637-0.525-1.415-0.899-2.256-1.16c0.218,1.428,0.206,3.516,0.149,5.123c1.237-0.723,2.055-1.357,2.106-1.465
	C32.435,43.051,32.271,40.878,32.271,40.878z"/>
<path fill="none" stroke="#815C2D" stroke-width="0.4016" stroke-linecap="round" stroke-linejoin="round" d="M30.013,39.718
	c-0.859-0.268-1.786-0.421-2.719-0.492c0.55,1.366,1.154,3.653,0.819,6.667c0.756-0.338,1.451-0.705,2.049-1.055
	C30.221,43.232,30.232,41.146,30.013,39.718z"/>
<path fill="none" stroke="#000000" stroke-width="0.2008" d="M21.329,40.726c-0.554,0.427,1.039,0.298,1.83,0.413
	c0.788,0.111,1.201,0.414,2.032,0.065c0.797-0.333,0.604-0.904-0.555-1.095C23.867,39.981,21.879,40.301,21.329,40.726z"/>
<path fill="none" stroke="#000000" stroke-width="0.2008" d="M41.184,19.769c0,0-1.26-0.047-1.647-0.363c0,0-0.066,0.792-0.05,1.917
	c0.799,0.577,2.286,1.534,4.43,2.454c1.469,0.629,2.416,0.749,3.021,0.686c-0.043-0.496-0.133-0.967-0.282-1.351
	C46.656,23.11,42.247,22.383,41.184,19.769z"/>
<path fill="none" stroke="#815C2D" stroke-width="0.2008" d="M43.917,23.776c-2.144-0.919-3.631-1.876-4.43-2.454
	c0.019,1.146,0.124,2.634,0.485,3.979c0.504-1.206,3.363-0.598,3.363-0.598c2.535,0.604,3.224,1.799,3.345,2.722
	c0.224-0.729,0.348-1.907,0.257-2.965C46.333,24.525,45.383,24.405,43.917,23.776z"/>
<path fill="none" stroke="#000000" stroke-width="0.2008" d="M46.269,28.329c0.149-0.224,0.278-0.492,0.385-0.813
	c0.009-0.026,0.017-0.061,0.025-0.089c-0.121-0.921-0.81-2.117-3.345-2.722c0,0-2.859-0.607-3.363,0.598
	c0.056,0.209,0.121,0.417,0.188,0.62C41.417,25.716,43.95,25.724,46.269,28.329z"/>
<path fill="none" stroke="#815C2D" stroke-width="0.2008" d="M40.161,25.923c0.355,1.027,0.883,1.916,1.675,2.416
	c1.221,0.771,3.327,1.709,4.435-0.011C43.95,25.724,41.417,25.716,40.161,25.923z"/>
<path fill="none" stroke="#815C2D" stroke-width="0.4016" stroke-linecap="round" stroke-linejoin="round" d="M39.537,19.406
	c0,0-0.614,7.096,2.299,8.934c1.38,0.869,3.894,1.961,4.818-0.823c0.345-1.043,0.479-3.171,0-4.405c0,0-4.407-0.727-5.47-3.342
	C41.184,19.769,39.925,19.722,39.537,19.406z"/>
<path fill="#FFFFFF" d="M27.162,39.419c0,0,1.418,4.179,0.685,6.591c0,0-5.31,1.643-6.34,0.72c-1.026-0.922-1.83-5.157-1.651-5.362
	c0.179-0.206,0.895-0.967,1.117-1.056C21.195,40.223,22.357,39.674,27.162,39.419z"/>
<path fill="#FFFFFF" d="M23.729,39.419c0,0,2.682-0.142,3.078,0c0.4,0.139-0.472,0.782-0.472,0.782s-1.978,0.544-2.102,0.458
	C24.108,40.579,20.374,39.79,23.729,39.419z"/>
<path fill="#FFFFFF" d="M27.651,39.418c0,0,1.328,5.162,0.644,6.213l1.718-0.895c0,0,0.122-3.813-0.17-4.936L27.651,39.418z"/>
<path fill="#FFFFFF" d="M28.043,46.168c0,0,0.908,0.951,0.989,1.108c0.077,0.155,0.766-0.418,0.766-0.418l-0.024-1.418
	C29.774,45.442,29.997,45.168,28.043,46.168z"/>
<path fill="#FFFFFF" d="M37.742,36.985c0,0,1.474,0.731,0.998,1.095c-0.467,0.366-1.695,0.507-1.695,0.507l-0.071-0.647
	C36.973,37.939,37.693,37.09,37.742,36.985z"/>
<path fill="#FFFFFF" d="M37.327,37.209c0,0-0.636,0.884-0.95,0.895c-0.32,0.013-1.287-0.235-1.287-0.235l0.544-0.824L37.327,37.209z
	"/>
<path fill="#FFFFFF" d="M35.222,37.279c0,0-0.496,0.907-0.778,0.954c-0.284,0.046-9.756-1.72-9.756-1.72l-0.705-0.836
	c0,0-0.511-0.979-0.051-0.66c0.463,0.317,3.039,0.918,5.623,0.954c2.579,0.034,3.45,0.152,3.498,0.152
	c0.048,0,2.438,0.414,2.438,0.414S35.326,37.138,35.222,37.279z"/>
<path fill="#FFFFFF" d="M37.503,52.989c0,0-1.124,0.676-1.485,0.895c-0.363,0.221-2.219-1.334-2.204-1.414
	c0.013-0.077-1.361-2.771-1.361-2.771l-0.207-0.104l1.554-0.586L37.503,52.989z"/>
<path fill="#FFFFFF" d="M33.373,49.008c0,0-0.983,0.377-1.063,0.273c-0.078-0.103-0.479-0.777-0.479-0.777l0.999-0.297
	L33.373,49.008z"/>
<path fill="#FFFFFF" d="M29.147,45.614c0,0,0.985-0.531,1.088-0.596C30.335,44.952,32.97,48,32.97,48s-1.349,0.517-1.596,0.322
	C31.126,48.129,29.147,45.614,29.147,45.614z"/>
<path fill="#FFFFFF" d="M28.379,45.249c0,0,0.107-1.502,0.052-2.099c-0.052-0.597,0.558-0.312,0.548-0.247
	c-0.013,0.065-0.131,1.529-0.146,1.594C28.821,44.563,28.379,45.249,28.379,45.249z"/>
<path fill="#FFFFFF" d="M56.754,32.845c0,0-2.094-1.341-2.394-1.777c-0.304-0.438-1.731-1.898-1.825-2.019
	c-0.09-0.12-0.676,0.769-0.676,0.769l0.541,0.738l2.803,2.561C55.204,33.116,56.486,32.77,56.754,32.845z"/>
<path fill="#FFFFFF" d="M40.281,25.674c0,0-0.561-2.009,0.327-1.679c0.891,0.329,4.284,0.594,4.284,0.594l1.842,1.416
	c0,0-0.165,2.469-0.692,1.35c-0.526-1.121-1.842-1.615-2.105-1.581C43.668,25.806,40.281,25.674,40.281,25.674z"/>
<path fill="#FFFFFF" d="M51.825,30.105c0,0-0.51-0.537-0.812,0.718c-0.3,1.256-1.166-2.482-1.166-2.482l0.181-2.094
	c0,0,0.626-2.301,0.867-0.657c0.238,1.645,1.075,3.559,1.075,3.559L51.825,30.105z"/>
<path fill="#FFFFFF" d="M26.228,36.513c0,0-0.882,1.115-0.583,1.635c0.303,0.521,1.011,0.791,1.027,0.686
	c0.017-0.106,0.375-0.583,0.373-0.786c-0.006-0.201,0.175-0.647,0.144-0.85c-0.033-0.203-0.041-0.435-0.116-0.514
	C26.996,36.602,26.228,36.513,26.228,36.513z"/>
<path fill="#FFFFFF" d="M26.095,36.401c0,0-0.395,0.494-0.568,0.935c-0.177,0.442-0.079-0.138-0.079-0.138s0.396-1.014,0.674-1.035
	C26.394,36.142,26.095,36.401,26.095,36.401z"/>
<path fill="#FFFFFF" d="M53.127,53.329c0,0-2.092-1.344-2.393-1.777c-0.304-0.438-1.734-1.898-1.824-2.02
	c-0.092-0.121-0.677,0.768-0.677,0.768l0.54,0.74l2.801,2.561C51.577,53.599,52.859,53.25,53.127,53.329z"/>
<path fill="none" stroke="#815C2D" stroke-width="0.1958" stroke-linecap="round" d="M27.968,10.718l-3.235-5.512
	c0,0,0.985,0.046,3.239-0.259c2.63-0.355,6.981-1.188,13.508-3.119l-0.994,4.41C40.486,6.238,33.801,6.095,27.968,10.718z"/>
<path fill="none" stroke="#815C2D" stroke-width="0.1958" stroke-linecap="round" d="M37.393,2.824c0,0-5.085-3.415-9.852,2.099"/>
<polygon fill="none" stroke="#815C2D" stroke-width="0.1958" stroke-linecap="round" points="32.306,50.774 33.85,52.87 
	35.449,52.483 34.455,49.728 "/>
<polygon fill="none" stroke="#815C2D" stroke-width="0.1958" stroke-linecap="round" points="36.438,50.445 37.596,52.26 
	40.02,51.215 37.762,49.288 "/>
<polygon fill="none" stroke="#815C2D" stroke-width="0.1958" stroke-linecap="round" points="39.633,47.083 40.352,49.672 
	42.939,49.672 42.226,46.972 "/>
<polygon fill="none" stroke="#815C2D" stroke-width="0.1958" stroke-linecap="round" points="43.547,45.872 44.87,48.514 
	47.183,47.413 45.145,45.374 "/>
<polygon fill="none" stroke="#815C2D" stroke-width="0.1958" stroke-linecap="round" points="37.098,40.911 38.531,38.871 
	40.186,41.847 38.531,43.116 "/>
<polygon fill="none" stroke="#815C2D" stroke-width="0.1958" stroke-linecap="round" points="36.71,43.334 37.596,42.949 
	37.654,44.602 36.331,45.043 "/>
<polygon fill="none" stroke="#815C2D" stroke-width="0.1958" stroke-linecap="round" points="30.435,45.706 30.156,47.029 
	31.753,47.688 32.801,46.477 "/>
<polygon fill="none" stroke="#815C2D" stroke-width="0.1958" stroke-linecap="round" points="29.995,37.713 33.021,38.375 
	34.233,36.611 30.102,36.171 "/>
<polygon fill="#FFFFFF" stroke="#815C2D" stroke-width="0.2008" points="57.804,34.915 58.885,34.984 60.667,37.954 59.478,37.395 
	"/>
<polygon fill="#FFFFFF" stroke="#815C2D" stroke-width="0.2008" points="61.363,41.693 62.027,41.203 62.415,43.231 61.995,44.034 
	"/>
<polygon fill="#FFFFFF" stroke="#815C2D" stroke-width="0.2008" points="25.973,38.302 28.187,38.192 28.404,36.416 25.318,36.378 
	"/>
</svg>
