<svg version="1.1" id="svg_1_v" valid="1" xmlns="http://www.w3.org/2000/svg" xmlns:xlink="http://www.w3.org/1999/xlink" x="0px" y="0px" width="85.04px" height="85.04px" viewBox="0 0 85.04 85.04" enable-background="new 0 0 85.04 85.04" xml:space="preserve">
<path fill="#FFFFFF" toFill="#F4AEC4" stroke="#815C2D" stroke-width="0.4016" stroke-linecap="round" stroke-linejoin="round" d="
	M52.206,20.044c0,0,3.746-1.335,5.832-3.684c1.021-1.153,2.42-3.277,0.859-5.773c-1.197-1.918-3.757-0.121-4.945,0.426
	c-1.705,0.784-3.966,1.396-4.883-0.286c-1.406-2.576-2.33-7.255-9.231-7.255c0,0-17.289,0.447-19.531,18.903
	c0,0-5.735,3.945-5.107,10.306c0,0,0.717,2.865,2.688,1.522c0,0,2.867-2.6,3.942-1.972c0,0,10.573,20.161,19.62,22.849
	c0,0,9.68,3.313,8.694,7.793c0,0,0.178,2.864-3.585,6.181c0,0-5.375-7.792-11.29-3.849c0,0,2.957,8.867,8.509,8.955
	c0,0-5.641,1.703-6.716,9.855c0,0,4.749,1.611,11.827-8.063c0,0,11.052-8.107,12.813-16.844c1.656-8.215,0.35-19.323-7.076-26.698
	C53.321,31.112,48.708,25.601,52.206,20.044z"/>
<path fill="#FFFFFF" toFill="#F4AEC4" stroke="#815C2D" stroke-width="0.4016" stroke-linecap="round" stroke-linejoin="round" d="
	M67.547,23.021c-4.748-3.765-9.805-1.443-9.805-1.443c-0.822,0.324-1.498,0.789-2.055,1.332c1.146,1.5,3.188,4.219,4.152,5.863
	c0.043-0.016,0.07-0.023,0.07-0.023c1.235-0.515,7.48-0.463,7.48-0.463C72.917,27.771,67.547,23.021,67.547,23.021z"/>
<path fill="#EBF2F6" stroke="#58B4C4" stroke-width="0.4016" stroke-linecap="round" stroke-linejoin="round" d="M53.151,28.907
	c0,0,2.581,3.302,2.479,2.32c-0.021-0.187,0.125-0.394,0.375-0.606c-0.653-1.117-1.553-2.492-2.553-3.54
	C53.188,28.135,53.151,28.907,53.151,28.907z"/>
<path fill="#FFFFFF" toFill="#EBF2F6" stroke="#815C2D" stroke-width="0.4016" stroke-linecap="round" stroke-linejoin="round" d="
	M54.565,24.332c1.091,1.256,3.146,3.69,3.914,4.967c0.643-0.266,1.186-0.461,1.365-0.524c-0.965-1.645-3.008-4.364-4.155-5.863
	C55.241,23.348,54.872,23.833,54.565,24.332z"/>
<path fill="#FFFFFF" toFill="#EBF2F6" stroke="#815C2D" stroke-width="0.4016" stroke-linecap="round" stroke-linejoin="round" d="
	M54.068,25.285c-0.284,0.63-0.481,1.251-0.618,1.796c1,1.047,1.898,2.422,2.551,3.54c0.34-0.29,0.863-0.584,1.422-0.854
	C56.627,28.622,55.017,26.354,54.068,25.285z"/>
<path fill="#FFFFFF" toFill="#EBF2F6" stroke="#815C2D" stroke-width="0.4016" stroke-linecap="round" stroke-linejoin="round" d="
	M57.422,29.768c0.352-0.171,0.718-0.33,1.055-0.469c-0.768-1.275-2.823-3.71-3.912-4.967c-0.189,0.315-0.355,0.634-0.499,0.953
	C55.017,26.354,56.627,28.622,57.422,29.768z"/>
<path fill="#FFFFFF" toFill="#97609D" stroke="#815C2D" stroke-width="0.4016" stroke-linecap="round" stroke-linejoin="round" d="
	M63.886,40.207c-0.052-0.272-0.112-0.541-0.179-0.806c-0.135-0.521-0.309-1.021-0.513-1.504c-1.047-2.474-2.894-4.432-4.313-5.678
	c-0.381-0.331-0.727-0.613-1.024-0.839c-0.569-0.437-0.94-0.672-0.94-0.672c-5.418-3.354-5.728-8.822-5.728-8.822l-2.013,5.055
	l3.152,5.629l0.578,1.036l2.764,4.935l0.537,0.958l3.082,5.504c0.724-1.442,1.961-1.082,1.961-1.082
	c2.941,0.463,4.127-0.412,4.127-0.412C64.967,43.2,63.886,40.207,63.886,40.207z"/>
<path fill="none" stroke="#815C2D" stroke-width="0.4016" stroke-linecap="round" stroke-linejoin="round" d="M20.313,22.354
	c0.041,3.026,0.359,3.916,0.293,3.806"/>
<path fill="none" stroke="#815C2D" stroke-width="0.4016" stroke-linecap="round" stroke-linejoin="round" d="M21.914,32.35
	c0,0-0.337-1.005-0.561-1.912"/>
<path fill="none" stroke="#815C2D" stroke-width="0.4016" stroke-linecap="round" stroke-linejoin="round" d="M52.209,20.044
	c0,0-2.649,1.363-5.362,1.108c0,0-4.638-0.811-5.729-3.498"/>
<path fill="none" stroke="#815C2D" stroke-width="0.4016" stroke-linecap="round" stroke-linejoin="round" d="M37.494,15.706
	c0,0,1.8,1.849,2.663,1.849c0,0,2.124,0.483,3.801-1.113"/>
<ellipse fill="#815C2D" cx="40.112" cy="12.365" rx="0.986" ry="0.916"/>
<ellipse fill="#815C2D" cx="48.558" cy="10.954" rx="0.381" ry="0.582"/>
<path fill="#815C2D" d="M39.351,6.473c0,0-1.434-0.36-1.479,0.85c0,0-0.984-1.566,0.989-1.522L39.351,6.473z"/>
<path fill="#FFFFFF" toFill="#FAD200" d="M36.499,3.755c0,0-6.169-6.869-15.643,0.785c0,0-4.737,3.958-1.095,6.248
	c0,0,1.803,1.229,4.271,1.094c1.662-0.091,4.112,1.561,5.413,3.694l-0.021-1.301c-1.086-1.757-3.285-3.512-4.664-3.437
	c-2.049,0.114-3.406-0.506-3.406-0.506c-3.037-1.888,0.913-5.146,0.913-5.146C30.164-1.118,34.533,4.26,34.533,4.26L36.499,3.755z"
	/>
<path fill="#815C2D" d="M36.598,3.728c-3.823-4.146-9.852-3.109-14.14-0.44c-1.586,0.987-5.283,3.9-4.016,6.192
	c0.628,1.139,1.825,1.86,3.082,2.159c1.413,0.336,2.907,0.181,4.271,0.726c1.503,0.6,2.661,1.949,3.547,3.243
	c0.03,0.045,0.208,0.014,0.208-0.048c-0.035-2.192-1.645-3.507-3.545-4.499c-2.016-1.051-7.314,0.123-5.231-4.013
	C22.992,2.644,30.958,0.17,34.43,4.293c0.025,0.033,0.104,0.015,0.137,0.006c0.656-0.169,1.31-0.336,1.966-0.505
	c0.146-0.038,0.021-0.096-0.069-0.073c-0.46,0.118-1.652,0.695-1.979,0.349c-0.43-0.458-0.959-0.81-1.498-1.125
	c-1.601-0.939-3.741-1.11-5.509-0.598c-2.535,0.736-5.002,2.147-6.625,4.267c-1.666,2.18-0.176,3.765,2.042,4.188
	c1.01,0.193,1.931-0.004,2.935,0.333c1.217,0.41,2.235,1.568,3.037,2.514c0.116,0.135,1.121,2.542,0.207,1.207
	c-0.624-0.909-1.53-1.592-2.427-2.203c-2.372-1.612-9.419-0.33-7.933-5.157c1.306-4.24,7.788-6.663,11.576-6.502
	c2.177,0.093,4.614,1.172,6.106,2.791C36.44,3.833,36.639,3.771,36.598,3.728z"/>
<path fill="#815C2D" d="M35.066,15.648c-0.121,2.255-2.004,3.966-4.444,3.295c-1.472-0.405-2.293-1.879-2.37-3.307
	c-0.124-2.301,2.278-3.889,4.44-3.294C34.167,12.748,34.988,14.22,35.066,15.648c0.003,0.063,0.22,0.051,0.215-0.012
	c-0.25-4.629-6.999-4.603-7.249,0.012c-0.102,1.903,1.749,3.654,3.625,3.553c2.022-0.109,3.513-1.509,3.624-3.565
	C35.287,15.581,35.069,15.583,35.066,15.648z"/>
<ellipse fill="#FFFFFF" toFill="#FAD200" cx="31.681" cy="15.765" rx="3.271" ry="3.232"/>
<path fill="#815C2D" d="M34.848,15.738c-0.072,1.311-0.732,2.327-1.904,2.927c-2.179,1.115-4.316-0.779-4.429-2.876
	c-0.07-1.281,0.819-2.374,1.899-2.928C32.592,11.747,34.733,13.641,34.848,15.738c0.004,0.071,0.215,0.098,0.213,0.05
	c-0.233-4.23-6.524-4.345-6.758-0.05c-0.23,4.238,6.523,4.317,6.758,0.05C35.063,15.72,34.85,15.686,34.848,15.738z"/>
<circle fill="#FFFFFF" toFill="#F4B301" cx="31.559" cy="16.249" r="1.292"/>
<path fill="#815C2D" d="M32.743,16.265c-0.047,0.831-0.775,1.483-1.662,1.109c-0.454-0.191-0.68-0.678-0.708-1.141
	c-0.05-0.856,0.886-1.439,1.664-1.11C32.491,15.313,32.716,15.802,32.743,16.265c0.005,0.058,0.22,0.033,0.215-0.031
	c-0.102-1.763-2.7-1.693-2.8,0.031c-0.102,1.757,2.7,1.689,2.8-0.031C32.959,16.181,32.748,16.194,32.743,16.265z"/>
<ellipse fill="#FFFFFF" cx="39.708" cy="12.108" rx="0.221" ry="0.362"/>
<path fill="#FFFFFF" toFill="#F1C43A" stroke="#815C2D" stroke-width="0.25" stroke-miterlimit="10" d="M55.67,38.542l0.537,0.958
	c2.403-0.317,5.438-0.226,7.498-0.1c-0.135-0.52-0.309-1.021-0.514-1.504C60.909,37.75,57.717,38.193,55.67,38.542z"/>
<path fill="#FFFFFF" toFill="#F1C43A" stroke="#815C2D" stroke-width="0.25" stroke-miterlimit="10" d="M57.857,31.383
	c-1.797,0.137-4,0.723-5.528,1.189l0.58,1.035c1.861-0.702,4.613-1.178,5.973-1.386C58.5,31.893,58.156,31.608,57.857,31.383z"/>
<ellipse fill="#FFFFFF" cx="48.437" cy="10.677" rx="0.119" ry="0.159"/>
<path fill="#FFFFFF" toFill="#ECF3FA" stroke="#815C2D" stroke-width="0.4016" stroke-linecap="round" stroke-linejoin="round" d="
	M22.708,33.875c0,0,9.873,3.5,15.873,2.127c6.001-1.375,8.628-2.127,9.88-1.375c1.248,0.75,2.623,2.122,2.623,2.122l-1.125-3.373
	c0,0,0.123,0.125,1.25-1.375c1.125-1.499,0.625-3.625,0.625-3.625s6.375,5.125,8.25,8.373c1.877,3.253,2.504,7.377,2.504,7.377
	L63.209,48c0,0-4.373,4.625-12.25,6.75s-8.879,1.875-8.879,1.875s-3.873-1.625-5.373-3.25C35.209,51.75,24.208,38.75,22.708,33.875z
	"/>
<path fill="#F1C43A" d="M28.846,43.028c-0.754,0.617-1.556,1.193-2.405,1.701c0.452,0.352,0.847,0.747,1.186,1.148
	c0.639-0.621,1.371-1.342,2.145-2.108C29.45,43.551,29.134,43.304,28.846,43.028z"/>
<path fill="#FFFFFF" toFill="#97609D" stroke="#815C2D" stroke-width="0.4016" stroke-linecap="round" stroke-linejoin="round" d="
	M43.84,41.522c-0.275-0.299-0.551-0.59-0.818-0.877c-1.895-2.016-3.476-3.627-3.476-3.627c-0.584-0.658-1.251-1.168-1.966-1.567
	c-0.563-0.314-1.153-0.562-1.757-0.745c-3.878-1.195-7.171-0.333-8.381-0.311c-2.883,0.055-5.477-1.871-5.477-1.871l2.39,5.632
	l-0.287,5.405c0.925,0.229,1.709,0.651,2.372,1.168c0.452,0.351,0.847,0.747,1.186,1.147c0.693,0.824,1.165,1.685,1.447,2.295
	c0.234,0.509,0.343,0.849,0.343,0.849c0.04,0.104,0.128,0.258,0.254,0.444c1.044,1.527,4.755,5.418,4.755,5.418
	c2.046-3.188,14.909-6.602,14.909-6.602C49.213,47.459,46.415,44.292,43.84,41.522z"/>
<path fill="#FFFFFF" toFill="#ECF3FA" stroke="#815C2D" stroke-width="0.4016" stroke-linecap="round" stroke-linejoin="round" d="
	M28.846,43.028c-1.143-1.109-1.777-2.68-0.055-4.645c0,0,2.446,0,3.243,0.226c0.165,0.048,0.415,0.225,0.706,0.478
	c0.259,0.224,0.545,0.508,0.841,0.826c0.971,1.055,1.981,2.457,1.981,3.082c0,0,0.454,2.843-3.528,1.931
	c0,0-1.151-0.398-2.263-1.156C29.45,43.551,29.134,43.304,28.846,43.028z"/>
<path fill="#FFFFFF" toFill="#F4AEC4" stroke="#815C2D" stroke-width="0.4016" stroke-linecap="round" stroke-linejoin="round" d="
	M26.583,38.022c-3.515-0.271-7.025,0.534-7.025,0.534c-7.168,2.333-0.682,6.829-0.682,6.829c2.483,1.645,5.878,0.818,8.565-0.385
	C27.79,41.85,27.158,39.454,26.583,38.022z"/>
<path fill="#EBF2F6" stroke="#815C2D" stroke-width="0.4016" stroke-linecap="round" stroke-linejoin="round" d="M31.792,39.752
	c-0.669-0.548-1.484-0.939-2.364-1.215c0.226,1.498,0.215,3.68,0.159,5.361c1.292-0.755,2.148-1.418,2.205-1.529
	C31.96,42.029,31.792,39.752,31.792,39.752z"/>
<path fill="#FFFFFF" toFill="#EBF2F6" stroke="#815C2D" stroke-width="0.4016" stroke-linecap="round" stroke-linejoin="round" d="
	M29.428,38.538c-0.899-0.28-1.87-0.439-2.845-0.515c0.576,1.429,1.208,3.825,0.856,6.978c0.791-0.351,1.518-0.734,2.146-1.103
	C29.643,42.218,29.653,40.036,29.428,38.538z"/>
<path fill="#FFFFFF" toFill="#FFFFFF" stroke="#815C2D" stroke-width="0.25" stroke-miterlimit="10" d="M41.117,17.657
	c0,0-1.319-0.05-1.723-0.38c0,0-0.069,0.83-0.052,2.007c0.836,0.604,2.394,1.607,4.638,2.57c1.538,0.657,2.531,0.782,3.163,0.715
	c-0.044-0.519-0.14-1.012-0.3-1.414C46.847,21.152,42.23,20.396,41.117,17.657z"/>
<path fill="#FFFFFF" toFill="#A93F26" d="M43.98,21.853c-2.245-0.962-3.801-1.966-4.638-2.571c0.019,1.2,0.13,2.759,0.508,4.167
	c0.53-1.262,3.523-0.625,3.523-0.625c2.653,0.632,3.375,1.883,3.5,2.85c0.231-0.765,0.361-1.998,0.27-3.106
	C46.513,22.634,45.518,22.508,43.98,21.853z"/>
<path fill="#FFFFFF" toFill="#A93F26" d="M46.448,26.618c0.152-0.235,0.287-0.515,0.396-0.853c0.012-0.027,0.02-0.061,0.029-0.091
	c-0.125-0.966-0.847-2.217-3.5-2.85c0,0-2.994-0.636-3.523,0.625c0.058,0.222,0.125,0.439,0.197,0.65
	C41.365,23.882,44.017,23.891,46.448,26.618z"/>
<path fill="#FFFFFF" toFill="#E65751" stroke="#815C2D" stroke-width="0.25" stroke-miterlimit="10" d="M40.047,24.1
	c0.372,1.075,0.925,2.005,1.753,2.528c1.278,0.806,3.483,1.79,4.646-0.011C44.017,23.891,41.365,23.882,40.047,24.1z"/>
<path fill="none" stroke="#815C2D" stroke-width="0.4016" stroke-linecap="round" stroke-linejoin="round" d="M39.395,17.275
	c0,0-0.641,7.427,2.407,9.352c1.445,0.91,4.078,2.053,5.043-0.862c0.365-1.094,0.511-3.318,0-4.611c0,0-4.614-0.758-5.728-3.498
	C41.117,17.657,39.8,17.606,39.395,17.275z"/>
<path fill="#FFFFFF" toFill="#F1C43A" stroke="#815C2D" stroke-width="0.25" stroke-miterlimit="10" d="M43.84,41.521
	c-0.275-0.298-0.551-0.59-0.818-0.877c-1.464,1.538-6.438,6.204-13.948,7.53c0.236,0.509,0.343,0.848,0.343,0.848
	c0.04,0.105,0.128,0.26,0.254,0.445C32.719,48.528,40.651,45.76,43.84,41.521z"/>
<path fill="#FFFFFF" toFill="#F1C43A" stroke="#815C2D" stroke-width="0.25" stroke-miterlimit="10" d="M33.582,39.915
	c1.675-1.742,3.173-3.378,3.999-4.465c-0.563-0.314-1.153-0.561-1.757-0.745c-0.617,1.039-1.666,2.662-3.083,4.383
	C33,39.313,33.286,39.595,33.582,39.915z"/>
	
	<g id="clickMark_1_v" class="none">
		<path fill="#FFFFFF" d="M83.978,42.521c0,22.892-18.561,41.454-41.459,41.454c-22.895,0-41.457-18.562-41.457-41.454 c0-22.899,18.562-41.457,41.457-41.457C65.417,1.064,83.978,19.623,83.978,42.521z" />
		<path fill="none" stroke="#000000" stroke-width="0.9447" d="M42.519,73.262c16.982,0,30.749-13.76,30.749-30.741 c0-16.98-13.767-30.74-30.749-30.74c-16.981,0-30.745,13.76-30.745,30.74C11.772,59.502,25.537,73.262,42.519,73.262z" />
		<path fill="#D7DF23" stroke="#000000" stroke-width="0.8879" d="M42.519,73.262c16.982,0,30.749-13.76,30.749-30.741 c0-16.98-13.767-30.74-30.749-30.74c-16.981,0-30.745,13.76-30.745,30.74C11.772,59.502,25.537,73.262,42.519,73.262" />
		<path fill="#009444" d="M61.976,26.239c0,0.923-0.524,1.787-1.572,2.587c-1.356,1.11-2.188,1.91-2.495,2.403L43.209,54.614 c-1.108,1.972-2.188,3.943-3.236,5.912c-1.724,2.527-3.481,3.789-5.268,3.789c-0.8,0-1.617-0.229-2.447-0.692 c-0.833-0.459-1.312-1.338-1.435-2.634c-0.246-1.786-0.493-2.926-0.739-3.418l-4.621-9.43c-0.185-0.369-1.017-1.416-2.496-3.143 c-0.864-1.109-1.202-2.277-1.015-3.511c0.185-1.54,0.891-2.895,2.126-4.066c1.229-1.17,2.555-1.755,3.972-1.755 c0.616,0,1.234,0.122,1.849,0.368c0.309,0.125,0.741,0.958,1.294,2.496c0.74,2.095,1.265,3.482,1.572,4.159l3.326,6.192 l13.405-21.719c0.678-1.293,1.354-2.618,2.035-3.975c0.983-1.355,2.187-2.033,3.604-2.033c1.537,0,3.064,0.555,4.574,1.666 C61.218,23.93,61.976,25.067,61.976,26.239z" />
	</g>
</svg>
