<?xml version="1.0" encoding="utf-8"?>
<!-- Generator: Adobe Illustrator 15.1.0, SVG Export Plug-In . SVG Version: 6.00 Build 0)  -->
<!DOCTYPE svg PUBLIC "-//W3C//DTD SVG 1.1//EN" "http://www.w3.org/Graphics/SVG/1.1/DTD/svg11.dtd">
<svg version="1.1" id="svg_2" xmlns="http://www.w3.org/2000/svg" xmlns:xlink="http://www.w3.org/1999/xlink" x="0px" y="0px"
	 width="85.04px" height="85.04px" viewBox="0 0 85.04 85.04" enable-background="new 0 0 85.04 85.04" xml:space="preserve">
<g>
	
		<linearGradient id="SVGID_1_" gradientUnits="userSpaceOnUse" x1="30.853" y1="562.8442" x2="41.849" y2="575.5483" gradientTransform="matrix(1 0.0022 -0.0022 1 45.792 -525.377)">
		<stop  offset="0.0843" style="stop-color:#F7F8FB"/>
		<stop  offset="0.618" style="stop-color:#ECEFF2"/>
	</linearGradient>
	<path fill="url(#SVGID_1_)" d="M72.516,42.1l3.763,5.577c0,0,5.887-4.008,6.629-4.87c0.743-0.865,1.121-4.204-0.481-6.248
		c-1.606-2.045-3.896-0.629-3.896-0.629S77.298,33.883,76,34.44c-1.301,0.552-2.051,3.457-2.299,4.634
		c-0.252,1.174-1.305,2.719-1.305,2.719L72.516,42.1z"/>
	<g>
		<path fill="#9BB1C2" d="M72.383,42.09c1.252,1.857,2.506,3.716,3.763,5.577c0.04,0.063,0.199,0.114,0.264,0.069
			c1.096-0.746,2.183-1.504,3.26-2.271c1.011-0.715,2.688-1.556,3.382-2.612c1.319-2.023,0.694-7.264-2.406-7.438
			c-0.571-0.033-1.022,0.006-1.577,0.156c-0.802,0.217-0.339,0.379-0.992-0.392c-0.601-0.708-1.291-0.958-2.166-0.812
			c-1.295,0.219-1.869,2.814-2.144,3.781c-0.267,0.946-0.499,1.796-0.955,2.679c-0.267,0.514-0.646,0.713-0.438,1.242
			c0.033,0.086,0.313,0.129,0.287,0.059c-0.283-0.719,1.168-2.991,1.394-3.89c0.455-1.816,2.063-5.853,4.344-2.318
			c0.043,0.067,0.196,0.109,0.269,0.069c3.873-2.198,6.229,4.577,3.97,6.903c-1.392,1.431-3.306,2.519-4.937,3.655
			c-1.713,1.194-1.183,1.295-2.347-0.433c-0.901-1.336-1.802-2.67-2.703-4.005C72.604,42.044,72.32,41.994,72.383,42.09z"/>
	</g>
</g>
<g>
	
		<linearGradient id="SVGID_2_" gradientUnits="userSpaceOnUse" x1="-37.3906" y1="582.1499" x2="-35.0427" y2="566.7814" gradientTransform="matrix(1 0.0022 -0.0022 1 45.792 -525.377)">
		<stop  offset="0" style="stop-color:#F2F4F7"/>
		<stop  offset="0.2472" style="stop-color:#F7F8FB"/>
	</linearGradient>
	<path fill="url(#SVGID_2_)" d="M13.857,52.795c0,0-1.162-6.556-3.699-6.376c-2.536,0.182-2.296,3.398-2.296,3.398
		s-2.532-2.42-5.012,0.297c-2.479,2.718-1.688,8.595,3.755,8.912c5.442,0.324,6.124-0.666,6.124-0.666L13.857,52.795z"/>
	<g>
		<path fill="#9BB1C2" d="M14.003,52.816c-0.414-2.258-1.926-8.305-5.32-5.91c-0.651,0.459-0.855,1.435-0.952,2.158
			c-0.07,0.532-0.041,0.469,0.21,0.693c-0.325-0.292-0.713-0.492-1.103-0.682c-1.827-0.894-3.647,0.205-4.681,1.742
			c-1.197,1.783-1.096,4.76,0.368,6.371c1.893,2.084,4.588,2.024,7.214,1.938c0.766-0.024,2.55-0.017,3.129-0.733
			c0.392-0.484,0.399-1.953,0.521-2.552C13.596,54.834,13.8,53.824,14.003,52.816c0.019-0.082-0.279-0.127-0.297-0.039
			c-0.295,1.467-0.593,2.938-0.892,4.403c-0.325,1.612-0.833,1.608-2.606,1.788c-3.913,0.398-8.167-0.438-8.546-4.904
			C1.411,51.082,4.578,47,7.729,49.83c0.033,0.029,0.285,0.097,0.281,0.006c-0.132-2.467,2.3-4.689,4.087-1.848
			c0.877,1.394,1.317,3.183,1.61,4.787C13.726,52.874,14.016,52.879,14.003,52.816z"/>
	</g>
</g>
<g>
	
		<linearGradient id="SVGID_3_" gradientUnits="userSpaceOnUse" x1="-0.1729" y1="596.6724" x2="-0.1729" y2="569.2085" gradientTransform="matrix(1 0.0022 -0.0022 1 45.792 -525.377)">
		<stop  offset="0.0674" style="stop-color:#3E8DB7"/>
		<stop  offset="0.2137" style="stop-color:#3F94C0"/>
		<stop  offset="0.5444" style="stop-color:#40A0D0"/>
		<stop  offset="0.809" style="stop-color:#41A4D5"/>
	</linearGradient>
	<path fill="url(#SVGID_3_)" d="M49.621,44.958c-0.125,0.184,4.879,2.979,12.063,1.572c7.172-1.406,8.291-2.644,8.291-2.644
		l3.388,5.946c0,0-11.52,7.271-12.699,9.806c-3.475,4.386-2.189,11.687-2.189,11.687l-28.457-0.248c0,0,0.197-6.495-2.64-8.727
		c-2.84-2.23-12.055-2.563-12.055-2.563l1.065-7.293c0,0,4.452,0.504,9.217-1.032c4.767-1.537,9.355-6.411,9.355-6.411
		L49.621,44.958z"/>
	<g>
		<path fill="#327B9C" d="M49.478,44.945c0.148,0.449,1.357,0.791,1.699,0.914c2.018,0.731,4.086,1.053,6.225,1.129
			c3.836,0.138,9.149-0.762,12.482-2.875c0.387-0.246-0.047-0.23,0.043-0.072c0.367,0.642,0.73,1.285,1.097,1.928
			c0.195,0.344,2.281,3.771,2.118,3.873c-3.061,1.941-6.066,3.982-8.938,6.193c-3.58,2.754-5.61,5.83-6.045,10.457
			c-0.146,1.545-0.07,3.137,0.148,4.674c0.027,0.203-1.117,0.084-1.545,0.08c-7.52-0.067-15.035-0.133-22.554-0.197
			c-1.102-0.01-2.199-0.02-3.3-0.029c-0.901-0.008-0.74,0.176-0.74-0.277c0.002-2.938-0.418-6.814-3.005-8.645
			c-2.534-1.791-6.559-1.951-9.528-2.22c-0.604-0.056-1.213-0.097-1.82-0.13c-0.638-0.039-0.345,0.074-0.319-0.102
			c0.218-1.484,0.437-2.974,0.653-4.457c0.119-0.815-0.018-2.646,0.77-2.59c2.005,0.141,4.02-0.052,5.995-0.377
			c4.675-0.771,8.591-3.563,11.893-6.826c0.474-0.468,1.17-0.287,1.878-0.291c1.636-0.011,3.271-0.021,4.907-0.031
			c2.696-0.016,5.396-0.033,8.096-0.051c0.193-0.002-0.036-0.131-0.127-0.131c-4.704,0.026-9.407,0.057-14.112,0.086
			c-1.51,0.01-2.933,2.193-4.054,3.08c-4.239,3.362-9.628,4.924-15.029,4.37c-0.025-0.003-0.112-0.008-0.119,0.034
			c-0.356,2.43-0.713,4.861-1.068,7.292c-0.01,0.077,0.165,0.097,0.21,0.097c3.315,0.131,6.737,0.492,9.899,1.521
			c3.987,1.301,4.673,5.994,4.587,9.67c-0.002,0.078,0.157,0.098,0.21,0.098c9.486,0.083,18.972,0.166,28.458,0.248
			c0.031,0,0.086-0.007,0.08-0.052c-0.858-5.115,0.313-10.47,4.299-13.948c3.244-2.828,6.951-5.215,10.584-7.511
			c0.008-0.011,0.012-0.021,0.006-0.03c-1.13-1.982-2.26-3.966-3.387-5.947c-0.037-0.066-0.223-0.121-0.283-0.062
			c-1.243,1.272-4.081,1.677-5.639,2.063c-3.021,0.744-6.017,1.137-9.121,0.791c-0.857-0.097-4.938-0.59-5.313-1.723
			C49.74,44.89,49.449,44.861,49.478,44.945z"/>
	</g>
</g>
<g>
	
		<linearGradient id="SVGID_4_" gradientUnits="userSpaceOnUse" x1="-29.8115" y1="579.8188" x2="-30.7721" y2="585.2617" gradientTransform="matrix(1 0.0022 -0.0022 1 45.792 -525.377)">
		<stop  offset="0.3876" style="stop-color:#FBD619"/>
		<stop  offset="0.7528" style="stop-color:#F6C122"/>
		<stop  offset="0.9607" style="stop-color:#F5B123"/>
	</linearGradient>
	<path fill="url(#SVGID_4_)" d="M13.534,51.792c0.891,0.211,2.291,0.489,3.042,0.767c0.538,0.195-1.129,7.543-1.129,7.543
		c-1.148-0.076-2.354-0.068-3.477-0.275c-0.226-0.041,1.262-7.414,1.535-8.037C13.515,51.787,13.522,51.789,13.534,51.792z"/>
	<g>
		<path fill="#D16230" d="M13.461,51.847c0.926,0.213,3.104,0.227,3.063,1.41c-0.027,0.834-0.199,1.674-0.343,2.496
			c-0.255,1.453-0.559,2.896-0.883,4.334c0.011-0.043-1.983-0.166-2.148-0.178c-1.183-0.08-1.101,0.021-1.009-0.723
			c0.106-0.836,0.271-1.668,0.427-2.498C12.668,56.16,13.635,51.871,13.461,51.847c0.088,0.012,0.337-0.085,0.146-0.109
			c-0.01-0.002-0.021-0.004-0.03-0.004c-0.049-0.006-0.195-0.02-0.221,0.045c-0.688,1.838-0.917,3.967-1.264,5.89
			c-0.12,0.659-0.371,1.466-0.288,2.142c0.043,0.362,3.276,0.332,3.604,0.35c0.053,0.004,0.171,0.002,0.188-0.066
			c0.396-1.755,0.758-3.521,1.044-5.3c0.089-0.563,0.397-1.595,0.151-2.149c-0.259-0.589-2.644-0.781-3.186-0.906
			C13.518,51.717,13.27,51.805,13.461,51.847z"/>
	</g>
</g>
<g>
	
		<linearGradient id="SVGID_5_" gradientUnits="userSpaceOnUse" x1="27.4976" y1="569.0669" x2="30.2733" y2="573.2306" gradientTransform="matrix(1 0.0022 -0.0022 1 45.792 -525.377)">
		<stop  offset="0.3539" style="stop-color:#FBD619"/>
		<stop  offset="0.7697" style="stop-color:#F6C122"/>
		<stop  offset="0.9663" style="stop-color:#F5B123"/>
	</linearGradient>
	<path fill="url(#SVGID_5_)" d="M72.33,41.544l-2.354,2.344l3.275,6.538l3.742-2.521C76.992,47.904,76.287,42.979,72.33,41.544z"/>
	<g>
		<path fill="#D16230" d="M72.188,41.514c-0.784,0.782-1.569,1.562-2.354,2.345c-0.008,0.01-0.008,0.021-0.002,0.031
			c1.09,2.18,2.185,4.359,3.273,6.538c0.035,0.07,0.215,0.08,0.271,0.041c1.248-0.842,2.494-1.683,3.74-2.522
			c0.015-0.004,0.021-0.016,0.023-0.026c-0.424-2.771-2.1-5.35-4.729-6.418c-0.086-0.035-0.344,0.016-0.162,0.088
			c2.574,1.047,4.097,3.57,4.578,6.224c0.051,0.262-1.605,1.158-1.834,1.311c-0.429,0.287-0.855,0.578-1.285,0.867
			c-0.159,0.107-0.318,0.217-0.48,0.324c-0.199,0.135,0.203,0.18,0.13,0.032c-0.897-1.793-1.797-3.587-2.692-5.378
			c-0.357-0.713-0.703-0.895-0.133-1.46c0.647-0.645,1.295-1.29,1.942-1.934C72.529,41.523,72.253,41.451,72.188,41.514z"/>
	</g>
</g>
<g>
	<polygon fill="#B672AB" points="62.443,50.609 62.425,48.752 63.578,49.939 65.037,49.432 64.453,50.566 65.561,51.863 
		63.642,51.557 63.059,53.476 62.716,51.598 61.008,51.365 	"/>
	<g>
		<path fill="#FFFFFF" d="M62.592,50.601c-0.007-0.617-0.013-1.236-0.019-1.854c-0.099,0.01-0.199,0.02-0.293,0.027
			c0.383,0.396,0.766,0.791,1.15,1.188c0.049,0.049,0.159,0.049,0.223,0.025c0.484-0.168,0.973-0.338,1.457-0.508
			c-0.072-0.019-0.148-0.037-0.222-0.059c-0.194,0.377-0.39,0.756-0.583,1.133c-0.006,0.014-0.006,0.023,0.002,0.033
			c0.368,0.432,0.736,0.865,1.107,1.299c0.07-0.025,0.145-0.051,0.215-0.076c-0.639-0.104-1.277-0.203-1.918-0.306
			c-0.043-0.009-0.198-0.021-0.219,0.043c-0.192,0.642-0.387,1.278-0.582,1.919c0.1,0.002,0.197,0.003,0.295,0.005
			c-0.112-0.627-0.229-1.25-0.34-1.878c-0.01-0.031-0.052-0.045-0.078-0.05c-0.561-0.075-1.123-0.149-1.685-0.229
			c0.341,0.047,1.042-0.455,1.442-0.668c0.143-0.072-0.146-0.111-0.215-0.076c-0.479,0.252-0.957,0.504-1.437,0.758
			c-0.067,0.037-0.03,0.086,0.035,0.094c0.272,0.037,1.634,0.189,1.64,0.204c0.108,0.618,0.223,1.237,0.338,1.856
			c0.016,0.08,0.273,0.078,0.293,0.006c0.191-0.633,0.385-1.264,0.575-1.896c-0.026,0.088-0.319,0.005,0.087,0.07
			c0.221,0.035,0.441,0.068,0.662,0.105c0.317,0.051,0.637,0.102,0.958,0.151c0.021,0.004,0.278-0.003,0.218-0.076
			c-0.35-0.409-0.697-0.817-1.045-1.228c-0.143-0.162,0.418-0.969,0.521-1.172c0.042-0.084-0.189-0.072-0.223-0.061
			c-0.215,0.075-0.431,0.148-0.646,0.225c-0.161,0.055-0.322,0.11-0.482,0.168c-0.342,0.117-0.244,0.002-0.125,0.125
			c-0.379-0.39-0.759-0.779-1.137-1.168c-0.044-0.045-0.295-0.07-0.292,0.024c0.007,0.62,0.013,1.237,0.019,1.854
			C62.294,50.697,62.592,50.691,62.592,50.601z"/>
	</g>
</g>
<g>
	<polygon fill="#CB77AD" points="66.591,45.342 66.521,45.83 65.41,46.542 66.382,46.64 66.449,48.029 67.263,46.64 68.853,47.363 
		68.046,46.135 68.928,45.14 67.613,45.462 67.195,45.162 	"/>
	<g>
		<path fill="#FFFFFF" d="M66.445,45.328c-0.057,0.373-0.029,0.447-0.338,0.645c-0.273,0.176-0.546,0.352-0.822,0.525
			c-0.086,0.057,0.09,0.1,0.121,0.104c0.324,0.032,0.646,0.066,0.971,0.1c-0.047-0.024-0.096-0.049-0.146-0.073
			c0.022,0.463,0.045,0.927,0.067,1.39c0.004,0.084,0.255,0.106,0.291,0.041c0.273-0.461,0.546-0.925,0.814-1.388
			c-0.084,0.002-0.168,0.002-0.252,0.004c0.53,0.239,1.063,0.481,1.594,0.722c0.024,0.012,0.31,0.047,0.254-0.035
			c-0.269-0.406-0.532-0.81-0.801-1.215c-0.024-0.041,0.776-0.869,0.871-0.977c0.067-0.077-0.214-0.09-0.244-0.082
			c-0.24,0.061-0.482,0.117-0.724,0.178c-0.153,0.036-0.306,0.073-0.457,0.11c-0.231,0.057,0.197,0.144-0.112-0.083
			c-0.391-0.283-0.578-0.145-1.043-0.004c-0.148,0.045,0.133,0.125,0.203,0.105c0.122-0.037,0.242-0.074,0.365-0.109
			c0.348-0.104-0.018-0.119,0.109-0.028c0.139,0.103,0.289,0.271,0.476,0.267c0.449-0.009,0.952-0.226,1.386-0.33
			c-0.08-0.026-0.162-0.056-0.244-0.082c-0.293,0.332-0.588,0.664-0.883,0.994c-0.009,0.01-0.011,0.021-0.002,0.031
			c0.27,0.41,0.539,0.818,0.807,1.229c0.084-0.012,0.17-0.023,0.254-0.035c-0.53-0.24-1.061-0.48-1.592-0.723
			c-0.052-0.021-0.213-0.063-0.252,0.004c-0.271,0.463-0.541,0.928-0.813,1.389c0.097,0.016,0.195,0.027,0.293,0.043
			c-0.021-0.463-0.045-0.926-0.066-1.389c-0.005-0.057-0.105-0.067-0.146-0.072c-0.324-0.034-0.646-0.067-0.972-0.1
			c0.039,0.031,0.08,0.066,0.121,0.1c0.305-0.195,0.609-0.393,0.914-0.586c0.28-0.178,0.239-0.297,0.291-0.639
			C66.755,45.275,66.455,45.24,66.445,45.328z"/>
	</g>
</g>
<g>
	<path fill="#CB77AD" d="M68.43,50.412l-0.136-1.389l1.154,0.948l1.364-0.598l-0.694,1.247c0,0,1.226,0.605,1.152,0.605
		c-0.066,0-0.531,0.301-0.531,0.301l-1.018-0.188l-0.257,1.039l-0.577,0.37l-0.066-1.158l-1.711-0.139L68.43,50.412z"/>
	<g>
		<path fill="#FFFFFF" d="M68.58,50.424c-0.045-0.463-0.09-0.925-0.135-1.388c-0.095,0.002-0.188,0.005-0.283,0.008
			c0.385,0.314,0.771,0.632,1.152,0.947c0.064,0.054,0.186,0.053,0.26,0.021c0.455-0.196,0.912-0.396,1.366-0.597
			c-0.091-0.021-0.18-0.047-0.271-0.067c-0.231,0.416-0.465,0.831-0.694,1.247c-0.017,0.029,0.009,0.051,0.033,0.063
			c0.165,0.082,1.013,0.584,1.054,0.563c-0.138,0.075-0.271,0.154-0.4,0.238c0.076-0.053,0.094,0.011-0.1-0.025
			c-0.268-0.049-0.531-0.097-0.797-0.146c-0.045-0.008-0.178-0.021-0.193,0.043c-0.078,0.313-0.152,0.621-0.231,0.933
			c-0.052,0.211-0.405,0.336-0.579,0.448c0.092,0.02,0.184,0.033,0.275,0.054c-0.022-0.387-0.047-0.771-0.068-1.157
			c-0.004-0.058-0.104-0.068-0.145-0.072c-0.563-0.045-1.127-0.092-1.688-0.137c0.213,0.02,0.095,0.104,0.308-0.063
			c0.15-0.12,0.301-0.239,0.451-0.359c0.221-0.173,0.441-0.347,0.659-0.52c0.094-0.072-0.188-0.131-0.251-0.08
			c-0.439,0.347-0.881,0.693-1.318,1.04c-0.076,0.062,0.081,0.097,0.122,0.101c0.517,0.041,1.033,0.084,1.552,0.127
			c0.25,0.02,0.017,0.018,0.014-0.031c0.008,0.105,0.014,0.213,0.021,0.319c0.016,0.271,0.03,0.54,0.047,0.812
			c0.008,0.091,0.225,0.084,0.277,0.052c0.12-0.075,0.566-0.261,0.6-0.397c0.086-0.347,0.172-0.693,0.258-1.039
			c-0.065,0.014-0.129,0.027-0.194,0.043c0.328,0.062,0.655,0.121,0.987,0.184c0.271,0.049,0.467-0.207,0.707-0.301
			c0.021-0.008,0.06-0.022,0.043-0.055c-0.139-0.264-0.852-0.467-1.111-0.596c-0.063-0.031,0.174-0.363,0.266-0.529
			c0.129-0.23,0.26-0.463,0.387-0.695c0.057-0.098-0.229-0.088-0.271-0.067c-0.448,0.196-0.896,0.394-1.345,0.588
			c0.18-0.077,0.306,0.085,0.102-0.084c-0.146-0.12-0.294-0.241-0.439-0.36c-0.193-0.158-0.383-0.316-0.577-0.476
			c-0.034-0.028-0.289-0.081-0.28,0.009c0.044,0.463,0.09,0.926,0.135,1.389C68.289,50.494,68.585,50.499,68.58,50.424z"/>
	</g>
</g>
<g>
	<path fill="#A96EA9" d="M41.041,55.843c-0.12,0.053,0.175,0.883,0.229,0.982c0.123-0.071,0.2-0.199,0.346-0.26
		c0.188-0.078,0.418-0.104,0.622-0.078c0.366,0.029,0.741,0.086,1.082,0.222c0.416,0.161,0.762,0.471,1.172,0.631
		c0.268,0.103,0.553,0.14,0.836,0.133c0.205-0.005,0.512,0.011,0.705-0.062c0.217-0.069,0.187-0.258,0.187-0.454
		c0-0.077-0.054-0.462,0.002-0.521c0,0-0.431,0.426-0.912,0.264C44.832,56.542,42.216,55.314,41.041,55.843z"/>
	<g>
		<path fill="#FFFFFF" d="M40.893,55.814c-0.118,0.278,0.12,0.748,0.232,1c0.033,0.076,0.222,0.109,0.281,0.059
			c1.038-0.855,2.741,0.678,3.983,0.666c1.039-0.006,0.822-0.192,0.975-1.069c0.018-0.091-0.234-0.118-0.283-0.071
			c-0.662,0.582-2.266-0.342-2.967-0.535c-0.708-0.197-1.49-0.328-2.197-0.072c-0.101,0.035,0.167,0.138,0.243,0.111
			c1.211-0.438,2.745,0.314,3.87,0.768c0.477,0.191,0.926,0.17,1.325-0.186c-0.095-0.023-0.188-0.047-0.284-0.072
			c-0.08,0.471,0.26,0.955-0.58,0.996c-0.906,0.045-1.65-0.596-2.476-0.854c-0.67-0.212-1.339-0.219-1.887,0.232
			c0.096,0.019,0.188,0.039,0.283,0.058c-0.106-0.243-0.333-0.719-0.229-0.967C41.215,55.806,40.93,55.726,40.893,55.814z"/>
	</g>
</g>
<g>
	<path fill="#D094C0" d="M35.379,58.605c-0.12,0.057,0.173,0.885,0.228,0.985c0.123-0.073,0.202-0.201,0.348-0.257
		c0.188-0.08,0.414-0.104,0.62-0.084c0.369,0.029,0.741,0.088,1.089,0.225c0.41,0.161,0.754,0.469,1.164,0.631
		c0.267,0.103,0.557,0.141,0.838,0.133c0.204-0.004,0.512,0.013,0.701-0.057c0.216-0.074,0.188-0.256,0.188-0.459
		c0-0.076-0.055-0.462,0-0.523c0,0-0.428,0.43-0.909,0.27C39.167,59.308,36.555,58.072,35.379,58.605z"/>
	<g>
		<path fill="#FFFFFF" d="M35.232,58.595c-0.119,0.289,0.11,0.744,0.23,1.016c0.031,0.072,0.229,0.043,0.275,0.006
			c1.168-0.959,2.021,0.248,2.983,0.533c0.397,0.119,0.76,0.147,1.172,0.146c0.926-0.004,0.686-0.355,0.81-1.104
			c0.015-0.084-0.245-0.051-0.281-0.02c-0.675,0.604-2.23-0.378-2.948-0.557c-0.73-0.18-1.479-0.313-2.206-0.049
			c-0.143,0.053,0.147,0.103,0.216,0.076c1.197-0.434,2.753,0.354,3.863,0.797c0.474,0.189,0.946,0.133,1.335-0.217
			c-0.094-0.007-0.188-0.015-0.282-0.021c-0.029,0.179-0.014,0.346,0,0.523c0.065,0.842-1.669,0.235-1.746,0.197
			c-0.435-0.211-0.789-0.521-1.276-0.619c-0.717-0.139-1.316-0.225-1.904,0.258c0.092,0.002,0.183,0.004,0.273,0.006
			c-0.099-0.226-0.33-0.701-0.227-0.955C35.558,58.529,35.265,58.517,35.232,58.595z"/>
	</g>
</g>
<g>
	<path fill="#CB77AD" d="M47.871,58.843c-0.121,0.057,0.17,0.885,0.229,0.984c0.12-0.072,0.197-0.196,0.346-0.256
		c0.188-0.08,0.418-0.104,0.617-0.082c0.371,0.027,0.744,0.09,1.092,0.225c0.406,0.161,0.752,0.467,1.168,0.628
		c0.262,0.104,0.553,0.144,0.838,0.134c0.198-0.005,0.504,0.01,0.703-0.055c0.213-0.074,0.184-0.256,0.184-0.461
		c0-0.077-0.053-0.463,0-0.518c0,0-0.43,0.426-0.906,0.262C51.66,59.545,49.044,58.314,47.871,58.843z"/>
	<g>
		<path fill="#FFFFFF" d="M47.724,58.833c-0.122,0.287,0.107,0.744,0.23,1.016c0.033,0.07,0.229,0.045,0.275,0.006
			c1.146-0.945,2.03,0.238,2.982,0.533c0.398,0.123,0.762,0.146,1.174,0.146c0.929-0.006,0.681-0.344,0.807-1.096
			c0.016-0.084-0.244-0.054-0.279-0.021c-0.676,0.598-2.23-0.385-2.948-0.561c-0.729-0.18-1.479-0.313-2.204-0.052
			c-0.145,0.054,0.145,0.104,0.214,0.077c1.199-0.432,2.755,0.354,3.866,0.795c0.475,0.189,0.939,0.141,1.333-0.207
			c-0.095-0.008-0.187-0.016-0.282-0.021c-0.027,0.177-0.012,0.34,0,0.519c0.064,0.837-1.656,0.24-1.746,0.198
			c-0.436-0.209-0.789-0.521-1.277-0.616c-0.717-0.142-1.313-0.229-1.9,0.254c0.092,0,0.184,0.003,0.273,0.005
			c-0.096-0.205-0.334-0.703-0.229-0.951C48.051,58.771,47.755,58.754,47.724,58.833z"/>
	</g>
</g>
<g>
	<path fill="#B386B8" d="M50.19,55.068c-0.122,0.055,0.173,0.885,0.226,0.979c0.125-0.066,0.205-0.195,0.348-0.255
		c0.191-0.075,0.418-0.103,0.62-0.084c0.368,0.032,0.743,0.096,1.09,0.226c0.412,0.166,0.757,0.471,1.165,0.631
		c0.262,0.104,0.554,0.141,0.842,0.137c0.199-0.006,0.508,0.009,0.703-0.059c0.213-0.074,0.186-0.258,0.186-0.459
		c0-0.076-0.058-0.465,0-0.517c0,0-0.426,0.427-0.908,0.263C53.978,55.767,51.363,54.535,50.19,55.068z"/>
	<g>
		<path fill="#FFFFFF" d="M50.044,55.056c-0.123,0.287,0.109,0.742,0.229,1.014c0.033,0.072,0.229,0.039,0.275,0.002
			c1.179-0.932,2.021,0.244,2.986,0.539c0.396,0.121,0.762,0.151,1.174,0.146c0.935-0.013,0.673-0.349,0.809-1.097
			c0.016-0.084-0.246-0.049-0.281-0.018c-0.67,0.596-2.236-0.39-2.951-0.564c-0.729-0.18-1.479-0.311-2.201-0.049
			c-0.146,0.053,0.146,0.103,0.218,0.076c1.194-0.435,2.753,0.353,3.862,0.799c0.474,0.189,0.941,0.137,1.332-0.215
			c-0.09-0.006-0.186-0.011-0.278-0.018c-0.032,0.175-0.017,0.337,0,0.516c0.067,0.846-1.673,0.233-1.749,0.196
			c-0.436-0.211-0.788-0.519-1.278-0.614c-0.729-0.146-1.305-0.222-1.903,0.254c0.092,0,0.184,0.002,0.274,0.002
			c-0.099-0.224-0.332-0.699-0.224-0.949C50.371,54.992,50.08,54.98,50.044,55.056z"/>
	</g>
</g>
<g>
	<path fill="#A96EA9" d="M41.682,63.21c-0.123,0.059,0.173,0.889,0.229,0.984c0.122-0.071,0.2-0.197,0.349-0.258
		c0.188-0.078,0.412-0.101,0.618-0.082c0.369,0.031,0.742,0.09,1.086,0.225c0.412,0.162,0.758,0.466,1.17,0.629
		c0.266,0.105,0.553,0.143,0.839,0.136c0.201-0.002,0.509,0.011,0.7-0.056c0.215-0.076,0.188-0.258,0.188-0.459
		c0-0.076-0.052-0.463,0-0.52c0,0-0.426,0.426-0.906,0.264C45.472,63.914,42.856,62.68,41.682,63.21z"/>
	<g>
		<path fill="#FFFFFF" d="M41.54,63.162c-0.121,0.279,0.111,0.744,0.228,1.002c0.031,0.07,0.206,0.148,0.273,0.093
			c1.092-0.878,2.75,0.665,4.016,0.661c0.328-0.001,0.623,0.023,0.893-0.176c0.131-0.098,0.035-0.776,0.055-0.885
			c0.014-0.088-0.219-0.16-0.273-0.111c-0.679,0.605-2.031-0.237-2.756-0.459c-0.759-0.229-1.636-0.426-2.403-0.147
			c-0.108,0.038,0.15,0.169,0.227,0.142c1.194-0.433,2.661,0.264,3.772,0.709c0.516,0.207,0.967,0.289,1.422-0.119
			c-0.09-0.036-0.182-0.071-0.273-0.108c-0.079,0.487,0.271,0.968-0.605,1.007c-0.848,0.039-1.391-0.517-2.13-0.746
			c-0.767-0.238-1.536-0.427-2.203,0.111c0.092,0.031,0.183,0.063,0.272,0.094c-0.105-0.24-0.341-0.707-0.227-0.969
			C41.857,63.185,41.577,63.08,41.54,63.162z"/>
	</g>
</g>
<g>
	<path fill="#CB77AD" d="M35.486,65.865c-0.123,0.058,0.173,0.89,0.229,0.986c0.12-0.074,0.2-0.199,0.347-0.26
		c0.189-0.079,0.416-0.1,0.617-0.081c0.371,0.032,0.747,0.091,1.091,0.224c0.412,0.162,0.752,0.469,1.167,0.631
		c0.266,0.104,0.555,0.141,0.837,0.133c0.198-0.004,0.509,0.008,0.706-0.055c0.212-0.074,0.185-0.258,0.185-0.459
		c0-0.076-0.056-0.461,0-0.52c0,0-0.426,0.425-0.906,0.266C39.272,66.568,36.664,65.337,35.486,65.865z"/>
	<g>
		<path fill="#FFFFFF" d="M35.342,65.824c-0.12,0.281,0.114,0.746,0.229,1.004c0.032,0.072,0.214,0.131,0.279,0.078
			c1.196-0.992,2.667,0.627,3.981,0.662c1.054,0.028,0.83-0.227,0.975-1.064c0.017-0.088-0.229-0.143-0.282-0.094
			c-0.687,0.615-1.992-0.238-2.75-0.467c-0.76-0.231-1.633-0.42-2.404-0.142c-0.104,0.036,0.159,0.153,0.233,0.126
			c1.192-0.428,2.667,0.271,3.771,0.721c0.514,0.205,0.966,0.276,1.421-0.131c-0.094-0.031-0.188-0.063-0.281-0.094
			c-0.107,0.637,0.09,0.996-0.803,1.003c-0.893,0.009-1.192-0.519-1.928-0.751c-0.771-0.24-1.548-0.426-2.207,0.12
			c0.094,0.026,0.188,0.051,0.281,0.078c-0.107-0.241-0.341-0.706-0.229-0.972C35.661,65.834,35.379,65.74,35.342,65.824z"/>
	</g>
</g>
<g>
	<path fill="#CB77AD" d="M47.225,67.228c-0.12,0.055,0.174,0.885,0.229,0.981c0.123-0.073,0.201-0.198,0.347-0.257
		c0.188-0.077,0.418-0.104,0.618-0.082c0.369,0.031,0.746,0.092,1.091,0.225c0.407,0.161,0.755,0.467,1.166,0.628
		c0.265,0.106,0.557,0.144,0.84,0.136c0.2-0.006,0.509,0.008,0.702-0.059c0.216-0.072,0.183-0.255,0.183-0.456
		c0-0.08-0.053-0.465,0-0.521c0,0-0.426,0.429-0.903,0.263C51.013,67.926,48.401,66.695,47.225,67.228z"/>
	<g>
		<path fill="#FFFFFF" d="M47.082,67.182c-0.117,0.277,0.115,0.742,0.23,0.999c0.031,0.071,0.208,0.143,0.275,0.088
			c1.078-0.88,2.758,0.674,4.019,0.661c0.323-0.004,0.619,0.022,0.89-0.176c0.123-0.093,0.031-0.784,0.047-0.884
			c0.019-0.088-0.219-0.154-0.273-0.105c-0.654,0.588-2.037-0.244-2.753-0.461c-0.761-0.23-1.634-0.422-2.405-0.145
			c-0.104,0.037,0.152,0.162,0.229,0.137c1.192-0.432,2.669,0.264,3.774,0.709c0.512,0.206,0.967,0.288,1.42-0.12
			c-0.093-0.037-0.185-0.069-0.274-0.104c-0.082,0.486,0.272,0.961-0.604,1.004c-0.906,0.045-1.656-0.6-2.479-0.855
			c-0.655-0.203-1.313-0.216-1.854,0.223c0.094,0.029,0.187,0.06,0.277,0.088c-0.107-0.238-0.341-0.703-0.23-0.965
			C47.399,67.197,47.119,67.099,47.082,67.182z"/>
	</g>
</g>
<g>
	<g>
		<path fill="#DAA5C9" d="M19.973,55.662c0.083-0.555,0.35-0.988,0.813-1.303c0.917-0.619,2.01,0.045,2.096,1.058
			c0.067,0.793-1.086,1.745-1.682,0.687c-0.165-0.295-0.067-0.629,0.122-0.869c0.568-0.187,0.84-0.063,0.815,0.371
			c-0.037,0.082-0.072,0.164-0.107,0.246c-0.517-0.143-0.581-0.225-0.193-0.246c0.018,0.098,0.31,0.103,0.297,0.037
			c-0.049-0.295-0.634-0.554-0.779-0.177c-0.214,0.563,0.429,0.71,0.83,0.556c0.65-0.252,0.039-1.039-0.406-1.096
			c-0.772-0.093-1.15,0.678-0.793,1.307c0.248,0.447,0.969,0.573,1.41,0.385c0.819-0.354,0.977-1.25,0.517-1.973
			c-0.361-0.566-1.104-0.703-1.719-0.621c-0.824,0.114-1.398,0.813-1.516,1.603C19.664,55.708,19.96,55.748,19.973,55.662
			L19.973,55.662z"/>
	</g>
</g>
<g>
	<g>
		<path fill="#DAA5C9" d="M26.898,55.763c0.075-0.506,0.293-0.9,0.693-1.227c0.807-0.658,2-0.236,2.212,0.771
			c0.159,0.75-0.846,1.952-1.615,1.011c-0.239-0.297-0.163-0.709,0.054-0.984c0.229-0.245,0.503-0.188,0.825,0.177
			c-0.013,0.095-0.021,0.187-0.032,0.281c-0.563,0.188-0.65,0.147-0.266-0.122c0.013,0.085,0.297,0.148,0.283,0.061
			c-0.066-0.441-0.667-0.481-0.819-0.076c-0.155,0.418,0.635,0.66,0.887,0.453c0.537-0.434,0.078-0.99-0.44-1.111
			c-0.645-0.151-1.142,0.617-0.83,1.168c0.791,1.4,2.958,0.111,2.064-1.29c-0.913-1.437-3.063-0.81-3.305,0.801
			C26.598,55.763,26.886,55.837,26.898,55.763L26.898,55.763z"/>
	</g>
</g>
<g>
	<g>
		<path fill="#DAA5C9" d="M23.265,59.195c0.092-0.607,0.408-1.086,0.95-1.383c0.907-0.502,1.881,0.135,1.965,1.104
			c0.074,0.846-1.135,1.697-1.689,0.718c-0.225-0.397-0.004-0.845,0.37-1.032c0.406-0.006,0.601,0.159,0.578,0.5
			c-0.036,0.084-0.072,0.166-0.109,0.25c-0.494,0.053-0.558-0.023-0.194-0.228c0.014,0.081,0.304,0.13,0.29,0.036
			c-0.072-0.457-0.675-0.444-0.828-0.049c-0.162,0.418,0.65,0.625,0.894,0.428c0.512-0.413,0.098-1.035-0.448-1.105
			c-0.77-0.098-1.105,0.694-0.763,1.297c0.274,0.484,0.932,0.541,1.404,0.412c0.88-0.236,0.931-1.322,0.522-1.965
			c-0.316-0.494-1.016-0.742-1.58-0.666c-0.883,0.12-1.52,0.729-1.651,1.613C22.959,59.214,23.253,59.275,23.265,59.195
			L23.265,59.195z"/>
	</g>
</g>
<g>
	<g>
		<path fill="#DAA5C9" d="M16.311,58.88c0.083-0.559,0.348-0.982,0.815-1.299c0.864-0.583,1.884-0.006,2.076,0.912
			c0.173,0.83-0.871,1.848-1.592,0.961c-0.206-0.254-0.181-0.604-0.048-0.879c0.153-0.254,0.386-0.327,0.697-0.217
			c0.069,0.112,0.139,0.227,0.21,0.34c0.058,0.203-0.042,0.256-0.297,0.16c0.017,0.092,0.313,0.076,0.299,0.004
			c-0.079-0.455-0.685-0.399-0.832-0.021c-0.171,0.442,0.636,0.603,0.885,0.396c0.458-0.371,0.181-1.084-0.416-1.076
			c-0.747,0.009-1.181,0.627-0.789,1.318c0.3,0.53,1.061,0.51,1.537,0.305c0.771-0.332,0.781-1.307,0.39-1.92
			c-0.342-0.541-1.127-0.736-1.724-0.598c-0.818,0.188-1.386,0.768-1.513,1.607C16,58.953,16.299,58.972,16.311,58.88L16.311,58.88z
			"/>
	</g>
</g>
<g>
	<g>
		<path fill="#DAA5C9" d="M24.472,53.336c0.083-0.562,0.347-0.983,0.815-1.3c0.863-0.582,1.884-0.006,2.073,0.914
			c0.173,0.828-0.866,1.845-1.591,0.961c-0.207-0.254-0.18-0.604-0.047-0.879c0.15-0.256,0.385-0.33,0.695-0.221
			c0.07,0.112,0.141,0.227,0.21,0.34c0.057,0.203-0.041,0.258-0.296,0.158c0.015,0.096,0.313,0.078,0.3,0.006
			c-0.078-0.457-0.688-0.398-0.834-0.017c-0.167,0.438,0.636,0.604,0.887,0.396c0.455-0.373,0.182-1.09-0.418-1.08
			c-0.748,0.013-1.178,0.631-0.787,1.322c0.301,0.526,1.063,0.506,1.537,0.301c0.772-0.328,0.779-1.307,0.388-1.918
			c-0.344-0.539-1.127-0.735-1.721-0.599c-0.819,0.188-1.389,0.769-1.511,1.608C24.163,53.408,24.46,53.427,24.472,53.336
			L24.472,53.336z"/>
	</g>
</g>
<path fill="#5690C2" d="M48.912,46.222c-0.004,1.576-3.283,2.852-7.32,2.838c-4.039-0.006-7.31-1.291-7.308-2.867
	c0.006-1.578,3.279-2.849,7.318-2.84C45.641,43.361,48.912,44.648,48.912,46.222z"/>
<g>
	<path fill="#FFFFFF" d="M49.412,35.9c0,0,1.391,0.004,1.498-0.156"/>
	<g>
		<path fill="#040402" d="M49.376,35.961c0.299,0,0.601-0.01,0.902-0.028c0.219-0.014,0.586-0.006,0.76-0.168
			c0.084-0.079-0.203-0.097-0.262-0.043c-0.232,0.215-1.025,0.118-1.33,0.118C49.322,35.839,49.171,35.961,49.376,35.961
			L49.376,35.961z"/>
	</g>
</g>
<g>
	<path fill="#FFFFFF" d="M34.673,38.272c-0.159,0.108-1.28,0.851-1.28,0.851"/>
	<g>
		<path fill="#040402" d="M34.563,38.247c-0.426,0.286-0.854,0.567-1.281,0.851c-0.132,0.087,0.158,0.091,0.224,0.049
			c0.427-0.283,0.854-0.565,1.281-0.852C34.917,38.208,34.626,38.203,34.563,38.247L34.563,38.247z"/>
	</g>
</g>
<g>
	<path fill="#F9D9B0" d="M30.612,21.404c0,0-4.626,4.86-4.635,9.476c-0.012,4.62,0.89,16.598,17.279,15.817
		c16.704-0.799,15.19-21.258,7.889-26.278C43.833,15.399,33.826,17.306,30.612,21.404z"/>
	<g>
		<path fill="#D16230" d="M30.468,21.379c-4.946,5.28-6.053,12.566-2.479,18.906c3.792,6.728,14.501,8.265,21.068,5.197
			c7.191-3.358,8.738-11.962,6.428-18.955c-2.761-8.35-12.734-10.77-20.447-8.162C33.284,18.958,31.667,19.964,30.468,21.379
			c-0.051,0.061,0.229,0.122,0.286,0.053c3.771-4.451,10.979-4.634,16.112-3.044c4.041,1.249,6.688,3.888,8.182,7.737
			c2.41,6.225,1.299,14.345-4.465,18.31c-4.289,2.953-10.692,2.775-15.449,1.28c-3.612-1.136-6.313-3.825-7.747-7.272
			c-2.495-6.004-1.049-12.296,3.366-17.009C30.804,21.377,30.53,21.312,30.468,21.379z"/>
	</g>
</g>
<g>
	
		<linearGradient id="SVGID_6_" gradientUnits="userSpaceOnUse" x1="-1.5928" y1="572.4321" x2="-1.5928" y2="539.104" gradientTransform="matrix(1 0.0022 -0.0022 1 45.792 -525.377)">
		<stop  offset="0.0056" style="stop-color:#DC5821"/>
		<stop  offset="0.3764" style="stop-color:#ED8C21"/>
	</linearGradient>
	<path fill="url(#SVGID_6_)" d="M27.364,35.622c-0.513-1.706-0.793-3.366-0.418-4.3c0.418-1.045,1.854-1.309,2.246-2.35
		c0.427-1.129-0.877-2.322-0.373-3.255c0.298-0.555,2.518-0.926,3.044-1.339c0.381-0.301,1.5-5.869,4.01-3.349
		c0,0,1.413-1.536,1.926-1.406c0.512,0.129,0.381,2.054,2.176,1.927c1.798-0.125,1.286-1.15,1.286-1.15s0.253,1.283,2.308,0.646
		c2.057-0.638,1.285-1.794,1.93-1.79c0.644,0,2.947,1.671,2.947,1.671s1.029-0.38,1.926,0.135c0.897,0.513,0.51,1.666,0.51,1.666
		s2.183,0.004,2.435,1.801c0.255,1.799-0.78,2.821-0.138,3.722c0.64,0.897,1.539,0.771,1.537,2.182
		c-0.004,1.413,0.123,2.184,0.123,2.184c-0.227,3.6-0.436,7-2.104,10.247c0.456,0.324,1.033,0.744,1.579,0.818
		c0.834,0.107,0.852-0.305,1.321-0.508c0.231-0.104,0.015-0.503,0.51-0.515c0.375-0.01,0.369,0.494,0.628,0.617
		c0.702,0.334,1.342,0.748,2.191,0.438c1.656-0.6,0.588-3.362,2.568-2.761c0.572,0.176,0.627,0.758,1.52,0.711
		c1.113-0.053,2.869-1.349,3.015-2.512c0.12-1.003-1.266-1.854-1.101-2.665c0.128-0.642,0.643-1.283,1.541-1.281
		c0.896,0,3.203,1.033,4.359,0.393c1.154-0.637,1.805-3.328,1.034-3.843c-0.769-0.515-3.075-1.161-2.817-2.316
		c0.26-1.154,3.985-2.815,2.834-4.1c-1.151-1.284-1.795-2.055-3.974-2.19c-2.18-0.133-2.563,0.25-4.229-0.65
		c-1.666-0.898,0.137-3.589-0.889-4.748c-1.027-1.159-2.181-1.415-3.588-0.906c-1.414,0.511-2.06,1.792-3.086,1.406
		c-1.025-0.387-1.017-3.979-3.197-4.367c-2.183-0.391-4.498,2.299-6.293,1.908c-1.797-0.387-2.177-2.184-3.59-2.062
		c-1.409,0.126-2.442,2.946-3.853,2.815c-1.412-0.133-3.198-3.084-4.999-2.451c-1.794,0.643-2.57,3.846-3.853,4.096
		c-1.284,0.257-3.715-2.44-5.771-0.652c-2.057,1.792-0.397,6.157-1.556,6.797c-1.154,0.638-7.181-1.172-8.342,2.163
		c-1.16,3.331,2.811,5.264,2.426,6.291c-0.675,1.79-3.282,1.896-3.415,4.22c-0.138,2.428,1.672,4.404,4.035,4.502
		c0.9,0.034,2.156-0.6,2.597,0.489c0.304,0.749-0.834,1.493-0.556,2.593c0.291,1.146,1.643,1.996,2.695,2.28
		c0.47,0.13,1.03,0.223,1.493,0.004c0.169-0.079,0.905-0.917,0.811-0.917c0.675,0.009,1.26,0.771,1.912,0.698
		c1.144-0.133,0.434-1.043,0.943-1.608c0.673-0.755,1.191-0.019,2.01-0.104c0.696-0.076,1.132-0.56,1.401-1.197
		C28.845,41.9,28.157,38.249,27.364,35.622z"/>
	<g>
		<path fill="#D16230" d="M27.506,35.654c-0.349-1.258-0.632-2.436-0.555-3.759c0.066-1.124,1.384-1.707,2.1-2.397
			c1.49-1.438-1.633-3.335,1.038-4.34c0.887-0.333,1.798-0.326,2.171-1.26c0.486-1.222,1.419-4.645,3.499-2.865
			c0.041,0.037,0.194,0.111,0.245,0.057c0.728-0.768,1.463-1.656,2.271-0.422c0.305,0.467,0.56,0.713,1.094,0.897
			c0.722,0.248,2.453-0.057,2.035-1.132c-0.028-0.078-0.309-0.146-0.281-0.065c0.426,1.485,3.084,1.007,3.759,0.092
			c0.702-0.947,0.665-1.29,2.024-0.482c0.5,0.297,0.979,0.635,1.453,0.975c0.854,0.613,2.832,0.048,2.383,1.726
			c-0.02,0.073,0.15,0.121,0.195,0.122c3.338,0.116,1.91,2.779,1.904,4.452c-0.006,1.588,1.717,2.136,1.742,3.916
			c0.061,4.014-0.237,7.959-1.993,11.644c-0.015,0.029,0.036,0.063,0.056,0.072c0.85,0.591,1.768,1.23,2.758,0.597
			c1.26-0.812,1.508,0.573,2.856,0.403c0.592-0.071,1.239-0.058,1.558-0.698c0.438-0.883,0.422-2.867,2.266-1.773
			c1.154,0.686,2.252,0.029,3.22-0.742c0.685-0.548,0.94-1.24,0.821-2.075c-0.031-0.229-0.553-0.924-0.676-1.101
			c-1.322-1.903,1.32-2.235,2.547-1.931c1.693,0.42,3.033,0.598,3.967-1.084c0.519-0.938,0.759-2.429-0.356-2.968
			c-5.272-2.546,0.778-3.164,0.66-5.472c-0.049-0.991-1.464-2.195-2.392-2.535c-0.939-0.343-1.813-0.424-2.817-0.46
			c-1.349-0.049-3.498,0.37-3.933-1.718c-0.146-0.698,0.179-1.475,0.174-2.178c-0.01-1.291-0.858-2.255-2.143-2.544
			c-0.725-0.164-1.332-0.026-2.031,0.168c-1.506,0.417-2.834,2.379-3.736,0.005c-1.436-3.771-3.498-3.221-6.725-1.548
			c-2.607,1.354-3.479-1.405-5.647-1.573c-2.678-0.206-2.039,4.604-5.532,1.781c-2.495-2.016-3.892-1.758-5.68,1.05
			c-1.495,2.348-3.425,0.666-5.526,0.364c-1.616-0.233-2.53,1.341-2.827,2.656c-0.328,1.443,0.763,4.763-1.312,4.899
			c-1.67,0.11-3.291-0.183-4.964,0.083c-1.77,0.281-2.699,1.474-2.832,3.218c-0.12,1.584,1.28,2.952,2.208,4.044
			c1.452,1.71-1.659,2.609-2.414,3.723c-0.929,1.378-0.701,3.494,0.536,4.666c0.818,0.774,1.959,1.531,3.156,1.446
			c1.738-0.122,2.332,0.715,1.792,2.338c-0.18,0.545,0.245,1.351,0.643,1.713c0.87,0.791,1.83,1.323,3.021,1.443
			c0.484,0.049,0.722-0.058,1.03-0.315c0.905-0.761,0.118-0.746,1.724-0.197c1.089,0.375,1.449-0.008,1.558-1.097
			c0.09-0.93,1.621-0.425,2.14-0.452c0.771-0.037,1.122-0.64,1.455-1.224c0.013-0.021-0.016-0.044-0.026-0.054
			C28.918,41.615,28.337,38.505,27.506,35.654c-0.025-0.086-0.306-0.141-0.284-0.064c0.459,1.574,0.871,3.155,1.441,4.692
			c0.253,0.678,0.589,1.296,0.948,1.919c0.24,0.385,0.512,0.744,0.819,1.076c0.552,0.565-0.057,1.037-1.827,1.416
			c-0.557-0.164-0.651-0.002-1.101,0.297c-0.293,0.195-0.242,0.865-0.277,1.16c-0.063,0.582-1.978-0.104-2.43-0.244
			c-0.035-0.01-0.137-0.043-0.159,0.008c-0.852,1.814-3.672,1.219-4.717-1.287c-0.25-0.604,0.377-1.559,0.591-2.124
			c0.128-0.343-0.18-0.827-0.438-0.991c-0.191-0.117-0.44-0.225-0.668-0.217c-3.15,0.093-6.658-1.854-5.269-5.308
			c0.498-1.232,3.582-2.023,3.068-3.626c-0.191-0.596-0.905-1.173-1.296-1.638c-1.154-1.369-1.627-2.954-0.864-4.639
			c1.688-3.723,8.67,1.006,8.592-3.541c-0.021-1.391-0.071-2.731,0.422-4.048c0.878-2.339,3.813-1.027,5.478-0.355
			c1.266,0.512,1.938-0.617,2.544-1.554c1.348-2.082,2.521-3.295,5.168-1.136c0.45,0.368,0.952,0.844,1.508,1.035
			c1.484,0.51,2.365-1.061,3.251-2.003c1.753-1.862,3.037,1.269,4.701,1.385c2.777,0.194,6.1-4.213,8.033-0.06
			c0.32,0.691,0.512,2.201,1.383,2.501c0.466,0.16,0.641,0.072,1.072-0.066c0.207-0.065,0.811-0.543,0.965-0.657
			c1.401-1.147,3.017-0.817,4.84,0.987c0.002,0.538-0.039,1.071-0.123,1.602c-0.17,1.324,0.135,2.24,1.451,2.695
			c0.549,0.188,1.053,0.329,1.638,0.328c1.692-0.004,7.866,1.043,5.313,3.818c-0.815,0.885-2.927,1.753-2.111,3.187
			c0.246,0.438,0.955,0.721,1.371,0.94c1.057,0.562,1.636,0.902,1.477,2.168c-0.225,1.812-1.439,2.629-3.453,2.263
			c-1.389-0.251-2.568-0.932-3.581,0.392c-0.524,0.69,0.195,1.504,0.56,2.032c1.527,2.194-1.993,3.978-3.607,3.105
			c-0.736-0.399-1.409-0.477-1.835,0.342c-0.688,1.321-0.601,3.96-3.489,1.469c-0.109-0.092-0.354-0.338-0.559-0.327
			c-0.445,0.022-0.592,0.55-0.922,0.772c-3.184,2.145-0.985-3.914-0.828-4.587c0.643-2.762,0.589-5.513,0.546-8.305
			c-0.021-1.379-1.214-1.417-1.729-2.645c-0.383-0.91,0.504-2.655,0.184-3.794c-0.249-0.886-1.426-1.227-2.202-1.351
			c-0.103-0.017,0.129-1.373-0.713-1.669c-0.521-0.182-0.867-0.368-1.435-0.274c-0.895,0.148-1.531-0.597-2.322-1.065
			c-0.098-0.057-1.258-0.783-1.482-0.393c-0.523,0.906-3.176,3.323-4.004,1.173c0.54,1.401-2.463,0.64-2.904-0.416
			c-0.106-0.254-0.135-0.264-0.328-0.411c-0.556-0.415-1.486,0.674-1.788,0.955c-0.393,0.363-1.392-0.41-2.151-0.129
			c-0.939,0.348-1.435,1.89-1.753,2.701c-0.63,1.602-1.869,1.549-3.302,2.284c-0.483,0.248-0.343,0.855-0.275,1.266
			c0.249,1.522,0.828,2.261-0.696,3.391c-1.914,1.419-1.299,3.449-0.727,5.506C27.247,35.677,27.529,35.733,27.506,35.654z"/>
	</g>
</g>
<g>
	<path fill="#F9D9B0" d="M27.46,33.17c0,0-1.372-1.726-3.043-0.744c-1.672,0.987-3.788,6.116,1.716,7.176
		c0.989,0.19,3.115-0.979,3.115-0.979"/>
	<g>
		<path fill="#D16230" d="M27.605,33.158c-2.209-2.653-4.859,0.063-5.155,2.593c-0.197,1.688,0.939,3.077,2.494,3.597
			c1.654,0.554,2.921,0.126,4.434-0.691c0.094-0.05-0.188-0.105-0.257-0.066c-1.415,0.764-2.738,1.175-4.311,0.541
			c-1.246-0.503-1.998-1.59-2.074-2.91c-0.129-2.178,2.323-5.748,4.58-3.039C27.374,33.252,27.653,33.213,27.605,33.158
			L27.605,33.158z"/>
	</g>
</g>
<g>
	<path fill="#F9D9B0" d="M23.73,36.198c0,0-0.986-2.414,1.428-2.659c2.412-0.236,2.462,3.348,2.462,3.348"/>
	<g>
		<path fill="#D16230" d="M23.875,36.195c-0.146-0.367-0.206-0.769-0.194-1.163c0.041-1.221,1.496-1.779,2.501-1.231
			c0.979,0.531,1.269,2.057,1.287,3.071c0.002,0.092,0.301,0.109,0.299,0.029c-0.025-1.375-0.54-3.146-2.088-3.411
			c-0.762-0.13-1.867,0.142-2.171,0.941c-0.214,0.563-0.148,1.214,0.072,1.769C23.615,36.278,23.909,36.278,23.875,36.195
			L23.875,36.195z"/>
	</g>
</g>
<g>
	<path fill="#F9D9B0" d="M26.386,36.758c0,0-1.914-1.237,0.562-2.036"/>
	<g>
		<path fill="#D16230" d="M26.497,36.727c-0.204-0.133-0.453-0.379-0.585-0.627c-0.392-0.729,0.618-1.148,1.136-1.325
			c0.15-0.051-0.129-0.133-0.202-0.109c-0.563,0.193-1.491,0.545-1.275,1.31c0.093,0.336,0.424,0.625,0.708,0.811
			C26.342,36.831,26.629,36.815,26.497,36.727L26.497,36.727z"/>
	</g>
</g>
<g>
	<path fill="#F9D9B0" d="M54.537,32.785c0,0-0.238-2.473,3.101-2.408c3.34,0.069,4.255,4.65,1.159,6.192
		c-3.096,1.539-4.451,0.669-4.451,0.669"/>
	<g>
		<path fill="#D16230" d="M54.684,32.811c-0.044-0.595,0.2-1.165,0.587-1.604c1.518-1.726,4.42-0.604,5.116,1.32
			c0.487,1.355-0.108,2.804-1.181,3.667c-0.989,0.797-3.508,1.762-4.75,1.02c-0.065-0.038-0.358-0.032-0.226,0.047
			c0.942,0.563,2.41,0.263,3.347-0.078c2.187-0.794,3.908-2.395,3.008-4.886c-0.938-2.6-6.451-2.828-6.196,0.462
			C54.397,32.857,54.691,32.88,54.684,32.811L54.684,32.811z"/>
	</g>
</g>
<g>
	<path fill="#F9D9B0" d="M55.525,35.074c0.023-0.789,0.176-1.743,0.641-2.399c0.771-1.089,3.354-1.493,3.344,0.455"/>
	<g>
		<path fill="#D16230" d="M55.671,35.094c0.055-1.084,0.244-2.299,1.236-2.915c1-0.62,2.398-0.42,2.453,0.931
			c0.004,0.094,0.299,0.115,0.297,0.04c-0.045-1.128-0.936-1.541-1.959-1.421c-1.732,0.201-2.248,1.792-2.326,3.326
			C55.371,35.144,55.667,35.174,55.671,35.094L55.671,35.094z"/>
	</g>
</g>
<g>
	<path fill="#F9D9B0" d="M58.123,33.782c0,0-0.369-1.917-1.605-1.487"/>
	<g>
		<path fill="#D16230" d="M58.273,33.793c-0.186-0.926-0.804-1.863-1.859-1.548c-0.148,0.044,0.133,0.123,0.203,0.103
			c0.809-0.239,1.231,0.792,1.356,1.422C57.994,33.865,58.285,33.86,58.273,33.793L58.273,33.793z"/>
	</g>
</g>
<g>
	<path fill="#F6BC24" d="M40.58,48.898c0,0-1.85-2.971-3.456-3.285c-1.606-0.312-2.782-0.008-3.155,1.293
		c-0.375,1.297-0.942,6.678,1.963,6.498c2.907-0.183,4.707-1.723,5.021-2.465C41.26,50.195,40.58,48.898,40.58,48.898z"/>
	<g>
		<path fill="#D16230" d="M40.724,48.867c-1.25-1.975-2.797-3.697-5.303-3.368c-2.114,0.278-1.981,3.381-1.881,4.924
			c0.057,0.868,0.281,2.167,1.084,2.694c0.873,0.568,1.91,0.314,2.868,0.109c1.209-0.265,2.403-0.888,3.258-1.783
			C41.46,50.703,41.132,49.689,40.724,48.867c-0.037-0.071-0.328-0.025-0.286,0.062c1.03,2.065-0.327,3.161-2.197,3.929
			c-1.344,0.551-3.146,0.86-3.942-0.562c-0.412-0.733-0.46-1.687-0.487-2.505c-0.064-1.953,0.077-4.411,2.774-4.192
			c1.71,0.138,3.007,1.994,3.853,3.33C40.483,49,40.771,48.945,40.724,48.867z"/>
	</g>
</g>
<g>
	<path fill="#F6BC24" d="M44.851,48.41c0,0,2.363-5.313,4.098-5.311c1.729,0.006,2.896,3.532,2.711,5.697
		c-0.191,2.165-0.873,2.537-2.357,2.963c-1.488,0.432-3.84-0.193-3.84-0.193l-0.309-0.25L44.851,48.41z"/>
	<g>
		<path fill="#D16230" d="M44.996,48.453c0.602-1.338,1.318-2.643,2.186-3.828c0.766-1.053,1.922-2.124,3.146-0.534
			c0.748,0.967,1.025,2.328,1.174,3.508c0.143,1.147,0.016,2.634-0.873,3.466c-1.086,1.021-3.108,0.818-4.409,0.603
			c-1.443-0.238-1.097-2.013-1.224-3.229c-0.008-0.082-0.295-0.146-0.285-0.053c0.103,0.969,0.201,1.938,0.304,2.906
			c0.047,0.453,1.466,0.547,1.625,0.572c2.88,0.478,5.414-0.496,5.178-3.807c-0.089-1.238-0.95-5.715-3.187-5.002
			c-1.934,0.617-3.159,3.614-3.922,5.311C44.675,48.439,44.957,48.539,44.996,48.453z"/>
	</g>
</g>
<g>
	<path fill="#F6BC24" d="M39.342,49.697c-0.695-0.037-2.297,0.506-1.242,1.172c0.641,0.406,1.8-0.006,2.29-0.488"/>
	<g>
		<path fill="#D16230" d="M39.309,49.634c-0.479-0.009-2.22,0.325-1.543,1.092c0.686,0.776,2.146,0.256,2.768-0.314
			c0.055-0.049-0.217-0.127-0.282-0.064c-0.284,0.26-0.616,0.422-0.98,0.537c-0.42,0.135-1.311,0.148-1.37-0.449
			c-0.055-0.517,1.154-0.681,1.475-0.677C39.579,49.762,39.438,49.636,39.309,49.634L39.309,49.634z"/>
	</g>
</g>
<g>
	<path fill="#F6BC24" d="M45.466,50.021c0,0,3.027,0.688,3.154-0.115c0.125-0.809-0.865-0.685-0.865-0.685"/>
	<g>
		<path fill="#D16230" d="M45.365,50.076c0.918,0.205,1.961,0.414,2.893,0.211c0.347-0.075,0.703-0.383,0.474-0.778
			c-0.194-0.337-0.627-0.385-0.979-0.347c-0.18,0.019-0.161,0.137,0.014,0.119c0.365-0.041,0.682,0.113,0.721,0.5
			c0.057,0.551-0.841,0.457-1.175,0.438c-0.586-0.03-1.175-0.128-1.745-0.257C45.492,49.949,45.215,50.042,45.365,50.076
			L45.365,50.076z"/>
	</g>
</g>
<g>
	
		<radialGradient id="SVGID_7_" cx="28.8589" cy="374.3384" r="3.9776" gradientTransform="matrix(0.9256 0.002 -0.002 0.9256 15.7152 -312.285)" gradientUnits="userSpaceOnUse">
		<stop  offset="0.1461" style="stop-color:#E3161E"/>
		<stop  offset="1" style="stop-color:#CC1E1D"/>
	</radialGradient>
	<path fill="url(#SVGID_7_)" d="M45.785,35.04c-0.002,1.947-1.705,3.52-3.797,3.515c-2.095-0.006-3.786-1.586-3.782-3.529
		c0.004-1.947,1.704-3.519,3.798-3.517C44.094,31.515,45.789,33.095,45.785,35.04z"/>
	<g>
		<path fill="#B2552A" d="M45.633,35.046c-0.136,2.264-2.063,3.729-4.387,3.37c-1.692-0.26-2.803-1.783-2.894-3.396
			c-0.126-2.29,2.352-3.687,4.388-3.373C44.433,31.907,45.542,33.43,45.633,35.046c0.006,0.086,0.304,0.072,0.3-0.012
			c-0.26-4.699-7.599-4.691-7.879-0.003c-0.28,4.682,7.602,4.676,7.879,0.003C45.937,34.955,45.639,34.955,45.633,35.046z"/>
	</g>
</g>
<g>
	<path fill="#FFFFFF" d="M32.328,37.574c0,0,1.498-1.758,2.618-0.906c1.118,0.858,3.088,4.013,7.677,3.595
		c4.59-0.419,5.453-3.35,5.349-4.366c-0.106-1.018,1.34-2.505,3.046-1.596c1.704,0.913,1.527,8.491-7.547,9.644
		C34.394,45.101,30.829,38.903,32.328,37.574z"/>
	<g>
		<path fill="#BA2306" d="M32.463,37.627c1.904-2.096,3.606,0.417,5.121,1.477c1.278,0.892,2.787,1.206,4.315,1.266
			c1.936,0.078,3.958-0.601,5.292-2.012c0.908-0.962,1.345-6.377,3.974-3.833c0.988,0.958,0.515,2.985,0.133,4.09
			c-0.797,2.316-2.913,3.778-5.102,4.615c-3.725,1.428-8.535,1.078-11.791-1.261C33.422,41.261,31.247,38.97,32.463,37.627
			c0.059-0.067-0.214-0.171-0.273-0.107c-0.971,1.072,0.254,2.731,0.982,3.566c1.458,1.668,3.682,2.472,5.792,2.881
			c5.092,0.985,12.453-1.065,13.025-7.089c0.135-1.448-0.301-2.403-1.629-2.872c-2.048-0.722-2.336,1.651-2.683,2.905
			c-0.458,1.665-2.106,2.55-3.622,3.024c-3.478,1.088-6.24-0.57-8.546-2.871c-1.115-1.111-2.312-0.651-3.321,0.458
			C32.131,37.586,32.405,37.691,32.463,37.627z"/>
	</g>
</g>
<g>
	<path fill="#47211B" d="M36.928,32.163c0,0.606-0.374,1.095-0.83,1.093c-0.455,0-0.826-0.491-0.826-1.095
		c0.002-0.605,0.373-1.088,0.832-1.088C36.561,31.072,36.932,31.562,36.928,32.163z"/>
</g>
<g>
	<ellipse fill="#47211B" cx="46.406" cy="31.866" rx="0.826" ry="1.095"/>
</g>
<g>
	<path fill="#ED8C21" d="M33.899,27.277c0,0,0.056-1.816,1.335-1.919c1.282-0.102,2.189-0.049,2.189-0.049s-1.06-2.938-2.876-2.194
		C32.734,23.858,33.899,27.277,33.899,27.277z"/>
	<g>
		<path fill="#D16230" d="M34.048,27.274c0.021-0.479,0.159-0.955,0.416-1.358c0.5-0.789,2.069-0.592,2.919-0.547
			c0.041,0.002,0.212,0.002,0.183-0.077c-0.422-1.147-1.513-2.784-2.959-2.276c-1.696,0.597-1.307,2.923-0.857,4.263
			C33.782,27.374,34.069,27.336,34.048,27.274c-0.363-1.081-0.628-2.515-0.047-3.558c0.724-1.3,2.107-0.373,2.695,0.479
			c0.237,0.346,0.437,0.737,0.581,1.132c0.063-0.025,0.121-0.052,0.186-0.078c-0.449-0.023-0.897-0.016-1.345-0.003
			c-0.459,0.014-1.079-0.04-1.491,0.22c-0.602,0.382-0.85,1.124-0.878,1.812C33.745,27.361,34.046,27.362,34.048,27.274z"/>
	</g>
</g>
<g>
	<path fill="#ED8C21" d="M45.59,24.312c0,0,0.909-0.587,1.977,0.006c1.064,0.589,1.603,1.444,1.603,1.444s1.283-2.347-0.422-3.043
		C46.451,21.86,45.59,24.312,45.59,24.312z"/>
	<g>
		<path fill="#D16230" d="M45.703,24.338c1.188-0.723,2.682,0.465,3.326,1.46c0.045,0.069,0.252,0.019,0.286-0.043
			c0.677-1.262,0.718-3.014-1.046-3.249c-1.277-0.17-2.393,0.612-2.822,1.811c-0.031,0.084,0.26,0.07,0.291-0.011
			c0.443-1.235,1.573-1.986,2.887-1.54c1.277,0.436,0.877,2.113,0.398,3c0.098-0.015,0.191-0.028,0.286-0.043
			c-0.769-1.188-2.446-2.28-3.829-1.438C45.345,24.368,45.637,24.378,45.703,24.338z"/>
	</g>
</g>
<g>
	<g>
		<path fill="#BA2306" d="M33.941,38.782c0.985,2.558,5.465,3.233,7.69,3.255c3.739,0.033,7.967-2.029,8.514-6.1
			c0.013-0.091-0.282-0.152-0.292-0.076c-0.339,2.523-2.288,4.42-4.538,5.377c-2.709,1.149-6.228,0.848-8.807-0.461
			c-0.726-0.371-1.961-1.127-2.281-1.956C34.198,38.74,33.914,38.708,33.941,38.782L33.941,38.782z"/>
	</g>
</g>
<g>
	<path fill="#F6BC24" d="M40.214,48.031c-0.004,0.369-0.687,1.854-0.008,2.781c0.677,0.928,0.802,1.855,2.656,1.613
		c1.856-0.244,2.539-0.795,2.604-2.096c0.064-1.297,0.006-2.229-0.676-2.784c-0.68-0.56-0.801-0.806-2.411-0.81
		C40.771,46.736,40.214,47.783,40.214,48.031z"/>
	<g>
		<path fill="#D16230" d="M40.063,48.027c-0.126,0.994-0.55,1.846-0.004,2.795c0.369,0.643,0.765,1.31,1.477,1.592
			c1.125,0.445,3.602-0.047,3.96-1.383c0.457-1.697,0.056-3.778-1.849-4.256C42.617,46.517,40.269,46.582,40.063,48.027
			c-0.012,0.078,0.285,0.102,0.301,0.012c0.218-1.531,2.913-1.512,3.858-0.827c1.184,0.854,1.258,2.248,1.031,3.599
			c-0.114,0.684-0.645,1.067-1.252,1.305c-1.198,0.467-2.558,0.393-3.271-0.725c-0.364-0.57-0.661-1.007-0.674-1.723
			c-0.01-0.561,0.236-1.081,0.307-1.628C40.374,47.957,40.077,47.935,40.063,48.027z"/>
	</g>
</g>
<circle fill="#FFFFFF" cx="40.223" cy="33.704" r="0.815"/>
<path fill="#FFFFFF" d="M36.264,31.825c0,0.171-0.109,0.31-0.243,0.31c-0.13,0-0.238-0.141-0.238-0.31s0.109-0.304,0.242-0.304
	C36.159,31.522,36.264,31.656,36.264,31.825z"/>
<path fill="#FFFFFF" d="M46.457,31.556c0,0.167-0.105,0.308-0.238,0.308s-0.242-0.141-0.24-0.31c0-0.169,0.107-0.304,0.24-0.304
	C46.353,31.25,46.457,31.386,46.457,31.556z"/>
<path fill="#F6B604" d="M18.743,26.491c-0.657,0.157-1.333,0.426-1.333,0.426c-1.014,0.067-1.918-0.768-0.287-1.189
	c1.626-0.419,3.588-0.371,3.427,0.387C20.478,26.435,19.386,26.343,18.743,26.491z"/>
<path fill="#F6B604" d="M66.828,25.315c0.655,0.157,1.33,0.429,1.33,0.429c1.012,0.072,1.918-0.759,0.299-1.189
	c-1.625-0.424-3.594-0.383-3.437,0.376C65.091,25.252,66.184,25.164,66.828,25.315z"/>
<path fill="#F6B604" d="M27.595,18.132c-1.232-0.73-2.31-0.002-1.372,0.699c0.966,0.718,2.161,1.042,2.096,0.27
	C28.291,18.772,27.996,18.372,27.595,18.132z"/>
<path fill="#F6B604" d="M59.695,17.777c1.236-0.728,2.309,0.006,1.366,0.702c-0.97,0.714-2.164,1.028-2.097,0.256
	C58.992,18.412,59.289,18.012,59.695,17.777z"/>
<path fill="#F6B604" d="M35.675,14.992c-0.806-0.612-1.491-0.045-0.873,0.534c0.638,0.591,1.415,0.873,1.36,0.251
	C36.137,15.514,35.942,15.189,35.675,14.992z"/>
<path fill="#F6B604" d="M51.818,14.652c0.809-0.608,1.486-0.037,0.869,0.539c-0.639,0.589-1.417,0.866-1.359,0.244
	C51.351,15.176,51.546,14.847,51.818,14.652z"/>
<path fill="#F6B604" d="M43.291,14.879c0.467-0.637-0.107-0.945-0.563-0.43c-0.469,0.53-0.646,1.078-0.092,0.907
	C42.87,15.285,43.137,15.09,43.291,14.879z"/>
<g>
	<path fill="#F9D9B0" d="M34.995,33.987c-0.002,1.093-1.127,1.979-2.508,1.974c-1.385-0.002-2.509-0.893-2.504-1.983
		c0.005-1.097,1.125-1.981,2.51-1.978C33.876,32.003,34.998,32.893,34.995,33.987z"/>
	<path fill="#F9D8B0" d="M34.942,33.985c-0.002,1.071-1.104,1.938-2.456,1.935c-1.355-0.001-2.457-0.873-2.457-1.942
		c0.004-1.075,1.104-1.943,2.458-1.939C33.846,32.042,34.946,32.912,34.942,33.985z"/>
	<path fill="#F9D7AF" d="M34.891,33.982c-0.002,1.049-1.079,1.899-2.405,1.896c-1.327,0-2.407-0.854-2.405-1.902
		c0.004-1.053,1.08-1.903,2.407-1.899C33.82,32.079,34.895,32.931,34.891,33.982z"/>
	<path fill="#F8D6AF" d="M34.841,33.979c0,1.027-1.056,1.859-2.353,1.857c-1.301,0-2.359-0.836-2.356-1.86
		c0.002-1.031,1.056-1.864,2.356-1.862C33.789,32.116,34.843,32.95,34.841,33.979z"/>
	<path fill="#F8D5AE" d="M34.79,33.976c0,1.005-1.031,1.82-2.302,1.819c-1.272,0-2.309-0.818-2.307-1.82
		c0.002-1.008,1.032-1.825,2.305-1.822C33.76,32.154,34.792,32.969,34.79,33.976z"/>
	<ellipse fill="#F8D4AE" cx="32.487" cy="33.974" rx="2.255" ry="1.781"/>
	<path fill="#F8D3AD" d="M34.691,33.97c0,0.96-0.985,1.742-2.201,1.742c-1.216,0.002-2.205-0.778-2.205-1.738
		c0-0.964,0.983-1.745,2.201-1.745S34.691,33.008,34.691,33.97z"/>
	<path fill="#F8D2AD" d="M34.641,33.966c0.002,0.938-0.963,1.704-2.148,1.704c-1.191,0.002-2.157-0.759-2.157-1.696
		c-0.002-0.942,0.96-1.706,2.147-1.706C33.672,32.267,34.641,33.027,34.641,33.966z"/>
	<ellipse fill="#F8D1AC" cx="32.487" cy="33.969" rx="2.104" ry="1.66"/>
	<path fill="#F7D0AC" d="M34.539,33.962c0.002,0.895-0.915,1.625-2.046,1.627c-1.134,0.004-2.058-0.721-2.058-1.615
		c-0.002-0.898,0.914-1.626,2.047-1.628C33.616,32.341,34.538,33.064,34.539,33.962z"/>
	<ellipse transform="matrix(-1 0.0032 -0.0032 -1 65.1103 67.765)" fill="#F7CFAB" cx="32.501" cy="33.934" rx="2.003" ry="1.581"/>
	
		<ellipse transform="matrix(-1 0.0046 -0.0046 -1 65.1355 67.8517)" fill="#F7CEAB" cx="32.489" cy="34.001" rx="1.952" ry="1.542"/>
	<path fill="#F7CDAA" d="M34.388,33.952c0.004,0.829-0.844,1.508-1.892,1.511c-1.05,0.006-1.906-0.664-1.91-1.492
		c-0.002-0.832,0.844-1.509,1.894-1.513C33.531,32.453,34.386,33.121,34.388,33.952z"/>
	<ellipse transform="matrix(-1 0.0055 -0.0055 -1 65.2148 67.669)" fill="#F7CCAA" cx="32.514" cy="33.925" rx="1.851" ry="1.462"/>
	<ellipse transform="matrix(-1 0.0073 -0.0073 -1 65.2608 67.7512)" fill="#F7CBA9" cx="32.506" cy="33.995" rx="1.8" ry="1.423"/>
	
		<ellipse transform="matrix(-1 0.0074 -0.0074 -1 65.2986 67.6099)" fill="#F6CAA9" cx="32.524" cy="33.926" rx="1.752" ry="1.383"/>
	<ellipse transform="matrix(-1 0.0089 -0.0089 -1 65.3337 67.7228)" fill="#F6C9A8" cx="32.516" cy="34.007" rx="1.7" ry="1.344"/>
	
		<ellipse transform="matrix(-0.9999 0.0102 -0.0102 -0.9999 65.4137 67.5763)" fill="#F6C8A8" cx="32.534" cy="33.955" rx="1.648" ry="1.304"/>
	
		<ellipse transform="matrix(-0.9999 0.0115 -0.0115 -0.9999 65.2661 67.5856)" fill="#F6C8A7" cx="32.439" cy="33.98" rx="1.598" ry="1.265"/>
	
		<ellipse transform="matrix(-0.9999 0.0117 -0.0117 -0.9999 65.3243 67.4174)" fill="#F6C7A7" cx="32.465" cy="33.899" rx="1.547" ry="1.224"/>
	
		<ellipse transform="matrix(-0.9999 0.0135 -0.0135 -0.9999 65.3993 67.5237)" fill="#F6C6A6" cx="32.471" cy="33.983" rx="1.497" ry="1.184"/>
	
		<ellipse transform="matrix(-0.9999 0.0142 -0.0142 -0.9999 65.4604 67.4511)" fill="#F5C5A6" cx="32.491" cy="33.958" rx="1.447" ry="1.145"/>
	
		<ellipse transform="matrix(-0.9999 0.0158 -0.0158 -0.9999 65.578 67.2979)" fill="#F5C4A5" cx="32.524" cy="33.907" rx="1.395" ry="1.105"/>
	
		<ellipse transform="matrix(-0.9999 0.0172 -0.0172 -0.9999 65.4848 67.2683)" fill="#F5C3A5" cx="32.453" cy="33.916" rx="1.348" ry="1.065"/>
	
		<ellipse transform="matrix(-0.9998 0.0201 -0.0201 -0.9998 65.6399 67.1344)" fill="#F5C2A4" cx="32.482" cy="33.898" rx="1.297" ry="1.026"/>
	
		<ellipse transform="matrix(-0.9998 0.0219 -0.0219 -0.9998 65.7638 67.0945)" fill="#F5C1A4" cx="32.514" cy="33.908" rx="1.247" ry="0.987"/>
	
		<ellipse transform="matrix(-0.9997 0.0239 -0.0239 -0.9997 65.7045 67.1176)" fill="#F5C0A3" cx="32.451" cy="33.951" rx="1.195" ry="0.947"/>
	
		<ellipse transform="matrix(-0.9997 0.0258 -0.0258 -0.9997 65.8587 67.0765)" fill="#F4BFA3" cx="32.497" cy="33.963" rx="1.145" ry="0.907"/>
	
		<ellipse transform="matrix(-0.9996 0.0281 -0.0281 -0.9996 65.8885 66.8555)" fill="#F4BEA2" cx="32.475" cy="33.89" rx="1.096" ry="0.868"/>
	
		<ellipse transform="matrix(-0.9995 0.0307 -0.0307 -0.9995 65.8985 66.8678)" fill="#F4BDA2" cx="32.437" cy="33.939" rx="1.043" ry="0.828"/>
	
		<ellipse transform="matrix(-0.9995 0.0327 -0.0327 -0.9995 66.1435 66.8004)" fill="#F4BCA1" cx="32.526" cy="33.941" rx="0.994" ry="0.788"/>
	<path fill="#F4BBA1" d="M33.432,33.896c0.015,0.412-0.396,0.764-0.917,0.782c-0.521,0.018-0.956-0.303-0.969-0.714
		c-0.016-0.413,0.394-0.76,0.914-0.778C32.983,33.165,33.418,33.484,33.432,33.896z"/>
	<path fill="#F4BAA0" d="M33.381,33.893c0.017,0.39-0.371,0.725-0.866,0.743c-0.494,0.019-0.902-0.283-0.917-0.674
		c-0.016-0.39,0.369-0.721,0.86-0.739C32.956,33.203,33.366,33.503,33.381,33.893z"/>
	<path fill="#F3B9A0" d="M33.333,33.889c0.016,0.369-0.35,0.686-0.815,0.705c-0.465,0.019-0.854-0.264-0.871-0.632
		c-0.016-0.368,0.348-0.683,0.813-0.701C32.926,33.241,33.313,33.521,33.333,33.889z"/>
	<path fill="#F3B89F" d="M33.282,33.886c0.016,0.346-0.326,0.647-0.764,0.667s-0.807-0.245-0.821-0.591
		c-0.017-0.347,0.323-0.642,0.761-0.663C32.898,33.278,33.265,33.541,33.282,33.886z"/>
	<path fill="#F3B79F" d="M33.23,33.883c0.02,0.325-0.302,0.608-0.713,0.629c-0.41,0.021-0.756-0.227-0.771-0.55
		c-0.02-0.325,0.299-0.603,0.709-0.624C32.87,33.314,33.214,33.56,33.23,33.883z"/>
</g>
<g>
	<path fill="#F9D9B0" d="M53.182,31.93c-0.006,1.091-1.13,1.976-2.515,1.976c-1.385-0.006-2.504-0.896-2.498-1.989
		c0-1.093,1.129-1.979,2.507-1.977C52.061,29.945,53.184,30.836,53.182,31.93z"/>
	<path fill="#F9D8B0" d="M53.132,31.927c-0.002,1.068-1.105,1.938-2.463,1.936c-1.354-0.002-2.454-0.877-2.452-1.948
		c0-1.071,1.106-1.938,2.459-1.937C52.035,29.983,53.137,30.855,53.132,31.927z"/>
	<path fill="#F9D7AF" d="M53.082,31.924c-0.004,1.047-1.08,1.9-2.412,1.898c-1.326-0.001-2.404-0.859-2.4-1.907
		c-0.002-1.048,1.083-1.9,2.405-1.899C52.005,30.021,53.083,30.874,53.082,31.924z"/>
	<path fill="#F8D6AF" d="M53.033,31.922c-0.004,1.025-1.06,1.861-2.359,1.86c-1.301-0.001-2.354-0.839-2.354-1.867
		c0-1.027,1.059-1.86,2.354-1.86C51.975,30.058,53.035,30.893,53.033,31.922z"/>
	<path fill="#F8D5AE" d="M52.98,31.919c-0.002,1.003-1.033,1.823-2.309,1.822c-1.271-0.001-2.303-0.821-2.303-1.826
		c0-1.004,1.035-1.82,2.303-1.821C51.947,30.096,52.98,30.912,52.98,31.919z"/>
	<path fill="#F8D4AE" d="M52.929,31.916c-0.002,0.981-1.01,1.783-2.255,1.783s-2.257-0.8-2.255-1.783
		c-0.002-0.983,1.014-1.781,2.252-1.783C51.917,30.133,52.929,30.931,52.929,31.916z"/>
	<path fill="#F8D3AD" d="M52.88,31.913c-0.002,0.959-0.989,1.743-2.206,1.744c-1.218,0.001-2.201-0.782-2.203-1.742
		c0-0.96,0.985-1.742,2.198-1.744C51.889,30.171,52.878,30.95,52.88,31.913z"/>
	<path fill="#F8D2AD" d="M52.83,31.909c0,0.937-0.963,1.705-2.153,1.707c-1.188,0.002-2.154-0.762-2.154-1.701
		c-0.003-0.938,0.964-1.703,2.149-1.706C51.861,30.207,52.83,30.969,52.83,31.909z"/>
	<path fill="#F8D1AC" d="M52.781,31.906c0,0.916-0.941,1.665-2.104,1.667c-1.16,0.002-2.104-0.743-2.104-1.661
		c-0.006-0.917,0.938-1.664,2.1-1.667C51.832,30.245,52.779,30.988,52.781,31.906z"/>
	<path fill="#F7D0AC" d="M52.73,31.903c0,0.893-0.918,1.625-2.051,1.628c-1.135,0.003-2.057-0.724-2.059-1.619
		c-0.004-0.895,0.918-1.625,2.047-1.628C51.802,30.283,52.727,31.008,52.73,31.903z"/>
	<path fill="#F7CFAB" d="M52.679,31.901c0,0.87-0.895,1.586-1.998,1.589c-1.107,0.003-2.005-0.704-2.01-1.577
		c-0.004-0.873,0.894-1.586,1.994-1.59C51.773,30.32,52.675,31.027,52.679,31.901z"/>
	<path fill="#F7CEAB" d="M52.626,31.899c0.002,0.849-0.867,1.546-1.945,1.551c-1.079,0.005-1.953-0.685-1.957-1.536
		c-0.005-0.851,0.868-1.547,1.941-1.551C51.746,30.357,52.623,31.047,52.626,31.899z"/>
	<path fill="#F7CDAA" d="M52.578,31.895c0.004,0.828-0.845,1.506-1.895,1.513c-1.053,0.003-1.906-0.667-1.908-1.495
		c-0.006-0.829,0.844-1.507,1.891-1.513C51.716,30.395,52.576,31.064,52.578,31.895z"/>
	<path fill="#F7CCAA" d="M52.529,31.892c0.004,0.806-0.822,1.467-1.846,1.475c-1.021,0.004-1.855-0.646-1.859-1.454
		c-0.006-0.807,0.824-1.468,1.842-1.474C51.688,30.433,52.524,31.084,52.529,31.892z"/>
	<ellipse transform="matrix(-1 0.0062 -0.0062 -1 101.598 63.4208)" fill="#F7CBA9" cx="50.7" cy="31.869" rx="1.802" ry="1.425"/>
	<path fill="#F6CAA9" d="M52.425,31.885c0.006,0.761-0.771,1.39-1.74,1.398c-0.969,0.007-1.754-0.608-1.762-1.372
		c-0.006-0.762,0.775-1.39,1.738-1.397C51.63,30.508,52.421,31.121,52.425,31.885z"/>
	<path fill="#F6C9A8" d="M52.375,31.883c0.007,0.739-0.75,1.351-1.688,1.359c-0.939,0.008-1.705-0.589-1.713-1.331
		c-0.006-0.74,0.753-1.35,1.688-1.358C51.602,30.546,52.369,31.14,52.375,31.883z"/>
	<path fill="#F6C8A8" d="M52.324,31.88c0.008,0.718-0.727,1.312-1.637,1.32c-0.911,0.009-1.654-0.569-1.662-1.29
		c-0.008-0.718,0.729-1.311,1.637-1.32C51.574,30.583,52.316,31.16,52.324,31.88z"/>
	
		<ellipse transform="matrix(-0.9999 0.0104 -0.0104 -0.9999 101.5863 63.2803)" fill="#F6C8A7" cx="50.629" cy="31.904" rx="1.599" ry="1.265"/>
	<path fill="#F6C7A7" d="M52.224,31.874c0.008,0.674-0.68,1.234-1.533,1.243c-0.857,0.01-1.556-0.532-1.563-1.208
		c-0.008-0.674,0.679-1.232,1.531-1.242C51.516,30.658,52.218,31.198,52.224,31.874z"/>
	
		<ellipse transform="matrix(-0.9999 0.0132 -0.0132 -0.9999 101.7236 63.156)" fill="#F6C6A6" cx="50.653" cy="31.914" rx="1.498" ry="1.186"/>
	<path fill="#F5C5A6" d="M52.121,31.868c0.008,0.63-0.629,1.155-1.429,1.167c-0.803,0.011-1.456-0.494-1.466-1.125
		c-0.011-0.63,0.635-1.153,1.43-1.165C51.457,30.733,52.113,31.236,52.121,31.868z"/>
	
		<ellipse transform="matrix(-0.9999 0.0159 -0.0159 -0.9999 101.9159 62.9095)" fill="#F5C4A5" cx="50.708" cy="31.86" rx="1.398" ry="1.105"/>
	
		<ellipse transform="matrix(-0.9999 0.0169 -0.0169 -0.9999 101.7929 62.8944)" fill="#F5C3A5" cx="50.631" cy="31.876" rx="1.347" ry="1.067"/>
	
		<ellipse transform="matrix(-0.9998 0.02 -0.02 -0.9998 101.9613 62.6611)" fill="#F5C2A4" cx="50.668" cy="31.839" rx="1.297" ry="1.026"/>
	
		<ellipse transform="matrix(-0.9998 0.0208 -0.0208 -0.9998 102.0622 62.6553)" fill="#F5C1A4" cx="50.706" cy="31.858" rx="1.245" ry="0.986"/>
	
		<ellipse transform="matrix(-0.9997 0.0237 -0.0237 -0.9997 102.0189 62.5812)" fill="#F5C0A3" cx="50.639" cy="31.895" rx="1.195" ry="0.947"/>
	
		<ellipse transform="matrix(-0.9997 0.0247 -0.0247 -0.9997 102.1793 62.4646)" fill="#F4BFA3" cx="50.704" cy="31.864" rx="1.146" ry="0.907"/>
	<path fill="#F4BEA2" d="M51.769,31.846c0.016,0.478-0.465,0.88-1.07,0.898c-0.604,0.015-1.104-0.359-1.117-0.837
		c-0.014-0.476,0.468-0.88,1.068-0.895C51.258,30.995,51.755,31.369,51.769,31.846z"/>
	
		<ellipse transform="matrix(-0.9995 0.0307 -0.0307 -0.9995 102.2328 62.1748)" fill="#F4BDA2" cx="50.64" cy="31.871" rx="1.043" ry="0.828"/>
	<path fill="#F4BCA1" d="M51.667,31.839c0.017,0.435-0.418,0.803-0.967,0.821c-0.551,0.018-1.008-0.322-1.021-0.754
		c-0.016-0.433,0.42-0.802,0.969-0.818C51.199,31.07,51.656,31.407,51.667,31.839z"/>
	
		<ellipse transform="matrix(-0.9993 0.0365 -0.0365 -0.9993 102.4241 61.7915)" fill="#F4BBA1" cx="50.648" cy="31.831" rx="0.943" ry="0.748"/>
	
		<ellipse transform="matrix(-0.9992 0.0391 -0.0391 -0.9992 102.5397 61.825)" fill="#F4BAA0" cx="50.666" cy="31.915" rx="0.893" ry="0.708"/>
	<path fill="#F3B9A0" d="M51.516,31.831c0.017,0.368-0.347,0.685-0.812,0.705c-0.469,0.02-0.855-0.262-0.873-0.63
		c-0.017-0.367,0.351-0.684,0.813-0.703C51.113,31.182,51.5,31.465,51.516,31.831z"/>
	<path fill="#F3B89F" d="M51.467,31.828c0.016,0.347-0.325,0.646-0.763,0.667c-0.439,0.021-0.806-0.244-0.82-0.59
		c-0.02-0.343,0.324-0.645,0.76-0.664C51.083,31.221,51.451,31.484,51.467,31.828z"/>
	<path fill="#F3B79F" d="M51.414,31.825c0.022,0.324-0.297,0.604-0.709,0.627c-0.412,0.021-0.756-0.224-0.772-0.547
		c-0.019-0.323,0.302-0.606,0.712-0.626C51.053,31.258,51.4,31.503,51.414,31.825z"/>
</g>
</svg>
