<?xml version="1.0" encoding="utf-8"?>
<!-- Generator: Adobe Illustrator 15.1.0, SVG Export Plug-In . SVG Version: 6.00 Build 0)  -->
<!DOCTYPE svg PUBLIC "-//W3C//DTD SVG 1.1//EN" "http://www.w3.org/Graphics/SVG/1.1/DTD/svg11.dtd">
<svg version="1.1" id="svg_2_0" xmlns="http://www.w3.org/2000/svg" xmlns:xlink="http://www.w3.org/1999/xlink" x="0px" y="0px"
	 width="85.04px" height="85.04px" viewBox="0 0 85.04 85.04" enable-background="new 0 0 85.04 85.04" xml:space="preserve">
<path fill="#FFFFFF" d="M71.252,42.1l3.604,5.339c0,0,5.642-3.84,6.349-4.666c0.715-0.829,1.078-4.026-0.459-5.983
	c-1.537-1.961-3.732-0.602-3.732-0.602s-1.18-1.959-2.424-1.431c-1.246,0.535-1.963,3.318-2.201,4.441
	c-0.242,1.125-1.252,2.602-1.252,2.602L71.252,42.1z"/>
<path fill="#815C2D" d="M71.127,42.088c1.201,1.78,2.401,3.56,3.604,5.339c0.041,0.061,0.189,0.113,0.254,0.068
	c1.049-0.716,2.09-1.441,3.123-2.177c0.967-0.687,2.568-1.487,3.234-2.501c1.271-1.939,0.672-6.958-2.301-7.126
	c-0.549-0.031-0.98,0.006-1.513,0.149c-0.768,0.208-0.323,0.366-0.95-0.373c-0.312-0.364-1.029-0.955-1.572-0.863
	c-1.672,0.277-2.154,2.291-2.553,3.708c-0.257,0.904-0.48,1.719-0.918,2.563c-0.259,0.497-0.619,0.683-0.418,1.194
	c0.03,0.081,0.299,0.124,0.271,0.057c-0.271-0.688,1.12-2.864,1.338-3.726c0.435-1.738,1.978-5.612,4.157-2.226
	c0.041,0.064,0.189,0.106,0.257,0.068c3.793-2.153,5.911,4.71,3.608,6.781c-1.487,1.338-3.246,2.437-4.887,3.573
	c-1.375,0.955-0.889,0.837-1.896-0.655c-0.86-1.278-1.725-2.558-2.588-3.834C71.336,42.047,71.067,42,71.127,42.088z"/>
<path fill="#FFFFFF" d="M15.055,52.349c0,0-1.111-6.285-3.539-6.113c-2.428,0.172-2.197,3.256-2.197,3.256s-2.428-2.313-4.803,0.285
	c-2.377,2.6-1.617,8.232,3.598,8.539c5.213,0.309,5.865-0.639,5.865-0.639L15.055,52.349z"/>
<path fill="#815C2D" d="M15.196,52.355c-0.4-2.182-1.848-7.941-5.105-5.645c-0.689,0.485-0.859,1.576-0.916,2.34
	c-0.027,0.406,0.283,0.438,0.08,0.271c-0.27-0.219-0.613-0.438-0.941-0.551c-1.995-0.701-3.669,0.23-4.673,2.07
	c-1.072,1.969-0.563,4.466,0.889,6.063c1.602,1.765,4.488,1.576,6.623,1.507c0.348-0.013,2.84-0.062,2.971-0.713
	c0.359-1.777,0.717-3.554,1.076-5.328c0.016-0.078-0.268-0.127-0.285-0.043c-0.283,1.405-0.566,2.811-0.852,4.217
	c-0.313,1.543-0.799,1.539-2.498,1.713c-3.709,0.379-7.824-0.426-8.188-4.695c-0.242-2.871,2.824-6.74,5.813-4.061
	c0.031,0.028,0.273,0.098,0.271,0.012c-0.025-0.469,0.039-0.924,0.137-1.381c0.111-0.525,0.404-0.963,0.762-1.35
	c1.516-1.632,2.734,0.438,3.23,1.356c0.686,1.272,1.066,2.786,1.326,4.202C14.93,52.419,15.211,52.447,15.196,52.355z"/>
<path fill="#FFFFFF" d="M49.325,44.835c-0.119,0.176,4.674,2.854,11.553,1.508c6.873-1.348,7.945-2.529,7.945-2.529l3.246,5.691
	c0,0-11.037,6.969-12.168,9.397c-3.328,4.199-2.102,11.19-2.102,11.19l-27.256-0.235c0,0,0.191-6.22-2.527-8.358
	c-2.723-2.14-11.549-2.453-11.549-2.453l1.021-6.992c0,0,4.266,0.484,8.83-0.988c4.566-1.471,8.963-6.145,8.963-6.145L49.325,44.835
	z"/>
<path fill="#815C2D" d="M49.184,44.833c0.164,0.498,1.621,0.867,2.01,1.008c2.02,0.732,4.195,0.941,6.33,0.934
	c3.436-0.014,8.359-0.785,11.283-2.807c0.285-0.197-0.15-0.202-0.033,0.004c0.35,0.615,0.699,1.229,1.051,1.844
	c0.188,0.33,2.168,3.619,2.043,3.695c-2.793,1.773-5.535,3.639-8.174,5.635c-3.42,2.59-5.574,5.338-6.143,9.736
	c-0.215,1.662-0.152,3.396,0.084,5.057c0.029,0.211-0.947,0.088-1.445,0.082c-7.201-0.063-14.402-0.125-21.604-0.188
	c-1.055-0.01-2.107-0.019-3.16-0.027c-0.814-0.008-0.736,0.17-0.736-0.281c0.002-2.609-0.348-6.795-2.883-8.275
	c-2.779-1.625-6.379-1.889-9.52-2.147c-0.451-0.037-0.902-0.063-1.354-0.091c-0.572-0.032-0.336,0.136-0.271-0.303
	c0.221-1.512,0.441-3.022,0.662-4.535c0.127-0.877-0.057-2.059,0.676-2.021c1.906,0.1,3.869,0.018,5.742-0.365
	c4.51-0.922,8.152-3.34,11.393-6.545c0.936-0.926,5.053-0.291,6.465-0.299c2.586-0.018,5.172-0.033,7.756-0.047
	c0.195-0.002,0.061-0.121-0.063-0.119c-4.506,0.025-9.013,0.055-13.519,0.082c-1.361,0.008-2.406,1.734-3.398,2.553
	c-4.172,3.447-9.457,5.146-14.881,4.586c-0.033-0.004-0.143-0.012-0.15,0.041c-0.34,2.33-0.68,4.66-1.02,6.992
	c-0.01,0.063,0.141,0.074,0.174,0.076c3.32,0.127,6.816,0.467,9.943,1.625c3.502,1.297,4.035,5.846,3.959,9.109
	c-0.002,0.063,0.133,0.076,0.174,0.076c9.086,0.08,18.172,0.158,27.256,0.235c0.02,0,0.119-0.004,0.11-0.043
	c-0.784-4.688,0.181-9.81,3.793-13.086c3.147-2.856,6.865-5.207,10.451-7.478c0.017-0.01,0.03-0.022,0.021-0.041
	c-1.082-1.897-2.164-3.795-3.246-5.69c-0.039-0.069-0.221-0.088-0.274-0.032c-1.222,1.243-3.819,1.577-5.403,1.969
	c-3.304,0.813-6.558,1.174-9.918,0.553c-0.671-0.124-3.621-0.621-3.9-1.467C49.438,44.759,49.157,44.751,49.184,44.833z"/>
<path fill="#FFFFFF" d="M14.752,51.382c0.848,0.205,2.195,0.471,2.914,0.734c0.512,0.184-1.084,7.225-1.084,7.225
	c-1.1-0.072-2.252-0.064-3.33-0.26c-0.217-0.039,1.209-7.107,1.471-7.703C14.735,51.38,14.743,51.38,14.752,51.382z"/>
<path fill="#815C2D" d="M14.661,51.439c0.586,0.137,2.908,0.338,2.965,1.025c0.055,0.69-0.121,1.438-0.23,2.115
	c-0.252,1.575-0.586,3.141-0.936,4.696c0.02-0.084-3.154,0.271-3.063-0.647c0.088-0.855,0.27-1.707,0.428-2.551
	c0.1-0.525,1.02-4.615,0.865-4.636c0.09,0.013,0.313-0.097,0.127-0.121c-0.01-0.002-0.02-0.002-0.027-0.004
	c-0.051-0.006-0.182,0.007-0.203,0.065c-0.662,1.754-0.879,3.793-1.211,5.629c-0.117,0.658-0.277,1.343-0.285,2.015
	c-0.002,0.373,3.104,0.354,3.432,0.375c0.043,0.002,0.188-0.006,0.203-0.067c0.359-1.59,0.686-3.189,0.955-4.799
	c0.123-0.728,0.348-1.604,0.199-2.341c-0.1-0.508-2.572-0.762-3.031-0.868C14.778,51.31,14.512,51.404,14.661,51.439z"/>
<path fill="#FFFFFF" d="M71.079,41.563l-2.256,2.25l3.135,6.26l3.586-2.414C75.543,47.66,74.866,42.936,71.079,41.563z"/>
<path fill="#815C2D" d="M70.952,41.544c-0.752,0.75-1.504,1.5-2.256,2.252c-0.016,0.016-0.021,0.024-0.012,0.045
	c1.047,2.086,2.092,4.173,3.137,6.26c0.035,0.072,0.217,0.021,0.262-0.01c1.195-0.805,2.392-1.607,3.586-2.414
	c0.013-0.006,0.019-0.018,0.019-0.029c-0.401-2.634-2.006-5.114-4.511-6.134c-0.067-0.027-0.338,0.041-0.194,0.1
	c2.47,1.002,3.888,3.365,4.392,5.896c0.076,0.375-1.195,0.969-1.479,1.16c-0.431,0.289-0.856,0.576-1.285,0.865
	c-0.188,0.125-0.371,0.25-0.56,0.375c-0.354,0.237-0.028-0.011,0.035,0.118c-0.867-1.733-1.735-3.469-2.604-5.204
	c-0.34-0.677-0.672-0.849-0.135-1.386c0.62-0.619,1.239-1.236,1.86-1.855C71.282,41.502,71.004,41.491,70.952,41.544z"/>
<polygon fill="#FFFFFF" points="61.6,50.248 61.583,48.476 62.69,49.609 64.086,49.126 63.53,50.208 64.59,51.451 62.752,51.158 
	62.196,52.998 61.868,51.203 60.227,50.976 "/>
<path fill="#815C2D" d="M61.741,50.281c-0.006-0.59-0.012-1.181-0.02-1.771c-0.09-0.012-0.178-0.021-0.268-0.034
	c0.368,0.378,0.737,0.755,1.106,1.134c0.056,0.055,0.168,0.084,0.239,0.059c0.466-0.162,0.933-0.322,1.396-0.481
	c-0.084-0.031-0.17-0.063-0.254-0.093c-0.186,0.361-0.371,0.722-0.557,1.082c-0.002,0.015,0.002,0.023,0.012,0.033
	c0.299,0.349,0.762,1.115,1.146,1.178c-0.605-0.098-1.213-0.192-1.82-0.291c-0.027-0.004-0.104-0.01-0.113,0.029
	c-0.188,0.613-0.371,1.228-0.559,1.84c0.094,0.019,0.188,0.035,0.279,0.052c-0.109-0.599-0.22-1.195-0.328-1.796
	c-0.01-0.053-0.123-0.073-0.164-0.08c-0.537-0.073-1.076-0.148-1.613-0.223c0.26,0.035,0.059,0.146,0.301,0.019
	c0.141-0.074,0.279-0.147,0.422-0.224c0.254-0.137,0.51-0.271,0.766-0.406c0.101-0.053-0.162-0.148-0.229-0.114
	c-0.457,0.244-0.916,0.485-1.373,0.729c-0.1,0.052,0.104,0.113,0.139,0.119c0.271,0.037,0.545,0.074,0.818,0.113
	c0.166,0.021,0.33,0.045,0.494,0.067c0.342,0.048,0.184,0.077,0.166-0.017c0.107,0.592,0.217,1.184,0.324,1.774
	c0.014,0.067,0.254,0.129,0.277,0.051c0.184-0.604,0.366-1.213,0.551-1.817c-0.107,0.006-0.117,0.013-0.029,0.021
	c0.068,0.011,0.139,0.021,0.207,0.032c0.213,0.033,0.424,0.066,0.635,0.102c0.307,0.049,0.611,0.098,0.92,0.145
	c0.031,0.007,0.156,0,0.104-0.063c-0.336-0.391-0.67-0.781-1.004-1.172c-0.121-0.143,0.412-0.931,0.511-1.119
	c0.039-0.074-0.218-0.104-0.254-0.09c-0.205,0.07-0.412,0.143-0.617,0.213c-0.153,0.053-0.312,0.105-0.465,0.16
	c-0.341,0.117-0.24-0.004-0.091,0.15c-0.36-0.373-0.727-0.744-1.09-1.115c-0.026-0.029-0.27-0.121-0.268-0.035
	c0.006,0.59,0.012,1.18,0.02,1.771C61.461,50.306,61.743,50.347,61.741,50.281z"/>
<polygon fill="#FFFFFF" points="65.581,45.208 65.508,45.669 64.446,46.355 65.375,46.447 65.44,47.775 66.217,46.447 
	67.747,47.138 66.971,45.962 67.817,45.009 66.553,45.32 66.157,45.033 "/>
<path fill="#815C2D" d="M65.444,45.16c-0.055,0.355-0.039,0.436-0.336,0.627c-0.264,0.168-0.525,0.34-0.789,0.508
	c-0.074,0.049,0.152,0.131,0.178,0.133c0.312,0.029,0.621,0.062,0.93,0.093c-0.061-0.035-0.125-0.069-0.188-0.104
	c0.021,0.442,0.043,0.887,0.064,1.328c0.004,0.073,0.23,0.147,0.271,0.082c0.26-0.443,0.52-0.888,0.778-1.328
	c-0.063-0.004-0.127-0.006-0.19-0.011c0.51,0.229,1.02,0.462,1.526,0.69c0.024,0.013,0.244,0.068,0.183-0.024
	c-0.254-0.387-0.511-0.774-0.765-1.161c-0.01-0.013,0.728-0.8,0.834-0.921c0.065-0.077-0.187-0.142-0.233-0.129
	c-0.23,0.058-0.461,0.113-0.693,0.17c-0.145,0.035-0.291,0.071-0.436,0.106c-0.246,0.062,0.125,0.125-0.043,0.005
	c-0.445-0.32-0.527-0.248-1.064-0.083c-0.102,0.031,0.143,0.16,0.217,0.138c0.115-0.034,0.23-0.069,0.35-0.104
	c0.297-0.09,0.029-0.119,0.137-0.043c0.125,0.09,0.271,0.244,0.435,0.263c0.388,0.043,0.938-0.22,1.315-0.313
	c-0.077-0.043-0.155-0.086-0.231-0.129c-0.28,0.317-0.563,0.637-0.846,0.953c-0.015,0.018-0.013,0.027,0,0.047
	c0.258,0.393,0.516,0.783,0.772,1.176c0.062-0.008,0.121-0.018,0.182-0.024c-0.51-0.229-1.02-0.461-1.526-0.69
	c-0.041-0.02-0.155-0.064-0.188-0.009c-0.26,0.442-0.521,0.886-0.779,1.328c0.09,0.026,0.182,0.054,0.271,0.08
	c-0.021-0.442-0.043-0.886-0.064-1.328c-0.004-0.062-0.143-0.099-0.188-0.104c-0.312-0.029-0.621-0.061-0.933-0.092
	c0.062,0.043,0.119,0.088,0.181,0.131c0.291-0.188,0.584-0.377,0.877-0.563c0.254-0.164,0.219-0.283,0.268-0.595
	C65.729,45.167,65.456,45.091,65.444,45.16z"/>
<path fill="#FFFFFF" d="M67.338,50.06l-0.129-1.328l1.104,0.912l1.308-0.574l-0.668,1.197c0,0,1.174,0.576,1.106,0.576
	s-0.509,0.285-0.509,0.285l-0.975-0.178l-0.248,0.993l-0.551,0.354l-0.066-1.106l-1.637-0.142L67.338,50.06z"/>
<path fill="#815C2D" d="M67.483,50.068c-0.043-0.443-0.086-0.887-0.129-1.328c-0.09,0.004-0.18,0.01-0.27,0.016
	c0.369,0.306,0.735,0.607,1.104,0.912c0.052,0.043,0.164,0.049,0.226,0.023c0.436-0.191,0.871-0.384,1.307-0.574
	c-0.078-0.023-0.158-0.045-0.236-0.068c-0.223,0.398-0.445,0.799-0.668,1.197c-0.016,0.027,0.012,0.047,0.033,0.059
	c0.158,0.078,0.971,0.558,1.012,0.535c-0.131,0.07-0.258,0.146-0.385,0.226c0.084-0.052,0.084,0.006-0.094-0.026
	c-0.254-0.045-0.508-0.093-0.764-0.14c-0.045-0.009-0.168-0.017-0.187,0.045c-0.074,0.298-0.146,0.595-0.224,0.892
	c-0.049,0.201-0.389,0.324-0.555,0.432c0.088,0.014,0.178,0.027,0.266,0.042c-0.021-0.368-0.043-0.737-0.065-1.106
	c-0.002-0.055-0.104-0.063-0.142-0.064c-0.539-0.047-1.077-0.094-1.616-0.141c0.205,0.02,0.098,0.094,0.297-0.063
	c0.146-0.114,0.289-0.229,0.435-0.342c0.213-0.166,0.422-0.33,0.633-0.495c0.088-0.068-0.187-0.117-0.244-0.07
	c-0.422,0.332-0.844,0.662-1.264,0.992c-0.076,0.062,0.084,0.09,0.118,0.094c0.496,0.041,0.99,0.085,1.486,0.128
	c0.241,0.02,0.014,0.016,0.012-0.027c0.007,0.104,0.013,0.205,0.021,0.309c0.016,0.258,0.029,0.516,0.047,0.773
	c0.004,0.088,0.217,0.074,0.266,0.041c0.115-0.074,0.539-0.25,0.572-0.383c0.082-0.332,0.164-0.662,0.248-0.994
	c-0.063,0.016-0.123,0.031-0.186,0.047c0.313,0.057,0.631,0.115,0.946,0.172c0.254,0.047,0.451-0.203,0.677-0.288
	c0.021-0.009,0.057-0.024,0.039-0.054c-0.146-0.256-0.812-0.439-1.068-0.566c-0.06-0.029,0.17-0.354,0.256-0.51
	c0.125-0.223,0.248-0.443,0.373-0.668c0.047-0.082-0.199-0.084-0.238-0.066c-0.428,0.188-0.857,0.377-1.287,0.564
	c0.154-0.066,0.264,0.08,0.076-0.075c-0.143-0.116-0.281-0.231-0.424-0.349c-0.184-0.152-0.367-0.306-0.553-0.457
	c-0.033-0.028-0.275-0.068-0.271,0.018c0.043,0.441,0.086,0.885,0.129,1.327C67.206,50.141,67.491,50.14,67.483,50.068z"/>
<path fill="#FFFFFF" d="M20.778,55.072c0.098-0.928,0.93-1.605,1.855-1.51c0.744,0.074,1.287,0.738,1.213,1.484
	c-0.064,0.593-0.596,1.024-1.189,0.968c-0.477-0.054-0.822-0.476-0.773-0.95c0.037-0.384,0.381-0.66,0.762-0.619
	c0.305,0.03,0.527,0.303,0.492,0.605c-0.023,0.244-0.24,0.42-0.484,0.396c-0.195-0.02-0.34-0.195-0.318-0.391
	c0.018-0.154,0.156-0.27,0.313-0.252c0.127,0.012,0.215,0.123,0.205,0.25"/>
<path fill="#815C2D" d="M20.915,55.113c0.074-0.48,0.289-0.863,0.67-1.172c0.773-0.631,1.914-0.218,2.117,0.746
	c0.059,0.273-0.021,0.525-0.143,0.764c-0.252,0.494-1.094,0.744-1.467,0.086c-0.158-0.277-0.07-0.602,0.113-0.834
	c0.287-0.297,0.553-0.193,0.793,0.311c-0.012,0.046-0.025,0.093-0.037,0.138c-0.541,0.168-0.623,0.129-0.248-0.116
	c0.014,0.079,0.289,0.135,0.275,0.051c-0.074-0.426-0.643-0.451-0.793-0.064c-0.156,0.398,0.615,0.62,0.854,0.426
	c0.521-0.424,0.064-0.945-0.426-1.063c-0.744-0.18-1.033,0.701-0.732,1.232c0.709,1.254,2.734-0.072,1.918-1.355
	c-0.875-1.375-2.934-0.766-3.17,0.771C20.625,55.119,20.905,55.187,20.915,55.113L20.915,55.113z"/>
<path fill="#FFFFFF" d="M27.417,55.142c0.098-0.928,0.93-1.605,1.857-1.508c0.74,0.076,1.285,0.738,1.211,1.482
	c-0.063,0.594-0.596,1.026-1.189,0.967c-0.475-0.045-0.824-0.476-0.773-0.949c0.039-0.385,0.379-0.658,0.756-0.621
	c0.309,0.033,0.529,0.305,0.5,0.609c-0.025,0.246-0.244,0.422-0.486,0.396c-0.191-0.021-0.34-0.194-0.318-0.388
	c0.02-0.158,0.156-0.271,0.311-0.256c0.127,0.016,0.217,0.121,0.205,0.246"/>
<path fill="#815C2D" d="M27.551,55.189c0.203-1.326,2.184-2.27,2.756-0.6c0.232,0.68-0.256,1.346-0.936,1.426
	c-0.615,0.072-0.77-0.588-0.682-0.992c0.053-0.146,0.143-0.262,0.27-0.343c0.225,0.087,0.449,0.175,0.676,0.263
	c0.051,0.313-0.045,0.361-0.283,0.148c0.014,0.082,0.285,0.146,0.271,0.063c-0.072-0.424-0.635-0.461-0.789-0.07
	c-0.154,0.387,0.611,0.631,0.85,0.438c0.518-0.421,0.068-0.953-0.426-1.073c-0.615-0.148-1.086,0.598-0.793,1.12
	c0.756,1.339,2.838,0.108,1.98-1.231c-0.875-1.369-2.93-0.787-3.166,0.758C27.266,55.185,27.542,55.259,27.551,55.189L27.551,55.189
	z"/>
<path fill="#FFFFFF" d="M23.934,58.439c0.098-0.928,0.93-1.604,1.857-1.508c0.74,0.074,1.285,0.74,1.207,1.484
	c-0.061,0.592-0.592,1.026-1.188,0.967c-0.475-0.051-0.822-0.475-0.773-0.951c0.039-0.383,0.379-0.66,0.76-0.617
	c0.307,0.031,0.525,0.301,0.498,0.607c-0.025,0.242-0.246,0.418-0.484,0.396c-0.199-0.021-0.34-0.194-0.318-0.392
	c0.012-0.153,0.156-0.271,0.313-0.252c0.123,0.01,0.213,0.123,0.195,0.248"/>
<path fill="#815C2D" d="M24.077,58.468c0.072-0.482,0.287-0.863,0.668-1.172c0.85-0.689,2.035-0.117,2.121,0.92
	c0.068,0.83-1.09,1.604-1.615,0.675c-0.156-0.28-0.066-0.601,0.117-0.834c0.543-0.194,0.805-0.082,0.789,0.335
	c-0.035,0.078-0.07,0.158-0.105,0.236c-0.5-0.114-0.563-0.188-0.188-0.219c0.01,0.077,0.291,0.118,0.275,0.026
	c-0.061-0.435-0.648-0.41-0.789-0.039c-0.152,0.41,0.621,0.595,0.859,0.401c0.484-0.395,0.092-0.998-0.439-1.049
	c-0.729-0.069-1.061,0.648-0.727,1.242c0.238,0.42,0.924,0.57,1.348,0.389c0.783-0.338,0.938-1.19,0.498-1.883
	c-0.303-0.477-0.971-0.705-1.512-0.633c-0.844,0.113-1.457,0.695-1.584,1.543C23.782,58.494,24.065,58.546,24.077,58.468
	L24.077,58.468z"/>
<path fill="#FFFFFF" d="M17.274,58.171c0.092-0.928,0.924-1.605,1.852-1.508c0.744,0.073,1.287,0.737,1.211,1.481
	c-0.063,0.594-0.592,1.026-1.189,0.965c-0.475-0.047-0.822-0.474-0.775-0.946c0.043-0.386,0.383-0.656,0.762-0.621
	c0.307,0.033,0.527,0.305,0.492,0.608c-0.02,0.244-0.236,0.425-0.479,0.397c-0.199-0.022-0.344-0.196-0.32-0.395
	c0.02-0.152,0.158-0.266,0.311-0.252c0.125,0.016,0.217,0.123,0.203,0.248"/>
<path fill="#815C2D" d="M17.417,58.171c0.08-0.539,0.33-0.938,0.781-1.242c0.84-0.566,1.803,0.006,1.986,0.881
	c0.168,0.799-0.836,1.758-1.527,0.912c-0.199-0.244-0.17-0.578-0.043-0.842c0.484-0.326,0.771-0.285,0.865,0.123
	c0.053,0.192-0.041,0.244-0.283,0.149c0.016,0.089,0.299,0.069,0.287-0.002c-0.074-0.442-0.654-0.364-0.797-0.01
	c-0.172,0.422,0.613,0.573,0.852,0.377c0.432-0.358,0.164-1.046-0.404-1.035c-0.717,0.015-1.127,0.608-0.754,1.271
	c0.289,0.508,1.02,0.479,1.477,0.285c0.74-0.316,0.744-1.25,0.369-1.838c-0.328-0.519-1.082-0.701-1.65-0.568
	c-0.783,0.182-1.326,0.736-1.443,1.539C17.12,58.244,17.405,58.259,17.417,58.171L17.417,58.171z"/>
<path fill="#FFFFFF" d="M25.086,52.859c0.092-0.928,0.924-1.604,1.855-1.51c0.744,0.076,1.283,0.74,1.211,1.482
	c-0.063,0.596-0.598,1.026-1.189,0.969c-0.479-0.051-0.822-0.473-0.77-0.949c0.037-0.383,0.377-0.66,0.758-0.619
	c0.303,0.029,0.525,0.301,0.496,0.609c-0.023,0.242-0.244,0.418-0.486,0.393c-0.195-0.021-0.336-0.195-0.318-0.387
	c0.014-0.158,0.154-0.27,0.313-0.252c0.123,0.01,0.215,0.119,0.201,0.246"/>
<path fill="#815C2D" d="M25.223,52.908c0.195-1.326,2.182-2.273,2.75-0.604c0.232,0.68-0.252,1.346-0.932,1.428
	c-0.621,0.075-0.768-0.582-0.68-0.99c0.049-0.143,0.137-0.256,0.268-0.342c0.225,0.086,0.451,0.172,0.676,0.26
	c0.051,0.313-0.045,0.363-0.285,0.149c0.014,0.082,0.285,0.147,0.271,0.063c-0.066-0.418-0.639-0.47-0.785-0.074
	c-0.146,0.391,0.604,0.634,0.848,0.438c0.516-0.412,0.072-0.953-0.422-1.068c-0.613-0.146-1.094,0.586-0.795,1.115
	c0.752,1.34,2.832,0.111,1.979-1.23c-0.871-1.368-2.936-0.791-3.164,0.758C24.94,52.902,25.211,52.976,25.223,52.908L25.223,52.908z
	"/>
<path fill="#FFFFFF" stroke="#040402" stroke-width="0.2876" d="M48.639,46.048c-0.002,1.51-3.143,2.729-7.01,2.719
	c-3.867-0.008-7.004-1.238-7.002-2.748c0.004-1.514,3.146-2.73,7.014-2.719C45.508,43.308,48.641,44.541,48.639,46.048z"/>
<g>
	<path fill="#FFFFFF" d="M49.124,36.161c0,0,1.328,0.004,1.431-0.148"/>
	<g>
		<path fill="#040402" d="M49.086,36.217c0.289,0,0.576-0.008,0.863-0.025c0.211-0.014,0.559-0.003,0.729-0.158
			c0.08-0.074-0.195-0.095-0.252-0.043c-0.225,0.207-0.971,0.113-1.271,0.112C49.038,36.104,48.891,36.217,49.086,36.217
			L49.086,36.217z"/>
	</g>
</g>
<g>
	<path fill="#FFFFFF" d="M35.006,38.429c-0.156,0.104-1.23,0.814-1.23,0.814"/>
	<g>
		<path fill="#040402" d="M34.887,38.383c-0.412,0.271-0.82,0.542-1.23,0.814c-0.094,0.062,0.174,0.134,0.236,0.092
			c0.41-0.272,0.82-0.545,1.232-0.814C35.219,38.416,34.952,38.341,34.887,38.383L34.887,38.383z"/>
	</g>
</g>
<path fill="#FFFFFF" d="M31.114,22.271c0,0-4.438,4.657-4.443,9.084c-0.01,4.422,0.855,15.899,16.559,15.151
	c15.996-0.767,14.543-20.371,7.549-25.178C43.786,16.521,34.194,18.341,31.114,22.271z"/>
<path fill="#815C2D" d="M30.983,22.219c-2.574,2.747-4.543,6.253-4.438,10.088c0.078,2.799,0.674,5.576,2.057,8.028
	c3.729,6.613,13.74,7.72,20.176,5.024c6.998-2.931,8.301-11.678,6.158-18.157c-2.58-7.807-11.693-10.2-19.021-8.051
	C34.036,19.704,32.252,20.72,30.983,22.219c-0.057,0.067,0.209,0.162,0.26,0.101c3.309-3.902,9.453-4.348,14.105-3.327
	c4.471,0.979,7.559,3.615,9.17,7.773c2.256,5.823,1.313,13.375-3.896,17.293c-3.877,2.916-9.654,2.883-14.151,1.811
	c-3.914-0.932-6.92-3.574-8.445-7.249C25.627,32.854,27,26.853,31.246,22.32C31.301,22.257,31.04,22.16,30.983,22.219z"/>
<path fill="#FFFFFF" d="M28.073,35.918c-0.494-1.639-0.766-3.227-0.402-4.125c0.4-0.998,1.775-1.248,2.154-2.246
	c0.408-1.086-0.84-2.227-0.361-3.121c0.289-0.535,2.414-0.887,2.918-1.285c0.363-0.286,1.438-5.618,3.84-3.204
	c0,0,1.355-1.476,1.848-1.349c0.488,0.123,0.365,1.967,2.086,1.846c1.721-0.116,1.23-1.102,1.23-1.102s0.244,1.229,2.213,0.617
	c1.967-0.609,1.233-1.717,1.844-1.717c0.617,0.002,2.822,1.604,2.822,1.604s0.983-0.365,1.844,0.127s0.486,1.601,0.486,1.601
	s2.09,0.002,2.334,1.725c0.243,1.721-0.74,2.699-0.132,3.561c0.613,0.863,1.476,0.742,1.472,2.097
	c-0.004,1.348,0.114,2.086,0.114,2.086c-0.211,3.453-0.413,6.715-2.01,9.819c0.435,0.313,0.988,0.714,1.508,0.787
	c0.802,0.104,0.814-0.296,1.269-0.488c0.226-0.101,0.017-0.479,0.486-0.491c0.36-0.01,0.354,0.469,0.602,0.588
	c0.673,0.326,1.283,0.717,2.095,0.424c1.592-0.576,0.567-3.222,2.467-2.646c0.551,0.168,0.6,0.723,1.455,0.682
	c1.07-0.053,2.752-1.295,2.889-2.408c0.117-0.959-1.211-1.779-1.055-2.553c0.123-0.617,0.615-1.229,1.479-1.228
	c0.855,0.002,3.066,0.99,4.178,0.375c1.104-0.608,1.728-3.19,0.992-3.684c-0.736-0.492-2.947-1.111-2.699-2.219
	c0.248-1.104,3.813-2.693,2.711-3.924c-1.104-1.232-1.715-1.974-3.809-2.097c-2.088-0.131-2.453,0.238-4.053-0.627
	c-1.594-0.86,0.135-3.438-0.85-4.547c-0.982-1.107-2.088-1.356-3.441-0.867c-1.354,0.486-1.969,1.718-2.951,1.349
	c-0.979-0.375-0.975-3.814-3.063-4.189c-2.086-0.373-4.306,2.203-6.021,1.832c-1.721-0.373-2.086-2.096-3.438-1.973
	c-1.355,0.119-2.343,2.819-3.693,2.692c-1.354-0.123-3.063-2.952-4.785-2.344c-1.723,0.611-2.469,3.683-3.697,3.926
	c-1.23,0.242-3.559-2.346-5.527-0.627c-1.969,1.715-0.383,5.896-1.488,6.513c-1.107,0.608-6.881-1.125-7.994,2.067
	c-1.107,3.193,2.689,5.045,2.326,6.025c-0.646,1.715-3.145,1.817-3.271,4.045c-0.137,2.33,1.6,4.223,3.865,4.313
	c0.861,0.035,2.064-0.571,2.484,0.47c0.293,0.723-0.795,1.429-0.531,2.482c0.275,1.102,1.574,1.912,2.582,2.189
	c0.449,0.12,0.986,0.211,1.438,0.002c0.154-0.076,0.863-0.882,0.77-0.882c0.646,0.009,1.205,0.742,1.83,0.668
	c1.1-0.125,0.418-0.993,0.904-1.536c0.646-0.725,1.139-0.021,1.928-0.105c0.662-0.068,1.082-0.529,1.344-1.145
	C29.493,41.929,28.831,38.429,28.073,35.918z"/>
<path fill="#815C2D" d="M28.211,35.932c-0.332-1.191-0.605-2.354-0.531-3.604c0.066-1.106,1.326-1.63,2.014-2.292
	c1.346-1.294-1.488-3.226,0.996-4.16c0.855-0.322,1.721-0.313,2.076-1.209c0.463-1.164,1.348-4.426,3.326-2.728
	c0.051,0.043,0.203,0.103,0.262,0.042c0.689-0.733,1.584-1.624,2.156-0.392c0.209,0.448,0.578,0.701,1.031,0.853
	c0.699,0.231,2.387-0.044,1.98-1.095c-0.027-0.073-0.301-0.111-0.275-0.027c0.484,1.672,3.182,0.637,3.844-0.256
	c0.559-0.755,0.619-0.77,1.674-0.141c0.48,0.285,0.939,0.609,1.393,0.936c0.764,0.549,2.629,0.438,2.297,1.678
	c-0.02,0.072,0.164,0.093,0.201,0.094c3.232,0.109,1.824,2.99,1.816,4.748c-0.002,0.356,0.387,0.678,0.588,0.896
	c1.074,1.158,1.031,1.428,1.107,2.96c0.174,3.578-0.39,7.342-1.935,10.59c-0.01,0.019,0.021,0.041,0.031,0.049
	c0.465,0.323,1.646,1.22,2.332,0.774c0.625-0.406,0.762-0.897,1.53-0.381c0.322,0.217,1.105,0.568,1.508,0.563
	c0.728-0.014,1.063-0.147,1.515-0.666c0.455-0.522,0.422-3.195,2.133-1.717c0.796,0.686,1.882,0.141,2.63-0.306
	c0.702-0.419,1.139-1.056,1.37-1.813c0.438-1.438-1.961-1.604-0.604-3.384c0.888-1.16,4.107,0.835,5.544-0.277
	c0.646-0.5,1.612-2.912,0.618-3.476c-1.004-0.568-3.397-1.357-2.313-2.744c0.701-0.896,1.77-1.402,2.424-2.359
	c0.613-0.896-1-2.16-1.66-2.519c-2.229-1.21-7.252,0.083-6.922-3.376c0.129-1.346,0.234-2.689-1.313-3.269
	c-1.601-0.598-2.875-0.037-4.209,0.956c-1.464,1.087-2.666-3.039-3.716-3.673c-1.078-0.652-2.598,0.12-3.537,0.591
	c-1.896,0.954-3.397,1.223-5.118-0.382c-0.229-0.215-0.565-0.424-0.879-0.491c-1.434-0.307-2.313,1.317-3.166,2.168
	c-1.275,1.274-3.852-1.796-5.301-1.943c-1.326-0.136-2.23,1.539-2.807,2.44c-1.43,2.244-2.752,0.715-4.713,0.435
	c-1.34-0.193-2.27,0.205-2.98,1.409c-0.768,1.302,0.502,5.617-1.545,5.75c-1.6,0.104-3.16-0.177-4.762,0.077
	c-3.885,0.615-2.717,4.545-0.879,6.654c1.709,1.963-1.328,2.806-2.313,4.261c-0.979,1.448,0.152,3.496,1.213,4.5
	c0.816,0.774,2.043,0.984,3.115,0.911c2.777-0.189,1.529,1.27,1.188,2.303c-0.264,0.793,0.559,1.584,1.047,2.028
	c0.525,0.479,1.771,1.094,2.502,0.969c0.801-0.137,0.723-0.059,1.236-0.608c0.521-0.558,0.5-0.067,1.371,0.13
	c1.025,0.232,1.385,0.043,1.49-1.068c0.094-0.978,1.568-0.346,2.053-0.428c0.762-0.132,1.037-0.558,1.393-1.179
	c0.002-0.013-0.002-0.022-0.014-0.032C29.573,41.653,29.01,38.673,28.211,35.932c-0.023-0.079-0.301-0.109-0.277-0.027
	c0.439,1.507,0.834,3.02,1.383,4.493c0.236,0.64,0.559,1.231,0.896,1.82c0.166,0.289,2.9,3.507-0.924,2.396
	c-0.189-0.055-0.467-0.123-0.629-0.016c-0.514,0.342-0.623,0.426-0.684,1.063c-0.092,0.945-1.857,0.262-2.334,0.113
	c-0.045-0.016-0.16-0.043-0.188,0.016c-1.184,2.496-5.332-0.391-4.113-2.849c0.238-0.482,0.271-1.038-0.234-1.376
	c-0.174-0.118-0.422-0.212-0.639-0.205c-3.234,0.095-5.787-1.355-5.252-4.643c0.207-1.275,3.607-2.456,3.201-3.711
	c-0.729-2.25-3.076-2.943-2.344-5.801c0.668-2.607,4.803-1.947,6.764-1.892c1.424,0.038,1.654-0.498,1.67-1.926
	c0.012-1.152-0.047-2.245,0.211-3.38c0.598-2.62,3.586-1.583,5.371-0.857c1.039,0.421,1.613-0.188,2.205-1.018
	c0.951-1.337,1.859-3.796,4.275-2.292c0.832,0.519,1.488,1.248,2.355,1.72c1.006,0.549,1.887-0.469,2.479-1.132
	c1.188-1.337,2.695-1.012,3.971,0.025c0.267,0.215,0.879,0.504,1.207,0.527c2.441,0.166,5.652-3.706,7.515-0.466
	c0.416,0.725,0.563,2.495,1.497,2.807c0.191,0.063,0.435,0.133,0.63,0.069c0.594-0.189,0.332-0.073,0.889-0.426
	c0.488-0.395,1.021-0.723,1.599-0.983c2.438-0.313,3.604,0.384,3.502,2.09c0.01,1.755-0.57,2.737,1.211,3.603
	c0.496,0.241,1.033,0.293,1.572,0.327c1.493,0.09,7.133,0.896,5.461,3.338c-0.689,1.007-3.187,1.898-2.347,3.379
	c0.233,0.418,0.899,0.686,1.3,0.896c2.745,1.456,1.161,4.806-1.839,4.264c-1.336-0.241-2.481-0.906-3.454,0.368
	c-0.355,0.466-0.104,1.044,0.182,1.455c1.334,1.922-0.621,4.797-3.078,3.47c-0.408-0.22-1.318-0.568-1.631,0.03
	c-0.631,1.209-0.471,3.847-3.5,1.684c-0.109-0.078-0.344-0.322-0.543-0.288c-0.465,0.08-0.502,0.492-0.881,0.744
	c-3.017,2.019-0.929-3.789-0.779-4.425c0.574-2.477,0.883-5.411,0.521-7.957c-0.152-1.076-1.656-2.015-1.65-3.003
	c0.004-1.12,0.49-2.015,0.166-3.166c-0.25-0.893-1.498-1.219-2.281-1.286c0.383,0.033,0.084-0.918-0.014-1.17
	c-0.152-0.396-0.816-0.538-1.121-0.643c-0.361-0.127-0.801-0.024-1.166,0.035c-0.354,0.06-1.428-0.885-1.783-1.097
	c-0.223-0.132-1.094-0.704-1.438-0.379c-0.103,0.095-0.146,0.318-0.181,0.435c-0.397,1.343-3.428,1.322-3.664,0.706
	c0.596,1.547-2.441,0.372-2.777-0.432c-0.104-0.25-0.127-0.245-0.32-0.39c-0.445-0.335-1.275,0.541-1.518,0.752
	c-0.807,0.71-0.91-0.227-1.941-0.049c-0.887,0.15-1.359,1.251-1.695,1.966c-0.244,0.521-0.42,1.072-0.633,1.606
	c-0.303,0.756-2.15,0.966-2.814,1.308c-0.244,0.125-0.406,0.458-0.361,0.726c0.246,1.483,0.881,2.661-0.59,3.748
	c-1.842,1.362-1.234,3.319-0.689,5.278C27.956,35.984,28.235,36.015,28.211,35.932z"/>
<path fill="#FFFFFF" d="M28.092,33.544c0,0-1.313-1.66-2.916-0.715c-1.6,0.943-3.627,5.857,1.646,6.879
	c0.947,0.18,2.984-0.938,2.984-0.938"/>
<g>
	<path fill="#815C2D" d="M28.233,33.527c-2.117-2.548-4.658,0.081-4.939,2.496c-0.195,1.669,0.908,2.849,2.361,3.437
		c1.523,0.617,2.875,0.095,4.256-0.651c0.135-0.072-0.139-0.111-0.205-0.076c-1.336,0.723-2.652,1.128-4.152,0.52
		c-1.195-0.483-1.912-1.529-1.986-2.792c-0.123-2.084,2.213-5.515,4.389-2.895C28.01,33.629,28.278,33.583,28.233,33.527
		L28.233,33.527z"/>
</g>
<path fill="#FFFFFF" d="M24.516,36.446c0,0-0.938-2.314,1.371-2.547c2.313-0.23,2.363,3.207,2.363,3.207"/>
<g>
	<path fill="#815C2D" d="M24.657,36.444c-0.141-0.354-0.193-0.738-0.182-1.115c0.041-1.169,1.434-1.703,2.396-1.181
		c0.938,0.508,1.217,1.972,1.236,2.943c0.002,0.088,0.287,0.104,0.285,0.028c-0.025-1.318-0.518-3.016-2.002-3.27
		c-0.73-0.123-1.787,0.137-2.08,0.901c-0.205,0.539-0.145,1.163,0.064,1.695C24.409,36.524,24.688,36.524,24.657,36.444
		L24.657,36.444z"/>
</g>
<path fill="#FFFFFF" d="M27.065,36.985c0,0-1.832-1.191,0.535-1.955"/>
<g>
	<path fill="#815C2D" d="M27.17,36.956c-0.197-0.129-0.434-0.366-0.561-0.604c-0.373-0.698,0.59-1.1,1.088-1.271
		c0.145-0.049-0.123-0.127-0.193-0.104c-0.543,0.187-1.426,0.524-1.221,1.257c0.09,0.322,0.404,0.601,0.676,0.779
		C27.02,37.053,27.295,37.041,27.17,36.956L27.17,36.956z"/>
</g>
<path fill="#FFFFFF" d="M54.03,33.175c0,0-0.232-2.373,2.965-2.307c3.199,0.068,4.082,4.453,1.117,5.928
	c-2.967,1.476-4.268,0.644-4.268,0.644"/>
<path fill="#815C2D" d="M54.17,33.16c-0.043-0.563,0.188-1.104,0.553-1.521c0.816-0.932,2.48-0.869,3.512-0.386
	c0.693,0.325,1.141,1.008,1.393,1.702c0.506,1.392-0.17,2.874-1.348,3.663c-0.996,0.668-3.137,1.479-4.314,0.78
	c-0.063-0.039-0.332,0.03-0.239,0.086c1.028,0.611,2.578,0.113,3.582-0.252c1.979-0.722,3.297-2.404,2.521-4.548
	c-0.91-2.506-6.188-2.634-5.94,0.51C53.891,33.272,54.178,33.244,54.17,33.16L54.17,33.16z"/>
<path fill="#FFFFFF" d="M54.973,35.372c0.027-0.758,0.166-1.674,0.613-2.303c0.74-1.043,3.215-1.433,3.205,0.436"/>
<path fill="#815C2D" d="M55.118,35.39c0.051-1.039,0.23-2.204,1.184-2.797c0.957-0.596,2.3-0.401,2.351,0.893
	c0.005,0.09,0.289,0.109,0.285,0.038c-0.041-1.06-0.922-1.53-1.908-1.357c-1.641,0.288-2.118,1.659-2.194,3.187
	C54.829,35.439,55.114,35.466,55.118,35.39L55.118,35.39z"/>
<path fill="#FFFFFF" d="M57.463,34.13c0,0-0.351-1.84-1.539-1.428"/>
<g>
	<path fill="#815C2D" d="M57.608,34.144c-0.176-0.89-0.768-1.789-1.779-1.488c-0.145,0.042,0.125,0.118,0.193,0.098
		c0.775-0.229,1.18,0.763,1.299,1.367C57.338,34.211,57.62,34.207,57.608,34.144L57.608,34.144z"/>
</g>
<path fill="#FFFFFF" d="M40.667,48.609c0,0-1.773-2.846-3.313-3.146c-1.537-0.299-2.666-0.006-3.023,1.238
	c-0.359,1.241-0.902,6.395,1.881,6.227c2.787-0.174,4.508-1.648,4.805-2.359C41.315,49.855,40.667,48.609,40.667,48.609z"/>
<g>
	<path fill="#815C2D" d="M40.803,48.619c-0.982-1.555-2.361-3.354-4.383-3.322c-2.598,0.039-2.631,2.695-2.498,4.734
		c0.115,1.799,0.955,3.207,2.891,2.908c1.428-0.221,2.771-0.701,3.852-1.688C41.477,50.507,41.252,49.523,40.803,48.619
		c-0.037-0.076-0.311-0.088-0.275-0.021c0.84,1.694,0.094,2.644-1.418,3.474c-1.174,0.646-3.414,1.369-4.344,0.041
		c-0.453-0.648-0.531-1.561-0.58-2.318c-0.074-1.162-0.035-2.66,0.582-3.688c1.074-1.791,3.574-0.191,4.576,0.916
		c0.439,0.484,0.832,1.023,1.184,1.576C40.575,48.671,40.84,48.675,40.803,48.619z"/>
</g>
<path fill="#FFFFFF" d="M44.754,48.146c0,0,2.26-5.09,3.92-5.088c1.66,0.004,2.777,3.383,2.594,5.455
	c-0.18,2.074-0.834,2.428-2.254,2.842c-1.426,0.412-3.676-0.188-3.676-0.188l-0.297-0.238L44.754,48.146z"/>
<g>
	<path fill="#815C2D" d="M44.895,48.144c0.486-1.084,1.061-2.133,1.707-3.128c0.684-1.05,1.822-2.653,3.18-1.239
		c0.793,0.826,1.096,2.141,1.283,3.23c0.176,1.016,0.094,2.119-0.283,3.076c-0.686,1.737-3.451,1.414-4.906,1.131
		c-1.158-0.226-0.879-2.125-0.979-3.088c-0.008-0.08-0.293-0.045-0.283,0.039c0.096,0.928,0.189,1.854,0.285,2.783
		c0.057,0.536,2.082,0.569,2.316,0.59c1.07,0.098,2.133-0.113,3.08-0.617c1.067-0.568,1.143-2.117,1.129-3.16
		c-0.019-1.535-0.953-5.384-3.221-4.658c-1.74,0.557-2.914,3.541-3.588,5.045C44.583,48.223,44.86,48.218,44.895,48.144z"/>
</g>
<path fill="#FFFFFF" d="M39.477,49.38c-0.67-0.043-2.201,0.479-1.188,1.119c0.615,0.385,1.723-0.011,2.193-0.47"/>
<path fill="#815C2D" d="M39.51,49.322c-0.424-0.012-2.068,0.25-1.619,0.979c0.551,0.889,2.158,0.252,2.719-0.252
	c0.08-0.072-0.195-0.088-0.252-0.037c-0.498,0.449-1.922,1.035-2.254,0.109c-0.184-0.509,1.064-0.691,1.342-0.685
	C39.569,49.443,39.708,49.328,39.51,49.322L39.51,49.322z"/>
<path fill="#FFFFFF" d="M45.34,49.685c0,0,2.9,0.658,3.022-0.111c0.121-0.77-0.825-0.65-0.825-0.65"/>
<path fill="#815C2D" d="M45.329,49.742c0.836,0.188,1.912,0.449,2.756,0.205c0.412-0.119,0.592-0.51,0.271-0.863
	c-0.203-0.227-0.623-0.256-0.901-0.225c-0.148,0.016,0.104,0.133,0.178,0.127c0.383-0.041,0.822,0.322,0.527,0.697
	c-0.205,0.262-0.773,0.203-1.06,0.193c-0.584-0.021-1.175-0.119-1.742-0.248C45.19,49.591,45.163,49.703,45.329,49.742
	L45.329,49.742z"/>
<path fill="#FFFFFF" d="M45.649,35.333c-0.006,1.865-1.633,3.375-3.643,3.367c-2.002-0.004-3.625-1.517-3.621-3.381
	c0.006-1.867,1.635-3.371,3.641-3.365C44.03,31.956,45.653,33.47,45.649,35.333z"/>
<g>
	<path fill="#815C2D" d="M45.506,35.302c-0.254,4.229-6.742,4.3-6.979,0.045c-0.076-1.369,0.959-2.493,2.111-3.045
		C42.911,31.217,45.377,32.987,45.506,35.302c0.006,0.094,0.285,0.124,0.281,0.06c-0.25-4.464-7.269-4.596-7.543-0.072
		c-0.271,4.46,7.273,4.578,7.543,0.072C45.795,35.273,45.51,35.23,45.506,35.302z"/>
</g>
<path fill="#FFFFFF" d="M32.633,38.001c0,0,1.439-1.686,2.508-0.863c1.074,0.818,2.959,3.841,7.355,3.439
	c4.396-0.398,5.225-3.207,5.125-4.178c-0.103-0.972,1.282-2.402,2.914-1.527c1.633,0.869,1.467,8.131-7.228,9.235
	C34.612,45.216,31.204,39.278,32.633,38.001z"/>
<path fill="#815C2D" d="M32.774,38.008c1.846-2.027,3.771,0.811,5.328,1.752c1.275,0.773,2.967,1.063,4.438,0.87
	c1.542-0.201,3.333-0.604,4.346-1.92c0.366-0.476,0.715-1.002,0.821-1.606c0.185-1.031,1.07-4.458,3.078-1.836
	c0.84,1.101,0.328,3.021-0.129,4.129c-1.111,2.691-3.969,4.001-6.643,4.546c-3.445,0.703-7.359,0.104-10.02-2.304
	C33.18,40.905,31.799,39.086,32.774,38.008c0.043-0.047-0.221-0.079-0.279-0.014c-1.016,1.124,0.457,2.91,1.227,3.691
	c1.701,1.729,4.205,2.379,6.539,2.586c4.646,0.414,10.709-1.651,11.213-6.982c0.098-1.035-0.218-2.7-1.582-2.717
	c-2.252-0.028-2.037,1.478-2.666,3.139c-1.108,2.93-5.42,3.217-7.898,2.428c-1.576-0.503-2.688-1.763-3.848-2.857
	c-0.988-0.934-2.238-0.104-2.982,0.714C32.454,38.042,32.713,38.075,32.774,38.008z"/>
<ellipse fill="#FFFFFF" cx="36.374" cy="32.58" rx="0.793" ry="1.048"/>
<path fill="#815C2D" d="M37.024,32.565c-0.021,0.366-0.131,0.695-0.439,0.921c-0.586,0.428-0.848-0.592-0.863-0.894
	c-0.018-0.354,0.154-0.714,0.439-0.923C36.749,31.241,37.006,32.265,37.024,32.565c0.004,0.09,0.287,0.104,0.283,0.033
	c-0.074-1.399-1.785-1.479-1.869-0.04c-0.035,0.574,0.361,1.07,0.926,1.125c0.611,0.061,0.916-0.571,0.943-1.085
	C37.313,32.514,37.028,32.487,37.024,32.565z"/>
<path fill="#FFFFFF" d="M47.034,32.293c0,0.58-0.354,1.049-0.793,1.047c-0.439,0-0.791-0.471-0.791-1.049
	c0.002-0.58,0.357-1.047,0.797-1.047C46.68,31.249,47.04,31.714,47.034,32.293z"/>
<path fill="#815C2D" d="M46.889,32.295c-0.02,0.348-0.238,1.229-0.859,0.916c-0.324-0.164-0.42-0.599-0.438-0.922
	c-0.021-0.363,0.285-1.207,0.863-0.914C46.78,31.541,46.874,31.97,46.889,32.295c0.004,0.083,0.291,0.076,0.287-0.005
	c-0.066-1.425-1.789-1.406-1.871,0.003c-0.031,0.539,0.365,1.113,0.936,1.104c0.609-0.011,0.906-0.556,0.936-1.107
	C47.18,32.212,46.893,32.209,46.889,32.295z"/>
<path fill="#FFFFFF" d="M34.262,27.897c0,0,0.057-1.738,1.283-1.839c1.225-0.1,2.092-0.047,2.092-0.047s-1.016-2.815-2.752-2.104
	C33.143,24.622,34.262,27.897,34.262,27.897z"/>
<path fill="#815C2D" d="M34.407,27.913c0.021-0.504,0.176-1.014,0.484-1.415c0.521-0.676,1.988-0.47,2.779-0.426
	c0.029,0.001,0.127-0.007,0.107-0.061c-0.438-1.182-1.404-2.55-2.828-2.212c-1.686,0.401-1.223,2.921-0.826,4.098
	c0.025,0.076,0.307,0.084,0.279,0c-0.289-0.86-0.441-1.822-0.293-2.723c0.15-0.911,1.01-1.648,1.957-1.142
	c0.551,0.295,0.918,0.916,1.195,1.452c0.07,0.133,0.131,0.27,0.189,0.407c0.064,0.156,0.201,0.063,0,0.055
	c-0.664-0.025-1.527-0.104-2.17,0.086c-0.801,0.237-1.129,1.07-1.162,1.849C34.118,27.966,34.403,27.992,34.407,27.913z"/>
<path fill="#FFFFFF" d="M45.463,25.059c0,0,0.869-0.562,1.893,0.003c1.021,0.563,1.529,1.385,1.529,1.385s1.234-2.246-0.4-2.918
	C46.288,22.706,45.463,25.059,45.463,25.059z"/>
<path fill="#815C2D" d="M45.569,25.091c1.145-0.697,2.564,0.419,3.182,1.38c0.039,0.063,0.242,0.041,0.275-0.021
	c0.254-0.471,0.414-1.006,0.447-1.54c0.063-0.931-0.609-1.412-1.441-1.581c-1.209-0.246-2.313,0.624-2.707,1.724
	c-0.029,0.084,0.252,0.085,0.279,0.011c0.396-1.104,1.398-1.876,2.602-1.55c1.361,0.371,1.047,1.989,0.541,2.927
	c0.094-0.008,0.187-0.015,0.277-0.021c-0.727-1.133-2.346-2.198-3.664-1.394C45.231,25.105,45.504,25.129,45.569,25.091z"/>
<path fill="#FFFFFF" d="M34.442,38.94c0,0.153,2.805,4.044,9.506,2.78c5.215-1.063,5.734-5.561,5.734-5.561"/>
<path fill="#815C2D" d="M34.303,38.919c0.943,2.451,5.234,3.099,7.369,3.117c3.581,0.032,7.625-1.943,8.15-5.84
	c0.013-0.087-0.271-0.146-0.278-0.072c-0.324,2.416-2.189,4.231-4.344,5.147c-2.597,1.103-5.968,0.813-8.438-0.439
	c-0.695-0.354-1.879-1.08-2.186-1.873C34.547,38.878,34.276,38.848,34.303,38.919L34.303,38.919z"/>
<path fill="#FFFFFF" d="M40.307,47.781c0,0.354-0.652,1.774-0.004,2.664c0.652,0.893,0.768,1.781,2.545,1.549
	c1.777-0.234,2.434-0.769,2.492-2.01c0.063-1.244,0.006-2.133-0.646-2.668c-0.649-0.533-0.769-0.775-2.309-0.777
	C40.845,46.537,40.311,47.542,40.307,47.781z"/>
<g>
	<path fill="#815C2D" d="M40.167,47.757c-0.115,0.953-0.525,1.771-0.002,2.682c0.283,0.488,0.674,1.238,1.236,1.463
		c1.246,0.496,3.436,0.133,3.971-1.232c0.553-1.405,0.021-3.637-1.61-4.049C42.735,46.361,40.395,46.289,40.167,47.757
		c-0.012,0.082,0.271,0.125,0.283,0.045c0.221-1.418,2.688-1.457,3.593-0.9c1.242,0.762,1.318,2.205,1.101,3.521
		c-0.097,0.574-0.494,0.929-0.987,1.175c-1.103,0.547-2.649,0.51-3.345-0.583c-0.348-0.547-0.637-0.967-0.648-1.648
		c-0.012-0.537,0.227-1.037,0.289-1.563C40.461,47.718,40.174,47.679,40.167,47.757z"/>
</g>
<path fill="#FFFFFF" stroke="#815C2D" stroke-width="0.2876" d="M41.098,34.057c0,0.431-0.35,0.777-0.777,0.777
	c-0.434-0.004-0.781-0.35-0.779-0.781c0-0.432,0.352-0.778,0.781-0.778C40.752,33.276,41.1,33.625,41.098,34.057z"/>
<path fill="#FFFFFF" stroke="#815C2D" stroke-width="0.2876" d="M36.528,32.257c0,0.162-0.105,0.291-0.23,0.291
	c-0.127,0-0.23-0.133-0.23-0.291c0.004-0.166,0.104-0.297,0.234-0.297C36.424,31.96,36.528,32.095,36.528,32.257z"/>
<path fill="#FFFFFF" stroke="#815C2D" stroke-width="0.2876" d="M46.293,31.999c0,0.162-0.104,0.293-0.229,0.289
	c-0.131,0-0.231-0.127-0.231-0.289c0-0.166,0.104-0.297,0.231-0.297C46.19,31.702,46.295,31.834,46.293,31.999z"/>
<path fill="#FFFFFF" stroke="#815C2D" stroke-width="0.2876" d="M39.559,37.825c0,0,4.15,2.486,5.775-1.215"/>
<path fill="none" stroke="#815C2D" stroke-width="0.2876" d="M36.19,38.091l0.473,0.433c0,0,6.755,4.995,11.052-2.107"/>
<path fill="#FFFFFF" stroke="#815C2D" stroke-width="0.2876" d="M39.44,52.048c0,0-3.791,2.551-0.824,3.584
	c2.967,1.031,1.018,2.561,0.299,3.996c-0.719,1.432,0.301,2.971,1.223,3.176c0.922,0.207-3.691,2.965,0.912,4.203
	c4.607,1.24-3.9,2.756,1.738,2.873c5.63,0.111,5.938-1.117,4.507-1.732c-1.436-0.619-1.944-1.131,0.105-2.254
	c2.049-1.123,0.109-3.586,0.109-3.586c-2.561,0.303,5.439-3.264-0.193-5.324c-5.625-2.063,4.32-2.807-1.979-5.814
	C45.338,51.167,45.377,54.726,39.44,52.048z"/>
<polygon fill="#FFFFFF" stroke="#815C2D" stroke-width="0.2876" points="33.196,53.574 32.551,53.355 32.016,53.755 32.026,53.083 
	31.473,52.693 32.12,52.496 32.319,51.853 32.708,52.404 33.377,52.394 32.975,52.935 "/>
<polygon fill="#FFFFFF" stroke="#815C2D" stroke-width="0.2876" points="33.381,58.181 32.485,56.802 30.836,56.771 31.87,55.486 
	31.395,53.912 32.934,54.494 34.286,53.556 34.208,55.201 35.514,56.197 33.928,56.628 "/>
<polygon fill="#FFFFFF" stroke="#815C2D" stroke-width="0.2876" points="32.764,61.558 31.155,61.06 29.836,62.105 29.811,60.417 
	28.411,59.484 30.004,58.941 30.463,57.324 31.471,58.669 33.153,58.601 32.18,59.982 "/>
<polygon fill="#FFFFFF" stroke="#815C2D" stroke-width="0.2876" points="37.153,68.531 34.577,67.603 32.344,69.199 32.434,66.46 
	30.231,64.832 32.862,64.072 33.725,61.468 35.262,63.738 38.006,63.757 36.325,65.919 "/>
<polygon fill="#FFFFFF" stroke="#815C2D" stroke-width="0.2876" points="54.297,49.419 53.782,49.292 53.385,49.646 53.346,49.121 
	52.885,48.849 53.377,48.65 53.491,48.132 53.836,48.533 54.364,48.48 54.086,48.931 "/>
<polygon fill="#FFFFFF" stroke="#815C2D" stroke-width="0.2876" points="51.731,52.181 51.096,51.962 50.553,52.363 50.565,51.691 
	50.014,51.298 50.661,51.099 50.86,50.458 51.247,51.007 51.92,51.001 51.514,51.541 "/>
<polygon fill="#FFFFFF" stroke="#815C2D" stroke-width="0.2876" points="54.901,55.972 53.475,55.083 51.93,55.748 52.34,54.121 
	51.233,52.859 52.909,52.744 53.764,51.298 54.389,52.857 56.032,53.226 54.745,54.302 "/>
<polygon fill="#FFFFFF" stroke="#815C2D" stroke-width="0.2876" points="52.319,64.88 51.028,62.863 48.629,62.783 50.151,60.933 
	49.485,58.63 51.715,59.5 53.7,58.158 53.559,60.55 55.452,62.021 53.133,62.625 "/>
<polygon fill="#FFFFFF" stroke="#815C2D" stroke-width="0.2876" points="55.495,66.423 54.336,66.08 53.401,66.837 53.374,65.632 
	52.362,64.978 53.499,64.574 53.811,63.414 54.543,64.371 55.745,64.308 55.061,65.298 "/>
<polygon fill="#FFFFFF" stroke="#815C2D" stroke-width="0.2876" points="52.311,67.951 51.491,67.824 50.92,68.429 50.792,67.609 
	50.04,67.253 50.782,66.873 50.883,66.052 51.473,66.636 52.292,66.482 51.917,67.224 "/>
<ellipse fill="#FFFFFF" stroke="#815C2D" stroke-width="0.2876" cx="42.559" cy="54.976" rx="0.463" ry="0.357"/>
<path fill="#FFFFFF" stroke="#815C2D" stroke-width="0.2876" d="M44.754,58.822c0,0.564-0.438,1.02-0.978,1.02
	c-0.541,0-0.975-0.459-0.973-1.022c0-0.567,0.44-1.024,0.975-1.022C44.321,57.794,44.754,58.255,44.754,58.822z"/>
<path fill="#FFFFFF" stroke="#815C2D" stroke-width="0.2876" d="M44.846,63.019c0,0.396-0.326,0.719-0.719,0.715
	c-0.396,0-0.717-0.32-0.715-0.717c0-0.396,0.319-0.717,0.719-0.717C44.526,62.3,44.846,62.621,44.846,63.019z"/>
<path fill="#FFFFFF" stroke="#815C2D" stroke-width="0.2876" d="M44.532,66.552c0,0.254-0.186,0.461-0.412,0.461
	c-0.226,0-0.408-0.211-0.408-0.465c0-0.25,0.187-0.457,0.41-0.455C44.348,66.093,44.532,66.298,44.532,66.552z"/>
</svg>
