<svg version="1.1" id="svg_2_v" valid="1" xmlns="http://www.w3.org/2000/svg" xmlns:xlink="http://www.w3.org/1999/xlink" x="0px" y="0px" width="85.04px" height="85.04px" viewBox="0 0 85.04 85.04" enable-background="new 0 0 85.04 85.04" xml:space="preserve">

<path fill="#FFFFFF" toFill="#F7F8FB" d="M72.516,42.1l3.763,5.577c0,0,5.887-4.008,6.629-4.87c0.743-0.865,1.121-4.204-0.481-6.248
	c-1.606-2.045-3.896-0.629-3.896-0.629S77.298,33.883,76,34.44c-1.301,0.552-2.051,3.457-2.299,4.634
	c-0.252,1.174-1.305,2.719-1.305,2.719L72.516,42.1z"/>
<path fill="#815C2D" d="M72.383,42.09c1.252,1.857,2.506,3.716,3.763,5.577c0.04,0.063,0.199,0.114,0.264,0.069
	c1.096-0.746,2.183-1.504,3.26-2.271c1.011-0.715,2.688-1.556,3.382-2.612c1.319-2.023,0.694-7.264-2.406-7.438
	c-0.571-0.033-1.022,0.006-1.577,0.156c-0.802,0.217-0.339,0.379-0.992-0.392c-0.601-0.708-1.291-0.958-2.166-0.812
	c-1.295,0.219-1.869,2.814-2.144,3.781c-0.267,0.946-0.499,1.796-0.955,2.679c-0.267,0.514-0.646,0.713-0.438,1.242
	c0.033,0.086,0.313,0.129,0.287,0.059c-0.283-0.719,1.168-2.991,1.394-3.89c0.455-1.816,2.063-5.853,4.344-2.318
	c0.043,0.067,0.196,0.109,0.269,0.069c3.873-2.198,6.229,4.577,3.97,6.903c-1.392,1.431-3.306,2.519-4.937,3.655
	c-1.713,1.194-1.183,1.295-2.347-0.433c-0.901-1.336-1.802-2.67-2.703-4.005C72.604,42.044,72.32,41.994,72.383,42.09z"/>
<path fill="#FFFFFF" toFill="#F7F8FB" d="M13.857,52.795c0,0-1.162-6.556-3.699-6.376c-2.536,0.182-2.296,3.398-2.296,3.398
	s-2.532-2.42-5.012,0.297c-2.479,2.718-1.688,8.595,3.755,8.912c5.442,0.324,6.124-0.666,6.124-0.666L13.857,52.795z"/>
<path fill="#815C2D" d="M14.003,52.816c-0.414-2.258-1.926-8.305-5.32-5.91c-0.651,0.459-0.855,1.435-0.952,2.158
	c-0.07,0.532-0.041,0.469,0.21,0.693c-0.325-0.292-0.713-0.492-1.103-0.682c-1.827-0.894-3.647,0.205-4.681,1.742
	c-1.197,1.783-1.096,4.76,0.368,6.371c1.893,2.084,4.588,2.024,7.214,1.938c0.766-0.024,2.55-0.017,3.129-0.733
	c0.392-0.484,0.399-1.953,0.521-2.552C13.596,54.834,13.8,53.824,14.003,52.816c0.019-0.082-0.279-0.127-0.297-0.039
	c-0.295,1.467-0.593,2.938-0.892,4.403c-0.325,1.612-0.833,1.608-2.606,1.788c-3.913,0.398-8.167-0.438-8.546-4.904
	C1.411,51.082,4.578,47,7.729,49.83c0.033,0.029,0.285,0.097,0.281,0.006c-0.132-2.467,2.3-4.689,4.087-1.848
	c0.877,1.394,1.317,3.183,1.61,4.787C13.726,52.874,14.016,52.879,14.003,52.816z"/>
<path fill="#FFFFFF" toFill="#3F96C3" d="M49.621,44.958c-0.125,0.184,4.879,2.979,12.063,1.572c7.172-1.406,8.291-2.644,8.291-2.644
	l3.388,5.946c0,0-11.52,7.271-12.699,9.806c-3.475,4.386-2.189,11.687-2.189,11.687l-28.457-0.248c0,0,0.197-6.495-2.64-8.727
	c-2.84-2.23-12.055-2.563-12.055-2.563l1.065-7.293c0,0,4.452,0.504,9.217-1.032c4.767-1.537,9.355-6.411,9.355-6.411L49.621,44.958
	z"/>
<path fill="#815C2D" d="M49.478,44.945c0.148,0.449,1.357,0.791,1.699,0.914c2.018,0.731,4.086,1.053,6.225,1.129
	c3.836,0.138,9.149-0.762,12.482-2.875c0.387-0.246-0.047-0.23,0.043-0.072c0.367,0.642,0.73,1.285,1.097,1.928
	c0.195,0.344,2.281,3.771,2.118,3.873c-3.061,1.941-6.066,3.982-8.938,6.193c-3.58,2.754-5.61,5.83-6.045,10.457
	c-0.146,1.545-0.07,3.137,0.148,4.674c0.027,0.203-1.117,0.084-1.545,0.08c-7.52-0.067-15.035-0.133-22.554-0.197
	c-1.102-0.01-2.199-0.02-3.3-0.029c-0.901-0.008-0.74,0.176-0.74-0.277c0.002-2.938-0.418-6.814-3.005-8.645
	c-2.534-1.791-6.559-1.951-9.528-2.22c-0.604-0.056-1.213-0.097-1.82-0.13c-0.638-0.039-0.345,0.074-0.319-0.102
	c0.218-1.484,0.437-2.974,0.653-4.457c0.119-0.815-0.018-2.646,0.77-2.59c2.005,0.141,4.02-0.052,5.995-0.377
	c4.675-0.771,8.591-3.563,11.893-6.826c0.474-0.468,1.17-0.287,1.878-0.291c1.636-0.011,3.271-0.021,4.907-0.031
	c2.696-0.016,5.396-0.033,8.096-0.051c0.193-0.002-0.036-0.131-0.127-0.131c-4.704,0.026-9.407,0.057-14.112,0.086
	c-1.51,0.01-2.933,2.193-4.054,3.08c-4.239,3.362-9.628,4.924-15.029,4.37c-0.025-0.003-0.112-0.008-0.119,0.034
	c-0.356,2.43-0.713,4.861-1.068,7.292c-0.01,0.077,0.165,0.097,0.21,0.097c3.315,0.131,6.737,0.492,9.899,1.521
	c3.987,1.301,4.673,5.994,4.587,9.67c-0.002,0.078,0.157,0.098,0.21,0.098c9.486,0.083,18.972,0.166,28.458,0.248
	c0.031,0,0.086-0.007,0.08-0.052c-0.858-5.115,0.313-10.47,4.299-13.948c3.244-2.828,6.951-5.215,10.584-7.511
	c0.008-0.011,0.012-0.021,0.006-0.03c-1.13-1.982-2.26-3.966-3.387-5.947c-0.037-0.066-0.223-0.121-0.283-0.062
	c-1.243,1.272-4.081,1.677-5.639,2.063c-3.021,0.744-6.017,1.137-9.121,0.791c-0.857-0.097-4.938-0.59-5.313-1.723
	C49.74,44.89,49.449,44.861,49.478,44.945z"/>
<path fill="#FFFFFF" toFill="#F6BC24" d="M13.534,51.792c0.891,0.211,2.291,0.489,3.042,0.767c0.538,0.195-1.129,7.543-1.129,7.543
	c-1.148-0.076-2.354-0.068-3.477-0.275c-0.226-0.041,1.262-7.414,1.535-8.037C13.515,51.787,13.522,51.789,13.534,51.792z"/>
<path fill="#815C2D" d="M13.461,51.847c0.926,0.213,3.104,0.227,3.063,1.41c-0.027,0.834-0.199,1.674-0.343,2.496
	c-0.255,1.453-0.559,2.896-0.883,4.334c0.011-0.043-1.983-0.166-2.148-0.178c-1.183-0.08-1.101,0.021-1.009-0.723
	c0.106-0.836,0.271-1.668,0.427-2.498C12.668,56.16,13.635,51.871,13.461,51.847c0.088,0.012,0.337-0.085,0.146-0.109
	c-0.01-0.002-0.021-0.004-0.03-0.004c-0.049-0.006-0.195-0.02-0.221,0.045c-0.688,1.838-0.917,3.967-1.264,5.89
	c-0.12,0.659-0.371,1.466-0.288,2.142c0.043,0.362,3.276,0.332,3.604,0.35c0.053,0.004,0.171,0.002,0.188-0.066
	c0.396-1.755,0.758-3.521,1.044-5.3c0.089-0.563,0.397-1.595,0.151-2.149c-0.259-0.589-2.644-0.781-3.186-0.906
	C13.518,51.717,13.27,51.805,13.461,51.847z"/>
<path fill="#FFFFFF" toFill="#F6BC24" d="M72.33,41.544l-2.354,2.344l3.275,6.538l3.742-2.521
	C76.992,47.904,76.287,42.979,72.33,41.544z"/>
<path fill="#815C2D" d="M72.188,41.514c-0.784,0.782-1.569,1.562-2.354,2.345c-0.008,0.01-0.008,0.021-0.002,0.031
	c1.09,2.18,2.185,4.359,3.273,6.538c0.035,0.07,0.215,0.08,0.271,0.041c1.248-0.842,2.494-1.683,3.74-2.522
	c0.015-0.004,0.021-0.016,0.023-0.026c-0.424-2.771-2.1-5.35-4.729-6.418c-0.086-0.035-0.344,0.016-0.162,0.088
	c2.574,1.047,4.097,3.57,4.578,6.224c0.051,0.262-1.605,1.158-1.834,1.311c-0.429,0.287-0.855,0.578-1.285,0.867
	c-0.159,0.107-0.318,0.217-0.48,0.324c-0.199,0.135,0.203,0.18,0.13,0.032c-0.897-1.793-1.797-3.587-2.692-5.378
	c-0.357-0.713-0.703-0.895-0.133-1.46c0.647-0.645,1.295-1.29,1.942-1.934C72.529,41.523,72.253,41.451,72.188,41.514z"/>
<polygon fill="#FFFFFF" toFill="#B672AB" stroke="#815C2D" stroke-width="0.2" stroke-miterlimit="10" points="62.443,50.609 
	62.425,48.752 63.578,49.939 65.037,49.432 64.453,50.566 65.561,51.863 63.642,51.557 63.059,53.476 62.716,51.598 61.008,51.365 
	"/>
<polygon fill="#FFFFFF" toFill="#CB77AD" stroke="#815C2D" stroke-width="0.2" stroke-miterlimit="10" points="66.591,45.342 
	66.521,45.83 65.41,46.542 66.382,46.64 66.449,48.029 67.263,46.64 68.853,47.363 68.046,46.135 68.928,45.14 67.613,45.462 
	67.195,45.162 "/>
<path fill="#FFFFFF" toFill="#CB77AD" stroke="#815C2D" stroke-width="0.2" stroke-miterlimit="10" d="M68.43,50.412l-0.136-1.389
	l1.154,0.948l1.364-0.598l-0.694,1.247c0,0,1.226,0.605,1.152,0.605c-0.066,0-0.531,0.301-0.531,0.301l-1.018-0.188l-0.257,1.039
	l-0.577,0.37l-0.066-1.158l-1.711-0.139L68.43,50.412z"/>
<path fill="#FFFFFF" toFill="#B672AB" stroke="#815C2D" stroke-width="0.1" stroke-miterlimit="10" d="M41.041,55.843
	c-0.12,0.053,0.175,0.883,0.229,0.982c0.123-0.071,0.2-0.199,0.346-0.26c0.188-0.078,0.418-0.104,0.622-0.078
	c0.366,0.029,0.741,0.086,1.082,0.222c0.416,0.161,0.762,0.471,1.172,0.631c0.268,0.103,0.553,0.14,0.836,0.133
	c0.205-0.005,0.512,0.011,0.705-0.062c0.217-0.069,0.187-0.258,0.187-0.454c0-0.077-0.054-0.462,0.002-0.521
	c0,0-0.431,0.426-0.912,0.264C44.832,56.542,42.216,55.314,41.041,55.843z"/>
<path fill="#FFFFFF" toFill="#B672AB" stroke="#815C2D" stroke-width="0.1" stroke-miterlimit="10" d="M35.379,58.605
	c-0.12,0.057,0.173,0.885,0.228,0.985c0.123-0.073,0.202-0.201,0.348-0.257c0.188-0.08,0.414-0.104,0.62-0.084
	c0.369,0.029,0.741,0.088,1.089,0.225c0.41,0.161,0.754,0.469,1.164,0.631c0.267,0.103,0.557,0.141,0.838,0.133
	c0.204-0.004,0.512,0.013,0.701-0.057c0.216-0.074,0.188-0.256,0.188-0.459c0-0.076-0.055-0.462,0-0.523c0,0-0.428,0.43-0.909,0.27
	C39.167,59.308,36.555,58.072,35.379,58.605z"/>
<path fill="#FFFFFF" toFill="#B672AB" stroke="#815C2D" stroke-width="0.1" stroke-miterlimit="10" d="M47.871,58.843
	c-0.121,0.057,0.17,0.885,0.229,0.984c0.12-0.072,0.197-0.196,0.346-0.256c0.188-0.08,0.418-0.104,0.617-0.082
	c0.371,0.027,0.744,0.09,1.092,0.225c0.406,0.161,0.752,0.467,1.168,0.628c0.262,0.104,0.553,0.144,0.838,0.134
	c0.198-0.005,0.504,0.01,0.703-0.055c0.213-0.074,0.184-0.256,0.184-0.461c0-0.077-0.053-0.463,0-0.518c0,0-0.43,0.426-0.906,0.262
	C51.66,59.545,49.044,58.314,47.871,58.843z"/>
<path fill="#FFFFFF" toFill="#B672AB" stroke="#815C2D" stroke-width="0.1" stroke-miterlimit="10" d="M50.19,55.068
	c-0.122,0.055,0.173,0.885,0.226,0.979c0.125-0.066,0.205-0.195,0.348-0.255c0.191-0.075,0.418-0.103,0.62-0.084
	c0.368,0.032,0.743,0.096,1.09,0.226c0.412,0.166,0.757,0.471,1.165,0.631c0.262,0.104,0.554,0.141,0.842,0.137
	c0.199-0.006,0.508,0.009,0.703-0.059c0.213-0.074,0.186-0.258,0.186-0.459c0-0.076-0.058-0.465,0-0.517
	c0,0-0.426,0.427-0.908,0.263C53.978,55.767,51.363,54.535,50.19,55.068z"/>
<path fill="#FFFFFF" toFill="#B672AB" stroke="#815C2D" stroke-width="0.1" stroke-miterlimit="10" d="M41.682,63.21
	c-0.123,0.059,0.173,0.889,0.229,0.984c0.122-0.071,0.2-0.197,0.349-0.258c0.188-0.078,0.412-0.101,0.618-0.082
	c0.369,0.031,0.742,0.09,1.086,0.225c0.412,0.162,0.758,0.466,1.17,0.629c0.266,0.105,0.553,0.143,0.839,0.136
	c0.201-0.002,0.509,0.011,0.7-0.056c0.215-0.076,0.188-0.258,0.188-0.459c0-0.076-0.052-0.463,0-0.52c0,0-0.426,0.426-0.906,0.264
	C45.472,63.914,42.856,62.68,41.682,63.21z"/>
<path fill="#FFFFFF" toFill="#B672AB" stroke="#815C2D" stroke-width="0.1" stroke-miterlimit="10" d="M35.486,65.865
	c-0.123,0.058,0.173,0.89,0.229,0.986c0.12-0.074,0.2-0.199,0.347-0.26c0.189-0.079,0.416-0.1,0.617-0.081
	c0.371,0.032,0.747,0.091,1.091,0.224c0.412,0.162,0.752,0.469,1.167,0.631c0.266,0.104,0.555,0.141,0.837,0.133
	c0.198-0.004,0.509,0.008,0.706-0.055c0.212-0.074,0.185-0.258,0.185-0.459c0-0.076-0.056-0.461,0-0.52c0,0-0.426,0.425-0.906,0.266
	C39.272,66.568,36.664,65.337,35.486,65.865z"/>
<path fill="#FFFFFF" toFill="#B672AB" stroke="#815C2D" stroke-width="0.1" stroke-miterlimit="10" d="M47.225,67.228
	c-0.12,0.055,0.174,0.885,0.229,0.981c0.123-0.073,0.201-0.198,0.347-0.257c0.188-0.077,0.418-0.104,0.618-0.082
	c0.369,0.031,0.746,0.092,1.091,0.225c0.407,0.161,0.755,0.467,1.166,0.628c0.265,0.106,0.557,0.144,0.84,0.136
	c0.2-0.006,0.509,0.008,0.702-0.059c0.216-0.072,0.183-0.255,0.183-0.456c0-0.08-0.053-0.465,0-0.521c0,0-0.426,0.429-0.903,0.263
	C51.013,67.926,48.401,66.695,47.225,67.228z"/>
<path fill="#815C2D" d="M19.973,55.662c0.083-0.555,0.35-0.988,0.813-1.303c0.917-0.619,2.01,0.045,2.096,1.058
	c0.067,0.793-1.086,1.745-1.682,0.687c-0.165-0.295-0.067-0.629,0.122-0.869c0.568-0.187,0.84-0.063,0.815,0.371
	c-0.037,0.082-0.072,0.164-0.107,0.246c-0.517-0.143-0.581-0.225-0.193-0.246c0.018,0.098,0.31,0.103,0.297,0.037
	c-0.049-0.295-0.634-0.554-0.779-0.177c-0.214,0.563,0.429,0.71,0.83,0.556c0.65-0.252,0.039-1.039-0.406-1.096
	c-0.772-0.093-1.15,0.678-0.793,1.307c0.248,0.447,0.969,0.573,1.41,0.385c0.819-0.354,0.977-1.25,0.517-1.973
	c-0.361-0.566-1.104-0.703-1.719-0.621c-0.824,0.114-1.398,0.813-1.516,1.603C19.664,55.708,19.96,55.748,19.973,55.662
	L19.973,55.662z"/>
<path fill="#815C2D" d="M26.898,55.763c0.075-0.506,0.293-0.9,0.693-1.227c0.807-0.658,2-0.236,2.212,0.771
	c0.159,0.75-0.846,1.952-1.615,1.011c-0.239-0.297-0.163-0.709,0.054-0.984c0.229-0.245,0.503-0.188,0.825,0.177
	c-0.013,0.095-0.021,0.187-0.032,0.281c-0.563,0.188-0.65,0.147-0.266-0.122c0.013,0.085,0.297,0.148,0.283,0.061
	c-0.066-0.441-0.667-0.481-0.819-0.076c-0.155,0.418,0.635,0.66,0.887,0.453c0.537-0.434,0.078-0.99-0.44-1.111
	c-0.645-0.151-1.142,0.617-0.83,1.168c0.791,1.4,2.958,0.111,2.064-1.29c-0.913-1.437-3.063-0.81-3.305,0.801
	C26.598,55.763,26.886,55.837,26.898,55.763L26.898,55.763z"/>
<path fill="#815C2D" d="M23.265,59.195c0.092-0.607,0.408-1.086,0.95-1.383c0.907-0.502,1.881,0.135,1.965,1.104
	c0.074,0.846-1.135,1.697-1.689,0.718c-0.225-0.397-0.004-0.845,0.37-1.032c0.406-0.006,0.601,0.159,0.578,0.5
	c-0.036,0.084-0.072,0.166-0.109,0.25c-0.494,0.053-0.558-0.023-0.194-0.228c0.014,0.081,0.304,0.13,0.29,0.036
	c-0.072-0.457-0.675-0.444-0.828-0.049c-0.162,0.418,0.65,0.625,0.894,0.428c0.512-0.413,0.098-1.035-0.448-1.105
	c-0.77-0.098-1.105,0.694-0.763,1.297c0.274,0.484,0.932,0.541,1.404,0.412c0.88-0.236,0.931-1.322,0.522-1.965
	c-0.316-0.494-1.016-0.742-1.58-0.666c-0.883,0.12-1.52,0.729-1.651,1.613C22.959,59.214,23.253,59.275,23.265,59.195L23.265,59.195
	z"/>
<path fill="#815C2D" d="M16.311,58.88c0.083-0.559,0.348-0.982,0.815-1.299c0.864-0.583,1.884-0.006,2.076,0.912
	c0.173,0.83-0.871,1.848-1.592,0.961c-0.206-0.254-0.181-0.604-0.048-0.879c0.153-0.254,0.386-0.327,0.697-0.217
	c0.069,0.112,0.139,0.227,0.21,0.34c0.058,0.203-0.042,0.256-0.297,0.16c0.017,0.092,0.313,0.076,0.299,0.004
	c-0.079-0.455-0.685-0.399-0.832-0.021c-0.171,0.442,0.636,0.603,0.885,0.396c0.458-0.371,0.181-1.084-0.416-1.076
	c-0.747,0.009-1.181,0.627-0.789,1.318c0.3,0.53,1.061,0.51,1.537,0.305c0.771-0.332,0.781-1.307,0.39-1.92
	c-0.342-0.541-1.127-0.736-1.724-0.598c-0.818,0.188-1.386,0.768-1.513,1.607C16,58.953,16.299,58.972,16.311,58.88L16.311,58.88z"
	/>
<path fill="#815C2D" d="M24.472,53.336c0.083-0.562,0.347-0.983,0.815-1.3c0.863-0.582,1.884-0.006,2.073,0.914
	c0.173,0.828-0.866,1.845-1.591,0.961c-0.207-0.254-0.18-0.604-0.047-0.879c0.15-0.256,0.385-0.33,0.695-0.221
	c0.07,0.112,0.141,0.227,0.21,0.34c0.057,0.203-0.041,0.258-0.296,0.158c0.015,0.096,0.313,0.078,0.3,0.006
	c-0.078-0.457-0.688-0.398-0.834-0.017c-0.167,0.438,0.636,0.604,0.887,0.396c0.455-0.373,0.182-1.09-0.418-1.08
	c-0.748,0.013-1.178,0.631-0.787,1.322c0.301,0.526,1.063,0.506,1.537,0.301c0.772-0.328,0.779-1.307,0.388-1.918
	c-0.344-0.539-1.127-0.735-1.721-0.599c-0.819,0.188-1.389,0.769-1.511,1.608C24.163,53.408,24.46,53.427,24.472,53.336
	L24.472,53.336z"/>
<path fill="#5690C2" d="M48.912,46.222c-0.004,1.576-3.283,2.852-7.32,2.838c-4.039-0.006-7.31-1.291-7.308-2.867
	c0.006-1.578,3.279-2.849,7.318-2.84C45.641,43.361,48.912,44.648,48.912,46.222z"/>
<path fill="#FFFFFF" toFill="#F9D9B0" d="M30.612,21.404c0,0-4.626,4.86-4.635,9.476c-0.012,4.62,0.89,16.598,17.279,15.817
	c16.704-0.799,15.19-21.258,7.889-26.278C43.833,15.399,33.826,17.306,30.612,21.404z"/>
<path fill="#815C2D" d="M30.468,21.379c-4.946,5.28-6.053,12.566-2.479,18.906c3.792,6.728,14.501,8.265,21.068,5.197
	c7.191-3.358,8.738-11.962,6.428-18.955c-2.761-8.35-12.734-10.77-20.447-8.162C33.284,18.958,31.667,19.964,30.468,21.379
	c-0.051,0.061,0.229,0.122,0.286,0.053c3.771-4.451,10.979-4.634,16.112-3.044c4.041,1.249,6.688,3.888,8.182,7.737
	c2.41,6.225,1.299,14.345-4.465,18.31c-4.289,2.953-10.692,2.775-15.449,1.28c-3.612-1.136-6.313-3.825-7.747-7.272
	c-2.495-6.004-1.049-12.296,3.366-17.009C30.804,21.377,30.53,21.312,30.468,21.379z"/>
<path fill="#FFFFFF" toFill="#ED8C21" d="M27.364,35.622c-0.513-1.706-0.793-3.366-0.418-4.3c0.418-1.045,1.854-1.309,2.246-2.35
	c0.427-1.129-0.877-2.322-0.373-3.255c0.298-0.555,2.518-0.926,3.044-1.339c0.381-0.301,1.5-5.869,4.01-3.349
	c0,0,1.413-1.536,1.926-1.406c0.512,0.129,0.381,2.054,2.176,1.927c1.798-0.125,1.286-1.15,1.286-1.15s0.253,1.283,2.308,0.646
	c2.057-0.638,1.285-1.794,1.93-1.79c0.644,0,2.947,1.671,2.947,1.671s1.029-0.38,1.926,0.135c0.897,0.513,0.51,1.666,0.51,1.666
	s2.183,0.004,2.435,1.801c0.255,1.799-0.78,2.821-0.138,3.722c0.64,0.897,1.539,0.771,1.537,2.182
	c-0.004,1.413,0.123,2.184,0.123,2.184c-0.227,3.6-0.436,7-2.104,10.247c0.456,0.324,1.033,0.744,1.579,0.818
	c0.834,0.107,0.852-0.305,1.321-0.508c0.231-0.104,0.015-0.503,0.51-0.515c0.375-0.01,0.369,0.494,0.628,0.617
	c0.702,0.334,1.342,0.748,2.191,0.438c1.656-0.6,0.588-3.362,2.568-2.761c0.572,0.176,0.627,0.758,1.52,0.711
	c1.113-0.053,2.869-1.349,3.015-2.512c0.12-1.003-1.266-1.854-1.101-2.665c0.128-0.642,0.643-1.283,1.541-1.281
	c0.896,0,3.203,1.033,4.359,0.393c1.154-0.637,1.805-3.328,1.034-3.843c-0.769-0.515-3.075-1.161-2.817-2.316
	c0.26-1.154,3.985-2.815,2.834-4.1c-1.151-1.284-1.795-2.055-3.974-2.19c-2.18-0.133-2.563,0.25-4.229-0.65
	c-1.666-0.898,0.137-3.589-0.889-4.748c-1.027-1.159-2.181-1.415-3.588-0.906c-1.414,0.511-2.06,1.792-3.086,1.406
	c-1.025-0.387-1.017-3.979-3.197-4.367c-2.183-0.391-4.498,2.299-6.293,1.908c-1.797-0.387-2.177-2.184-3.59-2.062
	c-1.409,0.126-2.442,2.946-3.853,2.815c-1.412-0.133-3.198-3.084-4.999-2.451c-1.794,0.643-2.57,3.846-3.853,4.096
	c-1.284,0.257-3.715-2.44-5.771-0.652c-2.057,1.792-0.397,6.157-1.556,6.797c-1.154,0.638-7.181-1.172-8.342,2.163
	c-1.16,3.331,2.811,5.264,2.426,6.291c-0.675,1.79-3.282,1.896-3.415,4.22c-0.138,2.428,1.672,4.404,4.035,4.502
	c0.9,0.034,2.156-0.6,2.597,0.489c0.304,0.749-0.834,1.493-0.556,2.593c0.291,1.146,1.643,1.996,2.695,2.28
	c0.47,0.13,1.03,0.223,1.493,0.004c0.169-0.079,0.905-0.917,0.811-0.917c0.675,0.009,1.26,0.771,1.912,0.698
	c1.144-0.133,0.434-1.043,0.943-1.608c0.673-0.755,1.191-0.019,2.01-0.104c0.696-0.076,1.132-0.56,1.401-1.197
	C28.845,41.9,28.157,38.249,27.364,35.622z"/>
<path fill="#815C2D" d="M27.506,35.654c-0.349-1.258-0.632-2.436-0.555-3.759c0.066-1.124,1.384-1.707,2.1-2.397
	c1.49-1.438-1.633-3.335,1.038-4.34c0.887-0.333,1.798-0.326,2.171-1.26c0.486-1.222,1.419-4.645,3.499-2.865
	c0.041,0.037,0.194,0.111,0.245,0.057c0.728-0.768,1.463-1.656,2.271-0.422c0.305,0.467,0.56,0.713,1.094,0.897
	c0.722,0.248,2.453-0.057,2.035-1.132c-0.028-0.078-0.309-0.146-0.281-0.065c0.426,1.485,3.084,1.007,3.759,0.092
	c0.702-0.947,0.665-1.29,2.024-0.482c0.5,0.297,0.979,0.635,1.453,0.975c0.854,0.613,2.832,0.048,2.383,1.726
	c-0.02,0.073,0.15,0.121,0.195,0.122c3.338,0.116,1.91,2.779,1.904,4.452c-0.006,1.588,1.717,2.136,1.742,3.916
	c0.061,4.014-0.237,7.959-1.993,11.644c-0.015,0.029,0.036,0.063,0.056,0.072c0.85,0.591,1.768,1.23,2.758,0.597
	c1.26-0.812,1.508,0.573,2.856,0.403c0.592-0.071,1.239-0.058,1.558-0.698c0.438-0.883,0.422-2.867,2.266-1.773
	c1.154,0.686,2.252,0.029,3.22-0.742c0.685-0.548,0.94-1.24,0.821-2.075c-0.031-0.229-0.553-0.924-0.676-1.101
	c-1.322-1.903,1.32-2.235,2.547-1.931c1.693,0.42,3.033,0.598,3.967-1.084c0.519-0.938,0.759-2.429-0.356-2.968
	c-5.272-2.546,0.778-3.164,0.66-5.472c-0.049-0.991-1.464-2.195-2.392-2.535c-0.939-0.343-1.813-0.424-2.817-0.46
	c-1.349-0.049-3.498,0.37-3.933-1.718c-0.146-0.698,0.179-1.475,0.174-2.178c-0.01-1.291-0.858-2.255-2.143-2.544
	c-0.725-0.164-1.332-0.026-2.031,0.168c-1.506,0.417-2.834,2.379-3.736,0.005c-1.436-3.771-3.498-3.221-6.725-1.548
	c-2.607,1.354-3.479-1.405-5.647-1.573c-2.678-0.206-2.039,4.604-5.532,1.781c-2.495-2.016-3.892-1.758-5.68,1.05
	c-1.495,2.348-3.425,0.666-5.526,0.364c-1.616-0.233-2.53,1.341-2.827,2.656c-0.328,1.443,0.763,4.763-1.312,4.899
	c-1.67,0.11-3.291-0.183-4.964,0.083c-1.77,0.281-2.699,1.474-2.832,3.218c-0.12,1.584,1.28,2.952,2.208,4.044
	c1.452,1.71-1.659,2.609-2.414,3.723c-0.929,1.378-0.701,3.494,0.536,4.666c0.818,0.774,1.959,1.531,3.156,1.446
	c1.738-0.122,2.332,0.715,1.792,2.338c-0.18,0.545,0.245,1.351,0.643,1.713c0.87,0.791,1.83,1.323,3.021,1.443
	c0.484,0.049,0.722-0.058,1.03-0.315c0.905-0.761,0.118-0.746,1.724-0.197c1.089,0.375,1.449-0.008,1.558-1.097
	c0.09-0.93,1.621-0.425,2.14-0.452c0.771-0.037,1.122-0.64,1.455-1.224c0.013-0.021-0.016-0.044-0.026-0.054
	C28.918,41.615,28.337,38.505,27.506,35.654c-0.025-0.086-0.306-0.141-0.284-0.064c0.459,1.574,0.871,3.155,1.441,4.692
	c0.253,0.678,0.589,1.296,0.948,1.919c0.24,0.385,0.512,0.744,0.819,1.076c0.552,0.565-0.057,1.037-1.827,1.416
	c-0.557-0.164-0.651-0.002-1.101,0.297c-0.293,0.195-0.242,0.865-0.277,1.16c-0.063,0.582-1.978-0.104-2.43-0.244
	c-0.035-0.01-0.137-0.043-0.159,0.008c-0.852,1.814-3.672,1.219-4.717-1.287c-0.25-0.604,0.377-1.559,0.591-2.124
	c0.128-0.343-0.18-0.827-0.438-0.991c-0.191-0.117-0.44-0.225-0.668-0.217c-3.15,0.093-6.658-1.854-5.269-5.308
	c0.498-1.232,3.582-2.023,3.068-3.626c-0.191-0.596-0.905-1.173-1.296-1.638c-1.154-1.369-1.627-2.954-0.864-4.639
	c1.688-3.723,8.67,1.006,8.592-3.541c-0.021-1.391-0.071-2.731,0.422-4.048c0.878-2.339,3.813-1.027,5.478-0.355
	c1.266,0.512,1.938-0.617,2.544-1.554c1.348-2.082,2.521-3.295,5.168-1.136c0.45,0.368,0.952,0.844,1.508,1.035
	c1.484,0.51,2.365-1.061,3.251-2.003c1.753-1.862,3.037,1.269,4.701,1.385c2.777,0.194,6.1-4.213,8.033-0.06
	c0.32,0.691,0.512,2.201,1.383,2.501c0.466,0.16,0.641,0.072,1.072-0.066c0.207-0.065,0.811-0.543,0.965-0.657
	c1.401-1.147,3.017-0.817,4.84,0.987c0.002,0.538-0.039,1.071-0.123,1.602c-0.17,1.324,0.135,2.24,1.451,2.695
	c0.549,0.188,1.053,0.329,1.638,0.328c1.692-0.004,7.866,1.043,5.313,3.818c-0.815,0.885-2.927,1.753-2.111,3.187
	c0.246,0.438,0.955,0.721,1.371,0.94c1.057,0.562,1.636,0.902,1.477,2.168c-0.225,1.812-1.439,2.629-3.453,2.263
	c-1.389-0.251-2.568-0.932-3.581,0.392c-0.524,0.69,0.195,1.504,0.56,2.032c1.527,2.194-1.993,3.978-3.607,3.105
	c-0.736-0.399-1.409-0.477-1.835,0.342c-0.688,1.321-0.601,3.96-3.489,1.469c-0.109-0.092-0.354-0.338-0.559-0.327
	c-0.445,0.022-0.592,0.55-0.922,0.772c-3.184,2.145-0.985-3.914-0.828-4.587c0.643-2.762,0.589-5.513,0.546-8.305
	c-0.021-1.379-1.214-1.417-1.729-2.645c-0.383-0.91,0.504-2.655,0.184-3.794c-0.249-0.886-1.426-1.227-2.202-1.351
	c-0.103-0.017,0.129-1.373-0.713-1.669c-0.521-0.182-0.867-0.368-1.435-0.274c-0.895,0.148-1.531-0.597-2.322-1.065
	c-0.098-0.057-1.258-0.783-1.482-0.393c-0.523,0.906-3.176,3.323-4.004,1.173c0.54,1.401-2.463,0.64-2.904-0.416
	c-0.106-0.254-0.135-0.264-0.328-0.411c-0.556-0.415-1.486,0.674-1.788,0.955c-0.393,0.363-1.392-0.41-2.151-0.129
	c-0.939,0.348-1.435,1.89-1.753,2.701c-0.63,1.602-1.869,1.549-3.302,2.284c-0.483,0.248-0.343,0.855-0.275,1.266
	c0.249,1.522,0.828,2.261-0.696,3.391c-1.914,1.419-1.299,3.449-0.727,5.506C27.247,35.677,27.529,35.733,27.506,35.654z"/>
<path fill="#FFFFFF" toFill="#F9D9B0" d="M27.46,33.17c0,0-1.372-1.726-3.043-0.744c-1.672,0.987-3.788,6.116,1.716,7.176
	c0.989,0.19,3.115-0.979,3.115-0.979"/>
<path fill="#815C2D" d="M27.605,33.158c-2.209-2.653-4.859,0.063-5.155,2.593c-0.197,1.688,0.939,3.077,2.494,3.597
	c1.654,0.554,2.921,0.126,4.434-0.691c0.094-0.05-0.188-0.105-0.257-0.066c-1.415,0.764-2.738,1.175-4.311,0.541
	c-1.246-0.503-1.998-1.59-2.074-2.91c-0.129-2.178,2.323-5.748,4.58-3.039C27.374,33.252,27.653,33.213,27.605,33.158L27.605,33.158
	z"/>
<path fill="#F9D9B0" d="M23.73,36.198c0,0-0.986-2.414,1.428-2.659c2.412-0.236,2.462,3.348,2.462,3.348"/>
<path fill="#815C2D" d="M23.875,36.195c-0.146-0.367-0.206-0.769-0.194-1.163c0.041-1.221,1.496-1.779,2.501-1.231
	c0.979,0.531,1.269,2.057,1.287,3.071c0.002,0.092,0.301,0.109,0.299,0.029c-0.025-1.375-0.54-3.146-2.088-3.411
	c-0.762-0.13-1.867,0.142-2.171,0.941c-0.214,0.563-0.148,1.214,0.072,1.769C23.615,36.278,23.909,36.278,23.875,36.195
	L23.875,36.195z"/>
<path fill="#F9D9B0" d="M26.386,36.758c0,0-1.914-1.237,0.562-2.036"/>
<path fill="#815C2D" d="M26.497,36.727c-0.204-0.133-0.453-0.379-0.585-0.627c-0.392-0.729,0.618-1.148,1.136-1.325
	c0.15-0.051-0.129-0.133-0.202-0.109c-0.563,0.193-1.491,0.545-1.275,1.31c0.093,0.336,0.424,0.625,0.708,0.811
	C26.342,36.831,26.629,36.815,26.497,36.727L26.497,36.727z"/>
<path fill="#FFFFFF" toFill="#F9D9B0" d="M54.537,32.785c0,0-0.238-2.473,3.101-2.408c3.34,0.069,4.255,4.65,1.159,6.192
	c-3.096,1.539-4.451,0.669-4.451,0.669"/>
<path fill="#815C2D" d="M54.684,32.811c-0.044-0.595,0.2-1.165,0.587-1.604c1.518-1.726,4.42-0.604,5.116,1.32
	c0.487,1.355-0.108,2.804-1.181,3.667c-0.989,0.797-3.508,1.762-4.75,1.02c-0.065-0.038-0.358-0.032-0.226,0.047
	c0.942,0.563,2.41,0.263,3.347-0.078c2.187-0.794,3.908-2.395,3.008-4.886c-0.938-2.6-6.451-2.828-6.196,0.462
	C54.397,32.857,54.691,32.88,54.684,32.811L54.684,32.811z"/>
<path fill="#F9D9B0" d="M55.525,35.074c0.023-0.789,0.176-1.743,0.641-2.399c0.771-1.089,3.354-1.493,3.344,0.455"/>
<path fill="#815C2D" d="M55.671,35.094c0.055-1.084,0.244-2.299,1.236-2.915c1-0.62,2.398-0.42,2.453,0.931
	c0.004,0.094,0.299,0.115,0.297,0.04c-0.045-1.128-0.936-1.541-1.959-1.421c-1.732,0.201-2.248,1.792-2.326,3.326
	C55.371,35.144,55.667,35.174,55.671,35.094L55.671,35.094z"/>
<path fill="#F9D9B0" d="M58.123,33.782c0,0-0.369-1.917-1.605-1.487"/>
<path fill="#815C2D" d="M58.273,33.793c-0.186-0.926-0.804-1.863-1.859-1.548c-0.148,0.044,0.133,0.123,0.203,0.103
	c0.809-0.239,1.231,0.792,1.356,1.422C57.994,33.865,58.285,33.86,58.273,33.793L58.273,33.793z"/>
<path fill="#FFFFFF" foFill="#F6BC24" d="M40.58,48.898c0,0-1.85-2.971-3.456-3.285c-1.606-0.312-2.782-0.008-3.155,1.293
	c-0.375,1.297-0.942,6.678,1.963,6.498c2.907-0.183,4.707-1.723,5.021-2.465C41.26,50.195,40.58,48.898,40.58,48.898z"/>
<path fill="#815C2D" d="M40.724,48.867c-1.25-1.975-2.797-3.697-5.303-3.368c-2.114,0.278-1.981,3.381-1.881,4.924
	c0.057,0.868,0.281,2.167,1.084,2.694c0.873,0.568,1.91,0.314,2.868,0.109c1.209-0.265,2.403-0.888,3.258-1.783
	C41.46,50.703,41.132,49.689,40.724,48.867c-0.037-0.071-0.328-0.025-0.286,0.062c1.03,2.065-0.327,3.161-2.197,3.929
	c-1.344,0.551-3.146,0.86-3.942-0.562c-0.412-0.733-0.46-1.687-0.487-2.505c-0.064-1.953,0.077-4.411,2.774-4.192
	c1.71,0.138,3.007,1.994,3.853,3.33C40.483,49,40.771,48.945,40.724,48.867z"/>
<path fill="#FFFFFF" foFill="#F6BC24" d="M44.851,48.41c0,0,2.363-5.313,4.098-5.311c1.729,0.006,2.896,3.532,2.711,5.697
	c-0.191,2.165-0.873,2.537-2.357,2.963c-1.488,0.432-3.84-0.193-3.84-0.193l-0.309-0.25L44.851,48.41z"/>
<path fill="#815C2D" d="M44.996,48.453c0.602-1.338,1.318-2.643,2.186-3.828c0.766-1.053,1.922-2.124,3.146-0.534
	c0.748,0.967,1.025,2.328,1.174,3.508c0.143,1.147,0.016,2.634-0.873,3.466c-1.086,1.021-3.108,0.818-4.409,0.603
	c-1.443-0.238-1.097-2.013-1.224-3.229c-0.008-0.082-0.295-0.146-0.285-0.053c0.103,0.969,0.201,1.938,0.304,2.906
	c0.047,0.453,1.466,0.547,1.625,0.572c2.88,0.478,5.414-0.496,5.178-3.807c-0.089-1.238-0.95-5.715-3.187-5.002
	c-1.934,0.617-3.159,3.614-3.922,5.311C44.675,48.439,44.957,48.539,44.996,48.453z"/>
<path fill="#FFFFFF" foFill="#F6BC24" d="M39.342,49.697c-0.695-0.037-2.297,0.506-1.242,1.172c0.641,0.406,1.8-0.006,2.29-0.488"/>
<path fill="#815C2D" d="M39.309,49.634c-0.479-0.009-2.22,0.325-1.543,1.092c0.686,0.776,2.146,0.256,2.768-0.314
	c0.055-0.049-0.217-0.127-0.282-0.064c-0.284,0.26-0.616,0.422-0.98,0.537c-0.42,0.135-1.311,0.148-1.37-0.449
	c-0.055-0.517,1.154-0.681,1.475-0.677C39.579,49.762,39.438,49.636,39.309,49.634L39.309,49.634z"/>
<path fill="#FFFFFF" foFill="#F6BC24" d="M45.466,50.021c0,0,3.027,0.688,3.154-0.115c0.125-0.809-0.865-0.685-0.865-0.685"/>
<path fill="#815C2D" d="M45.365,50.076c0.918,0.205,1.961,0.414,2.893,0.211c0.347-0.075,0.703-0.383,0.474-0.778
	c-0.194-0.337-0.627-0.385-0.979-0.347c-0.18,0.019-0.161,0.137,0.014,0.119c0.365-0.041,0.682,0.113,0.721,0.5
	c0.057,0.551-0.841,0.457-1.175,0.438c-0.586-0.03-1.175-0.128-1.745-0.257C45.492,49.949,45.215,50.042,45.365,50.076
	L45.365,50.076z"/>
<path fill="#FFFFFF" toFill="#D71A1D" d="M45.785,35.04c-0.002,1.947-1.705,3.52-3.797,3.515c-2.095-0.006-3.786-1.586-3.782-3.529
	c0.004-1.947,1.704-3.519,3.798-3.517C44.094,31.515,45.789,33.095,45.785,35.04z"/>
<path fill="#815C2D" d="M45.633,35.046c-0.136,2.264-2.063,3.729-4.387,3.37c-1.692-0.26-2.803-1.783-2.894-3.396
	c-0.126-2.29,2.352-3.687,4.388-3.373C44.433,31.907,45.542,33.43,45.633,35.046c0.006,0.086,0.304,0.072,0.3-0.012
	c-0.26-4.699-7.599-4.691-7.879-0.003c-0.28,4.682,7.602,4.676,7.879,0.003C45.937,34.955,45.639,34.955,45.633,35.046z"/>
<path fill="#FFFFFF" d="M32.328,37.574c0,0,1.498-1.758,2.618-0.906c1.118,0.858,3.088,4.013,7.677,3.595
	c4.59-0.419,5.453-3.35,5.349-4.366c-0.106-1.018,1.34-2.505,3.046-1.596c1.704,0.913,1.527,8.491-7.547,9.644
	C34.394,45.101,30.829,38.903,32.328,37.574z"/>
<path fill="#815C2D" d="M32.463,37.627c1.904-2.096,3.606,0.417,5.121,1.477c1.278,0.892,2.787,1.206,4.315,1.266
	c1.936,0.078,3.958-0.601,5.292-2.012c0.908-0.962,1.345-6.377,3.974-3.833c0.988,0.958,0.515,2.985,0.133,4.09
	c-0.797,2.316-2.913,3.778-5.102,4.615c-3.725,1.428-8.535,1.078-11.791-1.261C33.422,41.261,31.247,38.97,32.463,37.627
	c0.059-0.067-0.214-0.171-0.273-0.107c-0.971,1.072,0.254,2.731,0.982,3.566c1.458,1.668,3.682,2.472,5.792,2.881
	c5.092,0.985,12.453-1.065,13.025-7.089c0.135-1.448-0.301-2.403-1.629-2.872c-2.048-0.722-2.336,1.651-2.683,2.905
	c-0.458,1.665-2.106,2.55-3.622,3.024c-3.478,1.088-6.24-0.57-8.546-2.871c-1.115-1.111-2.312-0.651-3.321,0.458
	C32.131,37.586,32.405,37.691,32.463,37.627z"/>
<path fill="#815C2D" d="M36.928,32.163c0,0.606-0.374,1.095-0.83,1.093c-0.455,0-0.826-0.491-0.826-1.095
	c0.002-0.605,0.373-1.088,0.832-1.088C36.561,31.072,36.932,31.562,36.928,32.163z"/>
<ellipse fill="#815C2D" cx="46.406" cy="31.866" rx="0.826" ry="1.095"/>
<path fill="#FFFFFF" toFill="#ED8C21" d="M33.899,27.277c0,0,0.056-1.816,1.335-1.919c1.282-0.102,2.189-0.049,2.189-0.049
	s-1.06-2.938-2.876-2.194C32.734,23.858,33.899,27.277,33.899,27.277z"/>
<path fill="#815C2D" d="M34.048,27.274c0.021-0.479,0.159-0.955,0.416-1.358c0.5-0.789,2.069-0.592,2.919-0.547
	c0.041,0.002,0.212,0.002,0.183-0.077c-0.422-1.147-1.513-2.784-2.959-2.276c-1.696,0.597-1.307,2.923-0.857,4.263
	C33.782,27.374,34.069,27.336,34.048,27.274c-0.363-1.081-0.628-2.515-0.047-3.558c0.724-1.3,2.107-0.373,2.695,0.479
	c0.237,0.346,0.437,0.737,0.581,1.132c0.063-0.025,0.121-0.052,0.186-0.078c-0.449-0.023-0.897-0.016-1.345-0.003
	c-0.459,0.014-1.079-0.04-1.491,0.22c-0.602,0.382-0.85,1.124-0.878,1.812C33.745,27.361,34.046,27.362,34.048,27.274z"/>
<path fill="#FFFFFF" toFill="#ED8C21" d="M45.59,24.312c0,0,0.909-0.587,1.977,0.006c1.064,0.589,1.603,1.444,1.603,1.444
	s1.283-2.347-0.422-3.043C46.451,21.86,45.59,24.312,45.59,24.312z"/>
<path fill="#815C2D" d="M45.703,24.338c1.188-0.723,2.682,0.465,3.326,1.46c0.045,0.069,0.252,0.019,0.286-0.043
	c0.677-1.262,0.718-3.014-1.046-3.249c-1.277-0.17-2.393,0.612-2.822,1.811c-0.031,0.084,0.26,0.07,0.291-0.011
	c0.443-1.235,1.573-1.986,2.887-1.54c1.277,0.436,0.877,2.113,0.398,3c0.098-0.015,0.191-0.028,0.286-0.043
	c-0.769-1.188-2.446-2.28-3.829-1.438C45.345,24.368,45.637,24.378,45.703,24.338z"/>
<path fill="#815C2D" d="M33.941,38.782c0.985,2.558,5.465,3.233,7.69,3.255c3.739,0.033,7.967-2.029,8.514-6.1
	c0.013-0.091-0.282-0.152-0.292-0.076c-0.339,2.523-2.288,4.42-4.538,5.377c-2.709,1.149-6.228,0.848-8.807-0.461
	c-0.726-0.371-1.961-1.127-2.281-1.956C34.198,38.74,33.914,38.708,33.941,38.782L33.941,38.782z"/>
<path fill="#FFFFFF" foFill="#F6BC24" d="M40.214,48.031c-0.004,0.369-0.687,1.854-0.008,2.781c0.677,0.928,0.802,1.855,2.656,1.613
	c1.856-0.244,2.539-0.795,2.604-2.096c0.064-1.297,0.006-2.229-0.676-2.784c-0.68-0.56-0.801-0.806-2.411-0.81
	C40.771,46.736,40.214,47.783,40.214,48.031z"/>
<path fill="#815C2D" d="M40.063,48.027c-0.126,0.994-0.55,1.846-0.004,2.795c0.369,0.643,0.765,1.31,1.477,1.592
	c1.125,0.445,3.602-0.047,3.96-1.383c0.457-1.697,0.056-3.778-1.849-4.256C42.617,46.517,40.269,46.582,40.063,48.027
	c-0.012,0.078,0.285,0.102,0.301,0.012c0.218-1.531,2.913-1.512,3.858-0.827c1.184,0.854,1.258,2.248,1.031,3.599
	c-0.114,0.684-0.645,1.067-1.252,1.305c-1.198,0.467-2.558,0.393-3.271-0.725c-0.364-0.57-0.661-1.007-0.674-1.723
	c-0.01-0.561,0.236-1.081,0.307-1.628C40.374,47.957,40.077,47.935,40.063,48.027z"/>
<circle fill="#FFFFFF" cx="40.223" cy="33.704" r="0.815"/>
<path fill="#FFFFFF" d="M36.264,31.825c0,0.171-0.109,0.31-0.243,0.31c-0.13,0-0.238-0.141-0.238-0.31s0.109-0.304,0.242-0.304
	C36.159,31.522,36.264,31.656,36.264,31.825z"/>
<path fill="#FFFFFF" d="M46.457,31.556c0,0.167-0.105,0.308-0.238,0.308s-0.242-0.141-0.24-0.31c0-0.169,0.107-0.304,0.24-0.304
	C46.353,31.25,46.457,31.386,46.457,31.556z"/>
<path fill="#FFFFFF" toFill="#F6B604" d="M18.743,26.491c-0.657,0.157-1.333,0.426-1.333,0.426c-1.014,0.067-1.918-0.768-0.287-1.189
	c1.626-0.419,3.588-0.371,3.427,0.387C20.478,26.435,19.386,26.343,18.743,26.491z"/>
<path fill="#FFFFFF" toFill="#F6B604" d="M66.828,25.315c0.655,0.157,1.33,0.429,1.33,0.429c1.012,0.072,1.918-0.759,0.299-1.189
	c-1.625-0.424-3.594-0.383-3.437,0.376C65.091,25.252,66.184,25.164,66.828,25.315z"/>
<path fill="#FFFFFF" toFill="#F6B604" d="M27.595,18.132c-1.232-0.73-2.31-0.002-1.372,0.699c0.966,0.718,2.161,1.042,2.096,0.27
	C28.291,18.772,27.996,18.372,27.595,18.132z"/>
<path fill="#FFFFFF" toFill="#F6B604" d="M59.695,17.777c1.236-0.728,2.309,0.006,1.366,0.702c-0.97,0.714-2.164,1.028-2.097,0.256
	C58.992,18.412,59.289,18.012,59.695,17.777z"/>
<path fill="#FFFFFF" toFill="#F6B604" d="M35.675,14.992c-0.806-0.612-1.491-0.045-0.873,0.534c0.638,0.591,1.415,0.873,1.36,0.251
	C36.137,15.514,35.942,15.189,35.675,14.992z"/>
<path fill="#FFFFFF" toFill="#F6B604" d="M51.818,14.652c0.809-0.608,1.486-0.037,0.869,0.539c-0.639,0.589-1.417,0.866-1.359,0.244
	C51.351,15.176,51.546,14.847,51.818,14.652z"/>
<path fill="#FFFFFF" toFill="#F6B604" d="M43.291,14.879c0.467-0.637-0.107-0.945-0.563-0.43c-0.469,0.53-0.646,1.078-0.092,0.907
	C42.87,15.285,43.137,15.09,43.291,14.879z"/>
</svg>
