<svg version="1.1" id="Capa_1" xmlns="http://www.w3.org/2000/svg" xmlns:xlink="http://www.w3.org/1999/xlink" x="0px" y="0px" width="1440px" height="900px" viewBox="0 0 1440 900" enable-background="new 0 0 1440 900" xml:space="preserve">

<rect x="-3.489" y="0" fill="#00AEEF" stroke="#000000" stroke-width="2.0076" stroke-miterlimit="10" width="723.449" height="898.375"/>
<g id="click0">
	<path fill="#FFF200" stroke="#FFC60B" stroke-width="4.1183" stroke-miterlimit="10" d="M401.005,228.333
		c0,0-8.667,10-37.333-62.667c0,0-1.209-1.065-2.843,0.339c-1.632-1.405-2.841-0.339-2.841-0.339
		c-28.667,72.667-37.333,62.667-37.333,62.667c-46-57.333-47.333-42.667-47.333-42.667l23.333,120.667h5.685h116.982h5.685
		l23.333-120.667C448.339,185.667,447.005,171,401.005,228.333z"/>
	<circle fill="#FFF200" stroke="#FFC60B" stroke-width="4.1183" stroke-miterlimit="10" cx="360.829" cy="166.006" r="12.667"/>
	<circle fill="#FFF200" stroke="#FFC60B" stroke-width="3.186" stroke-miterlimit="10" cx="275.004" cy="185" r="9.799"/>
	<circle fill="#FFF200" stroke="#FFC60B" stroke-width="3.186" stroke-miterlimit="10" cx="446.104" cy="185" r="9.799"/>
</g>
<path id="click4" fill="#00A651" stroke="#000000" stroke-width="0.25" stroke-miterlimit="10" d="M550.104,604.62
	c8.72-13.077-90.265-7.149-145.036-2.934c-14.607-2.472-22.705-5.146-20.256-8.362c4.605-6.049,86.913-31.785-77.822-29.263
	c-164.735,2.521-39.837,22.701-92.596,18.918c-52.758-3.783-141.047,36.574-93.672,46.663c47.375,10.09,20.457,25.225,20.457,25.225
	s-24.765,8.828-10.768,34.053s18.615-1.011,92.903,44.391s90.438-7.563,90.438-7.563c103.356,71.885,184.105,3.784,184.105,3.784
	c184.105,11.352,135.655-79.453,135.655-79.453C727.309,635.75,538.104,622.619,550.104,604.62z"/>
<path fill="#A5C93D" stroke="#000000" stroke-width="0.7573" stroke-miterlimit="10" d="M328.871,637.973
	c0,0-165.678-40.76-157.132-8.546c0,0-7.889,9.864,8.548,9.206c0,0-7.231,5.917,17.093,5.917
	C221.707,644.55,324.27,645.203,328.871,637.973z"/>
<path fill="#A5C93D" stroke="#000000" stroke-width="0.7573" stroke-miterlimit="10" d="M221.707,629.098
	c0,0-32.873-1.97-42.078,10.521"/>
<path fill="#A5C93D" stroke="#000000" stroke-width="0.7573" stroke-miterlimit="10" d="M209.873,621.209
	c0,0-32.216-4.604-38.789,9.859"/>
<path fill="#A5C93D" stroke="#000000" stroke-width="0.7573" stroke-miterlimit="10" d="M388.949,637.973
	c0,0,165.679-40.76,157.132-8.546c0,0,7.89,9.864-8.548,9.206c0,0,7.231,5.917-17.093,5.917
	C496.113,644.55,393.551,645.203,388.949,637.973z"/>
<path fill="#A5C93D" stroke="#000000" stroke-width="0.7573" stroke-miterlimit="10" d="M496.113,629.098
	c0,0,32.873-1.97,42.079,10.521"/>
<path fill="#A5C93D" stroke="#000000" stroke-width="0.7573" stroke-miterlimit="10" d="M507.947,621.209
	c0,0,32.216-4.604,38.788,9.859"/>
<path fill="#A5C93D" stroke="#000000" stroke-width="0.9579" stroke-miterlimit="10" d="M532.756,524.467
	c-11.166-25.46-63.472-27.128-116.826-3.729c-22.12,9.702-40.942,22.188-54.61,35.3c-13.668-13.109-32.49-25.599-54.609-35.3
	c-53.354-23.398-105.661-21.73-116.826,3.729c-11.166,25.459,23.034,65.067,76.39,88.469c36.425,15.975,72.355,20.264,95.045,13.277
	c22.69,6.984,58.622,2.695,95.046-13.277C509.721,589.534,543.922,549.926,532.756,524.467z"/>
<path fill="none" stroke="#231F20" stroke-width="0.8033" stroke-miterlimit="10" d="M224.593,559.878
	c0,0,98.009,5.624,134.963,53.824"/>
<path fill="none" stroke="#231F20" stroke-width="0.8033" stroke-miterlimit="10" d="M493.793,559.878
	c0,0-98.009,5.624-134.963,53.824"/>
<ellipse fill="#D6D235" stroke="#000000" stroke-width="0.25" stroke-miterlimit="10" cx="515.605" cy="536.374" rx="4.5" ry="6.749"/>
<ellipse fill="#D6D235" stroke="#000000" stroke-width="0.25" stroke-miterlimit="10" cx="240.337" cy="510.701" rx="5.333" ry="3"/>
<ellipse fill="#D6D235" stroke="#000000" stroke-width="0.25" stroke-miterlimit="10" cx="444.338" cy="599.701" rx="6.667" ry="5.333"/>
<ellipse fill="#D6D235" stroke="#000000" stroke-width="0.25" stroke-miterlimit="10" cx="207.337" cy="559.368" rx="5" ry="3"/>
<path fill="#D6D235" stroke="#000000" stroke-width="0.25" stroke-miterlimit="10" d="M489.671,504.368c0,0-2.667,7.333,10,8
	s8.667-5.333,8.667-5.333S495.671,502.368,489.671,504.368z"/>
<path fill="#D6D235" stroke="#000000" stroke-width="0.25" stroke-miterlimit="10" d="M532.756,524.467c0,0-7.751,1.901-7.085-4.099
	C526.336,514.368,531.841,522.564,532.756,524.467z"/>
<path fill="#D6D235" stroke="#000000" stroke-width="0.25" stroke-miterlimit="10" d="M207.003,508.368
	c0,0,3.761,16.861-17.12,16.099C189.883,524.467,193.003,514.368,207.003,508.368z"/>
<path fill="#D6D235" stroke="#000000" stroke-width="0.25" stroke-miterlimit="10" d="M239.004,571.035c0,0-4,2.666,4,7.333
	s4.667-2,4.667-2l2-6L239.004,571.035z"/>
<ellipse fill="#A5C93D" stroke="#000000" stroke-width="0.7573" stroke-miterlimit="10" cx="360.898" cy="535.862" rx="124.089" ry="108.184"/>
<ellipse transform="matrix(-0.7497 0.6618 -0.6618 -0.7497 951.2603 713.3379)" fill="#D6D235" stroke="#000000" stroke-width="0.2658" stroke-miterlimit="10" cx="340.731" cy="536.561" rx="6.78" ry="8.999"/>
<ellipse fill="#D6D235" stroke="#000000" stroke-width="0.25" stroke-miterlimit="10" cx="455.608" cy="514.625" rx="4.5" ry="9"/>
<ellipse fill="#D6D235" stroke="#000000" stroke-width="0.25" stroke-miterlimit="10" cx="416.671" cy="521.368" rx="7.667" ry="5.667"/>
<ellipse transform="matrix(-0.9458 -0.3247 0.3247 -0.9458 343.2922 1218.6553)" fill="#D6D235" stroke="#000000" stroke-width="0.25" stroke-miterlimit="10" cx="273.329" cy="580.684" rx="4" ry="7.666"/>
<path fill="#D6D235" stroke="#000000" stroke-width="0.25" stroke-miterlimit="10" d="M484.337,527.701c0,0-16,13.334-2.667,31.334
	C481.671,559.035,486.337,536.367,484.337,527.701z"/>
<path fill="#D6D235" stroke="#000000" stroke-width="0.25" stroke-miterlimit="10" d="M436.337,560.369c0,0,19.333,9.334,4,24
	l-4.667-2L436.337,560.369z"/>
<path fill="#D6D235" stroke="#000000" stroke-width="0.25" stroke-miterlimit="10" d="M325.004,497.035c0,0,8.667,15.999,20,2
	c11.333-14-9.333-12-9.333-12S323.004,489.035,325.004,497.035z"/>
<path fill="#D6D235" stroke="#000000" stroke-width="0.25" stroke-miterlimit="10" d="M481.671,512.368c0,0-10-3.333-4.667-12.666
	C477.004,499.702,481.671,507.701,481.671,512.368z"/>
<path fill="#A5C93D" stroke="#000000" stroke-width="0.8238" stroke-miterlimit="10" d="M424.293,479.079
	c0,0,19.238,124.403,24.368,137.229c5.13,12.827,11.542,44.893,67.976,43.606v8.978l-34.628,1.283l29.497,7.695l-3.848,11.542
	l-30.78,15.392c0,0-12.827-23.084-41.042-25.65c-28.217-2.564-28.217-2.564-28.217-2.564l3.849-8.978
	c0,0,19.236-8.979,20.521-25.651c1.283-16.673-15.391-141.078-24.368-146.209"/>
<path fill="#A5C93D" stroke="#000000" stroke-width="0.8238" stroke-miterlimit="10" d="M456.355,667.611
	c0,0,17.314,16.673,31.423,19.878"/>
<path fill="#A5C93D" stroke="#000000" stroke-width="0.8238" stroke-miterlimit="10" d="M465.334,660.556
	c0,0,11.545,9.621,23.727,10.263"/>
<circle fill="#D6D235" stroke="#000000" stroke-width="0.8238" stroke-miterlimit="10" cx="527.538" cy="664.403" r="12.184"/>
<circle fill="#D6D235" stroke="#000000" stroke-width="0.8238" stroke-miterlimit="10" cx="515.991" cy="687.5" r="13.962"/>
<circle fill="#D6D235" stroke="#000000" stroke-width="0.8238" stroke-miterlimit="10" cx="489.041" cy="699.053" r="13.37"/>
<circle fill="#D6D235" stroke="#000000" stroke-width="0.8238" stroke-miterlimit="10" cx="404.343" cy="674.026" r="12.184"/>
<path fill="#A5C93D" stroke="#000000" stroke-width="0.8238" stroke-miterlimit="10" d="M462.768,643.885
	c0,0-1.924,10.898-11.542,12.822"/>
<path fill="#A5C93D" stroke="#000000" stroke-width="0.8238" stroke-miterlimit="10" d="M293.793,479.079
	c0,0-19.238,124.403-24.368,137.229c-5.13,12.827-11.542,44.893-67.976,43.606v8.978l34.628,1.283l-29.497,7.695l3.849,11.542
	l30.78,15.392c0,0,12.825-23.084,41.041-25.65c28.217-2.564,28.217-2.564,28.217-2.564l-3.849-8.978c0,0-19.237-8.979-20.52-25.651
	c-1.284-16.673,15.391-141.078,24.368-146.209"/>
<path fill="#A5C93D" stroke="#000000" stroke-width="0.8238" stroke-miterlimit="10" d="M261.729,667.611
	c0,0-17.313,16.673-31.422,19.878"/>
<path fill="#A5C93D" stroke="#000000" stroke-width="0.8238" stroke-miterlimit="10" d="M252.751,660.556
	c0,0-11.545,9.621-23.727,10.263"/>
<circle fill="#D6D235" stroke="#000000" stroke-width="0.8238" stroke-miterlimit="10" cx="190.547" cy="664.403" r="12.184"/>
<circle fill="#D6D235" stroke="#000000" stroke-width="0.8238" stroke-miterlimit="10" cx="202.094" cy="687.5" r="13.962"/>
<circle fill="#D6D235" stroke="#000000" stroke-width="0.8238" stroke-miterlimit="10" cx="229.045" cy="699.053" r="13.37"/>
<circle fill="#D6D235" stroke="#000000" stroke-width="0.8238" stroke-miterlimit="10" cx="313.743" cy="674.026" r="12.184"/>
<path fill="#A5C93D" stroke="#000000" stroke-width="0.8238" stroke-miterlimit="10" d="M255.317,643.885
	c0,0,1.923,10.898,11.542,12.822"/>
<path id="click2" fill="#D6D235" stroke="#000000" stroke-width="0.25" stroke-miterlimit="10" d="M426.562,627.594
	c0.184-2.026,0.291-4.078,0.291-6.153c0-37.138-30.104-67.242-67.24-67.242s-67.241,30.104-67.241,67.242
	c0,1.495,0.066,2.978,0.163,4.448C309.58,634.92,367.407,660.396,426.562,627.594z"/>
<path fill="#D6D235" stroke="#000000" stroke-width="0.25" stroke-miterlimit="10" d="M485.505,597.534c0,0,2-11,11.5-9.5
	C497.005,588.034,494.005,593.534,485.505,597.534z"/>
<path fill="#D6D235" stroke="#000000" stroke-width="0.25" stroke-miterlimit="10" d="M250.004,488.034
	c0,0,12.333,20.333-11.333,28.333C238.671,516.367,244.338,493.701,250.004,488.034z"/>
<path fill="#D6D235" stroke="#000000" stroke-width="0.25" stroke-miterlimit="10" d="M236.671,533.701c0,0,7.333,5.332,1,11.666
	L236.671,533.701z"/>
<ellipse transform="matrix(-0.6132 -0.7899 0.7899 -0.6132 23.7401 1057.106)" fill="#D6D235" stroke="#000000" stroke-width="0.2752" stroke-miterlimit="10" cx="270.689" cy="522.74" rx="6.464" ry="7.834"/>
<path fill="#D6D235" stroke="#000000" stroke-width="0.25" stroke-miterlimit="10" d="M383.122,494.198
	c0,0,8.751,10.277,16.988,7.181c8.237-3.101,4.532-6.994,4.532-6.994S388.39,490.558,383.122,494.198z"/>
<path fill="#D6D235" stroke="#000000" stroke-width="0.25" stroke-miterlimit="10" d="M188.004,535.035c0,0,8,7.334,3.333,14
	C191.337,549.035,188.004,544.369,188.004,535.035z"/>
<path fill="#A5C93D" stroke="#000000" stroke-width="0.8682" stroke-miterlimit="10" d="M446.742,314.834
	c2.45-4.933,3.833-10.486,3.833-16.365c0-20.351-16.498-36.849-36.849-36.849c-18.46,0-33.749,13.574-36.43,31.287
	c-5.728-0.535-11.562-0.813-17.483-0.813c-6.172,0-12.25,0.304-18.21,0.884c-2.652-17.746-17.955-31.356-36.44-31.356
	c-20.351,0-36.849,16.498-36.849,36.849c0,6.016,1.45,11.688,4.006,16.704c-31.519,19.025-51.674,48.104-51.674,80.698
	c0,57.312,62.307,103.776,139.167,103.776S498.98,453.186,498.98,395.872C498.979,363.083,478.584,333.853,446.742,314.834z"/>
<g>
	<circle fill="#FFFFFF" stroke="#000000" stroke-width="0.7403" stroke-miterlimit="10" cx="305.099" cy="298.469" r="31.421"/>
	<circle fill="#FFFFFF" stroke="#000000" stroke-width="0.7403" stroke-miterlimit="10" cx="413.791" cy="298.469" r="31.421"/>
	<circle stroke="#000000" stroke-width="0.4334" stroke-miterlimit="10" cx="413.241" cy="310.926" r="18.393"/>
	<circle fill="#FFFFFF" cx="412.11" cy="305.064" r="4.685"/>
	<circle fill="#FFFFFF" cx="405.117" cy="299.742" r="2.732"/>
	<circle stroke="#000000" stroke-width="0.4334" stroke-miterlimit="10" cx="305.521" cy="310.926" r="18.392"/>
	<circle fill="#FFFFFF" cx="304.39" cy="305.064" r="4.685"/>
	<circle fill="#FFFFFF" cx="297.398" cy="299.742" r="2.732"/>
</g>
<path fill="#D6D235" stroke="#000000" stroke-width="0.25" stroke-miterlimit="10" d="M347.005,293.035c0,0-12.667,7.333,8,14
	s22-11.333,8-14.667C363.005,292.369,351.671,289.702,347.005,293.035z"/>
<ellipse transform="matrix(-0.9055 0.4244 -0.4244 -0.9055 791.174 457.2265)" fill="#D6D235" stroke="#000000" stroke-width="0.25" stroke-miterlimit="10" cx="344.67" cy="316.719" rx="7.001" ry="5"/>
<ellipse fill="#D6D235" stroke="#000000" stroke-width="0.25" stroke-miterlimit="10" cx="441.358" cy="442.629" rx="9.75" ry="6"/>
<ellipse fill="#D6D235" stroke="#000000" stroke-width="0.25" stroke-miterlimit="10" cx="478.107" cy="392.382" rx="9" ry="6.75"/>
<ellipse fill="#D6D235" stroke="#000000" stroke-width="0.25" stroke-miterlimit="10" cx="271.117" cy="450.129" rx="7.5" ry="6"/>
<ellipse fill="#D6D235" stroke="#000000" stroke-width="0.25" stroke-miterlimit="10" cx="268.867" cy="411.881" rx="3.75" ry="8.25"/>
<ellipse fill="#D6D235" stroke="#000000" stroke-width="0.25" stroke-miterlimit="10" cx="430.338" cy="352.369" rx="7.333" ry="4"/>
<path fill="#D6D235" stroke="#000000" stroke-width="0.25" stroke-miterlimit="10" d="M305.671,404.369
	c0,0,16.667-11.333,17.333,7.333C323.004,411.703,307.671,411.703,305.671,404.369z"/>
<path fill="#D6D235" stroke="#000000" stroke-width="0.25" stroke-miterlimit="10" d="M258.336,323.703c0,0,10,21.333-19.333,20.667
	C239.003,344.369,248.336,332.37,258.336,323.703z"/>
<path fill="#D6D235" stroke="#000000" stroke-width="0.25" stroke-miterlimit="10" d="M496.337,413.703
	c0,0-13.333-4.667-23.333,14.666c-10,19.334,0,27.334,0,27.334S495.67,430.369,496.337,413.703z"/>
<path fill="#D6D235" stroke="#000000" stroke-width="0.25" stroke-miterlimit="10" d="M431.004,484.368c0,0,3.333-19.999,18-8.666
	C449.004,475.702,439.004,483.702,431.004,484.368z"/>
<path fill="#D6D235" stroke="#000000" stroke-width="0.25" stroke-miterlimit="10" d="M228.336,431.035c0,0,8-1.333,6-18.666
	c-2-17.334-13.333-10-13.333-4.667S228.336,431.035,228.336,431.035z"/>
<ellipse fill="#D6D235" stroke="#000000" stroke-width="0.25" stroke-miterlimit="10" cx="331.004" cy="363.036" rx="12.667" ry="7.333"/>
<ellipse fill="#D6D235" stroke="#000000" stroke-width="0.25" stroke-miterlimit="10" cx="357.337" cy="375.703" rx="6.333" ry="4"/>
<path id="click1" d="M357.26,418.534c-46.5-1.838-87.91-38.041-87.91-38.041c16.562,20.938,19.772,20.87,41.743,68.104
	c14.354,30.862,30.11,38.274,39.312,39.707c2.401,0.563,4.902,0.872,7.477,0.872c5.907,0,11.442-1.58,16.221-4.328
	c8.667-4.652,19.335-14.772,29.325-36.25c21.971-47.234,25.182-47.165,41.743-68.104C445.17,380.493,403.76,416.696,357.26,418.534z
	"/>
<g>
	<path fill="#A967AA" stroke="#000000" stroke-width="0.25" stroke-miterlimit="10" d="M568.42,675.385
		c0,0-24.733-24.732,16.488-24.732c41.223,0,4.122,24.732,4.122,24.732H568.42z"/>
	<path fill="#A967AA" stroke="#000000" stroke-width="0.25" stroke-miterlimit="10" d="M585.424,671.777
		c0,0,42.253-10.306,35.555,9.791c-6.697,20.096-36.585,9.274-37.102,1.545C583.362,675.385,585.424,671.777,585.424,671.777z"/>
	<path fill="#A967AA" stroke="#000000" stroke-width="0.25" stroke-miterlimit="10" d="M564.298,685.176
		c0,0-31.433,4.638-24.732-13.913c6.697-18.55,44.313-21.127,32.462,5.668C560.176,703.725,564.298,685.176,564.298,685.176z"/>
	<path fill="#A967AA" stroke="#000000" stroke-width="0.25" stroke-miterlimit="10" d="M583.878,683.113
		c0,0,20.61,17.005-15.458,24.219c-36.07,7.216-18.551-24.219,4.123-26.278C595.216,678.992,583.878,683.113,583.878,683.113z"/>
	
		<ellipse fill="#FFF200" stroke="#000000" stroke-width="0.25" stroke-miterlimit="10" cx="577.694" cy="676.931" rx="13.153" ry="7.203"/>
</g>
<path fill="#E9187E" stroke="#000000" stroke-width="0.25" stroke-miterlimit="10" d="M441.838,706.777
	c0,0-14.548-14.549,9.697-14.549c24.246,0,2.425,14.549,2.425,14.549H441.838z"/>
<path fill="#E9187E" stroke="#000000" stroke-width="0.25" stroke-miterlimit="10" d="M451.84,704.655
	c0,0,24.853-6.062,20.912,5.759c-3.941,11.821-21.519,5.455-21.821,0.908C450.627,706.777,451.84,704.655,451.84,704.655z"/>
<path fill="#E9187E" stroke="#000000" stroke-width="0.25" stroke-miterlimit="10" d="M439.413,712.534
	c0,0-18.486,2.729-14.547-8.184c3.939-10.91,26.063-12.426,19.093,3.334C436.989,723.445,439.413,712.534,439.413,712.534z"/>
<path fill="#E9187E" stroke="#000000" stroke-width="0.25" stroke-miterlimit="10" d="M450.93,711.322
	c0,0,12.123,10.002-9.092,14.245c-21.216,4.242-10.91-14.245,2.425-15.457S450.93,711.322,450.93,711.322z"/>
<ellipse fill="#FFF200" stroke="#000000" stroke-width="0.25" stroke-miterlimit="10" cx="447.294" cy="707.687" rx="7.159" ry="3.921"/>
<g>
	<path fill="#A967AA" stroke="#000000" stroke-width="0.25" stroke-miterlimit="10" d="M342.857,688.521
		c0,0-13.98-13.981,9.321-13.981c23.301,0,2.33,13.981,2.33,13.981H342.857z"/>
	<path fill="#A967AA" stroke="#000000" stroke-width="0.25" stroke-miterlimit="10" d="M352.469,686.481
		c0,0,23.884-5.825,20.098,5.533c-3.786,11.359-20.68,5.243-20.972,0.873C351.304,688.521,352.469,686.481,352.469,686.481z"/>
	<path fill="#A967AA" stroke="#000000" stroke-width="0.25" stroke-miterlimit="10" d="M340.527,694.055
		c0,0-17.768,2.621-13.98-7.863c3.785-10.484,25.049-11.941,18.35,3.203S340.527,694.055,340.527,694.055z"/>
	<path fill="#A967AA" stroke="#000000" stroke-width="0.25" stroke-miterlimit="10" d="M351.595,692.889
		c0,0,11.65,9.611-8.738,13.689s-10.486-13.689,2.33-14.854C358.004,690.56,351.595,692.889,351.595,692.889z"/>
	
		<ellipse fill="#FFF200" stroke="#000000" stroke-width="0.25" stroke-miterlimit="10" cx="348.1" cy="689.395" rx="7.436" ry="4.071"/>
</g>
<rect x="713.261" y="0" fill="#00AEEF" stroke="#000000" stroke-width="2.0076" stroke-miterlimit="10" width="723.449" height="898.375"/>
<path id="Error_x5F_click4" fill="#007437" stroke="#000000" stroke-width="0.25" stroke-miterlimit="10" d="M1270.526,604.62
	c8.72-13.077-90.265-7.149-145.036-2.934c-14.607-2.472-22.705-5.146-20.256-8.362c4.605-6.049,86.913-31.785-77.822-29.263
	c-164.735,2.521-39.837,22.701-92.596,18.918c-52.758-3.783-141.047,36.574-93.672,46.663c47.375,10.09,20.457,25.225,20.457,25.225
	s-24.765,8.828-10.768,34.053s18.615-1.011,92.903,44.391s90.438-7.563,90.438-7.563c103.356,71.885,184.105,3.784,184.105,3.784
	c184.105,11.352,135.655-79.453,135.655-79.453C1447.731,635.75,1258.526,622.619,1270.526,604.62z"/>
<path fill="#A5C93D" stroke="#000000" stroke-width="0.7573" stroke-miterlimit="10" d="M1049.293,637.973
	c0,0-165.678-40.76-157.132-8.546c0,0-7.889,9.864,8.548,9.206c0,0-7.231,5.917,17.093,5.917
	C942.129,644.55,1044.692,645.203,1049.293,637.973z"/>
<path fill="#A5C93D" stroke="#000000" stroke-width="0.7573" stroke-miterlimit="10" d="M942.129,629.098
	c0,0-32.873-1.97-42.078,10.521"/>
<path fill="#A5C93D" stroke="#000000" stroke-width="0.7573" stroke-miterlimit="10" d="M930.295,621.209
	c0,0-32.216-4.604-38.789,9.859"/>
<path fill="#A5C93D" stroke="#000000" stroke-width="0.7573" stroke-miterlimit="10" d="M1109.371,637.973
	c0,0,165.679-40.76,157.132-8.546c0,0,7.89,9.864-8.548,9.206c0,0,7.231,5.917-17.093,5.917
	C1216.535,644.55,1113.972,645.203,1109.371,637.973z"/>
<path fill="#A5C93D" stroke="#000000" stroke-width="0.7573" stroke-miterlimit="10" d="M1216.535,629.098
	c0,0,32.873-1.97,42.079,10.521"/>
<path fill="#A5C93D" stroke="#000000" stroke-width="0.7573" stroke-miterlimit="10" d="M1228.369,621.209
	c0,0,32.216-4.604,38.788,9.859"/>
<path fill="#A5C93D" stroke="#000000" stroke-width="0.9579" stroke-miterlimit="10" d="M1253.177,524.467
	c-11.166-25.46-63.472-27.128-116.826-3.729c-22.12,9.702-40.942,22.188-54.61,35.3c-13.668-13.109-32.49-25.599-54.609-35.3
	c-53.354-23.398-105.661-21.73-116.826,3.729c-11.166,25.459,23.034,65.067,76.39,88.469c36.425,15.975,72.355,20.264,95.045,13.277
	c22.69,6.984,58.622,2.695,95.046-13.277C1230.143,589.534,1264.344,549.926,1253.177,524.467z"/>
<path fill="none" stroke="#231F20" stroke-width="0.8033" stroke-miterlimit="10" d="M945.014,559.878
	c0,0,98.009,5.624,134.963,53.824"/>
<path fill="none" stroke="#231F20" stroke-width="0.8033" stroke-miterlimit="10" d="M1214.215,559.878
	c0,0-98.009,5.624-134.963,53.824"/>
<ellipse fill="#D6D235" stroke="#000000" stroke-width="0.25" stroke-miterlimit="10" cx="1236.027" cy="536.374" rx="4.5" ry="6.749"/>
<ellipse fill="#D6D235" stroke="#000000" stroke-width="0.25" stroke-miterlimit="10" cx="960.759" cy="510.701" rx="5.333" ry="3"/>
<ellipse fill="#D6D235" stroke="#000000" stroke-width="0.25" stroke-miterlimit="10" cx="1164.76" cy="599.701" rx="6.667" ry="5.333"/>
<ellipse fill="#D6D235" stroke="#000000" stroke-width="0.25" stroke-miterlimit="10" cx="927.759" cy="559.368" rx="5" ry="3"/>
<path fill="#D6D235" stroke="#000000" stroke-width="0.25" stroke-miterlimit="10" d="M1210.093,504.368c0,0-2.667,7.333,10,8
	s8.667-5.333,8.667-5.333S1216.093,502.368,1210.093,504.368z"/>
<path fill="#D6D235" stroke="#000000" stroke-width="0.25" stroke-miterlimit="10" d="M1253.177,524.467
	c0,0-7.751,1.901-7.085-4.099C1246.758,514.368,1252.262,522.564,1253.177,524.467z"/>
<path fill="#D6D235" stroke="#000000" stroke-width="0.25" stroke-miterlimit="10" d="M927.425,508.368
	c0,0,3.761,16.861-17.12,16.099C910.304,524.467,913.425,514.368,927.425,508.368z"/>
<path fill="#D6D235" stroke="#000000" stroke-width="0.25" stroke-miterlimit="10" d="M959.426,571.035c0,0-4,2.666,4,7.333
	s4.667-2,4.667-2l2-6L959.426,571.035z"/>
<ellipse fill="#A5C93D" stroke="#000000" stroke-width="0.7573" stroke-miterlimit="10" cx="1081.32" cy="535.862" rx="124.089" ry="108.184"/>
<ellipse transform="matrix(-0.7497 0.6618 -0.6618 -0.7497 2211.7864 236.5831)" fill="#D6D235" stroke="#000000" stroke-width="0.2658" stroke-miterlimit="10" cx="1061.153" cy="536.561" rx="6.78" ry="8.999"/>
<ellipse fill="#D6D235" stroke="#000000" stroke-width="0.25" stroke-miterlimit="10" cx="1176.03" cy="514.625" rx="4.5" ry="9"/>
<ellipse fill="#D6D235" stroke="#000000" stroke-width="0.25" stroke-miterlimit="10" cx="1137.093" cy="521.368" rx="7.667" ry="5.667"/>
<ellipse transform="matrix(-0.9458 -0.3247 0.3247 -0.9458 1745.0986 1452.5845)" fill="#D6D235" stroke="#000000" stroke-width="0.25" stroke-miterlimit="10" cx="993.751" cy="580.684" rx="4" ry="7.666"/>
<path fill="#D6D235" stroke="#000000" stroke-width="0.25" stroke-miterlimit="10" d="M1204.759,527.701c0,0-16,13.334-2.667,31.334
	C1202.093,559.035,1206.759,536.367,1204.759,527.701z"/>
<path fill="#D6D235" stroke="#000000" stroke-width="0.25" stroke-miterlimit="10" d="M1156.759,560.369c0,0,19.333,9.334,4,24
	l-4.667-2L1156.759,560.369z"/>
<path fill="#D6D235" stroke="#000000" stroke-width="0.25" stroke-miterlimit="10" d="M1045.426,497.035c0,0,8.667,15.999,20,2
	c11.333-14-9.333-12-9.333-12S1043.426,489.035,1045.426,497.035z"/>
<path fill="#D6D235" stroke="#000000" stroke-width="0.25" stroke-miterlimit="10" d="M1202.093,512.368c0,0-10-3.333-4.667-12.666
	C1197.426,499.702,1202.093,507.701,1202.093,512.368z"/>
<path fill="#A5C93D" stroke="#000000" stroke-width="0.8238" stroke-miterlimit="10" d="M1144.715,479.079
	c0,0,19.238,124.403,24.368,137.229c5.13,12.827,11.542,44.893,67.976,43.606v8.978l-34.628,1.283l29.497,7.695l-3.848,11.542
	l-30.78,15.392c0,0-12.827-23.084-41.042-25.65c-28.217-2.564-28.217-2.564-28.217-2.564l3.849-8.978
	c0,0,19.236-8.979,20.521-25.651c1.283-16.673-15.391-141.078-24.368-146.209"/>
<path fill="#A5C93D" stroke="#000000" stroke-width="0.8238" stroke-miterlimit="10" d="M1176.777,667.611
	c0,0,17.314,16.673,31.423,19.878"/>
<path fill="#A5C93D" stroke="#000000" stroke-width="0.8238" stroke-miterlimit="10" d="M1185.756,660.556
	c0,0,11.545,9.621,23.727,10.263"/>
<circle fill="#D6D235" stroke="#000000" stroke-width="0.8238" stroke-miterlimit="10" cx="1247.96" cy="664.403" r="12.184"/>
<circle fill="#D6D235" stroke="#000000" stroke-width="0.8238" stroke-miterlimit="10" cx="1236.413" cy="687.5" r="13.962"/>
<circle fill="#D6D235" stroke="#000000" stroke-width="0.8238" stroke-miterlimit="10" cx="1209.463" cy="699.053" r="13.37"/>
<circle fill="#D6D235" stroke="#000000" stroke-width="0.8238" stroke-miterlimit="10" cx="1124.764" cy="674.026" r="12.184"/>
<path fill="#A5C93D" stroke="#000000" stroke-width="0.8238" stroke-miterlimit="10" d="M1183.19,643.885
	c0,0-1.924,10.898-11.542,12.822"/>
<path fill="#A5C93D" stroke="#000000" stroke-width="0.8238" stroke-miterlimit="10" d="M1014.215,479.079
	c0,0-19.238,124.403-24.368,137.229c-5.13,12.827-11.542,44.893-67.976,43.606v8.978l34.628,1.283l-29.497,7.695l3.849,11.542
	l30.78,15.392c0,0,12.825-23.084,41.041-25.65c28.217-2.564,28.217-2.564,28.217-2.564l-3.849-8.978c0,0-19.237-8.979-20.52-25.651
	c-1.284-16.673,15.391-141.078,24.368-146.209"/>
<path fill="#A5C93D" stroke="#000000" stroke-width="0.8238" stroke-miterlimit="10" d="M982.151,667.611
	c0,0-17.313,16.673-31.422,19.878"/>
<path fill="#A5C93D" stroke="#000000" stroke-width="0.8238" stroke-miterlimit="10" d="M973.173,660.556
	c0,0-11.545,9.621-23.727,10.263"/>
<circle fill="#D6D235" stroke="#000000" stroke-width="0.8238" stroke-miterlimit="10" cx="910.969" cy="664.403" r="12.184"/>
<circle fill="#D6D235" stroke="#000000" stroke-width="0.8238" stroke-miterlimit="10" cx="922.516" cy="687.5" r="13.962"/>
<circle fill="#D6D235" stroke="#000000" stroke-width="0.8238" stroke-miterlimit="10" cx="949.467" cy="699.053" r="13.37"/>
<circle fill="#D6D235" stroke="#000000" stroke-width="0.8238" stroke-miterlimit="10" cx="1034.165" cy="674.026" r="12.184"/>
<path fill="#A5C93D" stroke="#000000" stroke-width="0.8238" stroke-miterlimit="10" d="M975.739,643.885
	c0,0,1.923,10.898,11.542,12.822"/>
<path fill="#D6D235" stroke="#000000" stroke-width="0.25" stroke-miterlimit="10" d="M1205.927,597.534c0,0,2-11,11.5-9.5
	C1217.427,588.034,1214.427,593.534,1205.927,597.534z"/>
<path fill="#D6D235" stroke="#000000" stroke-width="0.25" stroke-miterlimit="10" d="M970.426,488.034
	c0,0,12.333,20.333-11.333,28.333C959.093,516.367,964.76,493.701,970.426,488.034z"/>
<path fill="#D6D235" stroke="#000000" stroke-width="0.25" stroke-miterlimit="10" d="M957.093,533.701c0,0,7.333,5.332,1,11.666
	L957.093,533.701z"/>
<ellipse transform="matrix(-0.6132 -0.7899 0.7899 -0.6132 1185.9155 1626.1942)" fill="#D6D235" stroke="#000000" stroke-width="0.2752" stroke-miterlimit="10" cx="991.111" cy="522.74" rx="6.464" ry="7.834"/>
<path fill="#D6D235" stroke="#000000" stroke-width="0.25" stroke-miterlimit="10" d="M1103.544,494.198
	c0,0,8.751,10.277,16.988,7.181c8.237-3.101,4.532-6.994,4.532-6.994S1108.812,490.558,1103.544,494.198z"/>
<path fill="#D6D235" stroke="#000000" stroke-width="0.25" stroke-miterlimit="10" d="M908.426,535.035c0,0,8,7.334,3.333,14
	C911.759,549.035,908.426,544.369,908.426,535.035z"/>
<path fill="#A5C93D" stroke="#000000" stroke-width="0.8682" stroke-miterlimit="10" d="M1167.164,314.834
	c2.45-4.933,3.833-10.486,3.833-16.365c0-20.351-16.498-36.849-36.849-36.849c-18.46,0-33.749,13.574-36.43,31.287
	c-5.728-0.535-11.562-0.813-17.483-0.813c-6.172,0-12.25,0.304-18.21,0.884c-2.652-17.746-17.955-31.356-36.44-31.356
	c-20.351,0-36.849,16.498-36.849,36.849c0,6.016,1.45,11.688,4.006,16.704c-31.519,19.025-51.674,48.104-51.674,80.698
	c0,57.312,62.307,103.776,139.167,103.776s139.167-46.463,139.167-103.776C1219.401,363.083,1199.006,333.853,1167.164,314.834z"/>
<g>
	<circle fill="#FFFFFF" stroke="#000000" stroke-width="0.7403" stroke-miterlimit="10" cx="1025.521" cy="298.469" r="31.421"/>
	<circle fill="#FFFFFF" stroke="#000000" stroke-width="0.7403" stroke-miterlimit="10" cx="1134.213" cy="298.469" r="31.421"/>
	<circle stroke="#000000" stroke-width="0.4334" stroke-miterlimit="10" cx="1133.663" cy="310.926" r="18.393"/>
	<circle fill="#FFFFFF" cx="1132.532" cy="305.064" r="4.685"/>
	<circle fill="#FFFFFF" cx="1125.539" cy="299.742" r="2.732"/>
	<circle stroke="#000000" stroke-width="0.4334" stroke-miterlimit="10" cx="1025.943" cy="310.926" r="18.392"/>
	<circle fill="#FFFFFF" cx="1024.812" cy="305.064" r="4.685"/>
	<circle fill="#FFFFFF" cx="1017.82" cy="299.742" r="2.732"/>
</g>
<path fill="#D6D235" stroke="#000000" stroke-width="0.25" stroke-miterlimit="10" d="M1067.427,293.035c0,0-12.667,7.333,8,14
	s22-11.333,8-14.667C1083.427,292.369,1072.093,289.702,1067.427,293.035z"/>
<ellipse transform="matrix(-0.9055 0.4244 -0.4244 -0.9055 2163.9233 151.4872)" fill="#D6D235" stroke="#000000" stroke-width="0.25" stroke-miterlimit="10" cx="1065.092" cy="316.719" rx="7.001" ry="5"/>
<ellipse fill="#D6D235" stroke="#000000" stroke-width="0.25" stroke-miterlimit="10" cx="1161.78" cy="442.629" rx="9.75" ry="6"/>
<ellipse fill="#D6D235" stroke="#000000" stroke-width="0.25" stroke-miterlimit="10" cx="1198.529" cy="392.382" rx="9" ry="6.75"/>
<ellipse fill="#D6D235" stroke="#000000" stroke-width="0.25" stroke-miterlimit="10" cx="991.539" cy="450.129" rx="7.5" ry="6"/>
<ellipse fill="#D6D235" stroke="#000000" stroke-width="0.25" stroke-miterlimit="10" cx="989.289" cy="411.881" rx="3.75" ry="8.25"/>
<ellipse fill="#D6D235" stroke="#000000" stroke-width="0.25" stroke-miterlimit="10" cx="1150.76" cy="352.369" rx="7.333" ry="4"/>
<path fill="#D6D235" stroke="#000000" stroke-width="0.25" stroke-miterlimit="10" d="M1026.093,404.369
	c0,0,16.667-11.333,17.333,7.333C1043.426,411.703,1028.093,411.703,1026.093,404.369z"/>
<path fill="#D6D235" stroke="#000000" stroke-width="0.25" stroke-miterlimit="10" d="M978.758,323.703c0,0,10,21.333-19.333,20.667
	C959.425,344.369,968.758,332.37,978.758,323.703z"/>
<path fill="#D6D235" stroke="#000000" stroke-width="0.25" stroke-miterlimit="10" d="M1216.759,413.703
	c0,0-13.333-4.667-23.333,14.666c-10,19.334,0,27.334,0,27.334S1216.092,430.369,1216.759,413.703z"/>
<path fill="#D6D235" stroke="#000000" stroke-width="0.25" stroke-miterlimit="10" d="M1151.426,484.368c0,0,3.333-19.999,18-8.666
	C1169.426,475.702,1159.426,483.702,1151.426,484.368z"/>
<path fill="#D6D235" stroke="#000000" stroke-width="0.25" stroke-miterlimit="10" d="M948.758,431.035c0,0,8-1.333,6-18.666
	c-2-17.334-13.333-10-13.333-4.667S948.758,431.035,948.758,431.035z"/>
<ellipse fill="#D6D235" stroke="#000000" stroke-width="0.25" stroke-miterlimit="10" cx="1051.426" cy="363.036" rx="12.667" ry="7.333"/>
<ellipse fill="#D6D235" stroke="#000000" stroke-width="0.25" stroke-miterlimit="10" cx="1077.759" cy="375.703" rx="6.333" ry="4"/>
<g id="Error_x5F_click3">
	<path fill="#325CAA" stroke="#000000" stroke-width="0.25" stroke-miterlimit="10" d="M1288.842,675.385
		c0,0-24.733-24.732,16.488-24.732c41.223,0,4.122,24.732,4.122,24.732H1288.842z"/>
	<path fill="#325CAA" stroke="#000000" stroke-width="0.25" stroke-miterlimit="10" d="M1305.845,671.777
		c0,0,42.253-10.306,35.555,9.791c-6.697,20.096-36.585,9.274-37.102,1.545C1303.784,675.385,1305.845,671.777,1305.845,671.777z"/>
	<path fill="#325CAA" stroke="#000000" stroke-width="0.25" stroke-miterlimit="10" d="M1284.719,685.176
		c0,0-31.433,4.638-24.732-13.913c6.697-18.55,44.313-21.127,32.462,5.668C1280.597,703.725,1284.719,685.176,1284.719,685.176z"/>
	<path fill="#325CAA" stroke="#000000" stroke-width="0.25" stroke-miterlimit="10" d="M1304.3,683.113
		c0,0,20.61,17.005-15.458,24.219c-36.07,7.216-18.551-24.219,4.123-26.278C1315.637,678.992,1304.3,683.113,1304.3,683.113z"/>
	
		<ellipse fill="#FFF200" stroke="#000000" stroke-width="0.25" stroke-miterlimit="10" cx="1298.116" cy="676.931" rx="13.153" ry="7.203"/>
</g>
<g id="click3">
	<path fill="#A967AA" stroke="#000000" stroke-width="0.25" stroke-miterlimit="10" d="M1063.279,688.521
		c0,0-13.98-13.981,9.321-13.981c23.301,0,2.33,13.981,2.33,13.981H1063.279z"/>
	<path fill="#A967AA" stroke="#000000" stroke-width="0.25" stroke-miterlimit="10" d="M1072.891,686.481
		c0,0,23.884-5.825,20.098,5.533c-3.786,11.359-20.68,5.243-20.972,0.873C1071.726,688.521,1072.891,686.481,1072.891,686.481z"/>
	<path fill="#A967AA" stroke="#000000" stroke-width="0.25" stroke-miterlimit="10" d="M1060.949,694.055
		c0,0-17.768,2.621-13.98-7.863c3.785-10.484,25.049-11.941,18.35,3.203S1060.949,694.055,1060.949,694.055z"/>
	<path fill="#A967AA" stroke="#000000" stroke-width="0.25" stroke-miterlimit="10" d="M1072.017,692.889
		c0,0,11.65,9.611-8.738,13.689s-10.486-13.689,2.33-14.854C1078.426,690.56,1072.017,692.889,1072.017,692.889z"/>
	
		<ellipse fill="#FFF200" stroke="#000000" stroke-width="0.25" stroke-miterlimit="10" cx="1068.522" cy="689.395" rx="7.436" ry="4.071"/>
</g>
<path id="Error_x5F_click2" fill="#D6D235" stroke="#000000" stroke-width="0.1679" stroke-miterlimit="10" d="M1113.066,636.418
	c0.005-0.159,0.009-0.321,0.012-0.488c0.001-0.059,0.005-0.118,0.005-0.178c0-0.027-0.002-0.055-0.002-0.082
	c0.008-1.293-0.07-2.8-0.321-4.438c-2.149-15.243-14.998-27.041-30.707-27.559c-0.054-0.003-0.109-0.003-0.163-0.005
	c-0.304-0.008-0.606-0.022-0.912-0.022c-0.042,0-0.083,0.002-0.124,0.003c-0.041-0.001-0.083-0.003-0.124-0.003
	c-0.306,0-0.608,0.015-0.912,0.022c-0.055,0.002-0.109,0.002-0.163,0.005c-15.709,0.518-28.559,12.315-30.707,27.559
	c-0.252,1.639-0.33,3.146-0.321,4.438c0,0.027-0.002,0.055-0.002,0.082c0,0.06,0.004,0.119,0.005,0.178
	c0.002,0.167,0.006,0.329,0.012,0.488c0.018,0.764,0.055,1.522,0.122,2.272c0.019,0.01,0.036,0.019,0.055,0.028
	c0.11,0.901,0.228,1.419,0.228,1.419c3.016,1.463,6.884,2.512,10.411,3.244c7.475,2.467,14.728,3.246,21.397,3.035
	c6.669,0.211,13.923-0.568,21.396-3.035c3.527-0.732,7.396-1.781,10.411-3.244c0,0,0.118-0.518,0.229-1.419
	c0.018-0.01,0.036-0.019,0.054-0.028C1113.011,637.941,1113.049,637.182,1113.066,636.418z"/>
<path id="Error_x5F_click1" d="M1084.795,430.118c-26.312-1.04-49.745-21.526-49.745-21.526c9.372,11.849,11.188,11.81,23.62,38.538
	c8.123,17.467,17.039,21.66,22.246,22.472c1.358,0.318,2.773,0.493,4.23,0.493c3.343,0,6.475-0.895,9.179-2.449
	c4.904-2.633,10.94-8.359,16.594-20.515c12.433-26.729,14.249-26.689,23.621-38.538
	C1134.54,408.592,1111.107,429.078,1084.795,430.118z"/>
<path fill="#E9187E" stroke="#000000" stroke-width="0.25" stroke-miterlimit="10" d="M441.838,706.777
	c0,0-14.548-14.549,9.697-14.549c24.246,0,2.425,14.549,2.425,14.549H441.838z"/>
<path fill="#E9187E" stroke="#000000" stroke-width="0.25" stroke-miterlimit="10" d="M451.84,704.655
	c0,0,24.853-6.062,20.912,5.759c-3.941,11.821-21.519,5.455-21.821,0.908C450.627,706.777,451.84,704.655,451.84,704.655z"/>
<path fill="#E9187E" stroke="#000000" stroke-width="0.25" stroke-miterlimit="10" d="M439.413,712.534
	c0,0-18.486,2.729-14.547-8.184c3.939-10.91,26.063-12.426,19.093,3.334C436.989,723.445,439.413,712.534,439.413,712.534z"/>
<path fill="#E9187E" stroke="#000000" stroke-width="0.25" stroke-miterlimit="10" d="M450.93,711.322
	c0,0,12.123,10.002-9.092,14.245c-21.216,4.242-10.91-14.245,2.425-15.457S450.93,711.322,450.93,711.322z"/>
<ellipse fill="#FFF200" stroke="#000000" stroke-width="0.25" stroke-miterlimit="10" cx="447.294" cy="707.687" rx="7.159" ry="3.921"/>
<path fill="#E9187E" stroke="#000000" stroke-width="0.25" stroke-miterlimit="10" d="M1162.26,706.777
	c0,0-14.548-14.549,9.697-14.549c24.246,0,2.425,14.549,2.425,14.549H1162.26z"/>
<path fill="#E9187E" stroke="#000000" stroke-width="0.25" stroke-miterlimit="10" d="M1172.261,704.655
	c0,0,24.853-6.062,20.912,5.759c-3.941,11.821-21.519,5.455-21.821,0.908C1171.049,706.777,1172.261,704.655,1172.261,704.655z"/>
<path fill="#E9187E" stroke="#000000" stroke-width="0.25" stroke-miterlimit="10" d="M1159.835,712.534
	c0,0-18.486,2.729-14.547-8.184c3.939-10.91,26.063-12.426,19.093,3.334C1157.411,723.445,1159.835,712.534,1159.835,712.534z"/>
<path fill="#E9187E" stroke="#000000" stroke-width="0.25" stroke-miterlimit="10" d="M1171.352,711.322
	c0,0,12.123,10.002-9.092,14.245c-21.216,4.242-10.91-14.245,2.425-15.457S1171.352,711.322,1171.352,711.322z"/>
<ellipse fill="#FFF200" stroke="#000000" stroke-width="0.25" stroke-miterlimit="10" cx="1167.716" cy="707.687" rx="7.159" ry="3.921"/>
</svg>
