<svg version="1.1" class="btnErr" xmlns="http://www.w3.org/2000/svg" xmlns:xlink="http://www.w3.org/1999/xlink" x="0px" y="0px" width="119.881px" height="93.61px" viewBox="0 0 119.881 93.61" enable-background="new 0 0 119.881 93.61" xml:space="preserve">
	<path opacity="0.5" fill="#B7BABE" enable-background="new    " d="M18.228,33.035c0,0,72.821-80.229,95.039,11.107
	c0,0,14.195,33.949-72.205,48.76c0,0-17.898,2.313-30.856-15.737C-2.756,59.113,14.679,37.509,18.228,33.035z"/>
<path fill="#B7BABE" stroke="#A1A2A5" stroke-width="0.8842" stroke-miterlimit="10" d="M19.804,33.443
	c0,0,69.556-76.631,90.775,10.61c0,0,13.559,32.426-68.966,46.572c0,0-17.094,2.21-29.473-15.029
	C-0.239,58.353,16.414,37.716,19.804,33.443z"/>
<path fill="#E34633" d="M22.487,33.991c0,0,64.855-71.45,84.641,9.894c0,0,12.642,30.233-64.304,43.423
	c0,0-15.937,2.062-27.482-14.015C3.801,57.219,19.328,37.976,22.487,33.991z"/>
<path fill="#E35B33" d="M25.766,35.2c0,0,59.112-65.125,77.147,9.019c0,0,11.521,27.558-58.611,39.582
	c0,0-14.53,1.877-25.048-12.775C8.733,56.371,22.885,38.832,25.766,35.2z"/>

			<path fill="#FFFFFF" d="M79.896,34.005c1.303-1.179,2.28-2.236,3.108-3.795c2.489-4.693-3.113-8.365-6.944-5.358
				c-12.365,9.71-19.053,24.606-30.932,34.802c2.315,1.788,4.63,3.573,6.945,5.358c0.409-0.354,0.823-0.699,1.241-1.039
				c4.407-3.626-1.886-9.845-6.251-6.251c-1.05,0.865-1.817,1.731-2.625,2.827c-3.163,4.284,3.376,8.418,6.944,5.358
				c11.879-10.196,18.568-25.097,30.929-34.803c-2.313-1.787-4.628-3.572-6.944-5.358c-0.415,0.807-0.989,1.476-1.726,2.006
				C69.408,31.588,75.681,37.824,79.896,34.005L79.896,34.005z"/>
			<path fill="#FFFFFF" d="M42.713,32.555c4.017,4.8,8.486,8.759,13.223,12.832c7.547,6.492,14.764,13.305,21.09,21.004
				c1.788-2.313,3.573-4.627,5.358-6.943c-0.644-0.482-1.289-0.966-1.934-1.451c-4.566-3.423-8.967,4.257-4.462,7.636
				c0.645,0.485,1.288,0.968,1.933,1.451c4.314,3.234,8.295-3.368,5.36-6.942C77.28,52.835,70.48,46.357,63.367,40.151
				c-5.102-4.447-10.045-8.646-14.4-13.85C45.301,21.926,39.08,28.215,42.713,32.555L42.713,32.555z"/>
</svg>
