<svg version="1.1" id="colorChoice" xmlns="http://www.w3.org/2000/svg" xmlns:xlink="http://www.w3.org/1999/xlink" x="0px" y="0px" width="40px" height="130px" viewBox="0 0 40 130" enable-background="new 0 0 40 130" xml:space="preserve">

<path fill="none" stroke="#FFFFFF" stroke-width="10" stroke-miterlimit="10" d="M36.896,45.292V28.921h-2.375 C33.111,14.678,27.283,4,20.305,4S7.499,14.678,6.09,28.921h-2.4v75.976h0.289v4.781c0,8.543,6.571,15.469,14.676,15.469h3.668 c8.104,0,14.677-6.926,14.677-15.469V46.357C36.998,45.992,36.92,45.651,36.896,45.292z"/>

<path id="colorable" fill="#FFFFFF" stroke="#000000" stroke-width="1.4693" stroke-miterlimit="10" d="M36.897,45.677V29.306h-2.376
	c-1.41-14.243-7.238-24.921-14.217-24.921c-6.978,0-12.805,10.678-14.214,24.921H3.69v75.976h0.289v4.78
	c0,8.543,6.571,15.47,14.676,15.47h3.667c8.104,0,14.677-6.927,14.677-15.47v-63.32C36.998,46.377,36.92,46.036,36.897,45.677z"/>
<path d="M36.1,28.324c0,0.947-0.741,1.715-1.653,1.715H5.979c-0.913,0-1.653-0.768-1.653-1.715l0,0c0-0.948,0.74-1.715,1.653-1.715
	h28.468C35.358,26.608,36.1,27.376,36.1,28.324L36.1,28.324z"/>
<line fill="none" stroke="#000000" stroke-width="2.8794" stroke-miterlimit="10" x1="3.59" y1="37.077" x2="37.445" y2="37.077"/>
<line fill="none" stroke="#000000" stroke-width="5.7848" stroke-miterlimit="10" x1="3.408" y1="43.689" x2="37.569" y2="43.689"/>
<path d="M31.677,74.912c0,13.23-4.788,23.956-10.697,23.956c-5.911,0-10.699-10.726-10.699-23.956
	c0-13.229,4.788-23.955,10.699-23.955C26.889,50.957,31.677,61.683,31.677,74.912z"/>
<line fill="none" stroke="#000000" stroke-width="2.9027" stroke-miterlimit="10" x1="3.04" y1="104.708" x2="37.445" y2="104.708"/>
<line fill="none" stroke="#000000" stroke-width="5.6907" stroke-miterlimit="10" x1="3.958" y1="111.319" x2="37.018" y2="111.319"/>

	<path fill="#FFFFFF" d="M20.824,87.341l0.066,0.525c0.5-0.037,1.252-0.085,2.253-0.141c0.488,1.414,0.732,2.566,0.732,3.455
		c0,1.283-0.45,2.238-1.352,2.864c-0.695,0.476-1.44,0.713-2.236,0.713c-0.926,0-1.714-0.343-2.366-1.027
		c-0.651-0.686-0.977-1.492-0.977-2.418c0-0.426,0.101-0.893,0.301-1.399l1.437,0.563c-0.131,0.313-0.197,0.589-0.197,0.826
		c0,0.501,0.173,0.948,0.518,1.343c0.345,0.395,0.765,0.592,1.261,0.592c0.119,0,0.234-0.013,0.348-0.038
		c1.168-0.256,1.751-0.954,1.751-2.094c0-0.481-0.1-1.073-0.301-1.774l-0.977,0.065l0.348,2.573l-1.52,0.206l-0.617-4.63
		L20.824,87.341z"/>
	<path fill="#FFFFFF" d="M23.416,80.532l0.244,1.521c-0.676,0.119-1.371,0.285-2.085,0.498l0.368,2.177l1.772,0.309l-0.121,1.533
		c-1.046-0.175-2.094-0.351-3.146-0.525c-1.239-0.213-2.282-0.414-3.126-0.602l-0.592-2.948c1.102-0.363,2.207-0.726,3.314-1.089
		C21.354,80.98,22.478,80.689,23.416,80.532z M20.093,83.021c-0.176,0.057-0.703,0.232-1.581,0.526l0.122,0.605l1.711,0.308
		L20.093,83.021z"/>
	<path fill="#FFFFFF" d="M23.379,71.838l0.647,1.39c-1.221,0.57-2.31,0.999-3.268,1.287c0.72,0.219,1.543,0.548,2.47,0.985
		c-0.051,0.27-0.129,0.673-0.235,1.212c-0.977,0.45-1.868,0.801-2.676,1.052c1.052,0.312,2.192,0.541,3.418,0.685l-0.188,1.521
		c-2.131-0.275-4.206-0.82-6.225-1.634l0.104-1.38c1.356-0.332,2.386-0.626,3.088-0.883c-1.164-0.351-2.359-0.602-3.586-0.751
		l-0.028-1.475C19.222,73.435,21.382,72.765,23.379,71.838z"/>
	<path fill="#FFFFFF" d="M23.379,63.199l0.647,1.39c-1.221,0.57-2.31,0.999-3.268,1.287c0.72,0.219,1.543,0.548,2.47,0.985
		c-0.051,0.27-0.129,0.673-0.235,1.212c-0.977,0.45-1.868,0.801-2.676,1.052c1.052,0.312,2.192,0.541,3.418,0.685l-0.188,1.521
		c-2.131-0.275-4.206-0.82-6.225-1.634l0.104-1.38c1.356-0.332,2.386-0.626,3.088-0.883c-1.164-0.351-2.359-0.602-3.586-0.751
		l-0.028-1.475C19.222,64.796,21.382,64.126,23.379,63.199z"/>
	<path fill="#FFFFFF" d="M19.754,55.133c1.101,0,2.041,0.422,2.817,1.268c0.751,0.82,1.126,1.784,1.126,2.892
		c0,0.939-0.328,1.71-0.985,2.315c-0.657,0.604-1.462,0.906-2.414,0.906c-1.045,0-1.968-0.422-2.77-1.268
		c-0.789-0.826-1.183-1.765-1.183-2.816c0-0.939,0.332-1.723,0.995-2.352C18.004,55.448,18.809,55.133,19.754,55.133z
		 M19.758,56.673c-0.527,0-0.971,0.163-1.332,0.488c-0.361,0.325-0.542,0.748-0.542,1.268c0,0.626,0.248,1.202,0.744,1.728
		c0.502,0.544,1.063,0.817,1.684,0.817c0.559,0,1.001-0.147,1.328-0.441c0.345-0.307,0.518-0.732,0.518-1.277
		c0-0.67-0.234-1.268-0.701-1.793C20.989,56.936,20.423,56.673,19.758,56.673z"/>

</svg>
