<svg version="1.1" id="" xmlns="http://www.w3.org/2000/svg" xmlns:xlink="http://www.w3.org/1999/xlink" x="0px" y="0px" viewBox="0 0 720 900" xml:space="preserve">
	<g id="diff_0" markh="130" num="0" class="clickable" found="0">
		<path fill="#FFF200" stroke="#FFC60B" stroke-width="4.1183" stroke-miterlimit="10" d="M401.006,228.333 c0,0-8.667,10-37.333-62.667c0,0-1.209-1.065-2.844,0.339c-1.632-1.405-2.841-0.339-2.841-0.339 c-28.667,72.667-37.333,62.667-37.333,62.667c-46-57.333-47.333-42.667-47.333-42.667l23.333,120.667h5.685h116.982h5.686 l23.333-120.667C448.34,185.667,447.006,171,401.006,228.333z"/>
		<circle fill="#FFF200" stroke="#FFC60B" stroke-width="4.1183" stroke-miterlimit="10" cx="360.829" cy="166.006" r="12.667"/>
		<circle fill="#FFF200" stroke="#FFC60B" stroke-width="3.186" stroke-miterlimit="10" cx="275.004" cy="185" r="9.799"/>
		<circle fill="#FFF200" stroke="#FFC60B" stroke-width="3.186" stroke-miterlimit="10" cx="446.104" cy="185" r="9.799"/>
	</g>
	
	<path id="diff_4" markh="180" num="4" class="clickable" found="0" fill="#00A651" stroke="#000000" stroke-width="0.25" stroke-miterlimit="10" d="M550.104,604.619 c8.72-13.076-90.265-7.148-145.036-2.934c-14.606-2.472-22.705-5.146-20.256-8.362c4.605-6.049,86.913-31.785-77.822-29.263 c-164.735,2.521-39.837,22.701-92.596,18.918c-52.758-3.783-141.047,36.574-93.672,46.663c47.375,10.09,20.457,25.225,20.457,25.225
	s-24.766,8.828-10.769,34.054c13.997,25.225,18.615-1.012,92.903,44.391s90.438-7.563,90.438-7.563 c103.355,71.886,184.104,3.784,184.104,3.784c184.105,11.353,135.655-79.453,135.655-79.453 C727.309,635.75,538.104,622.618,550.104,604.619z"/>
	<path fill="#A5C93D" stroke="#000000" stroke-width="0.7573" stroke-miterlimit="10" d="M328.871,637.973
	c0,0-165.678-40.76-157.132-8.546c0,0-7.889,9.864,8.548,9.206c0,0-7.23,5.917,17.093,5.917
	C221.707,644.55,324.27,645.202,328.871,637.973z"/>
	<path fill="#A5C93D" stroke="#000000" stroke-width="0.7573" stroke-miterlimit="10" d="M221.707,629.098
	c0,0-32.873-1.97-42.078,10.521"/>
	<path fill="#A5C93D" stroke="#000000" stroke-width="0.7573" stroke-miterlimit="10" d="M209.873,621.209
	c0,0-32.216-4.604-38.789,9.858"/>
	<path fill="#A5C93D" stroke="#000000" stroke-width="0.7573" stroke-miterlimit="10" d="M388.949,637.973
	c0,0,165.68-40.76,157.132-8.546c0,0,7.891,9.864-8.548,9.206c0,0,7.231,5.917-17.093,5.917
	C496.113,644.55,393.552,645.202,388.949,637.973z"/>
	<path fill="#A5C93D" stroke="#000000" stroke-width="0.7573" stroke-miterlimit="10" d="M496.113,629.098
	c0,0,32.873-1.97,42.079,10.521"/>
	<path fill="#A5C93D" stroke="#000000" stroke-width="0.7573" stroke-miterlimit="10" d="M507.947,621.209
	c0,0,32.216-4.604,38.788,9.858"/>
	<path fill="#A5C93D" stroke="#000000" stroke-width="0.9579" stroke-miterlimit="10" d="M532.757,524.467
	c-11.166-25.46-63.473-27.128-116.826-3.729c-22.12,9.702-40.942,22.188-54.61,35.3c-13.668-13.108-32.49-25.599-54.608-35.3
	c-53.354-23.397-105.662-21.729-116.826,3.729c-11.166,25.459,23.033,65.066,76.39,88.469
	c36.425,15.975,72.355,20.264,95.045,13.277c22.69,6.983,58.622,2.694,95.046-13.277
	C509.721,589.533,543.923,549.926,532.757,524.467z"/>
	<path fill="none" stroke="#231F20" stroke-width="0.8033" stroke-miterlimit="10" d="M224.593,559.878
	c0,0,98.01,5.624,134.964,53.823"/>
	<path fill="none" stroke="#231F20" stroke-width="0.8033" stroke-miterlimit="10" d="M493.794,559.878
	c0,0-98.01,5.624-134.964,53.823"/>
	<ellipse fill="#D6D235" stroke="#000000" stroke-width="0.25" stroke-miterlimit="10" cx="515.605" cy="536.374" rx="4.5" ry="6.749"/>
	<ellipse fill="#D6D235" stroke="#000000" stroke-width="0.25" stroke-miterlimit="10" cx="240.337" cy="510.7" rx="5.333" ry="3"/>
	<ellipse fill="#D6D235" stroke="#000000" stroke-width="0.25" stroke-miterlimit="10" cx="444.339" cy="599.7" rx="6.667" ry="5.333"/>
	<ellipse fill="#D6D235" stroke="#000000" stroke-width="0.25" stroke-miterlimit="10" cx="207.337" cy="559.367" rx="5" ry="3"/>
	<path fill="#D6D235" stroke="#000000" stroke-width="0.25" stroke-miterlimit="10" d="M489.672,504.367c0,0-2.667,7.333,10,8
	s8.667-5.333,8.667-5.333S495.672,502.367,489.672,504.367z"/>
	<path fill="#D6D235" stroke="#000000" stroke-width="0.25" stroke-miterlimit="10" d="M532.757,524.467c0,0-7.751,1.9-7.085-4.1
	C526.337,514.367,531.842,522.564,532.757,524.467z"/>
	<path fill="#D6D235" stroke="#000000" stroke-width="0.25" stroke-miterlimit="10" d="M207.003,508.367c0,0,3.762,16.861-17.12,16.1
	C189.883,524.467,193.003,514.367,207.003,508.367z"/>
	<path fill="#D6D235" stroke="#000000" stroke-width="0.25" stroke-miterlimit="10" d="M239.004,571.034c0,0-4,2.666,4,7.333
	s4.667-2,4.667-2l2-6L239.004,571.034z"/>
	<ellipse fill="#A5C93D" stroke="#000000" stroke-width="0.7573" stroke-miterlimit="10" cx="360.898" cy="535.862" rx="124.089" ry="108.184"/>
	<ellipse transform="matrix(0.6618 0.7497 -0.7497 0.6618 517.4977 -73.958)" fill="#D6D235" stroke="#000000" stroke-width="0.2658" stroke-miterlimit="10" cx="340.718" cy="536.574" rx="8.999" ry="6.78"/>
	<ellipse fill="#D6D235" stroke="#000000" stroke-width="0.25" stroke-miterlimit="10" cx="455.608" cy="514.625" rx="4.5" ry="9"/>
	<ellipse fill="#D6D235" stroke="#000000" stroke-width="0.25" stroke-miterlimit="10" cx="416.672" cy="521.367" rx="7.667" ry="5.667"/>
	<ellipse transform="matrix(-0.3247 0.9458 -0.9458 -0.3247 911.3066 510.7415)" fill="#D6D235" stroke="#000000" stroke-width="0.25" stroke-miterlimit="10" cx="273.326" cy="580.694" rx="7.666" ry="4"/>
	<path fill="#D6D235" stroke="#000000" stroke-width="0.25" stroke-miterlimit="10" d="M484.338,527.7c0,0-16,13.334-2.667,31.334
	C481.672,559.034,486.338,536.366,484.338,527.7z"/>
	<path fill="#D6D235" stroke="#000000" stroke-width="0.25" stroke-miterlimit="10" d="M436.338,560.368c0,0,19.333,9.334,4,24
	l-4.667-2L436.338,560.368z"/>
	<path fill="#D6D235" stroke="#000000" stroke-width="0.25" stroke-miterlimit="10" d="M325.005,497.034c0,0,8.667,15.999,20,2
	c11.333-14-9.333-12-9.333-12S323.005,489.034,325.005,497.034z"/>
	<path fill="#D6D235" stroke="#000000" stroke-width="0.25" stroke-miterlimit="10" d="M481.672,512.367c0,0-10-3.333-4.667-12.666
	C477.005,499.701,481.672,507.7,481.672,512.367z"/>
	<path fill="#A5C93D" stroke="#000000" stroke-width="0.8238" stroke-miterlimit="10" d="M424.294,479.078
	c0,0,19.237,124.403,24.367,137.229c5.13,12.827,11.542,44.893,67.977,43.605v8.979l-34.628,1.283l29.497,7.694l-3.849,11.542
	l-30.779,15.393c0,0-12.827-23.084-41.042-25.65c-28.218-2.563-28.218-2.563-28.218-2.563l3.85-8.979c0,0,19.235-8.979,20.521-25.65
	c1.283-16.674-15.391-141.078-24.368-146.209"/>
	<path fill="#A5C93D" stroke="#000000" stroke-width="0.8238" stroke-miterlimit="10" d="M456.355,667.611
	c0,0,17.314,16.673,31.423,19.878"/>
	<path fill="#A5C93D" stroke="#000000" stroke-width="0.8238" stroke-miterlimit="10" d="M465.335,660.556
	c0,0,11.545,9.621,23.727,10.263"/>
	<circle fill="#D6D235" stroke="#000000" stroke-width="0.8238" stroke-miterlimit="10" cx="527.538" cy="664.403" r="12.184"/>
	<circle fill="#D6D235" stroke="#000000" stroke-width="0.8238" stroke-miterlimit="10" cx="515.991" cy="687.5" r="13.962"/>
	<circle fill="#D6D235" stroke="#000000" stroke-width="0.8238" stroke-miterlimit="10" cx="489.041" cy="699.053" r="13.37"/>
	<circle fill="#D6D235" stroke="#000000" stroke-width="0.8238" stroke-miterlimit="10" cx="404.344" cy="674.026" r="12.184"/>
	<path fill="#A5C93D" stroke="#000000" stroke-width="0.8238" stroke-miterlimit="10" d="M462.768,643.885
	c0,0-1.924,10.897-11.542,12.822"/>
	<path fill="#A5C93D" stroke="#000000" stroke-width="0.8238" stroke-miterlimit="10" d="M293.793,479.078
	c0,0-19.237,124.403-24.368,137.229c-5.13,12.827-11.542,44.893-67.976,43.605v8.979l34.628,1.283l-29.497,7.694l3.85,11.542
	l30.779,15.393c0,0,12.825-23.084,41.041-25.65c28.218-2.563,28.218-2.563,28.218-2.563l-3.85-8.979c0,0-19.237-8.979-20.52-25.65
	c-1.284-16.674,15.391-141.078,24.368-146.209"/>
	<path fill="#A5C93D" stroke="#000000" stroke-width="0.8238" stroke-miterlimit="10" d="M261.729,667.611
	c0,0-17.313,16.673-31.422,19.878"/>
	<path fill="#A5C93D" stroke="#000000" stroke-width="0.8238" stroke-miterlimit="10" d="M252.751,660.556
	c0,0-11.545,9.621-23.727,10.263"/>
	<circle fill="#D6D235" stroke="#000000" stroke-width="0.8238" stroke-miterlimit="10" cx="190.547" cy="664.403" r="12.184"/>
	<circle fill="#D6D235" stroke="#000000" stroke-width="0.8238" stroke-miterlimit="10" cx="202.094" cy="687.5" r="13.962"/>
	<circle fill="#D6D235" stroke="#000000" stroke-width="0.8238" stroke-miterlimit="10" cx="229.045" cy="699.053" r="13.37"/>
	<circle fill="#D6D235" stroke="#000000" stroke-width="0.8238" stroke-miterlimit="10" cx="313.743" cy="674.026" r="12.184"/>
	<path fill="#A5C93D" stroke="#000000" stroke-width="0.8238" stroke-miterlimit="10" d="M255.317,643.885
	c0,0,1.923,10.897,11.542,12.822"/>
	<path id="diff_2" markh="50" num="2" class="clickable" found="0" fill="#D6D235" stroke="#000000" stroke-width="0.25" stroke-miterlimit="10" d="M426.562,627.594
	c0.184-2.026,0.291-4.078,0.291-6.153c0-37.138-30.104-67.242-67.24-67.242s-67.241,30.104-67.241,67.242
	c0,1.495,0.066,2.979,0.163,4.448C309.58,634.92,367.407,660.396,426.562,627.594z"/>
	<path fill="#D6D235" stroke="#000000" stroke-width="0.25" stroke-miterlimit="10" d="M485.506,597.533c0,0,2-11,11.5-9.5
	C497.006,588.033,494.006,593.533,485.506,597.533z"/>
	<path fill="#D6D235" stroke="#000000" stroke-width="0.25" stroke-miterlimit="10" d="M250.004,488.033
	c0,0,12.333,20.333-11.333,28.333C238.671,516.366,244.338,493.7,250.004,488.033z"/>
	<path fill="#D6D235" stroke="#000000" stroke-width="0.25" stroke-miterlimit="10" d="M236.671,533.7c0,0,7.333,5.332,1,11.666
	L236.671,533.7z"/>
	<ellipse transform="matrix(-0.7899 0.6132 -0.6132 -0.7899 805.0233 769.6946)" fill="#D6D235" stroke="#000000" stroke-width="0.2752" stroke-miterlimit="10" cx="270.666" cy="522.744" rx="7.834" ry="6.465"/>
	<path fill="#D6D235" stroke="#000000" stroke-width="0.25" stroke-miterlimit="10" d="M383.122,494.198
	c0,0,8.751,10.277,16.988,7.182c8.237-3.102,4.532-6.994,4.532-6.994S388.39,490.558,383.122,494.198z"/>
	<path fill="#D6D235" stroke="#000000" stroke-width="0.25" stroke-miterlimit="10" d="M188.004,535.034c0,0,8,7.334,3.333,14
	C191.337,549.034,188.004,544.368,188.004,535.034z"/>
	<path fill="#A5C93D" stroke="#000000" stroke-width="0.8682" stroke-miterlimit="10" d="M446.742,314.834
	c2.45-4.934,3.833-10.486,3.833-16.365c0-20.351-16.498-36.849-36.849-36.849c-18.46,0-33.749,13.573-36.43,31.287
	c-5.729-0.535-11.563-0.813-17.483-0.813c-6.172,0-12.25,0.304-18.21,0.884c-2.652-17.746-17.955-31.355-36.44-31.355
	c-20.351,0-36.849,16.498-36.849,36.849c0,6.016,1.45,11.688,4.006,16.704c-31.519,19.025-51.674,48.104-51.674,80.698
	c0,57.312,62.307,103.775,139.167,103.775S498.98,453.186,498.98,395.872C498.979,363.083,478.585,333.853,446.742,314.834z"/>
	<g>
	<circle fill="#FFFFFF" stroke="#000000" stroke-width="0.7403" stroke-miterlimit="10" cx="305.099" cy="298.469" r="31.421"/>
	<circle fill="#FFFFFF" stroke="#000000" stroke-width="0.7403" stroke-miterlimit="10" cx="413.791" cy="298.469" r="31.421"/>
	<circle stroke="#000000" stroke-width="0.4334" stroke-miterlimit="10" cx="413.241" cy="310.926" r="18.393"/>
	<circle fill="#FFFFFF" cx="412.11" cy="305.064" r="4.685"/>
	<circle fill="#FFFFFF" cx="405.117" cy="299.742" r="2.732"/>
	<circle stroke="#000000" stroke-width="0.4334" stroke-miterlimit="10" cx="305.521" cy="310.926" r="18.392"/>
	<circle fill="#FFFFFF" cx="304.39" cy="305.064" r="4.685"/>
	<circle fill="#FFFFFF" cx="297.398" cy="299.742" r="2.732"/>
	</g>
	<path fill="#D6D235" stroke="#000000" stroke-width="0.25" stroke-miterlimit="10" d="M347.006,293.035c0,0-12.667,7.333,8,14
	s22-11.333,8-14.667C363.006,292.369,351.672,289.702,347.006,293.035z"/>
	<ellipse transform="matrix(0.4244 0.9055 -0.9055 0.4244 485.1569 -129.7818)" fill="#D6D235" stroke="#000000" stroke-width="0.25" stroke-miterlimit="10" cx="344.66" cy="316.715" rx="5" ry="7.001"/>
	<ellipse fill="#D6D235" stroke="#000000" stroke-width="0.25" stroke-miterlimit="10" cx="441.358" cy="442.629" rx="9.75" ry="6"/>
	<ellipse fill="#D6D235" stroke="#000000" stroke-width="0.25" stroke-miterlimit="10" cx="478.107" cy="392.382" rx="9" ry="6.75"/>
	<ellipse fill="#D6D235" stroke="#000000" stroke-width="0.25" stroke-miterlimit="10" cx="271.117" cy="450.129" rx="7.5" ry="6"/>
	<ellipse fill="#D6D235" stroke="#000000" stroke-width="0.25" stroke-miterlimit="10" cx="268.867" cy="411.881" rx="3.75" ry="8.25"/>
	<ellipse fill="#D6D235" stroke="#000000" stroke-width="0.25" stroke-miterlimit="10" cx="430.339" cy="352.369" rx="7.333" ry="4"/>
	<path fill="#D6D235" stroke="#000000" stroke-width="0.25" stroke-miterlimit="10" d="M305.671,404.368
	c0,0,16.668-11.332,17.334,7.333C323.005,411.702,307.672,411.702,305.671,404.368z"/>
	<path fill="#D6D235" stroke="#000000" stroke-width="0.25" stroke-miterlimit="10" d="M258.336,323.703c0,0,10,21.333-19.333,20.667
	C239.003,344.369,248.336,332.37,258.336,323.703z"/>
	<path fill="#D6D235" stroke="#000000" stroke-width="0.25" stroke-miterlimit="10" d="M496.338,413.702
	c0,0-13.333-4.667-23.333,14.666c-10,19.334,0,27.334,0,27.334S495.671,430.368,496.338,413.702z"/>
	<path fill="#D6D235" stroke="#000000" stroke-width="0.25" stroke-miterlimit="10" d="M431.005,484.367c0,0,3.333-19.999,18-8.666
	C449.005,475.701,439.005,483.701,431.005,484.367z"/>
	<path fill="#D6D235" stroke="#000000" stroke-width="0.25" stroke-miterlimit="10" d="M228.336,431.034c0,0,8-1.333,6-18.666
	s-13.333-10-13.333-4.667S228.336,431.034,228.336,431.034z"/>
	<ellipse fill="#D6D235" stroke="#000000" stroke-width="0.25" stroke-miterlimit="10" cx="331.005" cy="363.036" rx="12.667" ry="7.333"/>
	<ellipse fill="#D6D235" stroke="#000000" stroke-width="0.25" stroke-miterlimit="10" cx="357.338" cy="375.703" rx="6.333" ry="4"/>
	<path id="diff_1" markh="85" num="1" class="clickable" found="0" d="M357.26,418.533c-46.5-1.838-87.91-38.04-87.91-38.04c16.562,20.938,19.771,20.869,41.743,68.104
	c14.354,30.862,30.109,38.273,39.312,39.707c2.401,0.563,4.902,0.872,7.478,0.872c5.906,0,11.441-1.58,16.221-4.328
	c8.667-4.652,19.335-14.772,29.325-36.25c21.971-47.234,25.182-47.165,41.743-68.104C445.171,380.493,403.76,416.696,357.26,418.533
	z"/>
	<g>
	<path fill="#A967AA" stroke="#000000" stroke-width="0.25" stroke-miterlimit="10" d="M568.421,675.385
	c0,0-24.733-24.732,16.487-24.732c41.224,0,4.122,24.732,4.122,24.732H568.421z"/>
	<path fill="#A967AA" stroke="#000000" stroke-width="0.25" stroke-miterlimit="10" d="M585.425,671.777
	c0,0,42.253-10.306,35.555,9.791c-6.697,20.096-36.585,9.274-37.102,1.545C583.362,675.385,585.425,671.777,585.425,671.777z"/>
	<path fill="#A967AA" stroke="#000000" stroke-width="0.25" stroke-miterlimit="10" d="M564.299,685.176
	c0,0-31.434,4.638-24.732-13.913c6.697-18.55,44.313-21.127,32.462,5.668C560.177,703.725,564.299,685.176,564.299,685.176z"/>
	<path fill="#A967AA" stroke="#000000" stroke-width="0.25" stroke-miterlimit="10" d="M583.879,683.113
	c0,0,20.609,17.005-15.458,24.219c-36.07,7.217-18.552-24.219,4.122-26.277C595.217,678.991,583.879,683.113,583.879,683.113z"/>
	
	<ellipse fill="#FFF200" stroke="#000000" stroke-width="0.25" stroke-miterlimit="10" cx="577.694" cy="676.931" rx="13.153" ry="7.203"/>
	</g>
	<path fill="#E9187E" stroke="#000000" stroke-width="0.25" stroke-miterlimit="10" d="M441.839,706.777
	c0,0-14.549-14.549,9.696-14.549c24.246,0,2.426,14.549,2.426,14.549H441.839z"/>
	<path fill="#E9187E" stroke="#000000" stroke-width="0.25" stroke-miterlimit="10" d="M451.841,704.655
	c0,0,24.853-6.062,20.912,5.759c-3.941,11.821-21.52,5.455-21.821,0.908C450.628,706.777,451.841,704.655,451.841,704.655z"/>
	<path fill="#E9187E" stroke="#000000" stroke-width="0.25" stroke-miterlimit="10" d="M439.413,712.533
	c0,0-18.485,2.729-14.547-8.184c3.939-10.91,26.063-12.426,19.093,3.334C436.989,723.445,439.413,712.533,439.413,712.533z"/>
	<path fill="#E9187E" stroke="#000000" stroke-width="0.25" stroke-miterlimit="10" d="M450.93,711.322
	c0,0,12.123,10.002-9.092,14.245c-21.217,4.242-10.91-14.245,2.425-15.457S450.93,711.322,450.93,711.322z"/>
	<ellipse fill="#FFF200" stroke="#000000" stroke-width="0.25" stroke-miterlimit="10" cx="447.295" cy="707.687" rx="7.158" ry="3.921"/>
	<g>
	<path fill="#A967AA" stroke="#000000" stroke-width="0.25" stroke-miterlimit="10" d="M342.857,688.521
	c0,0-13.979-13.981,9.321-13.981s2.33,13.981,2.33,13.981H342.857z"/>
	<path fill="#A967AA" stroke="#000000" stroke-width="0.25" stroke-miterlimit="10" d="M352.469,686.481
	c0,0,23.884-5.825,20.098,5.533c-3.786,11.359-20.68,5.243-20.972,0.873C351.304,688.521,352.469,686.481,352.469,686.481z"/>
	<path fill="#A967AA" stroke="#000000" stroke-width="0.25" stroke-miterlimit="10" d="M340.527,694.055
	c0,0-17.768,2.621-13.979-7.863c3.784-10.484,25.049-11.94,18.35,3.203S340.527,694.055,340.527,694.055z"/>
	<path fill="#A967AA" stroke="#000000" stroke-width="0.25" stroke-miterlimit="10" d="M351.595,692.889
	c0,0,11.649,9.611-8.738,13.688c-20.388,4.078-10.486-13.688,2.33-14.854C358.005,690.56,351.595,692.889,351.595,692.889z"/>
	
	<ellipse fill="#FFF200" stroke="#000000" stroke-width="0.25" stroke-miterlimit="10" cx="348.1" cy="689.395" rx="7.436" ry="4.071"/>
	</g>
	<path fill="#E9187E" stroke="#000000" stroke-width="0.25" stroke-miterlimit="10" d="M441.839,706.777
	c0,0-14.549-14.549,9.696-14.549c24.246,0,2.426,14.549,2.426,14.549H441.839z"/>
	<path fill="#E9187E" stroke="#000000" stroke-width="0.25" stroke-miterlimit="10" d="M451.841,704.655
	c0,0,24.853-6.062,20.912,5.759c-3.941,11.821-21.52,5.455-21.821,0.908C450.628,706.777,451.841,704.655,451.841,704.655z"/>
	<path fill="#E9187E" stroke="#000000" stroke-width="0.25" stroke-miterlimit="10" d="M439.413,712.533
	c0,0-18.485,2.729-14.547-8.184c3.939-10.91,26.063-12.426,19.093,3.334C436.989,723.445,439.413,712.533,439.413,712.533z"/>
	<path fill="#E9187E" stroke="#000000" stroke-width="0.25" stroke-miterlimit="10" d="M450.93,711.322
	c0,0,12.123,10.002-9.092,14.245c-21.217,4.242-10.91-14.245,2.425-15.457S450.93,711.322,450.93,711.322z"/>
	<ellipse fill="#FFF200" stroke="#000000" stroke-width="0.25" stroke-miterlimit="10" cx="447.295" cy="707.687" rx="7.158" ry="3.921"/>
</svg>
