<svg version="1.1" id="scene_left_1" tdiff="5" background="#addee5" xmlns="http://www.w3.org/2000/svg" xmlns:xlink="http://www.w3.org/1999/xlink" x="0px" y="0px" viewBox="0 0 720 900" xml:space="preserve">

<path fill="#FFFFFF" stroke="#9AFFFF" stroke-width="0.8025" stroke-miterlimit="10" d="M433.041,272.686
	c0,0,14.856-223.28,99.506-175.202C617.196,145.56,433.041,272.686,433.041,272.686z"/>
<path fill="#488DB1" d="M433.977,271.185c0,0,30.866-195.352,91.419-160.96C585.947,144.614,433.977,271.185,433.977,271.185z"/>
<circle fill="#C5DAE7" cx="508.146" cy="139.271" r="18.646"/>
<path fill="#FFFFFF" stroke="#9AFFFF" stroke-width="0.8025" stroke-miterlimit="10" d="M288.627,272.686
	c0,0-14.858-223.28-99.507-175.202C104.471,145.56,288.627,272.686,288.627,272.686z"/>
<path fill="#488DB1" d="M287.69,271.185c0,0-30.866-195.352-91.417-160.96C135.72,144.614,287.69,271.185,287.69,271.185z"/>
<circle fill="#C5DAE7" cx="213.522" cy="139.271" r="18.646"/>
<path id="diff_4" class="clickable" found="0" fill="#61DEE5" d="M385.655,813.21c0,0-54.434,0-150.6,37.863c-96.166,37.861-157.857-29.258-123.382-39.584
	c34.475-10.327,230.435-56.796,270.353-48.19c39.918,8.605,250.395,10.325,248.581,36.142S550.771,844.189,385.655,813.21z"/>
<path fill="#FFFFFF" stroke="#9AFFFF" stroke-width="1.4408" stroke-miterlimit="10" d="M300.203,508.725
	c0,0-55.742,39.306-60.533,56.826c0,0-15.97,11.148,44.716,89.99l22.358-146.534L300.203,508.725z"/>
<path fill="#FFFFFF" stroke="#9AFFFF" stroke-width="1.4427" stroke-miterlimit="10" d="M423.283,508.727
	c0,0,55.742,39.41,60.533,56.979c0,0,15.97,11.179-44.718,90.23L416.741,509.01L423.283,508.727z"/>
<path fill="#FFFFFF" stroke="#9AFFFF" stroke-width="0.8" stroke-miterlimit="10" d="M327.596,789.867
	c0,0-135.476,73.767-157.684,40.979c0,0-12.498,3.07-12.498-5.381c0,0-22.487,0-10.827-23.821
	c11.66-23.819,132.42-39.959,132.42-39.959L327.596,789.867z"/>
<path fill="#FFFFFF" stroke="#9AFFFF" stroke-width="0.8519" stroke-miterlimit="10" d="M421.319,752.362l-36.634,26.409
	c0,0,60.488,21.298,94.566,34.077s72.416,9.371,73.267,0.854c0,0,20.446,0.851,15.335-10.227c0,0,12.779-5.964,6.816-18.741
	c-5.964-12.779-9.372-18.742-75.823-19.596C432.396,764.287,423.023,755.77,421.319,752.362z"/>
<path fill="#FFFFFF" stroke="#9AFFFF" stroke-width="0.8519" stroke-miterlimit="10" d="M555.927,791.552
	c0,0,11.928,5.11,11.928,11.927"/>
<path fill="#FFFFFF" stroke="#9AFFFF" stroke-width="0.8519" stroke-miterlimit="10" d="M539.739,797.514
	c0,0,12.778,5.964,12.778,16.189"/>
<path fill="#FFFFFF" stroke="#9AFFFF" stroke-width="0.8" stroke-miterlimit="10" d="M184.687,816.053c0,0-8.328,3.073-14.159,13.83
	"/>
<path fill="#FFFFFF" stroke="#9AFFFF" stroke-width="0.8" stroke-miterlimit="10" d="M165.532,811.44c0,0-9.162,6.146-8.328,13.831"
	/>
<path fill="#FFFFFF" stroke="#9AFFFF" stroke-width="0.8519" stroke-miterlimit="10" d="M416.96,741.35l-55.081-49.709
	l-55.081,49.709l-64.155-57.899c3.334,62.536,55.529,112.226,119.434,112.226c64.035,0,116.315-49.89,119.458-112.602L416.96,741.35
	z"/>
<polygon fill="#DC2B3C" points="484.353,680.156 419.018,500.758 368.533,500.758 355.225,500.758 304.74,500.758 239.405,680.156 
	306.798,749.894 361.879,692.896 416.96,749.894 "/>
<polygon fill="#FFFFFF" points="362.206,696.781 370.01,500.395 364.207,497.436 361.292,697.747 "/>
<ellipse fill="#FFFFFF" stroke="#9AFFFF" stroke-width="0.8025" stroke-miterlimit="10" cx="359.506" cy="393.481" rx="152.274" ry="140.356"/>
<path fill="none" stroke="#000000" stroke-width="3.194" stroke-miterlimit="10" d="M360.832,392.434v32.964
	c0,0-2.055,15.766-18.237,15.766c-16.184,0-15.412-17.198-15.412-17.198"/>
<path fill="none" stroke="#000000" stroke-width="3.194" stroke-miterlimit="10" d="M360.928,392.222v32.963
	c0,0,2.056,15.767,18.239,15.767c16.182,0,15.412-17.198,15.412-17.198"/>
<circle id="diff_1" class="clickable" found="0" fill="#DE3748" cx="360.845" cy="392.236" r="7.827"/>
<line fill="none" stroke="#121210" stroke-width="3.0085" stroke-miterlimit="10" x1="237.979" y1="410.487" x2="187.837" y2="410.487"/>
<line fill="none" stroke="#121210" stroke-width="3.0085" stroke-miterlimit="10" x1="245" y1="394.443" x2="202.747" y2="371.207"/>
<polygon id="diff_2" class="clickable" found="0" fill="#386BA5" points="418.636,501.698 363.48,533.542 308.326,501.698 308.326,567.443 363.48,535.601 
	418.636,567.443 "/>
<line fill="none" stroke="#121210" stroke-width="3.0085" stroke-miterlimit="10" x1="245" y1="426.574" x2="203.343" y2="450.862"/>
<circle fill="#FCE3EE" cx="275.574" cy="410.977" r="35.1"/>
<path fill="#FFFFFF" stroke="#9AFFFF" stroke-width="1.4427" stroke-miterlimit="10" d="M275.672,569.194
	c0.798,1.74,15.171,18.864,30.343,10.447c15.171-8.416,17.567-4.354,17.567-4.354c16.237,11.901,1.863,26.703,1.863,26.703
	c3.46,4.062,9.582,4.063,11.179,4.063c1.597,0,9.316-5.515,8.251,7.547c-1.065,13.063-18.101,11.605-18.101,11.605
	c3.194,15.093-23.422,17.416-23.422,17.416s-34.136,10.517-60.288-51.368"/>
<g id="diff_3" class="clickable" found="0">
	<path fill="none" stroke="#9AFFFF" stroke-width="1.1707" stroke-miterlimit="10" d="M397.499,605.367c0,0,0.525,4.747,5.765,6.899
		"/>
	<path fill="#F588CD" d="M429.126,606.994c3.373,0.21,5.653-0.315,6.194-1.667c0.519-1.291-0.632-3.139-2.998-5.208
		c2.966-1.038,4.722-2.325,4.722-3.717c0-1.459-1.926-2.802-5.151-3.862c2.543-2.247,3.787-4.238,3.214-5.578
		c-0.549-1.276-2.658-1.767-5.778-1.557c1.354-2.818,1.682-4.96,0.699-5.943c-1.05-1.049-3.425-0.6-6.536,0.997
		c0.208-3.489-0.338-5.847-1.722-6.384c-1.268-0.493-3.05,0.616-5.034,2.896c-1.026-2.846-2.285-4.523-3.646-4.523
		c-1.412,0-2.713,1.805-3.758,4.844c-2.118-2.417-4.005-3.595-5.312-3.06c-1.329,0.543-1.844,2.775-1.632,6.079
		c-2.964-1.474-5.222-1.862-6.237-0.848c-1.029,1.029-0.617,3.332,0.903,6.353c-3.374-0.211-5.654,0.313-6.196,1.664
		c-0.519,1.292,0.631,3.141,2.998,5.208c-2.965,1.036-4.722,2.322-4.722,3.716c0,1.458,1.926,2.8,5.153,3.861
		c-2.543,2.248-3.789,4.241-3.214,5.581c0.547,1.275,2.658,1.767,5.777,1.558c-1.354,2.817-1.681,4.959-0.7,5.94
		c1.05,1.048,3.426,0.602,6.536-0.998c-0.207,3.492,0.339,5.849,1.723,6.386c1.268,0.492,3.05-0.617,5.036-2.896
		c1.023,2.849,2.284,4.523,3.646,4.523c1.411,0,2.713-1.803,3.758-4.841c2.118,2.415,4.004,3.592,5.312,3.06
		c1.33-0.543,1.845-2.777,1.632-6.08c2.964,1.473,5.222,1.86,6.237,0.847C431.058,612.314,430.645,610.011,429.126,606.994z"/>
	<circle fill="#DED422" cx="412.976" cy="595.388" r="8.646"/>
	<path fill="#FFFFFF" d="M412.977,590.56c0,0-5.658-11.65,0-11.65C418.636,578.908,412.977,590.56,412.977,590.56z"/>
	<path fill="#FFFFFF" d="M412.978,600.479c0,0,5.659,11.651,0,11.651C407.32,612.131,412.978,600.479,412.978,600.479z"/>
	<path fill="#FFFFFF" d="M417.725,594.979c0,0,11.149-5.416,11.149,0S417.725,594.979,417.725,594.979z"/>
	<path fill="#FFFFFF" d="M408.231,594.979c0,0-11.149,5.418-11.149,0C397.082,589.564,408.231,594.979,408.231,594.979z"/>
	<path fill="#FFFFFF" d="M416.333,598.334c0,0,11.714,4.057,7.885,7.886C420.39,610.052,416.333,598.334,416.333,598.334z"/>
	<path fill="#FFFFFF" d="M409.47,592.013c0,0-12.239-4.236-8.238-8.237C405.234,579.771,409.47,592.013,409.47,592.013z"/>
	<path fill="#FFFFFF" d="M409.623,598.336c0,0-4.055,11.716-7.885,7.884C397.908,602.393,409.623,598.336,409.623,598.336z"/>
	<path fill="#FFFFFF" d="M416.333,591.622c0,0,4.055-11.713,7.884-7.884C428.047,587.567,416.333,591.622,416.333,591.622z"/>
	<circle fill="#B6D422" cx="412.976" cy="595.414" r="4.854"/>
</g>
<ellipse transform="matrix(0.0442 -0.999 0.999 0.0442 -27.5062 651.9891)" fill="none" stroke="#000000" stroke-width="1.597" stroke-miterlimit="10" cx="326.985" cy="340.37" rx="26.086" ry="15.759"/>
<circle cx="327.841" cy="356.503" r="9.582"/>
<circle fill="#FFFFFF" cx="320.921" cy="350.11" r="4.39"/>
<ellipse transform="matrix(0.0442 -0.999 0.999 0.0442 35.1091 717.442)" fill="none" stroke="#000000" stroke-width="1.597" stroke-miterlimit="10" cx="392.499" cy="340.373" rx="26.086" ry="15.76"/>
<circle cx="393.357" cy="356.503" r="9.582"/>
<circle fill="#FFFFFF" cx="386.438" cy="350.11" r="4.391"/>
<g id="diff_0" class="clickable" found="0">
	<path d="M432.261,259.89c-1.316-39.005-33.334-70.226-72.66-70.226c-39.325,0-71.34,31.22-72.659,70.226h-29.273v8.701h203.862
		v-8.701H432.261z"/>
	<path fill="#E6D910" d="M431.183,248.688l-17.159-0.012c-0.01-0.034-0.02-0.075-0.02-0.075l-54.328,0.038l-54.325-0.038
		c0,0-0.01,0.042-0.019,0.075l-17.16,0.012c-1.463,4.277-1.233,10.99-1.233,10.99h16.122h113.23h16.123
		C432.416,259.678,432.647,252.965,431.183,248.688z"/>
	<path fill="none" stroke="#000000" stroke-width="1.597" stroke-miterlimit="10" d="M335.825,154.736
		c0,0,24.487,9.582,15.97,55.363"/>
	<path fill="#FFFFFF" d="M352.176,163.166c4.722,0.294,7.914-0.441,8.672-2.333c0.726-1.809-0.885-4.396-4.196-7.292
		c4.151-1.454,6.61-3.254,6.61-5.203c0-2.043-2.697-3.921-7.214-5.408c3.561-3.145,5.303-5.932,4.5-7.81
		c-0.766-1.786-3.72-2.473-8.088-2.178c1.896-3.946,2.354-6.945,0.979-8.321c-1.469-1.469-4.794-0.839-9.149,1.396
		c0.291-4.886-0.473-8.186-2.41-8.938c-1.774-0.689-4.27,0.864-7.049,4.053c-1.436-3.982-3.199-6.333-5.105-6.333
		c-1.976,0-3.797,2.525-5.261,6.78c-2.965-3.383-5.606-5.031-7.436-4.283c-1.86,0.76-2.582,3.886-2.284,8.51
		c-4.15-2.062-7.312-2.607-8.734-1.185c-1.439,1.44-0.863,4.664,1.264,8.893c-4.723-0.298-7.915,0.438-8.673,2.33
		c-0.727,1.809,0.884,4.395,4.196,7.289c-4.152,1.453-6.61,3.253-6.61,5.204c0,2.042,2.696,3.92,7.213,5.409
		c-3.561,3.146-5.303,5.936-4.499,7.812c0.765,1.786,3.719,2.471,8.088,2.18c-1.895,3.945-2.354,6.942-0.979,8.318
		c1.471,1.467,4.795,0.84,9.15-1.397c-0.291,4.889,0.475,8.187,2.411,8.94c1.776,0.689,4.27-0.865,7.05-4.055
		c1.435,3.987,3.197,6.334,5.104,6.334c1.976,0,3.798-2.524,5.261-6.777c2.966,3.382,5.607,5.028,7.437,4.281
		c1.861-0.76,2.583-3.886,2.284-8.512c4.15,2.062,7.312,2.606,8.733,1.186C354.88,170.616,354.303,167.391,352.176,163.166z"/>
	<path fill="#EC3344" d="M347.647,149.048c0-9.969-8.081-18.05-18.051-18.05c-9.971,0-18.052,8.081-18.052,18.05
		c0,9.976,8.081,18.058,18.052,18.058C339.567,167.106,347.647,159.024,347.647,149.048z"/>
	<path d="M353.925,181.354l15.971-22.358c0,0,2.128,8.517-1.065,17.035C365.636,184.548,353.925,181.354,353.925,181.354z"/>
</g>
<line fill="none" stroke="#121210" stroke-width="3.0085" stroke-miterlimit="10" x1="479.661" y1="410.487" x2="529.803" y2="410.487"/>
<line fill="none" stroke="#121210" stroke-width="3.0085" stroke-miterlimit="10" x1="472.641" y1="394.443" x2="514.894" y2="371.207"/>
<line fill="none" stroke="#121210" stroke-width="3.0085" stroke-miterlimit="10" x1="472.641" y1="426.574" x2="514.297" y2="450.862"/>
<circle fill="#FCE3EE" cx="442.066" cy="410.977" r="35.1"/>

<ellipse id="circled_0" fill="none" class="none" stroke="#FF0000" stroke-width="2" stroke-miterlimit="10" cx="362.667" cy="185.054" rx="57.023" ry="36.723"/>
<ellipse id="circled_1" fill="none" class="none" stroke="#FF0000" stroke-width="2" stroke-miterlimit="10" cx="385.323" cy="428.677" rx="26.411" ry="15.066"/>
<ellipse id="circled_2" fill="none" class="none" stroke="#77A860" stroke-width="2" stroke-miterlimit="10" cx="388.421" cy="570.559" rx="57.023" ry="36.725"/>
<ellipse id="circled_3" fill="none" class="none" stroke="#77A860" stroke-width="2" stroke-miterlimit="10" cx="438.404" cy="632.779" rx="32.256" ry="28.303"/>
<ellipse id="circled_4" fill="none" class="none" stroke="#FF0000" stroke-width="2" stroke-miterlimit="10" cx="412.976" cy="852.791" rx="170.788" ry="36.725"/>

</svg>
