<svg version="1.1" id="scene_left_2" xmlns="http://www.w3.org/2000/svg" xmlns:xlink="http://www.w3.org/1999/xlink" x="0px" y="0px" width="720px" height="900px" viewBox="0 0 720 900" enable-background="new 0 0 720 900" xml:space="preserve">

<rect x="0.007" y="-1.377" fill="#7BCFDE" width="718.047" height="898.125"/>
<path fill="none" stroke="#3AB54A" stroke-width="4" stroke-miterlimit="10" d="M567.048,805.799c0,0,16.707-110.646,30.479-173.361
	"/>
<path fill="none" stroke="#3AB54A" stroke-width="4" stroke-miterlimit="10" d="M375.794,803.72c0,0,17.31-199.994-2.086-233.933"/>
<path fill="none" stroke="#3AB54A" stroke-width="4" stroke-miterlimit="10" d="M163.567,749.262c0,0-30.767-157.737-29.106-190.632
	"/>
<path id="diff_2" class="clickable" fill="#E81A4B" d="M141.906,384.608c0,0,28.847,12.095,37.221,44.669c0,0,21.404-34.432,38.159-30.712
	c16.749,3.726,43.738,160.063-82.825,160.063c-126.564,0-87.478-146.1-65.144-159.129c0,0,26.988,5.582,34.432,27.915
	C103.749,427.416,127.947,386.466,141.906,384.608z"/>
<path id="diff_4" class="clickable" fill="#E81A4B" d="M598.896,458.257c0,0-29.424,10.625-39.438,42.732c0,0-19.634-35.48-36.549-32.604
	c-16.918,2.867-51.783,157.647,74.617,164.053c126.397,6.396,94.759-141.495,73.108-155.638c0,0-27.233,4.209-35.8,26.146
	C634.836,502.946,612.745,460.822,598.896,458.257z"/>
<path fill="#E81A4B" d="M405.036,419.899c0,0,26.148,14.688,30.715,47.197c0,0,23.921-31.278,39.445-25.956
	c15.527,5.321,24.889,160.021-95.354,147.136c-120.244-12.88-67.896-150.901-45.318-161.295c0,0,25.058,8.182,29.807,30.639
	C364.331,457.62,391.582,420.291,405.036,419.899z"/>
<path fill="#39B54A" stroke="#3AB54A" stroke-miterlimit="10" d="M379.008,741.928c0,0,0-59.937,41.761-102.684
	c41.761-42.739,66.919-48.19,66.919-48.19s10.705,20.19-22.704,84.55C431.575,739.965,379.008,741.928,379.008,741.928z"/>
<path fill="#39B54A" stroke="#3AB54A" stroke-miterlimit="10" d="M557.347,820.357c0,0,9.167-53.178,58.317-83.744
	c49.155-30.576,75.663-30.975,75.663-30.975s7.838,19.783-36.097,71.006C611.29,827.86,557.347,820.357,557.347,820.357z"/>
<path id="diff_3" class="clickable" fill="#39B54A" stroke="#3AB54A" stroke-miterlimit="10" d="M375.794,803.72c0,0,10.705-41.72-15.097-80.048
	c-25.807-38.326-44.979-47.286-44.979-47.286s-12.174,11.853,3.081,63.511C334.057,791.554,375.794,803.72,375.794,803.72z"/>
<path fill="#39B54A" stroke="#3AB54A" stroke-miterlimit="10" d="M158.533,749.91c0,0-16.851-57.521,11.208-110.279
	c28.054-52.759,50.671-65.06,50.671-65.06s15.949,16.357,1.984,87.517C208.432,733.245,158.533,749.91,158.533,749.91z"/>
<path fill="#39B54A" stroke="#3AB54A" stroke-miterlimit="10" d="M163.567,749.262c0,0-6.529-59.593-52.698-97.53
	c-46.168-37.938-71.77-40.613-71.77-40.613s-8.443,21.237,31.776,81.57C111.098,753.034,163.567,749.262,163.567,749.262z"/>
<path fill="#7DC242" d="M445.2,794.796c-173.768-68.054-331.154-54.063-445.193-23.009v129.392h715.958V785.487
	C616.526,814.956,525.274,826.154,445.2,794.796z"/>
<path fill="#FFFFFF" d="M254.994,179.998c0,0,0.799,16.547,11.151,10.439c9.036-5.331,0.073-12.747-2.354-14.547
	c5.253-1.654,13.328-5.475,8.1-12.443c-5.006-6.671-11.974-1.591-15.993,2.442c3.288-11.835-9.42-25.37-20.024-15.795
	c-10.882,9.824,9.649,20.97,9.649,20.97c-7.61,0.178-20.173,12.923-6.456,18.672C252.785,195.483,254.994,179.998,254.994,179.998z"
	/>
<path id="click0_2_" fill="#FFFFFF" d="M185.24,122.315c0,0,39.254-7.548,21.137-30.195s-34.725,12.078-34.725,12.078
	C169.304,92.395,154,67,132,88s21.534,37.334,21.534,37.334c-30.196-6.039-60.392,30.196-33.215,52.842
	c27.176,22.648,46.803-30.195,46.803-30.195c3.019,18.118,37.744,43.784,46.803,9.059
	C222.985,122.315,185.24,122.315,185.24,122.315z"/>
<g id="diff_1" class="clickable">
	<path fill="#F47721" d="M510.996,276.456c0,0-0.432-0.677-1.167-1.956c-5.705-9.914-29.604-56.057-10.783-104.287
		c21.249-54.446,38.512-87.647,55.776-57.103c17.265,30.543,66.399,37.184,30.544,92.96c0,0,57.104-2.656,31.872,50.466
		c0,0,18.415,4.764,11.332,26.015c0,0,75.258-7.969,67.289,24.791c-7.97,32.757-60.206,80.567-163.795-0.887L510.996,276.456z"/>
	<path fill="#F47721" d="M514.355,276.352c0,0-67.288-55.779-102.704-60.205c-35.415-4.427-54.896,10.624-54.896,10.624
		s-5.312,5.755,8.412,17.265c13.724,11.51,1.772,46.926,23.905,61.978c22.135,15.05,53.123,11.952,53.123,11.952
		s-15.493,41.614,48.255,33.646c0,0,8.853,23.02,28.331,12.394c0,0-21.248,72.604,17.709,69.061
		c38.956-3.542,47.811-72.603,26.562-88.539C541.803,328.589,514.355,276.352,514.355,276.352z"/>
	<path fill="#FFE500" d="M522.324,279.009c0,0-30.397-93.852,19.185-151.106c0,0,11.804-15.936,25.381,9.445
		c13.576,25.38,14.166,66.698,4.724,79.092c0,0,41.316-7.082,40.138,23.612c-1.18,30.691-48.401,59.614-86.178,54.893
		L522.324,279.009z"/>
	<path fill="#FFE500" d="M506.093,285.5c0,0-73.19-75.551-122.184-51.348c0,0-33.792,61.68,77.766,77.173
		c0,0-19.037,23.463,1.771,32.315c20.807,8.855,57.55-23.46,53.563-48.694L506.093,285.5z"/>
	<path fill="#FED402" d="M526.935,260.518c0,0-7.968-111.551,22.577-115.535C580.055,141,539.514,244.69,526.935,260.518z"/>
	<path fill="#FED402" d="M488.422,285.754c0,0-71.712-58.433-92.96-39.841C374.213,264.506,432.646,288.41,488.422,285.754z"/>
	<path fill="#BA7BB2" d="M545.048,304.981c0,0,79.095,60.207,125.728,21.838c46.628-38.366-30.104-30.101-48.991-28.921
		c-18.89,1.181-77.914,4.132-88.537-4.132C522.62,285.5,545.048,304.981,545.048,304.981z"/>
	<path id="diff_0" class="clickable" fill="#BA7BB2" d="M530.294,314.867c0,0,5.753,46.482-7.084,80.569c-12.838,34.086,22.577,31.432,29.66,11.955
		C559.953,387.91,571.463,356.477,530.294,314.867z"/>
	<path fill="#FED402" d="M537.56,277.783c0,0,38.514-59.76,57.104-42.494C613.255,252.55,565.29,281.067,537.56,277.783z"/>
	<path fill="#FED402" d="M509.671,300.36c0,0-46.738,12.495-46.479,27.889C463.446,343.639,495.063,333.56,509.671,300.36z"/>
	<path fill="none" stroke="#72BF44" stroke-width="1.7708" stroke-miterlimit="10" d="M508.6,277.237c0,0-21.688-68.174,9.3-74.372
		c30.985-6.198,31.431,36.3,9.296,38.956c-22.137,2.657-14.609-26.56-0.888-19.921"/>
	
		<ellipse transform="matrix(-0.7486 0.663 -0.663 -0.7486 1242.2056 238.3273)" fill="#B2D235" stroke="#72BF44" stroke-width="0.8854" stroke-miterlimit="10" cx="575.92" cy="354.663" rx="10.695" ry="17.907"/>
	<path fill="none" stroke="#72BF44" stroke-width="1.7708" stroke-miterlimit="10" d="M502.051,285.65
		c0,0-54.17-46.734-72.044-20.671c-17.874,26.061,21.033,43.163,32.172,23.854c11.141-19.309-18.688-23.87-17.972-8.641"/>
	
		<ellipse transform="matrix(-0.7487 0.6629 -0.6629 -0.7487 1192.2046 209.0032)" fill="#B2D235" stroke="#72BF44" stroke-width="0.8854" stroke-miterlimit="10" cx="556.484" cy="330.495" rx="17.289" ry="23.071"/>
	<path fill="#B2D235" stroke="#72BF44" stroke-width="0.8854" stroke-miterlimit="10" d="M545.66,295.149
		c6.892,7.785,6.683,19.225-0.464,25.554c-7.148,6.326-18.529,5.149-25.42-2.634c-6.893-7.783-6.685-19.226,0.465-25.555
		C527.388,286.185,538.769,287.366,545.66,295.149z"/>
	
		<ellipse transform="matrix(-0.7487 0.6629 -0.6629 -0.7487 1088.1257 160.1765)" fill="#B2D235" stroke="#72BF44" stroke-width="0.8854" stroke-miterlimit="10" cx="513.703" cy="286.334" rx="17.287" ry="11.755"/>
	<path fill="#FED402" d="M674.314,310.879c0-4.89-3.965-8.852-8.854-8.852c-4.889,0-8.853,3.962-8.853,8.852
		c0,4.893,3.964,8.855,8.853,8.855C670.351,319.734,674.314,315.772,674.314,310.879z"/>
	<circle fill="#FED402" cx="644.211" cy="309.11" r="5.312"/>
	<path fill="#FED402" d="M652.476,326.225c0-1.952-1.586-3.538-3.542-3.538c-1.955,0-3.542,1.586-3.542,3.538
		c0,1.957,1.587,3.544,3.542,3.544C650.89,329.769,652.476,328.182,652.476,326.225z"/>
	<circle fill="#FED402" cx="532.333" cy="411" r="6.787"/>
	<path fill="#FED402" d="M531.461,398.737c-2.248-0.089-3.998-1.983-3.909-4.229c0.089-2.251,1.984-4,4.23-3.911
		c2.25,0.09,3.998,1.984,3.909,4.23C535.604,397.076,533.708,398.826,531.461,398.737z"/>
	<circle fill="#FED402" cx="544.592" cy="398.806" r="2.715"/>
	<circle fill="#7B3F09" cx="505.333" cy="288" r="1.167"/>
	<circle fill="#7B3F09" cx="516.34" cy="278.996" r="1.167"/>
	<path fill="none" stroke="#7B3F09" stroke-width="0.4236" stroke-miterlimit="10" d="M510.979,292.631
		c0,0,11.096,4.136,8.678-8.087"/>
	<circle fill="#72BF44" cx="444.208" cy="280.192" r="3"/>
	<circle fill="#72BF44" cx="525.75" cy="221.75" r="3"/>
</g>
<path fill="#92C83E" stroke="#5BBA47" stroke-width="1.4164" stroke-miterlimit="10" d="M669.181,870"/>
</svg>
