<svg version="1.1" id="scene_right_2" tdiff="5" xmlns="http://www.w3.org/2000/svg" xmlns:xlink="http://www.w3.org/1999/xlink" x="0px" y="0px" width="719.571px" height="900px" viewBox="720.429 0 719.571 900" enable-background="new 720.429 0 719.571 900" xml:space="preserve">
<path fill="#AFDFE1" d="M-234.901,772.51"/>
<path fill="#92C83E" stroke="#5BBA47" stroke-width="1.4164" stroke-miterlimit="10" d="M184.734,955.604"/>
<path fill="#92C83E" stroke="#5BBA47" stroke-width="1.4164" stroke-miterlimit="10" d="M909.181,955.604"/>

<rect x="720.429" y="-1.377" fill="#7BCFDE" width="718.048" height="899.625"/>
<path fill="none" stroke="#3AB54A" stroke-width="4" stroke-miterlimit="10" d="M1287.47,805.799c0,0,16.707-110.646,30.479-173.361
	"/>
<path fill="none" stroke="#3AB54A" stroke-width="4" stroke-miterlimit="10" d="M1096.217,803.72c0,0,17.311-199.994-2.087-233.933"
	/>
<path fill="none" stroke="#3AB54A" stroke-width="4" stroke-miterlimit="10" d="M883.989,749.262c0,0-30.768-157.738-29.106-190.632
	"/>
<path id="error_2" fill="#E81A4B" d="M860.518,484.136c0,0,12.438,5.215,16.048,19.258c0,0,9.229-14.845,16.451-13.239
	c7.222,1.604,18.857,69.009-35.709,69.009c-54.564,0-37.714-62.989-28.085-68.606c0,0,11.636,2.407,14.846,12.035
	C844.067,502.591,854.5,484.938,860.518,484.136z"/>
<path fill="#E81A4B" d="M1125.458,419.899c0,0,26.15,14.688,30.715,47.198c0,0,23.921-31.279,39.445-25.956
	c15.528,5.321,24.89,160.021-95.354,147.135c-120.244-12.88-67.896-150.901-45.318-161.295c0,0,25.058,8.182,29.807,30.639
	C1084.753,457.62,1112.004,420.291,1125.458,419.899z"/>
<path fill="#39B54A" stroke="#3AB54A" stroke-miterlimit="10" d="M1099.43,741.928c0,0,0-59.937,41.762-102.684
	c41.759-42.739,66.92-48.19,66.92-48.19s10.705,20.19-22.706,84.55C1151.997,739.965,1099.43,741.928,1099.43,741.928z"/>
<path fill="#39B54A" stroke="#3AB54A" stroke-miterlimit="10" d="M1277.77,820.357c0,0,9.166-53.177,58.316-83.744
	c49.155-30.576,75.663-30.974,75.663-30.974s7.838,19.783-36.097,71.006C1331.712,827.86,1277.77,820.357,1277.77,820.357z"/>
<path fill="#39B54A" stroke="#3AB54A" stroke-miterlimit="10" d="M878.955,749.91c0,0-16.852-57.52,11.208-110.279
	c28.055-52.759,50.672-65.06,50.672-65.06s15.948,16.358,1.983,87.517C928.854,733.245,878.955,749.91,878.955,749.91z"/>
<path fill="#39B54A" stroke="#3AB54A" stroke-miterlimit="10" d="M883.989,749.262c0,0-6.528-59.593-52.697-97.531
	s-71.771-40.613-71.771-40.613s-8.443,21.237,31.775,81.57C831.521,753.034,883.989,749.262,883.989,749.262z"/>
<path fill="#92C83E" stroke="#5BBA47" stroke-width="1.4164" stroke-miterlimit="10" d="M906.157,955.604"/>
<path fill="#7DC242" d="M1165.622,794.796c-173.769-68.054-331.154-54.063-445.193-23.009v129.392h715.958V785.487
	C1336.948,814.956,1245.696,826.154,1165.622,794.796z"/>
<path fill="#FFFFFF" d="M975.416,179.998c0,0,0.8,16.547,11.151,10.439c9.036-5.331,0.072-12.747-2.354-14.547
	c5.254-1.654,13.328-5.475,8.102-12.443c-5.007-6.671-11.976-1.591-15.993,2.442c3.287-11.835-9.42-25.37-20.024-15.795
	c-10.883,9.824,9.649,20.97,9.649,20.97c-7.61,0.178-20.173,12.923-6.456,18.672C973.207,195.483,975.416,179.998,975.416,179.998z"
	/>
<g id="error_1">
	<path fill="#F47721" d="M1239.339,271.668c0,0-0.205-0.322-0.555-0.93c-2.713-4.714-14.076-26.654-5.127-49.587
		c10.104-25.889,18.312-41.676,26.521-27.152c8.21,14.523,31.573,17.681,14.523,44.202c0,0,27.152-1.263,15.154,23.996
		c0,0,8.757,2.265,5.39,12.37c0,0,35.784-3.79,31.995,11.788c-3.788,15.576-28.628,38.309-77.885-0.422L1239.339,271.668z"/>
	<path fill="#F47721" d="M1240.938,271.618c0,0-31.995-26.522-48.836-28.627c-16.84-2.105-26.103,5.052-26.103,5.052
		s-2.525,2.736,4,8.209s0.842,22.313,11.366,29.47c10.524,7.157,25.26,5.683,25.26,5.683s-7.367,19.788,22.945,15.999
		c0,0,4.21,10.946,13.471,5.893c0,0-10.104,34.522,8.421,32.837c18.522-1.684,22.733-34.521,12.63-42.099
		C1253.987,296.457,1240.938,271.618,1240.938,271.618z"/>
	<path fill="#FFE500" d="M1244.726,272.882c0,0-14.454-44.626,9.122-71.851c0,0,5.612-7.577,12.068,4.491
		c6.455,12.068,6.734,31.714,2.245,37.608c0,0,19.646-3.367,19.085,11.228c-0.563,14.593-23.016,28.346-40.978,26.101
		L1244.726,272.882z"/>
	<path fill="#FFE500" d="M1237.008,275.968c0,0-34.803-35.924-58.098-24.416c0,0-16.068,29.329,36.978,36.695
		c0,0-9.053,11.157,0.843,15.366c9.894,4.21,27.363-11.155,25.47-23.154L1237.008,275.968z"/>
	<path fill="#FED402" d="M1246.918,264.09c0,0-3.789-53.042,10.735-54.937C1272.177,207.259,1252.899,256.563,1246.918,264.09z"/>
	<path fill="#FED402" d="M1228.604,276.089c0,0-34.098-27.785-44.2-18.944C1174.3,265.986,1202.084,277.352,1228.604,276.089z"/>
	<path fill="#BA7BB2" d="M1255.53,285.231c0,0,37.608,28.628,59.782,10.384c22.171-18.243-14.313-14.313-23.296-13.752
		c-8.98,0.562-37.048,1.965-42.099-1.965C1244.866,275.968,1255.53,285.231,1255.53,285.231z"/>
	<path id="click0_1_" fill="#BA7BB2" d="M1248.515,289.932c0,0,2.736,22.102-3.368,38.31c-6.104,16.208,10.735,14.946,14.104,5.684
		C1262.618,324.664,1268.091,309.718,1248.515,289.932z"/>
	<path fill="#FED402" d="M1251.97,272.299c0,0,18.313-28.416,27.152-20.206C1287.962,260.301,1265.155,273.861,1251.97,272.299z"/>
	<path fill="#FED402" d="M1238.709,283.034c0,0-22.224,5.941-22.102,13.261C1216.729,303.613,1231.763,298.821,1238.709,283.034z"/>
	<path fill="none" stroke="#72BF44" stroke-width="0.842" stroke-miterlimit="10" d="M1238.199,272.039
		c0,0-10.313-32.416,4.422-35.363c14.732-2.947,14.945,17.26,4.42,18.523c-10.525,1.264-6.946-12.629-0.421-9.472"/>
	
		<ellipse transform="matrix(-0.663 -0.7486 0.7486 -0.663 1881.1284 1464.4595)" fill="#B2D235" stroke="#72BF44" stroke-width="0.421" stroke-miterlimit="10" cx="1270.178" cy="308.834" rx="8.514" ry="5.085"/>
	<path fill="none" stroke="#72BF44" stroke-width="0.842" stroke-miterlimit="10" d="M1235.086,276.04
		c0,0-25.758-22.222-34.257-9.829c-8.499,12.392,10.002,20.524,15.298,11.342c5.296-9.181-8.886-11.35-8.546-4.109"/>
	
		<ellipse transform="matrix(-0.6629 -0.7487 0.7487 -0.6629 1874.1951 1438.6948)" fill="#B2D235" stroke="#72BF44" stroke-width="0.421" stroke-miterlimit="10" cx="1260.97" cy="297.438" rx="10.969" ry="8.22"/>
	
		<ellipse transform="matrix(-0.6629 -0.7487 0.7487 -0.6629 1863.9321 1411.3696)" fill="#B2D235" stroke="#72BF44" stroke-width="0.421" stroke-miterlimit="10" cx="1249.695" cy="286.074" rx="8.951" ry="8.22"/>
	
		<ellipse transform="matrix(-0.6629 -0.7487 0.7487 -0.6629 1856.0825 1388.4711)" fill="#B2D235" stroke="#72BF44" stroke-width="0.421" stroke-miterlimit="10" cx="1240.625" cy="276.379" rx="5.589" ry="8.22"/>
	<circle fill="#FED402" cx="1312.786" cy="288.036" r="4.21"/>
	<circle fill="#FED402" cx="1302.682" cy="287.195" r="2.526"/>
	<circle fill="#FED402" cx="1304.928" cy="295.333" r="1.685"/>
	<circle fill="#FED402" cx="1249.484" cy="335.643" r="3.227"/>
	<circle fill="#FED402" cx="1249.146" cy="327.877" r="1.937"/>
	<circle fill="#FED402" cx="1255.313" cy="329.845" r="1.291"/>
	<circle fill="#7B3F09" cx="1236.646" cy="277.157" r="0.555"/>
	<circle fill="#7B3F09" cx="1241.88" cy="272.875" r="0.555"/>
	<path fill="none" stroke="#7B3F09" stroke-width="0.2014" stroke-miterlimit="10" d="M1239.331,279.359
		c0,0,5.275,1.966,4.125-3.846"/>
	<circle fill="#72BF44" cx="1207.582" cy="273.444" r="1.426"/>
	<circle fill="#72BF44" cx="1246.354" cy="245.656" r="1.426"/>
</g>
</svg>
