<svg version="1.1" id="scene_left_3" tdiff="8" xmlns="http://www.w3.org/2000/svg" xmlns:xlink="http://www.w3.org/1999/xlink" x="0px" y="0px" width="720px" height="900px" viewBox="0 0 720 900" enable-background="new 0 0 720 900" xml:space="preserve">

<rect fill="#C8EAF5" width="719.819" height="900"/>
<path fill="#92BF4A" stroke="#7BA33E" stroke-width="1.0906" stroke-miterlimit="10" d="M0,366.171v56.168l10.043,4.565
	c11.575-21.498,90.948-57.876,90.948-57.876C67.049,356.61,31.448,357.042,0,366.171z"/>
<path fill="#92BF4A" stroke="#7BA33E" stroke-width="1.0906" stroke-miterlimit="10" d="M0,315.927v57.118
	c28.884-8.653,99.916-3.171,99.916-3.171C73.059,338.834,36.291,321.25,0,315.927z"/>
<path fill="#92BF4A" stroke="#7BA33E" stroke-width="1.0906" stroke-miterlimit="10" d="M0,267.515v66.387
	c26.059-1.649,99.354,36.993,99.354,36.993C83.316,319.978,42.861,283.295,0,267.515z"/>
<path fill="#92BF4A" stroke="#7BA33E" stroke-width="1.0906" stroke-miterlimit="10" d="M6.253,213.476
	c-2.027-0.816-4.118-1.531-6.253-2.171v66.735l6.923,4.027l14.763-2.495l-2.952,19.762c23.848,5.225,80.62,71.562,80.62,71.562
	C104.589,298.891,58.718,234.603,6.253,213.476z"/>
<path fill="#92BF4A" stroke="#7BA33E" stroke-width="1.0906" stroke-miterlimit="10" d="M69.936,182.075
	C54.379,161.483,25.259,147.584,0,139.691v32.851l5.509,0.767l0.929,15.661l28.752,52.254l13.941,5.462l-12.709,15.418
	c17.752,16.763,32.264,102.862,32.264,102.862C110.249,305.938,104.03,227.207,69.936,182.075z"/>
<g id="clicke5">
	<path fill="#FFFFFF" stroke="#006FA9" stroke-width="0.5527" stroke-miterlimit="10" d="M329.485,648.292
		c0,0,3.553-15.884,6.71-16.412c3.156-0.529,6.71,15.882,6.71,15.882S333.038,657.821,329.485,648.292z"/>
	<path fill="#FFFFFF" stroke="#006FA9" stroke-width="0.5869" stroke-miterlimit="10" d="M335.908,646.067
		c0,0-7.896,2.134-12.916,5.975c-5.022,3.84,8.071,30.296,13.453,32.856h0.53c5.383-2.562,19.017-29.018,13.993-32.856
		c-5.022-3.841-12.917-5.975-12.917-5.975S336.677,645.801,335.908,646.067z"/>
	<path fill="none" stroke="#EE2924" stroke-width="2.1845" stroke-miterlimit="10" d="M351.692,657.589
		c0,0-9.461-6.828-14.893-6.828c-4.031,0-14.719,6.828-14.719,6.828"/>
	
		<line fill="none" stroke="#006FA9" stroke-width="0.6401" stroke-miterlimit="10" x1="337.247" y1="646.067" x2="336.349" y2="684.898"/>
</g>
<path id="click4" fill="#FFFFFF" d="M155.587,505.854c0,0,1.572-25.143-29.857-33.001c-31.43-7.855-44.001,37.717-44.001,37.717
	s-55.001-14.144-55.001,40.857s91.145,22,91.145,22s55.001,14.145,80.145-10.999C223.161,537.283,188.588,483.854,155.587,505.854z"
	/>
<path fill="#FFFFFF" d="M472.258,292.022c0,0,1.635-24.521,35.964-24.521c34.33,0,29.427,31.06,29.427,31.06
	s50.676-19.617,52.311,31.06c1.635,50.677-94.814,39.233-94.814,39.233s-88.274,13.078-93.18-32.695
	c-4.904-45.772,37.6-40.868,45.772-26.155C447.737,310.004,447.737,282.214,472.258,292.022z"/>
<path id="click0" fill="#FFFFFF" d="M228.258,160.022c0,0,1.635-24.521,35.964-24.521c34.33,0,29.426,31.06,29.426,31.06
	s50.676-19.617,52.311,31.06c1.635,50.677-94.814,39.233-94.814,39.233s-88.275,13.078-93.18-32.695
	c-4.904-45.772,37.599-40.868,45.772-26.155C203.737,178.004,203.737,150.214,228.258,160.022z"/>
<path fill="#0084CB" d="M719.667,659.663c-22.667,25.333-55.333,18-55.333,18s-23.333-17.333-118-2.667s-101.334-30.666-132.667-14
	s-86.667,10.667-92,6S244.333,667.663,213,672.33s-61.333-8.667-100.667-18S0,659.996,0,659.996v71.001h406.676
	c16.932,6.273,55.923,10.666,101.325,10.666c45.403,0,84.396-4.393,101.325-10.666h110.341V659.663z"/>
<circle id="click1" fill="#FFED5F" cx="576.065" cy="140.016" r="74"/>
<path fill="#FFFAD7" stroke="#ABA994" stroke-miterlimit="10" d="M0,715c0,0,95-22,147-6s112,20,122,10s76-4,106,4s148,28,224,4
	s120-10,120-10v183H0V715z"/>
<path fill="#92BF4A" stroke="#7BA33E" stroke-width="1.0906" stroke-miterlimit="10" d="M89.73,369.029
	c0,0,79.373,36.379,90.948,57.876l18.19-8.27l1.654,14.882l42.994,41.341l14.882,4.961l-1.653,13.229
	c0,0,18.188,23.15,24.804,44.647c6.614,21.497,19.843-77.721-14.882-122.367C231.939,370.682,157.527,344.225,89.73,369.029z"/>
<path fill="#92BF4A" stroke="#7BA33E" stroke-width="1.0906" stroke-miterlimit="10" d="M90.438,368.658
	c0,0,111.493-16.304,139.115-1.147l13.897-21.719l12.233,14.96l75.576,14.599l19.6-5.072l7.491,15.488
	c0,0,35.946,12.306,58.197,30.947c22.248,18.638-33.052-98.097-101.99-122.08C245.616,270.648,146.458,294.212,90.438,368.658z"/>
<g id="click2">
	<path fill="#92BF4A" stroke="#7BA33E" stroke-width="1.0906" stroke-miterlimit="10" d="M88.932,366.333
		c0,0,68.71-53.875,93.122-54.311l0.987-19.957l13.986,5.352l56.446-19.266l11.231-10.952l10.999,7.531
		c0,0,28.912-5.557,51.052-1.584c22.136,3.974-59.983-53.256-115.578-42.856C155.577,240.693,97.958,294.707,88.932,366.333z"/>
	<path fill="#92BF4A" stroke="#7BA33E" stroke-width="1.0906" stroke-miterlimit="10" d="M88.932,366.333
		c0,0,43.215-75.87,65.645-85.51l-6.637-18.847l14.969-0.339l44.958-39.19l6.252-14.389l13.031,2.811
		c0,0,24.66-16.084,46.656-20.787c21.994-4.698-75.677-26.596-123.201,4.068C103.078,224.818,70.181,296.617,88.932,366.333z"/>
</g>
<g id="click6">
	
		<rect x="447.852" y="670.226" fill="#FFF8BD" stroke="#BEAA7B" stroke-width="1.2242" stroke-miterlimit="10" width="33.697" height="51.601"/>
	
		<rect x="594.412" y="670.226" fill="#FFF8BD" stroke="#BEAA7B" stroke-width="1.2242" stroke-miterlimit="10" width="33.697" height="51.601"/>
	
		<rect x="458.908" y="677.991" fill="#FFF8BD" stroke="#BEAA7B" stroke-width="1.2242" stroke-miterlimit="10" width="11.453" height="9.478"/>
	
		<rect x="607.056" y="677.991" fill="#FFF8BD" stroke="#BEAA7B" stroke-width="1.2242" stroke-miterlimit="10" width="11.453" height="9.478"/>
	<polygon fill="#FFF8BD" stroke="#BEAA7B" stroke-width="1.2242" stroke-miterlimit="10" points="464.041,633.646 474.694,652.097 
		485.346,670.547 464.041,670.547 442.735,670.547 453.388,652.097 	"/>
	<polygon fill="#FFF8BD" stroke="#BEAA7B" stroke-width="1.2242" stroke-miterlimit="10" points="612.188,633.646 622.841,652.097 
		633.494,670.547 612.188,670.547 590.883,670.547 601.536,652.097 	"/>
	<polygon fill="#FFF8BD" stroke="#BEAA7B" stroke-width="1.2242" stroke-miterlimit="10" points="551.164,646.954 551.164,658.118 
		542.213,658.118 542.213,646.954 533.251,646.954 533.251,658.116 524.299,658.116 524.299,646.954 512.587,646.954 
		512.587,721.404 561.371,721.404 561.371,646.954 	"/>
	<polygon fill="#FFF8BD" stroke="#BEAA7B" stroke-width="1.2242" stroke-miterlimit="10" points="579.6,707.595 579.6,716.6 
		570.648,716.6 570.648,707.595 560.638,707.595 560.638,716.6 551.688,716.6 551.688,707.595 541.671,707.595 541.671,716.6 
		532.72,716.6 532.72,707.595 522.71,707.595 522.71,716.6 513.759,716.6 513.759,707.595 503.744,707.595 503.744,716.6 
		494.792,716.6 494.792,707.595 485.396,707.595 485.396,784.569 587.5,784.569 587.5,707.595 	"/>
	<polygon fill="#FFF8BD" stroke="#BEAA7B" stroke-width="1.2242" stroke-miterlimit="10" points="475.722,707.595 475.722,716.6 
		466.771,716.6 466.771,707.595 457.808,707.595 457.808,716.598 448.857,716.598 448.857,707.595 435.608,707.595 435.608,784.569 
		485.903,784.569 485.903,707.595 	"/>
	
		<rect x="453.642" y="723.932" fill="#FFF8BD" stroke="#BEAA7B" stroke-width="1.2242" stroke-miterlimit="10" width="18.955" height="18.954"/>
	
		<rect x="453.642" y="749.217" fill="#FFF8BD" stroke="#BEAA7B" stroke-width="1.2242" stroke-miterlimit="10" width="18.955" height="18.955"/>
	<path fill="#FFF8BD" stroke="#BEAA7B" stroke-width="1.2242" stroke-miterlimit="10" d="M549.95,678.145
		c-0.398-5.063-5.063-9.063-10.771-9.063s-10.374,4-10.771,9.063h-0.025v0.448c-0.003,0.084-0.014,0.163-0.014,0.249
		c0,0.085,0.011,0.164,0.014,0.248v20.316h21.719v-21.263L549.95,678.145L549.95,678.145z"/>
	<path fill="#FFF8BD" stroke="#BEAA7B" stroke-width="1.2242" stroke-miterlimit="10" d="M552.958,752.428
		c-0.619-7.61-7.894-13.618-16.798-13.618s-16.174,6.008-16.798,13.618h-0.037v0.675c-0.003,0.125-0.022,0.245-0.022,0.373
		s0.02,0.246,0.022,0.373v30.529h33.868v-31.95H552.958L552.958,752.428z"/>
	
		<line fill="none" stroke="#BEAA7B" stroke-width="1.2242" stroke-miterlimit="10" x1="537.86" y1="646.399" x2="537.86" y2="594.67"/>
	<path fill="#F8D2E4" stroke="#BEA97B" stroke-width="0.9077" stroke-miterlimit="10" d="M537.858,597.435
		c0,0,7.503-9.083,26.853-5.134c19.35,3.948,30.011,4.344,36.724-10.663c6.714-15.006,1.186,22.509-20.533,35.146
		c0,0-6.318,5.526-22.113,0c-15.796-5.529-20.93,1.579-20.93,1.579V597.435L537.858,597.435z"/>
	<polygon fill="#FFF8BD" stroke="#BEAA7B" stroke-width="1.2242" stroke-miterlimit="10" points="627.607,707.595 627.607,716.6 
		618.655,716.6 618.655,707.595 609.693,707.595 609.693,716.598 600.742,716.598 600.742,707.595 587.493,707.595 587.493,784.569 
		637.788,784.569 637.788,707.595 	"/>
	
		<rect x="603.371" y="723.932" fill="#FFF8BD" stroke="#BEAA7B" stroke-width="1.2242" stroke-miterlimit="10" width="18.954" height="18.954"/>
	
		<rect x="603.371" y="749.217" fill="#FFF8BD" stroke="#BEAA7B" stroke-width="1.2242" stroke-miterlimit="10" width="18.954" height="18.955"/>
</g>
<g id="click7">
	<polygon fill="#C8EAF5" stroke="#BEAA7B" stroke-width="1.5877" stroke-miterlimit="10" points="420.413,845.299 467.443,817.389 
		471.919,826.274 423.195,852.35 	"/>
	<path fill="#D1D3D4" stroke="#BEAA7B" stroke-width="1.5877" stroke-miterlimit="10" d="M428.694,843.434
		c0,0,9.868,16.545,1.287,20.867c-8.581,4.321-33.895,6.695-38.678-2.037c-4.782-8.731,13.279-24.746,20.63-29.983
		C419.286,827.041,428.694,843.434,428.694,843.434z"/>
	<path fill="#D8D6EC" stroke="#BEAA7B" stroke-width="1.8358" stroke-miterlimit="10" d="M477.474,831.02
		c-2.263,1.342-5.188,0.595-6.533-1.67l-6.581-11.103c-1.345-2.266-0.597-5.191,1.67-6.535l0,0c2.267-1.345,5.191-0.595,6.536,1.67
		l6.581,11.104C480.489,826.751,479.742,829.675,477.474,831.02L477.474,831.02z"/>
	<path fill="#FBF1B5" stroke="#BEA97B" stroke-miterlimit="10" d="M321.595,781.563c0,0,8.734-14.802,36.639-14.802
		c27.902,0,32.938,13.465,32.938,13.465s-2.367,28.997-22.991,28.997s-26.689,0-26.689,0S327.418,808.008,321.595,781.563z"/>
	<path fill="#0084CB" d="M323.571,785.748c0,0,8.362-12.076,35.083-12.076c26.72,0,31.541,10.986,31.541,10.986
		s-2.266,23.659-22.016,23.659c-19.749,0-25.558,0-25.558,0S329.146,807.326,323.571,785.748z"/>
	<path fill="#D1D2AB" stroke="#BEA97B" stroke-miterlimit="10" d="M360.44,786.731c-0.042-0.13-0.064-0.197-0.064-0.197
		s-1.503,0.091-3.922,0.15c-2.418-0.061-3.922-0.15-3.922-0.15s-0.021,0.067-0.064,0.197c-9.866-0.001-26.017-0.897-30.73-6.507
		v60.661c0,0,7.926,11.646,34.182,11.646c0.185,0,0.357-0.016,0.536-0.021c0.18,0.006,0.353,0.021,0.536,0.021
		c26.255,0,34.183-11.646,34.183-11.646v-60.661C386.456,785.834,370.306,786.73,360.44,786.731z"/>
	<path fill="#D8D6EC" stroke="#BEAA7B" stroke-width="1.8358" stroke-miterlimit="10" d="M357.499,725.068l0.006-0.103
		c-0.372,0-0.718,0.04-1.082,0.051c-0.365-0.011-0.71-0.051-1.082-0.051l0.005,0.103c-34.592,2.158-34.965,55.584-34.965,55.584
		c0.364,2.91,2.912,4.003,2.912,4.003c4.408-51.321,26.517-53.614,32.402-53.3l0.01,0.161c0,0,0.253-0.054,0.718-0.104
		c0.464,0.052,0.718,0.104,0.718,0.104l0.01-0.161c5.886-0.314,27.994,1.979,32.402,53.3c0,0,2.547-1.093,2.911-4.003
		C392.464,780.652,392.091,727.229,357.499,725.068z"/>
	<path fill="#F8D2E4" stroke="#BEA97B" stroke-width="0.9077" stroke-miterlimit="10" d="M360.101,792.15
		c-0.042-0.109-0.063-0.167-0.063-0.167s-1.469,0.077-3.834,0.128c-2.365-0.052-3.834-0.128-3.834-0.128s-0.021,0.058-0.063,0.167
		c-9.646-0.001-25.436-0.756-30.044-5.483v51.122c0,0,7.75,9.815,33.418,9.815c0.181,0,0.35-0.014,0.524-0.019
		c0.176,0.005,0.344,0.019,0.523,0.019c25.67,0,33.42-9.815,33.42-9.815v-51.122C385.536,791.395,369.747,792.149,360.101,792.15z"
		/>
</g>
<circle fill="#CB9D64" stroke="#8C6D44" stroke-width="0.9246" stroke-miterlimit="10" cx="123.136" cy="389.251" r="32.943"/>
<path fill="#E2C09B" stroke="#927E66" stroke-width="1.0906" stroke-miterlimit="10" d="M108.048,383.917
	c0,0-12.4,183.542,76.889,369.563c0,0,19.842,22.32-37.204,29.762c-57.047,7.44-86.81-7.44-91.771-42.164
	c-4.96-34.725-44.644-210.825,34.724-362.122L108.048,383.917z"/>
<circle id="click3" fill="#CB9D64" stroke="#8C6D44" stroke-width="1.0906" stroke-miterlimit="10" cx="65.752" cy="373.163" r="38.86"/>
<circle fill="#CB9D64" stroke="#8C6D44" stroke-width="1.0906" stroke-miterlimit="10" cx="107.12" cy="363.238" r="38.859"/>
<path fill="#FFFAD7" stroke="#ABA994" stroke-miterlimit="10" d="M374.333,867.666c0,0,2,0.666,8-2.667s15.333-13.333,20-9.333
	s6.666,1.333,11.333,2s4,6.001,6.667,8.667s13.333-0.001,16.667,4.666"/>
</svg>
