<svg version="1.1" id="scene_right_3" tdiff="8" xmlns="http://www.w3.org/2000/svg" xmlns:xlink="http://www.w3.org/1999/xlink" x="0px" y="0px" width="720px" height="900px" viewBox="720 0 720 900" enable-background="new 720 0 720 900" xml:space="preserve">

<rect x="720.422" fill="#C8EAF5" width="719.819" height="900"/>
<path fill="#92BF4A" stroke="#7BA33E" stroke-width="1.0906" stroke-miterlimit="10" d="M720.422,366.171v56.168l10.044,4.565
	c11.575-21.498,90.948-57.876,90.948-57.876C787.471,356.61,751.87,357.042,720.422,366.171z"/>
<path fill="#92BF4A" stroke="#7BA33E" stroke-width="1.0906" stroke-miterlimit="10" d="M720.422,315.927v57.118
	c28.885-8.653,99.916-3.171,99.916-3.171C793.481,338.834,756.713,321.25,720.422,315.927z"/>
<path fill="#92BF4A" stroke="#7BA33E" stroke-width="1.0906" stroke-miterlimit="10" d="M720.422,267.515v66.387
	c26.06-1.649,99.354,36.993,99.354,36.993C803.738,319.978,763.283,283.295,720.422,267.515z"/>
<path fill="#92BF4A" stroke="#7BA33E" stroke-width="1.0906" stroke-miterlimit="10" d="M726.676,213.476
	c-2.026-0.816-4.118-1.531-6.254-2.171v66.735l6.924,4.027l14.764-2.495l-2.952,19.762c23.848,5.225,80.62,71.562,80.62,71.562
	C825.012,298.891,779.141,234.603,726.676,213.476z"/>
<path fill="#92BF4A" stroke="#7BA33E" stroke-width="1.0906" stroke-miterlimit="10" d="M790.358,182.075
	c-15.559-20.592-44.678-34.49-69.938-42.383v32.851l5.509,0.767l0.93,15.661l28.752,52.254l13.94,5.462l-12.709,15.418
	c17.752,16.763,32.265,102.862,32.265,102.862C830.671,305.938,824.452,227.207,790.358,182.075z"/>
<path id="Error_x5F_clicke4" fill="#FFFFFF" d="M912.98,518.744c0,0,0.64-10.235-12.154-13.435
	c-12.794-3.198-17.912,15.354-17.912,15.354s-22.39-5.757-22.39,16.633s37.104,8.956,37.104,8.956s22.39,5.757,32.625-4.479
	C940.488,531.537,926.414,509.788,912.98,518.744z"/>
<path fill="#0084CB" d="M1440.089,659.663c-22.667,25.333-55.333,18-55.333,18s-23.333-17.333-118-2.667
	c-94.666,14.666-101.334-30.666-132.667-14c-31.334,16.666-86.667,10.667-92,6c-5.334-4.667-77.333,0.667-108.667,5.334
	c-31.333,4.667-61.333-8.667-100.666-18s-112.334,5.666-112.334,5.666v71.001h406.676c16.933,6.274,55.924,10.666,101.325,10.666
	c45.403,0,84.396-4.392,101.325-10.666h110.341V659.663L1440.089,659.663z"/>
<path fill="#FFFAD7" stroke="#ABA994" stroke-miterlimit="10" d="M720.422,715c0,0,95-22,147-6s112,20,122,10s76-4,106,4
	s148,28,224,4s120-10,120-10v183h-719V715z"/>
<path fill="#92BF4A" stroke="#7BA33E" stroke-width="1.0906" stroke-miterlimit="10" d="M810.152,369.029
	c0,0,79.372,36.379,90.946,57.876l18.19-8.27l1.653,14.882l42.993,41.341l14.883,4.961l-1.653,13.229
	c0,0,18.188,23.15,24.804,44.647c6.614,21.497,19.845-77.721-14.882-122.367C952.361,370.682,877.949,344.225,810.152,369.029z"/>
<path fill="#92BF4A" stroke="#7BA33E" stroke-width="1.0906" stroke-miterlimit="10" d="M810.86,368.658
	c0,0,111.492-16.304,139.114-1.147l13.897-21.719l12.232,14.96l75.575,14.599l19.6-5.072l7.491,15.488
	c0,0,35.946,12.306,58.196,30.947c22.248,18.638-33.052-98.097-101.99-122.08C966.038,270.648,866.88,294.212,810.86,368.658z"/>
<path fill="#92BF4A" stroke="#7BA33E" stroke-width="1.0906" stroke-miterlimit="10" d="M809.354,366.333
	c0,0,68.711-53.875,93.121-54.311l0.987-19.957l13.985,5.352l56.445-19.266l11.23-10.952l10.999,7.531
	c0,0,28.912-5.557,51.052-1.584c22.136,3.974-59.982-53.256-115.578-42.856C875.999,240.693,818.38,294.707,809.354,366.333z"/>
<path fill="#FFFAD7" stroke="#ABA994" stroke-miterlimit="10" d="M1094.755,867.666c0,0,2,0.666,8-2.667s15.333-13.333,20-9.333
	c4.666,4,6.666,1.333,11.333,2s4,6.001,6.667,8.667c2.666,2.666,13.333-0.001,16.666,4.666"/>
<circle fill="#CB9D64" stroke="#8C6D44" stroke-width="0.9246" stroke-miterlimit="10" cx="843.558" cy="389.251" r="32.943"/>
<path fill="#E2C09B" stroke="#927E66" stroke-width="1.0906" stroke-miterlimit="10" d="M828.471,383.917
	c0,0-12.399,183.542,76.89,369.563c0,0,19.843,22.32-37.204,29.762c-57.047,7.44-86.811-7.44-91.771-42.164
	c-4.96-34.725-44.644-210.825,34.725-362.122L828.471,383.917z"/>
<circle fill="#CB9D64" stroke="#8C6D44" stroke-width="1.0906" stroke-miterlimit="10" cx="827.542" cy="363.238" r="38.859"/>
<g id="Error_x5F_click7">
	<path fill="#FBF1B5" stroke="#BEA97B" stroke-miterlimit="10" d="M1042.018,781.563c0,0,8.733-14.802,36.639-14.802
		c27.902,0,32.938,13.465,32.938,13.465s-2.365,28.997-22.99,28.997c-20.623,0-26.689,0-26.689,0S1047.84,808.008,1042.018,781.563z
		"/>
	<path fill="#0084CB" d="M1043.993,785.748c0,0,8.363-12.076,35.083-12.076s31.541,10.986,31.541,10.986
		s-2.266,23.659-22.016,23.659c-19.748,0-25.559,0-25.559,0S1049.568,807.326,1043.993,785.748z"/>
	<path fill="#D8D6EC" stroke="#BEAA7B" stroke-width="1.8358" stroke-miterlimit="10" d="M1077.921,725.068l0.006-0.103
		c-0.372,0-0.718,0.04-1.082,0.051c-0.364-0.011-0.71-0.051-1.082-0.051l0.005,0.103c-34.592,2.158-34.965,55.584-34.965,55.584
		c0.364,2.91,2.912,4.003,2.912,4.003c4.408-51.321,26.518-53.614,32.402-53.3l0.01,0.161c0,0,0.253-0.054,0.718-0.104
		c0.464,0.052,0.718,0.104,0.718,0.104l0.01-0.161c5.886-0.314,27.995,1.979,32.402,53.3c0,0,2.547-1.093,2.911-4.003
		C1112.886,780.652,1112.513,727.229,1077.921,725.068z"/>
	<polygon fill="#C8EAF5" stroke="#BEAA7B" stroke-width="1.5877" stroke-miterlimit="10" points="1069.742,806.09 1083.263,753.099 
		1092.711,756.217 1076.695,809.107 	"/>
	<path fill="#D1D3D4" stroke="#BEAA7B" stroke-width="1.5877" stroke-miterlimit="10" d="M1074.279,798.915
		c0,0,18.677,4.721,15.665,13.845c-3.013,9.124-19.231,28.701-28.789,25.908c-9.558-2.792-8.107-26.888-6.613-35.79
		C1056.035,793.977,1074.279,798.915,1074.279,798.915z"/>
	<path fill="#D8D6EC" stroke="#BEAA7B" stroke-width="1.8358" stroke-miterlimit="10" d="M1099.993,755.645
		c-0.651,2.549-3.249,4.09-5.8,3.438l-12.506-3.196c-2.552-0.651-4.092-3.25-3.439-5.803l0,0c0.652-2.553,3.252-4.092,5.803-3.439
		l12.504,3.197C1099.107,750.494,1100.646,753.09,1099.993,755.645L1099.993,755.645z"/>
	<path fill="#D1D2AB" stroke="#BEA97B" stroke-miterlimit="10" d="M1080.862,786.731c-0.043-0.13-0.064-0.197-0.064-0.197
		s-1.504,0.091-3.923,0.15c-2.418-0.061-3.922-0.15-3.922-0.15s-0.021,0.067-0.064,0.197c-9.865-0.001-26.018-0.897-30.73-6.507
		v60.661c0,0,7.927,11.646,34.182,11.646c0.186,0,0.357-0.016,0.536-0.021c0.181,0.006,0.354,0.021,0.536,0.021
		c26.256,0,34.184-11.646,34.184-11.646v-60.661C1106.878,785.834,1090.729,786.73,1080.862,786.731z"/>
	<path fill="#C5DF94" stroke="#BEA97B" stroke-width="0.9077" stroke-miterlimit="10" d="M1080.523,792.15
		c-0.043-0.109-0.063-0.167-0.063-0.167s-1.469,0.077-3.835,0.128c-2.364-0.052-3.834-0.128-3.834-0.128s-0.021,0.058-0.063,0.167
		c-9.646-0.001-25.437-0.756-30.046-5.483v51.122c0,0,7.75,9.815,33.419,9.815c0.181,0,0.35-0.014,0.523-0.019
		c0.176,0.005,0.345,0.019,0.523,0.019c25.67,0,33.421-9.815,33.421-9.815v-51.122
		C1105.958,791.395,1090.169,792.149,1080.523,792.15z"/>
</g>
<circle id="Error_x5F_click1" fill="#FFED5F" cx="1296.061" cy="271.09" r="63.501"/>
<path fill="#FFFFFF" d="M1192.68,292.022c0,0,1.636-24.521,35.965-24.521s29.426,31.06,29.426,31.06s50.676-19.617,52.312,31.06
	c1.636,50.677-94.813,39.233-94.813,39.233s-88.275,13.078-93.181-32.695c-4.903-45.772,37.6-40.868,45.772-26.155
	C1168.159,310.004,1168.159,282.214,1192.68,292.022z"/>
<path id="Error_x5F_clic6" fill="#FFFAD7" stroke="#ABA994" stroke-miterlimit="10" d="M1155.146,749.738
	c0,0,6.935,2.31,27.736-9.246c20.803-11.558,53.161-46.229,69.342-32.359c16.179,13.869,23.112,4.622,39.293,6.936
	c16.183,2.312,13.869,20.806,23.115,30.05c9.244,9.243,46.229-0.004,57.783,16.178"/>
</svg>
