<?xml version="1.0" encoding="utf-8"?>
<!-- Generator: Adobe Illustrator 16.0.0, SVG Export Plug-In . SVG Version: 6.00 Build 0)  -->
<!DOCTYPE svg PUBLIC "-//W3C//DTD SVG 1.1//EN" "http://www.w3.org/Graphics/SVG/1.1/DTD/svg11.dtd">
<svg version="1.1" id="Capa_1" xmlns="http://www.w3.org/2000/svg" xmlns:xlink="http://www.w3.org/1999/xlink" x="0px" y="0px"
	 width="726.738px" height="900px" viewBox="713.261 0 726.738 900" enable-background="new 713.261 0 726.738 900"
	 xml:space="preserve">
<rect x="713.261" y="0" fill="#00AEEF" stroke="#000000" stroke-width="2.0076" stroke-miterlimit="10" width="723.449" height="898.375"/>
<path id="Error_x5F_click4" fill="#007437" stroke="#000000" stroke-width="0.25" stroke-miterlimit="10" d="M1270.526,604.619
	c8.72-13.076-90.265-7.148-145.036-2.934c-14.606-2.472-22.705-5.146-20.256-8.362c4.605-6.049,86.913-31.785-77.822-29.263
	c-164.734,2.521-39.837,22.701-92.596,18.918c-52.758-3.783-141.047,36.574-93.672,46.663c47.375,10.09,20.457,25.225,20.457,25.225
	s-24.766,8.828-10.769,34.054c13.997,25.225,18.615-1.012,92.903,44.391s90.438-7.563,90.438-7.563
	c103.355,71.886,184.104,3.784,184.104,3.784c184.105,11.353,135.655-79.453,135.655-79.453
	C1447.731,635.75,1258.526,622.618,1270.526,604.619z"/>
<path fill="#A5C93D" stroke="#000000" stroke-width="0.7573" stroke-miterlimit="10" d="M1049.293,637.973
	c0,0-165.678-40.76-157.132-8.546c0,0-7.889,9.864,8.548,9.206c0,0-7.23,5.917,17.094,5.917
	C942.13,644.55,1044.692,645.202,1049.293,637.973z"/>
<path fill="#A5C93D" stroke="#000000" stroke-width="0.7573" stroke-miterlimit="10" d="M942.13,629.098
	c0,0-32.873-1.97-42.078,10.521"/>
<path fill="#A5C93D" stroke="#000000" stroke-width="0.7573" stroke-miterlimit="10" d="M930.296,621.209
	c0,0-32.217-4.604-38.789,9.858"/>
<path fill="#A5C93D" stroke="#000000" stroke-width="0.7573" stroke-miterlimit="10" d="M1109.371,637.973
	c0,0,165.68-40.76,157.133-8.546c0,0,7.89,9.864-8.549,9.206c0,0,7.231,5.917-17.093,5.917
	C1216.535,644.55,1113.972,645.202,1109.371,637.973z"/>
<path fill="#A5C93D" stroke="#000000" stroke-width="0.7573" stroke-miterlimit="10" d="M1216.535,629.098
	c0,0,32.873-1.97,42.079,10.521"/>
<path fill="#A5C93D" stroke="#000000" stroke-width="0.7573" stroke-miterlimit="10" d="M1228.369,621.209
	c0,0,32.217-4.604,38.788,9.858"/>
<path fill="#A5C93D" stroke="#000000" stroke-width="0.9579" stroke-miterlimit="10" d="M1253.177,524.467
	c-11.166-25.46-63.473-27.128-116.826-3.729c-22.12,9.702-40.942,22.188-54.61,35.3c-13.668-13.108-32.489-25.599-54.608-35.3
	c-53.354-23.397-105.661-21.729-116.826,3.729c-11.166,25.459,23.034,65.066,76.39,88.469
	c36.425,15.975,72.355,20.264,95.045,13.277c22.69,6.983,58.622,2.694,95.046-13.277
	C1230.143,589.533,1264.344,549.926,1253.177,524.467z"/>
<path fill="none" stroke="#231F20" stroke-width="0.8033" stroke-miterlimit="10" d="M945.014,559.878
	c0,0,98.009,5.624,134.963,53.823"/>
<path fill="none" stroke="#231F20" stroke-width="0.8033" stroke-miterlimit="10" d="M1214.216,559.878
	c0,0-98.01,5.624-134.964,53.823"/>
<ellipse fill="#D6D235" stroke="#000000" stroke-width="0.25" stroke-miterlimit="10" cx="1236.027" cy="536.374" rx="4.5" ry="6.749"/>
<ellipse fill="#D6D235" stroke="#000000" stroke-width="0.25" stroke-miterlimit="10" cx="960.76" cy="510.7" rx="5.333" ry="3"/>
<ellipse fill="#D6D235" stroke="#000000" stroke-width="0.25" stroke-miterlimit="10" cx="1164.76" cy="599.7" rx="6.667" ry="5.333"/>
<ellipse fill="#D6D235" stroke="#000000" stroke-width="0.25" stroke-miterlimit="10" cx="927.76" cy="559.367" rx="5" ry="3"/>
<path fill="#D6D235" stroke="#000000" stroke-width="0.25" stroke-miterlimit="10" d="M1210.094,504.367c0,0-2.667,7.333,10,8
	s8.667-5.333,8.667-5.333S1216.094,502.367,1210.094,504.367z"/>
<path fill="#D6D235" stroke="#000000" stroke-width="0.25" stroke-miterlimit="10" d="M1253.177,524.467c0,0-7.751,1.9-7.085-4.1
	S1252.262,522.564,1253.177,524.467z"/>
<path fill="#D6D235" stroke="#000000" stroke-width="0.25" stroke-miterlimit="10" d="M927.426,508.367c0,0,3.761,16.861-17.12,16.1
	C910.304,524.467,913.426,514.367,927.426,508.367z"/>
<path fill="#D6D235" stroke="#000000" stroke-width="0.25" stroke-miterlimit="10" d="M959.427,571.034c0,0-4,2.666,4,7.333
	s4.667-2,4.667-2l2-6L959.427,571.034z"/>
<ellipse fill="#A5C93D" stroke="#000000" stroke-width="0.7573" stroke-miterlimit="10" cx="1081.32" cy="535.862" rx="124.089" ry="108.184"/>
<ellipse transform="matrix(0.6618 0.7497 -0.7497 0.6618 761.1681 -614.0464)" fill="#D6D235" stroke="#000000" stroke-width="0.2658" stroke-miterlimit="10" cx="1061.144" cy="536.594" rx="8.999" ry="6.78"/>
<ellipse fill="#D6D235" stroke="#000000" stroke-width="0.25" stroke-miterlimit="10" cx="1176.03" cy="514.625" rx="4.5" ry="9"/>
<ellipse fill="#D6D235" stroke="#000000" stroke-width="0.25" stroke-miterlimit="10" cx="1137.094" cy="521.367" rx="7.667" ry="5.667"/>
<ellipse transform="matrix(-0.3247 0.9458 -0.9458 -0.3247 1865.683 -170.6401)" fill="#D6D235" stroke="#000000" stroke-width="0.25" stroke-miterlimit="10" cx="993.758" cy="580.702" rx="7.666" ry="4"/>
<path fill="#D6D235" stroke="#000000" stroke-width="0.25" stroke-miterlimit="10" d="M1204.76,527.7c0,0-16,13.334-2.667,31.334
	C1202.094,559.034,1206.76,536.366,1204.76,527.7z"/>
<path fill="#D6D235" stroke="#000000" stroke-width="0.25" stroke-miterlimit="10" d="M1156.76,560.368c0,0,19.333,9.334,4,24
	l-4.667-2L1156.76,560.368z"/>
<path fill="#D6D235" stroke="#000000" stroke-width="0.25" stroke-miterlimit="10" d="M1045.427,497.034c0,0,8.667,15.999,20,2
	c11.333-14-9.333-12-9.333-12S1043.427,489.034,1045.427,497.034z"/>
<path fill="#D6D235" stroke="#000000" stroke-width="0.25" stroke-miterlimit="10" d="M1202.094,512.367c0,0-10-3.333-4.667-12.666
	C1197.427,499.701,1202.094,507.7,1202.094,512.367z"/>
<path fill="#A5C93D" stroke="#000000" stroke-width="0.8238" stroke-miterlimit="10" d="M1144.716,479.078
	c0,0,19.237,124.403,24.368,137.229c5.13,12.827,11.541,44.893,67.976,43.605v8.979l-34.628,1.283l29.497,7.694l-3.849,11.542
	l-30.779,15.393c0,0-12.827-23.084-41.043-25.65c-28.217-2.563-28.217-2.563-28.217-2.563l3.85-8.979c0,0,19.235-8.979,20.521-25.65
	c1.283-16.674-15.391-141.078-24.368-146.209"/>
<path fill="#A5C93D" stroke="#000000" stroke-width="0.8238" stroke-miterlimit="10" d="M1176.777,667.611
	c0,0,17.314,16.673,31.423,19.878"/>
<path fill="#A5C93D" stroke="#000000" stroke-width="0.8238" stroke-miterlimit="10" d="M1185.757,660.556
	c0,0,11.545,9.621,23.727,10.263"/>
<circle fill="#D6D235" stroke="#000000" stroke-width="0.8238" stroke-miterlimit="10" cx="1247.961" cy="664.403" r="12.184"/>
<circle fill="#D6D235" stroke="#000000" stroke-width="0.8238" stroke-miterlimit="10" cx="1236.413" cy="687.5" r="13.962"/>
<circle fill="#D6D235" stroke="#000000" stroke-width="0.8238" stroke-miterlimit="10" cx="1209.464" cy="699.053" r="13.37"/>
<circle fill="#D6D235" stroke="#000000" stroke-width="0.8238" stroke-miterlimit="10" cx="1124.764" cy="674.026" r="12.184"/>
<path fill="#A5C93D" stroke="#000000" stroke-width="0.8238" stroke-miterlimit="10" d="M1183.19,643.885
	c0,0-1.924,10.897-11.542,12.822"/>
<path fill="#A5C93D" stroke="#000000" stroke-width="0.8238" stroke-miterlimit="10" d="M1014.216,479.078
	c0,0-19.238,124.403-24.368,137.229c-5.13,12.827-11.542,44.893-67.977,43.605v8.979l34.629,1.283l-29.497,7.694l3.849,11.542
	l30.78,15.393c0,0,12.825-23.084,41.041-25.65c28.217-2.563,28.217-2.563,28.217-2.563l-3.849-8.979c0,0-19.237-8.979-20.521-25.65
	c-1.284-16.674,15.391-141.078,24.368-146.209"/>
<path fill="#A5C93D" stroke="#000000" stroke-width="0.8238" stroke-miterlimit="10" d="M982.151,667.611
	c0,0-17.313,16.673-31.422,19.878"/>
<path fill="#A5C93D" stroke="#000000" stroke-width="0.8238" stroke-miterlimit="10" d="M973.174,660.556
	c0,0-11.545,9.621-23.728,10.263"/>
<circle fill="#D6D235" stroke="#000000" stroke-width="0.8238" stroke-miterlimit="10" cx="910.969" cy="664.403" r="12.184"/>
<circle fill="#D6D235" stroke="#000000" stroke-width="0.8238" stroke-miterlimit="10" cx="922.516" cy="687.5" r="13.962"/>
<circle fill="#D6D235" stroke="#000000" stroke-width="0.8238" stroke-miterlimit="10" cx="949.468" cy="699.053" r="13.37"/>
<circle fill="#D6D235" stroke="#000000" stroke-width="0.8238" stroke-miterlimit="10" cx="1034.166" cy="674.026" r="12.184"/>
<path fill="#A5C93D" stroke="#000000" stroke-width="0.8238" stroke-miterlimit="10" d="M975.739,643.885
	c0,0,1.923,10.897,11.542,12.822"/>
<path fill="#D6D235" stroke="#000000" stroke-width="0.25" stroke-miterlimit="10" d="M1205.927,597.533c0,0,2-11,11.5-9.5
	C1217.427,588.033,1214.427,593.533,1205.927,597.533z"/>
<path fill="#D6D235" stroke="#000000" stroke-width="0.25" stroke-miterlimit="10" d="M970.427,488.033
	c0,0,12.333,20.333-11.333,28.333C959.094,516.366,964.76,493.7,970.427,488.033z"/>
<path fill="#D6D235" stroke="#000000" stroke-width="0.25" stroke-miterlimit="10" d="M957.094,533.7c0,0,7.333,5.332,1,11.666
	L957.094,533.7z"/>
<ellipse transform="matrix(-0.7899 0.6132 -0.6132 -0.7899 2094.5181 327.9654)" fill="#D6D235" stroke="#000000" stroke-width="0.2752" stroke-miterlimit="10" cx="991.079" cy="522.771" rx="7.834" ry="6.464"/>
<path fill="#D6D235" stroke="#000000" stroke-width="0.25" stroke-miterlimit="10" d="M1103.545,494.198
	c0,0,8.75,10.277,16.987,7.182c8.237-3.102,4.532-6.994,4.532-6.994S1108.812,490.558,1103.545,494.198z"/>
<path fill="#D6D235" stroke="#000000" stroke-width="0.25" stroke-miterlimit="10" d="M908.427,535.034c0,0,8,7.334,3.333,14
	C911.76,549.034,908.427,544.368,908.427,535.034z"/>
<path fill="#A5C93D" stroke="#000000" stroke-width="0.8682" stroke-miterlimit="10" d="M1167.164,314.834
	c2.45-4.934,3.833-10.486,3.833-16.365c0-20.351-16.498-36.849-36.849-36.849c-18.46,0-33.749,13.573-36.43,31.287
	c-5.729-0.535-11.563-0.813-17.483-0.813c-6.172,0-12.25,0.304-18.21,0.884c-2.652-17.746-17.955-31.355-36.439-31.355
	c-20.352,0-36.85,16.498-36.85,36.849c0,6.016,1.45,11.688,4.006,16.704c-31.519,19.025-51.674,48.104-51.674,80.698
	c0,57.312,62.307,103.775,139.167,103.775s139.167-46.463,139.167-103.775C1219.401,363.083,1199.007,333.853,1167.164,314.834z"/>
<g>
	<circle fill="#FFFFFF" stroke="#000000" stroke-width="0.7403" stroke-miterlimit="10" cx="1025.521" cy="298.469" r="31.421"/>
	<circle fill="#FFFFFF" stroke="#000000" stroke-width="0.7403" stroke-miterlimit="10" cx="1134.214" cy="298.469" r="31.421"/>
	<circle stroke="#000000" stroke-width="0.4334" stroke-miterlimit="10" cx="1133.663" cy="310.926" r="18.393"/>
	<circle fill="#FFFFFF" cx="1132.532" cy="305.064" r="4.685"/>
	<circle fill="#FFFFFF" cx="1125.539" cy="299.742" r="2.732"/>
	<circle stroke="#000000" stroke-width="0.4334" stroke-miterlimit="10" cx="1025.943" cy="310.926" r="18.392"/>
	<circle fill="#FFFFFF" cx="1024.812" cy="305.064" r="4.685"/>
	<circle fill="#FFFFFF" cx="1017.82" cy="299.742" r="2.732"/>
</g>
<path fill="#D6D235" stroke="#000000" stroke-width="0.25" stroke-miterlimit="10" d="M1067.427,293.035c0,0-12.667,7.333,8,14
	s22-11.333,8-14.667C1083.427,292.369,1072.094,289.702,1067.427,293.035z"/>
<ellipse transform="matrix(0.4244 0.9055 -0.9055 0.4244 899.8204 -782.0833)" fill="#D6D235" stroke="#000000" stroke-width="0.25" stroke-miterlimit="10" cx="1065.067" cy="316.723" rx="5" ry="7.001"/>
<ellipse fill="#D6D235" stroke="#000000" stroke-width="0.25" stroke-miterlimit="10" cx="1161.78" cy="442.629" rx="9.75" ry="6"/>
<ellipse fill="#D6D235" stroke="#000000" stroke-width="0.25" stroke-miterlimit="10" cx="1198.529" cy="392.382" rx="9" ry="6.75"/>
<ellipse fill="#D6D235" stroke="#000000" stroke-width="0.25" stroke-miterlimit="10" cx="991.539" cy="450.129" rx="7.5" ry="6"/>
<ellipse fill="#D6D235" stroke="#000000" stroke-width="0.25" stroke-miterlimit="10" cx="989.289" cy="411.881" rx="3.75" ry="8.25"/>
<ellipse fill="#D6D235" stroke="#000000" stroke-width="0.25" stroke-miterlimit="10" cx="1150.76" cy="352.369" rx="7.333" ry="4"/>
<path fill="#D6D235" stroke="#000000" stroke-width="0.25" stroke-miterlimit="10" d="M1026.094,404.368
	c0,0,16.667-11.332,17.333,7.333C1043.427,411.702,1028.094,411.702,1026.094,404.368z"/>
<path fill="#D6D235" stroke="#000000" stroke-width="0.25" stroke-miterlimit="10" d="M978.759,323.703c0,0,10,21.333-19.333,20.667
	C959.426,344.369,968.759,332.37,978.759,323.703z"/>
<path fill="#D6D235" stroke="#000000" stroke-width="0.25" stroke-miterlimit="10" d="M1216.76,413.702
	c0,0-13.333-4.667-23.333,14.666c-10,19.334,0,27.334,0,27.334S1216.093,430.368,1216.76,413.702z"/>
<path fill="#D6D235" stroke="#000000" stroke-width="0.25" stroke-miterlimit="10" d="M1151.427,484.367c0,0,3.333-19.999,18-8.666
	C1169.427,475.701,1159.427,483.701,1151.427,484.367z"/>
<path fill="#D6D235" stroke="#000000" stroke-width="0.25" stroke-miterlimit="10" d="M948.759,431.034c0,0,8-1.333,6-18.666
	s-13.333-10-13.333-4.667S948.759,431.034,948.759,431.034z"/>
<ellipse fill="#D6D235" stroke="#000000" stroke-width="0.25" stroke-miterlimit="10" cx="1051.427" cy="363.036" rx="12.667" ry="7.333"/>
<ellipse fill="#D6D235" stroke="#000000" stroke-width="0.25" stroke-miterlimit="10" cx="1077.76" cy="375.703" rx="6.333" ry="4"/>
<g id="Error_x5F_click3">
	<path fill="#325CAA" stroke="#000000" stroke-width="0.25" stroke-miterlimit="10" d="M1288.843,675.385
		c0,0-24.733-24.732,16.487-24.732c41.224,0,4.122,24.732,4.122,24.732H1288.843z"/>
	<path fill="#325CAA" stroke="#000000" stroke-width="0.25" stroke-miterlimit="10" d="M1305.845,671.777
		c0,0,42.253-10.306,35.555,9.791c-6.697,20.096-36.585,9.274-37.102,1.545C1303.784,675.385,1305.845,671.777,1305.845,671.777z"/>
	<path fill="#325CAA" stroke="#000000" stroke-width="0.25" stroke-miterlimit="10" d="M1284.719,685.176
		c0,0-31.434,4.638-24.732-13.913c6.697-18.55,44.313-21.127,32.462,5.668C1280.597,703.725,1284.719,685.176,1284.719,685.176z"/>
	<path fill="#325CAA" stroke="#000000" stroke-width="0.25" stroke-miterlimit="10" d="M1304.301,683.113
		c0,0,20.609,17.005-15.458,24.219c-36.07,7.217-18.552-24.219,4.123-26.277C1315.637,678.991,1304.301,683.113,1304.301,683.113z"
		/>
	
		<ellipse fill="#FFF200" stroke="#000000" stroke-width="0.25" stroke-miterlimit="10" cx="1298.116" cy="676.931" rx="13.153" ry="7.203"/>
</g>
<g id="click3">
	<path fill="#A967AA" stroke="#000000" stroke-width="0.25" stroke-miterlimit="10" d="M1063.279,688.521
		c0,0-13.979-13.981,9.321-13.981s2.33,13.981,2.33,13.981H1063.279z"/>
	<path fill="#A967AA" stroke="#000000" stroke-width="0.25" stroke-miterlimit="10" d="M1072.891,686.481
		c0,0,23.884-5.825,20.098,5.533c-3.786,11.359-20.68,5.243-20.972,0.873C1071.726,688.521,1072.891,686.481,1072.891,686.481z"/>
	<path fill="#A967AA" stroke="#000000" stroke-width="0.25" stroke-miterlimit="10" d="M1060.949,694.055
		c0,0-17.768,2.621-13.979-7.863c3.785-10.484,25.049-11.94,18.35,3.203S1060.949,694.055,1060.949,694.055z"/>
	<path fill="#A967AA" stroke="#000000" stroke-width="0.25" stroke-miterlimit="10" d="M1072.017,692.889
		c0,0,11.65,9.611-8.738,13.688c-20.388,4.078-10.486-13.688,2.33-14.854C1078.427,690.56,1072.017,692.889,1072.017,692.889z"/>
	
		<ellipse fill="#FFF200" stroke="#000000" stroke-width="0.25" stroke-miterlimit="10" cx="1068.522" cy="689.395" rx="7.437" ry="4.071"/>
</g>
<path id="Error_x5F_click2" fill="#D6D235" stroke="#000000" stroke-width="0.1679" stroke-miterlimit="10" d="M1113.066,636.418
	c0.005-0.159,0.009-0.321,0.012-0.488c0.001-0.06,0.006-0.118,0.006-0.178c0-0.027-0.002-0.056-0.002-0.082
	c0.008-1.293-0.07-2.801-0.321-4.438c-2.149-15.243-14.998-27.041-30.707-27.559c-0.054-0.003-0.109-0.003-0.163-0.005
	c-0.304-0.009-0.606-0.022-0.912-0.022c-0.042,0-0.083,0.002-0.124,0.003c-0.041-0.001-0.083-0.003-0.124-0.003
	c-0.306,0-0.608,0.015-0.912,0.022c-0.055,0.002-0.109,0.002-0.163,0.005c-15.709,0.518-28.559,12.314-30.707,27.559
	c-0.252,1.64-0.33,3.146-0.321,4.438c0,0.026-0.002,0.055-0.002,0.082c0,0.06,0.005,0.119,0.006,0.178
	c0.002,0.167,0.006,0.329,0.012,0.488c0.018,0.764,0.055,1.521,0.122,2.271c0.019,0.01,0.036,0.02,0.055,0.028
	c0.11,0.9,0.229,1.419,0.229,1.419c3.016,1.463,6.884,2.512,10.411,3.244c7.475,2.467,14.728,3.246,21.396,3.035
	c6.669,0.211,13.923-0.568,21.396-3.035c3.526-0.732,7.396-1.781,10.41-3.244c0,0,0.118-0.519,0.229-1.419
	c0.018-0.011,0.036-0.02,0.054-0.028C1113.011,637.941,1113.05,637.182,1113.066,636.418z"/>
<path id="Error_x5F_click1" d="M1084.796,430.117c-26.313-1.04-49.745-21.525-49.745-21.525c9.372,11.849,11.188,11.81,23.62,38.538
	c8.123,17.467,17.038,21.659,22.245,22.472c1.358,0.318,2.773,0.493,4.23,0.493c3.343,0,6.475-0.896,9.179-2.449
	c4.904-2.633,10.94-8.359,16.595-20.515c12.433-26.729,14.248-26.689,23.62-38.538
	C1134.541,408.592,1111.107,429.077,1084.796,430.117z"/>
<path fill="#E9187E" stroke="#000000" stroke-width="0.25" stroke-miterlimit="10" d="M1162.26,706.777
	c0,0-14.548-14.549,9.696-14.549c24.246,0,2.426,14.549,2.426,14.549H1162.26z"/>
<path fill="#E9187E" stroke="#000000" stroke-width="0.25" stroke-miterlimit="10" d="M1172.261,704.655
	c0,0,24.853-6.062,20.912,5.759c-3.941,11.821-21.52,5.455-21.821,0.908C1171.05,706.777,1172.261,704.655,1172.261,704.655z"/>
<path fill="#E9187E" stroke="#000000" stroke-width="0.25" stroke-miterlimit="10" d="M1159.836,712.533
	c0,0-18.486,2.729-14.548-8.184c3.939-10.91,26.063-12.426,19.094,3.334C1157.411,723.445,1159.836,712.533,1159.836,712.533z"/>
<path fill="#E9187E" stroke="#000000" stroke-width="0.25" stroke-miterlimit="10" d="M1171.352,711.322
	c0,0,12.123,10.002-9.092,14.245c-21.216,4.242-10.91-14.245,2.425-15.457S1171.352,711.322,1171.352,711.322z"/>
<ellipse fill="#FFF200" stroke="#000000" stroke-width="0.25" stroke-miterlimit="10" cx="1167.717" cy="707.687" rx="7.158" ry="3.921"/>
</svg>
