<?xml version="1.0" encoding="utf-8"?>
<!-- Generator: Adobe Illustrator 15.1.0, SVG Export Plug-In . SVG Version: 6.00 Build 0)  -->
<!DOCTYPE svg PUBLIC "-//W3C//DTD SVG 1.1//EN" "http://www.w3.org/Graphics/SVG/1.1/DTD/svg11.dtd">
<svg version="1.1" id="svg_1_1" xmlns="http://www.w3.org/2000/svg" xmlns:xlink="http://www.w3.org/1999/xlink" x="0px" y="0px"
	 width="85.04px" height="85.04px" viewBox="0 0 85.04 85.04" enable-background="new 0 0 85.04 85.04" xml:space="preserve">
<path fill="#FFFFFF" stroke="#815C2D" stroke-width="0.5" d="M40.734,58.303c3.593,0,34.042-1.189,36.438-1.189
	c2.395,0,5.105-0.344,4.426-3.578c-0.684-3.229-3.498-21.229-23.973-20.593c-2.563,0.08-3.332-12.394-10.383-15.399
	c-4.679-1.993-13.944-2.644-22.161-1.335c-8.551,1.359-9.766,15.934-11.478,18.317C5.303,37.438,4.231,53.37,4.231,58.303
	C6.283,58.645,40.734,58.303,40.734,58.303z"/>
<path fill="#FFFFFF" stroke="#815C2D" stroke-width="0.5" stroke-linecap="round" stroke-linejoin="round" d="M75.549,56.713
	c0-2.383-2.973-13.041-13.635-13.91c-6.281-0.514-12.06,3.305-15.229,8.693c-2.733,4.645-1.729,4.779-2.688,5.334
	c-3.084,0.25-5.663,0.352-7.03-0.053c-1.024-0.683-3.194-10.5-11.235-12.41c-6.209-1.48-13.458,0.869-16.081,6.779
	c-3.031,6.844-1.931,5.42-2.271,6.782"/>
<path fill="#FFFFFF" stroke="#815C2D" stroke-width="0.5" stroke-linecap="round" stroke-linejoin="round" d="M57.177,33.18
	c0,2.102-0.257,1.783,0.088,3.01c11.974,0,20.271,9.776,21.125,15.38c0.854,5.606,2.563,3.328,2.563,3.328"/>
<path fill="#FFFFFF" stroke="#815C2D" stroke-width="0.5" stroke-linecap="round" stroke-linejoin="round" d="M35.688,33.628
	c0,0,17.032-0.15,17.868-0.15c0.834,0-1.664-11-6.349-13.008c-5.166-2.216-11.746-1.982-11.746-1.982L35.688,33.628z"/>
<path fill="#FFFFFF" stroke="#815C2D" stroke-width="0.5" d="M41.701,38.339c0,0.424-0.345,0.768-0.771,0.768h-3.591
	c-0.426,0-0.771-0.344-0.771-0.768l0,0c0-0.422,0.346-0.766,0.771-0.766h3.592C41.356,37.575,41.701,37.917,41.701,38.339
	L41.701,38.339z"/>
<path fill="#FFFFFF" stroke="#815C2D" stroke-width="0.5" stroke-linecap="round" stroke-linejoin="round" d="M31.794,18.544
	c0,0-5.248-0.166-7.551,0.5c-4.242,1.226-7.615,14.73-6.662,14.73H31.3c0.953,0,1.728-0.604,1.728-1.346V19.764
	C33.027,19.021,32.749,18.544,31.794,18.544z"/>
<path fill="#FFFFFF" stroke="#815C2D" stroke-width="0.5" stroke-linecap="round" stroke-linejoin="round" d="M76.019,53.784
	c0,2.211-0.354,4.613,0.479,4.613c0.836,0,6.187-0.184,6.078-2.229C82.409,52.938,76.019,53.784,76.019,53.784z"/>
<path fill="#FFFFFF" stroke="#815C2D" stroke-width="0.5" stroke-linecap="round" stroke-linejoin="round" d="M8.106,54.28
	c0,2.672,0.136,4.52-0.538,4.52c-0.671,0-5.191,0.008-5.105-2.465C2.594,52.432,8.106,54.28,8.106,54.28z"/>
<line fill="none" stroke="#815C2D" stroke-width="0.5" stroke-linecap="round" stroke-linejoin="round" x1="34.578" y1="52.176" x2="46.107" y2="52.176"/>
<line fill="none" stroke="#815C2D" stroke-width="0.5" stroke-linecap="round" stroke-linejoin="round" x1="35.724" y1="54.026" x2="45.308" y2="54.026"/>
<line fill="none" stroke="#815C2D" stroke-width="0.5" stroke-linecap="round" stroke-linejoin="round" x1="36.821" y1="55.85" x2="44.506" y2="55.85"/>
<ellipse fill="#FFFFFF" stroke="#815C2D" stroke-width="0.5" stroke-linecap="round" stroke-linejoin="round" cx="22.23" cy="57.965" rx="11.607" ry="11.547"/>
<path fill="#FFFFFF" stroke="#815C2D" stroke-width="0.5" stroke-linecap="round" stroke-linejoin="round" d="M28.349,57.965
	c0,3.359-2.739,6.084-6.117,6.084s-6.117-2.725-6.117-6.084c0-3.363,2.739-6.088,6.117-6.088S28.349,54.602,28.349,57.965z"/>
<path fill="#FFFFFF" stroke="#815C2D" stroke-width="0.5" stroke-linecap="round" stroke-linejoin="round" d="M26.779,57.965
	c0,2.498-2.035,4.521-4.548,4.521c-2.515,0-4.549-2.023-4.549-4.521c0-2.502,2.034-4.527,4.549-4.527
	C24.744,53.438,26.779,55.463,26.779,57.965z"/>
<path fill="#FFFFFF" stroke="#815C2D" stroke-width="0.5" stroke-linecap="round" stroke-linejoin="round" d="M72.038,57.965
	c0,6.375-5.199,11.547-11.606,11.547c-6.412,0-11.611-5.172-11.611-11.547c0-6.379,5.199-11.551,11.611-11.551
	C66.836,46.415,72.038,51.586,72.038,57.965z"/>
<path fill="#FFFFFF" stroke="#815C2D" stroke-width="0.5" stroke-linecap="round" stroke-linejoin="round" d="M66.545,57.965
	c0,3.359-2.739,6.084-6.118,6.084c-3.38,0-6.117-2.725-6.117-6.084c0-3.363,2.737-6.088,6.117-6.088
	C63.806,51.877,66.545,54.602,66.545,57.965z"/>
<path fill="#FFFFFF" stroke="#815C2D" stroke-width="0.5" stroke-linecap="round" stroke-linejoin="round" d="M64.978,57.965
	c0,2.498-2.037,4.521-4.549,4.521c-2.515,0-4.554-2.023-4.554-4.521c0-2.502,2.039-4.527,4.554-4.527
	C62.941,53.438,64.978,55.463,64.978,57.965z"/>
<line fill="none" stroke="#815C2D" stroke-width="0.5" x1="39.069" y1="24.146" x2="43.667" y2="30.354"/>
<line fill="none" stroke="#815C2D" stroke-width="0.5" x1="42.2" y1="23.914" x2="47.017" y2="29.903"/>
<line fill="none" stroke="#815C2D" stroke-width="0.5" x1="22.971" y1="24.292" x2="27.567" y2="30.5"/>
<line fill="none" stroke="#815C2D" stroke-width="0.5" x1="25.65" y1="23.837" x2="30.466" y2="29.831"/>
<line fill="none" stroke="#815C2D" stroke-width="0.5" x1="33.028" y1="32.18" x2="33.028" y2="49.565"/>
</svg>
