<svg version="1.1" id="svg_1_v" valid="1" xmlns="http://www.w3.org/2000/svg" xmlns:xlink="http://www.w3.org/1999/xlink" x="0px" y="0px"
	 width="85.04px" height="85.04px" viewBox="0 0 85.04 85.04" enable-background="new 0 0 85.04 85.04" xml:space="preserve">
	 
<path fill="#FFFFFF" toFill="#ADCB67" stroke="#815C2D" stroke-width="0.5" d="M41.902,61.803c3.592,0,34.042-1.189,36.438-1.189
	c2.395,0,5.106-0.344,4.426-3.578c-0.684-3.23-3.498-21.229-23.973-20.593c-2.562,0.08-3.332-12.394-10.383-15.399
	c-4.678-1.993-13.943-2.644-22.16-1.335c-8.551,1.359-9.766,15.934-11.478,18.317C6.471,40.938,5.399,56.87,5.399,61.803
	C7.451,62.145,41.902,61.803,41.902,61.803z"/>
<path fill="#FFFFFF" toFill="#FFFFFF" stroke="#815C2D" stroke-width="0.5" stroke-linecap="round" stroke-linejoin="round" d="M76.718,60.213
	c0-2.383-2.973-13.041-13.635-13.91c-6.281-0.514-12.06,3.305-15.23,8.693c-2.734,4.645-1.73,4.78-2.689,5.334
	c-3.084,0.25-5.662,0.352-7.029-0.052c-1.024-0.683-3.194-10.5-11.235-12.411c-6.209-1.479-13.458,0.87-16.081,6.78
	c-3.031,6.843-1.931,5.42-2.271,6.782"/>
<path fill="#FFFFFF" toFill="#FFFFFF" stroke="#815C2D" stroke-width="0.5" stroke-linecap="round" stroke-linejoin="round" d="M58.345,36.68
	c0,2.102-0.256,1.783,0.088,3.01c11.973,0,20.271,9.775,21.125,15.38c0.854,5.606,2.564,3.328,2.564,3.328"/>
<path fill="#FFFFFF" toFill="#FFFFFF" stroke="#815C2D" stroke-width="0.5" stroke-linecap="round" stroke-linejoin="round" d="M36.856,37.129
	c0,0,17.032-0.15,17.868-0.15c0.834,0-1.664-11-6.348-13.008c-5.166-2.216-11.746-1.982-11.746-1.982L36.856,37.129z"/>
<path fill="#FFFFFF" toFill="#93C8E9" stroke="#815C2D" stroke-width="0.5" d="M42.869,41.84c0,0.424-0.345,0.768-0.771,0.768h-3.591
	c-0.426,0-0.771-0.344-0.771-0.768l0,0c0-0.422,0.346-0.766,0.771-0.766h3.592C42.524,41.075,42.869,41.418,42.869,41.84
	L42.869,41.84z"/>
<path fill="#FFFFFF" toFill="#FFFFFF" stroke="#815C2D" stroke-width="0.5" stroke-linecap="round" stroke-linejoin="round" d="M32.962,22.045
	c0,0-5.248-0.166-7.551,0.5c-4.242,1.226-7.615,14.73-6.662,14.73h13.719c0.953,0,1.728-0.604,1.728-1.346V23.264
	C34.195,22.522,33.917,22.045,32.962,22.045z"/>
<path fill="#FFFFFF" toFill="#FFFFFF" stroke="#815C2D" stroke-width="0.5" stroke-linecap="round" stroke-linejoin="round" d="M77.187,57.284
	c0,2.211-0.355,4.613,0.479,4.613c0.836,0,6.187-0.184,6.078-2.229C83.576,56.438,77.187,57.284,77.187,57.284z"/>
<path fill="#FFFFFF" toFill="#FFFFFF" stroke="#815C2D" stroke-width="0.5" stroke-linecap="round" stroke-linejoin="round" d="M9.274,57.78
	c0,2.672,0.136,4.52-0.538,4.52c-0.671,0-5.191,0.007-5.105-2.465C3.762,55.932,9.274,57.78,9.274,57.78z"/>
<line fill="#FFFFFF" toFill="#FFFFFF" stroke="#815C2D" stroke-width="0.5" stroke-linecap="round" stroke-linejoin="round" x1="35.746" y1="55.676" x2="47.275" y2="55.676"/>
<line fill="#FFFFFF" toFill="#FFFFFF" stroke="#815C2D" stroke-width="0.5" stroke-linecap="round" stroke-linejoin="round" x1="36.892" y1="57.526" x2="46.476" y2="57.526"/>
<line fill="#FFFFFF" toFill="#FFFFFF" stroke="#815C2D" stroke-width="0.5" stroke-linecap="round" stroke-linejoin="round" x1="37.989" y1="59.35" x2="45.675" y2="59.35"/>
<ellipse fill="#FFFFFF" toFill="#4B6576" stroke="#815C2D" stroke-width="0.5" stroke-linecap="round" stroke-linejoin="round" cx="23.398" cy="61.465" rx="11.607" ry="11.547"/>
<path fill="#FFFFFF" toFill="#FFFFFF" stroke="#815C2D" stroke-width="0.5" stroke-linecap="round" stroke-linejoin="round" d="M29.517,61.465
	c0,3.359-2.739,6.084-6.117,6.084s-6.117-2.725-6.117-6.084c0-3.363,2.739-6.088,6.117-6.088S29.517,58.102,29.517,61.465z"/>
<radialGradient id="SVGID_1_" cx="384.1392" cy="308.4839" r="7.2666" gradientTransform="matrix(0.9771 0 0 0.972 -352.7266 -235.5735)" gradientUnits="userSpaceOnUse">
	<stop  offset="0" style="stop-color:#62AAC8"/>
	<stop  offset="1" style="stop-color:#A9D5F5"/>
</radialGradient>
<path fill="#FFFFFF" toFill="#6CB0CF" stroke="#815C2D" stroke-width="0.5" stroke-linecap="round" stroke-linejoin="round" d="M27.947,61.465
	c0,2.498-2.035,4.522-4.548,4.522c-2.515,0-4.549-2.024-4.549-4.522c0-2.502,2.034-4.527,4.549-4.527
	C25.912,56.938,27.947,58.963,27.947,61.465z"/>
<path fill="#FFFFFF" toFill="#4B6576" stroke="#815C2D" stroke-width="0.5" stroke-linecap="round" stroke-linejoin="round" d="M73.205,61.465
	c0,6.375-5.199,11.547-11.606,11.547c-6.412,0-11.611-5.172-11.611-11.547c0-6.379,5.199-11.551,11.611-11.551
	C68.005,49.915,73.205,55.086,73.205,61.465z"/>
<path fill="#FFFFFF" toFill="#FFFFFF" stroke="#815C2D" stroke-width="0.5" stroke-linecap="round" stroke-linejoin="round" d="M67.714,61.465
	c0,3.359-2.74,6.084-6.119,6.084s-6.117-2.725-6.117-6.084c0-3.363,2.738-6.088,6.117-6.088S67.714,58.102,67.714,61.465z"/>
<radialGradient id="SVGID_2_" cx="423.231" cy="308.4839" r="7.269" gradientTransform="matrix(0.9771 0 0 0.972 -352.7266 -235.5735)" gradientUnits="userSpaceOnUse">
	<stop  offset="0" style="stop-color:#62AAC8"/>
	<stop  offset="1" style="stop-color:#A9D5F5"/>
</radialGradient>
<path fill="#FFFFFF" toFill="#6CB0CF" stroke="#815C2D" stroke-width="0.5" stroke-linecap="round" stroke-linejoin="round" d="M66.146,61.465
	c0,2.498-2.037,4.522-4.549,4.522c-2.514,0-4.553-2.024-4.553-4.522c0-2.502,2.039-4.527,4.553-4.527
	C64.109,56.938,66.146,58.963,66.146,61.465z"/>
<line fill="#FFFFFF" toFill="#FFFFFF" stroke="#815C2D" stroke-width="0.5" x1="40.237" y1="27.646" x2="44.835" y2="33.854"/>
<line fill="#FFFFFF" toFill="#FFFFFF" stroke="#815C2D" stroke-width="0.5" x1="43.367" y1="27.414" x2="48.185" y2="33.404"/>
<line fill="#FFFFFF" toFill="#FFFFFF" stroke="#815C2D" stroke-width="0.5" x1="24.139" y1="27.792" x2="28.735" y2="34"/>
<line fill="#FFFFFF" toFill="#FFFFFF" stroke="#815C2D" stroke-width="0.5" x1="26.818" y1="27.338" x2="31.634" y2="33.331"/>
</svg>
