<?xml version="1.0" encoding="utf-8"?>
<!-- Generator: Adobe Illustrator 15.1.0, SVG Export Plug-In . SVG Version: 6.00 Build 0)  -->
<!DOCTYPE svg PUBLIC "-//W3C//DTD SVG 1.1//EN" "http://www.w3.org/Graphics/SVG/1.1/DTD/svg11.dtd">
<svg version="1.1" id="svg_2_2" xmlns="http://www.w3.org/2000/svg" xmlns:xlink="http://www.w3.org/1999/xlink" x="0px" y="0px"
	 width="85.04px" height="85.04px" viewBox="0 0 85.04 85.04" enable-background="new 0 0 85.04 85.04" xml:space="preserve">
<path fill="#FFFFFF" stroke="#815C2D" stroke-width="0.25" d="M18.994,35.85c0,0-9.615-0.527-9.615,1.063
	c0,1.59,0.155,15.906,6.67,19.09c6.515,3.182,8.22-3.359,8.22-3.359L18.994,35.85z"/>
<path fill="#FFFFFF" stroke="#815C2D" stroke-width="0.25" d="M19.073,35.71c-1.362-0.074-2.728-0.094-4.093-0.084
	c-1.657,0.016-3.68-0.102-5.253,0.617c-0.972,0.445-0.654,1.586-0.608,2.592c0.104,2.313,0.369,4.619,0.811,6.879
	c1.009,5.173,3.226,10.095,8.148,11.177c2.771,0.608,5.644-1.067,6.49-4.224c0.137-0.517-0.615-2.021-0.764-2.5
	c-0.607-1.931-1.213-3.862-1.818-5.79c-0.895-2.846-1.787-5.691-2.682-8.541c-0.068-0.221-0.664-0.117-0.619,0.025
	c1.074,3.422,2.146,6.844,3.223,10.264c0.592,1.887,1.185,3.773,1.775,5.661c0.299,0.948,0.264,1.104-0.205,2.053
	c-1.367,2.755-3.898,3.337-6.441,2.396c-2.506-0.928-4.092-3.264-5.161-5.895c-1.641-4.039-2.143-8.793-2.186-13.209
	c-0.019-1.912,7.897-1.215,9.226-1.143C19.181,36.003,19.496,35.734,19.073,35.71"/>
<path fill="#FFFFFF" stroke="#815C2D" stroke-width="0.25" d="M65.218,52.292c0,0,12.871,10.332,14.578,11.666
	c3.461,2.709,0.155,4.949-4.188,6.895l-15.2,0.178c0,0-16.756,0.705-21.254-3.537s-5.116-6.895-5.116-6.895L65.218,52.292z"/>
<path fill="#FFFFFF" stroke="#815C2D" stroke-width="0.25" d="M64.948,52.354c2.687,2.156,5.371,4.311,8.06,6.463
	c1.7,1.361,3.403,2.727,5.108,4.09c1.651,1.314,4.035,2.975,1.785,5.189c-1.517,1.492-3.55,2.604-5.543,2.627
	c-1.894,0.021-3.787,0.045-5.679,0.064c-2.771,0.029-5.696,0.004-8.399,0.102c-3.703,0.137-7.438,0.014-11.127-0.396
	c-2.476-0.271-4.995-0.686-7.347-1.629c-2.563-1.029-4.604-3.459-6.23-5.861c-0.437-0.646-0.832-1.342-1.123-2.086
	c-0.141-0.357-0.35-0.166-0.078-0.238c0.877-0.236,1.756-0.469,2.636-0.703c3.729-0.994,7.462-1.99,11.204-2.982
	c5.719-1.525,11.438-3.051,17.157-4.574c0.394-0.104-0.125-0.299-0.31-0.25l-31.18,8.311c-0.031,0.01-0.173,0.047-0.154,0.117
	c0.356,1.445,1.396,2.752,2.246,3.838c1.6,2.041,3.344,3.803,5.619,4.717c4.263,1.709,9.067,1.896,13.542,2.031
	c6.094,0.184,12.104-0.088,18.34-0.158c0.701-0.008,1.4-0.021,2.104-0.025c0.666-0.006,1.433-0.586,2.022-0.891
	c0.998-0.504,1.968-1.092,2.832-1.852c2.728-2.396-0.539-4.484-2.267-5.865c-4.233-3.377-8.459-6.771-12.684-10.16
	C65.351,52.118,64.763,52.208,64.948,52.354"/>
<path fill="#FFFFFF" stroke="#815C2D" stroke-width="0.25" d="M65.653,49.965c-1.099-4.709-2.231-8.04-4.166-12.356
	c-1.156-2.586-1.644-5.455-2.681-8.066c-3.213-8.078-13.767-5.322-19.875-5.068c-4.545-3.063-12.064-5.186-17.154-2.527
	c-2.531,1.324-3.893,3.918-4.53,6.906c-0.181,0.852-1.151,8.27-0.632,8.641C27.468,45.21,47.343,56.247,65.653,49.965"/>
<path fill="#FFFFFF" stroke="#815C2D" stroke-width="0.25" d="M65.952,49.956c-0.972-4.12-2.272-8.045-3.942-11.864
	c-1.528-3.496-1.931-7.924-4.25-10.896c-3.16-4.055-8.978-3.697-13.268-3.35c-1.239,0.1-2.475,0.236-3.709,0.35
	c-0.555,0.053-1.108,0.092-1.664,0.125c-0.571,0.031-1.737-0.996-2.278-1.273c-2.806-1.436-5.876-2.27-8.945-2.436
	c-2.769-0.148-5.764,0.404-7.994,2.391c-1.858,1.656-2.769,4.346-3.135,6.922c-0.28,1.975-0.515,3.973-0.602,5.967
	c-0.021,0.482-0.089,1.117,0.11,1.57c0.256,0.576,1.58,1.139,2.055,1.461c4.442,3.021,9.099,5.689,13.92,7.83
	c10.646,4.721,22.448,7.077,33.614,3.334c0.31-0.104-0.274-0.287-0.424-0.236c-14.832,4.975-30.544-0.938-43.612-9.1
	c-1.221-0.764-2.427-1.561-3.621-2.379c-0.412-0.283-1.311-0.639-1.401-1.199c-0.079-0.48-0.029-1.008-0.011-1.492
	c0.099-2.232,0.355-4.52,0.746-6.717c1.767-9.938,12.125-8.918,18.49-5.93c1.158,0.543,2.227,1.629,3.498,1.559
	c1.492-0.084,2.979-0.266,4.466-0.402c3.435-0.316,7.129-0.592,10.39,0.891c3.992,1.809,4.703,6.432,6.041,10.559
	c0.791,2.438,1.976,4.707,2.846,7.113c0.849,2.351,1.505,4.78,2.082,7.228C65.392,50.163,66.005,50.176,65.952,49.956"/>
<path fill="#FFFFFF" stroke="#815C2D" stroke-width="0.25" d="M18.527,60.7c29.813,6.906,55.038,10.711,50.339,0.424
	c-0.97-2.119-2.149-6.592-3.215-11.156c-18.31,6.279-38.185-4.754-49.036-12.473C16.222,47.014,18.527,60.7,18.527,60.7"/>
<path fill="#FFFFFF" stroke="#815C2D" stroke-width="0.25" d="M18.377,60.831c7.994,1.852,16.013,3.588,24.083,4.945
	c5.85,0.984,11.801,1.887,17.719,1.814c2.688-0.031,6.885,0.096,8.918-2.381c0.711-0.861,0.752-2.01,0.463-3.092
	c-0.283-1.037-0.801-2.004-1.146-3.018c-0.703-2.064-1.244-4.211-1.773-6.342c-0.234-0.936-0.457-1.875-0.678-2.818
	c-0.041-0.18-0.367-0.123-0.471-0.088c-16.691,5.59-34.497-2.445-48.609-12.454c-0.105-0.074-0.566-0.104-0.575,0.111
	c-0.285,7.721,0.642,15.627,1.912,23.206c0.035,0.213,0.648,0.135,0.619-0.043c-1.271-7.576-2.198-15.484-1.912-23.206
	c-0.191,0.037-0.383,0.074-0.573,0.111C30.739,47.782,48.825,55.77,65.815,50.077c-0.158-0.029-0.313-0.063-0.474-0.09
	c0.836,3.57,1.655,7.227,2.979,10.611c0.504,1.289,1.162,2.604,0.541,4.002c-0.545,1.225-1.896,1.736-2.975,2.062
	c-2.006,0.604-4.162,0.651-6.225,0.646c-5.945-0.009-11.902-0.943-17.778-1.943c-7.777-1.325-15.504-3.02-23.209-4.803
	C18.491,60.52,17.982,60.739,18.377,60.831"/>
<path fill="#FFFFFF" stroke="#815C2D" stroke-width="0.25" d="M38.766,24.413c0,0,10.613,7.979,13.387,8.02"/>
<path fill="#FFFFFF" stroke="#815C2D" stroke-width="0.25" d="M38.697,24.432c1.973,1.482,3.99,2.896,6.033,4.25
	c1.476,0.979,2.976,1.912,4.521,2.732c0.908,0.48,1.926,1.029,2.939,1.082c0.148,0.008-0.014-0.125-0.082-0.129
	c-1.205-0.064-2.408-0.818-3.473-1.404c-1.551-0.857-3.047-1.836-4.534-2.832c-1.783-1.195-3.543-2.443-5.271-3.74
	C38.775,24.346,38.572,24.337,38.697,24.432"/>
<path fill="#FFFFFF" stroke="#815C2D" stroke-width="0.25" d="M9.379,36.915c0,0-0.967,24.314,66.229,33.938
	c0,0-25.104,4.393-55.527-6.717C17.249,63.1,11.088,61.661,9.07,59.01C8.451,58.196,4.262,39.564,9.379,36.915"/>
<path fill="#FFFFFF" stroke="#815C2D" stroke-width="0.25" d="M9.069,36.913c-0.052,1.371,0.456,2.846,0.938,4.063
	c1.545,3.886,4.352,7.022,7.271,9.593c5.974,5.265,13.171,8.652,20.278,11.354c5.544,2.105,11.229,3.742,16.944,5.121
	c3.432,0.828,6.883,1.545,10.344,2.191c1.888,0.354,3.775,0.68,5.67,0.986c1.609,0.264,3.512,0.744,4.977,0.496
	c-7.334,1.234-14.961,1.041-22.328,0.465c-7.547-0.588-15.05-1.898-22.413-3.854c-3.897-1.035-7.694-2.402-11.537-3.668
	c-2.906-0.959-5.983-1.713-8.598-3.527c-1.373-0.951-1.584-1.982-1.969-3.648c-0.498-2.156-0.859-4.357-1.125-6.566
	c-0.298-2.461-0.448-4.967-0.252-7.444c0.156-1.969,0.618-4.5,2.332-5.461c0.294-0.166-0.297-0.279-0.439-0.201
	c-3.307,1.855-2.716,8.145-2.427,11.52c0.21,2.438,0.598,4.869,1.094,7.256c0.213,1.021,0.367,2.582,0.943,3.459
	c1.386,2.111,4.491,2.973,6.563,3.697c3.203,1.129,6.435,2.213,9.661,3.24c7.448,2.381,15.084,3.994,22.779,4.945
	c9.133,1.131,18.784,1.645,27.913,0.061c0.265-0.049,0.277-0.234,0-0.271c-13.409-1.935-26.896-4.654-39.691-9.771
	c-6.818-2.729-13.673-6.218-19.276-11.517c-2.546-2.408-4.897-5.332-6.229-8.826c-0.424-1.109-0.848-2.451-0.803-3.691
	C9.697,36.717,9.078,36.706,9.069,36.913"/>
<path fill="#FFFFFF" stroke="#815C2D" stroke-width="0.25" stroke-linecap="round" stroke-linejoin="round" d="M32.626,57.821
	c-2.65-4.432-6.279-8.305-8.949-12.928c-2.549-4.41-5.232-10.342-6.033-15.602c-0.357-2.352,0.135-4.459-1.032-5.75
	c3.643,4.031,6.991,8.531,9.901,13.266c2.197,3.578,4.338,7.453,5.494,11.652c1.102,4.002,0.734,7.844,1.943,11.813
	C33.547,59.434,33.103,58.616,32.626,57.821z"/>
<path fill="none" stroke="#815C2D" stroke-width="0.2" d="M16.947,24.567c6.033,11.625,11.809,23.498,16.891,35.701
	c0.029,0.07,0.25,0.074,0.223,0.01c-5.08-12.201-10.854-24.074-16.891-35.699C17.136,24.512,16.917,24.512,16.947,24.567"/>
</svg>
