<svg version="1.1" id="svg_2_v" valid="1" xmlns="http://www.w3.org/2000/svg" xmlns:xlink="http://www.w3.org/1999/xlink" x="0px" y="0px"
	 width="85.04px" height="85.04px" viewBox="0 0 85.04 85.04" enable-background="new 0 0 85.04 85.04" xml:space="preserve">
	 
<path fill="#FFFFFF" toFill="#6D93A6" stroke="#815C2D" stroke-width="0.25" d="M17.524,32.08c0,0-9.615-0.527-9.615,1.063s0.155,15.906,6.67,19.09
	c6.515,3.182,8.22-3.359,8.22-3.359L17.524,32.08z"/>
<path fill="#FFFFFF" toFill="#426677" stroke="#815C2D" stroke-width="0.25" d="M17.603,31.941c-1.362-0.074-2.728-0.094-4.093-0.084
	c-1.657,0.016-3.68-0.102-5.253,0.617c-0.972,0.445-0.654,1.586-0.608,2.592c0.104,2.313,0.369,4.619,0.811,6.879
	c1.009,5.173,3.226,10.095,8.148,11.177c2.771,0.608,5.644-1.068,6.49-4.224c0.137-0.517-0.615-2.021-0.764-2.5
	c-0.607-1.931-1.213-3.862-1.818-5.79c-0.895-2.846-1.787-5.691-2.682-8.541c-0.068-0.221-0.664-0.117-0.619,0.025
	c1.074,3.422,2.146,6.844,3.223,10.264c0.592,1.887,1.185,3.773,1.775,5.661c0.299,0.948,0.264,1.104-0.205,2.053
	c-1.367,2.755-3.898,3.337-6.441,2.396c-2.506-0.928-4.092-3.264-5.161-5.895c-1.641-4.04-2.143-8.793-2.186-13.209
	c-0.019-1.912,7.897-1.215,9.226-1.143C17.711,32.234,18.026,31.965,17.603,31.941"/>
<path fill="#FFFFFF" toFill="#95B7C7" stroke="#815C2D" stroke-width="0.25" d="M63.749,48.522c0,0,12.871,10.332,14.578,11.666
	c3.461,2.709,0.155,4.949-4.188,6.895L58.939,67.26c0,0-16.756,0.705-21.254-3.537s-5.116-6.895-5.116-6.895L63.749,48.522z"/>
<path fill="#FFFFFF" toFill="#426677" stroke="#815C2D" stroke-width="0.25" d="M63.478,48.584c2.687,2.156,5.371,4.311,8.06,6.463
	c1.7,1.361,3.403,2.727,5.108,4.09c1.651,1.314,4.035,2.975,1.785,5.189c-1.517,1.493-3.55,2.604-5.543,2.627
	c-1.894,0.021-3.787,0.045-5.679,0.065c-2.771,0.03-5.696,0.004-8.399,0.101c-3.703,0.137-7.438,0.014-11.127-0.396
	c-2.476-0.271-4.995-0.686-7.347-1.629c-2.563-1.029-4.604-3.459-6.23-5.861c-0.437-0.646-0.832-1.342-1.123-2.086
	c-0.141-0.357-0.35-0.166-0.078-0.238c0.877-0.236,1.756-0.469,2.636-0.703c3.729-0.994,7.463-1.99,11.204-2.983
	c5.719-1.525,11.438-3.05,17.157-4.574c0.394-0.104-0.125-0.299-0.31-0.25l-31.18,8.31c-0.031,0.01-0.173,0.047-0.154,0.117
	c0.356,1.446,1.396,2.752,2.246,3.838c1.6,2.041,3.344,3.803,5.619,4.717c4.263,1.709,9.067,1.897,13.542,2.031
	c6.094,0.184,12.104-0.088,18.34-0.158c0.701-0.008,1.4-0.021,2.104-0.025c0.666-0.006,1.433-0.586,2.022-0.891
	c0.998-0.504,1.968-1.092,2.832-1.851c2.728-2.396-0.539-4.485-2.266-5.866c-4.234-3.377-8.459-6.771-12.684-10.16
	C63.881,48.348,63.293,48.438,63.478,48.584"/>
<path fill="#FFFFFF" toFill="#95B7C7" stroke="#815C2D" stroke-width="0.25" d="M64.183,46.196c-1.099-4.709-2.231-8.04-4.166-12.356
	c-1.156-2.586-1.644-5.455-2.681-8.066c-3.213-8.078-13.766-5.322-19.875-5.068c-4.545-3.063-12.064-5.186-17.154-2.527
	c-2.531,1.324-3.893,3.918-4.53,6.906c-0.181,0.852-1.151,8.27-0.632,8.641C25.998,41.441,45.874,52.477,64.183,46.196"/>
<path fill="#FFFFFF" toFill="#426677" stroke="#815C2D" stroke-width="0.25" d="M64.482,46.186c-0.972-4.12-2.272-8.045-3.942-11.864
	c-1.529-3.496-1.931-7.924-4.25-10.896c-3.16-4.055-8.978-3.697-13.268-3.35c-1.24,0.1-2.475,0.236-3.709,0.35
	c-0.555,0.053-1.108,0.092-1.664,0.125c-0.571,0.031-1.737-0.996-2.278-1.273c-2.806-1.436-5.876-2.27-8.945-2.436
	c-2.769-0.148-5.764,0.404-7.994,2.391c-1.858,1.656-2.769,4.346-3.135,6.922c-0.28,1.975-0.515,3.973-0.602,5.967
	c-0.021,0.482-0.089,1.117,0.11,1.57c0.256,0.576,1.58,1.139,2.055,1.461c4.442,3.021,9.099,5.689,13.92,7.83
	c10.646,4.721,22.448,7.077,33.614,3.334c0.31-0.104-0.274-0.287-0.424-0.236c-14.832,4.974-30.544-0.938-43.612-9.1
	c-1.221-0.764-2.427-1.561-3.621-2.379c-0.412-0.283-1.311-0.639-1.401-1.199c-0.079-0.48-0.029-1.008-0.011-1.492
	c0.099-2.232,0.355-4.52,0.746-6.717c1.767-9.938,12.125-8.918,18.49-5.93c1.158,0.543,2.227,1.629,3.498,1.559
	c1.492-0.084,2.979-0.266,4.466-0.402c3.435-0.316,7.129-0.592,10.39,0.891c3.992,1.809,4.703,6.432,6.041,10.559
	c0.791,2.438,1.975,4.707,2.846,7.113c0.848,2.35,1.504,4.78,2.082,7.228C63.922,46.393,64.536,46.407,64.482,46.186"/>
<path fill="#FFFFFF" toFill="#AD5A8A" stroke="#815C2D" stroke-width="0.25" d="M17.057,56.93c29.812,6.906,55.038,10.711,50.339,0.424
	c-0.97-2.119-2.149-6.592-3.215-11.156c-18.31,6.279-38.185-4.754-49.036-12.473C14.752,43.245,17.057,56.93,17.057,56.93"/>
<path fill="#FFFFFF" toFill="#804864" stroke="#815C2D" stroke-width="0.25" d="M16.907,57.061c7.994,1.852,16.013,3.588,24.083,4.945
	c5.85,0.984,11.801,1.887,17.719,1.815c2.688-0.032,6.885,0.095,8.918-2.381c0.711-0.862,0.752-2.01,0.463-3.092
	c-0.283-1.037-0.801-2.004-1.146-3.017c-0.703-2.065-1.244-4.211-1.773-6.342c-0.235-0.936-0.457-1.875-0.678-2.818
	c-0.041-0.18-0.367-0.123-0.471-0.088c-16.691,5.59-34.497-2.446-48.609-12.454c-0.105-0.074-0.566-0.104-0.575,0.111
	c-0.285,7.721,0.642,15.627,1.912,23.206c0.035,0.213,0.648,0.135,0.619-0.043c-1.271-7.576-2.198-15.485-1.912-23.206
	c-0.191,0.037-0.383,0.074-0.573,0.111C29.269,44.012,47.355,52,64.345,46.307c-0.158-0.029-0.313-0.062-0.474-0.09
	c0.836,3.57,1.656,7.227,2.979,10.611c0.504,1.289,1.162,2.604,0.541,4.002c-0.545,1.225-1.896,1.737-2.974,2.062
	c-2.006,0.605-4.162,0.652-6.225,0.645c-5.945-0.008-11.902-0.942-17.778-1.942c-7.777-1.326-15.504-3.021-23.209-4.804
	C17.021,56.75,16.512,56.969,16.907,57.061"/>
<path fill="#FFFFFF" toFill="#95B7C7" stroke="#815C2D" stroke-width="0.25" d="M37.296,20.643c0,0,10.613,7.979,13.387,8.02"/>
<path fill="#FFFFFF" toFill="#426677" stroke="#815C2D" stroke-width="0.25" d="M37.227,20.662c1.973,1.482,3.99,2.896,6.033,4.25
	c1.476,0.979,2.976,1.912,4.521,2.732c0.909,0.48,1.926,1.029,2.94,1.082c0.149,0.008-0.013-0.125-0.082-0.129
	c-1.205-0.064-2.408-0.818-3.472-1.404c-1.551-0.857-3.047-1.836-4.535-2.832c-1.783-1.195-3.543-2.443-5.271-3.74
	C37.305,20.576,37.102,20.568,37.227,20.662"/>
<path fill="#FFFFFF" toFill="#95B7C7" stroke="#815C2D" stroke-width="0.25" d="M7.909,33.145c0,0-0.967,24.314,66.229,33.938
	c0,0-25.104,4.392-55.527-6.717c-2.832-1.035-8.993-2.475-11.011-5.125C6.981,54.426,2.792,35.795,7.909,33.145"/>
<path fill="#FFFFFF" toFill="#426677" stroke="#815C2D" stroke-width="0.25" d="M7.599,33.143c-0.052,1.371,0.456,2.846,0.938,4.063
	c1.545,3.887,4.352,7.022,7.271,9.593c5.974,5.265,13.171,8.652,20.278,11.354c5.545,2.106,11.229,3.742,16.944,5.121
	c3.432,0.828,6.883,1.545,10.344,2.192c1.887,0.354,3.775,0.679,5.67,0.986c1.609,0.264,3.511,0.744,4.976,0.496
	c-7.334,1.234-14.961,1.041-22.328,0.465c-7.547-0.588-15.05-1.899-22.413-3.854c-3.897-1.035-7.694-2.402-11.537-3.668
	c-2.906-0.959-5.983-1.713-8.598-3.527c-1.373-0.951-1.584-1.982-1.969-3.648c-0.498-2.157-0.859-4.358-1.125-6.567
	c-0.298-2.461-0.448-4.967-0.252-7.444c0.156-1.969,0.618-4.5,2.332-5.461c0.294-0.166-0.297-0.279-0.439-0.201
	c-3.307,1.855-2.716,8.145-2.427,11.52c0.21,2.438,0.598,4.869,1.094,7.256c0.213,1.022,0.367,2.582,0.943,3.459
	c1.386,2.111,4.491,2.972,6.563,3.697c3.203,1.129,6.435,2.213,9.661,3.241c7.448,2.38,15.084,3.994,22.779,4.945
	c9.133,1.131,18.785,1.644,27.914,0.06c0.264-0.048,0.277-0.234,0-0.271c-13.41-1.935-26.896-4.654-39.692-9.771
	c-6.818-2.73-13.673-6.217-19.276-11.516c-2.546-2.408-4.897-5.333-6.229-8.826c-0.424-1.109-0.848-2.451-0.803-3.691
	C8.227,32.947,7.608,32.936,7.599,33.143"/>
	
	<g id="clickMark_2_v" class="none">
		<path fill="#FFFFFF" d="M83.978,42.521c0,22.892-18.561,41.454-41.459,41.454c-22.895,0-41.457-18.562-41.457-41.454 c0-22.899,18.562-41.457,41.457-41.457C65.417,1.064,83.978,19.623,83.978,42.521z" />
		<path fill="none" stroke="#000000" stroke-width="0.9447" d="M42.519,73.262c16.982,0,30.749-13.76,30.749-30.741 c0-16.98-13.767-30.74-30.749-30.74c-16.981,0-30.745,13.76-30.745,30.74C11.772,59.502,25.537,73.262,42.519,73.262z" />
		<path fill="#D7DF23" stroke="#000000" stroke-width="0.8879" d="M42.519,73.262c16.982,0,30.749-13.76,30.749-30.741 c0-16.98-13.767-30.74-30.749-30.74c-16.981,0-30.745,13.76-30.745,30.74C11.772,59.502,25.537,73.262,42.519,73.262" />
		<path fill="#009444" d="M61.976,26.239c0,0.923-0.524,1.787-1.572,2.587c-1.356,1.11-2.188,1.91-2.495,2.403L43.209,54.614 c-1.108,1.972-2.188,3.943-3.236,5.912c-1.724,2.527-3.481,3.789-5.268,3.789c-0.8,0-1.617-0.229-2.447-0.692 c-0.833-0.459-1.312-1.338-1.435-2.634c-0.246-1.786-0.493-2.926-0.739-3.418l-4.621-9.43c-0.185-0.369-1.017-1.416-2.496-3.143 c-0.864-1.109-1.202-2.277-1.015-3.511c0.185-1.54,0.891-2.895,2.126-4.066c1.229-1.17,2.555-1.755,3.972-1.755 c0.616,0,1.234,0.122,1.849,0.368c0.309,0.125,0.741,0.958,1.294,2.496c0.74,2.095,1.265,3.482,1.572,4.159l3.326,6.192 l13.405-21.719c0.678-1.293,1.354-2.618,2.035-3.975c0.983-1.355,2.187-2.033,3.604-2.033c1.537,0,3.064,0.555,4.574,1.666 C61.218,23.93,61.976,25.067,61.976,26.239z" />
	</g>
</svg>
