<svg version="1.1" id="svg_0" xmlns="http://www.w3.org/2000/svg" xmlns:xlink="http://www.w3.org/1999/xlink" x="0px" y="0px"
	 width="85.04px" height="85.04px" viewBox="0 0 85.04 85.04" enable-background="new 0 0 85.04 85.04" xml:space="preserve">
<g>
	<polygon fill="#387ABA" points="44.776,64.245 43.604,64.032 45.131,55.53 46.305,55.745 	"/>
	<g>
		<path fill="#040402" d="M44.934,64.136c-0.361-0.065-0.725-0.132-1.086-0.197c0.145,0.026,0.1-0.069,0.143-0.31
			c0.17-0.95,0.34-1.9,0.512-2.851c0.314-1.75,0.629-3.5,0.943-5.25c-0.158,0.036-0.314,0.072-0.473,0.108
			c0.359,0.066,0.725,0.133,1.086,0.197c-0.145-0.024-0.1,0.072-0.143,0.312c-0.17,0.95-0.342,1.899-0.512,2.851
			c-0.313,1.748-0.629,3.498-0.945,5.248c-0.025,0.151,0.596,0.193,0.631,0c0.51-2.834,1.02-5.666,1.527-8.5
			c0.012-0.063-0.117-0.103-0.154-0.108c-0.393-0.071-0.783-0.144-1.176-0.216c-0.105-0.02-0.441-0.057-0.473,0.108
			c-0.508,2.835-1.018,5.669-1.527,8.503c-0.01,0.062,0.117,0.102,0.156,0.107c0.391,0.07,0.781,0.143,1.172,0.213
			C44.801,64.386,45.331,64.208,44.934,64.136z"/>
	</g>
</g>
<g>
	<path fill="#387ABA" d="M45.276,63.54c0,0.459-0.881,0.834-1.955,0.834s-1.957-0.375-1.957-0.834c0-0.463,0.883-0.84,1.957-0.84
		C44.397,62.7,45.276,63.077,45.276,63.54z"/>
	<g>
		<path fill="#040402" d="M44.981,63.435c-0.162,1.028-2.922,1.069-3.301,0.286c-0.355-0.736,3.104-1.493,3.301-0.251
			c0.029,0.179,0.621,0.321,0.594,0.139c-0.223-1.405-4.287-1.552-4.506-0.174c-0.115,0.731,1.416,0.999,1.848,1.063
			c0.682,0.102,2.506,0.092,2.656-0.854C45.604,63.45,45.006,63.282,44.981,63.435z"/>
	</g>
</g>
<g>
	<path fill="#5A3E09" d="M30.985,57.161c0,5.59-4.531,10.123-10.123,10.123S10.739,62.75,10.739,57.161
		c0-5.594,4.531-10.127,10.123-10.127S30.985,51.567,30.985,57.161z"/>
	<g>
		<path fill="#040402" d="M30.69,57.059c-0.154,4.594-2.963,8.345-7.371,9.715c-6.08,1.891-11.662-2.986-12.258-8.854
			c-0.484-4.778,2.945-9.008,7.346-10.377c6.383-1.984,12.076,3.408,12.283,9.551c0.006,0.17,0.6,0.334,0.594,0.133
			c-0.172-5.074-3.938-9.725-9.16-10.255c-6.205-0.63-11.467,3.786-11.68,10.087c-0.17,5.07,4.156,9.777,9.16,10.286
			c6.201,0.63,11.467-3.785,11.68-10.083C31.29,57.056,30.694,56.922,30.69,57.059z"/>
	</g>
</g>
<g>
	<circle fill="#FFFFFF" cx="20.862" cy="57.161" r="6.695"/>
	<g>
		<path fill="#040402" d="M27.245,57.113c-0.139,2.757-1.539,4.908-4.035,6.111c-4.5,2.169-8.523-1.879-8.732-6.017
			c-0.137-2.694,1.727-5,4.037-6.112C23.018,48.926,27.036,52.975,27.245,57.113c0.012,0.199,0.629,0.247,0.621,0.097
			c-0.445-8.822-13.559-9.021-14.01-0.097c-0.445,8.833,13.561,8.974,14.01,0.097C27.875,57.018,27.254,56.948,27.245,57.113z"/>
	</g>
</g>
<g>
	<path fill="#A0CECB" d="M16.301,43.745c0,0,0.447,13.853,0.744,14.303c0.299,0.443,1.191-0.746,1.191-0.746l0.297-13.557H16.301z"
		/>
	<g>
		<path fill="#040402" d="M15.999,43.659c0.098,2.993,0.211,5.985,0.352,8.977c0.047,1.02-0.461,5.4,0.98,5.645
			c1.943,0.328,1.293-4.734,1.311-5.474c0.064-2.992,0.131-5.983,0.195-8.976c0.004-0.161-0.307-0.232-0.426-0.232
			c-0.744,0-1.488,0-2.232,0c-0.406,0,0.053,0.295,0.246,0.295c0.596,0,1.191,0,1.791,0c0.354,0,0.021-0.417,0.006,0.322
			c-0.029,1.343-0.061,2.685-0.088,4.025c-0.064,2.961-0.131,5.922-0.195,8.881c-0.008,0.391-0.764,0.539-0.611,0.922
			c-0.135-0.338-0.107-0.806-0.139-1.162c-0.141-1.684-0.203-3.377-0.279-5.063c-0.121-2.661-0.219-5.323-0.307-7.986
			C16.596,43.624,15.993,43.524,15.999,43.659z"/>
	</g>
</g>
<g>
	<path fill="#95C7AC" d="M24.727,57.161c0,2.133-1.73,3.863-3.863,3.863c-2.135,0-3.867-1.73-3.867-3.863
		c0-2.137,1.732-3.869,3.867-3.869C22.997,53.292,24.727,55.024,24.727,57.161z"/>
	<g>
		<path fill="#040402" d="M24.413,57.136c-0.09,1.668-0.971,2.968-2.543,3.585c-2.492,0.979-4.443-1.379-4.563-3.536
			c-0.088-1.634,1.104-3.022,2.547-3.591C22.352,52.616,24.297,54.979,24.413,57.136c0.012,0.192,0.635,0.211,0.625,0.049
			c-0.277-5.187-8.072-5.283-8.354-0.049c-0.279,5.18,8.076,5.252,8.354,0.049C25.049,57.002,24.424,56.959,24.413,57.136z"/>
	</g>
</g>
<g>
	<path fill="#F6F5D9" d="M18.198,44.413c-2.457,0.664-5.105,3.563-5.875,5.127c-1.385,2.844-4.367,4.783-5.105,4.338
		c-0.746-0.45-0.305-2.301,0.443-3.873c0.746-1.577,0.971-4.104,1.395-5.411c0.422-1.31-3.668-0.796-2.475-2.329
		c1.193-1.531,9.539-1.191,9.539-1.191l2.777,0.713L18.198,44.413z"/>
	<g>
		<path fill="#040402" d="M17.991,44.293c-1.877,0.642-3.316,1.847-4.645,3.295c-1.756,1.918-2.492,4.207-4.762,5.729
			c-2.117,1.421-0.83-2.766-0.613-3.271c0.488-1.135,0.725-2.334,0.963-3.541c0.184-0.924,1.002-2.313-0.225-2.765
			c-0.445-0.164-2.342-0.555-1.834-1.402c0.406-0.683,1.865-0.787,2.527-0.892c1.855-0.293,3.768-0.288,5.641-0.271
			c1.117,0.012,1.902,0.242,3.035,0.533c0.764,0.196,0.52-0.008,0.326,0.715c-0.174,0.648-0.346,1.299-0.518,1.947
			c-0.043,0.156,0.57,0.271,0.621,0.084c0.232-0.876,0.467-1.752,0.697-2.628c0.023-0.086-0.162-0.138-0.211-0.15
			c-2.748-0.706-4.992-0.839-7.857-0.684c-1.484,0.08-3.369,0.141-4.648,1.003c-0.949,0.639-0.154,1.255,0.525,1.502
			c1.352,0.492,1.756,0.789,1.436,2.228c-0.389,1.753-0.73,3.38-1.445,5.039c-0.33,0.767-1.109,3.265,0.486,3.306
			c1.568,0.04,3.043-1.602,3.959-2.65c0.834-0.953,1.311-2.158,2.064-3.174c1.223-1.643,2.949-3.053,4.891-3.715
			C18.721,44.422,18.145,44.243,17.991,44.293z"/>
	</g>
</g>
<g>
	<path fill="#5186C2" d="M17.792,35.398c-1.344-0.443-10.877-1.342-10.877,0.6c0,1.936,1.791,5.812,3.129,6.703
		c1.342,0.894,5.813-0.15,5.813-0.15"/>
	<g>
		<path fill="#040402" d="M17.827,35.277c-2.063-0.595-4.424-0.607-6.549-0.624c-1.004-0.008-4.443-0.231-4.666,1.26
			c-0.303,2.054,1.645,6.033,3.537,6.995c1.658,0.844,4.252,0.163,5.949-0.224c0.211-0.048-0.326-0.305-0.488-0.268
			c-1.867,0.425-4.746,1.138-6.127-0.557c-0.748-0.917-3.279-5.254-1.918-6.321c1.229-0.964,3.883-0.611,5.311-0.563
			c1.598,0.055,3.34,0.098,4.883,0.544C18.114,35.623,18.182,35.379,17.827,35.277L17.827,35.277z"/>
	</g>
</g>
<g>
	<path fill="#5186C2" d="M44.756,51.491c0,0,0.596-2.979-0.301-4.916c-0.895-1.936-2.828-4.17-1.189-6.258
		c1.639-2.084,0.895-3.426,0-4.318l-16.537-1.492l1.639,6.701l11.619,9.982L44.756,51.491z"/>
	<g>
		<path fill="#040402" d="M45.067,51.512c0.25-1.352,0.404-3.032-0.082-4.342c-0.43-1.162-1.096-2.211-1.629-3.328
			c-0.961-2.016,0.229-3.151,1.025-4.901c0.904-1.987-0.674-3.029-2.242-3.171c-5.135-0.463-10.27-0.927-15.402-1.39
			c-0.043-0.004-0.348-0.001-0.322,0.104c0.293,1.197,0.586,2.394,0.881,3.59c0.221,0.907,0.287,2.336,0.77,3.146
			c0.277,0.468,1.033,0.896,1.438,1.242c1.215,1.044,2.43,2.089,3.645,3.132c2.143,1.841,4.283,3.681,6.424,5.52
			c1.002,0.861,3.898,0.424,5.178,0.504c0.369,0.022,0.389-0.228,0.018-0.25c-1.029-0.066-2.063-0.131-3.09-0.195
			c-1.119-0.07-1.295,0.076-1.795-0.354c-1.938-1.663-3.871-3.325-5.807-4.987c-1.764-1.516-3.525-3.03-5.289-4.545
			c-0.428-0.367-0.498-1.67-0.637-2.232c-0.338-1.385-0.676-2.77-1.016-4.153c-0.1-0.412-0.146-0.243-0.334-0.261
			c0.268,0.024,0.535,0.049,0.805,0.073c1.184,0.106,2.369,0.214,3.553,0.32c2.98,0.269,5.959,0.538,8.939,0.807
			c0.898,0.081,1.801,0.162,2.701,0.243c1.887,0.171,0.783,3.278,0.17,4.182c-1.328,1.959-0.139,3.853,0.855,5.669
			c0.932,1.697,0.965,3.673,0.621,5.537C44.413,51.631,45.034,51.702,45.067,51.512z"/>
	</g>
</g>
<g>
	<path fill="#F8CD02" d="M28.963,38.68c3.275,0.598,6.406-0.299,9.088,0.598c2.684,0.893,6.26,1.787,7.002,0.445
		c0.744-1.342-0.17-6.635-3.127-7.301c-2.959-0.666-4.32,0.148-7.303-0.297c-2.979-0.449-18.176-4.174-18.922-1.787
		c-0.742,2.379-1.338,5.213,1.939,6.85C20.918,38.829,28.963,38.68,28.963,38.68z"/>
	<g>
		<path fill="#040402" d="M29.012,38.818c3.213,0.463,6.473-0.238,9.613,0.776c1.621,0.523,3.295,0.938,5.004,0.952
			c2.936,0.024,1.938-3.717,1.273-5.419c-1.047-2.681-3.508-3.245-6.16-3.112c-3.816,0.191-7.219-0.643-10.936-1.357
			c-3.178-0.612-6.428-1.235-9.674-1.257c-2.756-0.019-3.26,1.284-3.316,4.036c-0.119,5.862,10.553,5.445,14.271,5.388
			c0.406-0.007-0.059-0.294-0.25-0.291c-4.689,0.073-14.443,0.31-13.252-6.541c0.457-2.626,2.191-2.393,4.506-2.233
			c2.803,0.193,5.592,0.746,8.344,1.276c1.934,0.372,3.857,0.798,5.795,1.152c3.295,0.604,7.875-1.098,9.85,2.38
			c0.639,1.123,0.887,2.509,0.914,3.782c0.061,2.596-3.043,1.865-4.789,1.44c-1.262-0.308-2.479-0.874-3.783-0.989
			c-2.51-0.222-5.006,0.101-7.51-0.261C28.489,38.48,28.745,38.779,29.012,38.818z"/>
	</g>
</g>
<g>
	<path fill="#5A3E09" d="M78.663,57.161c0,5.59-4.527,10.123-10.115,10.123c-5.598,0-10.131-4.533-10.131-10.123
		c0-5.594,4.533-10.127,10.131-10.127C74.135,47.034,78.663,51.567,78.663,57.161z"/>
	<g>
		<path fill="#040402" d="M78.366,57.059c-0.152,4.592-2.961,8.344-7.365,9.715c-6.08,1.893-11.668-2.986-12.264-8.854
			c-0.484-4.78,2.949-9.01,7.354-10.377c6.381-1.983,12.068,3.408,12.275,9.551c0.006,0.17,0.602,0.334,0.594,0.133
			c-0.17-5.072-3.934-9.725-9.154-10.255c-6.205-0.63-11.473,3.786-11.686,10.087c-0.17,5.072,4.16,9.777,9.166,10.286
			c6.201,0.629,11.461-3.786,11.674-10.083C78.967,57.056,78.372,56.922,78.366,57.059z"/>
	</g>
</g>
<g>
	<path fill="#FFFFFF" d="M75.239,57.161c0,3.695-3.002,6.693-6.691,6.693c-3.705,0-6.701-2.998-6.701-6.693
		c0-3.699,2.996-6.695,6.701-6.695C72.237,50.465,75.239,53.461,75.239,57.161z"/>
	<g>
		<path fill="#040402" d="M74.926,57.176c-0.209,4.16-3.658,7.433-8.156,6.277c-2.854-0.732-4.471-3.557-4.611-6.31
			c-0.213-4.237,4.117-7.319,8.16-6.278C73.167,51.599,74.786,54.424,74.926,57.176c0.01,0.179,0.637,0.146,0.627-0.031
			c-0.449-8.891-13.574-8.827-14.021,0.031c-0.186,3.697,3.398,6.986,7.021,6.803c3.879-0.195,6.801-2.879,7.002-6.834
			C75.563,56.979,74.936,56.986,74.926,57.176z"/>
	</g>
</g>
<g>
	<path fill="#95C7AC" d="M72.407,57.161c0,2.133-1.729,3.863-3.859,3.863c-2.139,0-3.871-1.73-3.871-3.863
		c0-2.137,1.732-3.869,3.871-3.869C70.678,53.292,72.407,55.024,72.407,57.161z"/>
	<g>
		<path fill="#040402" d="M72.096,57.136c-0.09,1.667-0.973,2.967-2.543,3.585c-2.492,0.979-4.447-1.379-4.564-3.536
			c-0.088-1.636,1.105-3.024,2.549-3.591C70.032,52.616,71.979,54.979,72.096,57.136c0.01,0.192,0.633,0.211,0.625,0.049
			c-0.279-5.187-8.076-5.283-8.357-0.049c-0.279,5.179,8.076,5.253,8.357,0.049C72.731,57.002,72.106,56.959,72.096,57.136z"/>
	</g>
</g>
<g>
	<path fill="#387ABA" d="M67.256,47.768c3.938,0,10.729,3.422,10.729,3.422s2.807-1.559-3.959-6.852
		c-9.896-7.745-19.766,4.022-19.869,11.24h3.689C58.692,51.477,63.319,47.768,67.256,47.768z"/>
	<g>
		<path fill="#040402" d="M67.184,47.896c3.229,0.114,6.416,1.489,9.32,2.804c0.377,0.17,1.236,0.842,1.721,0.553
			c2.816-1.688-3.008-6.254-3.9-6.973c-8.455-6.8-20.066,1.579-20.48,11.325c-0.004,0.088,0.189,0.103,0.24,0.103
			c1.229,0,2.459,0,3.689,0c0.08,0,0.348-0.01,0.377-0.121c1.041-4.074,4.85-7.485,9.115-7.692c0.373-0.019,0.348-0.269-0.021-0.25
			c-2.447,0.118-4.525,1.146-6.4,2.685c-1.107,0.908-1.957,2.096-2.637,3.344c-0.207,0.383-0.52,1.779-0.563,1.779
			c-0.523,0-1.047,0-1.57,0c-0.424,0-0.846,0-1.268,0c-0.75,0-0.336-0.176-0.271-0.843c0.135-1.397,0.65-2.745,1.227-4.015
			c1.373-3.036,3.76-5.647,6.625-7.326c4.547-2.664,9.078-0.839,12.736,2.286c1.18,1.006,3.934,3.396,2.928,5.247
			c-0.332,0.609,0.211,0.308-0.125,0.144c-0.912-0.442-1.846-0.858-2.783-1.239c-2.494-1.011-5.098-1.968-7.813-2.063
			C67.059,47.629,66.756,47.879,67.184,47.896z"/>
	</g>
</g>
<g>
	<path fill="#A0CECB" d="M63.682,48.067l4.021,9.832c0,0,1.043,0,1.342-0.598c0.303-0.6-3.131-10.428-3.131-10.428"/>
	<g>
		<path fill="#040402" d="M63.377,48.096c1.342,3.277,2.684,6.555,4.023,9.832c0.045,0.111,0.297,0.097,0.385,0.093
			c2.531-0.108,1.252-2.508,0.775-4.078c-0.721-2.385-1.523-4.747-2.344-7.099c-0.057-0.16-0.672-0.133-0.605,0.059
			c0.578,1.657,1.135,3.32,1.678,4.989c0.414,1.274,0.814,2.555,1.168,3.849c0.096,0.344,0.176,0.69,0.244,1.041
			c0.021,0.11,0.037,0.223,0.045,0.334c0,0.037,0,0.073,0,0.11c-1.125,0.302-1.375,0.509-0.748,0.622
			c-1.338-3.271-2.678-6.541-4.016-9.811C63.918,47.875,63.305,47.915,63.377,48.096L63.377,48.096z"/>
	</g>
</g>
<g>
	<polyline fill="#A0CECB" points="61.594,45.086 63.383,49.256 68.303,48.663 65.325,40.766 62.042,43.446 61.594,45.086 	"/>
	<g>
		<path fill="#040402" d="M61.29,45.106c0.598,1.391,1.191,2.779,1.789,4.17c0.045,0.105,0.291,0.116,0.381,0.105
			c1.641-0.198,3.279-0.396,4.922-0.594c0.068-0.01,0.27-0.026,0.225-0.146c-0.992-2.632-1.984-5.265-2.977-7.896
			c-0.057-0.147-0.475-0.137-0.57-0.057c-0.908,0.74-1.814,1.48-2.721,2.221c-0.768,0.626-0.787,1.173-1.059,2.161
			c-0.039,0.145,0.572,0.223,0.627,0.029c0.291-1.066,0.342-1.529,1.18-2.212c0.836-0.683,1.672-1.365,2.508-2.047
			c-0.191-0.02-0.381-0.038-0.572-0.057c0.496,1.315,0.992,2.632,1.488,3.948c0.355,0.942,0.711,1.886,1.066,2.829
			c0.109,0.292,0.221,0.583,0.328,0.875c0.119,0.313,0.217,0.111,0.205,0.113c-0.895,0.107-1.787,0.216-2.68,0.324
			c-0.494,0.059-0.986,0.117-1.48,0.178c-0.133,0.017-0.264,0.031-0.396,0.048c-0.457,0.056,0.053-0.049,0.121,0.108
			c-0.594-1.381-1.186-2.762-1.777-4.144C61.827,44.904,61.215,44.93,61.29,45.106L61.29,45.106z"/>
	</g>
</g>
<g>
	<path fill="#9DA0CE" d="M25.389,59.237c0,0-0.148,2.086,3.129,2.383c3.275,0.297,23.84-1.342,24.584-2.084
		c0.748-0.746,1.191-2.684-1.492-4.022c-2.684-1.341-12.963-3.576-12.963-3.576l-13.258,3.127V59.237L25.389,59.237z"/>
	<g>
		<path fill="#040402" d="M25.081,59.179c-0.109,4.325,10.904,2.358,12.996,2.215c3.641-0.251,7.283-0.55,10.908-0.976
			c1.619-0.19,4.311,0.082,4.939-1.771c1.01-2.972-4.645-4.162-6.408-4.663c-2.91-0.826-5.863-1.52-8.818-2.167
			c-0.396-0.087-0.906,0.144-1.281,0.231c-1.465,0.346-2.93,0.691-4.395,1.035c-2.611,0.617-5.225,1.232-7.836,1.85
			c-0.027,0.007-0.105,0.025-0.105,0.07C25.081,56.397,25.081,57.788,25.081,59.179c0,0.198,0.617,0.271,0.617,0.114
			c0-1.076,0-2.153,0-3.23c0-0.939-0.223-0.846,0.66-1.055c2.67-0.629,5.34-1.258,8.008-1.889c1.152-0.271,2.303-0.543,3.453-0.813
			c0.824-0.194,0.77-0.255,1.25-0.147c3.113,0.69,6.217,1.438,9.277,2.334c1.918,0.561,4.854,1.236,5.018,3.633
			c0.078,1.16-0.775,1.445-1.664,1.608c-2.781,0.511-5.637,0.709-8.451,0.959c-2.311,0.206-17.65,2.593-17.551-1.397
			C25.702,59.098,25.084,59.021,25.081,59.179z"/>
	</g>
</g>
<g>
	<path fill="#387ABA" d="M23.53,52.307c2.629-0.67,10.828,0.6,10.828,0.6s1.395-0.039,1.85,2.217
		c0.455,2.26,0.168,3.353,0.168,3.353s-0.514,1.356-1.91,1.321c0,0-10.268,2.392-12.314,1.257
		C20.104,59.917,17.28,53.907,23.53,52.307z"/>
	<g>
		<path fill="#040402" d="M23.631,52.415c3.287-0.687,7.145,0.115,10.438,0.602c2.059,0.304,2.115,3.289,2.076,4.898
			c-0.033,1.306-1.363,1.688-2.461,1.928c-3.334,0.734-7.449,1.92-10.854,1.264c-1.357-0.262-2.221-2.154-2.594-3.287
			C19.348,55.114,21.088,53.17,23.631,52.415c0.408-0.121,0.059-0.291-0.201-0.215c-1.791,0.532-3.818,1.555-3.996,3.678
			c-0.16,1.91,0.674,3.918,2.191,5.108c1.074,0.843,3.078,0.525,4.309,0.403c2.473-0.246,4.92-0.694,7.352-1.203
			c1.338-0.279,2.609-0.301,3.352-1.623c0.84-1.496-0.041-4.837-1.555-5.652c-1.094-0.59-2.996-0.467-4.172-0.599
			c-2.426-0.272-5.063-0.617-7.48-0.112C23.01,52.288,23.372,52.467,23.631,52.415z"/>
	</g>
</g>
<g>
	<path fill="#387ABA" d="M32.239,50.004c-3.871-0.598-10.426-1.789-11.02,0.889c-0.598,2.682,1.041,2.832,4.17,2.682
		c3.129-0.148,10.725,0,11.621-0.893C37.901,51.788,32.239,50.004,32.239,50.004z"/>
	<g>
		<path fill="#040402" d="M32.389,49.881c-2.793-0.434-7.955-1.938-10.582-0.131c-1.047,0.719-1.395,2.23-0.625,3.301
			c0.768,1.066,3.18,0.689,4.219,0.648c2.318-0.096,4.641-0.091,6.959-0.181c1.525-0.06,3.297-0.024,4.727-0.658
			c1.563-0.692-4.078-2.788-4.633-2.966c-0.15-0.048-0.738,0.117-0.426,0.217c1.539,0.49,3.449,0.981,4.641,2.12
			c0.564,0.538-3.455,0.993-3.721,1.009c-1.639,0.094-3.285,0.107-4.928,0.137c-2.354,0.043-7.688,0.994-6.379-2.819
			c0.898-2.624,8.387-0.754,10.451-0.433C32.28,50.157,32.79,49.945,32.389,49.881z"/>
	</g>
</g>
<g>
	<path fill="#9DA0CE" d="M21.813,36.741c-7.15-0.592-12.512-0.146-12.365,1.492c0.217,2.381,13.559,10.28,13.559,10.28
		s4.645,0.051,10.576,2.979c4.229,2.084,10.58,7.299,12.215,7.598c2.924,0.531,8.807-0.108,9.541-0.895
		c2.236-2.387,5.516-10.127,10.281-13.705c4.768-3.576-4.461-15.057-7.893-19.814c0,0-5.961,3.164-2.539,9.301
		c3.578,6.416,0.764,11.997-1.936,15.433c-2.705,3.432-7.9,1.936-9.986,0.743c-1.775-1.014-5.986-10.783-12.367-12.812
		C30.899,37.339,25.375,37.04,21.813,36.741z"/>
	<g>
		<path fill="#040402" d="M21.698,36.585c-2.893-0.224-5.795-0.359-8.691-0.122c-1.191,0.098-3,0.206-3.771,1.266
			c-1.033,1.419,4.246,4.733,4.977,5.26c2.723,1.962,5.576,3.757,8.453,5.48c0.406,0.243,0.805,0.209,1.275,0.25
			c3.66,0.317,7.305,1.63,10.51,3.378c2.391,1.303,4.609,2.936,6.848,4.477c1.293,0.893,2.766,2.178,4.32,2.598
			c1.877,0.506,4.049,0.287,5.951,0.119c1.615-0.144,3.471-0.224,4.539-1.558c3.322-4.146,5.168-9.149,9.281-12.716
			c2.979-2.583,1.693-6.049,0.049-9.187c-2.082-3.969-4.813-7.514-7.436-11.13c-0.1-0.136-0.396-0.243-0.553-0.158
			c-4.125,2.263-4.078,6.433-2.129,10.196c1.906,3.679,1.432,7.861-0.346,11.462c-2.074,4.201-5.328,6.07-9.992,4.573
			c-2.313-0.742-3.316-2.886-4.602-4.78c-1.557-2.297-3.24-4.499-5.314-6.35C31.264,36.254,26.485,36.976,21.698,36.585
			c-0.406-0.032,0.039,0.293,0.23,0.309c2.609,0.212,5.227,0.376,7.844,0.529c2.875,0.168,5.059,2.275,6.902,4.336
			c1.504,1.684,2.758,3.583,4.014,5.452c0.684,1.019,1.354,2.283,2.393,2.99c2.834,1.926,7.395,2.125,10.002-0.164
			c4.188-3.674,4.959-10.336,2.834-15.165c-1.129-2.562-2.137-4.682-0.682-7.375c0.426-0.789,1.09-1.439,1.77-2.01
			c0.199-0.167,0.416-0.314,0.631-0.461c0.553-0.376,0.092,0,0.053-0.055c2.859,3.944,5.906,7.822,7.904,12.3
			c0.773,1.732,1.412,3.772,0.828,5.649c-0.314,1.019-1.316,1.606-2.074,2.265c-1.029,0.894-1.939,1.976-2.754,3.065
			c-1.602,2.143-2.975,4.426-4.367,6.705c-0.596,0.973-1.203,1.939-1.918,2.83c-0.738,0.922-2.404,0.979-3.469,1.121
			c-1.68,0.227-3.393,0.268-5.082,0.161c-1.564-0.099-2.799-1.052-4.055-1.892c-2.783-1.861-5.471-3.868-8.418-5.475
			c-2.564-1.398-5.4-2.341-8.254-2.941c-0.857-0.182-1.734-0.301-2.607-0.375c-0.924-0.08-0.023,0.199-0.504-0.09
			c-3.645-2.182-7.277-4.47-10.6-7.119c-0.885-0.705-3.664-2.636-1.949-3.718c1.174-0.74,2.943-0.696,4.275-0.773
			c2.424-0.141,4.865,0.02,7.283,0.207C22.333,36.925,21.891,36.601,21.698,36.585z"/>
	</g>
</g>
<g>
	<path fill="#F8F6BB" d="M51.567,18.405c0,0,2.904-0.047,4.207,0.41c1.898,0.668,2.012,2.248,2.617,3.279
		c0.715,1.23,1.383,2.512,0.561,3.129c-0.818,0.613-1.424,1.764-3.23-2.92c-0.307-0.795-1.281-1.49-3.385-1.49l-1.229-0.049
		L51.567,18.405z"/>
	<g>
		<path fill="#040402" d="M51.641,18.533c2.145-0.026,4.664-0.065,5.781,2.097c0.479,0.923,0.943,1.894,1.375,2.838
			c0.439,0.97,0.057,1.69-0.777,2.169c-0.463,0.266-1.281-1.655-1.395-1.893c-0.445-0.948-0.6-1.848-1.504-2.444
			c-1.152-0.76-2.77-0.611-4.086-0.663c0.129,0.052,0.258,0.104,0.387,0.157c0.15-0.786,0.305-1.573,0.459-2.359
			c0.029-0.164-0.59-0.245-0.625-0.059c-0.152,0.786-0.307,1.573-0.459,2.359c-0.027,0.136,0.314,0.155,0.385,0.157
			c1.473,0.059,3.508-0.137,4.232,1.416c0.521,1.112,0.854,2.344,1.713,3.261c0.594,0.633,1.367,0.336,1.93-0.13
			c1.002-0.831,0.42-1.907-0.098-2.888c-0.559-1.06-0.936-2.256-1.783-3.125c-1.307-1.333-3.982-1.171-5.682-1.149
			C51.067,18.282,51.37,18.537,51.641,18.533z"/>
	</g>
</g>
<g>
	<path fill="#9BCCD1" d="M53.002,19.509c0,0.92-0.811,1.662-1.814,1.662H46.26c-1.004,0-1.814-0.742-1.814-1.662l0,0
		c0-0.926,0.811-1.668,1.814-1.668h4.928C52.192,17.841,53.002,18.583,53.002,19.509L53.002,19.509z"/>
	<g>
		<path fill="#040402" d="M52.694,19.456c-0.27,1.843-2.076,1.583-3.443,1.583c-1.295,0-4.197,0.568-4.496-1.474
			c-0.27-1.841,2.365-1.589,3.441-1.589C49.495,17.976,52.397,17.407,52.694,19.456c0.029,0.206,0.637,0.24,0.617,0.109
			c-0.307-2.105-2.447-1.856-4.063-1.856c-1.711,0-4.77-0.621-5.113,1.747c-0.305,2.086,2.877,1.851,4.061,1.851
			c1.705,0,4.771,0.621,5.115-1.741C53.34,19.383,52.721,19.282,52.694,19.456z"/>
	</g>
</g>
<g>
	<path fill="#F1CFE5" d="M61.672,21.307c0,0-3.998,1.84-3.998,4.352c0,0,0.408,3.232,3.998,2.977
		C61.672,28.634,64.487,23.458,61.672,21.307z"/>
	<g>
		<path fill="#040402" d="M61.418,21.19c-2.766,1.296-5.959,4.702-2.311,7.029c0.793,0.505,1.785,0.584,2.697,0.553
			c0.326-0.012,0.492-0.741,0.59-0.969c0.883-2.057,1.484-4.862-0.445-6.505c-0.127-0.107-0.723-0.124-0.557,0.016
			c1.629,1.388,1.324,3.572,0.746,5.406c-0.174,0.552-0.402,1.089-0.654,1.61c-0.438,0.917-2.35-0.437-2.811-1.004
			c-2.014-2.462,1.156-4.923,3.25-5.904C62.137,21.324,61.569,21.121,61.418,21.19z"/>
	</g>
</g>
<g>
	<ellipse fill="#FFFFFF" cx="62.258" cy="24.958" rx="1.922" ry="3.805"/>
	<g>
		<path fill="#040402" d="M63.866,24.943c-0.041,1.167-0.223,2.295-0.938,3.253c-1.439,1.923-2.262-2.688-2.279-3.226
			c-0.037-1.136,0.258-2.342,0.941-3.254C63.028,19.793,63.848,24.406,63.866,24.943c0.006,0.188,0.633,0.197,0.627,0.027
			c-0.049-1.399-0.391-3.865-2.229-3.945c-1.844-0.081-2.199,2.63-2.242,3.918c-0.049,1.398,0.453,3.865,2.23,3.943
			c1.842,0.081,2.195-2.63,2.238-3.916C64.499,24.791,63.872,24.766,63.866,24.943z"/>
	</g>
</g>
<g>
	<path fill="#9DA0CE" d="M23.006,48.512c0,0,10.574-7.306,18.473-0.297"/>
	<g>
		<path fill="#040402" d="M23.266,48.614c5.348-3.641,12.691-4.75,17.936-0.373c0.127,0.105,0.727,0.094,0.555-0.05
			c-5.514-4.602-13.316-3.653-19.01,0.22C22.543,48.549,23.127,48.708,23.266,48.614L23.266,48.614z"/>
	</g>
</g>
<g>
	<path fill="#F6F5D9" d="M21.518,36.741c-1.789,0.15-12.514-2.084-13.262-3.725c-0.744-1.637,6.703-2.234,7.002-1.637
		c0.299,0.594-1.342,0.891,0.148,2.086c1.488,1.191,8.939,3.426,8.939,3.426L21.518,36.741z"/>
	<g>
		<path fill="#040402" d="M21.44,36.616c-3.293,0.127-7.033-1.105-10.117-2.128c-1.189-0.394-4.26-1.568-1.686-2.573
			c0.93-0.361,2-0.473,2.982-0.572c0.523-0.053,2.896-0.37,2.053,0.682c-1.307,1.627,4.25,3.224,5.086,3.521
			c1.354,0.483,2.727,0.923,4.104,1.348c0.549,0.169,0.34-0.136-0.24-0.166c-0.699-0.037-1.398-0.074-2.098-0.111
			c-0.369-0.02-0.383,0.23-0.012,0.25c0.941,0.051,1.887,0.101,2.83,0.15c0.176,0.01,0.488-0.129,0.17-0.225
			c-1.934-0.582-10.416-2.443-8.932-5.123c0.572-1.031-5.582-0.185-5.99-0.076c-3.463,0.912-0.305,2.494,1.402,3.096
			c3.184,1.122,7.188,2.31,10.602,2.178C22.024,36.849,21.706,36.604,21.44,36.616z"/>
	</g>
</g>
<g>
	<ellipse fill="#FFFFFF" cx="10.938" cy="45.232" rx="1.043" ry="1.938"/>
	<g>
		<path fill="#040402" d="M9.581,45.249c0.029,0.813,0.307,2.098,1.363,2.047c1.049-0.049,1.318-1.211,1.35-2.076
			c0.029-0.815-0.342-2.094-1.361-2.045C9.883,43.223,9.612,44.381,9.581,45.249c-0.006,0.168,0.619,0.158,0.627-0.029
			c0.021-0.617,0.123-1.276,0.6-1.718c0.5-0.464,0.854,1.56,0.859,1.747c0.021,0.603-0.145,1.297-0.596,1.719
			c-0.498,0.466-0.855-1.561-0.863-1.748C10.2,45.042,9.573,45.067,9.581,45.249z"/>
	</g>
</g>
<g>
	<path fill="#BE96C2" d="M47.622,23.941c-0.273,0.035-4.873,3.328-4.15,4.098c0.715,0.77,3.279-2.562,5.998-2.664
		C49.469,25.375,50.954,23.477,47.622,23.941z"/>
	<g>
		<path fill="#040402" d="M47.454,23.849c-0.467,0.147-0.908,0.554-1.295,0.835c-0.854,0.624-1.684,1.302-2.41,2.071
			c-0.223,0.234-0.887,0.896-0.625,1.276c0.248,0.36,0.805,0.275,1.152,0.127c1.016-0.434,1.879-1.236,2.816-1.81
			c0.797-0.485,1.568-0.674,2.471-0.861c0.131-0.027,0.195-0.085,0.266-0.188c1.092-1.583-1.246-1.597-2.219-1.482
			c-0.367,0.043-0.346,0.293,0.023,0.25c0.672-0.079,2.135-0.231,1.791,0.829c-0.111,0.345-0.197,0.366-0.354,0.392
			c-1.598,0.259-2.9,1.197-4.197,2.108c-0.281,0.198-1.523,1.038-1.063,0.08c0.27-0.557,0.828-1.007,1.277-1.413
			c0.713-0.643,1.762-1.731,2.699-2.028C48.178,23.913,47.635,23.792,47.454,23.849z"/>
	</g>
</g>
<g>
	<path fill="#F8F6BB" d="M49.973,21.27c0,0,3.438-0.061,4.982,0.518c2.25,0.844,2.451,2.805,3.105,4.145
		c0.223,0.469,0.529,0.51-0.441,1.291c-0.973,0.777-1.539,1.123-2.725-1.033c-0.51-0.93-1.518-1.877-4.012-1.877l-1.461-0.061
		L49.973,21.27z"/>
	<g>
		<path fill="#040402" d="M50.155,21.422c1.887-0.025,4.262-0.093,5.824,1.12c0.91,0.709,1.23,1.984,1.641,3.007
			c0.107,0.267,0.209,0.435,0.346,0.688c0.211,0.395-0.863,1.049-1.117,1.227c-0.936,0.657-1.748-1.535-2.203-1.976
			c-0.381-0.368-0.807-0.684-1.307-0.872c-1.301-0.492-2.662-0.461-4.031-0.518c0.139,0.083,0.275,0.167,0.414,0.25
			c0.184-0.994,0.367-1.988,0.549-2.982c0.035-0.19-0.566-0.354-0.596-0.195c-0.184,0.994-0.365,1.988-0.549,2.982
			c-0.029,0.156,0.311,0.246,0.414,0.25c1.107,0.046,2.268,0.013,3.342,0.308c1.729,0.475,1.57,2.262,2.928,2.99
			c0.877,0.471,2.961-0.085,2.752-1.339c-0.119-0.713-0.732-1.841-1.084-2.488c-0.57-1.054-1.314-1.696-2.402-2.177
			c-1.561-0.689-3.609-0.605-5.285-0.582C49.467,21.121,49.999,21.424,50.155,21.422z"/>
	</g>
</g>
<g>
	<path fill="#9BCCD1" d="M51.676,22.663c0,1.162-0.967,2.102-2.158,2.102h-5.84c-1.191,0-2.154-0.939-2.154-2.102l0,0
		c0-1.164,0.963-2.105,2.154-2.105h5.84C50.709,20.557,51.676,21.499,51.676,22.663L51.676,22.663z"/>
	<g>
		<path fill="#040402" d="M51.37,22.584c-0.283,2.408-2.723,2.034-4.502,2.034c-1.652,0-4.271,0.525-4.986-1.433
			c-0.996-2.727,2.982-2.485,4.445-2.485c1.799,0,4.754-0.57,5.047,1.918c0.021,0.17,0.625,0.285,0.604,0.086
			c-0.301-2.553-2.797-2.293-4.719-2.293c-2.068,0-5.697-0.737-6.039,2.173c-0.303,2.57,3.203,2.323,4.717,2.323
			c2.064,0,5.701,0.737,6.045-2.169C52,22.547,51.391,22.423,51.37,22.584z"/>
	</g>
</g>
</svg>
