<svg version="1.1" id="svg_0_2" xmlns="http://www.w3.org/2000/svg" xmlns:xlink="http://www.w3.org/1999/xlink" x="0px" y="0px" width="85.04px" height="85.04px" viewBox="0 0 85.04 85.04" enable-background="new 0 0 85.04 85.04" xml:space="preserve">

<path id="toFill_18_" fill="#FFFFFF" stroke="#815C2D" stroke-width="0.25" stroke-miterlimit="10" d="M30.992,57.118
	c0,5.59-4.531,10.123-10.123,10.123c-5.592,0-10.123-4.533-10.123-10.123c0-5.594,4.531-10.127,10.123-10.127
	C26.461,46.991,30.992,51.524,30.992,57.118z"/>
<circle fill="#FFFFFF" stroke="#815C2D" stroke-width="0.25" stroke-miterlimit="10" cx="20.869" cy="57.118" r="6.695"/>
<path id="toFill_24_" fill="#FFFFFF" stroke="#815C2D" stroke-width="0.25" stroke-miterlimit="10" d="M16.308,43.702
	c0,0,0.447,13.854,0.744,14.303c0.299,0.443,1.191-0.746,1.191-0.746l0.297-13.557H16.308z"/>
<path id="toFill_23_" fill="#FFFFFF" stroke="#815C2D" stroke-width="0.25" stroke-miterlimit="10" d="M24.734,57.118
	c0,2.133-1.73,3.863-3.863,3.863c-2.135,0-3.867-1.73-3.867-3.863c0-2.137,1.732-3.869,3.867-3.869
	C23.004,53.249,24.734,54.981,24.734,57.118z"/>
<path id="toFill_19_" fill="#FFFFFF" stroke="#815C2D" stroke-width="0.25" stroke-miterlimit="10" d="M18.206,44.37
	c-2.457,0.664-5.105,3.564-5.875,5.127c-1.385,2.844-4.367,4.783-5.105,4.338c-0.746-0.449-0.305-2.301,0.443-3.873
	c0.746-1.576,0.971-4.104,1.395-5.41c0.422-1.311-3.668-0.797-2.475-2.328s9.539-1.191,9.539-1.191l2.777,0.713L18.206,44.37z"/>
<path id="toFill_9_" fill="#FFFFFF" stroke="#815C2D" stroke-width="0.25" stroke-miterlimit="10" d="M17.799,35.356
	c-1.344-0.443-10.877-1.342-10.877,0.6c0,1.937,1.791,5.813,3.129,6.703c1.342,0.893,5.813-0.15,5.813-0.15"/>
<path id="toFill_8_" fill="#FFFFFF" stroke="#815C2D" stroke-width="0.25" stroke-miterlimit="10" d="M44.764,51.448
	c0,0,0.596-2.979-0.301-4.916c-0.896-1.936-2.829-4.169-1.189-6.257c1.639-2.084,0.895-3.426,0-4.318l-16.538-1.492l1.639,6.701
	l11.619,9.981L44.764,51.448z"/>
<path id="toFill_7_" fill="#FFFFFF" stroke="#815C2D" stroke-width="0.25" stroke-miterlimit="10" d="M28.97,38.638
	c3.275,0.598,6.406-0.3,9.088,0.598c2.684,0.893,6.261,1.787,7.003,0.445c0.744-1.343-0.17-6.636-3.128-7.302
	c-2.959-0.666-4.32,0.148-7.303-0.297c-2.979-0.449-18.176-4.174-18.922-1.787c-0.742,2.379-1.338,5.213,1.939,6.851
	C20.925,38.787,28.97,38.638,28.97,38.638z"/>
<path id="toFill_17_" fill="#FFFFFF" stroke="#815C2D" stroke-width="0.25" stroke-miterlimit="10" d="M78.67,57.118
	c0,5.59-4.526,10.123-10.115,10.123c-5.598,0-10.131-4.533-10.131-10.123c0-5.594,4.533-10.127,10.131-10.127
	C74.143,46.991,78.67,51.524,78.67,57.118z"/>
<path fill="#FFFFFF" stroke="#815C2D" stroke-width="0.25" stroke-miterlimit="10" d="M75.247,57.118
	c0,3.695-3.002,6.693-6.691,6.693c-3.705,0-6.7-2.998-6.7-6.693c0-3.699,2.995-6.695,6.7-6.695
	C72.245,50.422,75.247,53.418,75.247,57.118z"/>
<path id="toFill_22_" fill="#FFFFFF" stroke="#815C2D" stroke-width="0.25" stroke-miterlimit="10" d="M72.415,57.118
	c0,2.133-1.729,3.863-3.859,3.863c-2.139,0-3.871-1.73-3.871-3.863c0-2.137,1.732-3.869,3.871-3.869
	C70.686,53.249,72.415,54.981,72.415,57.118z"/>
<path id="toFill_16_" fill="#FFFFFF" stroke="#815C2D" stroke-width="0.25" stroke-miterlimit="10" d="M67.264,47.725
	c3.938,0,10.729,3.422,10.729,3.422s2.807-1.559-3.959-6.852c-9.896-7.745-19.766,4.021-19.869,11.24h3.689
	C58.7,51.434,63.327,47.725,67.264,47.725z"/>
<path id="toFill_21_" fill="#FFFFFF" stroke="#815C2D" stroke-width="0.25" stroke-miterlimit="10" d="M63.69,48.024l4.021,9.832
	c0,0,1.043,0,1.342-0.598c0.303-0.6-3.131-10.428-3.131-10.428"/>
<polyline id="toFill_20_" fill="#FFFFFF" stroke="#815C2D" stroke-width="0.25" stroke-miterlimit="10" points="61.602,45.043 
	63.391,49.213 68.311,48.62 65.333,40.724 62.049,43.403 61.602,45.043 "/>
<path id="toFill_25_" fill="#FFFFFF" stroke="#815C2D" stroke-width="0.25" stroke-miterlimit="10" d="M25.396,59.194
	c0,0-0.148,2.086,3.129,2.383c3.275,0.297,23.84-1.342,24.584-2.084c0.748-0.746,1.191-2.684-1.492-4.021
	c-2.684-1.342-12.963-3.576-12.963-3.576l-13.258,3.127V59.194L25.396,59.194z"/>
<path id="toFill_13_" fill="#FFFFFF" stroke="#815C2D" stroke-width="0.25" stroke-miterlimit="10" d="M23.537,52.264
	c2.629-0.67,10.828,0.6,10.828,0.6s1.395-0.039,1.85,2.217c0.455,2.26,0.168,3.354,0.168,3.354s-0.514,1.355-1.91,1.32
	c0,0-10.268,2.393-12.314,1.258C20.111,59.874,17.287,53.864,23.537,52.264z"/>
<path id="toFill_12_" fill="#FFFFFF" stroke="#815C2D" stroke-width="0.25" stroke-miterlimit="10" d="M32.246,49.961
	c-3.871-0.598-10.426-1.789-11.02,0.889c-0.598,2.682,1.041,2.832,4.17,2.682c3.129-0.148,10.725,0,11.621-0.893
	C37.908,51.745,32.246,49.961,32.246,49.961z"/>
<path id="toFill_6_" fill="#FFFFFF" stroke="#815C2D" stroke-width="0.25" stroke-miterlimit="10" d="M21.82,36.699
	c-7.15-0.592-12.512-0.146-12.365,1.492c0.217,2.381,13.559,10.28,13.559,10.28s4.645,0.051,10.576,2.979
	c4.229,2.084,10.58,7.299,12.215,7.598c2.925,0.531,8.808-0.107,9.541-0.895c2.236-2.387,5.517-10.127,10.281-13.705
	c4.769-3.576-4.461-15.057-7.893-19.814c0,0-5.961,3.164-2.539,9.302c3.578,6.416,0.764,11.997-1.936,15.433
	c-2.705,3.432-7.9,1.936-9.986,0.742c-1.775-1.014-5.987-10.782-12.368-12.812C30.906,37.296,25.382,36.998,21.82,36.699z"/>
<path id="toFill_4_" fill="#FFFFFF" stroke="#815C2D" stroke-width="0.25" stroke-miterlimit="10" d="M51.575,18.363
	c0,0,2.904-0.047,4.207,0.41c1.898,0.668,2.012,2.248,2.617,3.278c0.715,1.23,1.383,2.513,0.561,3.13
	c-0.818,0.612-1.424,1.764-3.229-2.921c-0.308-0.795-1.281-1.489-3.386-1.489l-1.229-0.049L51.575,18.363z"/>
<path id="toFill" fill="#FFFFFF" stroke="#815C2D" stroke-width="0.25" stroke-miterlimit="10" d="M53.01,19.466
	c0,0.921-0.812,1.662-1.814,1.662h-4.928c-1.004,0-1.814-0.741-1.814-1.662l0,0c0-0.926,0.811-1.668,1.814-1.668h4.928
	C52.2,17.798,53.01,18.541,53.01,19.466L53.01,19.466z"/>
<path id="toFill_5_" fill="#FFFFFF" stroke="#815C2D" stroke-width="0.25" stroke-miterlimit="10" d="M61.68,21.265
	c0,0-3.998,1.84-3.998,4.352c0,0,0.408,3.232,3.998,2.977C61.68,28.591,64.495,23.416,61.68,21.265z"/>
<ellipse fill="#FFFFFF" stroke="#815C2D" stroke-width="0.25" stroke-miterlimit="10" cx="62.266" cy="24.916" rx="1.922" ry="3.805"/>
<path id="toFill_10_" fill="#FFFFFF" stroke="#815C2D" stroke-width="0.25" stroke-miterlimit="10" d="M21.525,36.699
	c-1.789,0.15-12.514-2.084-13.262-3.725c-0.744-1.638,6.703-2.234,7.002-1.638c0.299,0.595-1.342,0.892,0.148,2.086
	c1.488,1.191,8.939,3.427,8.939,3.427L21.525,36.699z"/>
<ellipse fill="#FFFFFF" stroke="#815C2D" stroke-width="0.25" stroke-miterlimit="10" cx="10.945" cy="45.189" rx="1.043" ry="1.938"/>
<path id="toFill_2_" fill="#FFFFFF" stroke="#815C2D" stroke-width="0.25" stroke-miterlimit="10" d="M47.629,23.899
	c-0.272,0.035-4.873,3.328-4.149,4.098c0.715,0.771,3.278-2.562,5.998-2.664C49.477,25.333,50.961,23.435,47.629,23.899z"/>
<path id="toFill_3_" fill="#FFFFFF" stroke="#815C2D" stroke-width="0.25" stroke-miterlimit="10" d="M49.981,21.228
	c0,0,3.438-0.062,4.982,0.518c2.25,0.844,2.45,2.805,3.104,4.146c0.224,0.469,0.528,0.51-0.44,1.291
	c-0.974,0.776-1.539,1.123-2.726-1.033c-0.511-0.931-1.519-1.877-4.013-1.877l-1.461-0.062L49.981,21.228z"/>
<path id="toFill_1_" fill="#FFFFFF" stroke="#815C2D" stroke-width="0.25" stroke-miterlimit="10" d="M51.684,22.621
	c0,1.162-0.967,2.103-2.158,2.103h-5.84c-1.192,0-2.155-0.939-2.155-2.103l0,0c0-1.164,0.963-2.104,2.155-2.104h5.84
	C50.717,20.515,51.684,21.457,51.684,22.621L51.684,22.621z"/>
</svg>
