<svg version="1.1" id="svg_1_2" xmlns="http://www.w3.org/2000/svg" xmlns:xlink="http://www.w3.org/1999/xlink" x="0px" y="0px" width="85.04px" height="85.04px" viewBox="0 0 85.04 85.04" enable-background="new 0 0 85.04 85.04" xml:space="preserve">

<path fill="#FFFFFF" stroke="#7B5B3F" stroke-width="0.4832" stroke-linecap="round" stroke-linejoin="round" d="M48.891,52.67
	c0,0-9.978,4.24-4.488,10.229c5.486,5.985,10.479-3.743,9.729-6.237L48.891,52.67z"/>
<path fill="none" stroke="#7B5B3F" stroke-width="0.2416" stroke-linecap="round" stroke-linejoin="round" d="M47.268,59.782
	c0,0-2.619,1.993-3.617,1.868l0.75,0.875C44.4,62.525,46.77,60.402,47.268,59.782z"/>
<path fill="none" stroke="#7B5B3F" stroke-width="0.2416" stroke-linecap="round" stroke-linejoin="round" d="M43.275,61.029
	c0,0-0.872-1-0.499-1.625c0.375-0.62,1.497-1.868,3.618-2.368C46.395,57.036,42.777,59.157,43.275,61.029z"/>
<path fill="none" stroke="#7B5B3F" stroke-width="0.2416" stroke-linecap="round" stroke-linejoin="round" d="M45.76,63.87
	c0,0,0.979,0.895,1.609,0.532c0.633-0.36,1.903-1.455,2.448-3.563C49.818,60.838,47.62,64.409,45.76,63.87z"/>
<path fill="none" stroke="#7B5B3F" stroke-width="0.2416" stroke-linecap="round" stroke-linejoin="round" d="M4.085,36.579"/>
<circle fill="none" stroke="#7B5B3F" stroke-width="0.4832" stroke-linecap="round" stroke-linejoin="round" cx="65.081" cy="34.085" r="4.13"/>
<circle fill="#FFFFFF" cx="64.926" cy="32.805" r="2.824"/>
<circle fill="#FFFFFF" cx="65.143" cy="31.6" r="1.016"/>
<path fill="#FFFFFF" d="M68.374,29.926c0,0-0.293-1.292-1.679-1.618C65.311,27.985,67.844,29.071,68.374,29.926z"/>
<circle fill="#FFFFFF" cx="64.986" cy="31.372" r="0.524"/>
<path fill="#FFFFFF" stroke="#7B5B3F" stroke-width="0.4832" stroke-linecap="round" stroke-linejoin="round" d="M21.798,41.444
	c0,0-9.48-12.225-17.962-8.482c0,0-1.747,7.984,11.975,12.474c0,0-10.478,7.234-8.731,12.973c1.746,5.738,14.719-2.242,17.712-9.979
	L21.798,41.444z"/>
<path fill="#FFFFFF" stroke="#7B5B3F" stroke-width="0.4832" stroke-linecap="round" stroke-linejoin="round" d="M34.271,32.214
	c0,0-4.241-6.486-3.493-8.981c0.749-2.496,11.726,0.249,16.465,6.486L34.271,32.214z"/>
<path fill="#FFFFFF" stroke="#7B5B3F" stroke-width="0.4832" stroke-linecap="round" stroke-linejoin="round" d="M63.211,57.161
	c0,0,14.967-3.742,5.488-20.708c-9.48-16.964-40.915-6.984-47.401,5.987C14.813,55.415,53.232,69.137,63.211,57.161z"/>
<circle fill="#FFFFFF" stroke="#7B5B3F" stroke-width="0.4832" stroke-linecap="round" stroke-linejoin="round" cx="58.471" cy="32.463" r="5.127"/>
<path fill="none" stroke="#7B5B3F" stroke-width="0.4832" stroke-linecap="round" stroke-linejoin="round" d="M57.348,47.557
	c0,0-1.246,2.494-5.488,1.246"/>
<path fill="none" stroke="#7B5B3F" stroke-width="0.4832" stroke-linecap="round" stroke-linejoin="round" d="M63.211,57.161
	c0,0-5.24-0.996-8.232-7.984"/>
<circle fill="#FFFFFF" cx="57.348" cy="31.34" r="3.506"/>
<path fill="none" stroke="#7B5B3F" stroke-width="0.2416" stroke-linecap="round" stroke-linejoin="round" d="M8.202,32.276
	c0,0,8.981,4.49,11.039,8.044c0,0-10.664-7.297-13.845-7.484C2.213,32.65,8.202,32.276,8.202,32.276z"/>
<path fill="none" stroke="#7B5B3F" stroke-width="0.2416" stroke-linecap="round" stroke-linejoin="round" d="M3.835,35.582
	c0,0,0.499,0.873,0.748,1.87c0.25,0.998,8.232,4.242,10.853,4.615C15.437,42.068,4.334,36.953,3.835,35.582z"/>
<path fill="none" stroke="#7B5B3F" stroke-width="0.2416" stroke-linecap="round" stroke-linejoin="round" d="M12.489,59.711
	c0,0,6.881-6.229,7.827-9.881c0,0-7.681,9.127-10.469,10.098C7.058,60.896,12.489,59.711,12.489,59.711z"/>
<path fill="none" stroke="#7B5B3F" stroke-width="0.2416" stroke-linecap="round" stroke-linejoin="round" d="M6.839,57.891
	c0,0,0.214-0.938,0.173-1.93s6.218-6.027,8.454-7.041C15.465,48.92,6.921,56.488,6.839,57.891z"/>
<path fill="none" stroke="#7B5B3F" stroke-width="0.2416" stroke-linecap="round" stroke-linejoin="round" d="M42.754,28.221
	l-2.371,0.749c0,0-2.245-2.495-4.366-3.991C36.017,24.979,42.004,27.35,42.754,28.221z"/>
<path fill="none" stroke="#7B5B3F" stroke-width="0.2416" stroke-linecap="round" stroke-linejoin="round" d="M39.407,29.549
	l-1.333,0.419c0,0-1.264-1.402-2.456-2.245C35.618,27.724,38.986,29.057,39.407,29.549z"/>
<path fill="#FFFFFF" stroke="#7B5B3F" stroke-width="0.4832" stroke-linecap="round" stroke-linejoin="round" d="M50.189,27.485
	c-11.83,0.315-24.954,7.083-28.89,14.957c-4.395,8.791,11.829,17.924,25.852,19.174C41.033,40.439,47.116,30.778,50.189,27.485z"/>
<path fill="none" stroke="#7B5B3F" stroke-width="0.2416" stroke-linecap="round" stroke-linejoin="round" d="M44.25,32.214
	c0,0-5.487-0.998-2.495,4.241c0,0-3.991-0.5-3.243,1.747c0.749,2.245,3.243,2.745,3.243,2.745s-1.995,0-1.995,1.745
	c0,1.748,2.744,2.248,2.744,2.248"/>
<path fill="none" stroke="#7B5B3F" stroke-width="0.2416" stroke-linecap="round" stroke-linejoin="round" d="M41.257,48.928
	c0,0-3.991,1.248,2.246,4.74"/>
<path fill="none" stroke="#7B5B3F" stroke-width="0.2416" stroke-linecap="round" stroke-linejoin="round" d="M36.019,36.705
	c0,0-3.493-0.5-0.5,3.493"/>
<path fill="none" stroke="#7B5B3F" stroke-width="0.2416" stroke-linecap="round" stroke-linejoin="round" d="M30.779,37.203
	c0,0-4.989,1.745,0.749,5.488"/>
<path fill="none" stroke="#7B5B3F" stroke-width="0.2416" stroke-linecap="round" stroke-linejoin="round" d="M30.779,43.938
	c0,0-6.736-0.746,1.248,4.742"/>
<path fill="none" stroke="#7B5B3F" stroke-width="0.2416" stroke-linecap="round" stroke-linejoin="round" d="M27.287,41.444
	c0,0-4.241,0.999-0.249,4.742"/>
<path fill="none" stroke="#7B5B3F" stroke-width="0.2416" stroke-linecap="round" stroke-linejoin="round" d="M35.644,39.947
	c0,0-4.989,1.747,0.748,5.489"/>
<path fill="none" stroke="#7B5B3F" stroke-width="0.2416" stroke-linecap="round" stroke-linejoin="round" d="M27.038,41.444
	c0,0-3.244-1.997,0.499-4.241"/>
<path fill="none" stroke="#7B5B3F" stroke-width="0.2416" stroke-linecap="round" stroke-linejoin="round" d="M34.646,53.045
	c0,0-5.987-0.748-2.744-4.242"/>
<path fill="#FFFFFF" stroke="#7B5B3F" stroke-width="0.4832" stroke-linecap="round" stroke-linejoin="round" d="M37.515,52.67
	c0,0-9.979,4.24-4.491,10.229c5.488,5.985,10.479-3.743,9.729-6.237L37.515,52.67z"/>
<path fill="none" stroke="#7B5B3F" stroke-width="0.2416" stroke-linecap="round" stroke-linejoin="round" d="M35.892,59.782
	c0,0-2.619,1.993-3.617,1.868l0.75,0.875C33.025,62.525,35.394,60.402,35.892,59.782z"/>
<path fill="none" stroke="#7B5B3F" stroke-width="0.2416" stroke-linecap="round" stroke-linejoin="round" d="M31.901,61.029
	c0,0-0.873-1-0.499-1.625c0.375-0.62,1.497-1.868,3.618-2.368C35.02,57.036,31.402,59.157,31.901,61.029z"/>
<path fill="none" stroke="#7B5B3F" stroke-width="0.2416" stroke-linecap="round" stroke-linejoin="round" d="M34.385,63.87
	c0,0,0.978,0.895,1.61,0.532c0.631-0.36,1.903-1.455,2.448-3.563C38.442,60.838,36.244,64.409,34.385,63.87z"/>
<ellipse fill="none" stroke="#7B5B3F" stroke-width="0.2416" stroke-linecap="round" stroke-linejoin="round" cx="69.197" cy="46.808" rx="0.623" ry="1.622"/>
<ellipse fill="none" stroke="#7B5B3F" stroke-width="0.2416" stroke-linecap="round" stroke-linejoin="round" cx="70.633" cy="46.933" rx="0.383" ry="0.997"/>
<ellipse transform="matrix(0.9361 -0.3518 0.3518 0.9361 -12.3416 21.6305)" fill="#FFFFFF" cx="53.347" cy="44.774" rx="2.643" ry="2.245"/>
<circle fill="#FFFFFF" cx="56.225" cy="29.842" r="1.261"/>
<path fill="#FFFFFF" d="M55.98,26.357c0,0,1.199-1.371,3.088-0.857C60.956,26.014,57.182,25.672,55.98,26.357z"/>
<circle fill="#FFFFFF" stroke="#7B5B3F" stroke-width="0.2416" stroke-linecap="round" stroke-linejoin="round" cx="76.682" cy="40.697" r="2.744"/>
<circle fill="#FFFFFF" stroke="#7B5B3F" stroke-width="0.2416" stroke-linecap="round" stroke-linejoin="round" cx="73.872" cy="34.086" r="1.621"/>
<circle fill="#FFFFFF" stroke="#7B5B3F" stroke-width="0.2416" stroke-linecap="round" stroke-linejoin="round" cx="76.432" cy="26.854" r="1.31"/>
<path fill="none" stroke="#7B5B3F" stroke-width="0.2416" stroke-linecap="round" stroke-linejoin="round" d="M36.516,51.672
	c0,0,3.794,4.199,7.859,5.738"/>
<circle fill="#FFFFFF" cx="55.85" cy="29.468" r="0.525"/>
<path fill="#FFFFFF" stroke="#7B5B3F" stroke-width="0.5205" stroke-linecap="round" stroke-linejoin="round" d="M50.454,53.374
	c0,0-10.747,4.565-4.834,11.018c5.909,6.449,11.284-4.031,10.479-6.719L50.454,53.374z"/>
<path fill="none" stroke="#7B5B3F" stroke-width="0.2602" stroke-linecap="round" stroke-linejoin="round" d="M48.706,61.032
	c0,0-2.818,2.147-3.896,2.016l0.81,0.94C45.618,63.988,48.17,61.702,48.706,61.032z"/>
<path fill="none" stroke="#7B5B3F" stroke-width="0.2602" stroke-linecap="round" stroke-linejoin="round" d="M44.407,62.377
	c0,0-0.939-1.076-0.537-1.75c0.403-0.67,1.612-2.015,3.896-2.553C47.768,58.075,43.87,60.359,44.407,62.377z"/>
<path fill="none" stroke="#7B5B3F" stroke-width="0.2602" stroke-linecap="round" stroke-linejoin="round" d="M47.083,65.436
	c0,0,1.055,0.965,1.731,0.574c0.683-0.389,2.054-1.566,2.64-3.84C51.454,62.172,49.084,66.018,47.083,65.436z"/>
<path fill="none" stroke="#7B5B3F" stroke-width="0.2602" stroke-linecap="round" stroke-linejoin="round" d="M2.191,36.04"/>
<circle fill="none" stroke="#7B5B3F" stroke-width="0.5205" stroke-linecap="round" stroke-linejoin="round" cx="67.896" cy="33.353" r="4.449"/>
<circle fill="#FFFFFF" cx="67.729" cy="31.975" r="3.042"/>
<circle fill="#FFFFFF" cx="67.961" cy="30.676" r="1.094"/>
<path fill="#FFFFFF" d="M71.441,28.873c0,0-0.315-1.393-1.81-1.742C68.143,26.782,70.87,27.952,71.441,28.873z"/>
<circle fill="#FFFFFF" cx="67.793" cy="30.43" r="0.565"/>
<path fill="#FFFFFF" stroke="#7B5B3F" stroke-width="0.5205" stroke-linecap="round" stroke-linejoin="round" d="M21.271,41.28
	c0,0-10.212-13.168-19.348-9.137c0,0-1.882,8.6,12.898,13.436c0,0-11.287,7.795-9.405,13.973
	c1.881,6.184,15.854-2.416,19.079-10.746L21.271,41.28z"/>
<path fill="#FFFFFF" stroke="#7B5B3F" stroke-width="0.5205" stroke-linecap="round" stroke-linejoin="round" d="M34.707,31.338
	c0,0-4.567-6.986-3.762-9.675c0.806-2.688,12.632,0.269,17.735,6.987L34.707,31.338z"/>
<path fill="#FFFFFF" stroke="#7B5B3F" stroke-width="0.5205" stroke-linecap="round" stroke-linejoin="round" d="M65.879,58.209
	c0,0,16.123-4.031,5.912-22.306c-10.211-18.274-44.07-7.523-51.058,6.449C13.747,56.329,55.131,71.109,65.879,58.209z"/>
<circle fill="#FFFFFF" stroke="#7B5B3F" stroke-width="0.5205" stroke-linecap="round" stroke-linejoin="round" cx="60.773" cy="31.606" r="5.523"/>
<path fill="none" stroke="#7B5B3F" stroke-width="0.5205" stroke-linecap="round" stroke-linejoin="round" d="M59.564,47.864
	c0,0-1.344,2.688-5.912,1.344"/>
<path fill="none" stroke="#7B5B3F" stroke-width="0.5205" stroke-linecap="round" stroke-linejoin="round" d="M65.879,58.209
	c0,0-5.646-1.074-8.865-8.601"/>
<circle fill="#7B5B3F" cx="59.564" cy="30.396" r="3.776"/>
<path fill="none" stroke="#7B5B3F" stroke-width="0.2602" stroke-linecap="round" stroke-linejoin="round" d="M6.626,31.404
	c0,0,9.674,4.836,11.89,8.665c0,0-11.486-7.86-14.913-8.062C0.175,31.808,6.626,31.404,6.626,31.404z"/>
<path fill="none" stroke="#7B5B3F" stroke-width="0.2602" stroke-linecap="round" stroke-linejoin="round" d="M1.923,34.966
	c0,0,0.537,0.939,0.806,2.014s8.867,4.569,11.689,4.972C14.419,41.952,2.46,36.442,1.923,34.966z"/>
<path fill="none" stroke="#7B5B3F" stroke-width="0.2602" stroke-linecap="round" stroke-linejoin="round" d="M11.243,60.958
	c0,0,7.413-6.711,8.432-10.644c0,0-8.274,9.83-11.277,10.875C5.394,62.234,11.243,60.958,11.243,60.958z"/>
<path fill="none" stroke="#7B5B3F" stroke-width="0.2602" stroke-linecap="round" stroke-linejoin="round" d="M5.157,58.997
	c0,0,0.231-1.015,0.187-2.08c-0.044-1.066,6.697-6.492,9.106-7.584C14.45,49.333,5.246,57.484,5.157,58.997z"/>
<path fill="none" stroke="#7B5B3F" stroke-width="0.2602" stroke-linecap="round" stroke-linejoin="round" d="M43.846,27.037
	l-2.556,0.806c0,0-2.418-2.687-4.702-4.299C36.588,23.544,43.036,26.098,43.846,27.037z"/>
<path fill="none" stroke="#7B5B3F" stroke-width="0.2602" stroke-linecap="round" stroke-linejoin="round" d="M40.239,28.468
	l-1.437,0.451c0,0-1.361-1.511-2.646-2.418C36.158,26.501,39.785,27.938,40.239,28.468z"/>
<path fill="#FFFFFF" stroke="#7B5B3F" stroke-width="0.5205" stroke-linecap="round" stroke-linejoin="round" d="M51.854,26.244
	c-12.744,0.34-26.879,7.63-31.12,16.111C16,51.825,33.476,61.661,48.581,63.008C41.991,40.198,48.542,29.791,51.854,26.244z"/>
<path fill="none" stroke="#7B5B3F" stroke-width="0.2602" stroke-linecap="round" stroke-linejoin="round" d="M45.458,31.338
	c0,0-5.913-1.075-2.688,4.567c0,0-4.299-0.538-3.493,1.882c0.807,2.418,3.493,2.956,3.493,2.956s-2.149,0-2.149,1.88
	c0,1.881,2.956,2.42,2.956,2.42"/>
<path fill="none" stroke="#7B5B3F" stroke-width="0.2602" stroke-linecap="round" stroke-linejoin="round" d="M42.231,49.34
	c0,0-4.299,1.346,2.419,5.107"/>
<path fill="none" stroke="#7B5B3F" stroke-width="0.2602" stroke-linecap="round" stroke-linejoin="round" d="M36.589,36.175
	c0,0-3.762-0.538-0.538,3.763"/>
<path fill="none" stroke="#7B5B3F" stroke-width="0.2602" stroke-linecap="round" stroke-linejoin="round" d="M30.945,36.712
	c0,0-5.374,1.88,0.806,5.911"/>
<path fill="none" stroke="#7B5B3F" stroke-width="0.2602" stroke-linecap="round" stroke-linejoin="round" d="M30.945,43.967
	c0,0-7.256-0.805,1.344,5.107"/>
<path fill="none" stroke="#7B5B3F" stroke-width="0.2602" stroke-linecap="round" stroke-linejoin="round" d="M27.184,41.28
	c0,0-4.568,1.075-0.269,5.107"/>
<path fill="none" stroke="#7B5B3F" stroke-width="0.2602" stroke-linecap="round" stroke-linejoin="round" d="M36.186,39.668
	c0,0-5.374,1.881,0.806,5.911"/>
<path fill="none" stroke="#7B5B3F" stroke-width="0.2602" stroke-linecap="round" stroke-linejoin="round" d="M26.915,41.28
	c0,0-3.494-2.151,0.538-4.568"/>
<path fill="none" stroke="#7B5B3F" stroke-width="0.2602" stroke-linecap="round" stroke-linejoin="round" d="M35.11,53.775
	c0,0-6.449-0.805-2.955-4.567"/>
<path fill="#FFFFFF" stroke="#7B5B3F" stroke-width="0.5205" stroke-linecap="round" stroke-linejoin="round" d="M38.201,53.374
	c0,0-10.749,4.565-4.837,11.018c5.911,6.449,11.287-4.031,10.48-6.719L38.201,53.374z"/>
<path fill="none" stroke="#7B5B3F" stroke-width="0.2602" stroke-linecap="round" stroke-linejoin="round" d="M72.329,45.311
	c0.369,0,0.67,0.781,0.67,1.748c0,0.965-0.301,1.746-0.67,1.746c-0.373,0-0.675-0.781-0.675-1.746
	C71.654,46.092,71.956,45.311,72.329,45.311z"/>
<path fill="none" stroke="#7B5B3F" stroke-width="0.2602" stroke-linecap="round" stroke-linejoin="round" d="M73.875,46.118
	c0.229,0,0.412,0.479,0.412,1.075c0,0.593-0.187,1.072-0.412,1.072c-0.229,0-0.416-0.479-0.416-1.072
	C73.459,46.598,73.646,46.118,73.875,46.118z"/>
<ellipse transform="matrix(0.936 -0.352 0.352 0.936 -12.2603 22.3248)" fill="#FFFFFF" cx="55.258" cy="44.875" rx="2.846" ry="2.419"/>
<circle fill="#FFFFFF" cx="58.354" cy="28.783" r="1.358"/>
<path fill="#FFFFFF" d="M58.092,25.029c0,0,1.295-1.477,3.326-0.924C63.45,24.659,59.387,24.291,58.092,25.029z"/>
<circle fill="#FFFFFF" stroke="#7B5B3F" stroke-width="0.2602" stroke-linecap="round" stroke-linejoin="round" cx="80.393" cy="40.475" r="2.956"/>
<circle fill="#FFFFFF" stroke="#7B5B3F" stroke-width="0.2602" stroke-linecap="round" stroke-linejoin="round" cx="77.361" cy="33.354" r="1.747"/>
<circle fill="#FFFFFF" stroke="#7B5B3F" stroke-width="0.2602" stroke-linecap="round" stroke-linejoin="round" cx="80.122" cy="25.564" r="1.411"/>
<path fill="none" stroke="#7D5D41" stroke-width="0.2602" stroke-linecap="round" stroke-linejoin="round" d="M37.125,52.297
	c0,0,4.087,4.522,8.465,6.182"/>
<circle fill="#FFFFFF" cx="57.95" cy="28.38" r="0.565"/>
	
	<g id="clickMark_1_2" class="none">
		<path fill="#FFFFFF" d="M83.975,42.521c0,22.892-18.561,41.454-41.458,41.454c-22.893,0-41.453-18.562-41.453-41.454 C1.065,19.623,19.625,1.064,42.519,1.064C65.415,1.064,83.975,19.623,83.975,42.521z" />
		<path fill="none" stroke="#000000" stroke-width="0.9447" d="M42.519,73.262c16.977,0,30.746-13.76,30.746-30.741 c0-16.98-13.769-30.74-30.746-30.74c-16.979,0-30.743,13.76-30.743,30.74C11.774,59.502,25.54,73.262,42.519,73.262z" />
		<path fill="#D7DF23" d="M42.519,73.262c16.977,0,30.746-13.76,30.746-30.741c0-16.98-13.769-30.74-30.746-30.74 c-16.979,0-30.743,13.76-30.743,30.74C11.774,59.502,25.54,73.262,42.519,73.262" />
		<path fill="none" stroke="#000000" stroke-width="0.8879" d="M42.519,73.262c16.977,0,30.746-13.76,30.746-30.741 c0-16.98-13.769-30.74-30.746-30.74c-16.979,0-30.743,13.76-30.743,30.74C11.774,59.502,25.54,73.262,42.519,73.262" />
		<path fill="#ED1C24" d="M58.706,24.476c0.098,0.837-0.395,1.623-1.477,2.36c-1.377,0.983-2.213,1.721-2.508,2.211l-8.408,14.606 l7.08,13.721c0.1,0.148,0.615,0.91,1.549,2.287c0.591,0.838,0.886,1.6,0.886,2.287c0,0.395-0.071,0.789-0.222,1.182 c-0.836,2.113-2.387,3.172-4.646,3.172c-0.937,0-1.846-0.197-2.731-0.592c-1.229-0.541-1.904-1.242-2.027-2.102 c-0.122-0.861-0.232-1.707-0.332-2.545l-3.982-9.888l-4.424,8.854c-0.295,0.982-0.64,1.953-1.033,2.914 c-0.395,0.959-1.157,1.437-2.287,1.437c-1.428,0-2.804-0.491-4.131-1.476c-1.426-1.131-2.041-2.383-1.844-3.762 c0.097-0.541,0.429-1.115,0.995-1.733c0.565-0.615,0.922-1.068,1.071-1.363l6.492-11.806l-4.577-14.306 c-0.147-0.493-0.626-1.096-1.438-1.808s-1.268-1.387-1.364-2.028c-0.148-1.13,0.539-2.139,2.065-3.024 c1.376-0.737,2.851-1.107,4.427-1.107c0.886,0,1.573,0.148,2.066,0.441c1.081,0.692,1.743,1.563,1.989,2.62 c0.245,1.059,0.468,2.104,0.664,3.135l2.212,6.934l4.869-8.706c0.442-0.934,0.924-1.891,1.438-2.876 c0.519-0.985,1.216-1.646,2.103-1.991c0.539-0.247,1.154-0.37,1.844-0.37c1.279,0,2.521,0.356,3.726,1.071 C57.954,22.938,58.606,23.689,58.706,24.476z" />
	</g>
</svg>
