<svg version="1.1" id="svg_2" xmlns="http://www.w3.org/2000/svg" xmlns:xlink="http://www.w3.org/1999/xlink" x="0px" y="0px" width="85.04px" height="85.04px" viewBox="0 0 85.04 85.04" enable-background="new 0 0 85.04 85.04" xml:space="preserve">

<path fill="#C4934C" d="M50.363,51.593c0,0-0.387,14.537,5.824,24.035c0,0,2.479,0.908,6.756-0.215c0,0-4.25-2.615-6.082-9
	c-1.826-6.379-0.215-13.451,1.855-17.145"/>
<path fill="#E7A7BD" d="M59.863,72.417c-1.041,2.264-2.217,3.096-2.934,3.396c1.031,0.191,3.105,0.363,6.014-0.4
	C62.943,75.414,61.458,74.488,59.863,72.417z"/>
<path fill="none" stroke="#835B29" stroke-width="0.3765" stroke-linecap="round" stroke-linejoin="round" d="M50.363,51.593
	c0,0-0.387,14.537,5.824,24.035c0,0,2.479,0.908,6.756-0.215c0,0-4.25-2.615-6.082-9c-1.826-6.379-0.215-13.451,1.855-17.145"/>
<path fill="#C4934C" d="M38.352,52.783c0,0-1.789,2.441-6.471,5.934c-3.506,2.619-6.023,6.598-6.098,10.09
	c-0.072,3.494,2.082,5.65,3.641,6.244c0,0-2.299,0.594-4.086,0.373c-1.783-0.225-1.783-6.988-1.783-6.988s1.783-7.508,1.934-7.805
	c0.146-0.299,6.912-8.92,7.137-8.92C32.848,51.71,38.352,52.783,38.352,52.783z"/>
<path fill="#E7A7BD" d="M29.426,75.05c-0.697-0.268-1.521-0.852-2.201-1.723c-0.74,1.107-1.594,1.648-1.594,1.648
	s0.037,0.189,0.098,0.479C27.441,75.564,29.426,75.05,29.426,75.05z"/>
<path fill="none" stroke="#835B29" stroke-width="0.3765" stroke-linecap="round" stroke-linejoin="round" d="M38.352,52.783
	c0,0-1.789,2.441-6.471,5.934c-3.506,2.619-6.023,6.598-6.098,10.09c-0.072,3.494,2.082,5.65,3.641,6.244
	c0,0-2.299,0.594-4.086,0.373c-1.783-0.225-1.783-6.988-1.783-6.988s1.783-7.508,1.934-7.805c0.146-0.299,6.912-8.92,7.137-8.92
	C32.848,51.71,38.352,52.783,38.352,52.783z"/>
<path fill="#E4C383" d="M49.763,31.648c0,0,0.086-1.186-1.072-4.063c-0.996-2.48-2.611-7.953-0.467-12.643
	c2.225-4.848,6.801-7.057,12.451-7.32c6.125-0.283,9.773,3.295,10.922,5.23c0,0-2.664,0.471-3.447,2.551
	c-0.979,2.602-11.762,0.713-11.762,0.713S53.97,30.152,49.763,31.648z"/>
<path fill="none" stroke="#835B29" stroke-width="0.3138" stroke-linecap="round" stroke-linejoin="round" d="M48.826,13.798
	c0.025-0.047,0.051-0.09,0.076-0.135"/>
<path fill="none" stroke="#835B29" stroke-width="0.3138" stroke-linecap="round" stroke-linejoin="round" d="M66.359,8.578
	c2.756,1.143,4.512,3.043,5.238,4.273c0,0-2.664,0.471-3.447,2.551c-0.979,2.602-11.762,0.713-11.762,0.713
	s-2.418,14.037-6.625,15.533c0,0,0.086-1.188-1.072-4.063c-0.996-2.482-2.611-7.953-0.467-12.643c0.059-0.121,0.113-0.24,0.17-0.355
	"/>
<path fill="none" stroke="#835B29" stroke-width="0.3138" stroke-linecap="round" stroke-linejoin="round" d="M51.505,10.679
	c2.398-1.93,5.564-2.889,9.172-3.057c0.965-0.043,1.867,0.008,2.713,0.135"/>
<path fill="#CF9C50" d="M61.251,10.826c0,0,3.346-0.15,6.092,3.268c2.865,3.559,5.061,7.807,9.074,9.813c0,0,0,1.785-1.266,2.676
	c0,0-2.764,6.088-7.359,5.725c-5.648-0.445-7.584-5.498-7.584-5.498s-0.965,0.742,0.221,4.086c1.193,3.348,3.127,7.879,2.012,12.418
	c-1.115,4.531-3.422,7.209-7.957,8.916c-4.535,1.709-11.898,3.494-22.009,0.596c-10.107-2.896-13.301-8.326-13.23-14.346
	c0.074-6.094,5.203-8.742,8.996-8.402c5.799,0.521,6.242,4.236,12.637,4.385c6.39,0.15,9.667-1.631,9.443-5.57
	c-0.227-3.941-1.789-13.68,5.947-16.949c0,0,0-3.941,1.561-4.385C59.388,7.103,61.251,10.826,61.251,10.826z"/>
<path fill="#F7E0D0" d="M69.546,32.13c3.539-0.992,5.605-5.549,5.605-5.549c1.266-0.891,1.266-2.676,1.266-2.676
	c-1.266-0.629-2.346-1.48-3.324-2.463c-3.436,0.451-6.031,4.152-5.969,7.297C67.171,31.121,68.537,31.884,69.546,32.13z"/>
<path fill="#7C5425" d="M67.185,19.341c-0.145,0.734-0.689,1.244-1.223,1.139c-0.535-0.102-0.848-0.783-0.705-1.514
	c0.143-0.729,0.695-1.238,1.225-1.137C67.015,17.935,67.33,18.613,67.185,19.341z"/>
<path fill="#F7E0D0" d="M57.812,11.57c0.506-0.133,1.07-0.262,1.697-0.354c-0.012-0.068-0.014-0.139-0.025-0.209
	c-0.145-0.93-0.654-1.625-1.131-1.547c-0.479,0.076-0.75,0.891-0.605,1.822C57.765,11.38,57.787,11.474,57.812,11.57z"/>
<path fill="none" stroke="#835B29" stroke-width="0.4706" stroke-linecap="round" stroke-linejoin="round" d="M61.251,10.826
	c0,0,3.346-0.15,6.092,3.268c2.865,3.559,5.061,7.807,9.074,9.813c0,0,0,1.785-1.266,2.676c0,0-2.764,6.088-7.359,5.725
	c-5.648-0.445-7.584-5.498-7.584-5.498s-0.965,0.742,0.221,4.086c1.193,3.348,3.127,7.879,2.012,12.418
	c-1.115,4.531-3.422,7.209-7.957,8.916c-4.535,1.709-11.898,3.494-22.009,0.596c-10.107-2.896-13.301-8.326-13.23-14.346
	c0.074-6.094,5.203-8.742,8.996-8.402c5.799,0.521,6.242,4.236,12.637,4.385c6.39,0.15,9.667-1.631,9.443-5.57
	c-0.227-3.941-1.789-13.68,5.947-16.949c0,0,0-3.941,1.561-4.385C59.388,7.103,61.251,10.826,61.251,10.826z"/>
<path fill="#FFFFFF" d="M67.029,18.876c0,0.219-0.18,0.395-0.398,0.395c-0.225,0-0.398-0.176-0.398-0.395
	c0-0.225,0.176-0.4,0.398-0.4C66.849,18.476,67.029,18.652,67.029,18.876z"/>
<path fill="none" stroke="#835B29" stroke-width="0.2196" stroke-linecap="round" stroke-linejoin="round" d="M66.974,13.531
	c0,0,0.529-1.119,1.541-1.543"/>
<path fill="none" stroke="#835B29" stroke-width="0.2196" stroke-linecap="round" stroke-linejoin="round" d="M63.943,11.457
	c0,0,0.168-0.711,0.721-1.537"/>
<path fill="none" stroke="#835B29" stroke-width="0.2196" stroke-linecap="round" stroke-linejoin="round" d="M53.513,10.923
	c0,0,0,0.957,0.906,2.074"/>
<path fill="none" stroke="#835B29" stroke-width="0.2196" stroke-linecap="round" stroke-linejoin="round" d="M48.349,17.414
	c0,0,0.318,1.012,1.918,1.857"/>
<path fill="#C4934C" d="M25.547,49.328c-0.146-2.238-1.248-4.318-3.24-6.158c-0.756-0.693-1.547-1.184-2.328-1.568
	C20.604,44.521,22.264,47.173,25.547,49.328z"/>
<path fill="#E4C383" d="M20.588,43.169c-3.271-3.016-7.199-2.156-8.338-5.871c-1.084-3.551,2.176-6.672,5.293-6.891
	c2.236-0.154,3.686,0.77,4.326,1.305c0.467-0.385,0.961-0.721,1.475-1.002c-0.686-0.826-2.404-2.424-5.512-2.477
	c-5.146-0.084-9.859,3.914-9.135,10.225c0.656,5.73,5.439,8.701,7.395,11.459c1.959,2.754,1.594,7.027-1.74,7.682
	c0,0,4.785,1.018,7.469-2.244c1.432-1.744,2.08-3.816,2.029-5.729C23.789,47.269,22.666,45.089,20.588,43.169z"/>
<path fill="none" stroke="#835B29" stroke-width="0.3138" stroke-linecap="round" stroke-linejoin="round" d="M23.344,30.71
	c-0.686-0.826-2.404-2.424-5.512-2.477c-5.146-0.084-9.859,3.914-9.137,10.225c0.658,5.73,5.441,8.701,7.396,11.459
	c1.959,2.754,1.594,7.027-1.74,7.682c0,0,4.785,1.018,7.469-2.244c1.432-1.744,2.08-3.816,2.029-5.729
	c-0.063-2.357-1.184-4.537-3.264-6.457c-3.271-3.016-7.197-2.156-8.338-5.871c-1.084-3.551,2.176-6.672,5.293-6.891
	c2.236-0.154,3.688,0.77,4.328,1.305"/>
<path fill="none" stroke="#835B29" stroke-width="0.2196" stroke-linecap="round" stroke-linejoin="round" d="M12.301,52.072
	c0.189-0.084,0.393-0.125,0.602-0.125"/>
<path fill="none" stroke="#835B29" stroke-width="0.2196" stroke-linecap="round" stroke-linejoin="round" d="M19.896,54.169
	c-0.074,0.207-0.158,0.41-0.252,0.604c-1.449,2.971-5.609,3.902-7.643,1.945c-1.4-1.354-1.232-3.113-0.447-4.074"/>
<path fill="none" stroke="#835B29" stroke-width="0.2196" stroke-linecap="round" stroke-linejoin="round" d="M10.963,39.324
	c1.02,2.492,3.207,4.59,5.783,6.387c1.721,1.195,2.783,2.582,3.248,4.244c0.281,1.01,0.346,2.131,0.168,3.188"/>
<path fill="none" stroke="#835B29" stroke-width="0.2196" stroke-linecap="round" stroke-linejoin="round" d="M14.309,30.005
	c-2.627,1.254-4.195,4.168-3.922,7.012"/>
<path fill="none" stroke="#835B29" stroke-width="0.2196" stroke-linecap="round" stroke-linejoin="round" d="M15.393,29.607
	c-0.068,0.018-0.143,0.035-0.211,0.061"/>
<path fill="none" stroke="#835B29" stroke-width="0.2196" stroke-linecap="round" stroke-linejoin="round" d="M17.543,29.359
	c-0.297-0.002-0.609,0.01-0.943,0.039"/>
<path fill="none" stroke="#835B29" stroke-width="0.2196" stroke-linecap="round" stroke-linejoin="round" d="M22.689,31.714
	c0,0-1.039-1.926-4.168-2.295"/>
<path fill="none" stroke="#EED5A8" stroke-width="0.6275" stroke-linecap="round" stroke-linejoin="round" d="M15.143,42.212
	c0,0,3.43,1.123,5.195,3.674"/>
<path fill="none" stroke="#DDB580" stroke-width="0.9413" stroke-linecap="round" stroke-linejoin="round" d="M52.951,19.792
	c0,0,0.236-3.246,2.867-4.732"/>
<path fill="#CF9C50" d="M48.46,52.228c0,0-0.578,15.016,5.875,24.904c0,0,2.604,0.965,7.139-0.152c0,0-4.463-2.748-6.322-9.363
	c-1.857-6.613-0.072-13.9,2.158-17.691"/>
<path fill="#EDB5CD" d="M58.248,73.851c-1.119,2.326-2.373,3.176-3.135,3.477c1.09,0.211,3.277,0.416,6.359-0.348
	C61.472,76.98,59.914,76.013,58.248,73.851z"/>
<path fill="#CF9C50" d="M36.029,49.349c0,0-0.609,1.869-4.551,6.404c-3.939,4.535-6.725,7.328-6.873,12.236
	c-0.145,4.906,2.52,8.029,3.41,8.771c0,0-2.977,0.891-6.689-0.074c0,0-2.693-10.334,4.221-27.359"/>
<path fill="#EDB5CD" d="M28.016,76.761c-0.443-0.369-1.322-1.328-2.078-2.795c-1.48,1.811-3.035,2.545-4.131,2.83
	C25.297,77.572,28.016,76.761,28.016,76.761z"/>
<path fill="#C4934C" d="M48.253,53.48l0.033-0.789c-7.8,0.555-12.349-2.602-12.349-2.602l-1.953,2.693
	c3.293,0.826,6.27,1.148,8.932,1.148C44.867,53.931,46.64,53.755,48.253,53.48z"/>
<path fill="none" stroke="#835B29" stroke-width="0.4706" stroke-linecap="round" stroke-linejoin="round" d="M48.46,52.228
	c0,0-0.578,15.016,5.875,24.904c0,0,2.604,0.965,7.139-0.152c0,0-4.463-2.748-6.322-9.363c-1.857-6.613-0.072-13.9,2.158-17.691"/>
<path fill="none" stroke="#835B29" stroke-width="0.4706" stroke-linecap="round" stroke-linejoin="round" d="M36.029,49.349
	c0,0-0.609,1.869-4.551,6.404c-3.939,4.535-6.725,7.328-6.873,12.236c-0.145,4.906,2.52,8.029,3.41,8.771
	c0,0-2.977,0.891-6.689-0.074c0,0-2.693-10.334,4.221-27.359"/>
<path fill="none" stroke="#DDB580" stroke-width="0.9413" stroke-linecap="round" stroke-linejoin="round" d="M23.217,34.115
	c0,0,2.041-2.318,5.199-1.76"/>
<path fill="#C4934C" d="M34.361,32.859c0,0-3.146,2.459-3.146,7.521c0,4.684,2.918,8.135,9.516,8.211
	c6.601,0.076,9.212-3.836,9.212-7.52c0-4.449-2.383-7.215-2.383-7.215s-1.457-0.688-1.994,0.77c0,0-5.294,0.613-8.978-0.535
	C36.588,34.091,36.129,32.246,34.361,32.859z"/>
<path fill="#90A4D4" d="M34.555,31.96c0,0-3.047,2.377-3.047,7.287c0,4.531,2.826,7.875,9.219,7.951
	c6.394,0.07,8.919-3.715,8.919-7.283c0-4.313-2.303-6.988-2.303-6.988s-1.414-0.674-1.936,0.74c0,0-5.128,0.596-8.699-0.518
	C36.711,33.15,36.268,31.367,34.555,31.96z"/>
<path fill="#FDDA2A" d="M45.517,33.427c-0.039,0.068-0.078,0.152-0.107,0.24c0,0-5.128,0.596-8.699-0.518
	c0,0-0.035-0.152-0.127-0.342c-0.033,0.014-0.063,0.031-0.098,0.041c0,0-2.672,2.049-2.672,5.65c0,3.334,1.637,6.244,6.871,6.396
	c5.099,0.139,6.802-3.324,6.802-5.949c0-3.172-1.939-5.42-1.939-5.42S45.537,33.488,45.517,33.427z"/>
<path fill="none" stroke="#536892" stroke-width="0.4706" stroke-linecap="round" stroke-linejoin="round" d="M34.555,31.96
	c0,0-3.047,2.377-3.047,7.287c0,4.531,2.826,7.875,9.219,7.951c6.394,0.07,8.919-3.715,8.919-7.283c0-4.313-2.303-6.988-2.303-6.988
	s-1.414-0.674-1.936,0.74c0,0-5.128,0.596-8.699-0.518C36.711,33.15,36.268,31.367,34.555,31.96z"/>
<ellipse fill="#FBF3A5" cx="36.461" cy="38.486" rx="1.674" ry="2.578"/>
<path fill="#7C5425" d="M74.013,25.357c-0.24,0.359-0.604,0.535-0.805,0.4c-0.207-0.137-0.176-0.541,0.061-0.898
	c0.244-0.355,0.605-0.535,0.809-0.4C74.285,24.599,74.253,25,74.013,25.357z"/>
<path fill="none" stroke="#835B29" stroke-width="0.3138" stroke-linecap="round" stroke-linejoin="round" d="M68.748,26.814
	c0,0-0.838,1.119-0.16,2.133c0.639,0.955,1.594,0.666,1.594,0.666"/>
</svg>
