<svg version="1.1" id="svg_2_0" xmlns="http://www.w3.org/2000/svg" xmlns:xlink="http://www.w3.org/1999/xlink" x="0px" y="0px" width="85.04px" height="85.04px" viewBox="0 0 85.04 85.04" enable-background="new 0 0 85.04 85.04" xml:space="preserve">

<path fill="#FFFFFF" stroke="#815C2D" stroke-width="0.25" stroke-miterlimit="10" d="M18.732,40.19
	c-0.181-4.444-3.566-6.613-1.745-10.046c1.744-3.277,6.256-3.18,8.615-1.13c1.69,1.472,2.063,3.15,2.137,3.981
	c0.602,0.058,1.189,0.17,1.751,0.334c0.099-1.069,0.014-3.414-2.146-5.649c-3.58-3.698-9.739-4.204-13.69,0.771
	c-3.587,4.516-2.306,9.998-2.873,13.331c-0.562,3.333-3.842,6.097-6.663,4.202c0,0,2.664,4.104,6.868,3.694
	c2.246-0.221,4.169-1.227,5.486-2.616C18.096,45.354,18.844,43.017,18.732,40.19z"/>
<path fill="none" stroke="#815C2D" stroke-width="0.25" stroke-miterlimit="10" d="M6.576,40.626
	c0.194,0.074,0.366,0.189,0.514,0.338"/>
<path fill="none" stroke="#815C2D" stroke-width="0.25" stroke-miterlimit="10" d="M10.465,47.479
	c-0.199,0.094-0.402,0.179-0.605,0.25c-3.126,1.076-6.725-1.208-6.78-4.03c-0.033-1.946,1.33-3.071,2.564-3.196"/>
<path fill="none" stroke="#815C2D" stroke-width="0.25" stroke-miterlimit="10" d="M14.644,30.667
	c-1.041,2.483-0.978,5.513-0.427,8.605c0.372,2.062,0.142,3.793-0.704,5.298c-0.516,0.912-1.262,1.751-2.135,2.373"/>
<path fill="none" stroke="#815C2D" stroke-width="0.25" stroke-miterlimit="10" d="M23.6,26.443
	c-2.744-0.971-5.914-0.02-7.731,2.185"/>
<path fill="none" stroke="#815C2D" stroke-width="0.25" stroke-miterlimit="10" d="M24.648,26.928
	c-0.061-0.036-0.126-0.077-0.192-0.106"/>
<path fill="none" stroke="#815C2D" stroke-width="0.25" stroke-miterlimit="10" d="M26.344,28.273
	c-0.208-0.211-0.438-0.423-0.694-0.639"/>
<path fill="none" stroke="#815C2D" stroke-width="0.25" stroke-miterlimit="10" d="M28.317,33.577c0,0,0.627-2.096-1.324-4.57"/>
<path fill="none" stroke="#815C2D" stroke-width="0.25" stroke-miterlimit="10" d="M15.558,35.664c0,0,1.632,3.219,1.076,6.271"/>
<path fill="#FFFFFF" stroke="#815C2D" stroke-width="0.25" stroke-miterlimit="10" d="M55.907,51.59c0,0-0.387,14.537,5.824,24.035
	c0,0,2.479,0.908,6.756-0.215c0,0-4.25-2.615-6.082-9c-1.825-6.379-0.215-13.451,1.854-17.145"/>
<path fill="#FFFFFF" stroke="#815C2D" stroke-width="0.25" stroke-miterlimit="10" d="M65.407,72.415
	c-1.041,2.265-2.217,3.097-2.934,3.396c1.03,0.191,3.104,0.363,6.014-0.4C68.487,75.413,67.001,74.486,65.407,72.415z"/>
<path fill="#FFFFFF" stroke="#815C2D" stroke-width="0.25" stroke-miterlimit="10" d="M43.896,52.782c0,0-1.789,2.44-6.471,5.934
	c-3.506,2.619-6.023,6.598-6.098,10.09c-0.072,3.494,2.082,5.65,3.641,6.244c0,0-2.299,0.594-4.086,0.373
	c-1.783-0.225-1.783-6.988-1.783-6.988s1.783-7.508,1.934-7.805c0.146-0.299,6.912-8.92,7.137-8.92
	C38.392,51.708,43.896,52.782,43.896,52.782z"/>
<path fill="#FFFFFF" stroke="#815C2D" stroke-width="0.25" stroke-miterlimit="10" d="M34.97,75.047
	c-0.697-0.268-1.521-0.852-2.201-1.723c-0.74,1.107-1.594,1.648-1.594,1.648s0.037,0.189,0.098,0.479
	C32.985,75.562,34.97,75.047,34.97,75.047z"/>
<path fill="#FFFFFF" stroke="#815C2D" stroke-width="0.25" stroke-miterlimit="10" d="M55.307,31.646c0,0,0.086-1.186-1.072-4.063
	c-0.996-2.48-2.61-7.953-0.467-12.643c2.226-4.848,6.801-7.057,12.45-7.32c6.125-0.283,9.773,3.295,10.923,5.23
	c0,0-2.664,0.471-3.447,2.551c-0.979,2.602-11.762,0.713-11.762,0.713S59.514,30.15,55.307,31.646z"/>
<path fill="#FFFFFF" stroke="#815C2D" stroke-width="0.25" stroke-miterlimit="10" d="M66.794,10.825c0,0,3.347-0.15,6.092,3.268
	c2.865,3.559,5.062,7.807,9.074,9.813c0,0,0,1.784-1.266,2.676c0,0-2.764,6.088-7.359,5.726c-5.647-0.445-7.584-5.498-7.584-5.498
	s-0.965,0.741,0.222,4.086c1.192,3.348,3.127,7.879,2.012,12.417c-1.114,4.53-3.422,7.209-7.957,8.916
	c-4.534,1.709-11.898,3.494-22.009,0.597c-10.107-2.896-13.301-8.326-13.23-14.346c0.074-6.095,5.203-8.742,8.996-8.402
	c5.799,0.521,6.242,4.236,12.637,4.385c6.39,0.15,9.667-1.631,9.442-5.57c-0.227-3.94-1.789-13.68,5.947-16.949
	c0,0,0-3.941,1.561-4.385C64.932,7.102,66.794,10.825,66.794,10.825z"/>
<path fill="#FFFFFF" stroke="#815C2D" stroke-width="0.25" stroke-miterlimit="10" d="M75.089,32.128
	c3.539-0.992,5.605-5.549,5.605-5.549c1.266-0.891,1.266-2.676,1.266-2.676c-1.266-0.629-2.346-1.48-3.324-2.463
	c-3.436,0.451-6.03,4.152-5.969,7.297C72.714,31.12,74.082,31.882,75.089,32.128z"/>
<path fill="#7C5425" stroke="#815C2D" stroke-width="0.25" stroke-miterlimit="10" d="M72.729,19.339
	c-0.146,0.734-0.688,1.244-1.224,1.139c-0.535-0.102-0.848-0.783-0.705-1.514c0.144-0.729,0.695-1.238,1.226-1.137
	C72.559,17.934,72.875,18.611,72.729,19.339z"/>
<path fill="#FFFFFF" stroke="#815C2D" stroke-width="0.25" stroke-miterlimit="10" d="M63.356,11.568
	c0.506-0.133,1.069-0.262,1.696-0.354c-0.012-0.068-0.014-0.139-0.024-0.209c-0.146-0.93-0.653-1.625-1.131-1.547
	c-0.479,0.076-0.75,0.891-0.604,1.822C63.309,11.378,63.332,11.473,63.356,11.568z"/>
<path fill="#FFFFFF" stroke="#815C2D" stroke-width="0.25" stroke-miterlimit="10" d="M72.573,18.875
	c0,0.219-0.18,0.395-0.397,0.395c-0.226,0-0.398-0.176-0.398-0.395c0-0.225,0.176-0.4,0.398-0.4
	C72.393,18.475,72.573,18.65,72.573,18.875z"/>
<path fill="none" stroke="#815C2D" stroke-width="0.25" stroke-miterlimit="10" d="M72.518,13.53c0,0,0.528-1.119,1.541-1.543"/>
<path fill="none" stroke="#815C2D" stroke-width="0.25" stroke-miterlimit="10" d="M69.487,11.456c0,0,0.168-0.711,0.722-1.537"/>
<path fill="none" stroke="#815C2D" stroke-width="0.25" stroke-miterlimit="10" d="M59.057,10.921c0,0,0,0.957,0.905,2.074"/>
<path fill="none" stroke="#815C2D" stroke-width="0.25" stroke-miterlimit="10" d="M53.893,17.413c0,0,0.317,1.012,1.918,1.857"/>
<path fill="none" stroke="#815C2D" stroke-width="0.25" stroke-miterlimit="10" d="M58.496,19.791c0,0,0.235-3.246,2.866-4.732"/>
<path fill="#FFFFFF" stroke="#815C2D" stroke-width="0.25" stroke-miterlimit="10" d="M54.003,52.226c0,0-0.578,15.017,5.875,24.903
	c0,0,2.604,0.966,7.14-0.151c0,0-4.463-2.748-6.322-9.362c-1.856-6.613-0.071-13.9,2.158-17.691"/>
<path fill="#FFFFFF" stroke="#815C2D" stroke-width="0.25" stroke-miterlimit="10" d="M63.792,73.849
	c-1.119,2.325-2.373,3.176-3.136,3.478c1.091,0.211,3.277,0.416,6.359-0.349C67.016,76.978,65.458,76.011,63.792,73.849z"/>
<path fill="#FFFFFF" stroke="#815C2D" stroke-width="0.25" stroke-miterlimit="10" d="M41.573,49.347c0,0-0.609,1.868-4.551,6.403
	c-3.939,4.535-6.725,7.328-6.873,12.236c-0.145,4.906,2.52,8.029,3.41,8.771c0,0-2.977,0.891-6.689-0.074
	c0,0-2.693-10.334,4.221-27.359"/>
<path fill="#FFFFFF" stroke="#815C2D" stroke-width="0.25" stroke-miterlimit="10" d="M33.56,76.758
	c-0.443-0.368-1.322-1.327-2.078-2.795c-1.48,1.812-3.035,2.545-4.131,2.83C30.841,77.571,33.56,76.758,33.56,76.758z"/>
<path fill="#FFFFFF" stroke="#815C2D" stroke-width="0.25" stroke-miterlimit="10" d="M40.099,31.958c0,0-3.047,2.377-3.047,7.287
	c0,4.53,2.826,7.874,9.219,7.95c6.395,0.07,8.919-3.715,8.919-7.282c0-4.313-2.304-6.988-2.304-6.988s-1.413-0.674-1.936,0.74
	c0,0-5.128,0.596-8.699-0.518C42.255,33.148,41.812,31.366,40.099,31.958z"/>
<path fill="#FFFFFF" stroke="#815C2D" stroke-width="0.25" stroke-miterlimit="10" d="M51.061,33.425
	c-0.039,0.068-0.078,0.152-0.106,0.24c0,0-5.128,0.596-8.7-0.518c0,0-0.035-0.152-0.127-0.342c-0.033,0.014-0.063,0.031-0.098,0.041
	c0,0-2.672,2.049-2.672,5.65c0,3.334,1.637,6.244,6.871,6.396c5.099,0.14,6.802-3.324,6.802-5.949c0-3.172-1.939-5.42-1.939-5.42
	S51.082,33.486,51.061,33.425z"/>
<ellipse fill="#FFFFFF" stroke="#815C2D" stroke-width="0.25" stroke-miterlimit="10" cx="42.005" cy="38.485" rx="1.674" ry="2.578"/>
<path fill="#7C5425" stroke="#815C2D" stroke-width="0.25" stroke-miterlimit="10" d="M79.557,25.355
	c-0.24,0.359-0.604,0.535-0.806,0.4c-0.207-0.137-0.176-0.541,0.062-0.898c0.244-0.355,0.604-0.535,0.81-0.4
	C79.83,24.598,79.796,24.999,79.557,25.355z"/>
<path fill="none" stroke="#815C2D" stroke-width="0.25" stroke-miterlimit="10" d="M74.292,26.813c0,0-0.838,1.119-0.16,2.133
	c0.639,0.955,1.594,0.666,1.594,0.666"/>
	
	<g id="clickMark_2_0" class="none">
		<path fill="#FFFFFF" d="M83.975,42.521c0,22.892-18.561,41.454-41.458,41.454c-22.893,0-41.453-18.562-41.453-41.454 C1.065,19.623,19.625,1.064,42.519,1.064C65.415,1.064,83.975,19.623,83.975,42.521z" />
		<path fill="none" stroke="#000000" stroke-width="0.9447" d="M42.519,73.262c16.977,0,30.746-13.76,30.746-30.741 c0-16.98-13.769-30.74-30.746-30.74c-16.979,0-30.743,13.76-30.743,30.74C11.774,59.502,25.54,73.262,42.519,73.262z" />
		<path fill="#D7DF23" d="M42.519,73.262c16.977,0,30.746-13.76,30.746-30.741c0-16.98-13.769-30.74-30.746-30.74 c-16.979,0-30.743,13.76-30.743,30.74C11.774,59.502,25.54,73.262,42.519,73.262" />
		<path fill="none" stroke="#000000" stroke-width="0.8879" d="M42.519,73.262c16.977,0,30.746-13.76,30.746-30.741 c0-16.98-13.769-30.74-30.746-30.74c-16.979,0-30.743,13.76-30.743,30.74C11.774,59.502,25.54,73.262,42.519,73.262" />
		<path fill="#ED1C24" d="M58.706,24.476c0.098,0.837-0.395,1.623-1.477,2.36c-1.377,0.983-2.213,1.721-2.508,2.211l-8.408,14.606 l7.08,13.721c0.1,0.148,0.615,0.91,1.549,2.287c0.591,0.838,0.886,1.6,0.886,2.287c0,0.395-0.071,0.789-0.222,1.182 c-0.836,2.113-2.387,3.172-4.646,3.172c-0.937,0-1.846-0.197-2.731-0.592c-1.229-0.541-1.904-1.242-2.027-2.102 c-0.122-0.861-0.232-1.707-0.332-2.545l-3.982-9.888l-4.424,8.854c-0.295,0.982-0.64,1.953-1.033,2.914 c-0.395,0.959-1.157,1.437-2.287,1.437c-1.428,0-2.804-0.491-4.131-1.476c-1.426-1.131-2.041-2.383-1.844-3.762 c0.097-0.541,0.429-1.115,0.995-1.733c0.565-0.615,0.922-1.068,1.071-1.363l6.492-11.806l-4.577-14.306 c-0.147-0.493-0.626-1.096-1.438-1.808s-1.268-1.387-1.364-2.028c-0.148-1.13,0.539-2.139,2.065-3.024 c1.376-0.737,2.851-1.107,4.427-1.107c0.886,0,1.573,0.148,2.066,0.441c1.081,0.692,1.743,1.563,1.989,2.62 c0.245,1.059,0.468,2.104,0.664,3.135l2.212,6.934l4.869-8.706c0.442-0.934,0.924-1.891,1.438-2.876 c0.519-0.985,1.216-1.646,2.103-1.991c0.539-0.247,1.154-0.37,1.844-0.37c1.279,0,2.521,0.356,3.726,1.071 C57.954,22.938,58.606,23.689,58.706,24.476z" />
	</g>
</svg>
