<svg version="1.1" id="svg_2_v" valid="1" xmlns="http://www.w3.org/2000/svg" xmlns:xlink="http://www.w3.org/1999/xlink" x="0px" y="0px" width="85.04px" height="85.04px" viewBox="0 0 85.04 85.04" enable-background="new 0 0 85.04 85.04" xml:space="preserve">

<path fill="#FFFFFF" toFill="#C4934C" stroke="#815C2D" stroke-width="0.25" stroke-miterlimit="10" d="M50.364,51.59
	c0,0-0.387,14.537,5.824,24.035c0,0,2.479,0.908,6.756-0.215c0,0-4.25-2.615-6.082-9c-1.825-6.379-0.215-13.451,1.854-17.145"/>
<path fill="#FFFFFF" toFill="#E7A7BD" stroke="#815C2D" stroke-width="0.25" stroke-miterlimit="10" d="M59.864,72.415
	c-1.041,2.265-2.217,3.097-2.934,3.396c1.03,0.191,3.104,0.363,6.014-0.4C62.944,75.413,61.458,74.486,59.864,72.415z"/>
<path fill="#FFFFFF" toFill="#C4934C" stroke="#815C2D" stroke-width="0.25" stroke-miterlimit="10" d="M38.353,52.782
	c0,0-1.789,2.44-6.471,5.934c-3.506,2.619-6.023,6.598-6.098,10.09c-0.072,3.494,2.082,5.65,3.641,6.244
	c0,0-2.299,0.594-4.086,0.373c-1.783-0.225-1.783-6.988-1.783-6.988s1.783-7.508,1.934-7.805c0.146-0.299,6.912-8.92,7.137-8.92
	C32.849,51.708,38.353,52.782,38.353,52.782z"/>
<path fill="#FFFFFF" toFill="#E7A7BD" stroke="#815C2D" stroke-width="0.25" stroke-miterlimit="10" d="M29.427,75.047
	c-0.697-0.268-1.521-0.852-2.201-1.723c-0.74,1.107-1.594,1.648-1.594,1.648s0.037,0.189,0.098,0.479
	C27.442,75.562,29.427,75.047,29.427,75.047z"/>
<path fill="#FFFFFF" toFill="#E4C383" stroke="#815C2D" stroke-width="0.25" stroke-miterlimit="10" d="M49.764,31.646
	c0,0,0.086-1.186-1.072-4.063c-0.996-2.48-2.61-7.953-0.467-12.643c2.226-4.848,6.801-7.057,12.45-7.32
	c6.125-0.283,9.773,3.295,10.923,5.23c0,0-2.664,0.471-3.447,2.551c-0.979,2.602-11.762,0.713-11.762,0.713
	S53.971,30.15,49.764,31.646z"/>
<path fill="#FFFFFF" toFill="#CF9C50" stroke="#815C2D" stroke-width="0.25" stroke-miterlimit="10" d="M61.251,10.825
	c0,0,3.347-0.15,6.092,3.268c2.865,3.559,5.062,7.807,9.074,9.813c0,0,0,1.784-1.266,2.676c0,0-2.764,6.088-7.359,5.726
	c-5.647-0.445-7.584-5.498-7.584-5.498s-0.965,0.741,0.222,4.086c1.192,3.348,3.127,7.879,2.012,12.417
	c-1.114,4.53-3.422,7.209-7.957,8.916c-4.534,1.709-11.898,3.494-22.009,0.597c-10.107-2.896-13.301-8.326-13.23-14.346
	c0.074-6.095,5.203-8.742,8.996-8.402c5.799,0.521,6.242,4.236,12.637,4.385c6.39,0.15,9.667-1.631,9.442-5.57
	c-0.227-3.94-1.789-13.68,5.947-16.949c0,0,0-3.941,1.561-4.385C59.389,7.102,61.251,10.825,61.251,10.825z"/>
<path fill="#FFFFFF" toFill="#F7E0D0" stroke="#815C2D" stroke-width="0.25" stroke-miterlimit="10" d="M69.546,32.128
	c3.539-0.992,5.605-5.549,5.605-5.549c1.266-0.891,1.266-2.676,1.266-2.676c-1.266-0.629-2.346-1.48-3.324-2.463
	c-3.436,0.451-6.03,4.152-5.969,7.297C67.171,31.12,68.539,31.882,69.546,32.128z"/>
<path fill="#7C5425" stroke="#815C2D" stroke-width="0.25" stroke-miterlimit="10" d="M67.186,19.339
	c-0.146,0.734-0.688,1.244-1.224,1.139c-0.535-0.102-0.848-0.783-0.705-1.514c0.144-0.729,0.695-1.238,1.226-1.137
	C67.016,17.934,67.332,18.611,67.186,19.339z"/>
<path fill="#FFFFFF" toFill="#F7E0D0" stroke="#815C2D" stroke-width="0.25" stroke-miterlimit="10" d="M57.813,11.568
	c0.506-0.133,1.069-0.262,1.696-0.354c-0.012-0.068-0.014-0.139-0.024-0.209c-0.146-0.93-0.653-1.625-1.131-1.547
	c-0.479,0.076-0.75,0.891-0.604,1.822C57.766,11.378,57.789,11.473,57.813,11.568z"/>
<path fill="#FFFFFF" stroke="#815C2D" stroke-width="0.25" stroke-miterlimit="10" d="M67.03,18.875c0,0.219-0.18,0.395-0.397,0.395
	c-0.226,0-0.398-0.176-0.398-0.395c0-0.225,0.176-0.4,0.398-0.4C66.85,18.475,67.03,18.65,67.03,18.875z"/>
<path fill="none" stroke="#815C2D" stroke-width="0.25" stroke-miterlimit="10" d="M66.975,13.53c0,0,0.528-1.119,1.541-1.543"/>
<path fill="none" stroke="#815C2D" stroke-width="0.25" stroke-miterlimit="10" d="M63.944,11.456c0,0,0.168-0.711,0.722-1.537"/>
<path fill="none" stroke="#815C2D" stroke-width="0.25" stroke-miterlimit="10" d="M53.514,10.921c0,0,0,0.957,0.905,2.074"/>
<path fill="none" stroke="#815C2D" stroke-width="0.25" stroke-miterlimit="10" d="M48.35,17.413c0,0,0.317,1.012,1.918,1.857"/>
<path fill="#FFFFFF" toFill="#E4C383" stroke="#815C2D" stroke-width="0.25" stroke-miterlimit="10" d="M20.589,43.167
	c-3.271-3.015-7.199-2.155-8.338-5.87c-1.084-3.551,2.176-6.672,5.293-6.891c2.236-0.154,3.686,0.77,4.326,1.305
	c0.467-0.385,0.961-0.721,1.475-1.002c-0.686-0.826-2.404-2.424-5.512-2.477c-5.146-0.084-9.859,3.914-9.135,10.225
	c0.656,5.729,5.439,8.7,7.395,11.458c1.959,2.754,1.594,7.027-1.74,7.683c0,0,4.785,1.019,7.469-2.244
	c1.432-1.744,2.08-3.815,2.029-5.729C23.79,47.267,22.667,45.086,20.589,43.167z"/>
<path fill="none" stroke="#815C2D" stroke-width="0.25" stroke-miterlimit="10" d="M12.302,52.071
	c0.189-0.085,0.393-0.125,0.602-0.125"/>
<path fill="none" stroke="#815C2D" stroke-width="0.25" stroke-miterlimit="10" d="M19.897,54.167
	c-0.074,0.207-0.158,0.41-0.252,0.604c-1.449,2.972-5.609,3.901-7.643,1.944c-1.4-1.354-1.232-3.112-0.447-4.073"/>
<path fill="none" stroke="#815C2D" stroke-width="0.25" stroke-miterlimit="10" d="M10.964,39.323
	c1.02,2.492,3.207,4.59,5.783,6.387c1.721,1.195,2.783,2.582,3.248,4.244c0.281,1.01,0.346,2.131,0.168,3.188"/>
<path fill="none" stroke="#815C2D" stroke-width="0.25" stroke-miterlimit="10" d="M14.31,30.003
	c-2.627,1.254-4.195,4.168-3.922,7.012"/>
<path fill="none" stroke="#815C2D" stroke-width="0.25" stroke-miterlimit="10" d="M15.394,29.605
	c-0.068,0.018-0.143,0.035-0.211,0.061"/>
<path fill="none" stroke="#815C2D" stroke-width="0.25" stroke-miterlimit="10" d="M17.544,29.357
	c-0.297-0.002-0.609,0.01-0.943,0.039"/>
<path fill="none" stroke="#815C2D" stroke-width="0.25" stroke-miterlimit="10" d="M22.69,31.712c0,0-1.039-1.926-4.168-2.295"/>
<path fill="none" stroke="#815C2D" stroke-width="0.25" stroke-miterlimit="10" d="M15.144,42.21c0,0,3.43,1.122,5.195,3.673"/>
<path fill="none" stroke="#815C2D" stroke-width="0.25" stroke-miterlimit="10" d="M52.953,19.791c0,0,0.235-3.246,2.866-4.732"/>
<path fill="#FFFFFF" toFill="#CF9C50" stroke="#815C2D" stroke-width="0.25" stroke-miterlimit="10" d="M48.46,52.226
	c0,0-0.578,15.017,5.875,24.903c0,0,2.604,0.966,7.14-0.151c0,0-4.463-2.748-6.322-9.362c-1.856-6.613-0.071-13.9,2.158-17.691"/>
<path fill="#FFFFFF" toFill="#EDB5CD" stroke="#815C2D" stroke-width="0.25" stroke-miterlimit="10" d="M58.25,73.849
	c-1.119,2.325-2.373,3.176-3.136,3.478c1.091,0.211,3.277,0.416,6.359-0.349C61.473,76.978,59.916,76.011,58.25,73.849z"/>
<path fill="#FFFFFF" toFill="#CF9C50" stroke="#815C2D" stroke-width="0.25" stroke-miterlimit="10" d="M36.03,49.347
	c0,0-0.609,1.868-4.551,6.403c-3.939,4.535-6.725,7.328-6.873,12.236c-0.145,4.906,2.52,8.029,3.41,8.771
	c0,0-2.977,0.891-6.689-0.074c0,0-2.693-10.334,4.221-27.359"/>
<path fill="#FFFFFF" toFill="#EDB5CD" stroke="#815C2D" stroke-width="0.25" stroke-miterlimit="10" d="M28.017,76.758
	c-0.443-0.368-1.322-1.327-2.078-2.795c-1.48,1.812-3.035,2.545-4.131,2.83C25.298,77.571,28.017,76.758,28.017,76.758z"/>
<path fill="#FFFFFF" toFill="#90A4D4" stroke="#815C2D" stroke-width="0.25" stroke-miterlimit="10" d="M34.556,31.958
	c0,0-3.047,2.377-3.047,7.287c0,4.53,2.826,7.874,9.219,7.95c6.395,0.07,8.919-3.715,8.919-7.282c0-4.313-2.304-6.988-2.304-6.988
	s-1.413-0.674-1.936,0.74c0,0-5.128,0.596-8.699-0.518C36.712,33.148,36.269,31.366,34.556,31.958z"/>
<path fill="#FFFFFF" toFill="#FDDA2A" stroke="#815C2D" stroke-width="0.25" stroke-miterlimit="10" d="M45.518,33.425
	c-0.039,0.068-0.078,0.152-0.106,0.24c0,0-5.128,0.596-8.7-0.518c0,0-0.035-0.152-0.127-0.342c-0.033,0.014-0.063,0.031-0.098,0.041
	c0,0-2.672,2.049-2.672,5.65c0,3.334,1.637,6.244,6.871,6.396c5.099,0.14,6.802-3.324,6.802-5.949c0-3.172-1.939-5.42-1.939-5.42
	S45.539,33.486,45.518,33.425z"/>
<ellipse fill="#FFFFFF" toFill="#FBF3A5" stroke="#815C2D" stroke-width="0.25" stroke-miterlimit="10" cx="36.462" cy="38.485" rx="1.674" ry="2.578"/>
<path fill="#7C5425" stroke="#815C2D" stroke-width="0.25" stroke-miterlimit="10" d="M74.014,25.355
	c-0.24,0.359-0.604,0.535-0.806,0.4c-0.207-0.137-0.176-0.541,0.062-0.898c0.244-0.355,0.604-0.535,0.81-0.4
	C74.287,24.598,74.253,24.999,74.014,25.355z"/>
<path fill="none" stroke="#815C2D" stroke-width="0.25" stroke-miterlimit="10" d="M68.75,26.813c0,0-0.838,1.119-0.16,2.133
	c0.639,0.955,1.594,0.666,1.594,0.666"/>
</svg>
