<svg version="1.1" class="btnOk" xmlns="http://www.w3.org/2000/svg" xmlns:xlink="http://www.w3.org/1999/xlink" x="0px" y="0px" width="120px" height="94px" viewBox="0 0 120px 94px" enable-background="new 0 0 120px 94px" xml:space="preserve">
	<path opacity="0.5" fill="#B7BABF" enable-background="new    " d="M47.169,0.971c0,0,78.686-11.092,72.349,41.719
	c-6.337,52.809-43.304,69.708-100.337,25.876c0,0-25.7-20.947-17.604-42.422C9.675,4.668,47.169,0.971,47.169,0.971z"/>
	<path fill="#B7BABF" stroke="#A2A3A6" stroke-miterlimit="10" d="M47.72,3.009c0,0,75.156-10.593,69.104,39.85
	c-6.053,50.439-41.359,66.582-95.837,24.716c0,0-24.548-20.007-16.812-40.52C11.91,6.541,47.72,3.009,47.72,3.009z"/>
	<path fill="#284697" d="M48.475,5.966c0,0,70.075-9.876,64.432,37.154c-5.643,47.03-38.563,62.08-89.355,23.045
	c0,0-22.889-18.653-15.677-37.781C15.084,9.259,48.475,5.966,48.475,5.966z"/>
	<path fill="#35509F" d="M49.459,9.271c0,0,63.786-8.99,58.647,33.818C102.97,85.9,73.003,99.598,26.767,64.068
	c0,0-20.833-16.981-14.27-34.391C19.063,12.269,49.459,9.271,49.459,9.271z"/>
	
	<path fill="#FFFFFF" d="M43.86,55.542c3.748,4.497,6.773,9.45,9.436,14.653c1.662,3.249,6.979,3.273,8.635,0
	c7.465-14.779,16.414-28.666,25.882-42.229c3.701-5.302-4.973-10.293-8.635-5.047C69.709,36.481,60.76,50.367,53.295,65.148
	c2.879,0,5.757,0,8.635,0c-3.061-5.986-6.692-11.515-10.998-16.677C46.797,43.513,39.762,50.627,43.86,55.542L43.86,55.542z"/>
</svg>
