<svg version="1.1" id="rowOk" xmlns="http://www.w3.org/2000/svg" xmlns:xlink="http://www.w3.org/1999/xlink" x="0px" y="0px" width="85.04px" height="85.04px" viewBox="0 0 85.04 85.04" enable-background="new 0 0 85.04 85.04" xml:space="preserve">

<path fill="#FFFFFF" d="M83.917,42.457c0,22.892-18.561,41.454-41.46,41.454C19.562,83.911,1,65.349,1,42.457
C1,19.558,19.562,1,42.457,1C65.356,1,83.917,19.558,83.917,42.457z"/>
<path fill="none" stroke="#000000" stroke-width="0.9447" d="M42.457,73.198c16.982,0,30.748-13.76,30.748-30.741
c0-16.98-13.766-30.74-30.748-30.74c-16.981,0-30.745,13.76-30.745,30.74C11.711,59.438,25.475,73.198,42.457,73.198z"/>

<path fill="#D7DF23" stroke="#000000" stroke-width="0.8879" d="M42.457,73.198c16.982,0,30.748-13.76,30.748-30.741 c0-16.98-13.766-30.74-30.748-30.74c-16.981,0-30.745,13.76-30.745,30.74C11.711,59.438,25.475,73.198,42.457,73.198"/>
<path fill="#009444" d="M61.915,26.175c0,0.923-0.525,1.787-1.572,2.587c-1.357,1.11-2.188,1.91-2.496,2.403L43.148,54.55 c-1.108,1.971-2.188,3.943-3.236,5.912c-1.724,2.527-3.481,3.789-5.268,3.789c-0.8,0-1.617-0.229-2.447-0.693 c-0.833-0.459-1.312-1.338-1.435-2.633c-0.246-1.787-0.493-2.926-0.739-3.418l-4.621-9.43c-0.185-0.369-1.017-1.416-2.496-3.143 c-0.864-1.109-1.202-2.277-1.015-3.511c0.185-1.54,0.891-2.895,2.126-4.066c1.229-1.17,2.555-1.755,3.972-1.755 c0.616,0,1.234,0.122,1.849,0.368c0.309,0.125,0.741,0.958,1.294,2.496c0.74,2.095,1.265,3.482,1.572,4.159l3.326,6.192 l13.405-21.719c0.678-1.293,1.355-2.618,2.035-3.975c0.984-1.355,2.186-2.033,3.605-2.033c1.537,0,3.064,0.555,4.574,1.666 C61.157,23.865,61.915,25.003,61.915,26.175z"/>

</svg>
