<svg version="1.1" id="qualStars" xmlns="http://www.w3.org/2000/svg" xmlns:xlink="http://www.w3.org/1999/xlink" x="0px" y="0px" width="1440px" height="900px" viewBox="0 0 1440 900" enable-background="new 0 0 1440 900" xml:space="preserve">
<polygon fill="#FFF200" points="569.1,441.392 650.639,373.801 641.185,268.313 730.666,324.977 828.067,283.381 801.826,385.99 
	871.487,465.771 765.791,472.531 711.431,563.426 672.349,464.989 "/>
<polygon fill="#FFF200" points="505.977,292.067 534.12,322.001 574.739,315.796 554.97,351.818 573.411,388.517 533.039,380.841 
	503.841,409.732 498.67,368.983 462.16,350.125 499.328,332.609 "/>
<polygon fill="#FFF200" points="587.581,499.188 612.09,548.866 666.904,556.83 627.249,595.51 636.6,650.115 587.581,624.33 
	538.535,650.115 547.912,595.51 508.23,556.83 563.057,548.866 "/>
<polygon fill="#FFF200" points="763.654,570.172 779.373,602.027 814.496,607.139 789.075,631.909 795.079,666.889 763.654,650.376 
	732.229,666.889 738.232,631.909 712.812,607.139 747.936,602.027 "/>
<polygon fill="#FFF200" points="333.907,386.199 351.938,422.742 392.251,428.59 363.079,457.032 369.968,497.184 333.907,478.221 
	297.846,497.184 304.734,457.032 275.563,428.59 315.876,422.742 "/>
<polygon fill="#FFF200" points="452.119,492.632 459.855,508.312 477.156,510.838 464.641,523.028 467.597,540.271 452.119,532.145 
	436.641,540.271 439.597,523.028 427.081,510.838 444.383,508.312 "/>
<polygon fill="#FFF200" points="256.328,533.7 274.078,569.65 313.76,575.434 285.044,603.407 291.822,642.953 256.328,624.304 
	220.833,642.953 227.612,603.407 198.896,575.434 238.577,569.65 "/>
<polygon fill="#FFF200" points="421.333,605.824 433.71,630.945 461.398,634.957 441.361,654.465 446.089,682.049 421.333,669.051 
	396.575,682.049 401.302,654.465 381.266,634.957 408.954,630.945 "/>
<polygon fill="#FFF200" points="526.006,727.421 544.03,763.964 584.351,769.826 555.178,798.267 562.055,838.405 526.006,819.443 
	489.939,838.405 496.828,798.267 467.656,769.826 507.969,763.964 "/>
<polygon fill="#FFF200" points="272.32,766.464 264.402,741.199 239.091,733.385 260.684,718.044 260.287,691.556 281.547,707.365 
	306.617,698.796 298.165,723.904 314.053,745.081 287.564,744.82 "/>
<polygon fill="#FFF200" points="325.267,896.997 321.104,853.46 282.882,832.206 323.007,814.794 331.407,771.882 360.364,804.648 
	403.777,799.389 381.553,837.051 399.981,876.707 357.29,867.213 "/>
<polygon fill="#FFF200" points="159.031,798.489 150.351,779.059 129.422,775.19 145.227,760.931 142.433,739.833 160.88,750.46 
	180.083,741.278 175.682,762.102 190.339,777.534 169.176,779.774 "/>
<polygon fill="#FFF200" points="216.913,864.985 209.646,855.805 197.964,856.586 204.449,846.832 200.1,835.956 211.378,839.121 
	220.371,831.62 220.853,843.328 230.763,849.565 219.785,853.63 "/>
<polygon fill="#FFF200" points="144.313,868.852 132.682,867.498 124.975,876.311 122.663,864.828 111.897,860.213 122.11,854.477 
	123.165,842.813 131.785,850.752 143.203,848.154 138.314,858.791 "/>
<polygon fill="#FFF200" points="505.977,292.067 534.12,322.001 574.739,315.796 554.97,351.818 573.411,388.517 533.039,380.841 
	503.841,409.732 498.67,368.983 462.16,350.125 499.328,332.609 "/>
<polygon fill="#FFF200" points="587.581,499.188 612.09,548.866 666.904,556.83 627.249,595.51 636.6,650.115 587.581,624.33 
	538.535,650.115 547.912,595.51 508.23,556.83 563.057,548.866 "/>
<polygon fill="#FFF200" points="763.654,570.172 779.373,602.027 814.496,607.139 789.075,631.909 795.079,666.889 763.654,650.376 
	732.229,666.889 738.232,631.909 712.812,607.139 747.936,602.027 "/>
<polygon fill="#FFF200" points="333.907,386.199 351.938,422.742 392.251,428.59 363.079,457.032 369.968,497.184 333.907,478.221 
	297.846,497.184 304.734,457.032 275.563,428.59 315.876,422.742 "/>
<polygon fill="#FFF200" points="452.119,492.632 459.855,508.312 477.156,510.838 464.641,523.028 467.597,540.271 452.119,532.145 
	436.641,540.271 439.597,523.028 427.081,510.838 444.383,508.312 "/>
<polygon fill="#FFF200" points="256.328,533.7 274.078,569.65 313.76,575.434 285.044,603.407 291.822,642.953 256.328,624.304 
	220.833,642.953 227.612,603.407 198.896,575.434 238.577,569.65 "/>
<polygon fill="#FFF200" points="421.333,605.824 433.71,630.945 461.398,634.957 441.361,654.465 446.089,682.049 421.333,669.051 
	396.575,682.049 401.302,654.465 381.266,634.957 408.954,630.945 "/>
<polygon fill="#FFF200" points="526.006,727.421 544.03,763.964 584.351,769.826 555.178,798.267 562.055,838.405 526.006,819.443 
	489.939,838.405 496.828,798.267 467.656,769.826 507.969,763.964 "/>
<polygon fill="#FFF200" points="272.32,766.464 264.402,741.199 239.091,733.385 260.684,718.044 260.287,691.556 281.547,707.365 
	306.617,698.796 298.165,723.904 314.053,745.081 287.564,744.82 "/>
<polygon fill="#FFF200" points="325.267,896.997 321.104,853.46 282.882,832.206 323.007,814.794 331.407,771.882 360.364,804.648 
	403.777,799.389 381.553,837.051 399.981,876.707 357.29,867.213 "/>
<polygon fill="#FFF200" points="159.031,798.489 150.351,779.059 129.422,775.19 145.227,760.931 142.433,739.833 160.88,750.46 
	180.083,741.278 175.682,762.102 190.339,777.534 169.176,779.774 "/>
<polygon fill="#FFF200" points="216.913,864.985 209.646,855.805 197.964,856.586 204.449,846.832 200.1,835.956 211.378,839.121 
	220.371,831.62 220.853,843.328 230.763,849.565 219.785,853.63 "/>
<polygon fill="#FFF200" points="144.313,868.852 132.682,867.498 124.975,876.311 122.663,864.828 111.897,860.213 122.11,854.477 
	123.165,842.813 131.785,850.752 143.203,848.154 138.314,858.791 "/>
</svg>
