<svg version="1.1" id="Capa_1" xmlns="http://www.w3.org/2000/svg" xmlns:xlink="http://www.w3.org/1999/xlink" x="0px" y="0px" width="85.04px" height="85.04px" viewBox="0 0 85.04 85.04" enable-background="new 0 0 85.04 85.04" xml:space="preserve">

<path fill="#FFFFFF" d="M83.664,42.457c0,22.892-18.56,41.454-41.457,41.454c-22.893,0-41.453-18.562-41.453-41.454
C0.755,19.558,19.314,1,42.208,1C65.104,1,83.664,19.558,83.664,42.457z"/>

<path fill="none" stroke="#000000" stroke-width="0.9447" d="M42.208,73.198c16.977,0,30.745-13.76,30.745-30.741
c0-16.98-13.768-30.74-30.745-30.74c-16.979,0-30.743,13.76-30.743,30.74C11.464,59.438,25.229,73.198,42.208,73.198z"/>

<path fill="#D7DF23" d="M42.208,73.198c16.977,0,30.745-13.76,30.745-30.741c0-16.98-13.768-30.74-30.745-30.74 c-16.979,0-30.743,13.76-30.743,30.74C11.464,59.438,25.229,73.198,42.208,73.198"/>

<path fill="none" stroke="#000000" stroke-width="0.8879" d="M42.208,73.198c16.977,0,30.745-13.76,30.745-30.741 c0-16.98-13.768-30.74-30.745-30.74c-16.979,0-30.743,13.76-30.743,30.74C11.464,59.438,25.229,73.198,42.208,73.198"/>

<path fill="#ED1C24" d="M58.395,24.411c0.098,0.837-0.394,1.623-1.476,2.36c-1.378,0.983-2.213,1.721-2.508,2.211l-8.409,14.606
l7.081,13.721c0.099,0.148,0.615,0.91,1.549,2.287c0.59,0.838,0.885,1.6,0.885,2.287c0,0.395-0.071,0.789-0.221,1.182
c-0.836,2.113-2.387,3.172-4.646,3.172c-0.936,0-1.846-0.197-2.731-0.592c-1.229-0.541-1.905-1.242-2.028-2.102
c-0.122-0.861-0.232-1.707-0.332-2.545l-3.982-9.887l-4.424,8.855c-0.295,0.982-0.64,1.953-1.033,2.914
c-0.395,0.959-1.157,1.436-2.287,1.436c-1.428,0-2.804-0.492-4.131-1.475c-1.426-1.131-2.041-2.383-1.844-3.762
c0.097-0.541,0.429-1.115,0.995-1.734c0.565-0.615,0.922-1.068,1.071-1.363l6.492-11.805L31.839,29.87
c-0.147-0.493-0.626-1.096-1.438-1.808s-1.268-1.387-1.364-2.028c-0.148-1.13,0.539-2.139,2.065-3.024
c1.376-0.737,2.851-1.107,4.427-1.107c0.886,0,1.573,0.148,2.066,0.441c1.081,0.692,1.743,1.563,1.989,2.62
c0.245,1.059,0.468,2.104,0.664,3.135l2.212,6.934l4.868-8.706c0.443-0.934,0.924-1.891,1.439-2.876
c0.518-0.985,1.216-1.646,2.103-1.991c0.539-0.247,1.154-0.37,1.844-0.37c1.278,0,2.52,0.356,3.725,1.071
C57.643,22.874,58.296,23.625,58.395,24.411z"/>

</svg>
